<svg width="339" height="180" viewBox="0 0 339 180" fill="none" xmlns="http://www.w3.org/2000/svg">
<path d="M14.4553 122.825C14.9436 122.511 15.3571 122.094 15.6667 121.603C15.9762 121.111 16.1743 120.558 16.247 119.982C16.3197 119.406 16.2652 118.821 16.0874 118.269C15.9095 117.716 15.6126 117.209 15.2177 116.783L18.2021 74.4314L9.60545 75.2651L9.36932 116.74C8.69838 117.451 8.31153 118.384 8.28209 119.361C8.25264 120.338 8.58264 121.292 9.20955 122.042C9.83646 122.792 10.7167 123.286 11.6836 123.43C12.6504 123.575 13.6366 123.359 14.4553 122.825Z" fill="#FFB8B8"/>
<path d="M14.8468 88.9186L6.97568 86.7845C6.55011 86.6686 6.18788 86.3886 5.96848 86.006C5.74908 85.6233 5.69041 85.1693 5.80535 84.7435L8.57239 74.538C8.86875 73.4448 9.55937 72.5 10.5111 71.8859C11.4628 71.2717 12.6081 71.0317 13.7263 71.2121C14.8445 71.3924 15.8563 71.9804 16.5667 72.8626C17.277 73.7448 17.6356 74.8588 17.5732 75.9897L16.9433 87.4046C16.9297 87.6521 16.8609 87.8934 16.7421 88.1109C16.6232 88.3284 16.4572 88.5166 16.2562 88.6617C16.0553 88.8069 15.8245 88.9052 15.5806 88.9497C15.3367 88.9941 15.086 88.9835 14.8468 88.9186Z" fill="#ADEFFE"/>
<path d="M296.242 157.033C287.427 156.956 278.627 156.31 269.896 155.1C269.59 155.058 269.283 155.012 268.976 154.969L269.438 72.4243C269.742 72.1819 270.05 71.9434 270.362 71.7123C271.394 70.9416 272.456 70.2193 273.554 69.5563C278.843 66.3693 285.037 64.9103 289.31 66.3724L289.376 66.3986C290.312 66.7142 291.176 67.2115 291.919 67.862C295.671 71.1955 295.046 77.9355 292.017 84.0519C298.022 78.5659 305.6 74.1976 312.363 73.8657C318.961 73.5402 323.674 76.99 327.679 80.7316C327.811 80.8544 327.94 80.9771 328.069 81.0999C328.135 81.1594 328.197 81.2226 328.264 81.282C331.316 84.2013 334.325 87.6046 333.961 92.5308C333.561 97.9335 329.035 103.924 323.762 108.123C318.493 112.323 312.506 115.114 306.664 117.943C300.825 120.776 294.837 123.841 289.847 128.386C297.634 122.23 306.494 117.266 315.111 115.432C323.728 113.599 332.004 115.212 336.062 120.699C337.256 122.365 338.034 124.292 338.33 126.32C338.37 126.557 338.402 126.798 338.43 127.042C339.008 132.121 337.251 138.186 333.052 143.345C328.428 149.028 321.574 152.967 315.068 154.928C308.561 156.888 302.297 157.096 296.242 157.033Z" fill="white"/>
<path d="M269.268 103.027L269.277 101.449C269.59 100.948 269.9 100.444 270.206 99.9383C270.404 99.6252 270.594 99.3083 270.788 98.9913C273.986 93.7557 277.053 88.4874 279.99 83.1863C282.929 77.89 285.733 72.5671 288.401 67.2175C288.463 67.0757 288.572 66.96 288.71 66.8906C288.849 66.8211 289.007 66.8022 289.157 66.8373C289.177 66.843 289.196 66.8519 289.213 66.8636C289.353 66.9382 289.411 67.1049 289.291 67.3483C288.962 68.0045 288.633 68.6644 288.297 69.3205C285.583 74.6847 282.733 80.0258 279.748 85.3439C276.765 90.6584 273.649 95.9425 270.402 101.196C270.335 101.307 270.264 101.417 270.197 101.528C269.888 102.029 269.578 102.526 269.268 103.027Z" fill="#DCE1E9"/>
<path d="M269.153 123.379L269.159 122.403C269.467 122.183 269.775 121.967 270.083 121.747C277.336 116.575 284.589 111.403 291.842 106.233C303.716 97.767 315.59 89.303 327.464 80.8416C327.528 80.7915 327.601 80.7542 327.679 80.7318C327.942 80.6594 328.096 80.8526 328.069 81.1001C328.054 81.2044 328.017 81.3044 327.961 81.3933C327.904 81.4823 327.829 81.5581 327.741 81.6158C321.082 86.3626 314.425 91.1081 307.771 95.8525C295.956 104.275 284.143 112.696 272.331 121.116C271.581 121.652 270.827 122.187 270.078 122.723C269.769 122.943 269.461 123.163 269.153 123.379Z" fill="#DCE1E9"/>
<path d="M274.822 145.123C273.177 145.074 271.559 144.965 269.955 144.822C269.648 144.795 269.342 144.767 269.035 144.74L269.041 143.716C269.347 143.747 269.654 143.778 269.961 143.806C272.278 144.022 274.621 144.176 277.027 144.197C283.7 144.224 290.358 143.574 296.899 142.256C303.942 140.855 310.849 138.844 317.543 136.245C324.603 133.517 331.434 130.229 337.969 126.411C338.075 126.339 338.204 126.307 338.332 126.32C338.624 126.362 338.71 126.751 338.431 127.042C338.377 127.099 338.314 127.148 338.246 127.188C337.433 127.661 336.619 128.125 335.801 128.58C329.23 132.257 322.376 135.405 315.304 137.992C308.588 140.457 301.67 142.332 294.629 143.596C288.096 144.78 281.459 145.292 274.822 145.123Z" fill="#DCE1E9"/>
<path d="M266.69 0.691528H42.283C41.4283 0.692306 40.6087 1.0322 40.0043 1.63661C39.4 2.24102 39.0601 3.06055 39.0593 3.9153V155.98C39.0601 156.835 39.4 157.654 40.0043 158.259C40.6087 158.863 41.4283 159.203 42.283 159.204H266.69C267.156 159.204 267.617 159.103 268.04 158.907C268.463 158.712 268.839 158.427 269.141 158.072C269.167 158.045 269.191 158.015 269.212 157.984C269.404 157.748 269.56 157.485 269.674 157.204C269.836 156.816 269.919 156.4 269.918 155.98V3.91533C269.917 3.05997 269.576 2.23997 268.971 1.63549C268.366 1.031 267.546 0.691485 266.69 0.691528ZM268.997 155.98C268.998 156.43 268.865 156.87 268.616 157.244C268.395 157.574 268.095 157.844 267.744 158.028C267.418 158.196 267.057 158.284 266.69 158.283H42.283C41.6724 158.282 41.087 158.039 40.6552 157.608C40.2234 157.176 39.9805 156.591 39.9798 155.98V3.91533C39.9805 3.3047 40.2234 2.71929 40.6552 2.28751C41.087 1.85573 41.6724 1.61283 42.283 1.61209H266.69C267.301 1.61201 267.888 1.85452 268.32 2.28637C268.753 2.71822 268.996 3.3041 268.997 3.91533V155.98Z" fill="#2F2E41"/>
<path d="M269.455 13.6123H39.5178V14.5339H269.455V13.6123Z" fill="#2F2E41"/>
<path d="M47.3519 10.3683C48.8789 10.3683 50.1167 9.13046 50.1167 7.60352C50.1167 6.07658 48.8789 4.83875 47.3519 4.83875C45.825 4.83875 44.5872 6.07658 44.5872 7.60352C44.5872 9.13046 45.825 10.3683 47.3519 10.3683Z" fill="#2F2E41"/>
<path d="M55.3009 10.3683C56.8278 10.3683 58.0657 9.13046 58.0657 7.60352C58.0657 6.07658 56.8278 4.83875 55.3009 4.83875C53.774 4.83875 52.5361 6.07658 52.5361 7.60352C52.5361 9.13046 53.774 10.3683 55.3009 10.3683Z" fill="url(#paint0_linear_2191_5729)"/>
<path d="M63.2496 10.3683C64.7766 10.3683 66.0144 9.13046 66.0144 7.60352C66.0144 6.07658 64.7766 4.83875 63.2496 4.83875C61.7227 4.83875 60.4849 6.07658 60.4849 7.60352C60.4849 9.13046 61.7227 10.3683 63.2496 10.3683Z" fill="#FFD200"/>
<path d="M212.196 34.9452H96.8495C95.5749 34.9452 94.3524 34.4388 93.4511 33.5375C92.5498 32.6362 92.0435 31.4137 92.0435 30.1391C92.0435 28.8644 92.5498 27.642 93.4511 26.7407C94.3524 25.8394 95.5749 25.333 96.8495 25.333H212.196C213.47 25.333 214.693 25.8394 215.594 26.7407C216.495 27.642 217.002 28.8644 217.002 30.1391C217.002 31.4137 216.495 32.6362 215.594 33.5375C214.693 34.4388 213.47 34.9452 212.196 34.9452ZM96.8495 26.0724C95.771 26.0724 94.7366 26.5009 93.974 27.2635C93.2113 28.0262 92.7829 29.0605 92.7829 30.1391C92.7829 31.2176 93.2113 32.252 93.974 33.0147C94.7366 33.7773 95.771 34.2058 96.8495 34.2058H212.196C213.274 34.2058 214.309 33.7773 215.071 33.0147C215.834 32.252 216.262 31.2176 216.262 30.1391C216.262 29.0605 215.834 28.0262 215.071 27.2635C214.309 26.5009 213.274 26.0724 212.196 26.0724H96.8495Z" fill="#2F2E41"/>
<path d="M97.8126 64.336H87.461C86.6766 64.336 85.9243 64.0244 85.3697 63.4697C84.815 62.915 84.5034 62.1628 84.5034 61.3784C84.5034 60.594 84.815 59.8417 85.3697 59.287C85.9243 58.7324 86.6766 58.4208 87.461 58.4208H97.8126C98.597 58.4208 99.3493 58.7324 99.9039 59.287C100.459 59.8417 100.77 60.594 100.77 61.3784C100.77 62.1628 100.459 62.915 99.9039 63.4697C99.3493 64.0244 98.597 64.336 97.8126 64.336Z" fill="#DCE1E9"/>
<path d="M110.013 74.3175H87.461C86.6766 74.3175 85.9243 74.0059 85.3697 73.4513C84.815 72.8966 84.5034 72.1443 84.5034 71.3599C84.5034 70.5755 84.815 69.8233 85.3697 69.2686C85.9243 68.714 86.6766 68.4023 87.461 68.4023H110.013C110.797 68.4023 111.549 68.714 112.104 69.2686C112.659 69.8233 112.97 70.5755 112.97 71.3599C112.97 72.1443 112.659 72.8966 112.104 73.4513C111.549 74.0059 110.797 74.3175 110.013 74.3175Z" fill="#DCE1E9"/>
<path d="M99.6619 107.96H89.3104C88.526 107.96 87.7737 107.649 87.219 107.094C86.6644 106.539 86.3528 105.787 86.3528 105.003C86.3528 104.218 86.6644 103.466 87.219 102.911C87.7737 102.357 88.526 102.045 89.3104 102.045H99.6619C100.446 102.045 101.199 102.357 101.753 102.911C102.308 103.466 102.62 104.218 102.62 105.003C102.62 105.787 102.308 106.539 101.753 107.094C101.199 107.649 100.446 107.96 99.6619 107.96Z" fill="#DCE1E9"/>
<path d="M111.862 117.942H89.3104C88.526 117.942 87.7737 117.631 87.219 117.076C86.6644 116.521 86.3528 115.769 86.3528 114.985C86.3528 114.2 86.6644 113.448 87.219 112.893C87.7737 112.339 88.526 112.027 89.3104 112.027H111.862C112.646 112.027 113.399 112.339 113.953 112.893C114.508 113.448 114.82 114.2 114.82 114.985C114.82 115.769 114.508 116.521 113.953 117.076C113.399 117.631 112.646 117.942 111.862 117.942Z" fill="#DCE1E9"/>
<path d="M167.687 106.851H157.335C156.551 106.851 155.799 106.539 155.244 105.985C154.689 105.43 154.378 104.678 154.378 103.893C154.378 103.109 154.689 102.357 155.244 101.802C155.799 101.247 156.551 100.936 157.335 100.936H167.687C168.471 100.936 169.224 101.247 169.778 101.802C170.333 102.357 170.644 103.109 170.644 103.893C170.644 104.678 170.333 105.43 169.778 105.985C169.224 106.539 168.471 106.851 167.687 106.851Z" fill="#DCE1E9"/>
<path d="M179.887 116.833H157.335C156.551 116.833 155.799 116.521 155.244 115.967C154.689 115.412 154.378 114.66 154.378 113.875C154.378 113.091 154.689 112.339 155.244 111.784C155.799 111.229 156.551 110.918 157.335 110.918H179.887C180.671 110.918 181.424 111.229 181.978 111.784C182.533 112.339 182.845 113.091 182.845 113.875C182.845 114.66 182.533 115.412 181.978 115.967C181.424 116.521 180.671 116.833 179.887 116.833Z" fill="#DCE1E9"/>
<path d="M166.577 66.184H156.226C155.441 66.184 154.689 65.8724 154.135 65.3177C153.58 64.7631 153.268 64.0108 153.268 63.2264C153.268 62.442 153.58 61.6897 154.135 61.1351C154.689 60.5804 155.441 60.2688 156.226 60.2688H166.577C167.362 60.2688 168.114 60.5804 168.669 61.1351C169.223 61.6897 169.535 62.442 169.535 63.2264C169.535 64.0108 169.223 64.7631 168.669 65.3177C168.114 65.8724 167.362 66.184 166.577 66.184Z" fill="#DCE1E9"/>
<path d="M178.778 76.1662H156.226C155.442 76.1662 154.689 75.8546 154.135 75.2999C153.58 74.7452 153.268 73.993 153.268 73.2086C153.268 72.4242 153.58 71.6719 154.135 71.1172C154.689 70.5626 155.442 70.251 156.226 70.251H178.778C179.562 70.251 180.314 70.5626 180.869 71.1172C181.424 71.6719 181.735 72.4242 181.735 73.2086C181.735 73.993 181.424 74.7452 180.869 75.2999C180.314 75.8546 179.562 76.1662 178.778 76.1662Z" fill="#DCE1E9"/>
<path d="M235.71 63.9663H225.358C224.574 63.9663 223.822 63.6547 223.267 63.1001C222.712 62.5454 222.401 61.7931 222.401 61.0087C222.401 60.2243 222.712 59.4721 223.267 58.9174C223.822 58.3628 224.574 58.0511 225.358 58.0511H235.71C236.494 58.0511 237.247 58.3628 237.801 58.9174C238.356 59.4721 238.668 60.2243 238.668 61.0087C238.668 61.7931 238.356 62.5454 237.801 63.1001C237.247 63.6547 236.494 63.9663 235.71 63.9663Z" fill="#DCE1E9"/>
<path d="M247.91 73.9484H225.358C224.574 73.9484 223.822 73.6368 223.267 73.0821C222.712 72.5275 222.401 71.7752 222.401 70.9908C222.401 70.2064 222.712 69.4541 223.267 68.8995C223.822 68.3448 224.574 68.0332 225.358 68.0332H247.91C248.695 68.0332 249.447 68.3448 250.001 68.8995C250.556 69.4541 250.868 70.2064 250.868 70.9908C250.868 71.7752 250.556 72.5275 250.001 73.0821C249.447 73.6368 248.695 73.9484 247.91 73.9484Z" fill="#DCE1E9"/>
<path d="M69.1977 77.4603C75.323 77.4603 80.2886 72.4947 80.2886 66.3693C80.2886 60.2439 75.323 55.2783 69.1977 55.2783C63.0723 55.2783 58.1067 60.2439 58.1067 66.3693C58.1067 72.4947 63.0723 77.4603 69.1977 77.4603Z" fill="url(#paint1_linear_2191_5729)"/>
<path d="M74.3735 71.3602H64.0219C63.7279 71.3599 63.446 71.2429 63.238 71.035C63.0301 70.827 62.9132 70.5451 62.9128 70.2511V62.4874C62.9132 62.1933 63.0301 61.9114 63.238 61.7035C63.446 61.4956 63.7279 61.3786 64.0219 61.3783H66.936C67.1256 61.3776 67.3121 61.4258 67.4776 61.5182C67.643 61.6107 67.7819 61.7442 67.8807 61.906L68.6934 63.2268H74.3735C74.6676 63.2271 74.9495 63.3441 75.1574 63.552C75.3653 63.7599 75.4823 64.0418 75.4826 64.3359V70.2511C75.4823 70.5451 75.3653 70.827 75.1574 71.035C74.9495 71.2429 74.6676 71.3599 74.3735 71.3602ZM64.0219 62.1177C63.9239 62.1178 63.83 62.1568 63.7607 62.2261C63.6914 62.2954 63.6524 62.3894 63.6522 62.4874V70.2511C63.6524 70.3491 63.6914 70.443 63.7607 70.5124C63.83 70.5817 63.9239 70.6207 64.0219 70.6208H74.3735C74.4715 70.6207 74.5655 70.5817 74.6348 70.5124C74.7041 70.443 74.7431 70.3491 74.7432 70.2511V64.3359C74.7431 64.2379 74.7041 64.1439 74.6348 64.0746C74.5655 64.0053 74.4715 63.9663 74.3735 63.9662H68.2803L67.251 62.2935C67.2181 62.2396 67.1718 62.1951 67.1166 62.1643C67.0614 62.1335 66.9992 62.1175 66.936 62.1177H64.0219Z" fill="white"/>
<path d="M137.223 79.3084C143.348 79.3084 148.314 74.3428 148.314 68.2174C148.314 62.0921 143.348 57.1265 137.223 57.1265C131.097 57.1265 126.132 62.0921 126.132 68.2174C126.132 74.3428 131.097 79.3084 137.223 79.3084Z" fill="url(#paint2_linear_2191_5729)"/>
<path d="M142.028 75.242H132.416C132.122 75.2417 131.84 75.1248 131.632 74.9168C131.424 74.7089 131.307 74.427 131.307 74.1329V62.3026C131.307 62.0085 131.424 61.7266 131.632 61.5187C131.84 61.3108 132.122 61.1938 132.416 61.1935H139.381C139.634 61.1937 139.879 61.28 140.076 61.4381L142.723 63.5653C142.853 63.6689 142.957 63.8005 143.029 63.9502C143.101 64.0998 143.138 64.2638 143.137 64.4298V74.1329C143.137 74.427 143.02 74.7089 142.812 74.9168C142.604 75.1248 142.322 75.2417 142.028 75.242ZM132.416 61.9329C132.318 61.933 132.224 61.972 132.155 62.0413C132.086 62.1106 132.047 62.2046 132.047 62.3026V74.1329C132.047 74.231 132.086 74.3249 132.155 74.3942C132.224 74.4635 132.318 74.5025 132.416 74.5026H142.028C142.126 74.5025 142.22 74.4635 142.29 74.3942C142.359 74.3249 142.398 74.231 142.398 74.1329V64.4298C142.398 64.3745 142.386 64.3198 142.362 64.27C142.338 64.2201 142.303 64.1762 142.26 64.1417L139.613 62.0143C139.547 61.9617 139.465 61.9329 139.381 61.9329H132.416Z" fill="white"/>
<path d="M140.18 66.3693H134.265C134.167 66.3693 134.073 66.3303 134.003 66.261C133.934 66.1917 133.895 66.0976 133.895 65.9996C133.895 65.9015 133.934 65.8075 134.003 65.7382C134.073 65.6688 134.167 65.6299 134.265 65.6299H140.18C140.278 65.6299 140.372 65.6688 140.441 65.7382C140.511 65.8075 140.55 65.9015 140.55 65.9996C140.55 66.0976 140.511 66.1917 140.441 66.261C140.372 66.3303 140.278 66.3693 140.18 66.3693Z" fill="white"/>
<path d="M140.18 68.5874H134.265C134.167 68.5874 134.073 68.5485 134.003 68.4791C133.934 68.4098 133.895 68.3158 133.895 68.2177C133.895 68.1197 133.934 68.0256 134.003 67.9563C134.073 67.887 134.167 67.848 134.265 67.848H140.18C140.278 67.848 140.372 67.887 140.441 67.9563C140.511 68.0256 140.55 68.1197 140.55 68.2177C140.55 68.3158 140.511 68.4098 140.441 68.4791C140.372 68.5485 140.278 68.5874 140.18 68.5874Z" fill="white"/>
<path d="M140.18 70.8058H134.265C134.167 70.8058 134.073 70.7668 134.003 70.6975C133.934 70.6282 133.895 70.5342 133.895 70.4361C133.895 70.3381 133.934 70.244 134.003 70.1747C134.073 70.1054 134.167 70.0664 134.265 70.0664H140.18C140.278 70.0664 140.372 70.1054 140.441 70.1747C140.511 70.244 140.55 70.3381 140.55 70.4361C140.55 70.5342 140.511 70.6282 140.441 70.6975C140.372 70.7668 140.278 70.8058 140.18 70.8058Z" fill="white"/>
<path d="M205.616 77.0906C211.742 77.0906 216.707 72.125 216.707 65.9997C216.707 59.8743 211.742 54.9087 205.616 54.9087C199.491 54.9087 194.525 59.8743 194.525 65.9997C194.525 72.125 199.491 77.0906 205.616 77.0906Z" fill="url(#paint3_linear_2191_5729)"/>
<path d="M210.793 70.0662H200.441C200.147 70.0659 199.865 69.949 199.657 69.741C199.449 69.5331 199.332 69.2512 199.332 68.9571V63.042C199.332 62.7479 199.449 62.466 199.657 62.2581C199.865 62.0501 200.147 61.9332 200.441 61.9329H210.793C211.087 61.9332 211.369 62.0501 211.577 62.2581C211.785 62.466 211.901 62.7479 211.902 63.042V68.9571C211.901 69.2512 211.785 69.5331 211.577 69.741C211.369 69.949 211.087 70.0659 210.793 70.0662ZM200.441 62.6723C200.343 62.6724 200.249 62.7113 200.18 62.7806C200.111 62.85 200.072 62.9439 200.071 63.042V68.9571C200.072 69.0552 200.111 69.1491 200.18 69.2185C200.249 69.2878 200.343 69.3267 200.441 69.3268H210.793C210.891 69.3267 210.985 69.2878 211.054 69.2185C211.123 69.1491 211.162 69.0552 211.162 68.9571V63.042C211.162 62.9439 211.123 62.85 211.054 62.7806C210.985 62.7113 210.891 62.6724 210.793 62.6723H200.441Z" fill="white"/>
<path d="M205.616 66.9749C205.409 66.9752 205.205 66.9173 205.029 66.8076L199.505 63.3556C199.422 63.3035 199.363 63.2206 199.341 63.1251C199.319 63.0297 199.336 62.9294 199.388 62.8464C199.44 62.7633 199.523 62.7043 199.618 62.6821C199.714 62.66 199.814 62.6767 199.897 62.7285L205.421 66.1805C205.48 66.217 205.547 66.2363 205.617 66.2363C205.686 66.2363 205.754 66.217 205.812 66.1805L211.336 62.7285C211.419 62.6767 211.519 62.66 211.614 62.6821C211.71 62.7043 211.793 62.7633 211.845 62.8464C211.896 62.9294 211.913 63.0297 211.891 63.1251C211.869 63.2206 211.811 63.3035 211.728 63.3556L206.205 66.8076C206.028 66.9173 205.824 66.9753 205.616 66.9749Z" fill="white"/>
<path d="M69.1977 121.085C75.323 121.085 80.2886 116.119 80.2886 109.994C80.2886 103.868 75.323 98.9028 69.1977 98.9028C63.0723 98.9028 58.1067 103.868 58.1067 109.994C58.1067 116.119 63.0723 121.085 69.1977 121.085Z" fill="url(#paint4_linear_2191_5729)"/>
<path d="M74.3735 114.06H64.0219C63.7279 114.06 63.446 113.943 63.238 113.735C63.0301 113.527 62.9132 113.245 62.9128 112.951V107.036C62.9132 106.742 63.0301 106.46 63.238 106.252C63.446 106.044 63.7279 105.927 64.0219 105.927H74.3735C74.6676 105.927 74.9495 106.044 75.1574 106.252C75.3653 106.46 75.4823 106.742 75.4826 107.036V112.951C75.4823 113.245 75.3653 113.527 75.1574 113.735C74.9495 113.943 74.6676 114.06 74.3735 114.06ZM64.0219 106.666C63.9239 106.666 63.8299 106.705 63.7606 106.775C63.6913 106.844 63.6523 106.938 63.6522 107.036V112.951C63.6523 113.049 63.6913 113.143 63.7606 113.212C63.8299 113.282 63.9239 113.321 64.0219 113.321H74.3735C74.4715 113.321 74.5655 113.282 74.6348 113.212C74.7041 113.143 74.7431 113.049 74.7432 112.951V107.036C74.7431 106.938 74.7041 106.844 74.6348 106.775C74.5655 106.705 74.4715 106.666 74.3735 106.666H64.0219Z" fill="white"/>
<path d="M72.734 114.061H65.2942C65.1644 114.061 65.0368 114.027 64.9244 113.962C64.812 113.897 64.7186 113.803 64.6537 113.691C64.5888 113.579 64.5547 113.451 64.5547 113.321C64.5547 113.192 64.5889 113.064 64.6539 112.952L66.8948 109.07C66.9597 108.957 67.0531 108.864 67.1655 108.799C67.2779 108.734 67.4054 108.7 67.5352 108.7C67.665 108.7 67.7925 108.734 67.9049 108.799C68.0173 108.864 68.1107 108.957 68.1756 109.07L69.6229 111.577L70.4614 110.124C70.5263 110.012 70.6197 109.919 70.7321 109.854C70.8445 109.789 70.972 109.755 71.1018 109.755C71.2316 109.755 71.3591 109.789 71.4715 109.854C71.584 109.919 71.6773 110.012 71.7422 110.124L73.3744 112.952C73.4393 113.064 73.4735 113.192 73.4735 113.321C73.4735 113.451 73.4393 113.579 73.3744 113.691C73.3095 113.803 73.2161 113.897 73.1037 113.962C72.9913 114.027 72.8638 114.061 72.734 114.061ZM72.734 113.321L71.1018 110.494L69.9432 112.501C69.9108 112.557 69.8641 112.604 69.8079 112.636C69.7516 112.669 69.6879 112.686 69.623 112.686C69.5581 112.686 69.4943 112.669 69.4381 112.636C69.3819 112.604 69.3352 112.557 69.3027 112.501L67.5353 109.439L65.2942 113.321H72.734Z" fill="white"/>
<path d="M73.265 108.885C73.6734 108.885 74.0044 108.554 74.0044 108.145C74.0044 107.737 73.6734 107.406 73.265 107.406C72.8567 107.406 72.5256 107.737 72.5256 108.145C72.5256 108.554 72.8567 108.885 73.265 108.885Z" fill="white"/>
<path d="M137.961 119.975C144.086 119.975 149.052 115.01 149.052 108.884C149.052 102.759 144.086 97.7933 137.961 97.7933C131.836 97.7933 126.87 102.759 126.87 108.884C126.87 115.01 131.836 119.975 137.961 119.975Z" fill="url(#paint5_linear_2191_5729)"/>
<path d="M137.963 109.07C137.304 109.07 136.661 108.875 136.114 108.509C135.567 108.144 135.14 107.624 134.889 107.016C134.637 106.408 134.571 105.739 134.699 105.093C134.828 104.448 135.144 103.855 135.61 103.39C136.075 102.924 136.668 102.608 137.313 102.479C137.959 102.351 138.628 102.417 139.236 102.669C139.844 102.92 140.363 103.347 140.729 103.894C141.095 104.441 141.29 105.084 141.29 105.743C141.289 106.625 140.938 107.47 140.314 108.094C139.69 108.718 138.845 109.069 137.963 109.07ZM137.963 103.155C137.451 103.155 136.95 103.306 136.525 103.591C136.099 103.875 135.768 104.279 135.572 104.752C135.376 105.225 135.325 105.745 135.424 106.247C135.524 106.749 135.771 107.211 136.133 107.572C136.495 107.934 136.956 108.181 137.458 108.281C137.96 108.381 138.48 108.329 138.953 108.133C139.426 107.938 139.83 107.606 140.114 107.18C140.399 106.755 140.55 106.254 140.55 105.743C140.55 105.056 140.277 104.399 139.792 103.914C139.306 103.428 138.649 103.155 137.963 103.155Z" fill="white"/>
<path d="M140.921 115.354H135.005C134.662 115.354 134.333 115.217 134.091 114.975C133.848 114.732 133.712 114.403 133.711 114.06C133.711 112.933 134.159 111.851 134.957 111.054C135.754 110.257 136.835 109.809 137.963 109.809C139.091 109.809 140.172 110.257 140.969 111.054C141.767 111.851 142.215 112.933 142.215 114.06C142.214 114.403 142.078 114.732 141.835 114.975C141.592 115.217 141.264 115.354 140.921 115.354ZM137.963 110.548C137.032 110.549 136.139 110.92 135.481 111.578C134.822 112.236 134.452 113.129 134.451 114.06C134.451 114.207 134.509 114.348 134.613 114.452C134.717 114.556 134.858 114.615 135.005 114.615H140.921C141.068 114.615 141.209 114.556 141.313 114.452C141.416 114.348 141.475 114.207 141.475 114.06C141.474 113.129 141.104 112.236 140.445 111.578C139.787 110.92 138.894 110.549 137.963 110.548Z" fill="white"/>
<path d="M30.9087 174.893H35.4412L37.5973 157.41L30.908 157.411L30.9087 174.893Z" fill="#FFB8B8"/>
<path d="M44.1819 179.101L29.9371 179.102L29.9369 173.598L38.678 173.598C40.1376 173.598 41.5375 174.178 42.5697 175.21C43.6019 176.242 44.1818 177.642 44.1819 179.101Z" fill="#FFD200"/>
<path d="M13.9014 174.893H18.4339L20.59 157.41L13.9006 157.411L13.9014 174.893Z" fill="#FFB8B8"/>
<path d="M27.1768 179.101L12.932 179.102L12.9317 173.598L21.6728 173.598C23.1325 173.598 24.5324 174.178 25.5646 175.21C26.5968 176.242 27.1767 177.642 27.1768 179.101Z" fill="#FFD200"/>
<path d="M31.0437 166.088C30.637 166.087 30.2448 165.937 29.9406 165.667C29.6365 165.397 29.4413 165.026 29.3916 164.622L26.7571 142.587C26.72 142.277 26.5719 141.99 26.3401 141.781C26.1083 141.571 25.8086 141.453 25.4961 141.447C25.1837 141.441 24.8797 141.549 24.6404 141.749C24.4011 141.95 24.2425 142.231 24.194 142.54L20.8752 163.638C20.8151 164.03 20.6161 164.387 20.3145 164.645C20.0129 164.903 19.6286 165.044 19.2318 165.043H13.8527C13.6331 165.043 13.4158 164.999 13.2131 164.915C13.0104 164.83 12.8265 164.707 12.6718 164.551C12.5172 164.395 12.3949 164.21 12.3121 164.007C12.2292 163.804 12.1874 163.586 12.189 163.366L14.7563 116.587C14.7572 116.189 14.9019 115.804 15.1636 115.504C15.4253 115.204 15.7865 115.008 16.1809 114.953L36.1423 112.055C36.3795 112.021 36.6213 112.038 36.8512 112.106C37.0811 112.174 37.2936 112.29 37.4743 112.448C37.655 112.605 37.7995 112.8 37.898 113.018C37.9965 113.237 38.0466 113.474 38.045 113.713L37.6968 164.198C37.6938 164.624 37.5279 165.032 37.2332 165.339C36.9385 165.646 36.5373 165.828 36.1123 165.848L31.1227 166.086C31.0962 166.088 31.0699 166.088 31.0437 166.088Z" fill="#2F2E41"/>
<path d="M20.694 118.354C18.7739 118.347 16.8696 118.008 15.065 117.352C14.7591 117.239 14.4934 117.038 14.3014 116.775C14.1094 116.511 13.9997 116.197 13.9862 115.871C13.814 112.05 12.8065 92.379 9.8735 80.3804C9.30342 78.0267 9.44284 75.5569 10.2742 73.2823C11.1056 71.0077 12.5917 69.0301 14.5452 67.5988C14.703 67.4854 14.8638 67.3741 15.0277 67.2648C16.7241 66.1355 18.6812 65.4591 20.7128 65.2998C22.7444 65.1406 24.783 65.5038 26.6346 66.355C28.5474 67.2109 30.2094 68.542 31.4625 70.2217C32.7155 71.9014 33.5179 73.8738 33.7933 75.9513L38.5762 111.461C38.607 111.683 38.5923 111.909 38.5331 112.125C38.474 112.341 38.3715 112.543 38.232 112.719C38.0955 112.893 37.9251 113.037 37.7311 113.144C37.537 113.25 37.3234 113.316 37.1031 113.337C35.4458 113.502 32.0085 114.145 27.6093 116.589C25.4938 117.761 23.1123 118.369 20.694 118.354Z" fill="#68E1FD"/>
<path d="M23.6092 61.5333C28.6241 61.5333 32.6894 57.468 32.6894 52.4531C32.6894 47.4383 28.6241 43.3729 23.6092 43.3729C18.5944 43.3729 14.5291 47.4383 14.5291 52.4531C14.5291 57.468 18.5944 61.5333 23.6092 61.5333Z" fill="#FFB8B8"/>
<path d="M56.5137 70.2929C56.4684 70.4923 56.4388 70.6951 56.4253 70.8992L40.544 80.0611L36.6838 77.8389L32.5686 83.2262L40.8266 89.112L58.9448 74.8185C59.6838 75.0919 60.4885 75.1339 61.2519 74.9389C62.0153 74.7439 62.7012 74.321 63.2185 73.7267C63.7358 73.1323 64.0598 72.3945 64.1476 71.6115C64.2353 70.8284 64.0826 70.0373 63.7097 69.3431C63.3369 68.649 62.7615 68.0848 62.0602 67.7257C61.3589 67.3665 60.5648 67.2293 59.7837 67.3324C59.0025 67.4355 58.2713 67.774 57.6872 68.3028C57.103 68.8317 56.6938 69.5258 56.5137 70.2929Z" fill="#FFB8B8"/>
<path d="M39.228 80.5031L32.387 84.9426C32.0168 85.1823 31.5665 85.2653 31.1351 85.1735C30.7037 85.0817 30.3264 84.8224 30.0858 84.4527L24.3296 75.5828C23.713 74.6327 23.47 73.488 23.6474 72.3693C23.8249 71.2506 24.4102 70.2373 25.2906 69.5246C26.171 68.812 27.284 68.4505 28.4151 68.51C29.5462 68.5694 30.6152 69.0455 31.4161 69.8465L39.4989 77.9313C39.6742 78.1065 39.8081 78.3188 39.8908 78.5524C39.9735 78.7861 40.003 79.0353 39.977 79.2818C39.9511 79.5283 39.8703 79.7659 39.7407 79.9772C39.6112 80.1885 39.436 80.3682 39.228 80.5031Z" fill="#ADEFFE"/>
<path d="M17.1823 59.6371C18.8763 61.4415 22.0222 60.4729 22.2429 58.0078C22.2602 57.8164 22.2589 57.6238 22.2391 57.4326C22.1252 56.3407 21.4943 55.3494 21.6455 54.1964C21.6797 53.9095 21.7866 53.636 21.956 53.402C23.3059 51.5944 26.4746 54.2105 27.7486 52.5741C28.5297 51.5707 27.6115 49.991 28.2109 48.8695C29.0021 47.3894 31.3455 48.1196 32.8151 47.309C34.4502 46.4071 34.3524 43.8984 33.2761 42.3725C31.9635 40.5116 29.662 39.5186 27.3892 39.3755C25.1165 39.2324 22.8593 39.8468 20.7375 40.6737C18.3267 41.6132 15.936 42.9117 14.4524 45.0315C12.6482 47.6095 12.4745 51.0753 13.3768 54.0898C13.9257 55.9235 15.799 58.1636 17.1823 59.6371Z" fill="#2F2E41"/>
<path d="M53.1134 179.128H1.35554C1.25749 179.128 1.16345 179.089 1.09412 179.019C1.02479 178.95 0.98584 178.856 0.98584 178.758C0.98584 178.66 1.02479 178.566 1.09412 178.496C1.16345 178.427 1.25749 178.388 1.35554 178.388H53.1134C53.2114 178.388 53.3055 178.427 53.3748 178.496C53.4441 178.566 53.4831 178.66 53.4831 178.758C53.4831 178.856 53.4441 178.95 53.3748 179.019C53.3055 179.089 53.2114 179.128 53.1134 179.128Z" fill="#2F2E41"/>
<defs>
<linearGradient id="paint0_linear_2191_5729" x1="58.0657" y1="10.3683" x2="52.5361" y2="4.83874" gradientUnits="userSpaceOnUse">
<stop stop-color="#03B8DF"/>
<stop offset="1" stop-color="#1853A4"/>
</linearGradient>
<linearGradient id="paint1_linear_2191_5729" x1="80.2886" y1="77.4603" x2="58.1067" y2="55.2783" gradientUnits="userSpaceOnUse">
<stop stop-color="#03B8DF"/>
<stop offset="1" stop-color="#1853A4"/>
</linearGradient>
<linearGradient id="paint2_linear_2191_5729" x1="148.314" y1="79.3084" x2="126.132" y2="57.1265" gradientUnits="userSpaceOnUse">
<stop stop-color="#03B8DF"/>
<stop offset="1" stop-color="#1853A4"/>
</linearGradient>
<linearGradient id="paint3_linear_2191_5729" x1="216.707" y1="77.0906" x2="194.525" y2="54.9087" gradientUnits="userSpaceOnUse">
<stop stop-color="#03B8DF"/>
<stop offset="1" stop-color="#1853A4"/>
</linearGradient>
<linearGradient id="paint4_linear_2191_5729" x1="80.2886" y1="121.085" x2="58.1067" y2="98.9028" gradientUnits="userSpaceOnUse">
<stop stop-color="#03B8DF"/>
<stop offset="1" stop-color="#1853A4"/>
</linearGradient>
<linearGradient id="paint5_linear_2191_5729" x1="149.052" y1="119.975" x2="126.87" y2="97.7933" gradientUnits="userSpaceOnUse">
<stop stop-color="#03B8DF"/>
<stop offset="1" stop-color="#1853A4"/>
</linearGradient>
</defs>
</svg>
