<svg width="251" height="189" viewBox="0 0 251 189" fill="none" xmlns="http://www.w3.org/2000/svg">
<path d="M229.243 168.345L229.619 159.869C233.543 157.769 237.919 156.659 242.368 156.637C236.245 161.651 237.01 171.316 232.859 178.058C231.548 180.151 229.784 181.921 227.697 183.239C225.61 184.556 223.253 185.386 220.802 185.667L215.678 188.809C214.975 184.883 215.13 180.852 216.133 176.992C217.135 173.132 218.961 169.536 221.485 166.451C222.918 164.734 224.561 163.205 226.376 161.899C227.603 165.14 229.243 168.345 229.243 168.345Z" fill="white"/>
<path d="M53.3252 92.9926C52.9867 92.6832 52.72 92.3031 52.5439 91.8793C52.3679 91.4554 52.2867 90.9981 52.3063 90.5395C52.3258 90.0808 52.4455 89.632 52.6569 89.2247C52.8683 88.8174 53.1664 88.4615 53.53 88.1821L50.0195 77.5917L55.6111 79.0962L58.0875 88.9223C58.5157 89.5653 58.6937 90.3432 58.5875 91.1087C58.4813 91.8743 58.0985 92.5742 57.5115 93.0759C56.9245 93.5776 56.1741 93.8462 55.4026 93.8309C54.631 93.8155 53.8919 93.5173 53.3252 92.9926Z" fill="#FCBCB8"/>
<path d="M63.46 35.453C64.3878 35.9857 69.8772 34.6658 70.9492 35.0413C70.3575 38.6576 73.5717 37.3005 70.0813 42.0496C66.5909 46.7987 59.5609 61.0377 57.9639 66.3595C56.3669 71.6813 57.9475 79.1811 57.7083 81.7033C57.5928 83.1646 57.6 84.6331 57.7299 86.0933C55.8441 86.0694 53.9853 86.4613 52.07 86.211C50.0275 80.4227 48.6542 72.1836 47.7217 67.6301C46.7891 63.0766 46.755 65.0022 47.1827 62.7253C47.6104 60.4484 47.714 62.103 47.2647 59.9248C46.8154 57.7466 48.6325 55.0098 50.3113 53.4493C51.0352 51.3641 51.9707 49.4198 52.6874 47.3563C57.939 42.7681 58.2843 40.1176 63.46 35.453Z" fill="#9EECFE"/>
<path d="M216.038 182.936H211.398L209.191 165.012H216.039L216.038 182.936Z" fill="#FFB6B6"/>
<path d="M217.223 187.44L202.263 187.44V187.25C202.263 185.704 202.876 184.22 203.968 183.127C205.06 182.033 206.541 181.418 208.086 181.418L210.819 179.342L215.918 181.419L217.224 181.419L217.223 187.44Z" fill="#2F2E41"/>
<path d="M194.483 182.936H189.843L187.636 165.012H194.484L194.483 182.936Z" fill="#FFB6B6"/>
<path d="M195.666 187.44L180.706 187.44V187.25C180.706 185.704 181.319 184.22 182.411 183.127C183.503 182.033 184.985 181.418 186.529 181.418L189.262 179.342L194.361 181.419L195.667 181.419L195.666 187.44Z" fill="#2F2E41"/>
<path d="M192.474 84.9468L222.654 85.7024C228.385 88.8203 228.472 95.5685 226.594 103.581C226.594 103.581 227.228 108.343 225.96 109.613C224.692 110.883 224.058 110.883 224.692 113.105C225.326 115.327 221.977 118.957 222.384 119.364C222.79 119.772 223.741 121.994 223.741 121.994L220.571 140.09C220.571 140.09 218.352 171.52 217.718 172.155C217.084 172.79 216.451 172.155 217.084 173.743C217.718 175.33 218.352 174.695 217.718 175.33C217.157 175.937 216.628 176.572 216.134 177.235H208.47C208.47 177.235 207.892 174.06 207.892 173.743C207.892 173.425 207.258 171.52 207.258 171.203C207.258 170.885 207.818 170.324 207.818 170.324C208.012 169.679 208.142 169.016 208.209 168.346C208.209 167.711 210.111 143.265 210.111 143.265L206.307 111.517L197.114 142.63C197.114 142.63 197.114 169.933 196.48 170.568C195.846 171.203 195.846 170.885 196.163 172.155C196.48 173.425 197.748 173.108 196.797 174.06C195.846 175.013 195.529 173.425 195.846 175.013L196.163 176.6L186.653 176.736C186.653 176.736 185.385 174.06 186.019 173.108C186.653 172.155 186.615 172.415 185.842 170.857C185.068 169.298 184.751 168.981 185.068 168.663C185.385 168.346 185.385 166.657 185.385 166.657L186.97 136.281C186.97 136.281 187.287 104.216 187.287 103.263C187.311 102.773 187.221 102.284 187.024 101.835V100.542L188.238 95.9612L192.474 84.9468Z" fill="#68E1FD"/>
<path d="M210.605 22.0985C215.784 22.0985 219.982 17.8939 219.982 12.7074C219.982 7.52082 215.784 3.31628 210.605 3.31628C205.426 3.31628 201.228 7.52082 201.228 12.7074C201.228 17.8939 205.426 22.0985 210.605 22.0985Z" fill="#FFB6B6"/>
<path d="M205.916 28.3055C203.896 29.5082 202.688 31.7182 201.994 33.967C200.71 38.1305 199.937 42.4351 199.692 46.7858L198.959 59.8111L189.885 87.5454C197.749 94.21 227.311 89.0601 227.311 89.0601C227.311 89.0601 228.218 88.7572 227.311 87.8484C226.403 86.9395 225.52 87.7447 226.427 86.8359C227.335 85.927 226.709 86.9395 226.407 86.0307C226.104 85.1219 226.407 85.7278 226.709 85.4248C227.011 85.1219 224.367 82.3954 224.367 82.3954L226.787 66.4757L229.812 34.3642C226.182 29.8201 218.882 27.1414 218.882 27.1414L216.996 23.7411L207.565 24.4967L205.916 28.3055Z" fill="#2F2E41"/>
<path d="M204.63 7.19591C204.993 7.19875 205.354 7.2462 205.706 7.33721C206.398 7.50394 207.101 7.62205 207.81 7.69068C209.981 7.89521 212.021 8.82238 213.604 10.3241C215.186 11.8258 216.221 13.8155 216.543 15.9753C217.087 15.4995 218.327 14.6243 219.344 15.4377C219.359 15.4506 219.368 15.4572 219.404 15.4403C220.079 15.1196 221.277 11.1729 221.313 7.69787C221.332 5.85345 221.042 3.49821 219.553 2.75236L219.474 2.71307L219.454 2.62765C219.354 2.21276 218.242 1.50454 216.31 0.953323C212.799 -0.0483987 207.668 -0.193216 204.72 2.67857C204.497 3.64672 203.668 3.912 202.935 4.14684C202.123 4.40677 201.422 4.63109 201.311 5.62838C201.219 7.04761 201.226 8.47156 201.331 9.88985C201.607 9.02198 202.146 8.26237 202.875 7.71798C203.393 7.36861 204.006 7.18643 204.63 7.19591Z" fill="#2F2E41"/>
<path d="M187.177 59.086L202.495 49.2615L194.78 38.9906L187.162 48.3755L163.426 49.8334C162.802 49.2154 162.012 48.7926 161.152 48.6166C160.292 48.4407 159.399 48.5191 158.583 48.8425C157.767 49.1658 157.062 49.72 156.555 50.4375C156.047 51.1551 155.759 52.0049 155.726 52.8834C155.693 53.7619 155.915 54.6312 156.367 55.3852C156.818 56.1392 157.479 56.7453 158.269 57.1297C159.058 57.5141 159.942 57.6602 160.813 57.5501C161.684 57.44 162.504 57.0785 163.173 56.5096L187.177 59.086Z" fill="#FFB6B6"/>
<path d="M216.71 35.5486C217.599 40.9369 200.811 51.2261 200.811 51.2261C200.811 49.9614 190.791 59.5091 190.339 58.4602C189.053 55.4791 188.15 48.4184 186.354 47.2882C185.326 46.6419 192.54 40.5704 192.54 40.5704C192.54 40.5704 196.316 36.7606 201.271 31.9551C202.647 30.5705 204.35 29.557 206.222 29.009C208.094 28.4609 210.074 28.3962 211.978 28.8207C211.978 28.8207 215.821 30.1604 216.71 35.5486Z" fill="#2F2E41"/>
<path d="M199.643 97.4145C199.649 103.181 198.685 108.907 196.791 114.352C196.704 114.605 196.613 114.854 196.523 115.107C192.645 125.655 185.432 134.645 175.982 140.708C175.337 141.124 174.684 141.52 174.02 141.906C166.47 146.289 157.924 148.659 149.198 148.79C148.911 148.793 148.625 148.797 148.338 148.797C147.968 148.797 147.602 148.793 147.236 148.786C138.499 148.612 129.952 146.195 122.414 141.766C121.75 141.377 121.096 140.973 120.452 140.553C109.961 133.742 102.311 123.331 98.9375 111.273C95.5642 99.215 96.6993 86.3388 102.13 75.0593C102.25 74.8062 102.375 74.5568 102.503 74.3037C106.78 65.803 113.33 58.6587 121.423 53.6669C129.516 48.6751 138.833 46.032 148.338 46.032C157.842 46.032 167.16 48.6751 175.253 53.6669C183.346 58.6587 189.896 65.803 194.173 74.3037C194.301 74.5568 194.425 74.8062 194.546 75.0593C197.912 82.0289 199.654 89.6726 199.643 97.4145Z" fill="white"/>
<path d="M183.769 114.352V115.107H188.364V114.352H183.769ZM174.58 114.352V115.107H179.174V114.352H174.58ZM165.39 114.352V115.107H169.985V114.352H165.39ZM156.201 114.352V115.107H160.795V114.352H156.201ZM147.011 114.352V115.107H151.606V114.352H147.011ZM137.821 114.352V115.107H142.416V114.352H137.821ZM128.632 114.352V115.107H133.227V114.352H128.632ZM119.446 114.352V115.107H124.037V114.352H119.446ZM110.256 114.352V115.107H114.851V114.352H110.256ZM101.067 114.352V115.107H105.662V114.352H101.067ZM196.792 114.352H192.959V115.107H196.524L196.792 114.352Z" fill="#DCE1E9"/>
<path d="M192.959 109.062V109.818H197.554V109.062H192.959ZM183.769 109.062V109.818H188.364V109.062H183.769ZM174.58 109.062V109.818H179.174V109.062H174.58ZM165.39 109.062V109.818H169.985V109.062H165.39ZM156.201 109.062V109.818H160.795V109.062H156.201ZM147.011 109.062V109.818H151.606V109.062H147.011ZM137.821 109.062V109.818H142.416V109.062H137.821ZM128.632 109.062V109.818H133.227V109.062H128.632ZM119.446 109.062V109.818H124.037V109.062H119.446ZM110.256 109.062V109.818H114.851V109.062H110.256ZM101.067 109.062V109.818H105.662V109.062H101.067Z" fill="#DCE1E9"/>
<path d="M192.959 98.1057V98.8613H197.554V98.1057H192.959ZM183.769 98.1057V98.8613H188.364V98.1057H183.769ZM174.58 98.1057V98.8613H179.174V98.1057H174.58ZM165.39 98.1057V98.8613H169.985V98.1057H165.39ZM156.201 98.1057V98.8613H160.795V98.1057H156.201ZM147.011 98.1057V98.8613H151.606V98.1057H147.011ZM137.821 98.1057V98.8613H142.416V98.1057H137.821ZM128.632 98.1057V98.8613H133.227V98.1057H128.632ZM119.446 98.1057V98.8613H124.037V98.1057H119.446ZM110.256 98.1057V98.8613H114.851V98.1057H110.256ZM101.067 98.1057V98.8613H105.662V98.1057H101.067Z" fill="#DCE1E9"/>
<path d="M192.959 90.55V91.3057H197.554V90.55H192.959ZM183.769 90.55V91.3057H188.364V90.55H183.769ZM174.58 90.55V91.3057H179.174V90.55H174.58ZM165.39 90.55V91.3057H169.985V90.55H165.39ZM156.201 90.55V91.3057H160.795V90.55H156.201ZM147.011 90.55V91.3057H151.606V90.55H147.011ZM137.821 90.55V91.3057H142.416V90.55H137.821ZM128.632 90.55V91.3057H133.227V90.55H128.632ZM119.446 90.55V91.3057H124.037V90.55H119.446ZM110.256 90.55V91.3057H114.851V90.55H110.256ZM101.067 90.55V91.3057H105.662V90.55H101.067Z" fill="#DCE1E9"/>
<path d="M194.172 74.304H192.957V75.0596H194.545C194.424 74.8065 194.3 74.5571 194.172 74.304ZM183.767 74.304V75.0596H188.362V74.304H183.767ZM174.578 74.304V75.0596H179.173V74.304H174.578ZM165.388 74.304V75.0596H169.983V74.304H165.388ZM156.199 74.304V75.0596H160.793V74.304H156.199ZM147.009 74.304V75.0596H151.604V74.304H147.009ZM137.82 74.304V75.0596H142.414V74.304H137.82ZM128.63 74.304V75.0596H133.225V74.304H128.63ZM119.444 74.304V75.0596H124.035V74.304H119.444ZM110.255 74.304V75.0596H114.849V74.304H110.255ZM102.502 74.304C102.374 74.5571 102.25 74.8064 102.129 75.0596H105.66V74.304H102.502Z" fill="#DCE1E9"/>
<path d="M175.982 76.8505V140.708C175.337 141.124 174.684 141.521 174.021 141.906V76.8505H175.982Z" fill="#7D8592"/>
<path d="M149.199 98.0081V148.79C148.912 148.794 148.626 148.797 148.339 148.797C147.969 148.797 147.603 148.794 147.237 148.786V98.0081H149.199Z" fill="#7D8592"/>
<path d="M122.414 76.8505V141.766C121.75 141.377 121.096 140.973 120.452 140.554V76.8505H122.414Z" fill="#7D8592"/>
<path d="M26.292 163.765L25.5437 153.342C20.6421 150.888 15.2164 149.67 9.73779 149.792C17.4454 155.759 16.8281 167.685 22.166 175.846C23.8503 178.379 26.0822 180.499 28.6961 182.051C31.31 183.602 34.239 184.545 37.2661 184.808L43.6807 188.504C44.4144 183.647 44.0881 178.688 42.7241 173.97C41.3601 169.251 38.9909 164.885 35.7797 161.171C33.9576 159.106 31.883 157.279 29.605 155.732C28.2029 159.764 26.292 163.765 26.292 163.765Z" fill="white"/>
<path d="M174.745 81.9243C178.704 81.9243 181.913 78.7104 181.913 74.7458C181.913 70.7813 178.704 67.5674 174.745 67.5674C170.787 67.5674 167.578 70.7813 167.578 74.7458C167.578 78.7104 170.787 81.9243 174.745 81.9243Z" fill="url(#paint0_linear_2191_10742)"/>
<path d="M178.425 71.754C178.317 71.651 178.174 71.5935 178.025 71.5935C177.876 71.5935 177.733 71.651 177.625 71.754C176.104 72.9688 174.738 74.3662 173.558 75.9148C173.268 75.3532 172.978 74.7916 172.688 74.23C172.354 73.5818 171.377 74.1544 171.711 74.8021C172.135 75.6235 172.559 76.4449 172.983 77.2663C173.034 77.3502 173.106 77.4195 173.191 77.4675C173.277 77.5156 173.373 77.5409 173.471 77.5409C173.569 77.5409 173.666 77.5156 173.751 77.4675C173.837 77.4195 173.909 77.3502 173.96 77.2663C175.218 75.492 176.721 73.9058 178.425 72.5555C178.53 72.4487 178.589 72.3048 178.589 72.1547C178.589 72.0047 178.53 71.8607 178.425 71.754Z" fill="white"/>
<path d="M148.338 103.082C152.297 103.082 155.506 99.868 155.506 95.9034C155.506 91.9389 152.297 88.725 148.338 88.725C144.38 88.725 141.171 91.9389 141.171 95.9034C141.171 99.868 144.38 103.082 148.338 103.082Z" fill="url(#paint1_linear_2191_10742)"/>
<path d="M152.018 92.9115C151.91 92.8084 151.767 92.751 151.618 92.751C151.469 92.751 151.326 92.8084 151.218 92.9115C149.697 94.1263 148.331 95.5237 147.151 97.0722C146.861 96.5107 146.571 95.9491 146.281 95.3875C145.947 94.7393 144.97 95.3119 145.304 95.9596C145.728 96.781 146.152 97.6024 146.576 98.4238C146.627 98.5076 146.699 98.5769 146.784 98.625C146.87 98.6731 146.966 98.6983 147.064 98.6983C147.162 98.6983 147.259 98.6731 147.344 98.625C147.43 98.5769 147.502 98.5076 147.553 98.4238C148.811 96.6494 150.314 95.0633 152.018 93.7129C152.123 93.6062 152.183 93.4622 152.183 93.3122C152.183 93.1622 152.123 93.0182 152.018 92.9115Z" fill="white"/>
<path d="M121.555 83.4355C125.514 83.4355 128.723 80.2216 128.723 76.2571C128.723 72.2925 125.514 69.0786 121.555 69.0786C117.597 69.0786 114.388 72.2925 114.388 76.2571C114.388 80.2216 117.597 83.4355 121.555 83.4355Z" fill="url(#paint2_linear_2191_10742)"/>
<path d="M125.235 73.265C125.127 73.162 124.984 73.1045 124.835 73.1045C124.686 73.1045 124.543 73.162 124.435 73.265C122.914 74.4798 121.548 75.8772 120.367 77.4258C120.078 76.8642 119.788 76.3026 119.498 75.741C119.164 75.0928 118.187 75.6654 118.521 76.3131C118.945 77.1345 119.369 77.9559 119.792 78.7773C119.844 78.8612 119.915 78.9305 120.001 78.9785C120.086 79.0266 120.183 79.0519 120.281 79.0519C120.379 79.0519 120.476 79.0266 120.561 78.9785C120.647 78.9305 120.718 78.8612 120.77 78.7773C122.028 77.0029 123.531 75.4168 125.235 74.0664C125.34 73.9597 125.399 73.8157 125.399 73.6657C125.399 73.5157 125.34 73.3717 125.235 73.265Z" fill="white"/>
<path d="M224.343 71.152L229.061 53.559L216.452 51.1685L217.13 63.2442L200.563 80.3291C199.686 80.2932 198.817 80.5137 198.063 80.9636C197.309 81.4136 196.702 82.0735 196.316 82.8631C195.929 83.6526 195.781 84.5376 195.888 85.4102C195.996 86.2827 196.355 87.1051 196.921 87.7771C197.487 88.4491 198.236 88.9415 199.076 89.1945C199.917 89.4475 200.813 89.4501 201.655 89.2019C202.497 88.9536 203.249 88.4654 203.819 87.7967C204.389 87.1279 204.752 86.3076 204.864 85.4356L224.343 71.152Z" fill="#FFB6B6"/>
<path d="M230.353 33.834C234.633 37.218 229.139 56.1467 229.139 56.1467C228.289 55.2118 227.301 69.0279 226.261 68.5574C223.306 67.2204 217.891 62.6098 215.803 62.9857C214.609 63.2006 215.86 53.847 215.86 53.847C215.86 53.847 216.09 48.4839 216.523 41.5895C216.609 39.638 217.186 37.7401 218.202 36.0724C219.218 34.4048 220.638 33.0216 222.331 32.0515C222.331 32.0515 226.073 30.45 230.353 33.834Z" fill="#2F2E41"/>
<path d="M82.5225 73.3319L87.7099 96.5167L54.4683 94.4459L63.5077 71.6759L82.5225 73.3319Z" fill="#FCBCB8"/>
<path d="M76.9861 180.339L80.72 180.339L82.4965 165.915H76.9854L76.9861 180.339Z" fill="#FCBCB8"/>
<path d="M75.7226 178.494L81.6254 178.141V180.674L87.2373 184.556C87.5145 184.747 87.7233 185.023 87.8331 185.342C87.9429 185.661 87.9481 186.006 87.8479 186.329C87.7476 186.651 87.5472 186.932 87.2759 187.132C87.0046 187.332 86.6765 187.44 86.3396 187.44H79.3122L78.1009 184.934L77.6279 187.44H74.9783L75.7226 178.494Z" fill="#2F2E41"/>
<path d="M41.6941 178.479L45.3435 179.271L50.133 165.552L44.7471 164.382L41.6941 178.479Z" fill="#FCBCB8"/>
<path d="M40.8493 176.407L46.6926 177.316L46.1564 179.791L50.8191 184.776C51.0494 185.022 51.1952 185.336 51.235 185.671C51.2749 186.006 51.2067 186.345 51.0406 186.638C50.8744 186.932 50.619 187.164 50.3115 187.302C50.004 187.44 49.6606 187.476 49.3314 187.404L42.4636 185.912L41.8102 183.206L40.8177 185.554L38.2283 184.992L40.8493 176.407Z" fill="#2F2E41"/>
<path d="M88.5576 115.904C85.937 130.328 85.2818 136.556 85.2818 136.556C85.2818 136.556 87.2473 138.851 85.937 140.163C84.6267 141.476 85.937 144.096 85.937 144.096L82.9907 175.896L80.6189 175.511L74.9056 174.591L72.845 174.257L74.1553 144.426C74.1553 144.426 72.845 141.802 73.5001 141.146C74.1553 140.49 72.845 136.556 72.845 136.556L71.2089 105.413L61.0596 139.507C61.0596 139.507 62.0441 140.819 61.0596 141.802C60.0787 142.784 58.1169 147.703 58.1169 147.703L52.0815 168.854L51.5691 170.65L48.4214 170.06L44.9956 169.415L44.3661 169.298L43.2461 169.085L42.5251 168.949L42.2798 168.905L41.094 168.682L41.4527 167.087L41.6393 166.248L46.7451 143.536L46.8623 143.011L46.9867 142.458C46.9867 142.458 46.3316 140.819 47.3124 139.833C47.5994 139.533 47.809 139.167 47.9232 138.767C48.0373 138.367 48.0526 137.946 47.9676 137.539C47.9355 137.504 47.9061 137.468 47.8798 137.429C47.7639 137.269 47.684 137.087 47.6455 136.894C47.5577 136.483 47.6345 135.908 48.297 135.244C48.4836 135.046 48.6402 134.821 48.7618 134.577C49.7574 132.689 50.2588 128.69 50.2588 128.69C50.2588 128.69 51.1445 97.0153 54.0433 92.1767C54.197 91.9238 57.2743 87.0681 57.4353 86.9692C60.7074 85.0044 86.2 87.7182 86.2 87.7182C86.2 87.7182 87.7441 91.8725 87.8136 92.305C88.1906 94.7353 90.7792 103.668 88.5576 115.904Z" fill="#2F2E41"/>
<path d="M80.8113 39.6089C80.8113 39.6089 81.3629 36.7413 76.0625 31.4328C73.2564 30.496 68.3944 31.042 66.7088 31.4328C58.914 41.7375 60.3097 39.9193 58.2806 45.6769C57.7545 47.1699 57.4914 48.6044 57.7253 49.7754C58.6606 54.4593 60.1792 78.5032 59.8674 79.7523C59.5556 81.0013 57.3731 82.5627 59.5556 82.5627C61.7381 82.5627 89.8838 82.0692 89.2602 81.1324C88.6367 80.1956 80.8113 39.6089 80.8113 39.6089Z" fill="#68E1FD"/>
<path d="M114.239 77.7099C113.812 77.8756 113.353 77.9455 112.896 77.9146C112.439 77.8837 111.994 77.7527 111.592 77.531C111.191 77.3092 110.843 77.002 110.573 76.6309C110.303 76.2599 110.118 75.8342 110.03 75.3836L98.999 73.8144L102.835 69.4706L112.722 71.6267C113.487 71.5291 114.262 71.716 114.899 72.1522C115.536 72.5883 115.991 73.2434 116.178 73.9932C116.366 74.7431 116.271 75.5356 115.914 76.2206C115.557 76.9056 114.961 77.4355 114.239 77.7099Z" fill="#FCBCB8"/>
<path d="M67.5706 37.7633C68.46 37.1687 69.4702 36.8894 70.2834 36.0953C73.2526 38.2367 73.4711 34.7501 76.162 39.9952C78.8529 45.2402 88.4509 57.8861 92.4971 61.6885C96.5433 65.4909 103.952 67.4141 106.1 68.7519C107.355 69.5065 108.671 70.1541 110.034 70.688C109.173 72.3683 108.695 74.2096 107.619 75.8155C101.534 75.0688 93.557 72.6305 89.071 71.4385C84.5849 70.2465 86.2912 71.1348 84.4463 69.7372C82.6013 68.3395 84.1265 68.9836 81.9792 68.4163C79.8318 67.849 78.1945 65.0006 77.5473 62.8002C76.0056 61.2223 74.6841 59.5174 73.1587 57.9558C71.396 51.2031 69.4352 44.482 67.5706 37.7633Z" fill="#9EECFE"/>
<path d="M74.5345 27.4364C79.5207 27.4364 83.5629 23.3881 83.5629 18.3943C83.5629 13.4005 79.5207 9.35217 74.5345 9.35217C69.5483 9.35217 65.5061 13.4005 65.5061 18.3943C65.5061 23.3881 69.5483 27.4364 74.5345 27.4364Z" fill="#FCBCB8"/>
<path d="M80.5664 34.9229C80.1385 34.3108 76.939 28.2419 75.9879 25.9468C75.8901 26.4438 75.8284 26.9472 75.8032 27.4532L75.7938 27.6417L75.6068 27.6659C75.3257 27.7019 68.6854 28.5091 65.2297 24.5846C63.1823 22.26 62.718 18.7732 63.8478 14.2191C63.6423 14.1787 63.4454 14.1027 63.2659 13.9946C62.9671 13.7875 62.717 13.5175 62.533 13.2036C62.3491 12.8897 62.2357 12.5394 62.2008 12.1771L62.0095 12.2285C55.8616 9.23234 61.1581 0.467508 66.7736 4.8252C67.2662 4.71498 67.7797 4.74453 68.2564 4.91054C68.7161 5.09787 69.1167 5.40629 69.4156 5.80312C69.7146 6.19994 69.9007 6.67038 69.9544 7.16456C72.8558 5.63614 76.6957 5.88486 78.6817 7.03161C79.5132 7.51184 79.9907 8.11663 80.0755 8.79132C82.4212 8.92251 84.9442 11.211 84.9442 14.4532V14.679H84.7188C83.775 14.6991 82.8546 14.9759 82.0559 15.4798C81.2572 15.9837 80.6104 16.6956 80.1847 17.5394C79.6079 18.5832 79.3224 19.7633 79.3582 20.9558C79.3941 22.1482 79.75 23.309 80.3886 24.3161C81.0836 25.3843 81.5581 26.581 81.7842 27.8357C82.0103 29.0904 81.9834 30.3778 81.7051 31.6219L80.8579 35.3396L80.5664 34.9229Z" fill="#FFD200"/>
<path d="M106.764 187.515C106.764 187.574 106.752 187.632 106.73 187.687C106.707 187.742 106.674 187.791 106.633 187.833C106.591 187.875 106.541 187.908 106.487 187.931C106.432 187.953 106.374 187.965 106.315 187.964H0.578311C0.459251 187.964 0.345066 187.917 0.260878 187.833C0.17669 187.748 0.129395 187.634 0.129395 187.515C0.129395 187.396 0.17669 187.281 0.260878 187.197C0.345066 187.113 0.459251 187.065 0.578311 187.065H106.315C106.374 187.065 106.432 187.077 106.487 187.099C106.541 187.122 106.591 187.155 106.633 187.196C106.674 187.238 106.707 187.288 106.73 187.343C106.752 187.397 106.764 187.456 106.764 187.515Z" fill="white"/>
<path d="M250.87 187.515C250.87 187.574 250.858 187.632 250.836 187.687C250.813 187.742 250.78 187.791 250.738 187.833C250.697 187.875 250.647 187.908 250.593 187.931C250.538 187.953 250.48 187.965 250.421 187.964H144.684C144.565 187.964 144.451 187.917 144.367 187.833C144.282 187.748 144.235 187.634 144.235 187.515C144.235 187.396 144.282 187.281 144.367 187.197C144.451 187.113 144.565 187.065 144.684 187.065H250.421C250.48 187.065 250.538 187.077 250.593 187.099C250.647 187.122 250.697 187.155 250.738 187.196C250.78 187.238 250.813 187.288 250.836 187.343C250.858 187.397 250.87 187.456 250.87 187.515Z" fill="white"/>
<path d="M121.332 155.113C123.538 155.113 125.327 153.322 125.327 151.112C125.327 148.902 123.538 147.11 121.332 147.11C119.125 147.11 117.336 148.902 117.336 151.112C117.336 153.322 119.125 155.113 121.332 155.113Z" fill="white"/>
<path d="M148.115 159.269C150.321 159.269 152.11 157.478 152.11 155.268C152.11 153.058 150.321 151.266 148.115 151.266C145.908 151.266 144.12 153.058 144.12 155.268C144.12 157.478 145.908 159.269 148.115 159.269Z" fill="white"/>
<path d="M174.899 154.357C177.106 154.357 178.895 152.566 178.895 150.356C178.895 148.146 177.106 146.355 174.899 146.355C172.693 146.355 170.904 148.146 170.904 150.356C170.904 152.566 172.693 154.357 174.899 154.357Z" fill="white"/>
<defs>
<linearGradient id="paint0_linear_2191_10742" x1="181.913" y1="81.9243" x2="167.556" y2="67.5892" gradientUnits="userSpaceOnUse">
<stop stop-color="#03B8DF"/>
<stop offset="1" stop-color="#1853A4"/>
</linearGradient>
<linearGradient id="paint1_linear_2191_10742" x1="155.506" y1="103.082" x2="141.149" y2="88.7468" gradientUnits="userSpaceOnUse">
<stop stop-color="#03B8DF"/>
<stop offset="1" stop-color="#1853A4"/>
</linearGradient>
<linearGradient id="paint2_linear_2191_10742" x1="128.723" y1="83.4355" x2="114.366" y2="69.1004" gradientUnits="userSpaceOnUse">
<stop stop-color="#03B8DF"/>
<stop offset="1" stop-color="#1853A4"/>
</linearGradient>
</defs>
</svg>
