<svg width="274" height="180" viewBox="0 0 274 180" fill="none" xmlns="http://www.w3.org/2000/svg">
<path opacity="0.7" d="M56.7864 13.5517C27.5811 23.0515 1.87944 48.0733 0.458827 82.5514C-0.334274 101.725 3.8404 150.915 64.6041 163.692C162.138 184.208 249.858 177.27 268.274 127.889C284.676 83.911 258.687 25.4133 209.977 13.3425C175.647 4.845 113.837 -5.01211 56.7864 13.5517Z" fill="white"/>
<path d="M218.335 0.121521H47.3474V152.397H218.335V0.121521Z" fill="#E7ECF2"/>
<path d="M60.8834 17.6393C63.1409 17.6393 64.9709 15.8092 64.9709 13.5518C64.9709 11.2943 63.1409 9.46423 60.8834 9.46423C58.6259 9.46423 56.7959 11.2943 56.7959 13.5518C56.7959 15.8092 58.6259 17.6393 60.8834 17.6393Z" fill="#FFD200"/>
<path d="M72.3961 17.6393C74.6536 17.6393 76.4836 15.8092 76.4836 13.5518C76.4836 11.2943 74.6536 9.46423 72.3961 9.46423C70.1386 9.46423 68.3086 11.2943 68.3086 13.5518C68.3086 15.8092 70.1386 17.6393 72.3961 17.6393Z" fill="#68E1FD"/>
<path d="M83.4303 17.6393C85.6878 17.6393 87.5178 15.8092 87.5178 13.5518C87.5178 11.2943 85.6878 9.46423 83.4303 9.46423C81.1728 9.46423 79.3428 11.2943 79.3428 13.5518C79.3428 15.8092 81.1728 17.6393 83.4303 17.6393Z" fill="#2F2E41"/>
<path d="M164.875 8.82776H101.54V18.2752H164.875V8.82776Z" fill="white"/>
<path opacity="0.09" d="M131.643 41.8156C131.643 41.8156 149.675 59.2463 140.454 75.5703C140.158 76.0932 139.853 76.59 139.531 77.0867C135.173 83.7802 128.366 88.4691 121.228 91.7286C118.419 93.0082 115.524 94.0915 112.565 94.9707C110.212 95.6767 107.223 95.9294 105.593 97.9688C104.998 98.7733 104.512 99.6523 104.146 100.583C103.012 102.948 102.262 105.478 101.924 108.079C101.714 110.528 102.429 112.933 102.551 115.391C102.917 122.895 100.137 130.312 95.91 136.534C93.2917 140.298 90.2763 143.769 86.9157 146.888C85.2598 148.457 83.5603 150.043 81.7737 151.473C80.4751 152.501 79.7953 152.405 78.2091 152.344C73.6683 152.344 69.1276 152.344 64.5869 152.344L80.5361 110.406L94.2977 83.388C94.2977 83.388 118.91 82.438 126.597 72.4414C134.284 62.4449 131.643 41.8156 131.643 41.8156Z" fill="#2F2E41"/>
<path d="M241.108 29.5707H162.713V137.241H241.108V29.5707Z" fill="#2F2E41"/>
<path d="M55.6094 122.643C55.6094 122.643 67.9765 90.0383 85.9999 92.8185C104.023 95.5987 105.444 150.079 60.7253 149.076L55.6094 122.643Z" fill="#F4A28C"/>
<path opacity="0.1" d="M97.495 118.773C96.3533 128.255 91.6731 138.06 82.2605 143.865C77.83 146.53 72.8723 148.198 67.7319 148.754C65.3981 149.029 63.0477 149.136 60.6986 149.076L55.6001 122.643C55.6001 122.643 67.976 90.0383 85.9994 92.8185C91.2286 93.6291 95.0895 98.8322 96.7978 105.77C97.7979 110.029 98.034 114.431 97.495 118.773Z" fill="black"/>
<path opacity="0.1" d="M97.4955 118.773C93.0158 124.002 85.0412 127.035 83.6729 135.114C83.1848 137.999 82.6968 141.041 82.261 143.83C77.8305 146.495 72.8728 148.163 67.7324 148.719L70.347 131.724L95.8221 104.846C96.157 105.134 96.4743 105.443 96.7721 105.77C97.781 110.027 98.0259 114.43 97.4955 118.773Z" fill="black"/>
<path d="M100.602 83.9315L90.2632 80.5803L83.3431 101.929L93.6816 105.28L100.602 83.9315Z" fill="#68E1FD"/>
<path d="M113.897 25.9801C107.807 24.0062 101.268 23.8826 95.1077 25.6249C88.9473 27.3672 83.4419 30.8971 79.2877 35.7684C75.1335 40.6396 72.5171 46.6333 71.7694 52.9916C71.0217 59.3498 72.1762 65.787 75.087 71.489C77.9977 77.1911 82.534 81.902 88.1221 85.0259C93.7103 88.1498 100.099 89.5465 106.481 89.0393C112.863 88.5321 118.951 86.1439 123.976 82.1765C129 78.2092 132.736 72.841 134.709 66.7507C137.356 58.5843 136.65 49.7011 132.747 42.0552C128.844 34.4093 122.063 28.6269 113.897 25.9801ZM96.4052 79.9284C91.8236 78.446 87.7844 75.6385 84.7982 71.8608C81.812 68.0831 80.0129 63.5048 79.6283 58.7048C79.2437 53.9047 80.291 49.0984 82.6377 44.8934C84.9843 40.6885 88.525 37.2737 92.8122 35.0808C97.0993 32.8879 101.94 32.0153 106.723 32.5734C111.506 33.1314 116.017 35.0951 119.684 38.2161C123.351 41.3371 126.01 45.4753 127.326 50.1075C128.641 54.7398 128.554 59.6581 127.075 64.2407C125.084 70.3845 120.735 75.4861 114.983 78.4232C109.232 81.3603 102.549 81.8923 96.4052 79.9022V79.9284Z" fill="#2F2E41"/>
<path d="M95.1855 98.9804L85.8004 95.9382C83.6392 95.2376 81.3193 96.4217 80.6187 98.583L71.3713 127.111C70.6708 129.272 71.8549 131.592 74.0161 132.293L83.4012 135.335C85.5624 136.036 87.8823 134.852 88.5829 132.69L97.8303 104.162C98.5308 102.001 97.3467 99.6809 95.1855 98.9804Z" fill="#2F2E41"/>
<path d="M71.6652 112.306C71.6652 112.306 87.7799 100.217 93.5931 102.405C98.3866 104.218 96.8701 114.092 84.7993 120.637C82.3496 121.949 80.2104 123.772 78.5263 125.982C76.8422 128.193 75.6526 130.739 75.038 133.449C74.0271 137.999 71.6652 143.228 66.3227 146.635C55.1757 153.808 49.0662 145.119 51.829 133.562C54.5917 122.006 55.7945 118.598 71.6652 112.306Z" fill="#F4A28C"/>
<path d="M64.3963 179.084L72.0658 145.599L46.7389 133.45L25.0637 179.084H64.3963Z" fill="#68E1FD"/>
<path opacity="0.1" d="M64.3958 179.083L72.0654 145.599L59.9771 139.794L48.6907 179.083H64.3958Z" fill="black"/>
<path opacity="0.43" d="M207.092 53.5557H190.132V58.4189H207.092V53.5557Z" fill="#C1C1C1"/>
<path opacity="0.36" d="M178.828 63.5C182.4 63.5 185.295 60.6047 185.295 57.0332C185.295 53.4616 182.4 50.5663 178.828 50.5663C175.257 50.5663 172.362 53.4616 172.362 57.0332C172.362 60.6047 175.257 63.5 178.828 63.5Z" fill="#C1C1C1"/>
<path d="M212.426 112.986H177.033V123.322H212.426V112.986Z" fill="#68E1FD"/>
<path d="M211.86 71.3089H177.033V75.6056H211.86V71.3089Z" fill="#C1C1C1"/>
<path opacity="0.44" d="M231.461 82.5515H177.033V86.8482H231.461V82.5515Z" fill="#C1C1C1"/>
<path opacity="0.44" d="M231.461 91.9645H177.033V96.2612H231.461V91.9645Z" fill="#C1C1C1"/>
<path opacity="0.44" d="M219.756 101.743H177.033V106.04H219.756V101.743Z" fill="#C1C1C1"/>
<path d="M170.314 41.0835C171.936 41.0835 173.251 39.7685 173.251 38.1464C173.251 36.5243 171.936 35.2094 170.314 35.2094C168.692 35.2094 167.377 36.5243 167.377 38.1464C167.377 39.7685 168.692 41.0835 170.314 41.0835Z" fill="#FFD200"/>
<path d="M178.593 41.0835C180.215 41.0835 181.53 39.7685 181.53 38.1464C181.53 36.5243 180.215 35.2094 178.593 35.2094C176.971 35.2094 175.656 36.5243 175.656 38.1464C175.656 39.7685 176.971 41.0835 178.593 41.0835Z" fill="#68E1FD"/>
<path d="M186.524 41.0835C188.146 41.0835 189.461 39.7685 189.461 38.1464C189.461 36.5243 188.146 35.2094 186.524 35.2094C184.902 35.2094 183.587 36.5243 183.587 38.1464C183.587 39.7685 184.902 41.0835 186.524 41.0835Z" fill="white"/>
<path d="M104.183 77.1741C100.139 77.181 96.1835 75.988 92.8178 73.7461C89.452 71.5042 86.8271 68.3141 85.2751 64.5798C83.7232 60.8454 83.314 56.7345 84.0993 52.7675C84.8847 48.8005 86.8293 45.1556 89.687 42.2942C92.5447 39.4328 96.1871 37.4835 100.153 36.6931C104.119 35.9027 108.231 36.3066 111.967 37.8538C115.703 39.401 118.897 42.0218 121.143 45.3847C123.389 48.7475 124.587 52.7012 124.585 56.7452C124.579 62.1566 122.428 67.3448 118.604 71.1737C114.78 75.0026 109.594 77.1602 104.183 77.1741ZM104.183 41.8157C101.23 41.8157 98.3434 42.6913 95.8883 44.3318C93.4332 45.9722 91.5196 48.3039 90.3896 51.0319C89.2597 53.7599 88.964 56.7617 89.5401 59.6578C90.1161 62.5538 91.538 65.214 93.6259 67.3019C95.7139 69.3898 98.374 70.8117 101.27 71.3878C104.166 71.9638 107.168 71.6682 109.896 70.5382C112.624 69.4082 114.956 67.4947 116.596 65.0395C118.237 62.5844 119.112 59.6979 119.112 56.7452C119.11 52.7863 117.536 48.9903 114.737 46.191C111.938 43.3917 108.141 41.818 104.183 41.8157Z" fill="#BCC5D2"/>
<path d="M104.182 77.1741C99.187 77.1767 94.365 75.3471 90.6292 72.0321L94.2809 67.9184C97.0092 70.3417 100.533 71.6784 104.182 71.6747V77.1741Z" fill="#2F2E41"/>
<path d="M124.585 56.7452H119.086C119.081 52.787 117.507 48.9923 114.708 46.1935C111.909 43.3947 108.114 41.8203 104.156 41.8157V36.3076C109.574 36.3145 114.767 38.4702 118.597 42.3018C122.427 46.1333 124.581 51.3277 124.585 56.7452Z" fill="url(#paint0_linear_2191_4440)"/>
<path d="M104.182 77.1746V71.6752C108.139 71.6683 111.932 70.0932 114.731 67.2948C117.529 64.4965 119.104 60.7032 119.111 56.7458H124.584C124.577 62.1572 122.427 67.3454 118.603 71.1743C114.779 75.0032 109.593 77.1608 104.182 77.1746Z" fill="#FFD200"/>
<path opacity="0.08" d="M118.214 121.074H109.795V134.731H118.214V121.074Z" fill="#2F2E41"/>
<path opacity="0.08" d="M132.409 106.405H123.99V134.739H132.409V106.405Z" fill="#2F2E41"/>
<path opacity="0.08" d="M147.384 96.5402H138.965V134.74H147.384V96.5402Z" fill="#2F2E41"/>
<path d="M197.793 5.3333C199.441 5.30896 201.078 5.60496 202.613 6.20484C203.918 6.70246 205.125 7.42843 206.177 8.34882C206.595 8.70615 206.979 9.08963 207.362 9.47311C207.58 9.71649 207.698 10.033 207.693 10.3597C207.688 10.6863 207.56 10.9989 207.335 11.2354C207.109 11.4718 206.803 11.6145 206.477 11.6352C206.151 11.6559 205.829 11.553 205.576 11.3469C205.184 10.9983 204.835 10.6148 204.443 10.2749C202.765 8.85308 200.657 8.03769 198.46 7.96022C196.262 7.88274 194.102 8.5477 192.328 9.84787C191.706 10.3108 191.124 10.8238 190.585 11.3818C190.354 11.6688 190.025 11.861 189.661 11.9221C189.413 11.9577 189.159 11.9197 188.931 11.8129C188.703 11.706 188.512 11.535 188.38 11.3208C188.23 11.0982 188.157 10.8318 188.175 10.5636C188.192 10.2953 188.298 10.0405 188.476 9.83915C189.217 8.99322 190.054 8.23577 190.969 7.58187C192.073 6.80424 193.298 6.21521 194.594 5.83879C195.632 5.52112 196.708 5.35096 197.793 5.3333Z" fill="#68E1FD"/>
<path d="M198.43 10.0396C199.46 10.089 200.471 10.3438 201.402 10.7891C202.442 11.2995 203.363 12.0242 204.103 12.9156C204.321 13.1674 204.441 13.4892 204.441 13.822C204.441 14.1549 204.321 14.4766 204.103 14.7284C203.907 14.9705 203.632 15.1361 203.327 15.1966C203.021 15.2571 202.704 15.2086 202.43 15.0596C202.093 14.8414 201.783 14.5839 201.506 14.2927C200.946 13.7186 200.244 13.3026 199.471 13.0869C198.698 12.8711 197.882 12.8631 197.105 13.0638C196.18 13.3079 195.347 13.8168 194.708 14.528C194.45 14.8151 194.157 15.0697 193.837 15.2862C193.565 15.4392 193.25 15.4949 192.942 15.4442C192.635 15.3935 192.354 15.2394 192.146 15.0073C191.931 14.7734 191.803 14.4737 191.781 14.1571C191.758 13.8405 191.844 13.5258 192.024 13.2642C192.315 12.9121 192.629 12.5802 192.965 12.2707C193.394 11.8508 193.867 11.4796 194.377 11.1638C195.219 10.6547 196.156 10.3226 197.131 10.1877C197.558 10.0831 197.994 10.0744 198.43 10.0396Z" fill="#68E1FD"/>
<path d="M200.286 17.6829C200.295 18.131 200.17 18.5715 199.928 18.9488C199.686 19.3261 199.338 19.6232 198.927 19.8026C198.517 19.982 198.062 20.0356 197.621 19.9566C197.18 19.8776 196.772 19.6696 196.449 19.3589C196.126 19.0482 195.903 18.6487 195.807 18.2109C195.711 17.7731 195.747 17.3168 195.911 16.8995C196.074 16.4822 196.357 16.1228 196.725 15.8667C197.093 15.6105 197.528 15.4692 197.976 15.4605C198.275 15.4524 198.571 15.5037 198.85 15.6114C199.128 15.7191 199.382 15.8811 199.597 16.088C199.812 16.2948 199.983 16.5423 200.102 16.8162C200.22 17.09 200.283 17.3846 200.286 17.6829Z" fill="#68E1FD"/>
<g opacity="0.08">
<path d="M104.766 10.1619L105.638 13.5261C105.829 14.2669 106.012 14.9554 106.134 15.6352C106.291 14.9641 106.509 14.2582 106.727 13.5435L107.808 10.1619H108.897L109.926 13.4738C110.17 14.2669 110.361 14.9641 110.51 15.6352C110.636 14.9112 110.805 14.1953 111.015 13.4912L111.956 10.1619H113.15L111.015 16.7856H109.917L108.897 13.6219C108.671 12.8898 108.479 12.2275 108.313 11.4518C108.151 12.191 107.951 12.9212 107.712 13.6394L106.64 16.7856H105.551L103.555 10.1619H104.766Z" fill="black"/>
<path d="M114.996 10.162L115.868 13.5261C116.06 14.2669 116.234 14.9555 116.356 15.6353H116.399C116.548 14.9642 116.766 14.2582 116.983 13.5436L118.064 10.162H119.075L120.104 13.4738C120.348 14.2669 120.539 14.9642 120.696 15.6353C120.827 14.9122 120.995 14.1965 121.202 13.4913L122.152 10.162H123.337L121.202 16.7857H120.112L119.101 13.622C118.866 12.9095 118.668 12.1851 118.509 11.4519C118.351 12.1921 118.15 12.9225 117.907 13.6394L116.844 16.7857H115.746L113.75 10.162H114.996Z" fill="black"/>
<path d="M125.238 10.162L126.109 13.5261C126.301 14.2669 126.484 14.9555 126.606 15.6353C126.763 14.9642 126.981 14.2582 127.199 13.5436L128.279 10.162H129.29L130.319 13.4738C130.563 14.2669 130.755 14.9642 130.903 15.6353H130.946C131.073 14.9113 131.241 14.1954 131.452 13.4913L132.428 10.162H133.622L131.487 16.7857H130.389L129.378 13.622C129.151 12.8899 128.959 12.2275 128.794 11.4519C128.632 12.1911 128.431 12.9213 128.192 13.6394L127.12 16.7857H126.031L124.026 10.162H125.238Z" fill="black"/>
<path d="M134.006 16.0709C133.994 15.9568 134.007 15.8415 134.042 15.7325C134.078 15.6234 134.136 15.5231 134.213 15.4379C134.29 15.3527 134.383 15.2846 134.488 15.238C134.593 15.1914 134.706 15.1673 134.821 15.1673C134.936 15.1673 135.049 15.1914 135.154 15.238C135.259 15.2846 135.353 15.3527 135.43 15.4379C135.506 15.5231 135.564 15.6234 135.6 15.7325C135.636 15.8415 135.648 15.9568 135.636 16.0709C135.648 16.185 135.636 16.3003 135.6 16.4094C135.564 16.5184 135.506 16.6188 135.43 16.704C135.353 16.7891 135.259 16.8572 135.154 16.9039C135.049 16.9505 134.936 16.9746 134.821 16.9746C134.706 16.9746 134.593 16.9505 134.488 16.9039C134.383 16.8572 134.29 16.7891 134.213 16.704C134.136 16.6188 134.078 16.5184 134.042 16.4094C134.007 16.3003 133.994 16.185 134.006 16.0709Z" fill="black"/>
</g>
<defs>
<linearGradient id="paint0_linear_2191_4440" x1="124.585" y1="56.7452" x2="104.148" y2="36.3163" gradientUnits="userSpaceOnUse">
<stop stop-color="#03B8DF"/>
<stop offset="1" stop-color="#1853A4"/>
</linearGradient>
</defs>
</svg>
