<svg width="265" height="199" viewBox="0 0 265 199" fill="none" xmlns="http://www.w3.org/2000/svg">
<path d="M249.334 180.159C249.174 186.134 248.173 192.057 246.361 197.753C246.321 197.885 246.276 198.015 246.233 198.148H235.137C235.149 198.029 235.161 197.897 235.172 197.753C235.912 189.248 231.686 138.102 226.586 129.249C227.033 129.967 250.195 153.135 249.334 180.159Z" fill="#E7ECF2"/>
<path d="M248.502 197.754C248.409 197.886 248.313 198.018 248.214 198.149H239.89C239.953 198.036 240.026 197.904 240.111 197.754C241.486 195.272 245.556 187.852 249.334 180.16C253.392 171.894 257.119 163.314 256.805 160.209C256.902 160.909 259.711 182.259 248.502 197.754Z" fill="#E7ECF2"/>
<path d="M210.26 161.583H0.794189V0.335449H210.26V161.583Z" fill="white"/>
<path d="M210.26 161.583H0.794189V0.335449H210.26V161.583ZM3.88903 158.488H207.165V3.43029H3.88903V158.488Z" fill="#E7ECF2"/>
<path d="M55.6164 121.885H39.7573C39.3279 121.885 38.9161 121.714 38.6125 121.41C38.3088 121.106 38.138 120.695 38.1375 120.265V98.4034C38.138 97.974 38.3088 97.5623 38.6125 97.2586C38.9161 96.955 39.3279 96.7842 39.7573 96.7837H55.6164C56.0458 96.7842 56.4576 96.955 56.7612 97.2586C57.0649 97.5623 57.2357 97.974 57.2362 98.4034V120.265C57.2357 120.695 57.0649 121.106 56.7612 121.41C56.4576 121.714 56.0458 121.885 55.6164 121.885Z" fill="#E7ECF2"/>
<path d="M84.5349 121.885H68.6758C68.2463 121.885 67.8346 121.714 67.5309 121.41C67.2273 121.106 67.0564 120.695 67.0559 120.265V77.6676C67.0564 77.2381 67.2273 76.8264 67.5309 76.5228C67.8346 76.2191 68.2463 76.0483 68.6758 76.0479H84.5349C84.9643 76.0483 85.376 76.2191 85.6797 76.5228C85.9834 76.8264 86.1542 77.2381 86.1547 77.6676V120.265C86.1542 120.695 85.9834 121.106 85.6797 121.41C85.376 121.714 84.9643 121.885 84.5349 121.885Z" fill="#E7ECF2"/>
<path d="M113.455 121.885H97.5957C97.1662 121.885 96.7545 121.714 96.4509 121.41C96.1472 121.106 95.9763 120.695 95.9758 120.265V98.4034C95.9763 97.974 96.1472 97.5623 96.4509 97.2586C96.7545 96.955 97.1662 96.7842 97.5957 96.7837H113.455C113.884 96.7842 114.296 96.955 114.6 97.2586C114.903 97.5623 115.074 97.974 115.075 98.4034V120.265C115.074 120.695 114.903 121.106 114.6 121.41C114.296 121.714 113.884 121.885 113.455 121.885Z" fill="#E7ECF2"/>
<path d="M142.377 121.885H126.518C126.098 121.894 125.692 121.736 125.388 121.446C125.085 121.156 124.908 120.758 124.898 120.338V69.4088C124.908 68.9891 125.085 68.5908 125.388 68.3009C125.692 68.0111 126.098 67.8534 126.518 67.8624H142.377C142.797 67.8534 143.203 68.0111 143.506 68.3009C143.81 68.5908 143.986 68.9891 143.997 69.4088V120.338C143.986 120.758 143.81 121.156 143.506 121.446C143.203 121.736 142.797 121.894 142.377 121.885Z" fill="#E7ECF2"/>
<path d="M171.298 121.885H155.439C155.009 121.884 154.598 121.713 154.294 121.41C153.99 121.106 153.819 120.694 153.819 120.265V54.7488C153.819 54.3193 153.99 53.9076 154.294 53.604C154.598 53.3003 155.009 53.1295 155.439 53.129H171.298C171.727 53.1295 172.139 53.3003 172.443 53.604C172.746 53.9076 172.917 54.3193 172.918 54.7488V120.265C172.917 120.694 172.746 121.106 172.443 121.41C172.139 121.713 171.727 121.884 171.298 121.885Z" fill="#F2F2F2"/>
<path d="M47.6855 90.2353C49.4937 90.2353 50.9595 88.7694 50.9595 86.9612C50.9595 85.153 49.4937 83.6871 47.6855 83.6871C45.8772 83.6871 44.4114 85.153 44.4114 86.9612C44.4114 88.7694 45.8772 90.2353 47.6855 90.2353Z" fill="#68E1FD"/>
<path d="M76.6056 68.9542C78.4138 68.9542 79.8797 67.4883 79.8797 65.6801C79.8797 63.8719 78.4138 62.406 76.6056 62.406C74.7974 62.406 73.3315 63.8719 73.3315 65.6801C73.3315 67.4883 74.7974 68.9542 76.6056 68.9542Z" fill="#68E1FD"/>
<path d="M105.526 90.2353C107.334 90.2353 108.8 88.7694 108.8 86.9612C108.8 85.153 107.334 83.6871 105.526 83.6871C103.717 83.6871 102.251 85.153 102.251 86.9612C102.251 88.7694 103.717 90.2353 105.526 90.2353Z" fill="#68E1FD"/>
<path d="M134.447 58.5858C136.256 58.5858 137.721 57.1199 137.721 55.3117C137.721 53.5035 136.256 52.0376 134.447 52.0376C132.639 52.0376 131.173 53.5035 131.173 55.3117C131.173 57.1199 132.639 58.5858 134.447 58.5858Z" fill="#68E1FD"/>
<path d="M163.368 46.5806C165.177 46.5806 166.642 45.1148 166.642 43.3065C166.642 41.4983 165.177 40.0325 163.368 40.0325C161.56 40.0325 160.094 41.4983 160.094 43.3065C160.094 45.1148 161.56 46.5806 163.368 46.5806Z" fill="#68E1FD"/>
<path d="M105.597 87.6948L76.6072 65.9811L48.0135 87.3982L47.3591 86.5246L76.6072 64.6173L105.459 86.228L134.13 54.8523L134.245 54.8057L163.166 43.153L163.574 44.1654L134.768 55.7715L105.597 87.6948Z" fill="#68E1FD"/>
<path d="M203.825 193.204L198.898 193.203L196.555 174.202L203.826 174.202L203.825 193.204Z" fill="#FFB6B6"/>
<path d="M205.081 197.979L189.197 197.978V197.777C189.197 196.137 189.848 194.565 191.007 193.406C192.167 192.246 193.739 191.595 195.379 191.595H195.38L205.081 191.595L205.081 197.979Z" fill="#FFD200"/>
<path d="M186.219 112.78L189.016 157.34L198.406 188.706L205.681 189.233L202.028 151.006L203.63 125.62C203.63 125.62 211.223 119.959 207.025 113.146L186.219 112.78Z" fill="#2F2E41"/>
<path d="M207.039 193.204L202.112 193.203L199.769 174.202L207.039 174.202L207.039 193.204Z" fill="#FFB6B6"/>
<path d="M208.295 197.979L192.411 197.978V197.777C192.411 196.137 193.062 194.565 194.222 193.406C195.381 192.246 196.954 191.595 198.593 191.595H198.594L208.295 191.595L208.295 197.979Z" fill="#FFD200"/>
<path d="M189.433 112.78L192.23 157.34L201.62 188.706L208.895 189.233L205.242 151.006L206.844 125.62C206.844 125.62 214.437 119.959 210.239 113.146L189.433 112.78Z" fill="#2F2E41"/>
<path d="M204.594 119.68C196.205 119.68 186.331 114.553 185.759 114.252L185.6 114.168L204.854 65.0493L214.389 60.5445C215.124 60.1976 215.937 60.053 216.746 60.1255C217.555 60.1981 218.329 60.4852 218.99 60.9571C219.651 61.4291 220.174 62.0689 220.505 62.8104C220.836 63.552 220.963 64.3684 220.873 65.1754L217.089 99.1217L213.139 116.704L213.097 116.745C210.917 118.899 207.868 119.68 204.594 119.68Z" fill="#68E1FD"/>
<path d="M173.827 87.1637C174.326 86.8474 174.888 86.6443 175.474 86.5687C176.06 86.4932 176.655 86.547 177.218 86.7264C177.781 86.9057 178.297 87.2064 178.731 87.607C179.165 88.0077 179.506 88.4986 179.73 89.0453L194.068 88.2621L190.306 94.706L177.267 94.4619C176.324 94.777 175.298 94.7351 174.383 94.3442C173.469 93.9533 172.73 93.2405 172.306 92.3409C171.881 91.4413 171.802 90.4174 172.083 89.4632C172.363 88.509 172.984 87.6909 173.827 87.1637Z" fill="#FFB6B6"/>
<path d="M202.122 97.2511L187.754 96.8844L187.939 87.38L194.734 85.2175L205.878 69.5865C206.436 68.8038 207.145 68.1409 207.964 67.6371C208.783 67.1332 209.694 66.7986 210.644 66.6531C211.594 66.5075 212.564 66.554 213.496 66.7897C214.428 67.0254 215.303 67.4455 216.07 68.0253C216.836 68.6051 217.479 69.3327 217.96 70.1652C218.44 70.9976 218.749 71.918 218.868 72.8719C218.987 73.8257 218.913 74.7937 218.651 75.7186C218.389 76.6435 217.945 77.5065 217.344 78.2566L202.122 97.2511Z" fill="#9EECFE"/>
<path d="M210.442 58.7344C215.715 58.7344 219.989 54.46 219.989 49.1872C219.989 43.9144 215.715 39.6399 210.442 39.6399C205.169 39.6399 200.895 43.9144 200.895 49.1872C200.895 54.46 205.169 58.7344 210.442 58.7344Z" fill="#FFB6B6"/>
<path d="M198.362 41.2308C199.326 40.2429 200.578 39.5859 201.938 39.3543C203.264 39.069 204.719 38.9806 205.78 38.1488C206.985 37.1885 207.516 35.3642 208.994 34.9584C209.638 34.8291 210.304 34.882 210.919 35.1111C213.282 35.8238 215.38 37.2224 216.946 39.1293C217.316 39.6757 217.786 40.1463 218.333 40.5156C218.659 40.6539 218.979 40.8095 219.289 40.9817C219.629 41.2503 219.897 41.5998 220.069 41.9983C221.135 44.1505 221.38 46.6175 220.76 48.9377C220.39 50.3079 219.723 51.5777 219.329 52.9559C218.935 54.3342 217.114 56.956 216.688 56.3051C216.262 55.6541 215.716 55.0474 215.483 54.296C215.028 52.8179 215.439 51.3305 214.282 50.3039C213.567 49.669 212.273 49.2431 211.787 50.0628C211.594 50.3803 211.606 50.7821 211.441 51.1116C211.116 51.7545 210.176 51.8831 209.553 51.5134C208.953 51.099 208.531 50.4733 208.372 49.7615C207.435 46.5951 205.84 44.6021 202.453 45.9562C201.191 46.4625 199.704 46.804 198.491 45.9361C196.892 44.7949 197.217 42.5327 198.362 41.2308Z" fill="#2F2E41"/>
<path d="M176.923 127.109H161.064C160.635 127.108 160.223 126.937 159.919 126.634C159.616 126.33 159.445 125.918 159.444 125.489V59.9726C159.445 59.5432 159.616 59.1315 159.919 58.8278C160.223 58.5242 160.635 58.3534 161.064 58.3529H176.923C177.353 58.3534 177.764 58.5242 178.068 58.8278C178.372 59.1315 178.543 59.5432 178.543 59.9726V125.489C178.543 125.918 178.372 126.33 178.068 126.634C177.764 126.937 177.353 127.108 176.923 127.109Z" fill="url(#paint0_linear_2217_628)"/>
<path d="M173.426 92.7896C173.925 92.4732 174.487 92.2701 175.073 92.1946C175.659 92.119 176.254 92.1728 176.817 92.3522C177.38 92.5316 177.897 92.8322 178.331 93.2329C178.765 93.6335 179.106 94.1245 179.33 94.6712L193.667 93.8879L189.905 100.332L176.867 100.088C175.923 100.403 174.897 100.361 173.983 99.97C173.068 99.5791 172.329 98.8664 171.905 97.9668C171.481 97.0672 171.402 96.0433 171.682 95.0891C171.962 94.1349 172.583 93.3167 173.426 92.7896Z" fill="#FFB6B6"/>
<path d="M201.721 102.877L187.352 102.51L187.538 93.0059L194.332 90.8433L205.477 75.2123C206.035 74.4296 206.744 73.7667 207.562 73.2629C208.381 72.7591 209.292 72.4245 210.242 72.2789C211.193 72.1334 212.162 72.1798 213.094 72.4155C214.026 72.6512 214.901 73.0714 215.668 73.6512C216.435 74.231 217.077 74.9586 217.558 75.791C218.039 76.6235 218.347 77.5438 218.466 78.4977C218.585 79.4516 218.511 80.4196 218.249 81.3445C217.988 82.2694 217.543 83.1324 216.942 83.8825L201.721 102.877Z" fill="#9EECFE"/>
<path d="M264.494 198.55H111.4C111.347 198.551 111.295 198.54 111.246 198.52C111.197 198.5 111.153 198.471 111.115 198.433C111.078 198.396 111.048 198.352 111.028 198.303C111.007 198.254 110.997 198.202 110.997 198.149C110.997 198.096 111.007 198.043 111.028 197.995C111.048 197.946 111.078 197.901 111.115 197.864C111.153 197.827 111.197 197.797 111.246 197.777C111.295 197.757 111.347 197.747 111.4 197.747H264.494C264.547 197.747 264.599 197.757 264.648 197.777C264.697 197.797 264.741 197.827 264.779 197.864C264.816 197.901 264.846 197.946 264.866 197.995C264.887 198.043 264.897 198.096 264.897 198.149C264.897 198.202 264.887 198.254 264.866 198.303C264.846 198.352 264.816 198.396 264.779 198.433C264.741 198.471 264.697 198.5 264.648 198.52C264.599 198.54 264.547 198.551 264.494 198.55Z" fill="#CACACA"/>
<defs>
<linearGradient id="paint0_linear_2217_628" x1="178.543" y1="127.109" x2="143.082" y2="117.258" gradientUnits="userSpaceOnUse">
<stop stop-color="#03B8DF"/>
<stop offset="1" stop-color="#1853A4"/>
</linearGradient>
</defs>
</svg>
