<svg width="289" height="192" viewBox="0 0 289 192" fill="none" xmlns="http://www.w3.org/2000/svg">
<path opacity="0.7" d="M56.9753 17.2446C42.2554 22.3301 29.2258 31.382 19.3235 43.402C9.42115 55.4221 3.03073 69.9434 0.856931 85.3646C-2.80166 112.026 5.9858 141.491 57.4711 149.886C157.732 166.221 251.633 170.88 275.602 126.806C299.571 82.7317 292.236 7.24334 241.324 2.35382C200.866 -1.52702 115.026 -2.86053 56.9753 17.2446Z" fill="white"/>
<path d="M166.862 49.5822C166.862 49.5822 166.862 40.8204 174.555 40.4443C182.249 40.0682 210.346 38.1961 214.731 52.5826C219.117 66.9691 216.356 104.94 198.02 111.924C179.684 118.907 159.947 107.564 159.947 107.564C159.947 107.564 174.273 79.1245 166.862 49.5822Z" fill="#FFD200"/>
<path d="M172.639 47.8124C172.639 47.8124 161.398 48.7783 155.141 54.5996C148.884 60.4208 150.337 88.0654 115.29 86.4669V92.0232C115.29 92.0232 158.21 95.2202 165.048 70.6529L172.639 47.8124Z" fill="#68E1FD"/>
<path opacity="0.46" d="M172.639 47.8124C172.639 47.8124 161.398 48.7783 155.141 54.5996C148.884 60.4208 150.337 88.0654 115.29 86.4669V92.0232C115.29 92.0232 158.21 95.2202 165.048 70.6529L172.639 47.8124Z" fill="white"/>
<path d="M178.196 30.6651C177.724 32.9581 177.56 35.3039 177.709 37.6403C177.745 37.9166 177.836 38.1828 177.976 38.4239C178.116 38.665 178.302 38.8761 178.524 39.0452C178.745 39.2143 178.998 39.3381 179.267 39.4094C179.537 39.4808 179.817 39.4984 180.094 39.4611C180.99 39.3939 181.849 39.0694 182.566 38.5266C183.283 37.9839 183.829 37.2458 184.137 36.4008L185.846 32.8961C186.108 32.1591 186.135 31.3591 185.924 30.6061C185.713 29.853 185.274 29.1838 184.667 28.6905C182.487 26.7073 178.589 28.1263 178.196 30.6651Z" fill="#F4A28C"/>
<path d="M185.514 33.5289L186.061 47.317L178.445 47.0776L181.103 37.1447L185.514 33.5289Z" fill="#F4A28C"/>
<path d="M183.111 25.9636C183.786 25.9636 184.282 26.673 184.821 27.0492C185.447 27.5069 185.938 28.1268 186.239 28.8421C186.54 29.5574 186.641 30.3413 186.53 31.1095L185.94 36.4606C185.298 36.6278 184.618 36.5655 184.017 36.2846C183.417 36.0037 182.933 35.5217 182.649 34.922C182.343 34.309 182.223 33.6199 182.303 32.9395C182.384 32.2591 182.662 31.617 183.102 31.0924C181.804 31.1888 180.499 31.1372 179.213 30.9386C178.777 30.8721 178.355 30.7334 177.965 30.5282C177.965 30.5282 176.17 25.8439 183.111 25.9636Z" fill="#2F2E41"/>
<path d="M182.214 34.751C182.214 34.751 182.436 33.144 183.633 33.4175C184.83 33.691 184.488 35.9819 182.846 36.0247L182.214 34.751Z" fill="#F4A28C"/>
<path d="M177.786 33.2893L176.435 34.751C176.358 34.8344 176.303 34.936 176.275 35.0464C176.248 35.1567 176.248 35.2723 176.277 35.3823C176.306 35.4923 176.363 35.5932 176.441 35.6756C176.52 35.758 176.617 35.8193 176.726 35.8537L178.29 36.341L177.786 33.2893Z" fill="#F4A28C"/>
<path opacity="0.31" d="M180.427 39.2901C181.391 39.1777 182.303 38.7888 183.051 38.1703C183.051 38.1703 182.641 40.6578 179.632 42.8119L180.427 39.2901Z" fill="#CE8172"/>
<path d="M186.06 47.3167L178.444 47.0774C178.444 47.0774 158.031 47.4022 156.749 62.2845C155.467 77.1668 164.194 88.7836 161.288 100.401L189.001 103.939C189.001 103.939 234.426 58.2925 186.06 47.3167Z" fill="#68E1FD"/>
<path opacity="0.08" d="M182.154 63.0795C181.801 66.7944 182.014 70.5414 182.787 74.1921C183.701 78.0365 183.694 82.0423 182.767 85.8836C181.84 89.7248 180.019 93.293 177.453 96.2975L172.64 101.871L189.001 103.965C189.001 103.965 201.473 90.3138 203.764 83.8087C206.055 77.3036 200.969 69.9693 200.969 69.9693L182.154 63.0795Z" fill="black"/>
<path d="M69.2944 191.694H222.075L209.27 160.964L165.82 151.296L144.954 128.515L92.5709 132.516L69.2944 191.694Z" fill="#E7ECF2"/>
<path d="M179.598 102.734L161.288 100.401H160.8C156.096 100.442 151.509 101.868 147.611 104.501C143.713 107.134 140.677 110.857 138.883 115.206L134.481 125.865L137.968 127.396L144.379 119.283C146.304 116.849 148.797 114.923 151.639 113.676C154.481 112.429 157.586 111.897 160.681 112.129L168.306 112.701C171.186 112.902 173.925 114.027 176.115 115.909C178.305 117.791 179.829 120.33 180.461 123.147C183.196 135.696 183.025 150.997 183.025 150.997H188.154L189.009 103.94L179.598 102.734Z" fill="#2F2E41"/>
<path d="M37.7175 191.694L63.2593 157.502L105.701 171.025L151.784 175.359L159.605 191.694H37.7175Z" fill="#DCE1E9"/>
<path d="M186.052 58.4976C186.783 57.1159 187.798 55.904 189.03 54.9413C190.262 53.9786 191.683 53.2866 193.201 52.9107C194.718 52.5347 196.298 52.4832 197.837 52.7595C199.376 53.0358 200.839 53.6337 202.131 54.5142C211.483 60.8227 225.16 73.4055 221.245 91.2711C215.423 117.77 184.864 106.401 184.864 106.401V100.289C184.864 100.289 208.73 105.239 207.277 88.322C206.063 74.2689 179.88 70.8411 186.052 58.4976Z" fill="#68E1FD"/>
<path opacity="0.46" d="M186.052 58.4976C186.783 57.1159 187.798 55.904 189.03 54.9413C190.262 53.9786 191.683 53.2866 193.201 52.9107C194.718 52.5347 196.298 52.4832 197.837 52.7595C199.376 53.0358 200.839 53.6337 202.131 54.5142C211.483 60.8227 225.16 73.4055 221.245 91.2711C215.423 117.77 184.864 106.401 184.864 106.401V100.289C184.864 100.289 208.73 105.239 207.277 88.322C206.063 74.2689 179.88 70.8411 186.052 58.4976Z" fill="white"/>
<path d="M184.864 101.888C184.864 101.888 177.949 99.8451 178.444 104.359C178.94 108.872 184.864 106.376 184.864 106.376V101.888Z" fill="#F4A28C"/>
<path d="M199.916 50.9925C198.82 50.0974 197.535 49.4631 196.158 49.1373C194.78 48.8115 193.347 48.8028 191.966 49.1119C188.35 49.8727 183.204 51.7447 181.794 56.3179C179.546 63.5924 189.932 85.7405 205.806 83.6719C205.806 83.6719 200.497 76.141 195.548 71.9268C190.599 67.7126 184.641 51.2746 201.301 54.0356C201.344 54.027 202.027 52.779 199.916 50.9925Z" fill="#FFD200"/>
<path opacity="0.08" d="M199.916 50.9925C198.82 50.0974 197.535 49.4631 196.158 49.1373C194.78 48.8115 193.347 48.8028 191.966 49.1119C188.35 49.8727 183.204 51.7447 181.794 56.3179C179.546 63.5924 189.932 85.7405 205.806 83.6719C205.806 83.6719 200.497 76.141 195.548 71.9268C190.599 67.7126 184.641 51.2746 201.301 54.0356C201.344 54.027 202.027 52.779 199.916 50.9925Z" fill="black"/>
<path d="M115.29 86.4673C115.29 86.4673 108.084 84.8603 108.306 89.2283C108.529 93.5964 115.29 92.0236 115.29 92.0236V86.4673Z" fill="#2F2E41"/>
<path d="M113.162 30.7248H110.726V131.353H113.162V30.7248Z" fill="#2F2E41"/>
<path d="M110.726 33.2891C110.726 33.2891 101.742 29.0749 94.7585 33.2891C87.7747 37.5033 76.8245 41.5893 67.0369 34.7509C57.2494 27.9124 42.6321 34.7509 42.6321 34.7509V79.8678C42.6321 79.8678 57.2494 71.0461 67.2934 77.2008C77.3374 83.3554 87.8089 77.4658 95.4423 73.7815C103.076 70.0973 110.761 74.4397 110.761 74.4397L110.726 33.2891Z" fill="url(#paint0_linear_2191_4540)"/>
<path d="M136.371 118.762L142.526 121.625L137.935 129.054L125.746 130.259L132.584 126.771L136.371 118.762Z" fill="#68E1FD"/>
<path d="M182.256 143.645H188.283V153.835L192.762 157.288L183.051 155.134L182.256 143.645Z" fill="#68E1FD"/>
<path d="M177.615 30.7419C177.615 30.7419 183.334 32.4515 186.557 32.2634C186.557 32.2634 188.352 28.4852 186.83 25.6387C185.497 23.1341 176.931 20.3132 177.615 30.7419Z" fill="#68E1FD"/>
<path opacity="0.68" d="M177.692 28.0919C177.692 28.0919 183.676 30.058 187.266 30.152C187.13 30.8813 186.903 31.5907 186.591 32.2634C186.591 32.2634 183.582 32.5626 177.649 30.7418C177.577 29.8593 177.591 28.9717 177.692 28.0919Z" fill="white"/>
<path d="M173.221 47.6928C173.221 47.6928 164.272 47.0004 159.467 49.505C154.663 52.0096 146.055 73.6534 160.186 84.6548C160.186 84.6548 148.791 53.4114 173.221 47.6928Z" fill="#FFD200"/>
<path opacity="0.08" d="M173.221 47.6928C173.221 47.6928 164.272 47.0004 159.467 49.505C154.663 52.0096 146.055 73.6534 160.186 84.6548C160.186 84.6548 148.791 53.4114 173.221 47.6928Z" fill="black"/>
<path d="M175.563 47.3169C175.563 47.3169 174.418 44.1969 179.401 43.5045C184.385 42.8121 191.138 43.06 189.659 48.2487C184.94 48.5985 180.195 48.2848 175.563 47.3169Z" fill="#68E1FD"/>
<path opacity="0.68" d="M175.563 47.3169C175.563 47.3169 174.418 44.1969 179.401 43.5045C184.385 42.8121 191.138 43.06 189.659 48.2487C184.94 48.5985 180.195 48.2848 175.563 47.3169Z" fill="white"/>
<path d="M41.7596 125.891C43.9879 125.891 45.7943 124.085 45.7943 121.856C45.7943 119.628 43.9879 117.822 41.7596 117.822C39.5313 117.822 37.7249 119.628 37.7249 121.856C37.7249 124.085 39.5313 125.891 41.7596 125.891Z" fill="#E7ECF2"/>
<path d="M252.155 45.4616C254.383 45.4616 256.19 43.6552 256.19 41.4269C256.19 39.1986 254.383 37.3922 252.155 37.3922C249.926 37.3922 248.12 39.1986 248.12 41.4269C248.12 43.6552 249.926 45.4616 252.155 45.4616Z" fill="#E7ECF2"/>
<path d="M136.695 45.4447C138.923 45.4447 140.73 43.6383 140.73 41.41C140.73 39.1816 138.923 37.3752 136.695 37.3752C134.467 37.3752 132.66 39.1816 132.66 41.41C132.66 43.6383 134.467 45.4447 136.695 45.4447Z" fill="#E7ECF2"/>
<path d="M219.38 132.883C220.83 132.883 222.005 131.708 222.005 130.259C222.005 128.81 220.83 127.635 219.38 127.635C217.931 127.635 216.756 128.81 216.756 130.259C216.756 131.708 217.931 132.883 219.38 132.883Z" fill="#E7ECF2"/>
<path d="M15.9697 78.1326C17.4191 78.1326 18.594 76.9577 18.594 75.5084C18.594 74.059 17.4191 72.8841 15.9697 72.8841C14.5204 72.8841 13.3455 74.059 13.3455 75.5084C13.3455 76.9577 14.5204 78.1326 15.9697 78.1326Z" fill="#E7ECF2"/>
<path d="M75.1152 23.3051C76.5646 23.3051 77.7395 22.1302 77.7395 20.6809C77.7395 19.2315 76.5646 18.0566 75.1152 18.0566C73.6659 18.0566 72.491 19.2315 72.491 20.6809C72.491 22.1302 73.6659 23.3051 75.1152 23.3051Z" fill="#E7ECF2"/>
<path d="M186.556 10.2263C188.005 10.2263 189.18 9.0514 189.18 7.60206C189.18 6.15271 188.005 4.97778 186.556 4.97778C185.106 4.97778 183.931 6.15271 183.931 7.60206C183.931 9.0514 185.106 10.2263 186.556 10.2263Z" fill="#E7ECF2"/>
<path d="M264.01 101.161C265.46 101.161 266.635 99.9865 266.635 98.5371C266.635 97.0878 265.46 95.9128 264.01 95.9128C262.561 95.9128 261.386 97.0878 261.386 98.5371C261.386 99.9865 262.561 101.161 264.01 101.161Z" fill="#E7ECF2"/>
<defs>
<linearGradient id="paint0_linear_2191_4540" x1="110.761" y1="79.8771" x2="64.9814" y2="15.5187" gradientUnits="userSpaceOnUse">
<stop stop-color="#03B8DF"/>
<stop offset="1" stop-color="#1853A4"/>
</linearGradient>
</defs>
</svg>
