<svg width="277" height="199" viewBox="0 0 277 199" fill="none" xmlns="http://www.w3.org/2000/svg">
<path d="M223.747 126.279C223.994 126.302 224.242 126.249 224.458 126.126C224.673 126.003 224.846 125.818 224.952 125.594C225.058 125.37 225.093 125.119 225.052 124.874C225.01 124.63 224.895 124.404 224.72 124.228C224.696 124.105 224.678 124.018 224.653 123.895C224.665 123.869 224.677 123.844 224.69 123.818C224.966 123.241 225.407 122.759 225.958 122.432C226.508 122.105 227.143 121.947 227.782 121.979C228.421 122.012 229.037 122.232 229.552 122.612C230.066 122.993 230.457 123.517 230.674 124.118C231.543 126.519 232.68 128.937 232.871 131.442C232.955 132.549 232.846 133.662 232.549 134.732C235.081 129.828 236.529 124.438 236.794 118.926C236.859 117.543 236.846 116.157 236.756 114.775C236.682 113.642 236.557 112.515 236.383 111.394C235.432 105.309 233.049 99.5365 229.43 94.5503C227.618 93.4501 226.187 91.8214 225.329 89.8835C225.018 89.1868 224.81 88.4488 224.711 87.6925C224.92 87.7297 225.132 87.7568 225.341 87.7803C225.406 87.7867 225.475 87.7934 225.54 87.7999L225.565 87.8021C225.795 87.8232 226.026 87.7774 226.231 87.6702C226.435 87.563 226.604 87.399 226.718 87.1979C226.831 86.9969 226.884 86.7673 226.87 86.537C226.856 86.3066 226.776 86.0852 226.639 85.8994C226.553 85.7838 226.468 85.6683 226.382 85.5528C226.253 85.3746 226.12 85.1997 225.99 85.0215C225.975 85.0045 225.961 84.9866 225.948 84.9679C225.799 84.7647 225.649 84.565 225.5 84.3618C225.81 83.9274 226.216 83.5704 226.686 83.3186C228.315 82.4647 230.472 83.2089 231.551 84.6948C232.633 86.1809 232.756 88.2009 232.273 89.9723C231.81 91.4772 231.094 92.8923 230.155 94.157C230.236 94.271 230.321 94.3817 230.401 94.4956C231.879 96.5877 233.148 98.8194 234.19 101.159C234.03 98.5848 234.484 96.0098 235.514 93.6454C236.55 91.4453 238.383 89.6371 240.01 87.7692C241.964 85.5256 245.701 86.7182 245.888 89.6863C245.89 89.7151 245.892 89.7438 245.893 89.7725C245.659 89.8905 245.429 90.0166 245.204 90.1509C244.921 90.3214 244.696 90.5734 244.559 90.8738C244.421 91.1742 244.378 91.509 244.435 91.8345C244.491 92.1599 244.644 92.4607 244.875 92.6974C245.105 92.9342 245.402 93.0959 245.726 93.1614L245.759 93.1681C245.64 93.986 245.458 94.7936 245.216 95.584C244.518 97.7895 243.372 99.8272 241.849 101.569C240.326 103.312 238.459 104.721 236.365 105.708C236.228 105.771 236.094 105.833 235.957 105.893C236.959 109.213 237.524 112.649 237.638 116.114C237.699 118.159 237.595 120.204 237.326 122.232L237.339 122.16C237.885 119.917 239.189 117.931 241.031 116.537C243.765 114.499 247.522 113.876 250.444 112.271C250.755 112.091 251.111 112.004 251.47 112.02C251.829 112.036 252.176 112.154 252.47 112.36C252.764 112.566 252.992 112.852 253.129 113.184C253.265 113.516 253.304 113.88 253.24 114.233C253.235 114.258 253.23 114.283 253.225 114.308C252.794 114.461 252.372 114.64 251.963 114.845C251.729 114.963 251.499 115.09 251.274 115.224C250.991 115.394 250.766 115.646 250.628 115.947C250.491 116.247 250.448 116.582 250.504 116.907C250.56 117.233 250.714 117.534 250.944 117.77C251.175 118.007 251.472 118.169 251.796 118.234L251.829 118.241C251.853 118.245 251.873 118.25 251.897 118.254C251.093 119.947 250.003 121.488 248.676 122.811C247.038 124.411 245.089 125.66 242.951 126.482C240.812 127.303 238.528 127.679 236.239 127.587L236.235 127.587C235.488 130.255 234.466 132.838 233.184 135.295L223.589 134.849C223.559 134.741 223.534 134.63 223.508 134.522C224.393 134.619 225.287 134.607 226.17 134.487C225.499 133.581 224.828 132.669 224.157 131.763C224.141 131.746 224.127 131.728 224.114 131.709C223.774 131.246 223.43 130.786 223.09 130.322L223.09 130.322C223.134 128.952 223.355 127.593 223.747 126.28L223.747 126.279Z" fill="white"/>
<path d="M30.4147 43.3908C30.1696 43.4289 29.9187 43.3908 29.696 43.2816C29.4734 43.1725 29.2896 42.9976 29.1698 42.7807C29.0499 42.5638 28.9997 42.3153 29.0259 42.0689C29.0521 41.8225 29.1536 41.5901 29.3164 41.4032C29.3336 41.2795 29.346 41.1907 29.3632 41.067C29.3495 41.042 29.3357 41.017 29.3219 40.992C29.01 40.4334 28.5398 39.9794 27.9705 39.6869C27.4011 39.3944 26.7579 39.2766 26.1217 39.3481C25.4854 39.4196 24.8846 39.6773 24.3945 40.0889C23.9044 40.5005 23.5471 41.0476 23.3672 41.6614C22.6482 44.1115 21.6634 46.5945 21.6278 49.1063C21.6126 50.2165 21.7902 51.321 22.1529 52.3706C19.3216 47.6324 17.5431 42.3415 16.9382 36.8565C16.7878 35.48 16.7146 34.0961 16.7189 32.7114C16.7234 31.5761 16.7779 30.4435 16.8823 29.3135C17.4557 23.1816 19.4769 17.2731 22.78 12.0731C24.521 10.8631 25.8488 9.14914 26.5847 7.16206C26.8518 6.44749 27.014 5.69805 27.0662 4.93705C26.8604 4.98709 26.6501 5.02724 26.4428 5.06359C26.3781 5.07406 26.31 5.08493 26.2454 5.09542L26.221 5.09919C25.9926 5.13441 25.759 5.10294 25.5481 5.00858C25.3372 4.91422 25.1582 4.76098 25.0325 4.56732C24.9068 4.37366 24.8398 4.14783 24.8396 3.91701C24.8394 3.6862 24.9059 3.46025 25.0313 3.26636C25.1094 3.14573 25.1875 3.02516 25.2657 2.90464C25.384 2.71879 25.5061 2.53599 25.6244 2.35017C25.6384 2.33222 25.6514 2.31347 25.6633 2.29402C25.7996 2.08201 25.9361 1.87344 26.0724 1.66143C25.7364 1.24704 25.3092 0.915777 24.8241 0.693448C23.1457 -0.0582914 21.0385 0.81763 20.054 2.3673C19.066 3.91732 19.0682 5.94104 19.6592 7.67931C20.2147 9.15271 21.0171 10.5209 22.0322 11.7253C21.9585 11.844 21.8811 11.9597 21.8074 12.0784C20.462 14.2577 19.3336 16.5635 18.4384 18.9626C18.4389 16.3838 17.8265 13.8417 16.6516 11.5454C15.4821 9.41347 13.5409 7.72185 11.8017 5.95793C9.71253 3.83919 6.05634 5.26021 6.05273 8.23419C6.0527 8.26299 6.05274 8.29177 6.05285 8.32053C6.29391 8.42385 6.53103 8.53556 6.76421 8.65565C7.05735 8.80835 7.29747 9.04596 7.45312 9.33732C7.60877 9.62869 7.67269 9.96023 7.6365 10.2885C7.60031 10.6168 7.46571 10.9265 7.25032 11.177C7.03493 11.4276 6.7488 11.6073 6.42942 11.6926L6.39672 11.7014C6.56667 12.5103 6.79792 13.3052 7.0885 14.0791C7.92129 16.2373 9.19142 18.2004 10.8193 19.8453C12.4471 21.4902 14.3975 22.7813 16.5483 23.6379C16.6892 23.6918 16.8267 23.746 16.9673 23.7965C16.173 27.172 15.8214 30.6363 15.9214 34.1024C15.987 36.1466 16.2178 38.1821 16.6118 40.1891L16.5938 40.1184C15.9104 37.9133 14.4861 36.0114 12.5616 34.7339C9.70664 32.8679 5.91774 32.4783 2.90214 31.0567C2.58067 30.8967 2.22009 30.8318 1.86291 30.8697C1.50573 30.9076 1.16686 31.0468 0.886269 31.2708C0.605674 31.4948 0.395058 31.7943 0.279261 32.134C0.163465 32.4737 0.147317 32.8393 0.232723 33.1879C0.239251 33.2126 0.245848 33.2374 0.252508 33.2621C0.692656 33.3878 1.12454 33.5407 1.54564 33.7201C1.78671 33.8234 2.02383 33.9352 2.257 34.0552C2.55014 34.2079 2.79026 34.4455 2.94591 34.7369C3.10156 35.0283 3.16548 35.3598 3.12929 35.6881C3.0931 36.0164 2.9585 36.3261 2.74311 36.5766C2.52772 36.8272 2.24159 37.0069 1.92221 37.0922L1.88948 37.1009C1.8659 37.1069 1.84573 37.1126 1.82219 37.1186C2.72937 38.7582 3.91228 40.2294 5.3191 41.4681C7.05328 42.964 9.07504 44.0903 11.2604 44.7779C13.4458 45.4655 15.7487 45.7 18.0281 45.4669L18.0315 45.4666C18.942 48.0835 20.1224 50.5988 21.5534 52.972L31.1027 51.9343C31.1255 51.8246 31.1443 51.7118 31.1636 51.6025C30.2857 51.7541 29.3926 51.7977 28.5041 51.7324C29.1181 50.7869 29.7313 49.8345 30.3452 48.8891C30.3592 48.8711 30.3722 48.8524 30.3841 48.833C30.6951 48.3494 31.0099 47.8689 31.3209 47.3854L31.321 47.3848C31.1918 46.0202 30.8873 44.6779 30.415 43.391L30.4147 43.3908Z" fill="white"/>
<path d="M162.347 39.8553C162.82 39.9852 163.258 40.2171 163.632 40.5345C164.005 40.852 164.304 41.2474 164.508 41.6928C164.711 42.1382 164.815 42.6229 164.811 43.1126C164.807 43.6023 164.695 44.0852 164.484 44.5272L169.609 50.2187L166.906 54.1732L159.783 46.0342C159.063 45.6308 158.516 44.9777 158.246 44.1985C157.976 43.4193 158.002 42.5683 158.318 41.8067C158.634 41.0451 159.219 40.4257 159.961 40.0661C160.704 39.7064 161.553 39.6314 162.347 39.8553Z" fill="#A0616A"/>
<path d="M210.32 53.8308C209.858 53.0797 209.252 52.427 208.537 51.9103C207.822 51.3935 207.012 51.0229 206.153 50.8196C205.294 50.6163 204.404 50.5844 203.533 50.7257C202.662 50.8669 201.827 51.1786 201.077 51.6428L184.224 62.07L166.045 46.6326L161.522 50.8395L181.605 76.8696L207.707 63.2761C207.097 63.5933 211.056 55.0277 210.32 53.8308Z" fill="#9EECFE"/>
<path d="M176.934 88.502C176.936 96.817 175.297 105.051 172.113 112.733C168.928 120.416 164.26 127.396 158.375 133.276C152.489 139.155 145.502 143.819 137.812 147C130.121 150.181 121.879 151.818 113.556 151.816C78.5535 151.816 50.1778 123.469 50.1778 88.502C50.1717 81.7004 51.2631 74.9423 53.4101 68.4877C57.6251 55.882 65.7002 44.9189 76.4934 37.1486C87.2867 29.3784 100.252 25.1943 113.556 25.188C125.03 25.184 136.289 28.2927 146.132 34.1823C155.976 40.0719 164.033 48.5212 169.445 58.6283C170.787 61.122 171.957 63.7039 172.948 66.3562C173.085 66.7255 173.219 67.0948 173.349 67.4677V67.4712C173.931 69.1103 174.442 70.7799 174.885 72.48C176.25 77.7114 176.938 83.0959 176.934 88.502Z" fill="url(#paint0_linear_2191_4334)"/>
<path d="M106.623 45.785C103.775 44.2463 100.613 43.3778 97.3777 43.2455C94.1424 43.1133 90.9196 43.7209 87.9551 45.022C85.345 46.1568 82.5966 48.1925 81.7258 51.8686C85.2475 49.7923 89.8062 53.0728 90.7124 58.3354L90.5008 58.3936C90.0222 62.0387 91.0907 66.0071 93.1593 68.2673C93.4309 65.9197 94.9761 64.3218 96.496 63.3237C98.0159 62.3256 99.6972 61.6006 100.857 59.8849C102.233 57.851 102.582 54.8785 103.128 52.1668C103.674 49.4551 104.711 46.5406 106.623 45.785Z" fill="white"/>
<path d="M86.9082 76.803C85.9329 78.2663 84.6301 79.1844 83.4612 80.3275C82.2957 81.4742 81.1866 83.0219 80.9542 85.0092C80.8063 86.2825 81.0352 87.577 81.0035 88.8644C80.9718 90.1517 80.5423 91.6009 79.6655 91.921C78.2818 92.4205 77.2254 89.8528 75.803 89.6734C74.6727 89.5327 73.6552 91.309 73.9826 92.8497C74.3101 94.3903 75.8488 95.0727 76.7325 94.0667C77.5318 95.4068 76.9684 97.8374 75.7678 98.2489C75.641 99.0931 75.5143 99.9338 75.391 100.778C72.3559 98.6569 69.2891 96.5008 66.7083 93.3948C63.8379 89.9698 62.0575 85.766 61.5958 81.323C61.2613 77.7528 61.7577 73.669 60.117 70.9219C58.8036 68.7235 56.5501 68.2381 54.522 68.3753C54.1523 68.3999 53.7791 68.4421 53.4094 68.4878C54.6055 64.8992 56.1245 61.4261 57.948 58.1113C58.3606 57.9344 58.744 57.696 59.0852 57.4043C60.9725 55.8039 61.8105 52.5643 63.3422 50.3237C63.4408 50.1795 63.5429 50.0388 63.6485 49.9016C65.2154 47.858 67.3139 46.8062 69.342 45.8284C73.8312 43.6511 78.4508 41.4457 83.1901 41.7482L81.8415 41.8783C80.2676 46.2822 78.6926 50.686 77.1163 55.0899C76.8769 55.7652 76.6351 56.4417 76.391 57.1194C75.4967 59.6238 74.5742 62.2901 74.7115 65.0935C74.7925 66.7537 75.3699 68.5265 76.4685 69.0963C77.493 69.6239 78.6127 68.9767 79.6021 68.3365C80.0211 68.0692 80.4366 67.8019 80.8556 67.531C82.3591 66.5637 84.0245 65.5718 85.6125 66.219C87.0667 66.81 88.1406 68.7832 88.3448 70.9113C88.532 72.98 88.0268 75.0522 86.9082 76.803Z" fill="white"/>
<path d="M95.8505 106.869C91.4595 104.168 87.0684 101.468 82.6774 98.7667L82.7519 98.575C80.0218 99.6138 78.8883 104.462 79.3395 108.427C79.7907 112.391 81.3206 115.935 82.0935 119.798C83.1356 125.085 82.7423 130.554 80.9543 135.637C86.7282 129.165 91.8381 122.131 96.2073 114.64C96.8177 113.696 97.2828 112.666 97.587 111.584C97.866 110.433 97.8231 109.049 97.2645 108.126C96.905 107.596 96.4191 107.164 95.8505 106.869Z" fill="white"/>
<path d="M78.5202 57.7318C78.054 58.7791 77.8746 60.1756 78.2977 61.2592C78.7298 62.3659 79.6434 62.8661 80.4844 63.2825L82.9107 64.4839C83.7178 64.8836 84.5879 65.2873 85.4107 64.9584C86.4032 64.5618 87.0913 63.0075 86.9133 61.5645C86.7238 60.029 85.7549 58.9727 84.8589 58.0733C83.6049 56.8146 82.3509 55.5558 81.097 54.2971L80.3903 55.1618C79.6259 55.9066 78.9936 56.7756 78.5202 57.7318Z" fill="white"/>
<path d="M163.929 74.147C165.02 74.4037 166.112 74.6605 167.203 74.9173C167.013 78.6001 165.186 82.0085 162.735 83.2431C161.714 83.7566 160.577 83.9465 159.732 84.9068C158.968 85.7792 158.58 87.1368 158.225 88.4348C157.601 90.7001 156.978 92.9653 156.355 95.2305C155.686 97.6716 154.827 100.384 153.088 101.263C151.595 102.019 149.887 101.094 148.739 99.5429C147.591 97.9917 146.891 95.9059 146.211 93.8728C146.253 96.0888 145.222 98.2626 143.76 99.0329C142.296 99.8032 140.514 99.1067 139.535 97.3867C138.831 96.1521 138.539 94.5235 137.849 93.2713C137.159 92.0191 135.711 91.3015 134.958 92.4764C134.461 93.2573 134.525 94.4532 134.278 95.4451C133.895 96.9857 132.733 97.953 131.581 98.0375C130.433 98.1219 129.314 97.4606 128.353 96.5636C126.37 94.7064 124.909 91.7588 124.342 88.4841C124.092 87.0243 124.022 85.4345 124.455 84.0661C124.888 82.6979 125.934 81.6426 126.972 81.9029C127.655 80.4607 126.307 78.5473 125.092 78.7161C123.874 78.8849 122.92 80.1899 121.92 81.1924C120.923 82.1949 119.529 82.923 118.525 81.9275C118.532 82.8526 117.779 83.4647 117.128 83.3873C116.48 83.3134 115.902 82.7928 115.307 82.4235C113.008 80.9919 110.089 81.9416 108.455 84.65C109.476 80.3095 110.973 75.3288 114.11 74.3087C115.392 73.8902 116.79 74.2349 118.001 73.5102C120.145 72.2264 120.578 67.3758 118.726 65.3744C118.962 67.2668 118.916 69.4757 117.916 70.7702C116.916 72.0646 114.818 71.2204 114.945 69.3069C114.656 70.6259 113.219 70.8265 112.557 69.8134C111.892 68.8004 111.948 67.1437 112.42 65.9337C112.892 64.7237 113.695 63.8549 114.473 63.0212C116.145 61.2309 117.842 59.4194 119.779 58.2938C121.719 57.1682 123.958 56.7883 125.902 57.9069C126.927 58.4978 127.828 59.4827 128.874 60.0033C129.919 60.5274 131.247 60.4606 131.94 59.2364C132.719 57.8717 132.352 55.8456 132.641 54.1397C133.159 51.1252 136.176 49.7147 137.849 51.7056C136.599 51.3855 135.306 52.8628 135.152 54.6532C134.993 56.4436 135.898 58.2516 137.109 58.7933C139.144 59.6937 141.137 57.4285 142.676 55.3321C144.282 53.1372 145.889 50.9435 147.5 48.751C147.757 48.3777 148.045 48.027 148.362 47.7028C148.867 47.2117 149.539 46.9305 150.243 46.9161C150.947 46.9017 151.631 47.1553 152.154 47.6254C153.781 48.9514 154.545 51.6705 155.88 53.5417C157.816 56.2607 160.714 56.922 163.411 57.4496C165.422 57.84 167.433 58.2328 169.446 58.6279C170.788 61.1216 171.958 63.7035 172.95 66.3558C169.541 67.8015 166.397 70.5064 163.929 74.147Z" fill="white"/>
<path d="M170.426 116.469C168.917 119.529 167.163 122.462 165.18 125.238C163.912 124.697 162.549 125.664 161.363 126.571C160.123 127.521 158.634 128.446 157.363 127.581C156.064 126.695 155.645 124.215 156.057 122.248C156.469 120.286 157.497 118.724 158.493 117.24C159.55 115.664 160.68 114.028 162.148 113.416C163.62 112.804 165.511 113.669 165.94 115.759L166.982 115.724C166.398 114.922 166.704 113.261 167.489 112.969C168.394 112.628 169.18 113.87 169.715 114.967C169.954 115.463 170.197 115.963 170.426 116.469Z" fill="white"/>
<path d="M130.51 101.612C128.27 101.753 126.496 98.9977 125.317 96.2874C124.138 93.5771 123.062 90.4777 121.04 89.0982C119.885 88.3099 118.569 88.2018 117.316 87.8198C116.063 87.4378 114.752 86.6474 114.153 85.0378L112.732 84.4644C110.855 85.5185 108.954 86.592 107.337 88.3075C105.523 90.2321 104.393 92.6993 104.122 95.3287C103.85 98.1703 104.853 101.339 106.726 102.406C108.206 103.25 109.929 102.718 111.428 103.49C113.301 104.455 114.413 107.257 114.834 110.024C115.255 112.791 115.148 115.667 115.449 118.465C115.75 121.263 116.58 124.175 118.298 125.609C120.447 127.404 123.601 125.913 124.566 122.646C125.039 121.044 125.023 119.236 125.376 117.572C125.999 114.643 127.681 112.47 129.014 110.067C130.348 107.664 131.397 104.401 130.51 101.612Z" fill="white"/>
<path d="M108.374 72.8287C108.583 73.0208 108.778 73.2275 108.957 73.4473C109.143 73.7673 109.238 74.1319 109.231 74.5018C109.225 74.8717 109.118 75.2328 108.921 75.5463C109.191 75.5309 109.455 75.4598 109.696 75.3375C109.937 75.2152 110.15 75.0443 110.321 74.8355C110.73 74.3704 111.09 73.8642 111.394 73.3252C111.623 72.953 111.866 72.4498 111.711 72.0077C111.605 71.706 111.355 71.5773 111.179 71.3504C110.901 70.9907 110.832 70.4195 110.688 69.9259C110.377 68.8597 109.633 68.0757 108.825 67.9636L108.937 67.9851C108.599 68.1006 108.363 68.6363 108.438 69.1183C108.506 69.5572 108.788 69.9216 108.76 70.3693C108.72 71.013 108.076 71.3151 108.036 71.9589C108.03 72.2819 108.151 72.5944 108.374 72.8287Z" fill="white"/>
<path d="M104.538 61.8888C104.541 61.8879 104.544 61.8877 104.548 61.8869C104.617 61.824 104.681 61.7559 104.739 61.6831L104.538 61.8888Z" fill="white"/>
<path d="M105.209 64.9102C105.704 64.592 105.98 63.712 105.817 62.9755C105.654 62.2436 105.078 61.7514 104.547 61.8866C104.393 62.0427 104.201 62.1571 103.991 62.219C103.78 62.2809 103.557 62.2884 103.343 62.2406C103.015 62.1561 102.654 61.9386 102.369 62.1858C102.206 62.3704 102.092 62.5929 102.037 62.8329C101.932 63.1562 101.827 63.4796 101.721 63.8029C101.671 63.9186 101.658 64.047 101.684 64.1705C101.704 64.2199 101.737 64.2634 101.778 64.2966C101.82 64.3299 101.87 64.3518 101.923 64.3603C102.555 64.5466 103.188 64.7329 103.821 64.9192C104.282 65.055 104.78 65.1858 105.209 64.9102Z" fill="white"/>
<path d="M152.968 106.627C152.676 106.149 152.383 105.67 152.091 105.192C151.804 104.638 151.411 104.146 150.935 103.742C150.83 103.654 150.709 103.589 150.579 103.549C150.448 103.508 150.311 103.495 150.175 103.508C150.039 103.522 149.907 103.562 149.787 103.628C149.667 103.693 149.562 103.781 149.477 103.888L149.512 104.161C150.179 104.997 150.884 105.925 151.053 107.165C151.12 107.653 151.097 108.159 151.155 108.65C151.213 109.141 151.38 109.65 151.697 109.862C152.157 110.169 152.698 109.716 153.026 109.163C153.319 108.709 153.45 108.17 153.399 107.632C153.326 107.271 153.179 106.929 152.968 106.627Z" fill="white"/>
<path d="M165.983 88.3602C166.068 87.8062 166.153 87.2521 166.237 86.698C166.374 86.0895 166.392 85.46 166.287 84.8449C166.264 84.7105 166.214 84.5823 166.14 84.4676C166.066 84.3529 165.969 84.2542 165.857 84.1772C165.744 84.1002 165.617 84.0465 165.483 84.0192C165.349 83.9919 165.212 83.9916 165.078 84.0184L164.929 84.2503C164.9 85.3183 164.842 86.482 164.172 87.5394C163.908 87.9562 163.564 88.3284 163.292 88.7415C163.02 89.1547 162.819 89.6512 162.925 90.0171C163.08 90.5485 163.785 90.5497 164.392 90.3375C164.909 90.1785 165.358 89.8504 165.665 89.4059C165.842 89.0828 165.95 88.7269 165.983 88.3602Z" fill="white"/>
<path d="M157.555 107.249C157.698 106.839 157.492 106.368 157.448 105.914C157.427 105.328 157.583 104.749 157.894 104.252C158.204 103.783 158.439 103.269 158.59 102.728C158.654 102.481 158.642 102.221 158.557 101.982C158.46 101.764 158.226 101.665 158.091 101.837L158.379 102.022C157.99 101.953 157.591 101.973 157.211 102.079C156.994 102.162 156.8 102.296 156.646 102.469C156.492 102.643 156.382 102.851 156.326 103.076C156.278 103.427 156.201 103.773 156.094 104.11C155.922 104.463 155.59 104.58 155.381 104.889C155.238 105.164 155.167 105.469 155.172 105.778C155.177 106.087 155.259 106.39 155.41 106.659C155.672 107.1 156.089 107.427 156.58 107.578C156.931 107.704 157.394 107.711 157.555 107.249Z" fill="white"/>
<path d="M165.725 109.711C165.852 110.042 166.022 110.354 166.231 110.639C166.622 111.033 167.153 110.791 167.628 110.696C168.058 110.628 168.499 110.677 168.904 110.839C169.309 111.002 169.662 111.27 169.926 111.616C169.742 110.7 169.34 109.84 168.755 109.111C168.17 108.381 167.417 107.803 166.562 107.424C165.443 106.968 164.265 106.924 163.102 106.883L162.901 106.934C163.413 108.423 165.021 108.39 165.725 109.711Z" fill="white"/>
<path d="M131.124 112.758L131.127 112.764C131.146 112.727 131.166 112.689 131.185 112.652L131.124 112.758Z" fill="white"/>
<path d="M129.884 115.154C129.614 115.644 129.381 116.154 129.189 116.68C128.934 117.531 128.765 118.405 128.685 119.29C128.622 119.794 128.603 120.436 128.918 120.681C129.009 120.741 129.118 120.766 129.226 120.752C129.334 120.737 129.432 120.684 129.504 120.602C129.679 120.417 129.822 120.204 129.928 119.972C130.548 118.904 131.03 117.763 131.361 116.574C131.663 115.322 131.66 113.848 131.126 112.764C130.712 113.56 130.298 114.357 129.884 115.154Z" fill="white"/>
<path d="M117.928 51.3062C118.125 51.4984 118.374 51.6289 118.644 51.6816C118.914 51.7343 119.194 51.7068 119.449 51.6027C119.977 51.3722 120.461 51.0528 120.88 50.6585C121.227 50.4019 121.521 50.081 121.747 49.7133C121.871 49.4935 121.951 49.2514 121.982 49.0008C122.012 48.7502 121.993 48.496 121.925 48.2529C121.729 47.6804 121.231 47.4885 120.793 47.3586C120.091 47.1506 119.388 46.9425 118.686 46.7345L119.194 46.2772C118.672 45.997 118.093 46.517 117.767 47.1608C117.557 47.5812 117.411 48.0302 117.333 48.4934C117.159 49.5039 117.329 50.7072 117.928 51.3062Z" fill="white"/>
<path d="M130.327 47.1487C130.525 47.3666 130.799 47.5012 131.092 47.5251C131.386 47.5489 131.678 47.4603 131.908 47.2772C132.107 47.1282 132.272 46.9392 132.392 46.7224C132.513 46.5057 132.586 46.2659 132.608 46.0189C132.657 45.4671 132.384 44.8538 131.994 44.8062L132.083 44.2896C131.332 44.154 130.407 44.1269 130.005 45.0384C129.869 45.3876 129.827 45.7663 129.884 46.1366C129.941 46.5069 130.093 46.8559 130.327 47.1487Z" fill="white"/>
<path d="M128.67 19.6749C124.265 19.1785 119.843 20.4505 116.377 23.2112C112.911 25.9719 110.684 29.9951 110.187 34.3956C109.153 43.5594 113.985 63.4587 122.796 71.6962C126.945 55.9138 141.482 46.5526 143.406 38.1389C145.461 29.1486 137.843 20.7085 128.67 19.6749Z" fill="#68E1FD"/>
<path d="M125.623 40.0476C128.634 40.0476 131.074 37.6095 131.074 34.6019C131.074 31.5944 128.634 29.1562 125.623 29.1562C122.612 29.1562 120.172 31.5944 120.172 34.6019C120.172 37.6095 122.612 40.0476 125.623 40.0476Z" fill="white"/>
<path d="M119.893 79.5486C121.865 79.5486 123.464 77.9517 123.464 75.9818C123.464 74.0119 121.865 72.415 119.893 72.415C117.921 72.415 116.323 74.0119 116.323 75.9818C116.323 77.9517 117.921 79.5486 119.893 79.5486Z" fill="#68E1FD"/>
<path opacity="0.2" d="M130.132 30.7004C130.746 31.0687 131.281 31.5542 131.707 32.129C132.132 32.7039 132.441 33.3569 132.614 34.0508C132.787 34.7447 132.822 35.4658 132.716 36.1731C132.61 36.8804 132.366 37.5599 131.997 38.1728C131.628 38.7858 131.142 39.3202 130.567 39.7456C129.992 40.1709 129.338 40.4789 128.643 40.6519C127.241 41.0013 125.756 40.7796 124.517 40.0357C125.781 40.3165 127.103 40.139 128.247 39.5348C129.392 38.9306 130.283 37.9393 130.763 36.7383C131.243 35.5373 131.279 34.205 130.865 32.9798C130.451 31.7547 129.614 30.7166 128.504 30.0515C129.078 30.1786 129.628 30.3978 130.132 30.7004Z" fill="#24285B"/>
<path opacity="0.2" d="M143.425 38.1569C141.501 46.5706 126.964 55.9318 122.815 71.7142C121.987 70.932 121.217 70.0897 120.513 69.1942C125.175 54.3592 138.807 45.345 140.666 37.2158C142.329 29.9401 137.657 23.0254 130.952 20.1045C139.068 22.1426 145.309 29.9181 143.425 38.1569Z" fill="#24285B"/>
<path d="M77.5857 40.9238C74.2777 40.551 70.9569 41.5063 68.3539 43.5795C65.751 45.6527 64.079 48.6739 63.7058 51.9786C62.9288 58.8602 66.5579 73.804 73.1746 79.99C76.29 68.138 87.2072 61.1081 88.6517 54.7897C90.1952 48.0382 84.4743 41.7001 77.5857 40.9238Z" fill="#68E1FD"/>
<path d="M75.2987 56.2229C77.5596 56.2229 79.3924 54.392 79.3924 52.1335C79.3924 49.8749 77.5596 48.0439 75.2987 48.0439C73.0379 48.0439 71.2051 49.8749 71.2051 52.1335C71.2051 54.392 73.0379 56.2229 75.2987 56.2229Z" fill="white"/>
<path d="M70.994 85.8861C72.4748 85.8861 73.6752 84.6869 73.6752 83.2076C73.6752 81.7283 72.4748 80.5291 70.994 80.5291C69.5132 80.5291 68.3127 81.7283 68.3127 83.2076C68.3127 84.6869 69.5132 85.8861 70.994 85.8861Z" fill="#68E1FD"/>
<path opacity="0.2" d="M78.6861 49.2031C79.1469 49.4797 79.5486 49.8443 79.8684 50.276C80.1881 50.7077 80.4196 51.1981 80.5497 51.7192C80.6797 52.2402 80.7057 52.7818 80.6263 53.3129C80.5468 53.8441 80.3634 54.3543 80.0865 54.8147C79.8096 55.275 79.4447 55.6763 79.0125 55.9957C78.5804 56.3152 78.0895 56.5464 77.5679 56.6763C77.0463 56.8063 76.5042 56.8323 75.9725 56.7529C75.4408 56.6735 74.93 56.4902 74.4692 56.2136C75.4181 56.4245 76.411 56.2911 77.2704 55.8374C78.1298 55.3837 78.7995 54.6393 79.1597 53.7374C79.5198 52.8355 79.547 51.8349 79.2362 50.9149C78.9254 49.9948 78.2969 49.2153 77.4634 48.7158C77.8946 48.8113 78.3075 48.9758 78.6861 49.2031Z" fill="#24285B"/>
<path opacity="0.2" d="M88.6694 54.8028C87.2248 61.1213 76.3077 68.1512 73.1922 80.0032C72.5699 79.4158 71.992 78.7833 71.4631 78.1108C74.964 66.9702 85.2017 60.2008 86.5973 54.0961C87.8465 48.6323 84.3376 43.4396 79.3026 41.2461C85.3974 42.7767 90.0839 48.6158 88.6694 54.8028Z" fill="#24285B"/>
<path d="M205.749 189.068H201.255L199.116 171.749L205.75 171.749L205.749 189.068Z" fill="#A0616A"/>
<path d="M208.168 197.594H204.979L204.409 194.585L202.951 197.594H194.492C194.087 197.594 193.692 197.464 193.365 197.224C193.039 196.984 192.798 196.646 192.677 196.259C192.556 195.873 192.563 195.457 192.695 195.075C192.827 194.692 193.078 194.361 193.412 194.131L200.167 189.47V186.429L207.272 186.853L208.168 197.594Z" fill="#FFD200"/>
<path d="M188.34 189.068H183.846L181.708 171.749L188.341 171.749L188.34 189.068Z" fill="#A0616A"/>
<path d="M190.759 197.594H187.569L187 194.585L185.542 197.594H177.083C176.678 197.594 176.283 197.464 175.956 197.224C175.63 196.984 175.388 196.646 175.268 196.259C175.147 195.873 175.153 195.457 175.286 195.075C175.418 194.692 175.669 194.361 176.003 194.131L182.758 189.47V186.429L189.863 186.853L190.759 197.594Z" fill="#FFD200"/>
<path d="M171.265 143.341C172.125 144.63 181.482 180.062 181.482 180.062L189.779 181.007L188.794 172.092L187.289 156.316L184.958 145.786C184.958 145.786 193.189 127.071 193.71 125.58L194.079 124.511L196.651 147.827C196.957 148.659 197.09 149.545 197.043 150.43C196.965 151.887 198.427 173.798 198.427 173.798L199.13 181.656L206.239 182.642L209.123 169.046C211.531 164.629 210.151 148.935 209.166 147.474C208.181 146.014 208.573 135.84 208.573 135.84C209.83 135.398 217.329 109.851 213.578 110.002C213.819 108.64 214.009 107.424 214.009 107.424L207.497 102.178L191.202 97.9466L187.091 95.9746C187.091 95.9746 179.749 109.538 179.822 110.213C179.923 111.067 179.727 111.93 179.267 112.657L171.854 137.442C171.854 137.442 170.396 142.04 171.265 143.341Z" fill="#2F2E41"/>
<path d="M212.202 54.65L209.61 49.1516L200.787 49.4904L197.909 55.2106C197.909 55.2106 189.684 65.0243 189.418 68.2153C189.083 72.2287 191.866 91.8984 189.083 90.6234C189.083 90.6234 182.523 98.3158 186.405 98.3158C190.286 98.3158 207.845 109.327 208.998 110.565C210.15 111.804 215.293 112.607 214.862 110.022C214.43 107.436 212.202 93.4549 212.202 93.4549L218.235 71.4705C219.971 66.7241 220.511 61.4001 216.586 58.2118L212.202 54.65Z" fill="#68E1FD"/>
<path d="M179.523 38.4664C178.343 37.9984 177.082 37.7672 175.813 37.786C174.543 37.8048 173.29 38.0732 172.124 38.5759C170.958 39.0787 169.903 39.8059 169.018 40.716C168.134 41.6261 167.438 42.7014 166.969 43.8803C164.999 48.8385 164.672 60.6791 168.339 66.6135C173.053 58.433 182.59 55.4124 184.943 51.0077C187.456 46.301 184.486 40.4345 179.523 38.4664Z" fill="#68E1FD"/>
<path d="M175.555 49.4868C177.297 49.4868 178.709 48.0764 178.709 46.3367C178.709 44.5969 177.297 43.1865 175.555 43.1865C173.814 43.1865 172.402 44.5969 172.402 46.3367C172.402 48.0764 173.814 49.4868 175.555 49.4868Z" fill="white"/>
<path d="M166.067 70.6288C167.207 70.6288 168.132 69.705 168.132 68.5655C168.132 67.426 167.207 66.5022 166.067 66.5022C164.926 66.5022 164.001 67.426 164.001 68.5655C164.001 69.705 164.926 70.6288 166.067 70.6288Z" fill="#68E1FD"/>
<path opacity="0.2" d="M178.664 44.8423C179.242 45.4456 179.556 46.2534 179.538 47.0881C179.52 47.9228 179.171 48.7162 178.567 49.2939C177.964 49.8716 177.156 50.1864 176.32 50.1691C175.484 50.1518 174.69 49.8038 174.111 49.2016C174.774 49.5499 175.539 49.6513 176.269 49.4877C177 49.324 177.648 48.9059 178.099 48.3082C178.549 47.7106 178.771 46.9724 178.727 46.2257C178.682 45.4791 178.372 44.7728 177.854 44.2332C178.155 44.3912 178.429 44.5969 178.664 44.8423Z" fill="#24285B"/>
<path opacity="0.2" d="M184.95 51.0209C182.598 55.4256 173.06 58.4462 168.346 66.6267C168.003 66.0644 167.701 65.4775 167.444 64.8708C172.301 57.2971 181.28 54.3329 183.553 50.0771C185.587 46.2681 184.03 41.6998 180.731 39.0525C184.952 41.421 187.254 46.7077 184.95 51.0209Z" fill="#24285B"/>
<path d="M165.136 67.8549C165.616 67.756 166.112 67.7635 166.589 67.8768C167.066 67.9902 167.512 68.2066 167.896 68.5109C168.28 68.8151 168.593 69.1998 168.812 69.6379C169.031 70.0759 169.152 70.5566 169.165 71.0462L176.319 73.7894L175.71 78.539L165.662 74.5233C164.837 74.4907 164.053 74.1571 163.458 73.5857C162.863 73.0142 162.499 72.2445 162.434 71.4226C162.369 70.6006 162.608 69.7834 163.106 69.1259C163.604 68.4683 164.326 68.0161 165.136 67.8549Z" fill="#A0616A"/>
<path d="M215.119 58.0668C214.366 57.6074 213.53 57.3011 212.658 57.1655C211.786 57.0298 210.895 57.0674 210.038 57.2762C209.181 57.485 208.373 57.8608 207.661 58.3821C206.95 58.9034 206.348 59.56 205.891 60.3141L195.622 77.2537L172.406 71.7561L170.291 77.557L200.022 91.6258L215.08 67.6668C217.334 64.5018 218.438 60.0909 215.119 58.0668Z" fill="#9EECFE"/>
<path d="M215.504 37.3078C215.504 38.9404 215.104 40.5483 214.337 41.9902C213.57 43.4321 212.461 44.6639 211.107 45.5776C209.752 46.4913 208.194 47.0589 206.569 47.2305C204.943 47.4021 203.301 47.1725 201.785 46.5619C200.269 45.9513 198.927 44.9783 197.876 43.7284C196.824 42.4785 196.096 40.9898 195.755 39.3931C195.414 37.7964 195.47 36.1404 195.919 34.5706C196.368 33.0008 197.196 31.5651 198.331 30.3896L198.378 30.3418C198.458 30.2579 198.538 30.1742 198.622 30.0944C198.623 30.0944 198.623 30.0943 198.624 30.0941C198.624 30.0939 198.625 30.0936 198.625 30.0932C198.625 30.0928 198.626 30.0924 198.626 30.0919C198.626 30.0914 198.626 30.0909 198.626 30.0904C198.73 29.9946 198.834 29.8989 198.942 29.8071C200.384 28.5435 202.161 27.7221 204.059 27.4412C205.957 27.1603 207.896 27.4318 209.643 28.2232C211.391 29.0146 212.873 30.2924 213.912 31.9036C214.952 33.5147 215.504 35.391 215.504 37.3078Z" fill="#2F2E41"/>
<path d="M203.059 47.9794C207.683 47.9794 211.431 44.2348 211.431 39.6155C211.431 34.9963 207.683 31.2517 203.059 31.2517C198.435 31.2517 194.687 34.9963 194.687 39.6155C194.687 44.2348 198.435 47.9794 203.059 47.9794Z" fill="#9E616A"/>
<path d="M211.952 42.0004L210.565 41.7556C209.79 41.6149 209.076 41.2411 208.519 40.6842C207.963 40.1273 207.589 39.4139 207.45 38.6394L206.096 40.9056L206.037 40.9252C202.812 41.9949 199.456 41.675 195.781 39.9485C194.73 39.4505 193.711 38.889 192.728 38.2671L192.656 38.2219L192.65 38.1368C192.463 35.4159 193.074 33.1429 194.371 31.7363C194.869 31.2072 195.474 30.7891 196.145 30.5096C196.816 30.2301 197.539 30.0954 198.266 30.1144C198.318 30.1009 198.365 30.0747 198.404 30.0381C198.423 30.0244 198.442 30.0109 198.46 29.998V29.9839L198.556 29.9387C198.763 29.8417 198.974 29.7488 199.184 29.6638C200.841 29.0232 202.645 28.8625 204.389 29.2002C206.133 29.5379 207.746 30.3603 209.043 31.5729C211.622 34.0324 212.805 38.16 211.986 41.8442L211.952 42.0004Z" fill="#2F2E41"/>
<path d="M229.609 49.1264C226.76 47.6573 230.424 42.3256 229.688 39.2082C228.951 36.0909 223.649 35.0882 223.311 31.9031C222.974 28.7179 222.179 25.4328 220.075 23.0159C218.731 21.4715 216.75 20.3314 214.71 20.5248C214.02 20.5903 213.352 20.8035 212.752 21.1501C212.152 21.4966 211.634 21.9683 211.232 22.533C210.831 23.0977 210.556 23.7422 210.427 24.4225C210.298 25.1028 210.316 25.803 210.482 26.4754C209.902 25.6534 208.399 25.8315 208.027 26.7665C207.696 27.5977 208.427 28.6046 209.286 28.6781C210.411 30.0661 211.7 31.5391 213.462 31.8191C213.743 31.8835 214.035 31.8833 214.316 31.8186C214.596 31.7539 214.859 31.6262 215.083 31.4454C215.498 31.0476 215.53 30.2523 215.038 29.955C217.253 30.834 218.552 33.2264 218.88 35.5846C219.209 37.9428 218.754 40.3289 218.455 42.691C218.155 45.053 218.026 47.5378 218.953 49.7313C220.048 52.3229 222.57 54.1803 225.322 54.776C228.075 55.3717 231.006 54.7895 233.497 53.4779C235.988 52.1661 238.065 50.1637 239.762 47.9187C236.839 49.9923 232.795 50.7692 229.609 49.1264Z" fill="#2F2E41"/>
<path d="M211.595 41.7678C211.595 41.7678 209.115 32.5197 198.484 30.3851C198.472 30.3812 198.432 30.3652 198.38 30.3413C198.348 30.3213 198.308 30.3014 198.268 30.2814C198.388 30.2136 198.504 30.1538 198.624 30.0939L198.625 30.0936L198.626 30.0927L198.627 30.0914L198.627 30.0899C198.731 29.9942 198.835 29.8984 198.943 29.8067L199.247 29.8186C199.247 29.8186 209.914 28.131 211.595 41.7678Z" fill="#FFD200"/>
<path opacity="0.2" d="M206.041 71.4431L200.036 78.3927L190.115 75.4659L200.931 80.4452L206.041 71.4431Z" fill="#2F2E41"/>
<path d="M242.081 198.117L149.763 198.22C149.658 198.219 149.557 198.177 149.482 198.103C149.408 198.028 149.366 197.927 149.366 197.822C149.366 197.716 149.408 197.615 149.482 197.54C149.557 197.466 149.658 197.424 149.763 197.423L242.081 197.321C242.187 197.321 242.288 197.362 242.363 197.437C242.438 197.512 242.48 197.613 242.48 197.719C242.48 197.824 242.438 197.926 242.363 198C242.288 198.075 242.187 198.117 242.081 198.117Z" fill="white"/>
<path d="M246.135 136.231C241.812 136.231 237.074 136.067 231.921 135.741C205.267 134.05 170.742 128.171 134.706 119.188C98.6707 110.205 65.4287 99.1903 41.1046 88.1733C29.2556 82.8065 20.1615 77.7264 14.0754 73.0738C7.63168 68.1483 4.81312 63.855 5.69766 60.3136C7.42115 53.4142 22.6818 51.9048 35.1804 51.8535L35.1847 52.8569C18.0207 52.9273 7.89488 55.6618 6.67228 60.5566C5.1149 66.7908 17.8162 76.5235 41.5193 87.2595C65.79 98.2522 98.9708 109.246 134.95 118.215C170.928 127.184 205.39 133.052 231.985 134.74C257.957 136.388 273.747 133.757 275.304 127.523C276.597 122.347 268.074 114.722 251.304 106.052L251.765 105.161C263.951 111.46 278.095 120.496 276.279 127.766C275.394 131.307 270.887 133.774 262.882 135.098C258.319 135.852 252.715 136.231 246.135 136.231Z" fill="#68E1FD"/>
<defs>
<linearGradient id="paint0_linear_2191_4334" x1="176.934" y1="151.816" x2="50.3059" y2="25.06" gradientUnits="userSpaceOnUse">
<stop stop-color="#03B8DF"/>
<stop offset="1" stop-color="#1853A4"/>
</linearGradient>
</defs>
</svg>
