<svg width="1204" height="5283" viewBox="0 0 1204 5283" fill="none" xmlns="http://www.w3.org/2000/svg">
<rect opacity="0.5" x="979" y="2344" width="170" height="170" fill="#D5F7FF"/>
<rect opacity="0.5" width="170" height="170" transform="matrix(-1 0 0 1 199 5113)" fill="#D5F7FF"/>
<rect opacity="0.5" x="1088" y="624" width="116" height="116" fill="#D5F7FF"/>
<rect opacity="0.5" width="116" height="116" transform="matrix(-1 0 0 1 1153 4256)" fill="#D5F7FF"/>
<rect opacity="0.5" width="145" height="145" transform="matrix(-1 0 0 1 184 3697)" fill="#D5F7FF"/>
<rect x="47" y="984" width="76" height="76" stroke="#D5F7FF" stroke-width="2"/>
<rect x="67" y="2700" width="76" height="76" stroke="#D5F7FF" stroke-width="2"/>
<rect x="31" y="1843" width="148" height="148" stroke="#87BAFF" stroke-width="2"/>
<rect x="-1" y="1" width="148" height="148" transform="matrix(-1 0 0 1 1171 4857)" stroke="#87BAFF" stroke-width="2"/>
<rect x="1121" y="521" width="57" height="57" fill="#87BAFF"/>
<rect width="57" height="57" transform="matrix(-1 0 0 1 1175 4235)" fill="#87BAFF"/>
<rect x="-1" y="1" width="33" height="33" transform="matrix(-1 0 0 1 72 3015)" stroke="#03B8DF" stroke-width="2"/>
<rect x="64" y="457" width="20" height="20" stroke="#1853A4" stroke-width="2"/>
<rect x="-1" y="1" width="20" height="20" transform="matrix(-1 0 0 1 1138 3471)" stroke="#1853A4" stroke-width="2"/>
<rect x="1125" y="1888" width="20" height="20" stroke="#1853A4" stroke-width="2"/>
<rect x="-1" y="1" width="20" height="20" transform="matrix(-1 0 0 1 77 4902)" stroke="#1853A4" stroke-width="2"/>
<rect x="58" y="2770" width="20" height="20" stroke="#1853A4" stroke-width="2"/>
<rect x="1130" y="1" width="33" height="33" stroke="#03B8DF" stroke-width="2"/>
<rect width="19" height="19" transform="matrix(-1 0 0 1 39 2454)" fill="url(#paint0_linear_2204_13913)"/>
<rect opacity="0.7" x="79" y="151" width="58" height="58" fill="url(#paint1_linear_2204_13913)"/>
<rect opacity="0.7" width="58" height="58" transform="matrix(-1 0 0 1 1124 3166)" fill="url(#paint2_linear_2204_13913)"/>
<rect opacity="0.7" x="1146" y="1437" width="58" height="58" fill="url(#paint3_linear_2204_13913)"/>
<rect opacity="0.7" width="58" height="58" transform="matrix(-1 0 0 1 58 4677)" fill="url(#paint4_linear_2204_13913)"/>
<rect x="-1" y="1" width="20" height="20" transform="matrix(-1 0 0 1 1032 5187)" stroke="#1853A4" stroke-width="2"/>
<defs>
<linearGradient id="paint0_linear_2204_13913" x1="19" y1="19" x2="0" y2="0" gradientUnits="userSpaceOnUse">
<stop stop-color="#9DEEFF"/>
<stop offset="1" stop-color="#1E7DFF"/>
</linearGradient>
<linearGradient id="paint1_linear_2204_13913" x1="137" y1="209" x2="79" y2="151" gradientUnits="userSpaceOnUse">
<stop stop-color="#78E7FF"/>
<stop offset="1" stop-color="#358AFF"/>
</linearGradient>
<linearGradient id="paint2_linear_2204_13913" x1="58" y1="58" x2="0" y2="0" gradientUnits="userSpaceOnUse">
<stop stop-color="#78E7FF"/>
<stop offset="1" stop-color="#358AFF"/>
</linearGradient>
<linearGradient id="paint3_linear_2204_13913" x1="1204" y1="1495" x2="1146" y2="1437" gradientUnits="userSpaceOnUse">
<stop stop-color="#78E7FF"/>
<stop offset="1" stop-color="#358AFF"/>
</linearGradient>
<linearGradient id="paint4_linear_2204_13913" x1="58" y1="58" x2="0" y2="0" gradientUnits="userSpaceOnUse">
<stop stop-color="#78E7FF"/>
<stop offset="1" stop-color="#358AFF"/>
</linearGradient>
</defs>
</svg>
