<svg width="1205" height="1653" viewBox="0 0 1205 1653" fill="none" xmlns="http://www.w3.org/2000/svg">
<rect opacity="0.5" x="195" y="1572" width="162" height="162" fill="#E7ECF2"/>
<rect opacity="0.5" x="1089" y="1020" width="116" height="116" fill="#D5F7FF"/>
<rect x="26" y="1223" width="76" height="76" stroke="#D5F7FF" stroke-width="2"/>
<rect x="140" y="1442" width="33" height="33" stroke="#03B8DF" stroke-width="2"/>
<rect x="916" y="1461" width="30" height="30" fill="#CEE3FF"/>
<rect opacity="0.5" y="109" width="170" height="170" fill="#D5F7FF"/>
<rect x="122" y="58" width="76" height="76" stroke="#D5F7FF" stroke-width="2"/>
<rect x="855" y="746" width="102" height="102" stroke="#87BAFF" stroke-width="2"/>
<rect x="1032" y="633" width="57" height="57" fill="#87BAFF"/>
<rect x="65" y="853" width="20" height="20" stroke="#1853A4" stroke-width="2"/>
<rect x="977" y="143" width="19" height="19" fill="url(#paint0_linear_2024_13911)"/>
<rect x="353" width="30" height="30" fill="#CEE3FF"/>
<rect opacity="0.7" x="120" y="506" width="58" height="58" fill="url(#paint1_linear_2024_13911)"/>
<defs>
<linearGradient id="paint0_linear_2024_13911" x1="996" y1="162" x2="977" y2="143" gradientUnits="userSpaceOnUse">
<stop stop-color="#9DEEFF"/>
<stop offset="1" stop-color="#1E7DFF"/>
</linearGradient>
<linearGradient id="paint1_linear_2024_13911" x1="178" y1="564" x2="120" y2="506" gradientUnits="userSpaceOnUse">
<stop stop-color="#78E7FF"/>
<stop offset="1" stop-color="#358AFF"/>
</linearGradient>
</defs>
</svg>
