<svg width="769" height="609" viewBox="0 0 769 609" fill="none" xmlns="http://www.w3.org/2000/svg">
<rect opacity="0.5" y="88.4106" width="173" height="173" fill="#D5F7FF"/>
<rect x="137.837" y="48.6258" width="63.8336" height="63.8336" stroke="#D5F7FF" stroke-width="1.25164"/>
<rect x="536.533" y="517.613" width="90.7733" height="90.7733" stroke="#87BAFF" stroke-width="1.22667"/>
<rect x="719.826" y="144.697" width="22.4928" height="22.4928" stroke="#03B8DF" stroke-width="1.3632"/>
<rect x="53.9949" y="511.727" width="14.5455" height="14.5455" stroke="#1853A4" stroke-width="1.45455"/>
<rect x="707.383" y="39.8726" width="11.1274" height="11.1274" fill="url(#paint0_linear_1925_7918)"/>
<rect x="305.633" width="20.0028" height="20.0028" fill="#CEE3FF"/>
<rect opacity="0.7" x="148" y="454" width="54.1388" height="54.1388" fill="url(#paint1_linear_1925_7918)"/>
<g clip-path="url(#clip0_1925_7918)">
<path d="M628.199 465.806H607.227C606.916 465.242 606.627 464.664 606.359 464.079C603.946 458.912 602.926 453.145 601.951 447.493L600.368 438.315C605.427 441.994 610.483 445.67 615.537 449.343C617.185 450.543 618.869 451.793 620.451 453.145C623.783 455.97 626.659 459.237 627.786 463.385C627.844 463.616 627.902 463.848 627.946 464.079C628.066 464.649 628.15 465.226 628.199 465.806V465.806Z" fill="#DCE1E9"/>
<path d="M631.139 464.078C631.14 464.114 631.138 464.151 631.132 464.186C631.062 464.739 630.931 465.282 630.742 465.805H621.325C621.029 465.25 620.778 464.673 620.574 464.078C620.288 463.284 620.082 462.463 619.959 461.628C619.646 458.793 619.812 455.924 620.45 453.144C620.631 452.241 620.826 451.33 621.021 450.434L622.134 445.317L627.706 454.271C629.571 457.27 631.508 460.573 631.139 464.078Z" fill="#DCE1E9"/>
<path d="M702.352 125.553H207.808C207.616 125.548 207.433 125.469 207.299 125.332C207.165 125.195 207.09 125.011 207.09 124.819C207.09 124.627 207.165 124.443 207.299 124.306C207.433 124.168 207.616 124.089 207.808 124.085H702.352C702.544 124.089 702.726 124.168 702.861 124.306C702.995 124.443 703.07 124.627 703.07 124.819C703.07 125.011 702.995 125.195 702.861 125.332C702.726 125.469 702.544 125.548 702.352 125.553V125.553Z" fill="#DCE1E9"/>
<path d="M223.964 115.28C228.324 115.28 231.859 111.666 231.859 107.209C231.859 102.751 228.324 99.1372 223.964 99.1372C219.603 99.1372 216.068 102.751 216.068 107.209C216.068 111.666 219.603 115.28 223.964 115.28Z" fill="#24285B"/>
<path d="M251.239 115.28C255.6 115.28 259.135 111.666 259.135 107.209C259.135 102.751 255.6 99.1372 251.239 99.1372C246.879 99.1372 243.344 102.751 243.344 107.209C243.344 111.666 246.879 115.28 251.239 115.28Z" fill="#68E1FD"/>
<path d="M278.514 115.28C282.874 115.28 286.409 111.666 286.409 107.209C286.409 102.751 282.874 99.1372 278.514 99.1372C274.153 99.1372 270.618 102.751 270.618 107.209C270.618 111.666 274.153 115.28 278.514 115.28Z" fill="#FFD200"/>
<path d="M686.011 104.074H666.631C666.247 104.066 665.882 103.907 665.614 103.633C665.346 103.359 665.195 102.99 665.195 102.607C665.195 102.223 665.346 101.855 665.614 101.58C665.882 101.306 666.247 101.148 666.631 101.139H686.011C686.394 101.148 686.759 101.306 687.028 101.58C687.296 101.855 687.446 102.223 687.446 102.607C687.446 102.99 687.296 103.359 687.028 103.633C686.759 103.907 686.394 104.066 686.011 104.074V104.074Z" fill="#424142"/>
<path d="M686.011 109.577H666.631C666.247 109.569 665.882 109.41 665.614 109.136C665.346 108.862 665.195 108.493 665.195 108.11C665.195 107.726 665.346 107.357 665.614 107.083C665.882 106.809 666.247 106.651 666.631 106.642H686.011C686.394 106.651 686.759 106.809 687.028 107.083C687.296 107.357 687.446 107.726 687.446 108.11C687.446 108.493 687.296 108.862 687.028 109.136C686.759 109.41 686.394 109.569 686.011 109.577V109.577Z" fill="#424142"/>
<path d="M686.011 115.081H666.631C666.247 115.072 665.882 114.914 665.614 114.639C665.346 114.365 665.195 113.997 665.195 113.613C665.195 113.229 665.346 112.861 665.614 112.587C665.882 112.312 666.247 112.154 666.631 112.146H686.011C686.394 112.154 686.759 112.312 687.028 112.587C687.296 112.861 687.446 113.229 687.446 113.613C687.446 113.997 687.296 114.365 687.028 114.639C686.759 114.914 686.394 115.072 686.011 115.081V115.081Z" fill="#424142"/>
<path d="M629.438 375.182H253.943C249.976 375.177 246.172 373.599 243.367 370.794C240.562 367.989 238.984 364.185 238.979 360.218V173.342C238.984 169.375 240.562 165.572 243.367 162.767C246.172 159.961 249.976 158.383 253.943 158.379H629.438C633.405 158.383 637.208 159.961 640.013 162.767C642.819 165.572 644.397 169.375 644.401 173.342V360.218C644.397 364.185 642.819 367.989 640.014 370.794C637.208 373.599 633.405 375.177 629.438 375.182V375.182Z" fill="#EBF0F7"/>
<path d="M670.654 426.17H295.16C291.193 426.166 287.389 424.588 284.584 421.782C281.779 418.977 280.201 415.174 280.196 411.206V224.331C280.201 220.363 281.779 216.56 284.584 213.755C287.389 210.95 291.193 209.372 295.16 209.367H670.654C674.622 209.372 678.425 210.95 681.23 213.755C684.035 216.56 685.613 220.363 685.618 224.331V411.206C685.614 415.174 684.036 418.977 681.23 421.782C678.425 424.588 674.622 426.166 670.654 426.17Z" fill="white"/>
<path d="M670.654 426.17H295.16C291.193 426.166 287.389 424.588 284.584 421.782C281.779 418.977 280.201 415.174 280.196 411.206V224.331C280.201 220.363 281.779 216.56 284.584 213.755C287.389 210.95 291.193 209.372 295.16 209.367H670.654C674.622 209.372 678.425 210.95 681.23 213.755C684.035 216.56 685.613 220.363 685.618 224.331V411.206C685.614 415.174 684.036 418.977 681.23 421.782C678.425 424.588 674.622 426.166 670.654 426.17ZM295.16 211.535C291.768 211.539 288.515 212.888 286.116 215.287C283.718 217.686 282.368 220.938 282.364 224.331V411.206C282.368 414.599 283.717 417.851 286.116 420.25C288.515 422.649 291.767 423.998 295.16 424.002H670.654C674.047 423.998 677.299 422.649 679.698 420.25C682.097 417.851 683.446 414.599 683.45 411.206V224.331C683.446 220.938 682.097 217.686 679.698 215.287C677.299 212.888 674.047 211.539 670.654 211.535H295.16Z" fill="#DCE1E9"/>
<path d="M323.996 393.452H624.254V341.988C624.209 336.562 623.079 331.199 620.933 326.215C618.787 321.23 615.667 316.725 611.756 312.963L611.674 312.883C606.311 307.502 588.389 293.846 569.845 295.004C560.05 295.614 551.664 300.334 544.92 309.035C523.928 336.128 496.354 326.983 481.786 319.12C468.947 312.189 455.835 308.936 442.812 309.454C424.573 310.167 398.901 316.886 380.179 344.847C373.028 355.518 357.477 370.002 323.996 378.514L323.996 393.452Z" fill="url(#paint2_linear_1925_7918)"/>
<path d="M641.243 394.649H324.574C324.311 394.649 324.059 394.545 323.873 394.359C323.687 394.173 323.583 393.921 323.583 393.658V241.879C323.583 241.616 323.687 241.364 323.873 241.178C324.059 240.992 324.311 240.888 324.574 240.888C324.837 240.888 325.089 240.992 325.275 241.178C325.461 241.364 325.565 241.616 325.565 241.879V392.667H641.243C641.505 392.667 641.757 392.771 641.943 392.957C642.129 393.143 642.234 393.395 642.234 393.658C642.234 393.921 642.129 394.173 641.943 394.359C641.757 394.545 641.505 394.649 641.243 394.649V394.649Z" fill="#8D8D8D"/>
<path d="M685.97 335.549C685.313 334.916 684.803 334.147 684.476 333.296C684.149 332.446 684.012 331.533 684.075 330.624C684.139 329.714 684.401 328.83 684.843 328.033C685.285 327.236 685.897 326.545 686.635 326.01L680.224 304.798L691.26 308.085L695.656 327.725C696.473 329.024 696.785 330.578 696.533 332.092C696.281 333.606 695.482 334.975 694.288 335.939C693.094 336.903 691.588 337.396 690.055 337.324C688.521 337.252 687.068 336.621 685.97 335.549V335.549Z" fill="#F4A28C"/>
<path d="M442.149 316.96C445.433 316.96 448.095 314.298 448.095 311.014C448.095 307.73 445.433 305.067 442.149 305.067C438.865 305.067 436.203 307.73 436.203 311.014C436.203 314.298 438.865 316.96 442.149 316.96Z" fill="#424142"/>
<path d="M558.773 301.41C562.057 301.41 564.719 298.748 564.719 295.464C564.719 292.18 562.057 289.518 558.773 289.518C555.489 289.518 552.827 292.18 552.827 295.464C552.827 298.748 555.489 301.41 558.773 301.41Z" fill="#424142"/>
<path d="M500.461 333.482C503.745 333.482 506.407 330.819 506.407 327.536C506.407 324.252 503.745 321.589 500.461 321.589C497.177 321.589 494.515 324.252 494.515 327.536C494.515 330.819 497.177 333.482 500.461 333.482Z" fill="#424142"/>
<path d="M383.838 342.228C387.122 342.228 389.784 339.566 389.784 336.282C389.784 332.998 387.122 330.335 383.838 330.335C380.554 330.335 377.892 332.998 377.892 336.282C377.892 339.566 380.554 342.228 383.838 342.228Z" fill="#424142"/>
<path d="M617.084 322.791C620.368 322.791 623.03 320.129 623.03 316.845C623.03 313.561 620.368 310.898 617.084 310.898C613.8 310.898 611.138 313.561 611.138 316.845C611.138 320.129 613.8 322.791 617.084 322.791Z" fill="#424142"/>
<path d="M581.909 209.409C581.792 210.313 581.875 211.232 582.151 212.101C582.428 212.97 582.891 213.767 583.509 214.437C584.127 215.107 584.885 215.634 585.728 215.98C586.572 216.325 587.481 216.482 588.391 216.438L596.648 237.002L603.207 227.537L594.361 209.461C594.186 207.936 593.458 206.528 592.315 205.504C591.172 204.48 589.692 203.911 588.157 203.904C586.623 203.898 585.139 204.455 583.987 205.47C582.836 206.484 582.096 207.886 581.909 209.409V209.409Z" fill="#F4A28C"/>
<path d="M675.003 456.726H667.4L663.784 427.402L675.004 427.403L675.003 456.726Z" fill="#F4A28C"/>
<path d="M676.942 464.096L652.428 464.095V463.785C652.428 461.254 653.434 458.828 655.223 457.038C657.012 455.249 659.439 454.244 661.97 454.244H661.97L676.942 454.244L676.942 464.096Z" fill="#FFD200"/>
<path d="M650.125 456.485L642.877 454.19L648.279 425.142L658.976 428.529L650.125 456.485Z" fill="#F4A28C"/>
<path d="M649.75 464.096L626.38 456.697L626.473 456.401C627.237 453.989 628.928 451.979 631.174 450.813C633.42 449.647 636.037 449.421 638.449 450.185L638.45 450.185L652.724 454.704L649.75 464.096Z" fill="#FFD200"/>
<path d="M641.121 313.408C641.121 313.408 629.841 331.12 633.827 346.928C637.813 362.736 642.154 393.121 642.154 393.121L663.766 444.556L679.877 443.898L663.878 383.256L664.51 342.709C664.51 342.709 675.63 323.331 673.465 317.298C671.299 311.266 641.121 313.408 641.121 313.408Z" fill="#24285B"/>
<path d="M682.674 254.856L696.015 320.95L676.348 322.026L682.674 254.856Z" fill="#9EECFE"/>
<path d="M677.974 319.74C677.974 319.74 679.362 337.311 675.021 344.752C670.68 352.194 666.055 380.516 666.055 380.516L658.677 437.162L643.395 432.188L656.426 368.724L666.669 318.803L677.974 319.74Z" fill="#24285B"/>
<path d="M683.392 234.682L671.469 226.487L653.324 225.959L647.005 232.154L637.363 237.078L636.47 317.299C636.47 317.299 665.345 331.139 680.88 324.458L688.353 261.967C691.454 249.565 683.392 234.682 683.392 234.682Z" fill="#68E1FD"/>
<path d="M639.783 258.516H607.979L587.083 222.548L600.67 217.166L612.177 237.635L628.831 236.127L639.23 235.624C640.897 235.544 642.56 235.828 644.105 236.458C645.65 237.088 647.039 238.047 648.175 239.27C649.31 240.492 650.165 241.948 650.679 243.535C651.193 245.122 651.354 246.803 651.15 248.459V248.459C650.807 251.232 649.462 253.785 647.369 255.637C645.276 257.489 642.578 258.513 639.783 258.516V258.516Z" fill="#9EECFE"/>
<path d="M663.874 219.353C672.563 219.353 679.607 212.31 679.607 203.621C679.607 194.932 672.563 187.889 663.874 187.889C655.186 187.889 648.142 194.932 648.142 203.621C648.142 212.31 655.186 219.353 663.874 219.353Z" fill="#F4A28C"/>
<path d="M682.831 200.042C682.348 196.588 680.009 193.309 676.682 192.262C675.361 188.425 671.86 185.599 667.993 184.368C664.412 183.226 660.552 183.305 657.021 184.593C653.489 185.881 650.485 188.305 648.48 191.484C648.184 191.95 647.274 193.093 647.299 193.648C647.332 194.354 648.411 195.082 648.953 195.526C650.296 196.565 651.745 197.459 653.275 198.194C658.932 201.127 657.049 205.736 656.972 210.96C656.935 213.498 657.782 215.665 659.947 217.115C663.07 219.207 667.541 218.375 670.939 217.535C674.796 216.582 678.002 213.194 680.201 209.928C682.149 207.035 683.315 203.496 682.831 200.042Z" fill="#24285B"/>
<path d="M696.448 464.938C696.448 465.051 696.427 465.164 696.384 465.269C696.341 465.374 696.278 465.469 696.198 465.55C696.118 465.63 696.023 465.694 695.918 465.738C695.814 465.782 695.701 465.805 695.588 465.805H593.474C593.245 465.805 593.025 465.714 592.863 465.552C592.701 465.39 592.61 465.171 592.61 464.942C592.61 464.713 592.701 464.493 592.863 464.331C593.025 464.169 593.245 464.078 593.474 464.078H695.588C695.816 464.079 696.034 464.169 696.196 464.331C696.357 464.492 696.447 464.71 696.448 464.938V464.938Z" fill="#DCE1E9"/>
</g>
<rect x="717.675" y="429.778" width="51.3247" height="51.3247" fill="#D5F7FF"/>
<rect x="189" y="382" width="27" height="27" fill="#A4EFFF"/>
<defs>
<linearGradient id="paint0_linear_1925_7918" x1="718.51" y1="51" x2="707.383" y2="39.8726" gradientUnits="userSpaceOnUse">
<stop stop-color="#9DEEFF"/>
<stop offset="1" stop-color="#1E7DFF"/>
</linearGradient>
<linearGradient id="paint1_linear_1925_7918" x1="202.139" y1="508.139" x2="148" y2="454" gradientUnits="userSpaceOnUse">
<stop stop-color="#78E7FF"/>
<stop offset="1" stop-color="#358AFF"/>
</linearGradient>
<linearGradient id="paint2_linear_1925_7918" x1="624.254" y1="393.452" x2="565.889" y2="215.568" gradientUnits="userSpaceOnUse">
<stop stop-color="#03B8DF"/>
<stop offset="1" stop-color="#1853A4"/>
</linearGradient>
<clipPath id="clip0_1925_7918">
<rect width="495.98" height="366.668" fill="white" transform="translate(207.09 99.1372)"/>
</clipPath>
</defs>
</svg>
