<svg width="717" height="540" viewBox="0 0 717 540" fill="none" xmlns="http://www.w3.org/2000/svg">
<path opacity="0.45" d="M358.5 459.829C476.792 459.829 572.686 449.179 572.686 436.042C572.686 422.905 476.792 412.255 358.5 412.255C240.209 412.255 144.314 422.905 144.314 436.042C144.314 449.179 240.209 459.829 358.5 459.829Z" fill="#E6E6E6"/>
<path d="M277.031 203.995C277.945 204.64 299.455 237.759 323.636 232.654C347.817 227.549 360.293 179.94 360.293 179.94L277.031 203.995Z" fill="#F4A28C"/>
<path d="M249.408 85.1326C249.408 85.1326 238.779 76.1768 230.408 82.41C222.037 88.6433 227.647 114.168 209.489 108.257C209.489 108.257 229.207 124.664 243.134 97.8679L249.408 85.1326Z" fill="#24285B"/>
<path d="M240.93 102.543C240.93 102.543 233.76 101.522 236.681 91.6705C239.603 81.819 247.849 82.1952 250.179 84.7745L240.93 102.543Z" fill="#68E1FD"/>
<path d="M262.529 97.2052C262.034 101.976 260.894 106.658 259.142 111.123C258.899 111.638 258.558 112.1 258.136 112.483C257.714 112.865 257.221 113.161 256.685 113.352C256.148 113.544 255.579 113.627 255.01 113.598C254.441 113.569 253.884 113.428 253.37 113.182C251.656 112.502 250.177 111.339 249.111 109.835C248.046 108.332 247.439 106.551 247.365 104.71L246.254 96.829C246.199 95.2293 246.641 93.6519 247.521 92.3142C248.401 90.9765 249.674 89.9443 251.165 89.3598C256.614 86.8342 263.336 92.0107 262.529 97.2052Z" fill="#F4A28C"/>
<path d="M244.497 101.217L238.887 128.891L254.374 130.897L252.295 110.478L244.497 101.217Z" fill="#F4A28C"/>
<path d="M261.705 102.579L263.497 106.286C263.597 106.497 263.642 106.73 263.628 106.963C263.613 107.196 263.54 107.421 263.415 107.618C263.289 107.815 263.116 107.977 262.911 108.088C262.706 108.2 262.476 108.258 262.243 108.257H258.891L261.705 102.579Z" fill="#F4A28C"/>
<path opacity="0.31" d="M252.348 111.051C250.519 110.484 248.882 109.424 247.616 107.988C247.616 107.988 245.824 113.917 252.994 116.944L252.348 111.051Z" fill="#CE8172"/>
<path d="M245.072 101.361C245.072 101.361 245.645 98.0829 243.136 97.7784C240.626 97.4739 239.802 102.274 243.136 103.367L245.072 101.361Z" fill="#F4A28C"/>
<path d="M260.827 96.4707C258.057 96.6172 255.281 96.2962 252.617 95.5213C252.617 95.5213 249.785 104.835 241.862 106.268C241.862 106.268 236.324 91.2583 245.734 86.7625C253.603 82.9831 259.536 79.5978 264.986 85.6878C265.792 86.5751 266.336 87.669 266.556 88.8474C266.777 90.0257 266.665 91.2421 266.234 92.3606C265.802 93.4792 265.068 94.4559 264.114 95.1816C263.159 95.9074 262.021 96.3537 260.827 96.4707V96.4707Z" fill="#24285B"/>
<path d="M252.187 100.537C252.187 100.537 252.187 96.6857 249.14 96.9544C246.092 97.223 245.555 101.665 249.14 103.85L252.187 100.537Z" fill="#F4A28C"/>
<path d="M238.888 128.891L254.375 130.897C254.375 130.897 338.174 171.091 290.225 227.621C286.172 232.326 283.575 238.107 282.75 244.261L278.412 279.027H215.46C215.46 279.027 124.544 149.203 238.888 128.891Z" fill="#68E1FD"/>
<path d="M348.265 97.8679L393.598 211.393L273.124 232.636C273.124 232.636 252.241 135.286 348.265 97.8679Z" fill="#FFD200"/>
<path d="M283.268 327.568L285.168 430.579L278.5 432.531L257.241 335.181L283.268 327.568Z" fill="#F4A28C"/>
<path opacity="0.08" d="M239.334 161.078C239.334 161.078 256.937 187.731 232.827 213.022C208.718 238.314 222.682 260.292 250.179 242.989C277.676 225.686 282.121 248.237 282.121 248.237L280.49 262.387L237.685 261.904L190.256 262.083L173.567 222.552L239.334 161.078Z" fill="black"/>
<path d="M285.007 429.074C285.007 429.074 289.058 433.839 293.969 433.409C298.881 432.979 299.885 439.965 291.89 439.535C289.404 439.413 286.933 439.078 284.505 438.532C282.266 438.109 279.956 438.276 277.801 439.015C277.378 439.133 276.928 439.116 276.514 438.969C276.1 438.822 275.742 438.55 275.489 438.191C273.141 435.63 278.464 429.235 278.464 429.235L285.007 429.074Z" fill="#68E1FD"/>
<path d="M197.319 327.353L190.257 430.149L196.817 432.423L222.934 336.255L197.319 327.353Z" fill="#F4A28C"/>
<path d="M190.49 428.644C190.49 428.644 186.206 433.194 181.294 432.531C176.383 431.868 175.057 438.764 183.087 438.746C185.58 438.749 188.069 438.54 190.526 438.119C192.781 437.804 195.079 438.082 197.194 438.925C197.61 439.064 198.058 439.072 198.478 438.947C198.899 438.822 199.27 438.57 199.542 438.227C202.016 435.773 197.015 429.271 197.015 429.271L190.49 428.644Z" fill="#68E1FD"/>
<path d="M280.49 262.333L298.039 368.192H252.187H232.828L177.332 369.41L201.531 262.333H280.49Z" fill="#24285B"/>
<path d="M239.334 161.078C240.32 142.504 218.738 131.452 203.663 142.361C183.301 157.156 154.406 182.232 162.293 247.216C171.864 326.117 270.882 244.332 270.882 244.332L266.777 233.925C266.777 233.925 212.357 267.958 197.748 246.607C193.249 240.033 199.415 230.11 204.04 222.229C212.411 208.007 238.151 183.755 239.334 161.078Z" fill="#F4A28C"/>
<path d="M266.777 233.925C266.777 233.925 270.846 223.286 277.676 225.632C284.505 227.979 279.558 242.147 270.882 242.935L266.777 233.925Z" fill="#F4A28C"/>
<path d="M232.827 130.109C232.827 130.109 230.676 123.446 243.026 122.049C255.377 120.652 265.253 125.9 261.185 134.587C261.185 134.623 251.881 142.038 232.827 130.109Z" fill="#68E1FD"/>
<path opacity="0.46" d="M232.827 130.109C232.827 130.109 230.676 123.446 243.026 122.049C255.377 120.652 265.253 125.9 261.185 134.587C261.185 134.623 251.881 142.038 232.827 130.109Z" fill="white"/>
<path d="M265.871 232.391L259.488 237.55L269.296 249.666L275.679 244.507L265.871 232.391Z" fill="#24285B"/>
<path d="M531.584 253.879C531.597 270.241 527.566 286.353 519.848 300.783C512.131 315.213 500.966 327.515 487.345 336.596C487.307 336.642 487.257 336.679 487.202 336.703C470.86 347.608 451.643 353.413 431.993 353.379C430.2 353.379 428.569 353.379 426.884 353.254L425.325 353.146C403.727 351.742 383.187 343.298 366.853 329.109L366.674 328.965C356.698 320.33 348.547 309.793 342.699 297.97C336.851 286.147 333.423 273.276 332.616 260.112C332.455 258.035 332.401 255.957 332.401 253.861C332.399 247.123 333.077 240.402 334.427 233.8V233.585L431.993 253.879V154.379C445.07 154.377 458.02 156.949 470.103 161.948C482.186 166.947 493.165 174.276 502.413 183.516C511.661 192.755 518.998 203.725 524.003 215.798C529.008 227.871 531.584 240.811 531.584 253.879Z" fill="#68E1FD"/>
<path d="M487.345 336.614C487.306 336.66 487.257 336.697 487.201 336.721C469.451 348.688 448.261 354.503 426.884 353.271L425.324 353.164C408.296 351.675 391.9 346.009 377.59 336.667C374.005 334.446 370.42 331.956 366.835 329.162L366.656 329.019C356.492 320.546 348.212 310.045 342.348 298.188C336.483 286.331 333.162 273.38 332.598 260.166C332.161 251.355 332.762 242.524 334.391 233.854V233.639L431.992 253.879L487.345 336.614Z" fill="#24285B"/>
<path d="M558.04 190.436H470.638V246.088H558.04V190.436Z" fill="#FFD200"/>
<path d="M499.73 222.981H487.882V234.821H499.73V222.981Z" fill="#24285B"/>
<path d="M519.717 210.264H507.868V234.839H519.717V210.264Z" fill="#24285B"/>
<path d="M540.799 201.702H528.95V234.839H540.799V201.702Z" fill="#24285B"/>
<path d="M380.763 158.732C380.4 156.882 379.341 155.242 377.806 154.147C374.856 152.861 371.574 152.541 368.431 153.233C365.455 154.039 365.061 156.314 365.097 159.323C365.133 162.332 365.312 165.736 367.517 167.796C368.541 168.899 369.887 169.652 371.364 169.948C372.841 170.244 374.373 170.067 375.744 169.443C377.707 168.531 379.285 166.958 380.203 165C381.12 163.041 381.319 160.822 380.763 158.732V158.732Z" fill="#F4A28C"/>
<path d="M422.367 317.287C425.468 314.192 427.62 310.276 428.569 306C429.518 301.724 429.225 297.266 427.723 293.151C426.221 289.037 423.574 285.436 420.093 282.775C416.612 280.113 412.443 278.501 408.075 278.128C403.708 277.755 399.325 278.636 395.443 280.669C391.56 282.702 388.34 285.801 386.162 289.602C383.983 293.402 382.936 297.746 383.145 302.121C383.354 306.496 384.81 310.72 387.341 314.296L383.936 317.699L382.717 316.481L352.244 346.931L360.185 354.848L390.657 324.398L389.439 323.18L392.844 319.777C397.268 322.908 402.658 324.376 408.061 323.921C413.463 323.465 418.531 321.115 422.367 317.287V317.287ZM395.999 290.939C398.002 288.929 400.557 287.558 403.341 287C406.124 286.442 409.01 286.723 411.634 287.805C414.258 288.888 416.501 290.725 418.079 293.083C419.658 295.44 420.5 298.213 420.5 301.05C420.5 303.886 419.658 306.659 418.079 309.017C416.501 311.375 414.258 313.211 411.634 314.294C409.01 315.377 406.124 315.657 403.341 315.099C400.557 314.542 398.002 313.171 395.999 311.161C393.323 308.475 391.82 304.84 391.82 301.05C391.82 297.26 393.323 293.624 395.999 290.939V290.939Z" fill="#C9C9C9"/>
<path opacity="0.58" d="M503.925 415.085C503.925 415.085 488.474 410.876 485.122 396.493C485.122 396.493 509.052 391.657 509.751 416.357L503.925 415.085Z" fill="#68E1FD"/>
<path opacity="0.73" d="M505.826 413.527C505.826 413.527 495.071 396.457 504.536 380.516C504.536 380.516 522.747 392.069 514.645 413.563L505.826 413.527Z" fill="#68E1FD"/>
<path d="M508.604 413.527C508.604 413.527 514.322 395.615 531.565 392.033C531.565 392.033 534.792 403.729 520.398 413.527H508.604Z" fill="#68E1FD"/>
<path d="M497.4 413.133L500.537 434.555L520.273 434.627L523.177 413.24L497.4 413.133Z" fill="#24285B"/>
</svg>
