<svg width="293" height="138" viewBox="0 0 293 138" fill="none" xmlns="http://www.w3.org/2000/svg">
<path style="mix-blend-mode:multiply" d="M78.106 137.348C118.715 137.348 151.635 133.879 151.635 129.598C151.635 125.318 118.715 121.848 78.106 121.848C37.4971 121.848 4.57715 125.318 4.57715 129.598C4.57715 133.879 37.4971 137.348 78.106 137.348Z" fill="url(#paint0_radial_2228_13914)"/>
<path d="M3.07834 0.384766C1.43586 0.384766 0.112305 1.70832 0.112305 3.3508V93.7031H156.084V3.3508C156.084 1.70832 154.761 0.384766 153.118 0.384766H3.07834Z" fill="#151619"/>
<path d="M4.91253 4.22754H151.301C151.795 4.22754 152.209 4.6262 152.209 5.13648V88.6797C152.209 89.174 151.811 89.5727 151.316 89.5727H4.92846C4.43413 89.5727 4.01953 89.174 4.01953 88.6637V5.13648C4.01953 4.64215 4.41819 4.24349 4.91253 4.24349V4.22754Z" fill="white"/>
<path d="M95.2169 123.539C94.4036 121.306 93.399 108.406 93.399 108.406H62.463C62.463 108.406 61.6338 121.801 60.5973 123.65C59.6883 125.245 55.9409 127.908 54.7449 128.833C54.5855 128.96 54.729 129.152 54.9363 129.152L59.9913 129.423H94.9299L101.149 128.96C101.356 128.96 101.388 128.96 101.229 128.833C99.9211 127.892 95.9664 125.564 95.2328 123.539H95.2169Z" fill="url(#paint1_linear_2228_13914)"/>
<path d="M0.112305 105.44C0.112305 107.082 1.45182 108.406 3.0943 108.406H153.118C154.761 108.406 156.1 107.082 156.1 105.44V93.7031H0.128267V105.44H0.112305Z" fill="#3A3A40"/>
<path d="M54.6816 128.96V129.04C54.6816 129.04 54.6817 129.901 55.9733 129.901H99.9056C101.421 129.901 101.341 128.976 101.341 128.976C101.341 128.976 99.9056 129.678 95.9509 129.678H60.1672C56.8822 129.678 54.6816 128.976 54.6816 128.976V128.96Z" fill="#868789"/>
<path d="M59.1945 129.088C58.5726 129.088 54.6816 128.961 54.6816 128.961C54.6816 128.961 54.7295 129.822 55.9893 129.822H99.8578C101.118 129.822 101.325 128.961 101.325 128.961V128.929C101.325 128.929 98.8532 129.088 96.6047 129.088H59.1945Z" fill="url(#paint2_linear_2228_13914)"/>
<path style="mix-blend-mode:multiply" d="M61.1074 129.71H95.1052L94.0846 123.459H61.9685L61.1074 129.71Z" fill="url(#paint3_radial_2228_13914)"/>
<path d="M167.134 8.6771L174.326 3.36694V14.0032L167.134 8.6771Z" fill="#231815"/>
<path d="M179.748 11.5634V3.36694H183.464V3.94101H180.322V11.5634H179.748Z" fill="#231815"/>
<path d="M190.847 9.95284L191.245 13.4611L190.448 13.5567L190.049 10.0645L185.855 10.6066L185.76 9.87311L189.97 9.33093L189.683 6.8114L186.174 7.27385L186.079 6.52436L189.603 6.07787L189.364 3.86132L190.464 3.81348C190.464 3.9251 190.368 4.02078 190.209 4.05267L190.416 5.95029L193.813 5.5038L193.908 6.26922L190.512 6.69978L190.799 9.20336L194.993 8.67713L195.088 9.41066L190.863 9.95284H190.847Z" fill="#231815"/>
<path d="M208.101 7.56073C208.101 7.56073 208.022 7.62452 207.974 7.64047C207.527 8.78861 206.762 9.90485 205.964 10.7341C205.837 10.6065 205.582 10.463 205.406 10.3514C206.06 9.76134 206.762 8.72482 207.081 7.97534L203.955 8.66103L204.976 13.429L204.322 13.5725L203.301 8.80455L200.75 9.37862L200.606 8.75671L203.174 8.18264L202.68 5.85447L203.604 5.75879C203.604 5.85447 203.557 5.91825 203.397 5.98204L203.828 8.00723L207.495 7.20991L207.575 7.14613L208.101 7.51289V7.56073Z" fill="#231815"/>
<path d="M215.357 6.79552C215.692 7.48121 216.059 8.54962 216.186 9.20343L215.564 9.36289C215.437 8.70909 215.086 7.70446 214.751 6.98687L215.357 6.79552ZM222.023 6.87525C222.007 6.97093 221.895 7.00282 221.783 6.98687C220.906 10.2399 219.264 12.2492 216.569 13.3495C216.473 13.2219 216.282 12.9508 216.138 12.8392C218.801 11.7867 220.332 9.95291 221.145 6.63605L222.023 6.8912V6.87525ZM218.068 6.26929C218.307 7.01877 218.514 8.08718 218.594 8.80477L217.94 8.93234C217.876 8.21475 217.653 7.19418 217.414 6.4128L218.068 6.26929Z" fill="#231815"/>
<path d="M228.114 7.0027C229.119 7.22595 230.379 7.6565 231.112 8.00733L230.777 8.70897C230.044 8.35815 228.752 7.91165 227.779 7.6884L228.114 7.0027ZM228.784 12.4564C232.42 11.2444 234.891 9.31493 236.374 5.95024C236.534 6.09376 236.885 6.33295 237.06 6.44458C235.561 9.76143 232.962 11.8345 229.549 13.0464C229.565 13.1421 229.517 13.2856 229.422 13.3334L228.8 12.4564H228.784ZM229.342 4.22803C230.347 4.49912 231.575 4.94562 232.34 5.32833L231.973 6.01402C231.176 5.61536 230.012 5.16886 229.007 4.88183L229.342 4.22803Z" fill="#231815"/>
<path d="M250.184 12.0096V12.6634H242.562V12.0096H247.106C247.282 10.8774 247.585 8.66082 247.696 7.51268H243.439V6.85887H247.92L248.047 6.81104L248.589 7.08212C248.589 7.08212 248.525 7.1778 248.462 7.1778C248.318 8.35784 247.967 10.7976 247.776 11.9936H250.184V12.0096Z" fill="#231815"/>
<path d="M264.615 5.23258C264.615 5.23258 264.536 5.32826 264.472 5.36015C263.595 9.58595 261.394 12.1055 257.742 13.3971C257.615 13.2058 257.376 12.9028 257.232 12.7433C260.693 11.6111 262.813 9.1235 263.483 5.74286H256.18V4.99338H263.77L263.93 4.89771L264.615 5.24853V5.23258Z" fill="#231815"/>
<path d="M278.217 5.32812V12.7113H277.42V12.0097H271.265V12.7432H270.483V5.32812H278.217ZM277.42 11.2442V6.07761H271.265V11.2442H277.42Z" fill="#231815"/>
<path d="M283.606 8.08691H292.935V8.88423H284.037C283.973 8.99586 283.83 9.07559 283.686 9.09154L283.622 8.08691H283.606Z" fill="#231815"/>
<path d="M168.937 22.1359C168.841 21.817 168.618 21.3386 168.394 20.9399H167.852C167.533 21.4024 167.182 21.8489 166.832 22.1678C166.704 22.0402 166.433 21.8648 166.273 21.7692C166.895 21.227 167.517 20.3021 167.884 19.3772L168.745 19.6642C168.745 19.6642 168.634 19.7599 168.506 19.7599C168.426 19.9353 168.331 20.1267 168.235 20.318H171.313V20.9399H169.144C169.351 21.2908 169.542 21.6735 169.622 21.9286L168.937 22.1359ZM176.623 20.318V20.9399H174.023C174.295 21.2748 174.534 21.6416 174.661 21.9286L173.991 22.1678C173.848 21.8329 173.529 21.3386 173.194 20.9559H172.221C171.998 21.2429 171.759 21.514 171.52 21.7532L172.014 21.7851C172.014 21.7851 171.95 21.9127 171.807 21.9286V22.6303H176.256V24.7352H175.522V23.2203H167.485V24.7352H166.768V22.6303H171.073V21.9765C170.914 21.8808 170.707 21.7532 170.563 21.6735C171.265 21.1632 171.95 20.3021 172.317 19.3772L173.194 19.6483C173.194 19.6483 173.099 19.744 172.955 19.744C172.859 19.9353 172.764 20.1267 172.652 20.318H176.623ZM169.096 26.1863V27.0315H175.331V29.7902H174.582V29.4234H169.096V29.8221H168.362V23.9857H174.613V26.2023H169.08L169.096 26.1863ZM173.88 24.5598H169.096V25.5963H173.88V24.5598ZM174.566 27.6374H169.08V28.8175H174.566V27.6374Z" fill="#231815"/>
<path d="M180.848 24.0812V26.8558L182.363 26.4093C182.363 26.4093 182.379 26.5369 182.459 27.0631C181.167 27.4777 179.796 27.9242 178.935 28.1794C178.935 28.2751 178.855 28.3229 178.791 28.3548L178.488 27.5256C178.951 27.414 179.509 27.2545 180.131 27.0791V24.0971H178.743V23.3955H180.131V20.8759H178.632V20.1583H182.315V20.8759H180.848V23.3955H182.204V24.0971H180.848V24.0812ZM185.919 28.7535H189.045V29.4391H181.869V28.7535H185.218V27.0312H182.602V26.3456H185.218V25.0379H182.666V20.0786H188.535V25.0379H185.919V26.3456H188.694V27.0312H185.919V28.7535ZM183.352 20.7324V22.2314H185.218V20.7324H183.352ZM183.352 24.3682H185.218V22.8533H183.352V24.3682ZM187.833 22.2314V20.7324H185.919V22.2314H187.833ZM187.833 24.3682V22.8533H185.919V24.3682H187.833Z" fill="#231815"/>
<path d="M191.021 20.1904H201.004V20.908H196.348V22.2316H198.724V27.3185H193.254V22.2316H195.582V20.908H191.021V20.1904ZM199.951 28.3709V22.104L200.908 22.1678C200.908 22.1678 200.844 22.2954 200.701 22.3272V29.7902H199.967V29.1045H192.122V29.838H191.388V22.1359L192.345 22.1997C192.345 22.1997 192.281 22.3272 192.138 22.3591V28.4188H199.983L199.951 28.3709ZM193.892 22.8694V24.4481H195.63V22.8694H193.892ZM193.892 25.0541V26.6487H195.63V25.0541H193.892ZM198.054 24.4322V22.8535H196.3V24.4322H198.054ZM198.054 26.6487V25.0541H196.3V26.6487H198.054Z" fill="#231815"/>
<path d="M213.315 20.9398H208.675C208.675 20.9398 208.611 20.9398 208.579 20.9398C208.483 21.3704 208.324 21.9285 208.164 22.4228H212.805V29.806H212.039V29.2001H204.608V29.806H203.875V22.4228H207.399C207.527 21.9763 207.654 21.4023 207.75 20.9239H203.301V20.2063H213.299V20.9239L213.315 20.9398ZM204.608 23.1404V28.5144H206.458V23.1404H204.608ZM209.36 24.4799V23.1404H207.144V24.4799H209.36ZM209.36 26.4732V25.1178H207.144V26.4732H209.36ZM207.144 27.0951V28.5144H209.36V27.0951H207.144ZM212.023 28.5144V23.1404H210.046V28.5144H212.023Z" fill="#231815"/>
<path d="M219.104 21.6094V29.8058H215.389V29.2158H218.53V21.6094H219.104Z" fill="#231815"/>
<path d="M166.354 38.6403C167.167 38.433 168.347 38.0821 169.543 37.7473L169.638 38.3532C168.618 38.6881 167.534 39.0389 166.864 39.2303C166.864 39.326 166.8 39.3738 166.736 39.4057L166.385 38.6403H166.354ZM170.579 44.5085C170.579 44.5085 170.452 44.6042 170.34 44.5723C169.447 45.0188 168.092 45.4813 166.975 45.7683C166.848 45.6248 166.609 45.3537 166.465 45.2261C167.565 44.9869 168.953 44.5723 169.782 44.1099L170.579 44.5085ZM167.262 35.6423C168.06 35.8496 169.096 36.2324 169.638 36.5194L169.304 37.1094C168.761 36.8064 167.725 36.3918 166.928 36.1526L167.262 35.6423ZM167.868 43.9504V39.3738H175.204V43.9504H167.868ZM168.602 39.9V40.7133H174.47V39.9H168.602ZM168.602 41.2236V42.0528H174.47V41.2236H168.602ZM168.602 42.5631V43.4082H174.47V42.5631H168.602ZM173.37 36.7905C173.641 37.6994 174.279 38.5605 176.623 38.9113C176.479 39.0549 176.304 39.3419 176.224 39.5173C174.263 39.1665 173.434 38.4011 173.019 37.5559C172.62 38.4011 171.807 38.9751 170.085 39.326C170.021 39.1665 169.862 38.9113 169.734 38.7838C171.6 38.4489 172.302 37.8589 172.573 36.7905H171.281C170.994 37.1413 170.659 37.4762 170.26 37.7792C170.133 37.6356 169.862 37.4762 169.686 37.3964C170.547 36.8064 171.121 36.0251 171.424 35.3394L172.27 35.4669C172.27 35.4669 172.19 35.5945 172.062 35.5945C171.967 35.7859 171.855 35.9932 171.727 36.1845H175.921L176.368 36.2324C176.224 36.6629 175.586 37.5559 175.188 37.9227L174.582 37.6994C174.821 37.4602 175.092 37.1254 175.315 36.7905H173.386H173.37ZM175.698 45.7524C174.965 45.3856 173.737 44.9072 172.477 44.5085L173.099 44.1099C174.343 44.4926 175.698 44.971 176.527 45.3378L175.698 45.7364V45.7524Z" fill="#231815"/>
<path d="M184.788 41.8456V44.7H189.3V45.3697H179.605V44.7H184.006V41.8456H180.115V41.1758H184.006V39.6131H181.598V38.9752C180.992 39.4377 180.355 39.8842 179.701 40.2509C179.589 40.0755 179.382 39.8204 179.238 39.6609C181.2 38.6244 183.113 36.8384 183.99 35.3235L185.091 35.3873C185.075 35.483 184.979 35.5308 184.867 35.5627C185.952 37.0616 187.961 38.6722 189.699 39.5174C189.524 39.7087 189.332 39.9479 189.205 40.1712C187.467 39.2144 185.457 37.5879 184.421 36.1049C183.831 37.0138 182.842 38.0344 181.678 38.9274H187.291V39.6131H184.804V41.1758H188.79V41.8456H184.804H184.788ZM182.157 44.5086C182.013 43.9345 181.566 43.0575 181.104 42.4037L181.726 42.1645C182.188 42.7864 182.667 43.6635 182.826 44.2375L182.172 44.5246L182.157 44.5086ZM187.897 42.4994C187.897 42.4994 187.77 42.595 187.658 42.595C187.339 43.1691 186.797 43.9983 186.366 44.5405L185.808 44.2694C186.223 43.7113 186.765 42.8024 187.052 42.1485L187.897 42.5153V42.4994Z" fill="#231815"/>
<path d="M202.503 41.5108H197.703C197.608 41.7819 197.496 42.0849 197.384 42.3879H201.435V45.0031C201.435 45.7685 201.036 45.7685 199.856 45.7685C199.824 45.5772 199.713 45.3061 199.617 45.1307C199.856 45.1307 200.063 45.1307 200.223 45.1307C200.685 45.1307 200.733 45.1307 200.733 44.9712V42.9779H198.963V45.6728H198.277V42.9779H196.555V45.6728H195.87V42.9779H194.211V45.7366H193.494V42.3719H196.699C196.794 42.1008 196.89 41.7979 196.97 41.4949H192.409V40.8889H202.535V41.4949L202.503 41.5108ZM193.35 37.7315V39.3262H192.664V37.1734H197.034V36.4718H193.302V35.8499H201.546V36.4718H197.767V37.1734H202.216V39.3262H201.499V37.7315H197.767V40.5062H197.034V37.7315H193.35ZM193.701 40.1235V39.6132H196.412V40.1235H193.701ZM193.94 38.4172H196.396V38.9275H193.94V38.4172ZM198.389 38.4172H200.909V38.9275H198.389V38.4172ZM198.389 40.1394V39.6132H201.196V40.1394H198.389Z" fill="#231815"/>
<path d="M215.564 42.2601H213.284C212.933 43.0096 212.439 43.6155 211.785 44.1099C213.108 44.4447 214.32 44.8115 215.213 45.1623L214.751 45.7842C213.762 45.3856 212.455 44.971 210.987 44.5882C209.712 45.2421 207.99 45.5929 205.709 45.7683C205.645 45.545 205.534 45.2739 205.406 45.0985C207.272 45.0029 208.739 44.7637 209.903 44.3331C209.17 44.1736 208.436 44.0142 207.687 43.8707L207.431 44.2055L206.73 43.9504C207.081 43.4879 207.527 42.8979 207.974 42.276H205.263V41.6222H208.42C208.691 41.2236 208.946 40.8408 209.17 40.49H206.251V37.6037H208.771V36.5832H205.374V35.8975H215.5V36.5832H212.04V37.6037H214.623V40.49H209.616L210.158 40.6335C210.158 40.6335 210.047 40.7452 209.887 40.7292C209.712 41.0003 209.52 41.3033 209.313 41.6063H215.596V42.2601H215.564ZM206.953 38.2256V39.8522H208.755V38.2256H206.953ZM208.835 42.2601C208.595 42.6109 208.34 42.9777 208.085 43.3125C209.026 43.472 209.967 43.6634 210.86 43.8866C211.546 43.472 212.072 42.9458 212.439 42.2601H208.835ZM209.457 36.5672V37.5878H211.29V36.5672H209.457ZM209.457 39.8362H211.29V38.2097H209.457V39.8362ZM213.858 38.2097H212.008V39.8362H213.858V38.2097Z" fill="#231815"/>
<path d="M220.763 36.2165C220.731 36.3441 220.619 36.4079 220.396 36.3919C219.997 38.2098 219.806 40.219 219.806 41.415C219.806 42.2602 219.838 43.1054 219.949 43.6316C220.157 43.0894 220.635 41.9094 220.794 41.5267L221.257 42.021C220.794 43.1532 220.46 43.791 220.3 44.2854C220.236 44.4767 220.204 44.6522 220.204 44.8116C220.204 44.9392 220.22 45.0508 220.268 45.1624L219.471 45.306C219.12 44.2375 218.977 42.9459 218.977 41.4629C218.977 39.9799 219.216 37.9547 219.567 36.0251L220.747 36.2324L220.763 36.2165ZM227.875 44.3811C227.476 44.397 227.061 44.413 226.647 44.413C225.849 44.413 225.1 44.3651 224.574 44.2854C223.202 44.0781 222.565 43.3286 222.565 42.4356C222.565 41.6702 222.995 41.0164 223.617 40.2828L224.35 40.6018C223.792 41.1758 223.394 41.718 223.394 42.3559C223.394 43.6475 225.291 43.6475 226.455 43.6475C226.918 43.6475 227.428 43.6316 227.891 43.5837V44.3811H227.875ZM222.692 37.556C224.127 37.5241 226.073 37.3965 227.556 37.1254L227.619 37.9068C226.232 38.146 223.984 38.2895 222.708 38.3214V37.556H222.692Z" fill="#231815"/>
<path d="M232.292 39.1827C232.898 39.8205 233.536 40.5541 234.126 41.2876C234.46 40.3946 234.7 39.39 234.875 38.2897L235.8 38.4651C235.784 38.5608 235.704 38.5927 235.561 38.6086C235.353 39.8524 235.05 40.9687 234.636 41.9414C235.178 42.675 235.625 43.3607 235.927 43.9188L235.322 44.4291C235.082 43.9347 234.716 43.3447 234.285 42.7069C233.647 43.9347 232.786 44.9075 231.654 45.625C231.558 45.4496 231.335 45.1945 231.191 45.051C232.355 44.3653 233.217 43.3607 233.823 42.053C233.185 41.2079 232.467 40.3308 231.781 39.5973L232.324 39.1667L232.292 39.1827ZM236.629 37.317V38.0186H231.207V37.317H233.567V35.3875L234.508 35.4512C234.508 35.4512 234.444 35.5788 234.301 35.6107V37.317H236.629ZM241.557 38.1621V38.8797H240.185V44.7161C240.185 45.7367 239.611 45.7686 237.857 45.7686C237.825 45.5613 237.713 45.2104 237.602 44.9872C237.969 44.9872 238.303 44.9872 238.591 44.9872C239.404 44.9872 239.436 44.9872 239.436 44.7161V38.8797H236.278V38.1621H239.436V35.3875L240.408 35.4512C240.392 35.5469 240.329 35.5948 240.185 35.6107V38.1781H241.557V38.1621ZM237.076 40.1235C237.618 40.9049 238.176 41.9574 238.351 42.6431L237.698 42.9779C237.522 42.2922 236.996 41.2079 236.454 40.4106L237.076 40.1395V40.1235Z" fill="#231815"/>
<path d="M254.489 37.5881H245.862V39.8205C245.862 41.5428 245.718 44.0463 244.761 45.7686C244.634 45.641 244.299 45.4177 244.107 45.338C245.016 43.7115 245.112 41.4471 245.112 39.8365V36.8864H249.322V35.3875L250.311 35.4512C250.311 35.4512 250.247 35.5788 250.087 35.6107V36.8864H254.489V37.604V37.5881ZM247.727 41.0325C247.552 42.2444 247.265 43.7753 246.675 44.6683L246.005 44.3493C246.579 43.4723 246.882 42.069 247.042 40.873L247.727 41.0325ZM249.274 44.5247C249.274 44.8915 249.354 44.9553 249.8 44.9553H251.331C251.794 44.9553 251.873 44.6683 251.905 42.962C252.065 43.1055 252.384 43.2331 252.591 43.2809C252.495 45.1466 252.304 45.641 251.379 45.641H249.721C248.78 45.641 248.525 45.4018 248.525 44.5088V40.267L249.497 40.3308C249.497 40.3308 249.418 40.4584 249.274 40.4903V44.5088V44.5247ZM249.226 37.8751C250.183 38.3216 251.411 39.0392 252.049 39.5495L251.507 40.1076C250.933 39.5973 249.705 38.8478 248.732 38.3694L249.226 37.8751ZM253.914 44.7161C253.723 43.7274 253.037 42.1966 252.304 41.0325L252.974 40.7614C253.739 41.8936 254.441 43.4085 254.632 44.3972L253.899 44.7161H253.914Z" fill="#231815"/>
<path d="M257.694 36.8862C258.539 36.8543 265.412 36.3599 266.864 36.344V37.1892C266.736 37.1892 266.592 37.1892 266.465 37.1892C265.811 37.1892 265.269 37.3008 264.551 37.7632C262.877 38.7678 261.25 40.5698 261.25 42.005C261.25 43.5677 262.351 44.4926 265.109 44.8594L264.743 45.6407C261.569 45.1783 260.389 43.9983 260.389 42.005C260.389 40.4263 261.936 38.5127 263.993 37.237C262.765 37.3327 259.464 37.5719 258.029 37.6994C257.997 37.7951 257.87 37.8589 257.79 37.8749L257.694 36.8862ZM264.934 39.0868C265.476 39.4854 266.114 40.1552 266.449 40.6336L266.018 40.9844C265.699 40.4901 265.03 39.8044 264.551 39.4376L264.934 39.1027V39.0868ZM266.146 38.0981C266.688 38.4968 267.342 39.1506 267.661 39.6449L267.23 39.9798C266.927 39.5333 266.273 38.8476 265.763 38.433L266.146 38.0981Z" fill="#231815"/>
<path d="M279.749 39.3737C278.744 39.7245 277.532 39.9318 276.384 40.0594C276.735 40.6653 277.405 41.4946 278.234 41.8135L277.787 42.4513C277.628 42.3716 277.341 42.244 277.133 42.1165C276.894 42.0208 276.336 41.9411 275.81 41.9411C275.65 41.9411 275.491 41.9411 275.347 41.957L275.188 41.3351C275.571 41.3192 276.113 41.3351 276.432 41.3829C276.129 41.064 275.778 40.5856 275.555 40.1232C274.805 40.2029 273.976 40.2348 272.557 40.2348C272.015 40.2348 271.393 40.2348 270.898 40.2348V39.5332C271.393 39.5332 272.031 39.5491 272.589 39.5491C273.498 39.5491 274.407 39.5491 275.316 39.4694C275.188 39.1185 275.013 38.4807 274.885 37.9864C274.439 38.0342 273.928 38.0501 273.482 38.0501C272.876 38.0501 272.11 38.0501 271.584 38.0342V37.3485C272.254 37.3804 272.987 37.3804 273.466 37.3804C273.864 37.3804 274.327 37.3644 274.757 37.3166C274.662 36.8063 274.55 36.1844 274.454 35.5625H275.603C275.603 35.706 275.507 35.7857 275.3 35.8176C275.363 36.296 275.443 36.8063 275.539 37.2528C276.591 37.1571 277.724 36.9339 278.537 36.599L278.728 37.2847C277.915 37.5877 276.815 37.795 275.682 37.9226C275.826 38.5126 275.969 39.0388 276.113 39.3896C277.293 39.2621 278.585 39.0069 279.605 38.6561L279.765 39.3577L279.749 39.3737ZM277.787 45.2898C277.165 45.3376 276.432 45.3536 275.332 45.3536C273.53 45.3536 272.11 44.7636 272.142 43.5038C272.142 42.85 272.732 42.1484 273.466 41.7338L273.976 42.244C273.322 42.5949 272.956 43.0573 272.956 43.4879C272.956 44.2852 273.944 44.6201 275.363 44.636C276.209 44.636 277.086 44.5882 277.851 44.5403V45.2898H277.787Z" fill="#231815"/>
<path d="M283.671 36.8862C284.516 36.8543 291.389 36.3599 292.84 36.344V37.1892C292.713 37.1892 292.569 37.1892 292.441 37.1892C291.788 37.1892 291.245 37.3008 290.528 37.7632C288.854 38.7678 287.227 40.5698 287.227 42.005C287.227 43.5677 288.327 44.4926 291.086 44.8594L290.719 45.6407C287.546 45.1783 286.366 43.9983 286.366 42.005C286.366 40.4263 287.913 38.5127 289.97 37.237C288.79 37.3167 285.441 37.5719 284.006 37.6994C283.974 37.7951 283.846 37.8589 283.767 37.8749L283.671 36.8862Z" fill="#231815"/>
<path d="M168.172 52.8327C168.156 52.9284 168.028 53.0081 167.869 53.0081C167.741 53.8533 167.661 54.8579 167.661 55.7828C167.661 56.1974 167.677 56.596 167.709 56.9628C167.837 58.8604 168.618 60.0086 169.479 59.9926C169.926 59.9926 170.5 58.8604 170.914 57.6007C171.074 57.7601 171.377 57.9674 171.568 58.0791C171.058 59.594 170.404 60.8218 169.479 60.8378C168.06 60.8537 167.071 59.1315 166.928 56.9947C166.896 56.5642 166.88 56.1017 166.88 55.5914C166.88 54.6027 166.944 53.5343 167.039 52.5935L168.187 52.8168L168.172 52.8327ZM175.571 58.0312C175.252 56.0698 174.263 54.6665 172.748 53.8373L173.242 53.2314C174.869 54.1084 176.065 55.7031 176.4 57.7761L175.571 58.0312Z" fill="#231815"/>
<path d="M184.372 51.6524C184.34 51.7481 184.229 51.8278 184.022 51.8438C183.942 52.3381 183.846 52.9122 183.735 53.3587C184.835 53.2949 186.047 53.1035 187.019 52.8165L187.147 53.5819C186.111 53.8371 184.883 54.0125 183.591 54.1241C183.049 56.2609 182.315 58.015 181.231 59.6256L180.481 59.3226C181.502 57.8555 182.267 56.1812 182.746 54.156H180.529V53.4224H181.853C182.204 53.4224 182.554 53.4224 182.873 53.4224C183.001 52.8324 183.113 52.1946 183.192 51.5408L184.372 51.7002V51.6524ZM187.338 56.4044C187.338 57.3134 187.418 57.9193 187.482 58.7007C188.2 58.9877 189.124 59.4661 189.858 59.9924L189.459 60.71C188.837 60.2475 188.088 59.801 187.482 59.5299C187.482 60.6462 187.035 61.5232 185.393 61.5232C184.149 61.5232 183.208 60.9651 183.208 59.9126C183.208 58.7964 184.388 58.2542 185.409 58.2542C185.808 58.2542 186.222 58.3339 186.669 58.4615C186.621 57.7439 186.573 57.0263 186.573 56.5001L187.338 56.4044ZM186.716 59.195C186.254 59.0196 185.792 58.9399 185.393 58.9399C184.723 58.9399 183.926 59.211 183.926 59.8967C183.926 60.5345 184.548 60.8375 185.425 60.8375C186.222 60.8375 186.748 60.4389 186.748 59.7053C186.748 59.5299 186.748 59.3545 186.748 59.195H186.716ZM189.778 55.2563C188.518 55.2563 186.988 55.4636 185.823 55.7985L185.696 55.0968C186.972 54.7301 188.503 54.4909 189.73 54.4909L189.778 55.2563Z" fill="#231815"/>
<path d="M195.726 52.8327C195.71 52.9284 195.583 53.0081 195.423 53.0081C195.296 53.8533 195.216 54.8579 195.216 55.7828C195.216 56.1974 195.232 56.596 195.264 56.9628C195.391 58.8604 196.173 60.0086 197.034 59.9926C197.48 59.9926 198.054 58.8604 198.469 57.6007C198.628 57.7601 198.931 57.9674 199.123 58.0791C198.613 59.594 197.959 60.8218 197.034 60.8378C195.615 60.8537 194.626 59.1315 194.482 56.9947C194.451 56.5642 194.435 56.1017 194.435 55.5914C194.435 54.6027 194.498 53.5343 194.594 52.5935L195.742 52.8168L195.726 52.8327ZM203.125 58.0312C202.806 56.0698 201.818 54.6665 200.303 53.8373L200.797 53.2314C202.424 54.1084 203.62 55.7031 203.955 57.7761L203.125 58.0312Z" fill="#231815"/>
<path d="M209.217 52.0513H216.472V61.4596H215.691V60.7899H209.998V61.5234H209.233V52.0513H209.217ZM215.691 52.8167H209.998V56.0219H215.691V52.8167ZM209.998 60.0245H215.691V56.7555H209.998V60.0245Z" fill="#231815"/>
<path d="M225.69 51.8598C225.674 51.9874 225.53 52.0512 225.323 52.0671C225.195 52.689 225.004 53.7734 224.861 54.4431C225.355 54.3794 225.817 54.3475 226.104 54.3475C227.795 54.3315 228.385 55.4478 228.385 57.1221C228.385 57.9673 228.225 58.956 228.002 59.6257C227.651 60.7579 226.934 61.316 226.009 61.316C225.546 61.316 224.94 61.1247 223.983 60.3433C224.111 60.136 224.191 59.8968 224.286 59.6576C225.179 60.3433 225.642 60.5028 225.993 60.5028C226.631 60.5028 227.013 60.1041 227.237 59.3865C227.476 58.7008 227.587 57.6643 227.587 57.0902C227.587 55.8145 227.157 55.065 226.041 55.065C225.706 55.065 225.243 55.1129 224.685 55.1767C224.127 57.457 223.473 59.4184 222.389 61.2044L221.655 60.8536C222.74 59.1154 223.346 57.3932 223.872 55.2723C223.298 55.3361 222.484 55.4318 221.878 55.5434L221.815 54.7621C222.357 54.6983 223.282 54.5867 224.031 54.5069C224.191 53.6937 224.382 52.689 224.51 51.7004L225.674 51.8598H225.69ZM228.273 51.509C228.815 51.9236 229.453 52.5934 229.772 53.0717L229.341 53.3907C229.023 52.9123 228.353 52.2106 227.874 51.8439L228.289 51.5249L228.273 51.509ZM230.777 58.0151C230.41 56.4045 229.533 55.0491 228.496 54.2039L229.15 53.7734C230.25 54.6983 231.223 56.1016 231.59 57.7122L230.793 58.0151H230.777ZM229.963 51.0784C230.506 51.4771 231.143 52.1469 231.478 52.6252L231.048 52.9442C230.729 52.4658 230.059 51.7482 229.581 51.3814L229.979 51.0625L229.963 51.0784Z" fill="#231815"/>
<path d="M235.178 55.99H245.527V56.8192H235.178V55.99Z" fill="#231815"/>
<path d="M250.295 52.0991H257.869V61.6989H257.088V60.9015H251.044V61.6989H250.295V52.0991ZM257.088 52.8327H251.044V54.7941H257.088V52.8327ZM257.088 55.4957H251.044V57.4731H257.088V55.4957ZM251.044 60.168H257.088V58.1906H251.044V60.168Z" fill="#231815"/>
<path d="M265.987 59.8013H263.738V60.7899H263.068V52.0194H265.987V59.7853V59.8013ZM265.301 52.7051H263.722V54.3635H265.301V52.7051ZM263.722 55.0173V56.7077H265.301V55.0173H263.722ZM263.722 59.1156H265.301V57.3774H263.722V59.1156ZM268.442 59.3867C268.442 59.3867 268.347 59.4823 268.219 59.4823C267.709 60.184 266.895 60.9335 266.13 61.4119C266.018 61.2843 265.795 61.0132 265.652 60.9016C266.369 60.487 267.167 59.8172 267.629 59.0996L268.442 59.4026V59.3867ZM270.579 53.3111C270.786 53.7416 271.073 54.1403 271.376 54.523C271.648 54.22 271.951 53.8373 272.142 53.5662L272.796 53.9649C272.796 53.9649 272.668 54.0446 272.588 54.0287C272.365 54.2679 272.014 54.6187 271.727 54.8898C272.158 55.3363 272.668 55.703 273.178 55.9422C273.003 56.0698 272.796 56.325 272.684 56.5163C272.413 56.3568 272.142 56.1814 271.887 55.9741V58.701H269.862V60.9175C269.862 61.6351 269.574 61.7148 268.091 61.7148C268.06 61.5075 267.948 61.2524 267.852 61.061C268.123 61.061 268.363 61.061 268.554 61.061H268.984C269.112 61.061 269.144 61.0291 269.144 60.9016V58.685H267.23V56.006C266.975 56.2133 266.704 56.4047 266.417 56.5482C266.337 56.3887 266.146 56.1176 266.002 55.9741C266.465 55.7349 266.88 55.4001 267.246 55.0173C267.087 54.6825 266.704 54.22 266.337 53.917L266.8 53.5822C267.135 53.8373 267.47 54.2041 267.661 54.5071C267.932 54.1562 268.155 53.7416 268.347 53.2951H266.274V52.6413H268.602C268.745 52.2108 268.857 51.7643 268.953 51.2859L269.846 51.4454C269.846 51.4454 269.75 51.5729 269.622 51.5729C269.543 51.9397 269.463 52.3065 269.351 52.6413H272.987V53.2951H270.579V53.3111ZM271.201 56.7236V55.8625H267.916V56.7236H271.201ZM271.201 58.1428V57.2658H267.916V58.1428H271.201ZM271.217 55.3044C270.691 54.7303 270.26 54.0446 269.941 53.3111H269.128C268.825 54.0765 268.442 54.7303 267.948 55.3044H271.201H271.217ZM272.365 61.364C272.03 60.8218 271.297 60.0086 270.643 59.4345L271.185 59.0837C271.871 59.6418 272.604 60.4232 272.955 60.9654L272.381 61.364H272.365Z" fill="#231815"/>
<path d="M281.31 52.4022L281.789 52.6414C281.789 52.6414 281.741 52.7371 281.693 52.753C280.959 55.9423 279.205 57.9516 277.005 58.9721C276.909 58.7967 276.686 58.4778 276.526 58.3502C277.403 57.9675 278.201 57.4413 278.886 56.7396C278.472 56.3888 277.834 55.9423 277.308 55.6393L277.754 55.1928C278.296 55.4799 278.934 55.8945 279.333 56.2453C279.572 55.9583 279.779 55.6393 279.987 55.3045C279.556 54.9855 278.918 54.6028 278.36 54.3477L278.727 53.8852C279.237 54.1085 279.859 54.4593 280.274 54.7463C280.513 54.252 280.704 53.7258 280.848 53.1198H278.631C278.201 53.8693 277.643 54.6347 277.053 55.1769C276.925 55.0334 276.67 54.8261 276.526 54.6985C277.483 53.8534 278.28 52.466 278.663 51.3179L279.572 51.5571C279.572 51.5571 279.476 51.6846 279.333 51.6846C279.237 51.9238 279.126 52.1949 278.998 52.4501H281.183L281.31 52.4182V52.4022ZM278.663 59.4346C278.392 60.2797 277.898 61.1727 277.292 61.7149L276.606 61.4119C277.18 60.9336 277.69 60.0724 277.962 59.2592L278.663 59.4346ZM280.162 61.6033C280.162 61.0771 280.066 60.2 279.923 59.5303L280.609 59.4665C280.768 60.1203 280.88 60.9814 280.896 61.4917L280.162 61.6033ZM281.406 53.8533H283.224C283.304 53.0879 283.32 52.2587 283.351 51.3338L284.34 51.3976C284.34 51.4933 284.244 51.5571 284.101 51.573C284.085 52.3863 284.037 53.1517 283.973 53.8693H286.652V54.5869H284.165C284.595 56.3091 285.456 57.6326 286.876 58.2546C286.716 58.3981 286.477 58.6851 286.381 58.8924C285.074 58.2227 284.244 57.0426 283.718 55.448C283.335 56.9948 282.506 58.1748 280.704 58.9243C280.609 58.7329 280.385 58.4619 280.226 58.3183C282.124 57.5848 282.857 56.3569 283.144 54.6028H281.406V53.8852V53.8533ZM282.937 61.6192C282.841 61.0771 282.538 60.2 282.235 59.5462L282.937 59.4186C283.256 60.0724 283.559 60.9335 283.67 61.4598L282.937 61.6192ZM286.078 61.7309C285.807 61.1249 285.137 60.1522 284.563 59.4665L285.249 59.2273C285.823 59.913 286.493 60.8538 286.796 61.4598L286.062 61.7309H286.078ZM285.169 51.573C285.68 52.0195 286.27 52.6414 286.557 53.056L285.983 53.4387C285.711 53.0082 285.137 52.3703 284.627 51.9079L285.169 51.573Z" fill="#231815"/>
<path d="M291.85 60.1362C291.85 60.9973 291.148 61.699 290.287 61.699C289.426 61.699 288.725 60.9973 288.725 60.1362C288.725 59.2751 289.426 58.5735 290.287 58.5735C291.148 58.5735 291.85 59.307 291.85 60.1362ZM291.451 60.1362C291.451 59.4824 290.941 58.9721 290.287 58.9721C289.634 58.9721 289.139 59.4824 289.139 60.1362C289.139 60.79 289.65 61.2844 290.287 61.2844C290.957 61.2844 291.451 60.7422 291.451 60.1362Z" fill="#231815"/>
<path d="M173.146 76.1143C173.593 76.1143 174.789 76.0505 175.49 75.9389C175.49 76.1781 175.506 76.497 175.538 76.7362C174.805 76.8159 173.688 76.8638 173.226 76.8638H170.435C168.745 76.8638 167.932 76.1302 167.932 74.5356V68.0294L169.032 68.0932C169.016 68.2049 168.936 68.2686 168.729 68.3005V71.9363C170.435 71.3941 172.811 70.5011 174.262 69.7198L174.836 70.4852C174.836 70.4852 174.741 70.5171 174.709 70.5171C174.645 70.5171 174.613 70.5171 174.549 70.4852C173.194 71.1709 170.658 72.1117 168.729 72.6858V74.5515C168.729 75.6837 169.271 76.0983 170.419 76.0983H173.146V76.1143ZM174.199 67.7105C174.709 68.173 175.267 68.8587 175.586 69.353L175.155 69.6719C174.836 69.1776 174.262 68.46 173.8 68.0294L174.199 67.7105ZM175.57 67.0408C176.08 67.5032 176.638 68.173 176.957 68.6673L176.527 68.9862C176.208 68.4919 175.618 67.7743 175.171 67.3597L175.57 67.0408Z" fill="#231815"/>
<path d="M180.179 70.8359C181.183 71.0592 182.443 71.4897 183.177 71.8406L182.842 72.5422C182.108 72.1914 180.816 71.7449 179.844 71.5216L180.179 70.8359ZM180.848 76.2896C184.436 75.0777 186.972 73.1163 188.439 69.7835C188.598 69.927 188.933 70.1821 189.125 70.2938C187.626 73.5947 184.978 75.6836 181.614 76.8796C181.646 76.9753 181.582 77.1188 181.486 77.1507L180.848 76.2737V76.2896ZM181.407 68.0613C182.411 68.3323 183.639 68.7788 184.404 69.1616L184.038 69.8473C183.24 69.4486 182.076 69.0021 181.072 68.7151L181.407 68.0613ZM186.637 67.6945C187.099 68.0931 187.737 68.7788 188.072 69.321L187.642 69.6399C187.323 69.1616 186.685 68.4121 186.222 68.0134L186.637 67.6945ZM188.184 67.0088C188.646 67.4074 189.284 68.1091 189.635 68.6194L189.204 68.9383C188.869 68.444 188.248 67.7264 187.785 67.3277L188.184 67.0088Z" fill="#231815"/>
<path d="M200.782 70.1983C200.782 70.1983 200.686 70.294 200.574 70.294C199.857 71.187 198.9 72.1438 197.879 72.9411L198.055 72.9889C198.055 72.9889 197.959 73.1324 197.816 73.1484V77.4061H197.018V73.5311C195.886 74.3125 194.403 75.1098 193.032 75.652C192.968 75.5722 192.601 75.1098 192.521 75.0301C195.216 74.0254 197.8 72.367 199.331 70.581H193.686V69.8475H200.08L200.208 69.7678L200.798 70.1983H200.782ZM198.932 69.3213C197.959 68.811 196.444 68.3007 195.264 67.9658L195.631 67.312C196.827 67.599 198.326 68.1412 199.347 68.6356L198.932 69.3213ZM199.012 72.9092C200.128 73.4833 201.467 74.3284 202.281 74.9663L201.707 75.5722C200.957 74.9503 199.57 74.0414 198.501 73.4673L199.012 72.9092Z" fill="#231815"/>
<path d="M213.443 68.7313C213.443 68.7313 213.363 68.8269 213.299 68.8588C212.694 70.2781 211.976 71.5059 211.067 72.7019C212.279 73.6746 214.113 75.3331 215.149 76.4972L214.464 77.0872C213.475 75.955 211.689 74.2487 210.541 73.3398C209.552 74.5358 207.862 76.1623 206.235 77.0872C206.108 76.9118 205.837 76.6407 205.661 76.4812C208.755 74.775 211.195 71.6176 212.199 69.1937H206.714V68.4283H212.63L212.773 68.3645L213.427 68.7313H213.443Z" fill="#231815"/>
<path d="M224.064 69.3052C224.016 69.4009 223.936 69.4806 223.777 69.4806C223.378 72.9569 222.214 75.9867 220.364 75.9867C219.423 75.9867 218.578 75.0459 218.578 73.2758C218.578 70.5968 220.667 68.3484 223.601 68.3484C226.822 68.3484 228.226 70.3895 228.226 72.5742C228.226 75.2372 226.679 76.5129 223.984 77.1349C223.888 76.9594 223.697 76.6565 223.522 76.4492C226.089 75.9548 227.412 74.711 227.412 72.5901C227.412 70.7403 226.232 69.066 223.617 69.066C223.506 69.066 223.378 69.066 223.282 69.0819L224.08 69.2733L224.064 69.3052ZM222.995 69.1617C220.731 69.4327 219.344 71.2985 219.344 73.2599C219.344 74.4559 219.854 75.2053 220.396 75.2053C221.751 75.2053 222.724 72.2234 222.995 69.1617Z" fill="#231815"/>
<path d="M240.998 72.399H237.107C236.868 74.5358 236.134 76.1464 233.966 77.3743C233.806 77.1989 233.535 76.9756 233.344 76.8321C235.353 75.7318 236.086 74.3604 236.31 72.3831H231.749V71.6495H236.358C236.421 70.916 236.421 70.1506 236.421 69.2576C235.289 69.5127 233.806 69.7519 232.578 69.8954C232.514 69.6881 232.451 69.4649 232.339 69.2416C236.262 68.7792 238.574 67.9978 239.26 67.6948L239.85 68.3486C239.85 68.3486 239.754 68.3805 239.706 68.3805C239.658 68.3805 239.627 68.3805 239.579 68.3805C238.957 68.6197 237.952 68.9067 237.075 69.1141L237.442 69.1459C237.442 69.2416 237.346 69.3214 237.203 69.3373C237.203 70.1825 237.187 70.9319 237.139 71.6336H240.966V72.3671L240.998 72.399Z" fill="#231815"/>
<path d="M253.053 71.3464C253.053 71.3464 252.974 71.4102 252.926 71.4261C252.479 72.5743 251.714 73.6905 250.917 74.5197C250.789 74.3921 250.534 74.2486 250.358 74.137C251.012 73.547 251.714 72.5105 252.033 71.761L248.907 72.4467L249.928 77.2147L249.274 77.3582L248.254 72.5902L245.702 73.1643L245.559 72.5424L248.126 71.9683L247.632 69.6401L248.557 69.5444C248.557 69.6401 248.509 69.7039 248.349 69.7677L248.78 71.7929L252.447 70.9956L252.527 70.9318L253.053 71.2985V71.3464Z" fill="#231815"/>
<path d="M258.507 68.4922C259.671 68.859 261.011 69.433 261.84 70.0071L261.41 70.7087C260.612 70.1347 259.289 69.5447 258.141 69.1619L258.491 68.4922H258.507ZM258.46 76.2262C262.43 74.9983 265.061 72.7818 266.401 69.6882C266.64 69.8795 266.895 70.023 267.134 70.1506C265.731 73.2123 263.02 75.5883 259.225 76.8481C259.225 76.9438 259.145 77.0554 259.065 77.1032L258.46 76.2262Z" fill="#231815"/>
<path d="M278.361 68.7313C278.361 68.7313 278.281 68.8269 278.217 68.8588C277.611 70.2781 276.894 71.5059 275.985 72.7019C277.197 73.6746 279.031 75.3331 280.067 76.4972L279.382 77.0872C278.393 75.955 276.607 74.2487 275.459 73.3398C274.47 74.5358 272.78 76.1623 271.153 77.0872C271.026 76.9118 270.755 76.6407 270.579 76.4812C273.673 74.775 276.113 71.6176 277.117 69.1937H271.632V68.4283H277.548L277.691 68.3645L278.345 68.7313H278.361Z" fill="#231815"/>
<path d="M292.999 72.0639C292.999 72.0639 292.951 72.0799 292.935 72.0799C292.872 72.0799 292.808 72.048 292.776 72.0161C291.931 72.2872 290.687 72.7496 289.762 73.1483C289.778 73.4034 289.794 73.6905 289.794 74.0253C289.794 74.3761 289.794 74.7908 289.762 75.2213L288.949 75.2691C288.981 74.8705 289.013 74.3602 289.013 73.9137C289.013 73.7383 289.013 73.5948 289.013 73.4672C287.753 74.0891 286.716 74.8226 286.716 75.4924C286.716 76.1621 287.482 76.4492 289.029 76.4492C290.113 76.4492 291.118 76.4332 291.835 76.3376V77.087C291.181 77.1508 290.177 77.1827 289.029 77.1827C286.892 77.1827 285.935 76.6724 285.935 75.5243C285.935 74.5356 287.227 73.5948 288.901 72.7496C288.837 72.048 288.518 71.6972 288.072 71.6972C287.259 71.6972 286.413 72.1596 285.409 73.2758C285.09 73.6267 284.659 74.0572 284.181 74.4878L283.639 73.9456C284.755 72.9569 285.807 72.0161 286.461 69.8314H285.839H283.974V69.0979C284.659 69.0979 285.441 69.0979 285.903 69.0979H286.668C286.796 68.5717 286.892 68.0933 286.971 67.4873L288.072 67.6149C288.056 67.7265 287.96 67.7903 287.785 67.8222C287.705 68.2687 287.609 68.6673 287.514 69.066C288.279 69.066 289.906 68.8746 291.357 68.4122L291.484 69.1617C290.081 69.5922 288.407 69.7517 287.29 69.7836C287.019 70.6287 286.748 71.2985 286.493 71.6653C286.987 71.2347 287.721 70.9317 288.295 70.9317C289.06 70.9317 289.539 71.4739 289.682 72.3828C290.623 71.9523 291.803 71.5058 292.696 71.155L293.047 72.0001L292.999 72.0639Z" fill="#231815"/>
<path d="M168.538 87.6916V91.3592C169.415 92.6828 171.041 92.6828 173.146 92.6828C174.374 92.6828 175.809 92.6668 176.671 92.603C176.575 92.7785 176.463 93.1133 176.431 93.3366C175.666 93.3525 174.438 93.3844 173.322 93.3844C170.866 93.3844 169.319 93.3844 168.219 91.9971C167.709 92.5074 167.182 92.9858 166.752 93.3685C166.752 93.4642 166.752 93.496 166.656 93.5439L166.226 92.7466C166.704 92.3957 167.294 91.9014 167.804 91.423V88.3932H166.337V87.6756H168.538V87.6916ZM167.039 83.4976C167.741 84.0239 168.538 84.8053 168.889 85.3634L168.283 85.8258C167.964 85.2518 167.182 84.4544 166.481 83.9123L167.055 83.4976H167.039ZM171.392 83.2266C171.918 83.2744 172.094 83.2903 172.285 83.2903C172.285 83.3701 172.221 83.4179 172.078 83.4339V87.0378C172.078 89.0311 171.791 90.7692 169.67 91.9811C169.574 91.8217 169.335 91.5825 169.176 91.4549C170.579 90.6576 171.105 89.653 171.281 88.4889C170.595 88.9513 169.893 89.3978 169.431 89.7008C169.431 89.7965 169.399 89.8603 169.335 89.8922L168.889 89.1586C169.511 88.8397 170.451 88.2975 171.36 87.7553C171.376 87.5161 171.376 87.261 171.376 87.0218V83.2266H171.392ZM169.814 84.295C170.324 84.9807 170.802 85.8896 170.946 86.4956L170.292 86.7507C170.164 86.1448 169.702 85.2199 169.208 84.5342L169.829 84.295H169.814ZM175.57 90.9925C175.857 90.9925 175.889 90.8171 175.921 90.0676C176.08 90.1951 176.336 90.3068 176.543 90.3387C176.447 91.3273 176.256 91.6463 175.602 91.6463H174.167C173.37 91.6463 173.146 91.423 173.146 90.53V83.2266L174.055 83.2903C174.055 83.2903 173.991 83.4179 173.848 83.4498V87.9308L174.247 87.5799C175.028 88.0105 175.969 88.6962 176.431 89.1905L175.921 89.6849C175.506 89.1905 174.629 88.5208 173.864 88.0583V90.5619C173.864 90.9446 173.928 91.0084 174.279 91.0084H175.602L175.57 90.9925ZM176.288 84.6298C176.288 84.6298 176.16 84.7255 176.049 84.7255C175.714 85.3634 175.14 86.3042 174.661 86.8942C174.661 86.8942 174.135 86.6391 174.119 86.6391C174.566 86.0172 175.124 84.9807 175.427 84.279L176.288 84.6298Z" fill="#231815"/>
<path d="M182.204 83.7049C182.188 83.8325 182.076 83.9122 181.853 83.9441C181.758 85.2357 181.646 88.2018 181.646 89.8602C181.646 91.5186 182.475 92.3319 183.878 92.3319C185.282 92.3319 186.621 91.6462 187.897 90.211C188.009 90.3864 188.264 90.7532 188.407 90.8648C187.1 92.3478 185.521 93.1292 183.878 93.1292C181.853 93.1292 180.801 91.9492 180.801 89.8442C180.801 88.441 180.896 84.9806 180.976 83.5933L182.188 83.6889L182.204 83.7049Z" fill="#231815"/>
<path d="M191.725 84.9485C192.41 84.9963 193.351 84.9963 194.101 84.9963C194.611 84.9963 195.169 84.9963 195.647 84.9804C195.647 84.4382 195.631 83.8163 195.631 83.4336L196.764 83.4974C196.764 83.6249 196.652 83.7047 196.461 83.7366C196.461 83.912 196.461 84.7731 196.461 84.9644C197.768 84.9007 199.06 84.789 200.176 84.5339L200.272 85.2674C199.172 85.5066 197.88 85.6182 196.461 85.698C196.461 86.3677 196.477 87.0534 196.509 87.7551C197.593 87.6913 198.757 87.5478 199.666 87.3245L199.762 88.058C198.821 88.2653 197.657 88.3929 196.54 88.4567L196.636 90.3224C197.657 90.6573 198.757 91.2314 199.921 92.0606L199.427 92.7463C198.422 91.949 197.465 91.4227 196.652 91.1038C196.652 91.2792 196.652 91.4865 196.652 91.63C196.652 92.6985 195.998 93.3044 194.659 93.3044C193.24 93.3044 192.203 92.7303 192.203 91.6779C192.203 90.6254 193.415 90.0195 194.675 90.0195C195.041 90.0195 195.44 90.0513 195.855 90.147C195.855 89.6686 195.823 89.0786 195.807 88.4886C195.456 88.4886 195.041 88.5045 194.722 88.5045C192.809 88.5045 192.283 88.2016 192.283 87.5637C192.283 87.1332 192.602 86.7983 193.319 86.3358L193.861 86.6867C193.367 86.9577 193.096 87.2129 193.096 87.4361C193.096 87.771 193.622 87.8348 195.041 87.8348C195.281 87.8348 195.552 87.8348 195.791 87.8348L195.727 85.7618C195.249 85.7777 194.691 85.7777 194.18 85.7777C193.463 85.7777 192.442 85.7777 191.772 85.7618V85.0282L191.725 84.9485ZM195.855 90.7689C195.408 90.6414 194.994 90.5935 194.611 90.5935C193.766 90.5935 192.905 90.9443 192.905 91.6141C192.905 92.2838 193.686 92.6028 194.659 92.6028C195.536 92.6028 195.871 92.2041 195.871 91.4227V90.7689H195.855Z" fill="#231815"/>
<path d="M210.987 83.6252C210.987 83.7369 210.907 83.8006 210.748 83.8325C210.796 84.6139 210.828 85.5388 210.843 86.368C211.721 86.2245 212.582 86.0969 213.235 85.9853L213.299 86.7667C212.629 86.8305 211.752 86.958 210.859 87.1016C210.859 88.1221 210.859 89.0311 210.732 89.5732C210.604 90.227 210.11 90.6098 209.488 90.6098C209.026 90.6098 208.388 90.4503 207.766 90.1154C207.83 89.956 207.861 89.6689 207.893 89.4616C208.515 89.7965 209.089 89.8922 209.36 89.8922C210.03 89.8922 210.126 89.2384 210.078 87.1972C208.786 87.4045 207.447 87.6278 206.442 87.8191C206.458 88.8876 206.49 89.8922 206.538 90.53C206.665 92.2203 207.511 92.332 209.121 92.332C210.03 92.332 211.242 92.2682 212.039 92.1725V92.9379C211.274 93.0336 210.142 93.0655 209.201 93.0655C207.463 93.0655 205.948 93.0177 205.757 90.6257C205.693 90.0038 205.677 89.0311 205.661 87.9945C204.975 88.1221 204.05 88.2975 203.476 88.4092L203.349 87.6597C203.939 87.564 204.864 87.4045 205.645 87.277C205.645 86.3042 205.629 85.2518 205.629 84.4066L206.729 84.5023C206.729 84.6299 206.634 84.6936 206.458 84.7096C206.458 85.3953 206.458 86.2883 206.458 87.1175L210.078 86.5115C210.046 85.5707 209.998 84.4863 209.935 83.5774L211.003 83.6412L210.987 83.6252Z" fill="#231815"/>
<path d="M215.532 92.8102C216.361 90.4342 217.733 86.4954 218.163 85.2994C218.37 84.6935 218.657 83.8483 218.737 83.5613L219.949 83.8802C219.885 84.0397 219.742 84.0875 219.519 84.0875C218.897 85.6184 217.956 88.2336 217.541 89.3498C218.195 88.5525 219.2 87.9784 219.981 87.9784C220.954 87.9784 221.416 88.6322 221.384 89.6688L221.352 90.9923C221.352 91.8375 221.783 92.284 222.516 92.284C223.521 92.284 224.446 91.1358 224.956 89.2063C225.18 89.3658 225.451 89.5093 225.69 89.6209C225.068 91.7577 223.968 93.0972 222.485 93.0972C221.304 93.0972 220.523 92.3796 220.523 91.2474C220.523 91.0401 220.555 90.0036 220.555 89.7804C220.555 89.0787 220.268 88.712 219.774 88.712C218.482 88.712 217.19 90.5777 216.919 91.2953C216.76 91.6939 216.521 92.3956 216.297 93.0494L215.5 92.7942L215.532 92.8102Z" fill="#231815"/>
<path d="M230.793 92.0291C230.793 92.8902 230.091 93.5918 229.23 93.5918C228.369 93.5918 227.667 92.8902 227.667 92.0291C227.667 91.1679 228.369 90.4663 229.23 90.4663C230.091 90.4663 230.793 91.1998 230.793 92.0291ZM230.394 92.0291C230.394 91.3753 229.884 90.865 229.23 90.865C228.576 90.865 228.082 91.3753 228.082 92.0291C228.082 92.6829 228.592 93.1772 229.23 93.1772C229.9 93.1772 230.394 92.635 230.394 92.0291Z" fill="#231815"/>
<defs>
<radialGradient id="paint0_radial_2228_13914" cx="0" cy="0" r="1" gradientUnits="userSpaceOnUse" gradientTransform="translate(79.9398 182.649) scale(71.2996 7.72412)">
<stop stop-color="#B6B3BF"/>
<stop offset="0.41" stop-color="#DAD9DF"/>
<stop offset="0.86" stop-color="white"/>
</radialGradient>
<linearGradient id="paint1_linear_2228_13914" x1="78.0107" y1="129.423" x2="78.0107" y2="108.406" gradientUnits="userSpaceOnUse">
<stop stop-color="#78777D"/>
<stop offset="0.14" stop-color="#4F4E54"/>
<stop offset="0.29" stop-color="#222127"/>
<stop offset="0.39" stop-color="#424046"/>
<stop offset="0.44" stop-color="#4F4D53"/>
<stop offset="0.5" stop-color="#434147"/>
<stop offset="0.64" stop-color="#2B2B31"/>
<stop offset="0.77" stop-color="#1D1E23"/>
<stop offset="0.88" stop-color="#191A1F"/>
</linearGradient>
<linearGradient id="paint2_linear_2228_13914" x1="54.7295" y1="129.375" x2="101.389" y2="129.375" gradientUnits="userSpaceOnUse">
<stop stop-color="#A0A1A2"/>
<stop offset="0.04" stop-color="#2C2C2F"/>
<stop offset="0.96" stop-color="#2F2F2F"/>
<stop offset="0.99" stop-color="#898989"/>
<stop offset="1" stop-color="#ADADAE"/>
</linearGradient>
<radialGradient id="paint3_radial_2228_13914" cx="0" cy="0" r="1" gradientUnits="userSpaceOnUse" gradientTransform="translate(77.7555 136.374) scale(16.361 10.1438)">
<stop offset="0.3" stop-color="#A1A4AB"/>
<stop offset="0.44" stop-color="#AEB0B6"/>
<stop offset="0.71" stop-color="#D1D2D6"/>
<stop offset="1" stop-color="white"/>
</radialGradient>
</defs>
</svg>
