<svg width="208" height="11" viewBox="0 0 208 11" fill="none" xmlns="http://www.w3.org/2000/svg">
<path d="M5.88435 0.773315L10.8263 9.33536H0.942383L5.88435 0.773315Z" fill="#231815"/>
<path d="M21.0105 2.35046V9.47047H20.2444V8.89967H13.6201V8.19368H20.2444V3.05646H13.7253V2.35046H21.0105Z" fill="#231815"/>
<path d="M25.3816 1.71973C26.4782 2.06521 27.7399 2.60597 28.521 3.14673L28.1154 3.80766C27.3644 3.2669 26.1177 2.71112 25.0361 2.35061L25.3666 1.71973H25.3816ZM25.3366 9.00497C29.0768 7.84834 31.5553 5.76041 32.8171 2.84631C33.0424 3.02656 33.2827 3.16176 33.508 3.28192C32.1862 6.16598 29.6326 8.40412 26.0576 9.59079C26.0576 9.68092 25.9825 9.78607 25.9074 9.83114L25.3366 9.00497Z" fill="#231815"/>
<path d="M45.1494 4.03285H42.9564V4.75386C42.9564 6.76669 42.3405 8.80957 39.5916 10.0413C39.4564 9.87607 39.2311 9.66577 39.0509 9.51556C41.7246 8.35894 42.2203 6.48129 42.2203 4.75386V4.01783H38.8255V6.6315H38.0745V4.01783H36.0166V3.29681H38.0745V1.0136L39.0809 1.07369C39.0809 1.17884 38.9758 1.26897 38.8255 1.29901V3.29681H42.2203V0.878418L43.2267 0.938492C43.2267 1.02862 43.1366 1.11875 42.9564 1.13377V3.29681H45.1494V4.01783V4.03285Z" fill="#231815"/>
<path d="M50.106 2.53087C50.106 2.62099 50.0009 2.68107 49.8657 2.71111C49.8056 5.53509 49.5653 8.11873 47.958 9.99637C47.7928 9.8762 47.5374 9.71096 47.3271 9.59079C48.8893 7.8934 49.0846 5.24969 49.1147 2.42572L50.1211 2.51584L50.106 2.53087ZM52.8249 8.58438C54.5824 7.72818 55.724 6.19602 56.3248 4.34842C56.475 4.48361 56.7905 4.66386 56.9707 4.75399C56.2197 6.88699 54.9128 8.44919 52.6747 9.51569C52.6446 9.60582 52.5695 9.68092 52.4944 9.72599L51.9537 9.03501L52.0738 8.8848V1.16394L53.0502 1.22403C53.0502 1.31415 52.9601 1.40428 52.8249 1.4193V8.5994V8.58438Z" fill="#231815"/>
<path d="M67.2007 2.65095C67.2007 2.65095 67.1406 2.74108 67.0805 2.77112C66.6899 4.07796 66.1642 5.27965 65.5333 6.25602C65.9839 6.51138 66.4947 6.84185 66.8852 7.12725L66.4496 7.81822C66.0741 7.51779 65.5333 7.17231 65.0977 6.90193C64.1364 8.25383 62.8896 9.33536 61.2974 10.1014C61.1772 9.92118 60.9068 9.66582 60.7266 9.56067C62.2587 8.83966 63.4904 7.78817 64.4518 6.5264C63.6707 6.09079 62.9046 5.73029 62.1235 5.42986L62.5291 4.84404C63.2952 5.11442 64.0913 5.47493 64.9024 5.91054C65.4432 5.05433 65.8788 4.13805 66.1792 3.11661H62.6192C61.9733 4.18311 61.1171 5.24961 60.1858 6.01569C60.0506 5.89552 59.7652 5.65518 59.585 5.53501C60.9669 4.48353 62.2737 2.59087 62.9046 0.78833L63.911 1.01365C63.866 1.13382 63.7608 1.16385 63.6256 1.14883C63.4754 1.49432 63.2351 2.00504 63.0398 2.39559H66.5397L66.6899 2.35053L67.2608 2.63593L67.2007 2.65095Z" fill="#231815"/>
<path d="M71.6463 1.71973C72.7428 2.06521 74.0046 2.60597 74.7857 3.14673L74.3801 3.80766C73.6291 3.2669 72.3823 2.71112 71.3008 2.35061L71.6312 1.71973H71.6463ZM71.6012 9.00497C75.3415 7.84834 77.82 5.76041 79.0817 2.84631C79.3071 3.02656 79.5474 3.16176 79.7727 3.28192C78.4508 6.16598 75.8973 8.40412 72.3222 9.59079C72.3222 9.68092 72.2471 9.78607 72.172 9.83114L71.6012 9.00497Z" fill="#231815"/>
<path d="M89.8077 6.46628C88.7412 5.89547 87.2692 5.2045 86.1125 4.75387V10.0113H85.3164V0.863403L86.3829 0.923489C86.3829 1.04366 86.2928 1.11875 86.1125 1.1488V4.22813L86.2627 4.00281C87.4945 4.45345 89.1318 5.17447 90.2133 5.76029L89.7927 6.46628H89.8077Z" fill="#231815"/>
<path d="M95.9206 1.35921C95.8906 1.47938 95.7855 1.53946 95.5752 1.52443C95.1996 3.23684 95.0194 5.12951 95.0194 6.25609C95.0194 7.05221 95.0494 7.84833 95.1546 8.34403C95.3498 7.83331 95.8005 6.72175 95.9507 6.36124L96.3863 6.8269C95.9507 7.8934 95.6352 8.49424 95.485 8.9599C95.425 9.14015 95.3949 9.30539 95.3949 9.4556C95.3949 9.57577 95.4099 9.6809 95.455 9.78605L94.7039 9.92125C94.3735 8.91483 94.2383 7.69812 94.2383 6.30115C94.2383 4.90419 94.4636 2.99651 94.7941 1.17896L95.9056 1.37423L95.9206 1.35921ZM102.62 9.05002C102.245 9.06504 101.854 9.08007 101.463 9.08007C100.712 9.08007 100.006 9.035 99.5107 8.9599C98.2189 8.76462 97.618 8.05862 97.618 7.21744C97.618 6.49643 98.0236 5.88056 98.6094 5.18959L99.3004 5.49002C98.7747 6.03078 98.3991 6.5415 98.3991 7.14234C98.3991 8.35905 100.187 8.35905 101.283 8.35905C101.719 8.35905 102.199 8.34403 102.635 8.29896V9.05002H102.62ZM97.7382 2.62098C99.0901 2.59094 100.923 2.47078 102.32 2.21542L102.38 2.95145C101.073 3.17676 98.9549 3.31196 97.7532 3.342V2.62098H97.7382Z" fill="#231815"/>
<path d="M113.511 9.41042C112.609 8.68941 111.453 8.01346 110.356 7.65296C110.371 8.05853 110.296 8.59929 110.221 8.86967C110.131 9.7409 109.32 10.0864 108.358 10.0864C107.006 10.0864 105.925 9.42545 105.925 8.35895C105.91 7.29245 107.022 6.64654 108.343 6.63152C108.719 6.63152 109.185 6.64655 109.575 6.72165C109.575 6.43625 109.515 6.19591 109.515 5.95557C109.425 4.57363 109.335 2.36552 109.32 0.848389L110.416 0.908475C110.416 1.01362 110.326 1.10375 110.146 1.13379C110.146 1.4192 110.146 2.80114 110.146 3.11658C110.837 3.11658 112.369 2.99641 113.646 2.78612L113.721 3.53717C112.519 3.73245 110.972 3.83759 110.161 3.83759C110.161 4.43843 110.176 4.67878 110.341 6.85684C111.693 7.26241 112.985 7.9684 114.006 8.73448L113.526 9.41042H113.511ZM108.313 7.26241C107.307 7.27744 106.601 7.69802 106.601 8.29886C106.601 9.06494 107.427 9.41042 108.268 9.41042C109.004 9.41042 109.62 9.15507 109.62 8.40401C109.62 8.16367 109.62 7.72806 109.605 7.42764C109.185 7.30747 108.719 7.26241 108.328 7.26241H108.313Z" fill="#231815"/>
<path d="M120.24 5.20464C120.931 4.84413 122.013 4.58876 122.854 4.58876C124.521 4.58876 125.573 5.56514 125.573 7.11231C125.573 9.02 123.905 10.0715 121.787 10.0715C120.42 10.0715 119.489 9.53072 119.489 8.59941C119.489 7.81832 120.255 7.18742 121.216 7.18742C122.403 7.18742 123.199 8.13375 123.364 9.0951C124.206 8.77966 124.821 8.10371 124.821 7.12734C124.821 5.98573 123.98 5.26472 122.658 5.26472C121.081 5.26472 119.534 5.97071 118.843 6.64666C118.528 6.94708 118.122 7.3827 117.837 7.71316L117.296 7.1724C118.242 6.18101 121.246 3.31197 122.688 1.97509C122.073 2.06522 119.97 2.14032 118.768 2.18539C118.738 2.26049 118.633 2.32058 118.543 2.35062L118.453 1.44936C119.88 1.44936 122.583 1.32918 123.349 1.22404L123.5 1.14893L124.055 1.83991C124.055 1.83991 123.905 1.93003 123.8 1.93003C123.049 2.5459 121.051 4.40852 120.24 5.20464ZM121.697 9.42557C122.013 9.42557 122.388 9.38051 122.658 9.32042C122.538 8.50928 121.937 7.83333 121.171 7.83333C120.631 7.83333 120.135 8.13375 120.135 8.61443C120.135 9.26033 121.006 9.44059 121.697 9.44059V9.42557Z" fill="#231815"/>
<path d="M132.183 1.1188C132.183 1.1188 132.063 1.22394 131.927 1.20892C131.191 2.87626 129.975 4.42345 128.638 5.36978C128.518 5.23459 128.262 4.99424 128.082 4.85905C129.389 3.97281 130.591 2.45568 131.282 0.803354L132.183 1.10377V1.1188ZM135.863 4.63375H136.028L136.434 4.66378C136.434 4.73889 136.434 4.82901 136.434 4.91914C136.269 8.31391 136.103 9.53063 135.743 9.9362C135.442 10.2667 135.127 10.3117 134.496 10.3117C134.136 10.3117 133.685 10.3117 133.234 10.2667C133.234 10.0564 133.129 9.75595 133.009 9.56067C133.73 9.62076 134.406 9.63577 134.661 9.63577C134.887 9.63577 135.007 9.62076 135.112 9.50059C135.382 9.23021 135.548 8.13366 135.698 5.33973H132.799C132.513 7.35256 131.927 9.39544 129.103 10.4169C129.013 10.2366 128.818 9.96624 128.653 9.81603C131.191 8.95982 131.792 7.20235 132.048 5.33973H129.779V4.64876H135.878L135.863 4.63375ZM134.932 0.78833C135.623 2.24538 137.005 3.86766 138.176 4.66378C137.981 4.81399 137.726 5.09939 137.59 5.29467C136.419 4.36336 135.052 2.63593 134.271 1.05871L134.947 0.78833H134.932Z" fill="#231815"/>
<path d="M142.291 4.60367C142.652 4.99422 143.583 6.1208 143.793 6.4062L143.343 6.97701C143.147 6.63153 142.682 5.94056 142.291 5.41482V10.3267H141.6V5.03929C141.195 6.31608 140.624 7.57786 140.038 8.32892C139.948 8.13364 139.768 7.84824 139.647 7.68301C140.383 6.76672 141.135 5.05431 141.495 3.5522H139.903V2.87624H141.6V0.562988L142.486 0.623074C142.486 0.623074 142.426 0.743249 142.291 0.75827V2.87624H143.778V3.5522H142.291V4.58865V4.60367ZM149.576 4.24317V4.91912H147.954V10.3568H147.263V4.91912H145.22C145.175 6.57144 144.92 8.71947 143.733 10.3117C143.643 10.1465 143.373 9.93618 143.192 9.83103C144.394 8.23879 144.514 6.07575 144.514 4.45347V1.46426L145.13 1.64451C146.362 1.40417 147.684 1.04367 148.465 0.68316L149.126 1.26898C149.126 1.26898 149.066 1.31404 148.915 1.31404C148.014 1.65953 146.542 2.02004 145.205 2.26038V4.22815H149.561L149.576 4.24317Z" fill="#231815"/>
<path d="M156.862 0.608061C156.832 0.698188 156.741 0.743241 156.636 0.773283C157.673 2.20029 159.565 3.61228 161.218 4.33329C161.052 4.49853 160.887 4.75388 160.767 4.96418C159.1 4.13802 157.207 2.69599 156.186 1.28401C155.314 2.59085 153.557 4.07794 151.709 5.00925C151.619 4.85904 151.454 4.58865 151.304 4.43844C153.151 3.53717 154.969 1.95995 155.81 0.562988L156.847 0.623074L156.862 0.608061ZM151.86 6.61651V5.94055H160.692V6.61651H155.63L155.75 6.66157C155.75 6.66157 155.63 6.76671 155.495 6.78173C155.179 7.50275 154.699 8.44908 154.248 9.21516C155.645 9.18512 157.282 9.12504 158.874 9.07997C158.409 8.53921 157.853 7.96841 157.327 7.50275L157.928 7.17229C158.919 8.02849 159.986 9.18512 160.467 9.98124L159.836 10.3868C159.701 10.1615 159.535 9.90613 159.325 9.65077C156.771 9.78596 154.053 9.90613 152.37 9.95119C152.355 10.0413 152.28 10.0864 152.205 10.1014L151.935 9.26022C152.37 9.26022 152.896 9.26023 153.467 9.23018C153.902 8.47913 154.398 7.44267 154.714 6.61651H151.829H151.86ZM153.662 3.89768H158.769V4.55861H153.662V3.89768Z" fill="#231815"/>
<path d="M166.34 2.3505V2.93633H162.915V2.3505H166.34ZM166.054 6.64655V9.72588H163.921V10.2366H163.336V6.64655H166.054ZM163.336 4.36334V3.77751H166.054V4.36334H163.336ZM163.336 5.79034V5.21954H166.054V5.79034H163.336ZM166.024 0.953539V1.53936H163.411V0.953539H166.024ZM165.439 7.23237H163.906V9.12503H165.439V7.23237ZM170.606 7.17228C170.666 7.65296 170.756 8.07356 170.861 8.43406C171.162 8.11862 171.402 7.78815 171.582 7.42764L172.243 7.71304C172.243 7.71304 172.153 7.80317 172.048 7.80317C171.808 8.22376 171.462 8.62933 171.057 9.00486C171.312 9.5306 171.597 9.80098 171.913 9.80098C172.093 9.80098 172.198 9.57567 172.243 8.86968C172.378 8.98985 172.574 9.07997 172.724 9.14006C172.604 10.0864 172.363 10.3868 171.868 10.3868C171.327 10.3868 170.906 10.0563 170.591 9.41043C170.155 9.74089 169.69 10.0263 169.209 10.2516C169.119 10.1314 168.954 9.95119 168.833 9.84604C169.374 9.6057 169.9 9.27524 170.381 8.88469C170.215 8.41904 170.08 7.84824 169.99 7.18731H168.458V7.98343L169.645 7.81819V8.29887L168.458 8.50916V9.68081C168.458 10.3417 168.142 10.3718 166.866 10.3718C166.836 10.2066 166.745 9.98124 166.655 9.83103C166.896 9.83103 167.121 9.83103 167.286 9.83103C167.767 9.83103 167.827 9.83103 167.827 9.6658V8.61431L166.595 8.80959C166.595 8.80959 166.52 8.92976 166.475 8.9598L166.235 8.26883C166.67 8.22377 167.241 8.14865 167.827 8.07355V7.20233H166.28V6.64655H167.827V5.88047C167.421 5.94055 167.016 6.00063 166.64 6.03067C166.625 5.91051 166.535 5.71524 166.475 5.58005C167.406 5.45988 168.533 5.2646 169.134 5.03929L169.645 5.51996C169.645 5.51996 169.599 5.55 169.554 5.55C169.524 5.55 169.509 5.55 169.464 5.55C169.194 5.64013 168.848 5.71524 168.473 5.79034V6.66157H169.93C169.87 6.18089 169.84 5.65515 169.825 5.08435L170.651 5.1144C170.651 5.20452 170.591 5.24958 170.456 5.26461C170.456 5.77532 170.486 6.24098 170.531 6.66157H172.619V7.21734H170.606V7.17228ZM169.134 3.04147V2.29042H166.73V1.74966H168.112C167.992 1.44923 167.722 1.05869 167.481 0.758268L167.992 0.547974C168.278 0.863417 168.578 1.29903 168.683 1.59945C168.593 1.62949 168.503 1.65953 168.338 1.74966H170.561L170.335 1.64451C170.546 1.34409 170.816 0.863417 170.951 0.547974L171.687 0.833367C171.687 0.833367 171.582 0.923502 171.477 0.923502C171.327 1.16384 171.102 1.4943 170.891 1.74966H172.378V2.29042H169.81V3.04147H172.078V3.5522H169.81V4.33329H172.589V4.88908H166.31V4.33329H169.134V3.5522H167.106V3.04147H169.134ZM172.108 6.43625C171.883 6.12081 171.387 5.6852 170.951 5.38478L171.357 5.08435C171.793 5.35473 172.288 5.77532 172.529 6.09076L172.093 6.43625H172.108Z" fill="#231815"/>
<path d="M179.994 2.50063C179.949 2.59076 179.874 2.66586 179.724 2.66586C179.349 5.94047 178.252 8.79449 176.51 8.79449C175.623 8.79449 174.827 7.90824 174.827 6.2409C174.827 3.71735 176.795 1.59937 179.559 1.59937C182.593 1.59937 183.915 3.52207 183.915 5.57997C183.915 8.08849 182.458 9.29018 179.919 9.87601C179.829 9.71078 179.649 9.42537 179.484 9.2301C181.902 8.76444 183.149 7.5928 183.149 5.59499C183.149 3.85254 182.037 2.27531 179.574 2.27531C179.469 2.27531 179.349 2.27531 179.258 2.29034L180.009 2.47059L179.994 2.50063ZM178.988 2.36545C176.855 2.6208 175.548 4.37828 175.548 6.22587C175.548 7.35246 176.029 8.05845 176.54 8.05845C177.816 8.05845 178.733 5.2495 178.988 2.36545Z" fill="#231815"/>
<path d="M188.361 3.58224V4.28823C188.662 4.6938 189.473 5.91051 189.668 6.21093C189.578 6.3311 189.503 6.43625 189.263 6.73667C189.097 6.39118 188.692 5.68519 188.361 5.14443V10.3417H187.715V5.15946C187.34 6.39119 186.859 7.59288 186.334 8.31389C186.243 8.11862 186.078 7.86325 185.958 7.69802C186.619 6.81177 187.295 5.08435 187.625 3.58224H186.168V2.9213H187.7V0.578011L188.557 0.638097C188.557 0.638097 188.482 0.75826 188.346 0.773281V2.9213H189.593V3.58224H188.346H188.361ZM189.188 9.26022C189.879 8.92975 190.885 8.35895 191.876 7.80317L192.042 8.32892C191.185 8.86968 190.269 9.42545 189.683 9.75592C189.683 9.84605 189.653 9.90613 189.593 9.95119L189.188 9.26022ZM193.769 7.51777C194.325 8.37398 195.076 9.04992 195.962 9.41043C195.797 9.54562 195.602 9.80098 195.496 9.98124C194.445 9.4555 193.604 8.52419 193.018 7.35254V9.5306C193.018 10.3267 192.702 10.3868 191.26 10.3868C191.23 10.1915 191.14 9.90613 191.05 9.71086C191.531 9.71086 192.012 9.71086 192.162 9.71086C192.312 9.71086 192.342 9.65078 192.342 9.51559V5.62511H189.608V5.00925H192.342V4.07794H190.209V3.49211H192.342V2.59085H189.864V1.97498H191.185C191.08 1.62949 190.855 1.14881 190.63 0.788306L191.2 0.593035C191.456 0.998606 191.741 1.52434 191.831 1.86983L191.561 1.97498H193.709L193.484 1.88485C193.709 1.50932 193.994 0.923502 194.13 0.547974L194.941 0.818354C194.941 0.818354 194.836 0.908477 194.715 0.908477C194.565 1.2089 194.31 1.62949 194.099 1.95995H195.632V2.57582H193.018V3.47709H195.346V4.06291H193.018V4.99423H195.767V5.61009H193.018V5.94055C193.183 6.45127 193.424 6.94697 193.709 7.3976C194.145 6.99203 194.76 6.36115 195.091 5.91051L195.737 6.39119C195.737 6.39119 195.617 6.4663 195.511 6.45128C195.166 6.8268 194.55 7.3976 194.084 7.75811L193.769 7.50275V7.51777ZM191.05 7.74309C190.84 7.33752 190.374 6.73668 189.954 6.28604L190.449 5.9706C190.885 6.40621 191.351 6.97701 191.561 7.38258L191.05 7.74309Z" fill="#231815"/>
<path d="M207.348 5.36981V6.0758H202.902V9.41048C202.902 9.9212 202.767 10.1315 202.391 10.2517C202.016 10.3718 201.325 10.3718 200.288 10.3718C200.228 10.1615 200.108 9.84609 199.988 9.6358C200.544 9.65082 201.069 9.66585 201.445 9.66585C202.106 9.66585 202.196 9.66585 202.196 9.39547V6.0758H197.72V5.36981H202.196V3.64237H202.602C203.428 3.2368 204.344 2.60592 205.005 2.03511H198.816V1.34414H205.801L205.921 1.28406L206.552 1.70465C206.552 1.70465 206.432 1.77975 206.372 1.79477C205.516 2.62093 204.104 3.59731 202.917 4.2282V5.36981H207.363H207.348Z" fill="#231815"/>
</svg>
