<svg width="294" height="138" viewBox="0 0 294 138" fill="none" xmlns="http://www.w3.org/2000/svg">
<path style="mix-blend-mode:multiply" d="M78.7171 137.2C119.282 137.2 152.167 133.734 152.167 129.459C152.167 125.183 119.282 121.717 78.7171 121.717C38.1521 121.717 5.26758 125.183 5.26758 129.459C5.26758 133.734 38.1521 137.2 78.7171 137.2Z" fill="url(#paint0_radial_2223_13911)"/>
<path d="M3.77045 0.384766C2.12974 0.384766 0.807617 1.70689 0.807617 3.3476V93.6025H156.611V3.3476C156.611 1.70689 155.289 0.384766 153.648 0.384766H3.77045Z" fill="#151619"/>
<path d="M5.60297 4.22363H151.833C152.327 4.22363 152.741 4.62186 152.741 5.1316V88.5847C152.741 89.0785 152.343 89.4767 151.849 89.4767H5.61889C5.12508 89.4767 4.71094 89.0785 4.71094 88.5688V5.1316C4.71094 4.63779 5.10916 4.23956 5.60297 4.23956V4.22363Z" fill="white"/>
<path d="M95.8089 123.406C94.9965 121.176 93.993 108.289 93.993 108.289H63.0903C63.0903 108.289 62.262 121.67 61.2266 123.517C60.3187 125.11 56.5753 127.77 55.3806 128.694C55.2213 128.822 55.3647 129.013 55.5717 129.013L60.6213 129.284H95.5222L101.735 128.822C101.942 128.822 101.974 128.822 101.814 128.694C100.508 127.755 96.5576 125.429 95.8248 123.406H95.8089Z" fill="url(#paint1_linear_2223_13911)"/>
<path d="M0.807617 105.326C0.807617 106.967 2.14569 108.289 3.78639 108.289H153.648C155.289 108.289 156.627 106.967 156.627 105.326V93.6025H0.823562V105.326H0.807617Z" fill="#3A3A40"/>
<path d="M55.3174 128.822V128.901C55.3174 128.901 55.3174 129.762 56.6077 129.762H100.493C102.006 129.762 101.926 128.838 101.926 128.838C101.926 128.838 100.493 129.539 96.5422 129.539H60.797C57.5156 129.539 55.3174 128.838 55.3174 128.838V128.822Z" fill="#868789"/>
<path d="M59.8254 128.95C59.2041 128.95 55.3174 128.822 55.3174 128.822C55.3174 128.822 55.3652 129.682 56.6236 129.682H100.445C101.703 129.682 101.91 128.822 101.91 128.822V128.79C101.91 128.79 99.4413 128.95 97.1953 128.95H59.8254Z" fill="url(#paint2_linear_2223_13911)"/>
<path style="mix-blend-mode:multiply" d="M61.7373 129.57H95.6984L94.6789 123.326H62.5975L61.7373 129.57Z" fill="url(#paint3_radial_2223_13911)"/>
<path d="M167.65 8.5886L174.834 3.28418V13.909L167.65 8.5886Z" fill="#231815"/>
<path d="M180.251 11.4879V3.30029H183.962V3.87374H180.824V11.4879H180.251Z" fill="#231815"/>
<path d="M190.715 3.66679C190.715 3.66679 190.588 3.79423 190.46 3.79423C190.317 4.25617 190.158 4.73405 189.967 5.196H195.876V5.92874H189.648C189.282 6.7252 188.852 7.50573 188.31 8.22255L188.437 8.2544C188.437 8.2544 188.342 8.38184 188.214 8.39777V13.7818H187.466V9.25794C187.068 9.68803 186.622 10.0863 186.144 10.4367C186.048 10.2456 185.857 9.92697 185.729 9.75175C186.383 9.2898 186.956 8.71635 187.466 8.07918V7.99954H187.514C188.023 7.36237 188.453 6.64555 188.804 5.91281H186V5.18007H189.138C189.377 4.59069 189.584 3.98538 189.744 3.396L190.715 3.65086V3.66679ZM192.786 9.46502V12.8102H195.86V13.511H189.011V12.8102H192.021V9.46502H189.457V8.76414H192.021V6.51812L192.993 6.58184C192.993 6.58184 192.929 6.70927 192.786 6.7252V8.74821H195.414V9.44909H192.786V9.46502Z" fill="#231815"/>
<path d="M208.253 5.1479H199.604V7.82401C199.604 9.57622 199.46 12.1249 198.521 13.8293C198.393 13.7019 198.075 13.4789 197.899 13.4152C198.791 11.7904 198.887 9.49658 198.887 7.82401V4.46295H203.108V3.41162L204.096 3.47534C204.096 3.47534 204.032 3.60277 203.873 3.63463V4.46295H208.238V5.1479H208.253ZM208.317 11.7585V12.4116H204.335V13.7975H203.602V12.4116H199.763V11.7585H203.602V10.9143H200.703V7.50543H203.602V6.70897H200.257V6.10366H203.602V5.22755L204.542 5.29127C204.542 5.29127 204.478 5.4187 204.335 5.43463V6.08773H207.967V6.69304H204.335V7.4895H207.345V10.8983H204.335V11.7426H208.317V11.7585ZM201.388 8.04702V8.95498H203.602V8.04702H201.388ZM201.388 10.3886H203.602V9.46472H201.388V10.3886ZM206.645 8.04702H204.335V8.95498H206.645V8.04702ZM206.645 10.3886V9.46472H204.335V10.3886H206.645Z" fill="#231815"/>
<path d="M212.937 6.12001C212.841 5.80143 212.618 5.32355 212.395 4.92532H211.853C211.535 5.38727 211.184 5.83328 210.834 6.15187C210.706 6.02443 210.436 5.84921 210.276 5.75364C210.898 5.21205 211.519 4.27222 211.885 3.36426L212.745 3.65098C212.745 3.65098 212.634 3.74656 212.506 3.73063C212.427 3.90585 212.331 4.097 212.236 4.28815H215.31V4.90939H213.144C213.351 5.25983 213.542 5.64213 213.622 5.897L212.937 6.10408V6.12001ZM220.614 4.30408V4.92532H218.018C218.289 5.25983 218.528 5.6262 218.655 5.91293L217.986 6.15187C217.843 5.81735 217.524 5.32355 217.19 4.94125H216.218C215.995 5.22797 215.756 5.49877 215.517 5.73771L216.011 5.76957C216.011 5.76957 215.947 5.897 215.804 5.91293V6.61382H220.248V8.71647H219.515V7.2032H211.487V8.71647H210.77V6.61382H215.071V5.96072C214.912 5.86514 214.705 5.73771 214.561 5.65806C215.262 5.14833 215.947 4.28815 216.313 3.36426L217.19 3.63505C217.19 3.63505 217.094 3.73063 216.951 3.73063C216.855 3.92178 216.76 4.11293 216.648 4.30408H220.614ZM213.096 10.166V11.0103H219.324V13.766H218.575V13.3997H213.096V13.7979H212.363V7.9678H218.607V10.182H213.08L213.096 10.166ZM217.875 8.54125H213.096V9.57665H217.875V8.54125ZM218.56 11.6156H213.08V12.7943H218.56V11.6156Z" fill="#231815"/>
<path d="M224.836 8.06268V10.8344L226.349 10.3883C226.349 10.3883 226.365 10.5158 226.445 11.0414C225.155 11.4556 223.785 11.9016 222.925 12.1565C222.925 12.2521 222.845 12.2999 222.781 12.3317L222.479 11.5034C222.94 11.3919 223.498 11.2326 224.119 11.0574V8.07861H222.733V7.37773H224.119V4.86091H222.622V4.1441H226.302V4.86091H224.836V7.37773H226.19V8.07861H224.836V8.06268ZM229.901 12.7299H233.024V13.4308H225.855V12.7299H229.201V11.0096H226.588V10.3246H229.201V9.01844H226.652V4.06445H232.514V9.01844H229.901V10.3246H232.673V11.0096H229.901V12.7299ZM227.337 4.71755V6.2149H229.201V4.71755H227.337ZM227.337 8.34941H229.201V6.83613H227.337V8.34941ZM231.813 6.19897V4.70162H229.901V6.19897H231.813ZM231.813 8.34941V6.83613H229.901V8.34941H231.813Z" fill="#231815"/>
<path d="M234.998 4.16016H244.97V4.87697H240.318V6.19909H242.692V11.2805H237.228V6.19909H239.554V4.87697H234.998V4.16016ZM243.918 12.3318V6.08759L244.874 6.15131C244.874 6.15131 244.81 6.27874 244.667 6.3106V13.7655H243.934V13.0646H236.097V13.7973H235.364V6.08759L236.32 6.15131C236.32 6.15131 236.256 6.27874 236.113 6.3106V12.3637H243.95L243.918 12.3318ZM237.865 6.83626V8.41325H239.602V6.83626H237.865ZM237.865 9.01856V10.6115H239.602V9.01856H237.865ZM242.023 8.39732V6.82033H240.271V8.39732H242.023ZM242.023 10.6115V9.01856H240.271V10.6115H242.023Z" fill="#231815"/>
<path d="M257.267 4.9092H252.632C252.632 4.9092 252.568 4.9092 252.536 4.9092C252.441 5.33929 252.281 5.89681 252.122 6.39061H256.757V13.7658H255.993V13.1605H248.57V13.7658H247.837V6.40654H251.357C251.485 5.96052 251.612 5.38707 251.708 4.9092H247.264V4.19238H257.251V4.9092H257.267ZM248.57 7.10743V12.4756H250.418V7.10743H248.57ZM253.317 8.44548V7.10743H251.103V8.44548H253.317ZM253.317 10.4366V9.06672H251.103V10.4366H253.317ZM251.103 11.0579V12.4756H253.317V11.0579H251.103ZM255.977 12.4756V7.10743H254.002V12.4756H255.977Z" fill="#231815"/>
<path d="M263.05 5.59375V13.7814H259.339V13.192H262.477V5.59375H263.05Z" fill="#231815"/>
<path d="M171.76 19.596C171.76 19.596 171.633 19.7234 171.505 19.7234C171.362 20.1854 171.203 20.6632 171.012 21.1252H176.921V21.8579H170.693C170.327 22.6544 169.897 23.4349 169.355 24.1517L169.482 24.1836C169.482 24.1836 169.387 24.311 169.259 24.327V29.711H168.511V25.1871C168.112 25.6172 167.666 26.0155 167.189 26.3659C167.093 26.1748 166.902 25.8562 166.774 25.6809C167.428 25.219 168.001 24.6455 168.511 24.0084V23.9287H168.558C169.068 23.2916 169.498 22.5748 169.849 21.842H167.045V21.1093H170.183C170.422 20.5199 170.629 19.9146 170.789 19.3252L171.76 19.5801V19.596ZM173.831 25.3942V28.7394H176.905V29.4402H170.056V28.7394H173.066V25.3942H170.502V24.6933H173.066V22.4473L174.038 22.511C174.038 22.511 173.974 22.6385 173.831 22.6544V24.6774H176.459V25.3783H173.831V25.3942Z" fill="#231815"/>
<path d="M190.207 21.0771H181.557V23.7532C181.557 25.5054 181.414 28.0541 180.474 29.7585C180.346 29.6311 180.028 29.4081 179.853 29.3444C180.745 27.7196 180.84 25.4258 180.84 23.7532V20.3921H185.061V19.3408L186.049 19.4045C186.049 19.4045 185.985 19.532 185.826 19.5638V20.3921H190.191V21.0771H190.207ZM190.27 27.6877V28.3408H186.288V29.7267H185.555V28.3408H181.716V27.6877H185.555V26.8435H182.656V23.4346H185.555V22.6382H182.21V22.0329H185.555V21.1568L186.495 21.2205C186.495 21.2205 186.431 21.3479 186.288 21.3638V22.0169H189.92V22.6222H186.288V23.4187H189.299V26.8275H186.288V27.6718H190.27V27.6877ZM183.341 23.9762V24.8842H185.555V23.9762H183.341ZM183.341 26.3178H185.555V25.3939H183.341V26.3178ZM188.598 23.9762H186.288V24.8842H188.598V23.9762ZM188.598 26.3178V25.3939H186.288V26.3178H188.598Z" fill="#231815"/>
<path d="M195.558 24.3268V22.8614C194.984 23.5463 194.236 24.1994 193.503 24.5976C193.407 24.4224 193.232 24.1676 193.089 24.0242C193.917 23.6737 194.825 22.9251 195.351 22.1445H193.153V21.5074H195.558V19.3729L196.466 19.4366C196.466 19.4366 196.402 19.564 196.259 19.5799V21.5233H198.616V22.1605H196.259V22.4153C196.721 22.6861 197.915 23.4507 198.218 23.6737L197.788 24.2153C197.517 23.9605 196.8 23.403 196.275 23.0047V24.3268H195.574H195.558ZM198.664 26.0791H197.661C197.485 26.764 197.23 27.3534 196.864 27.8472C197.374 28.118 197.82 28.3888 198.154 28.6437L197.661 29.2012C197.326 28.9304 196.88 28.6596 196.386 28.3888C195.733 28.9782 194.841 29.4083 193.615 29.7109C193.551 29.5038 193.407 29.233 193.264 29.0737C194.331 28.8667 195.128 28.5322 195.733 28.0384C195.303 27.8313 194.873 27.6242 194.443 27.449L194.22 27.8472L193.567 27.6083C193.806 27.1941 194.108 26.6525 194.411 26.0791H193.153V25.426H194.746C194.921 25.0596 195.096 24.6932 195.255 24.3587L196.131 24.5499C196.131 24.5499 196.036 24.6614 195.892 24.6454C195.781 24.8844 195.653 25.1392 195.526 25.41H198.696V26.0631L198.664 26.0791ZM194.188 19.6755C194.522 20.1375 194.841 20.7428 194.969 21.1569L194.379 21.4437C194.268 21.0454 193.949 20.4083 193.615 19.9304L194.188 19.6755ZM195.176 26.0791C195.032 26.3499 194.889 26.6366 194.746 26.9074C195.239 27.0985 195.749 27.3056 196.227 27.5286C196.546 27.1304 196.769 26.6525 196.928 26.0791H195.176ZM196.737 21.1729C197.039 20.7746 197.422 20.1056 197.645 19.6596L198.425 20.01C198.425 20.01 198.298 20.0897 198.202 20.0897C197.963 20.4879 197.565 21.0614 197.246 21.4437L196.737 21.1729ZM203.507 22.1605H202.758C202.487 24.0083 202.057 25.5375 201.356 26.764C201.93 27.7835 202.662 28.5799 203.602 29.0737C203.427 29.233 203.188 29.5038 203.061 29.7268C202.169 29.2012 201.468 28.4366 200.894 27.4808C200.209 28.4207 199.333 29.1693 198.17 29.7268C198.091 29.5516 197.899 29.233 197.756 29.0897C198.951 28.5481 199.843 27.7676 200.496 26.7322C200.034 25.7764 199.7 24.6932 199.429 23.4985C199.206 24.0083 198.967 24.4702 198.696 24.8525C198.568 24.7091 198.298 24.4861 198.123 24.3746C198.919 23.2596 199.476 21.3003 199.811 19.3569L200.767 19.564C200.751 19.6437 200.671 19.6914 200.528 19.6914C200.416 20.2808 200.289 20.8861 200.13 21.4596H203.507V22.1605ZM199.938 22.1605L199.907 22.272C200.13 23.61 200.464 24.8525 200.942 25.9357C201.452 24.8844 201.77 23.626 202.009 22.1445H199.938V22.1605Z" fill="#231815"/>
<path d="M213.207 21.7938C212.251 22.1283 210.993 22.3354 209.782 22.431C209.32 24.9796 208.635 27.5283 207.743 29.4079L206.947 29.1053C207.855 27.3053 208.524 24.9956 208.97 22.4628C208.747 22.4628 207.25 22.4787 206.915 22.4628V21.6982C207.074 21.6982 207.313 21.6982 207.568 21.6982C207.664 21.6982 208.779 21.6982 209.081 21.6982C209.193 20.9814 209.304 20.2009 209.368 19.5159L210.515 19.6274C210.515 19.7549 210.356 19.8345 210.196 19.8504C210.133 20.3442 210.021 20.9495 209.926 21.6186C211.025 21.523 212.124 21.3318 213.048 20.9973L213.223 21.7619L213.207 21.7938ZM216.186 29.169C215.756 29.2009 215.278 29.2327 214.832 29.2327C213.924 29.2327 213.048 29.1531 212.506 29.0097C211.71 28.7867 211.264 28.2133 211.264 27.4646C211.264 26.9708 211.487 26.4133 211.949 25.8398L212.618 26.1265C212.219 26.5885 212.044 27.0186 212.044 27.369C212.044 28.2451 212.889 28.4522 214.704 28.4522C215.198 28.4522 215.708 28.4363 216.154 28.3885V29.169H216.186ZM211.853 23.8487C213 23.4823 214.593 23.2433 215.899 23.2752V24.0398C214.641 24.0079 213.175 24.1832 212.044 24.5495L211.853 23.8487ZM213.812 19.9779C214.354 20.3761 215.023 21.0292 215.358 21.4911L214.943 21.8416C214.625 21.3637 213.924 20.6787 213.43 20.3124L213.796 19.9619L213.812 19.9779ZM215.246 19.2451C215.788 19.6433 216.457 20.2646 216.791 20.7584L216.377 21.1088C216.058 20.6787 215.405 19.9938 214.88 19.5956L215.246 19.2451Z" fill="#231815"/>
<path d="M221.809 20.2487C221.793 20.3443 221.682 20.4239 221.523 20.4398C221.204 21.8416 220.949 23.8009 220.949 25.0434C220.949 25.808 220.981 26.477 221.061 26.923C221.3 26.4133 221.857 25.362 222.192 24.7089L222.701 25.2345C221.889 26.6841 221.379 27.608 221.379 28.054C221.379 28.1814 221.411 28.3248 221.475 28.5159L220.694 28.6752C220.408 27.8788 220.185 26.6363 220.185 25.0752C220.185 23.6416 220.423 21.7301 220.742 20.0735L221.825 20.2487H221.809ZM223.466 22.7814C224.358 22.7814 225.68 22.7655 226.477 22.7018C226.413 21.4115 226.333 19.8664 226.301 19.6274L227.448 19.6752C227.448 19.8027 227.321 19.8982 227.146 19.9301C227.162 20.5354 227.225 21.6823 227.273 22.654C228.038 22.5903 228.85 22.4788 229.455 22.3035L229.535 23.1C228.914 23.2274 228.117 23.3389 227.289 23.4027C227.289 23.4664 227.289 23.6416 227.289 24.3106C227.289 26.7159 226.747 28.4204 224.597 29.5035C224.501 29.3761 224.183 29.0735 223.992 28.946C226.062 27.9425 226.493 26.477 226.493 24.3743V23.4504C225.728 23.4982 224.454 23.5301 223.466 23.5301V22.7814Z" fill="#231815"/>
<path d="M233.183 20.8541C234.027 20.8222 240.892 20.3284 242.342 20.3125V21.1567C242.214 21.1567 242.071 21.1567 241.944 21.1567C241.291 21.1567 240.749 21.2683 240.032 21.7302C238.36 22.7337 236.735 24.5337 236.735 25.9674C236.735 27.5284 237.834 28.4523 240.59 28.8187L240.223 29.5992C237.053 29.1373 235.875 27.9585 235.875 25.9674C235.875 24.3904 237.42 22.4789 239.475 21.2045C238.248 21.3001 234.951 21.539 233.517 21.6665C233.485 21.7461 233.358 21.8258 233.278 21.8417L233.183 20.8541ZM240.414 23.0523C240.956 23.4506 241.593 24.1036 241.928 24.5975L241.498 24.9479C241.179 24.4541 240.51 23.7691 240.032 23.4028L240.414 23.0683V23.0523ZM241.625 22.0647C242.167 22.4629 242.82 23.116 243.138 23.6098L242.708 23.9444C242.406 23.4983 241.753 22.8134 241.243 22.3992L241.625 22.0647Z" fill="#231815"/>
<path d="M250.163 19.6753C250.131 19.7709 250.02 19.8505 249.813 19.8664C249.733 20.3602 249.637 20.9337 249.526 21.3797C250.625 21.316 251.836 21.1248 252.807 20.8381L252.935 21.5868C251.899 21.8417 250.673 22.0169 249.383 22.1284C248.841 24.2629 248.108 26.0151 247.025 27.624L246.276 27.3213C247.296 25.8558 248.06 24.1832 248.538 22.1602H246.324V21.4275H247.646C247.997 21.4275 248.347 21.4275 248.666 21.4275C248.793 20.8381 248.905 20.2009 248.984 19.5479L250.163 19.7071V19.6753ZM253.126 24.4222C253.126 25.3302 253.206 25.9355 253.269 26.716C253.986 27.0027 254.91 27.4806 255.643 28.0063L255.244 28.7231C254.623 28.2611 253.875 27.8151 253.269 27.5602C253.269 28.6753 252.823 29.5514 251.183 29.5514C249.94 29.5514 249 28.9939 249 27.9425C249 26.8275 250.179 26.2859 251.198 26.2859C251.597 26.2859 252.011 26.3656 252.457 26.493C252.409 25.7762 252.361 25.0594 252.361 24.5337L253.126 24.4381V24.4222ZM252.505 27.2098C252.043 27.0346 251.581 26.9549 251.183 26.9549C250.514 26.9549 249.717 27.2257 249.717 27.9107C249.717 28.5479 250.338 28.8505 251.214 28.8505C252.011 28.8505 252.537 28.4682 252.537 27.7195C252.537 27.5443 252.537 27.3691 252.537 27.2098H252.505ZM255.563 23.2753C254.305 23.2753 252.775 23.4824 251.613 23.8169L251.485 23.116C252.76 22.7496 254.289 22.5107 255.515 22.5107L255.563 23.2594V23.2753Z" fill="#231815"/>
<path d="M266.045 29.6148C264.915 28.2927 263.178 26.652 261.665 25.4573C261.107 25.0113 260.9 24.6927 260.9 24.2944C260.9 23.9759 261.076 23.6573 261.49 23.275C262.509 22.3352 264.405 20.5352 265.488 19.436L266.444 20.0573C266.444 20.0573 266.348 20.1688 266.205 20.1688C266.157 20.1688 266.109 20.1688 266.077 20.1528C264.962 21.2201 263.226 22.7334 262.302 23.5936C262.031 23.8484 261.824 24.0714 261.824 24.2467C261.824 24.4378 262.031 24.6608 262.414 24.9475C263.879 26.0785 265.456 27.5281 266.826 28.9936L266.061 29.5829L266.045 29.6148Z" fill="#231815"/>
<path d="M271.859 26.6362C272.687 27.2893 273.77 28.4044 274.376 29.1053L273.707 29.7265C273.149 29.0097 272.018 27.8468 271.27 27.1619L271.859 26.6362Z" fill="#231815"/>
<path d="M285.526 27.3853C285.526 27.3853 285.43 27.4809 285.303 27.4809C285.032 28.2933 284.554 29.1694 284.045 29.711C283.917 29.5836 283.646 29.3924 283.503 29.2968C283.997 28.803 284.427 27.9747 284.682 27.1145L285.542 27.3694L285.526 27.3853ZM287.421 19.7871V26.8597H284.045V19.7871H287.421ZM286.721 21.9376V20.4243H284.729V21.9376H286.721ZM286.721 24.088V22.5429H284.729V24.088H286.721ZM286.721 26.2384V24.6933H284.729V26.2384H286.721ZM286.944 28.8668C286.8 28.4685 286.45 27.8473 286.147 27.4013L286.737 27.1305C287.055 27.5765 287.422 28.1659 287.581 28.5482L286.944 28.8668ZM292.981 22.7818L293.411 22.9092C293.411 22.9092 293.363 23.0048 293.347 23.0367C293.108 24.9322 292.567 26.3818 291.802 27.4809C292.391 28.1659 293.124 28.7234 294 29.0738C293.841 29.2172 293.602 29.488 293.506 29.6791C292.662 29.2809 291.945 28.7393 291.372 28.0544C290.735 28.7871 289.97 29.3128 289.126 29.711C289.03 29.5358 288.839 29.2331 288.68 29.1057C289.54 28.7712 290.305 28.2296 290.926 27.465C290.257 26.4774 289.779 25.2508 289.46 23.8331L290.082 23.6898C290.352 24.9004 290.767 25.9836 291.372 26.8756C291.945 25.9836 292.36 24.8685 292.583 23.4827H289.126V23.9606C289.126 25.7128 288.983 28.1181 287.899 29.7269C287.772 29.5995 287.469 29.3765 287.294 29.2968C288.329 27.7676 288.425 25.6013 288.425 23.9606V19.8508H293.841V20.5517H289.126V22.8137H292.869L292.997 22.7818H292.981Z" fill="#231815"/>
<path d="M171.042 41.3867C171.042 41.3867 170.946 41.53 170.819 41.5459C170.58 43.569 170.038 44.9389 167.33 45.6557C167.251 45.4486 167.044 45.1619 166.9 45.0185C169.417 44.4132 169.895 43.2504 170.07 41.2911L171.042 41.3707V41.3867ZM171.568 38.3601V37.1654H167.06V36.4645H171.568V35.2539L172.555 35.3176C172.555 35.3176 172.476 35.4451 172.332 35.4769V36.4645H176.936V37.1654H172.332V38.3601H175.884V39.0451H168.111V38.3601H171.552H171.568ZM176.569 42.1353H175.821V40.7017H168.127V42.1353H167.394V40.0167H176.569V42.1353ZM173.638 44.3495C173.638 44.6681 173.718 44.7159 174.18 44.7159H175.757C176.187 44.7159 176.251 44.5088 176.299 43.2026C176.458 43.33 176.777 43.4415 176.984 43.5052C176.888 45.0185 176.665 45.4008 175.821 45.4008H174.132C173.161 45.4008 172.906 45.1778 172.906 44.3495V41.2751L173.877 41.3389C173.877 41.3389 173.798 41.4663 173.654 41.4982V44.3495H173.638Z" fill="#231815"/>
<path d="M183.946 35.8436C183.946 35.8436 183.819 35.9551 183.676 35.9392C182.895 37.7073 181.605 39.348 180.187 40.3516C180.06 40.2082 179.789 39.9533 179.598 39.81C180.983 38.8702 182.258 37.2613 182.991 35.5091L183.946 35.8277V35.8436ZM187.849 39.571H188.024L188.454 39.6029C188.454 39.6825 188.454 39.7781 188.454 39.8737C188.279 43.4737 188.104 44.764 187.722 45.194C187.403 45.5445 187.068 45.5923 186.399 45.5923C186.017 45.5923 185.539 45.5923 185.061 45.5445C185.061 45.3215 184.95 45.0029 184.822 44.7958C185.587 44.8595 186.304 44.8755 186.575 44.8755C186.814 44.8755 186.941 44.8595 187.053 44.7321C187.339 44.4454 187.514 43.2825 187.674 40.3038H184.599C184.297 42.4542 183.676 44.6206 180.681 45.6879C180.585 45.4967 180.378 45.21 180.203 45.0507C182.895 44.1427 183.532 42.279 183.803 40.3038H181.398V39.571H187.865H187.849ZM186.861 35.4932C187.594 37.0383 189.06 38.7587 190.302 39.6029C190.095 39.7622 189.824 40.0648 189.681 40.2719C188.438 39.2843 186.989 37.4525 186.16 35.7799L186.877 35.4932H186.861Z" fill="#231815"/>
<path d="M195.383 39.5394C195.765 39.9535 196.753 41.1482 196.976 41.4509L196.498 42.0562C196.291 41.6898 195.797 40.9571 195.383 40.3995V45.6084H194.65V40.0013C194.22 41.3553 193.615 42.6933 192.993 43.4898C192.898 43.2827 192.707 42.996 192.579 42.8048C193.36 41.8332 194.156 40.0172 194.538 38.4243H192.85V37.7075H194.65V35.2544L195.59 35.3181C195.59 35.3181 195.526 35.4455 195.383 35.4615V37.7075H196.96V38.4243H195.383V39.5234V39.5394ZM203.108 39.1571V39.8739H201.388V45.6402H200.655V39.8739H198.489C198.441 41.6261 198.17 43.904 196.912 45.5924C196.816 45.4172 196.53 45.1942 196.338 45.0986C197.613 43.4101 197.74 41.1163 197.74 39.396V36.2261L198.393 36.4172C199.699 36.1624 201.101 35.7801 201.93 35.3978L202.63 36.019C202.63 36.019 202.567 36.0668 202.407 36.0668C201.452 36.4332 199.891 36.8155 198.473 37.0703V39.1571H203.092H203.108Z" fill="#231815"/>
<path d="M212.969 37.5958C213.097 37.5958 213.192 37.5798 213.304 37.5798C214.514 37.5798 215.725 38.3126 215.725 39.8099C215.725 41.3073 214.738 42.1037 213.208 42.1037C212.555 42.1037 211.679 41.8648 210.978 41.3073C211.058 41.132 211.137 40.8453 211.201 40.6382C211.854 41.148 212.619 41.371 213.208 41.371C214.26 41.371 214.913 40.7975 214.913 39.794C214.913 38.9657 214.339 38.3126 213.161 38.3126C212.221 38.3126 210.755 38.7904 209.497 39.2365C210.022 41.0046 210.739 43.5533 211.169 45.2258L210.309 45.417C209.959 43.8081 209.226 41.1639 208.748 39.5073C208.031 39.7621 207.028 40.0966 206.422 40.3196C206.422 40.4152 206.327 40.5267 206.231 40.5586L205.881 39.6666C206.598 39.4435 207.729 39.0772 208.541 38.7904C208.207 37.6595 207.888 36.64 207.697 36.0028L208.844 35.7958C208.844 35.9391 208.796 36.0028 208.605 36.0984C208.844 36.9586 209.051 37.6754 209.29 38.5356C210.5 38.1214 211.631 37.755 212.507 37.6276C211.998 37.0542 211.122 36.3055 210.516 35.9391L211.026 35.4453C211.775 35.8754 212.762 36.7037 213.288 37.3409L212.969 37.5958Z" fill="#231815"/>
<path d="M224.278 41.7213L224.676 45.2257L223.879 45.3213L223.481 41.8328L219.292 42.3744L219.196 41.6417L223.402 41.1001L223.115 38.5992L219.61 39.0611L219.515 38.3125L223.035 37.8664L222.796 35.6523L223.895 35.6045C223.895 35.716 223.8 35.7956 223.641 35.8434L223.848 37.739L227.241 37.293L227.336 38.0576L223.943 38.4877L224.23 40.9886L228.419 40.4629L228.515 41.1956L224.294 41.7372L224.278 41.7213Z" fill="#231815"/>
<path d="M240.511 39.3479C240.511 39.3479 240.431 39.4116 240.384 39.4275C239.938 40.5744 239.173 41.6894 238.377 42.5178C238.249 42.3903 237.994 42.247 237.819 42.1355C238.472 41.5461 239.173 40.5107 239.492 39.762L236.37 40.447L237.389 45.2098L236.736 45.3532L235.716 40.5903L233.168 41.1638L233.024 40.5425L235.589 39.9691L235.095 37.6434L236.019 37.5479C236.019 37.6434 235.971 37.7071 235.812 37.7709L236.242 39.7939L239.906 38.9974L239.985 38.9337L240.511 39.3001V39.3479Z" fill="#231815"/>
<path d="M245.958 36.4966C247.121 36.863 248.459 37.4523 249.287 38.0099L248.857 38.7107C248.061 38.1373 246.739 37.5479 245.592 37.1656L245.942 36.4966H245.958ZM245.91 44.2222C249.877 42.9957 252.505 40.7815 253.843 37.6913C254.082 37.8824 254.337 38.0258 254.576 38.1532C253.174 41.2116 250.466 43.5851 246.675 44.8435C246.675 44.9391 246.595 45.0506 246.516 45.0984L245.91 44.2222Z" fill="#231815"/>
<path d="M257.555 41.1002C258.399 40.2081 260.167 38.2489 260.804 37.5639C261.091 37.2772 261.378 37.1338 261.68 37.1338C261.983 37.1338 262.286 37.2931 262.588 37.5639C264.022 38.886 266.348 41.4666 268.036 43.6489L267.367 44.2542C265.79 42.0559 263.449 39.4117 262.206 38.2489C262.015 38.0736 261.871 37.9621 261.728 37.9621C261.585 37.9621 261.441 38.0736 261.266 38.2489C260.741 38.8223 259.116 40.686 258.367 41.4984C258.367 41.5143 258.367 41.5621 258.367 41.5781C258.367 41.6736 258.319 41.7533 258.256 41.817L257.571 41.1002H257.555ZM266.013 35.4453C266.698 35.4453 267.256 36.0028 267.256 36.7037C267.256 37.4046 266.698 37.9462 266.013 37.9462C265.328 37.9462 264.755 37.3887 264.755 36.7037C264.755 36.0188 265.328 35.4453 266.013 35.4453ZM266.889 36.7037C266.889 36.2099 266.491 35.8117 266.013 35.8117C265.535 35.8117 265.121 36.2099 265.121 36.7037C265.121 37.1975 265.519 37.5798 266.013 37.5798C266.507 37.5798 266.889 37.1497 266.889 36.7037Z" fill="#231815"/>
<path d="M271.03 39.8574H280.349V40.6539H271.46C271.397 40.7654 271.253 40.845 271.11 40.861L271.046 39.8574H271.03Z" fill="#231815"/>
<path d="M284.872 36.4971C286.035 36.8634 287.373 37.4528 288.201 38.0103L287.771 38.7112C286.975 38.1378 285.653 37.5484 284.506 37.1661L284.856 36.4971H284.872ZM284.824 44.2227C288.791 42.9962 291.419 40.782 292.757 37.6918C292.996 37.8829 293.251 38.0263 293.49 38.1537C292.088 41.2121 289.38 43.5856 285.589 44.844C285.589 44.9395 285.509 45.0511 285.43 45.0988L284.824 44.2227Z" fill="#231815"/>
<path d="M167.953 53.4774C167.953 54.465 167.762 55.6756 167.3 56.3924C166.886 56.1535 166.822 56.1057 166.742 56.0739C167.14 55.4685 167.316 54.3216 167.348 53.3818L167.953 53.4774ZM168.383 51.1836L169.339 51.2473C169.339 51.2473 169.275 51.3747 169.132 51.3907V61.5376H168.399V51.1836H168.383ZM170.103 54.7995C169.944 54.3694 169.609 53.6686 169.307 53.1588L169.817 52.904C170.135 53.3978 170.501 54.0668 170.645 54.4809L170.103 54.7995ZM174.022 54.9429H177.128V55.5801H170.215V54.9429H173.225V54.1305H171.043V53.557H173.225V52.7924H170.597V52.1871H173.225V51.1836L174.229 51.2473C174.229 51.2473 174.165 51.3747 174.006 51.4066V52.1871H176.73V52.7924H174.006V53.557H176.268V54.1305H174.006V54.9429H174.022ZM176.125 56.3287V60.757C176.125 61.4898 175.838 61.5694 174.277 61.5694C174.245 61.3783 174.149 61.1075 174.038 60.9163C174.356 60.9163 174.643 60.9323 174.85 60.9323C175.312 60.9323 175.36 60.9323 175.36 60.757V59.7694H171.887V61.5376H171.155V56.3287H176.093H176.125ZM175.376 56.934H171.903V57.7783H175.376V56.934ZM171.903 59.1801H175.376V58.3358H171.903V59.1801Z" fill="#231815"/>
<path d="M182.736 52.9833V54.2417H184.982V54.8948H179.805V54.2417H182.035V52.9833H180.251V52.3302H182.035V51.1992L182.943 51.2629C182.943 51.2629 182.879 51.3904 182.736 51.4063V52.3302H184.504V52.9833H182.736ZM182.927 56.6789C183.166 56.2328 183.452 55.5001 183.596 55.0222L184.392 55.293C184.392 55.293 184.281 55.3886 184.153 55.3886C183.978 55.7709 183.691 56.3762 183.437 56.7744H184.775V57.4275H182.72V58.7178H184.631V59.3709H182.72V61.5691H182.019V59.3709H180.107V58.7178H182.019V57.4275H179.948V56.7744H183.118L182.911 56.6789H182.927ZM181.095 56.6948C181.047 56.2966 180.824 55.6435 180.585 55.1497L181.159 54.9904C181.398 55.4682 181.621 56.1054 181.7 56.5036L181.095 56.6948ZM189.283 55.9621L189.744 56.1373C189.744 56.1373 189.697 56.2328 189.665 56.2806C189.458 57.4594 189.044 58.6382 188.438 59.6417C188.932 60.1992 189.506 60.6452 190.127 60.932C189.952 61.0913 189.713 61.378 189.601 61.5851C188.996 61.2665 188.47 60.8205 187.992 60.2789C187.61 60.7408 187.196 61.155 186.686 61.4895C186.559 61.3143 186.352 61.1072 186.176 60.9798C186.702 60.6293 187.164 60.1833 187.53 59.6576C186.989 58.893 186.559 57.9691 186.272 57.0134L186.877 56.8541C187.116 57.6187 187.498 58.3674 187.944 59.0205C188.359 58.2877 188.645 57.4753 188.821 56.6629H185.969V61.5851H185.252V51.7408H189.585V54.5444C189.585 55.3408 189.187 55.3408 187.674 55.3408C187.658 55.1497 187.546 54.8789 187.451 54.6877C187.737 54.6877 188.024 54.6877 188.231 54.6877C188.852 54.6877 188.884 54.6877 188.884 54.5125V52.4098H185.969V55.9939H189.123L189.251 55.9621H189.283Z" fill="#231815"/>
<path d="M197.056 51.5337C197.024 51.6293 196.912 51.7089 196.705 51.7248C196.626 52.2186 196.53 52.7921 196.419 53.2381C197.518 53.1744 198.728 52.9832 199.7 52.6965L199.827 53.4452C198.792 53.7001 197.565 53.8753 196.275 53.9868C195.734 56.1213 195.001 57.8735 193.918 59.4824L193.169 59.1797C194.188 57.7142 194.953 56.0416 195.431 54.0186H193.217V53.2859H194.539C194.889 53.2859 195.24 53.2859 195.558 53.2859C195.686 52.6965 195.797 52.0593 195.877 51.4062L197.056 51.5655V51.5337ZM200.019 56.2806C200.019 57.1886 200.098 57.7939 200.162 58.5744C200.879 58.8611 201.803 59.339 202.535 59.8647L202.137 60.5815C201.516 60.1195 200.767 59.6735 200.162 59.4186C200.162 60.5337 199.716 61.4098 198.075 61.4098C196.833 61.4098 195.893 60.8523 195.893 59.8009C195.893 58.6859 197.072 58.1443 198.091 58.1443C198.489 58.1443 198.903 58.2239 199.349 58.3514C199.302 57.6346 199.254 56.9178 199.254 56.3921L200.019 56.2965V56.2806ZM199.397 59.0682C198.935 58.893 198.473 58.8133 198.075 58.8133C197.406 58.8133 196.61 59.0841 196.61 59.7691C196.61 60.4062 197.231 60.7089 198.107 60.7089C198.903 60.7089 199.429 60.3266 199.429 59.5779C199.429 59.4027 199.429 59.2275 199.429 59.0682H199.397ZM202.456 55.1337C201.197 55.1337 199.668 55.3408 198.505 55.6753L198.378 54.9744C199.652 54.608 201.181 54.3691 202.408 54.3691L202.456 55.1178V55.1337Z" fill="#231815"/>
<path d="M214.419 55.1657C214.419 55.1657 214.355 55.1657 214.323 55.1657C214.244 55.1657 214.164 55.1498 214.084 55.102C210.771 56.0737 207.776 57.5392 207.776 59.0365C207.776 60.1038 208.955 60.4701 210.771 60.4701C212.587 60.4701 213.941 60.3427 214.721 60.2153L214.785 61.0276C213.766 61.1551 212.093 61.2347 210.787 61.2347C208.573 61.2347 206.964 60.725 206.964 59.0843C206.964 57.8896 208.143 56.8383 209.895 55.9462C209.513 55.2613 209.385 53.971 209.385 51.4542L210.612 51.5498C210.612 51.6931 210.484 51.7887 210.261 51.8206C210.261 53.7639 210.325 54.9905 210.628 55.5958C211.679 55.102 212.874 54.656 214.116 54.2577L214.403 55.1816L214.419 55.1657ZM212.985 51.6772C213.559 52.1869 214.1 52.8082 214.403 53.3338L213.925 53.6524C213.638 53.1427 213.128 52.4737 212.555 51.9958L212.985 51.6772ZM214.482 51.04C215.056 51.5498 215.566 52.1392 215.884 52.6967L215.422 53.0153C215.104 52.4737 214.61 51.8684 214.068 51.3905L214.498 51.056L214.482 51.04Z" fill="#231815"/>
<path d="M225.234 57.3164C224.517 57.396 223.498 57.4438 222.574 57.4438C222.542 57.842 222.51 58.2721 222.51 58.4792C222.51 60.2633 223.689 60.4066 224.724 60.4066C226.476 60.4066 227.353 59.9128 227.353 58.8774C227.353 58.288 227.034 57.5712 226.445 56.8225C226.652 56.7588 226.986 56.6314 227.161 56.5358C227.846 57.4119 228.181 58.2721 228.181 58.9889C228.181 60.8686 226.078 61.1394 224.74 61.1394C223.673 61.1394 221.746 61.0597 221.746 58.4633C221.746 57.9535 221.793 57.5872 221.809 57.396C220.869 57.3641 219.372 57.3004 219.372 56.1535C219.372 55.6597 219.659 55.1818 220.328 54.7199L220.917 55.0703C220.423 55.373 220.137 55.7394 220.137 56.042C220.137 56.6314 221.029 56.6473 221.873 56.6792C221.953 55.9305 222.048 55.0544 222.16 54.1783C221.363 54.0827 220.423 53.8597 219.818 53.573L220.025 52.8402C220.63 53.127 221.427 53.3341 222.255 53.4456C222.351 52.7447 222.43 52.0279 222.494 51.4385L223.657 51.5818C223.625 51.7093 223.498 51.7889 223.307 51.8048C223.227 52.2668 223.147 52.888 223.052 53.5252C223.37 53.5411 223.721 53.5571 224.071 53.5571C224.501 53.5571 224.931 53.5571 225.33 53.5093L225.298 54.242C224.963 54.2739 224.581 54.2739 224.199 54.2739C223.769 54.2739 223.322 54.2739 222.94 54.242C222.829 55.0863 222.733 55.9305 222.653 56.6951C223.53 56.6951 224.517 56.6314 225.25 56.5358V57.2845L225.234 57.3164Z" fill="#231815"/>
<path d="M241.514 51.7886V60.5815C241.514 61.5372 241.02 61.5691 239.189 61.5691C239.141 61.378 239.029 61.0275 238.902 60.8364C239.332 60.8364 239.746 60.8682 240.033 60.8682C240.686 60.8682 240.766 60.8682 240.766 60.5815V52.5054H232.912V61.585H232.18V51.7886H241.498H241.514ZM239.746 53.7479V54.401H233.996V53.7479H239.746ZM239.093 59.2116H235.27V60.0558H234.569V55.6434H239.093V59.1957V59.2116ZM238.376 56.3125H235.27V58.5585H238.376V56.3125Z" fill="#231815"/>
<path d="M244.828 51.9478H254.8V52.6646H250.148V53.9867H252.522V59.0681H247.058V53.9867H249.384V52.6646H244.828V51.9478ZM253.748 60.1194V53.8593L254.704 53.923C254.704 53.923 254.64 54.0504 254.497 54.0823V61.5371H253.764V60.8363H245.927V61.569H245.194V53.8752L246.15 53.9389C246.15 53.9389 246.087 54.0663 245.943 54.0982V60.1513H253.78L253.748 60.1194ZM247.695 54.6239V56.2009H249.432V54.6239H247.695ZM247.695 56.8062V58.3991H249.432V56.8062H247.695ZM251.853 56.1849V54.6079H250.101V56.1849H251.853ZM251.853 58.3991V56.8062H250.101V58.3991H251.853Z" fill="#231815"/>
<path d="M267.782 52.6966H263.147C263.147 52.6966 263.083 52.6966 263.051 52.6966C262.955 53.1267 262.796 53.6842 262.637 54.178H267.272V61.5532H266.508V60.9479H259.085V61.5532H258.352V54.178H261.872C262 53.732 262.127 53.1586 262.223 52.6807H257.778V51.9639H267.766V52.6807L267.782 52.6966ZM259.085 54.8948V60.263H260.932V54.8948H259.085ZM263.831 56.2329V54.8948H261.617V56.2329H263.831ZM263.831 58.224V56.8541H261.617V58.224H263.831ZM261.617 58.8453V60.263H263.831V58.8453H261.617ZM266.492 60.263V54.8948H264.516V60.263H266.492Z" fill="#231815"/>
<path d="M271.094 52.7125C271.938 52.6806 278.803 52.1868 280.253 52.1709V53.0152C280.126 53.0152 279.982 53.0152 279.855 53.0152C279.202 53.0152 278.66 53.1267 277.943 53.5886C276.271 54.5921 274.646 56.3921 274.646 57.8258C274.646 59.3868 275.745 60.3107 278.501 60.6771L278.134 61.4576C274.965 60.9957 273.786 59.8169 273.786 57.8258C273.786 56.2488 275.331 54.3373 277.386 53.0629C276.159 53.1585 272.862 53.3975 271.428 53.5249C271.396 53.6045 271.269 53.6842 271.189 53.7001L271.094 52.7125ZM278.326 54.9107C278.867 55.309 279.504 55.9621 279.839 56.4559L279.409 56.8063C279.09 56.3125 278.421 55.6275 277.943 55.2612L278.326 54.9267V54.9107ZM279.536 53.9231C280.078 54.3213 280.731 54.9744 281.05 55.4682L280.619 55.8028C280.317 55.3567 279.664 54.6718 279.154 54.2576L279.536 53.9231Z" fill="#231815"/>
<path d="M285.908 56.5515C286.37 56.4241 286.832 56.2967 287.294 56.1533L287.389 56.7905C286.896 56.9498 286.402 57.1091 285.924 57.2524V60.6294C285.924 61.5055 285.494 61.5693 283.996 61.5693C283.981 61.3781 283.869 61.0595 283.758 60.8365C283.996 60.8365 284.219 60.8365 284.427 60.8365C285.207 60.8365 285.207 60.8365 285.207 60.5976V57.4595L283.933 57.8418C283.933 57.9374 283.869 58.0011 283.789 58.017L283.519 57.1409C283.981 57.0294 284.57 56.8701 285.207 56.6949V54.194H283.63V53.4931H285.207V51.1675L286.147 51.2312C286.147 51.3268 286.083 51.3586 285.924 51.3905V53.5091H287.278V54.21H285.924V56.5197L285.908 56.5515ZM293.251 56.3445L293.65 56.4082C293.65 56.4082 293.65 56.5516 293.618 56.6312C293.427 59.7374 293.235 60.8524 292.885 61.2188C292.646 61.5055 292.375 61.5533 291.738 61.5533C291.451 61.5533 291.085 61.5533 290.719 61.5215C290.719 61.3144 290.623 61.0595 290.511 60.8684C291.085 60.9321 291.642 60.9321 291.85 60.9321C292.057 60.9321 292.168 60.9162 292.264 60.8047C292.519 60.5339 292.726 59.5462 292.885 57.0135H288.568C288.473 57.1569 288.361 57.3002 288.265 57.4436L288.727 57.4754C288.727 57.4754 288.664 57.6029 288.52 57.6188V58.4631C289.317 58.2082 290.177 57.9055 290.671 57.6188L291.228 58.1285C291.228 58.1285 291.165 58.1604 291.133 58.1604C291.101 58.1604 291.069 58.1604 291.021 58.1604C290.416 58.4471 289.412 58.7657 288.504 59.0046V59.5462C288.504 59.8011 288.568 59.8489 289.014 59.8489H290.591C290.926 59.8489 290.989 59.7533 291.021 59.0046C291.165 59.1002 291.435 59.2117 291.642 59.2436C291.563 60.2153 291.356 60.4542 290.671 60.4542H288.966C288.074 60.4542 287.851 60.2631 287.851 59.5303V57.9533C287.549 58.3038 287.23 58.6064 286.896 58.8613C286.784 58.7339 286.545 58.5108 286.386 58.3834C287.262 57.6985 288.122 56.5834 288.664 55.3728H287.676V51.5339H293.172V55.3728H289.635C289.588 55.4684 289.508 55.5002 289.396 55.5002C289.269 55.7869 289.11 56.0737 288.966 56.3763H293.076L293.235 56.3445H293.251ZM288.409 52.1232V53.1746H292.471V52.1232H288.409ZM288.409 53.7321V54.7993H292.471V53.7321H288.409Z" fill="#231815"/>
<path d="M173.862 70.2986C173.958 71.7163 174.149 73.0225 174.404 74.0739C175.025 73.1181 175.503 72.0508 175.854 70.9358L176.73 71.1747C176.73 71.1747 176.618 71.3022 176.491 71.3022C176.061 72.6243 175.455 73.8827 174.659 75.0137C175.025 76.0969 175.503 76.7659 176.061 76.7659C176.395 76.7659 176.523 76.1924 176.602 74.8066C176.762 74.9659 177.016 75.1411 177.208 75.1889C177.08 76.957 176.809 77.4986 176.013 77.4986C175.216 77.4986 174.579 76.8137 174.133 75.6986C173.56 76.3995 172.907 77.0208 172.174 77.4986C172.047 77.3234 171.824 77.0845 171.632 76.9411C171.903 76.7659 172.19 76.5588 172.445 76.3517H170.247V77.5146H169.562V76.3517H167.093V75.7464H169.562V75.0933H167.586V72.3216H169.562V71.6685H167.268V71.0792H169.562V70.3305L170.47 70.3942C170.47 70.3942 170.39 70.5216 170.247 70.5376V71.0792H172.588V71.6685H170.247V72.3216H172.286V75.0933H170.231V75.7464H172.636V76.1765C173.066 75.7942 173.48 75.3323 173.847 74.8544C173.48 73.6119 173.257 72.0349 173.13 70.2986H166.949V69.6455H169.546V68.6739H167.443V68.0526H169.546V67.1128L170.501 67.1765C170.501 67.1765 170.438 67.3039 170.278 67.3358V68.0685H172.365V68.6898H170.278V69.6615H173.098C173.05 68.8491 173.018 68.0048 173.018 67.1447C173.767 67.1765 173.894 67.1924 174.006 67.2084C174.006 67.288 173.942 67.3517 173.783 67.3836C173.783 68.1641 173.783 68.9128 173.831 69.6774H177.08V70.3305H173.878L173.862 70.2986ZM168.144 72.7836V73.4685H169.578V72.7836H168.144ZM168.144 73.9146V74.5995H169.578V73.9146H168.144ZM171.664 73.4526V72.7677H170.183V73.4526H171.664ZM171.664 74.5995V73.9146H170.183V74.5995H171.664ZM175.105 67.288C175.694 67.734 176.395 68.3871 176.714 68.8331L176.156 69.2632C175.838 68.8013 175.169 68.1323 174.579 67.6544L175.121 67.288H175.105Z" fill="#231815"/>
<path d="M182.179 75.937C182.179 76.7972 181.478 77.4981 180.618 77.4981C179.758 77.4981 179.057 76.7972 179.057 75.937C179.057 75.0769 179.758 74.376 180.618 74.376C181.478 74.376 182.179 75.1087 182.179 75.937ZM181.781 75.937C181.781 75.2839 181.271 74.7742 180.618 74.7742C179.965 74.7742 179.471 75.2839 179.471 75.937C179.471 76.5901 179.981 77.0839 180.618 77.0839C181.287 77.0839 181.781 76.5423 181.781 75.937Z" fill="#231815"/>
<defs>
<radialGradient id="paint0_radial_2223_13911" cx="0" cy="0" r="1" gradientUnits="userSpaceOnUse" gradientTransform="translate(81.1193 225.807) scale(71.2226 7.71579)">
<stop stop-color="#B6B3BF"/>
<stop offset="0.41" stop-color="#DAD9DF"/>
<stop offset="0.86" stop-color="white"/>
</radialGradient>
<linearGradient id="paint1_linear_2223_13911" x1="78.6213" y1="129.284" x2="78.6213" y2="108.289" gradientUnits="userSpaceOnUse">
<stop stop-color="#78777D"/>
<stop offset="0.14" stop-color="#4F4E54"/>
<stop offset="0.29" stop-color="#222127"/>
<stop offset="0.39" stop-color="#424046"/>
<stop offset="0.44" stop-color="#4F4D53"/>
<stop offset="0.5" stop-color="#434147"/>
<stop offset="0.64" stop-color="#2B2B31"/>
<stop offset="0.77" stop-color="#1D1E23"/>
<stop offset="0.88" stop-color="#191A1F"/>
</linearGradient>
<linearGradient id="paint2_linear_2223_13911" x1="55.3652" y1="129.236" x2="101.974" y2="129.236" gradientUnits="userSpaceOnUse">
<stop stop-color="#A0A1A2"/>
<stop offset="0.04" stop-color="#2C2C2F"/>
<stop offset="0.96" stop-color="#2F2F2F"/>
<stop offset="0.99" stop-color="#898989"/>
<stop offset="1" stop-color="#ADADAE"/>
</linearGradient>
<radialGradient id="paint3_radial_2223_13911" cx="0" cy="0" r="1" gradientUnits="userSpaceOnUse" gradientTransform="translate(78.3674 138.635) scale(16.3434 10.1329)">
<stop offset="0.3" stop-color="#A1A4AB"/>
<stop offset="0.44" stop-color="#AEB0B6"/>
<stop offset="0.71" stop-color="#D1D2D6"/>
<stop offset="1" stop-color="white"/>
</radialGradient>
</defs>
</svg>
