<svg width="294" height="138" viewBox="0 0 294 138" fill="none" xmlns="http://www.w3.org/2000/svg">
<path style="mix-blend-mode:multiply" d="M78.5567 137.14C119.104 137.14 151.974 133.676 151.974 129.402C151.974 125.129 119.104 121.664 78.5567 121.664C38.0096 121.664 5.13965 125.129 5.13965 129.402C5.13965 133.676 38.0096 137.14 78.5567 137.14Z" fill="url(#paint0_radial_1980_95163)"/>
<path d="M3.64414 0.384766C2.00416 0.384766 0.682617 1.7063 0.682617 3.34629V93.5612H156.417V3.34629C156.417 1.7063 155.096 0.384766 153.456 0.384766H3.64414Z" fill="#151619"/>
<path d="M5.47562 4.22217H151.641C152.135 4.22217 152.533 4.62022 152.533 5.11381V88.5459C152.533 89.0395 152.135 89.4376 151.641 89.4376H5.47562C4.98203 89.4376 4.58398 89.0395 4.58398 88.5459V5.12973C4.58398 4.63614 4.98203 4.22217 5.49153 4.22217H5.47562Z" fill="white"/>
<path d="M95.6416 123.352C94.8295 121.122 93.8265 108.241 93.8265 108.241H62.9375C62.9375 108.241 62.1095 121.616 61.0746 123.463C60.167 125.055 56.4253 127.714 55.2312 128.638C55.0719 128.765 55.2152 128.956 55.4222 128.956L60.4695 129.227H95.355L101.565 128.765C101.772 128.765 101.803 128.765 101.644 128.638C100.339 127.698 96.3899 125.374 95.6575 123.352H95.6416Z" fill="url(#paint1_linear_1980_95163)"/>
<path d="M0.682617 105.28C0.682617 106.92 2.02009 108.242 3.66008 108.242H153.456C155.096 108.242 156.433 106.92 156.433 105.28V93.5613H0.698555V105.28H0.682617Z" fill="#3A3A40"/>
<path d="M55.168 128.765V128.845C55.168 128.845 55.168 129.705 56.4577 129.705H100.323C101.836 129.705 101.756 128.781 101.756 128.781C101.756 128.781 100.323 129.482 96.3745 129.482H60.6452C57.3652 129.482 55.168 128.781 55.168 128.781V128.765Z" fill="#868789"/>
<path d="M59.6739 128.892C59.053 128.892 55.168 128.765 55.168 128.765C55.168 128.765 55.2157 129.625 56.4736 129.625H100.275C101.533 129.625 101.74 128.765 101.74 128.765V128.733C101.74 128.733 99.2724 128.892 97.0273 128.892H59.6739Z" fill="url(#paint2_linear_1980_95163)"/>
<path style="mix-blend-mode:multiply" d="M61.585 129.513H95.531L94.512 123.272H62.4448L61.585 129.513Z" fill="url(#paint3_radial_1980_95163)"/>
<path d="M167.45 9.44441L174.631 4.14233V14.7624L167.45 9.44441Z" fill="#231815"/>
<path d="M180.045 12.3422V4.1582H183.755V4.7314H180.618V12.3422H180.045Z" fill="#231815"/>
<path d="M189.79 10.3837C189.79 10.3837 189.695 10.527 189.567 10.5429C189.328 12.565 188.787 13.9503 186.08 14.6508C186.001 14.4438 185.794 14.1572 185.65 14.0139C188.166 13.4089 188.644 12.2466 188.819 10.2882L189.79 10.3837ZM190.316 7.35848V6.16432H185.81V5.46375H190.316V4.25366L191.303 4.31735C191.303 4.31735 191.223 4.44473 191.08 4.47657V5.46375H195.681V6.16432H191.08V7.35848H194.631V8.04314H186.86V7.35848H190.3H190.316ZM195.315 11.132H194.567V9.69904H186.876V11.132H186.144V9.01439H195.315V11.132ZM192.385 13.3452C192.385 13.6637 192.465 13.7114 192.927 13.7114H194.503C194.933 13.7114 194.997 13.5044 195.044 12.1988C195.204 12.3262 195.522 12.4377 195.729 12.5013C195.634 14.0139 195.411 14.3961 194.567 14.3961H192.879C191.908 14.3961 191.653 14.1732 191.653 13.3452V10.2722L192.624 10.3359C192.624 10.3359 192.545 10.4633 192.401 10.4951V13.3452H192.385Z" fill="#231815"/>
<path d="M201.03 9.22132L201.125 9.87413C200.711 10.0174 200.297 10.1767 199.899 10.32V13.7432C199.899 14.5712 199.485 14.6508 198.164 14.6349C198.148 14.4597 198.036 14.1413 197.957 13.9343C198.243 13.9343 198.514 13.9502 198.721 13.9502C199.167 13.9502 199.23 13.9502 199.23 13.7273V10.5588L198.18 10.9091C198.18 11.0046 198.116 11.0683 198.036 11.0842L197.766 10.2403C198.164 10.1289 198.673 9.96966 199.23 9.81044V7.29474H197.877V6.59417H199.23V4.26953L200.138 4.33322C200.138 4.42875 200.074 4.4606 199.915 4.49244V6.61009H201.077V7.31066H199.915V9.60345L201.046 9.23724L201.03 9.22132ZM203.307 11.3071V12.9471C203.912 12.8516 204.548 12.756 205.153 12.6605V13.2815C203.609 13.5521 201.969 13.8387 200.934 13.998C200.918 14.0935 200.855 14.1413 200.791 14.1572L200.52 13.3611C201.093 13.2815 201.81 13.1859 202.622 13.0586V11.323H201.014V10.6862H202.622V9.09394L203.529 9.15763C203.529 9.15763 203.466 9.28501 203.322 9.28501V10.6702H204.915V11.3071H203.322H203.307ZM202.622 8.05901V6.45087H201.157V5.81398H202.622V4.26953L203.529 4.33322C203.529 4.33322 203.45 4.4606 203.322 4.47652V5.81398H204.755V6.45087H203.322V8.05901H205.058V8.67997H200.87V8.05901H202.638H202.622ZM206.348 4.33322C206.348 4.33322 206.284 4.4606 206.141 4.47652V8.29784C206.618 8.67997 207.972 9.87413 208.306 10.1926L207.844 10.7976C207.51 10.3996 206.714 9.60345 206.141 9.04618V14.6349H205.44V4.28545L206.348 4.34914V4.33322Z" fill="#231815"/>
<path d="M215.583 10.7341V13.5842H220.089V14.2529H210.408V13.5842H214.803V10.7341H210.918V10.0654H214.803V8.50498H212.398V7.8681C211.793 8.32984 211.157 8.77566 210.504 9.14187C210.392 8.96673 210.185 8.71197 210.042 8.55275C212 7.51781 213.911 5.73453 214.787 4.22192L215.885 4.28561C215.87 4.38115 215.774 4.42891 215.663 4.46076C216.745 5.95744 218.751 7.56558 220.487 8.40945C220.312 8.60052 220.121 8.83935 219.993 9.06226C218.258 8.10693 216.252 6.48287 215.217 5.00211C214.628 5.90967 213.64 6.92869 212.478 7.82033H218.083V8.50498H215.599V10.0654H219.579V10.7341H215.599H215.583ZM212.956 13.3931C212.812 12.8199 212.367 11.9442 211.905 11.2914L212.526 11.0525C212.988 11.6735 213.465 12.5492 213.624 13.1224L212.972 13.409L212.956 13.3931ZM218.688 11.3869C218.688 11.3869 218.56 11.4824 218.449 11.4824C218.13 12.0556 217.589 12.8836 217.159 13.4249L216.602 13.1543C217.016 12.597 217.557 11.6894 217.844 11.0366L218.688 11.4028V11.3869Z" fill="#231815"/>
<path d="M226.506 4.84296C226.506 4.84296 226.379 4.95442 226.235 4.9385C225.455 6.70586 224.165 8.34584 222.748 9.34893C222.621 9.20564 222.35 8.95088 222.159 8.80758C223.544 7.86817 224.818 6.26004 225.551 4.5086L226.506 4.82704V4.84296ZM230.407 8.56875H230.582L231.012 8.60059C231.012 8.6802 231.012 8.77574 231.012 8.87127C230.837 12.4697 230.662 13.7594 230.279 14.1893C229.961 14.5396 229.627 14.5873 228.958 14.5873C228.576 14.5873 228.098 14.5873 227.62 14.5396C227.62 14.3166 227.509 13.9982 227.382 13.7912C228.146 13.8549 228.862 13.8708 229.133 13.8708C229.372 13.8708 229.499 13.8549 229.611 13.7275C229.897 13.4409 230.072 12.2786 230.232 9.31709H227.159C226.856 11.4507 226.235 13.6161 223.242 14.6988C223.146 14.5077 222.939 14.2211 222.764 14.0619C225.455 13.1543 226.092 11.2914 226.363 9.31709H223.958V8.58467H230.423L230.407 8.56875ZM229.42 4.49268C230.152 6.03713 231.617 7.75672 232.859 8.60059C232.652 8.75981 232.381 9.06234 232.238 9.26932C230.996 8.28215 229.547 6.4511 228.719 4.77927L229.436 4.49268H229.42Z" fill="#231815"/>
<path d="M237.222 8.53672C237.604 8.9507 238.592 10.1449 238.814 10.4474L238.337 11.0524C238.13 10.6862 237.636 9.95379 237.222 9.39652V14.6031H236.49V8.99847C236.06 10.3518 235.455 11.6893 234.834 12.4854C234.738 12.2784 234.547 11.9759 234.42 11.8008C235.2 10.8295 235.996 9.01439 236.378 7.42217H234.691V6.70567H236.49V4.25366L237.429 4.31735C237.429 4.31735 237.366 4.44473 237.222 4.46065V6.70567H238.799V7.42217H237.222V8.5208V8.53672ZM244.944 8.15459V8.87109H243.225V14.6349H242.492V8.87109H240.327C240.279 10.6225 240.009 12.8994 238.751 14.5871C238.655 14.412 238.369 14.1891 238.178 14.0776C239.451 12.3899 239.579 10.0971 239.579 8.3775V5.20899L240.231 5.40006C241.537 5.1453 242.938 4.76317 243.766 4.38104L244.467 5.002C244.467 5.002 244.403 5.04977 244.244 5.04977C243.289 5.41598 241.728 5.79811 240.311 6.05287V8.13867H244.929L244.944 8.15459Z" fill="#231815"/>
<path d="M247.029 5.01807H256.997V5.73456H252.347V7.0561H254.72V12.1353H249.258V7.0561H251.583V5.73456H247.029V5.01807ZM255.946 13.1861V6.92873L256.901 6.99241C256.901 6.99241 256.837 7.11979 256.694 7.15164V14.6032H255.962V13.9186H248.128V14.651H247.395V6.94465L248.351 7.00834C248.351 7.00834 248.287 7.13571 248.144 7.16756V13.218H255.978L255.946 13.1861ZM249.895 7.69299V9.26928H251.631V7.69299H249.895ZM249.895 9.87432V11.4665H251.631V9.87432H249.895ZM254.051 9.25336V7.67707H252.3V9.25336H254.051ZM254.051 11.4665V9.87432H252.3V11.4665H254.051Z" fill="#231815"/>
<path d="M269.289 5.7663H264.656C264.656 5.7663 264.592 5.7663 264.56 5.7663C264.465 6.1962 264.306 6.75348 264.146 7.24706H268.78V14.619H268.015V14.014H260.596V14.619H259.863V7.26298H263.382C263.509 6.81716 263.637 6.24397 263.732 5.7663H259.29V5.0498H269.273V5.7663H269.289ZM260.596 7.96356V13.3293H262.443V7.96356H260.596ZM265.34 9.30102V7.96356H263.127V9.30102H265.34ZM265.34 11.2913V9.93791H263.127V11.2913H265.34ZM263.127 11.9123V13.3293H265.34V11.9123H263.127ZM267.999 13.3293V7.96356H266.025V13.3293H267.999Z" fill="#231815"/>
<path d="M275.069 6.45093V14.6349H271.359V14.0458H274.496V6.45093H275.069Z" fill="#231815"/>
<path d="M170.842 26.3058C170.842 26.3058 170.746 26.4491 170.619 26.465C170.38 28.4871 169.839 29.8724 167.132 30.5729C167.052 30.366 166.845 30.0794 166.702 29.9361C169.218 29.331 169.695 28.1687 169.871 26.2103L170.842 26.3058ZM171.367 23.2806V22.0864H166.861V21.3859H171.367V20.1758L172.354 20.2395C172.354 20.2395 172.275 20.3668 172.132 20.3987V21.3859H176.733V22.0864H172.132V23.2806H175.682V23.9653H167.912V23.2806H171.351H171.367ZM176.367 27.0542H175.619V25.6212H167.928V27.0542H167.196V24.9365H176.367V27.0542ZM173.437 29.2673C173.437 29.5858 173.517 29.6335 173.979 29.6335H175.555C175.985 29.6335 176.048 29.4266 176.096 28.1209C176.255 28.2483 176.574 28.3598 176.781 28.4235C176.685 29.9361 176.462 30.3182 175.619 30.3182H173.931C172.96 30.3182 172.705 30.0953 172.705 29.2673V26.1944L173.676 26.258C173.676 26.258 173.596 26.3854 173.453 26.4173V29.2673H173.437Z" fill="#231815"/>
<path d="M182.083 25.1437L182.179 25.7965C181.765 25.9398 181.351 26.099 180.953 26.2423V29.6656C180.953 30.4935 180.539 30.5731 179.217 30.5572C179.201 30.3821 179.09 30.0636 179.01 29.8566C179.297 29.8566 179.568 29.8726 179.775 29.8726C180.22 29.8726 180.284 29.8726 180.284 29.6497V26.4811L179.233 26.8314C179.233 26.927 179.17 26.9907 179.09 27.0066L178.819 26.1627C179.217 26.0513 179.727 25.892 180.284 25.7328V23.2171H178.931V22.5165H180.284V20.1919L181.192 20.2556C181.192 20.3511 181.128 20.383 180.969 20.4148V22.5325H182.131V23.233H180.969V25.5258L182.099 25.1596L182.083 25.1437ZM184.36 27.2295V28.8695C184.965 28.7739 185.602 28.6784 186.207 28.5829V29.2038C184.663 29.4745 183.023 29.7611 181.988 29.9203C181.972 30.0159 181.908 30.0636 181.845 30.0796L181.558 29.2834C182.131 29.2038 182.848 29.1083 183.66 28.9809V27.2454H182.052V26.6085H183.66V25.0163L184.567 25.08C184.567 25.08 184.504 25.2074 184.36 25.2074V26.5926H185.952V27.2295H184.36ZM183.676 23.9814V22.3732H182.211V21.7363H183.676V20.1919L184.583 20.2556C184.583 20.2556 184.504 20.383 184.376 20.3989V21.7363H185.809V22.3732H184.376V23.9814H186.112V24.6023H181.924V23.9814H183.692H183.676ZM187.401 20.2556C187.401 20.2556 187.338 20.383 187.194 20.3989V24.2202C187.672 24.6023 189.025 25.7965 189.36 26.1149L188.898 26.72C188.564 26.3219 187.768 25.5258 187.194 24.9685V30.5572H186.494V20.2078L187.401 20.2715V20.2556Z" fill="#231815"/>
<path d="M196.637 26.6562V29.5063H201.143V30.175H191.462V29.5063H195.856V26.6562H191.971V25.9875H195.856V24.4271H193.452V23.7902C192.847 24.252 192.21 24.6978 191.557 25.064C191.446 24.8888 191.239 24.6341 191.096 24.4749C193.054 23.4399 194.965 21.6566 195.84 20.144L196.939 20.2077C196.923 20.3033 196.828 20.351 196.716 20.3829C197.799 21.8796 199.805 23.4877 201.541 24.3316C201.365 24.5226 201.174 24.7615 201.047 24.9844C199.312 24.029 197.305 22.405 196.27 20.9242C195.681 21.8318 194.694 22.8508 193.532 23.7425H199.136V24.4271H196.653V25.9875H200.633V26.6562H196.653H196.637ZM194.009 29.3152C193.866 28.742 193.42 27.8663 192.959 27.2135L193.58 26.9746C194.041 27.5956 194.519 28.4713 194.678 29.0445L194.025 29.3311L194.009 29.3152ZM199.741 27.309C199.741 27.309 199.614 27.4045 199.503 27.4045C199.184 27.9777 198.643 28.8057 198.213 29.3471L197.656 29.0764C198.07 28.5191 198.611 27.6115 198.898 26.9587L199.741 27.3249V27.309Z" fill="#231815"/>
<path d="M207.798 27.1817C207.702 27.0862 207.607 26.9907 207.495 26.8951V29.8248H204.836V30.3662H204.183V27.2136C204.024 27.3091 203.849 27.3887 203.69 27.4524C203.594 27.2932 203.403 27.0543 203.276 26.911C204.088 26.5767 204.916 26.0353 205.6 25.3348C205.218 25.0482 204.836 24.7616 204.47 24.5068C204.231 24.7456 203.976 24.9685 203.737 25.1596C203.626 25.0322 203.403 24.8412 203.26 24.7297C204.072 24.1724 204.868 23.1853 205.314 22.1503L206.11 22.4051C206.11 22.4051 206.014 22.5006 205.871 22.5006C205.791 22.6598 205.712 22.835 205.616 22.9942H207.161L207.288 22.9624C207.543 23.0897 207.638 23.1375 207.75 23.1853C207.734 23.233 207.686 23.2649 207.638 23.2967C207.384 24.0132 207.017 24.6501 206.556 25.2233C207.24 25.7328 207.861 26.2423 208.259 26.6404L207.814 27.1658L207.798 27.1817ZM204.199 21.9274V23.026H203.562V21.2905H205.505V20.1919L206.428 20.2556C206.428 20.2556 206.365 20.383 206.221 20.4148V21.3064H208.18V23.042H207.527V21.9433H204.215L204.199 21.9274ZM207.479 26.8633C207.097 26.513 206.619 26.1309 206.126 25.7328C205.696 26.1627 205.25 26.5448 204.756 26.8633H207.495H207.479ZM206.826 29.1879V27.4683H204.836V29.1879H206.826ZM205.25 23.5674C205.139 23.7425 205.011 23.8858 204.9 24.0451C205.25 24.2839 205.648 24.5546 206.03 24.8412C206.349 24.4431 206.603 24.0291 206.81 23.5674H205.25ZM210.457 29.0605C210.457 29.0605 210.361 29.1242 210.25 29.1401C209.804 29.6337 208.848 30.2069 208.036 30.5413C207.909 30.398 207.686 30.1751 207.527 30.0477C208.355 29.7293 209.294 29.172 209.724 28.6943L210.457 29.0765V29.0605ZM208.769 22.5643H210.281C210.377 22.214 210.472 21.7682 210.52 21.402H208.307V20.7332H213.752V21.402H211.285C211.221 21.7363 211.109 22.1662 210.998 22.5643H213.275V28.4237H208.769V22.5643ZM212.558 24.3317V23.1693H209.454V24.3317H212.558ZM212.558 26.0672V24.8889H209.454V26.0672H212.558ZM212.558 27.8345V26.6563H209.454V27.8345H212.558ZM213.323 30.605C212.909 30.1751 212.081 29.5382 211.412 29.1083L211.969 28.7421C212.638 29.1561 213.498 29.7611 213.928 30.191L213.323 30.605Z" fill="#231815"/>
<path d="M216.221 27.4844C217.049 28.1372 218.132 29.2517 218.737 29.9523L218.068 30.5733C217.511 29.8568 216.38 28.6945 215.632 28.0257L216.221 27.5003V27.4844Z" fill="#231815"/>
<path d="M225.535 20.8926H234.754V30.4936H233.99V29.7135H226.299V30.4936H225.535V20.8926ZM226.299 28.981H233.99V21.6409H226.299V28.981ZM228.003 23.3924H232.222V27.1818H228.003V23.3924ZM231.506 26.5449V24.0452H228.688V26.5449H231.506Z" fill="#231815"/>
<path d="M240.311 20.1919L241.266 20.2556C241.266 20.2556 241.187 20.383 241.044 20.3989V30.5413H240.311V27.4365C239.292 27.7549 238.289 28.0574 237.62 28.2485C237.62 28.344 237.541 28.3759 237.477 28.4237L237.143 27.5639L237.971 27.3569V21.4975L238.894 21.5612C238.894 21.5612 238.83 21.6886 238.671 21.7204V27.1817C239.181 27.0543 239.738 26.8951 240.295 26.7518V20.2078L240.311 20.1919ZM246.728 21.0358L247.189 21.2109C247.189 21.2109 247.142 21.3064 247.094 21.3383C246.712 23.854 245.948 25.892 244.913 27.4842C245.645 28.5192 246.537 29.3631 247.651 29.8885C247.476 30.0318 247.221 30.3184 247.11 30.5254C246.043 29.9522 245.167 29.1401 244.451 28.1371C243.671 29.1561 242.763 29.9522 241.76 30.5254C241.649 30.3184 241.426 30.0318 241.251 29.8726C242.254 29.3471 243.193 28.5192 243.989 27.4365C243.113 25.9398 242.508 24.0769 242.094 21.9911L242.779 21.8637C243.129 23.7107 243.671 25.3825 244.451 26.7518C245.279 25.4144 245.916 23.7425 246.266 21.816H241.473V21.0835H246.584L246.712 21.0358H246.728Z" fill="#231815"/>
<path d="M249.577 26.1786C250.31 25.908 251.377 25.4462 252.427 25.0004L252.555 25.5736C251.663 25.9876 250.74 26.4334 250.119 26.7041C250.119 26.7837 250.087 26.8633 250.023 26.8951L249.562 26.1627L249.577 26.1786ZM259.688 27.5161V28.2326H254.975V30.5891H254.211V28.2326H249.593V27.5161H254.211V26.6244L255.198 26.6881C255.198 26.6881 255.134 26.8155 254.975 26.8474V27.532H259.688V27.5161ZM253.001 25.9239C253.319 25.6214 253.669 25.2711 254.004 24.9049C253.574 24.5068 252.905 24.0132 252.348 23.6629L252.746 23.233C252.841 23.2967 252.953 23.3604 253.064 23.4241C253.367 23.042 253.701 22.5643 253.94 22.1822H249.96V21.4975H254.243V20.1919L255.23 20.2556C255.23 20.2556 255.166 20.383 255.007 20.4148V21.5134H259.385V22.1981H254.402L254.816 22.3732C254.816 22.3732 254.688 22.4688 254.577 22.4688C254.306 22.8509 253.892 23.3445 253.526 23.7585C253.876 23.9973 254.211 24.252 254.466 24.459C254.927 23.9177 255.357 23.3922 255.676 22.9146L256.392 23.3126C256.392 23.3126 256.281 23.3922 256.169 23.3922C255.548 24.1565 254.657 25.1596 253.813 25.9398L256.026 25.892C255.787 25.5417 255.5 25.1915 255.23 24.8889L255.787 24.6183C256.36 25.2392 256.997 26.099 257.268 26.6722L256.679 26.9907C256.615 26.8314 256.52 26.6404 256.392 26.4493C254.991 26.513 253.59 26.5767 252.666 26.6085C252.666 26.6881 252.603 26.7359 252.523 26.7518L252.22 25.9557H253.017L253.001 25.9239ZM250.485 22.6758C251.122 23.0101 251.918 23.5355 252.3 23.9018L251.775 24.3635C251.393 23.9973 250.612 23.4559 249.975 23.0897L250.469 22.6598L250.485 22.6758ZM257.013 24.8252C257.905 25.2551 259.067 25.9079 259.672 26.3856L259.115 26.8792C258.558 26.4175 257.411 25.7169 256.488 25.2711L257.013 24.8252ZM256.726 23.9336C257.3 23.5674 258.08 22.9464 258.526 22.5006L259.29 22.9464C259.29 22.9464 259.163 23.026 259.067 23.0101C258.605 23.4082 257.841 23.9177 257.268 24.2839L256.726 23.9336Z" fill="#231815"/>
<path d="M262.299 27.4844C263.127 28.1372 264.21 29.2517 264.815 29.9523L264.146 30.5733C263.589 29.8568 262.458 28.6945 261.71 28.0257L262.299 27.5003V27.4844Z" fill="#231815"/>
<path d="M276.628 27.1022V27.7869H271.023V27.1022H272.154V22.3893H271.183V21.7046H272.154V20.3035L273.061 20.3672C273.061 20.3672 272.998 20.4945 272.855 20.5105V21.7046H275.036V20.3035L275.943 20.3672C275.943 20.3672 275.88 20.4945 275.736 20.5105V21.7046H276.58V22.3893H275.736V27.1022H276.644H276.628ZM273.491 28.3442C273.491 28.3442 273.38 28.4397 273.253 28.4397C272.855 29.188 272.234 30.016 271.628 30.5414C271.501 30.414 271.23 30.223 271.071 30.1115C271.644 29.6498 272.249 28.8377 272.616 28.0416L273.491 28.3282V28.3442ZM275.004 22.4052H272.823V23.5038H275.004V22.4052ZM272.823 24.1407V25.2712H275.004V24.1407H272.823ZM272.823 25.8762V27.1182H275.004V25.8762H272.823ZM281.023 20.7652V29.602C281.023 30.5096 280.609 30.5733 278.937 30.5573C278.921 30.3663 278.809 30.0319 278.698 29.8249C279.048 29.8249 279.399 29.8408 279.653 29.8408C280.226 29.8408 280.29 29.8408 280.29 29.602V26.6883H277.743C277.615 28.0735 277.265 29.5383 276.421 30.621C276.31 30.4777 276.007 30.2548 275.848 30.1752C275.959 30.0478 276.055 29.8886 276.166 29.7453C276.15 29.7453 275.673 30.0319 275.545 30.0956C275.338 29.6339 274.829 28.8855 274.383 28.3601L274.972 28.0416C275.418 28.5671 275.927 29.2517 276.15 29.7135C277.026 28.2486 277.106 26.3539 277.106 24.8572V20.7493H280.991L281.023 20.7652ZM277.838 24.8731C277.838 25.2234 277.838 25.6215 277.806 26.0195H280.306V24.0611H277.838V24.8731ZM280.306 21.4658H277.838V23.3924H280.306V21.4658Z" fill="#231815"/>
<path d="M286.756 20.6536L287.249 20.9561C287.249 20.9561 287.202 21.0357 287.154 21.0517C286.835 21.9115 286.358 23.0419 285.928 23.9654C286.883 24.873 287.218 25.6532 287.218 26.3856C287.218 28.0097 286.135 27.9778 285.195 27.93C285.195 27.7231 285.1 27.4365 285.004 27.2613C285.307 27.2772 285.593 27.2772 285.8 27.2772C285.96 27.2613 286.087 27.2135 286.214 27.1499C286.421 27.0384 286.501 26.72 286.501 26.3697C286.501 26.0194 286.485 25.2392 285.211 24.045C285.609 23.2012 286.007 22.1344 286.278 21.3542H284.479V30.5572H283.778V20.6695H286.644L286.772 20.6377L286.756 20.6536ZM290.561 25.7009C290.72 26.306 290.959 26.8792 291.214 27.3887C291.755 26.9588 292.36 26.4015 292.743 25.9557L293.427 26.497C293.427 26.497 293.3 26.5607 293.204 26.5607C292.774 26.9747 292.09 27.532 291.517 27.946C292.058 28.8217 292.79 29.5063 293.682 29.9044C293.523 30.0477 293.284 30.3343 293.172 30.5254C291.485 29.6815 290.434 27.9141 289.877 25.7009H288.587V29.2675L290.72 28.8058L290.784 29.4745C289.399 29.7929 287.934 30.1432 287.011 30.3502C287.011 30.4298 286.947 30.4935 286.867 30.5254L286.549 29.6815C286.915 29.6178 287.361 29.5223 287.854 29.4267V20.7173H292.918V25.7169H290.545L290.561 25.7009ZM292.185 21.3701H288.603V22.835H292.185V21.3701ZM288.603 23.4878V25.0322H292.185V23.4878H288.603Z" fill="#231815"/>
<path d="M170.906 36.4484C170.874 36.5439 170.762 36.6235 170.555 36.6394C170.476 37.133 170.38 37.7062 170.269 38.152C171.367 38.0884 172.577 37.8973 173.549 37.6107L173.676 38.375C172.641 38.6297 171.415 38.8048 170.125 38.9163C169.584 41.0499 168.852 42.8013 167.769 44.4094L167.021 44.1069C168.04 42.6421 168.804 40.9703 169.281 38.9481H167.068V38.2157H168.39C168.74 38.2157 169.09 38.2157 169.409 38.2157C169.536 37.6266 169.648 36.9897 169.727 36.3369L170.906 36.4961V36.4484ZM173.867 41.1932C173.867 42.1007 173.947 42.7058 174.01 43.486C174.727 43.7726 175.65 44.2502 176.383 44.7757L175.985 45.4922C175.364 45.0304 174.615 44.5846 174.01 44.3139C174.01 45.4285 173.564 46.3042 171.925 46.3042C170.683 46.3042 169.743 45.7469 169.743 44.696C169.743 43.5815 170.921 43.0401 171.94 43.0401C172.339 43.0401 172.752 43.1198 173.198 43.2471C173.151 42.5306 173.103 41.8141 173.103 41.2887L173.867 41.1932ZM173.246 43.9795C172.784 43.8044 172.323 43.7248 171.925 43.7248C171.256 43.7248 170.46 43.9955 170.46 44.6801C170.46 45.317 171.081 45.6195 171.956 45.6195C172.752 45.6195 173.278 45.2215 173.278 44.4891C173.278 44.3139 173.278 44.1388 173.278 43.9795H173.246ZM176.303 40.0468C175.045 40.0468 173.517 40.2538 172.354 40.5881L172.227 39.8876C173.501 39.5213 175.029 39.2825 176.255 39.2825L176.303 40.0468Z" fill="#231815"/>
<path d="M188.277 40.0787C188.277 40.0787 188.213 40.0787 188.181 40.0787C188.102 40.0787 188.022 40.0627 187.942 40.015C184.631 40.9862 181.637 42.4511 181.637 43.9478C181.637 45.0145 182.815 45.3808 184.631 45.3808C186.446 45.3808 187.799 45.2534 188.579 45.126L188.643 45.938C187.624 46.0654 185.952 46.145 184.647 46.145C182.433 46.145 180.825 45.6355 180.825 43.9955C180.825 42.8014 182.003 41.7505 183.755 40.8589C183.373 40.1742 183.245 38.8845 183.245 36.3688L184.471 36.4643C184.471 36.6076 184.344 36.7032 184.121 36.735C184.121 38.6934 184.185 39.9035 184.487 40.5086C185.538 40.015 186.732 39.5692 187.974 39.1711L188.261 40.0946L188.277 40.0787ZM186.844 36.5917C187.417 37.1012 187.958 37.7222 188.261 38.2476L187.783 38.5661C187.497 38.0566 186.987 37.3878 186.414 36.9102L186.844 36.5917ZM188.34 35.9548C188.914 36.4643 189.423 37.0535 189.742 37.6107L189.28 37.9292C188.961 37.3878 188.468 36.7828 187.927 36.3051L188.356 35.9708L188.34 35.9548Z" fill="#231815"/>
<path d="M196.844 36.6555C196.828 36.7829 196.685 36.8465 196.478 36.8625C196.35 37.4834 196.159 38.5661 196.016 39.2349C196.509 39.1712 196.971 39.1393 197.258 39.1393C198.945 39.1234 199.535 40.238 199.535 41.9098C199.535 42.7537 199.375 43.7408 199.152 44.4096C198.802 45.54 198.086 46.0973 197.162 46.0973C196.7 46.0973 196.095 45.9063 195.14 45.1261C195.267 44.9191 195.347 44.6802 195.443 44.4414C196.334 45.1261 196.796 45.2853 197.146 45.2853C197.783 45.2853 198.165 44.8872 198.388 44.1707C198.627 43.4861 198.738 42.4511 198.738 41.8779C198.738 40.6042 198.309 39.8558 197.194 39.8558C196.86 39.8558 196.398 39.9036 195.841 39.9673C195.283 42.2442 194.631 44.2026 193.548 45.9859L192.815 45.6356C193.898 43.9001 194.503 42.1805 195.029 40.0628C194.455 40.1265 193.643 40.222 193.038 40.3335L192.975 39.5533C193.516 39.4896 194.44 39.3782 195.188 39.2986C195.347 38.4865 195.538 37.4834 195.666 36.4963L196.828 36.6555H196.844ZM199.423 36.3052C199.964 36.7192 200.601 37.3879 200.92 37.8656L200.49 38.184C200.171 37.7063 199.503 37.0058 199.025 36.6396L199.439 36.3211L199.423 36.3052ZM201.923 42.8014C201.557 41.1933 200.681 39.8399 199.646 38.996L200.299 38.5661C201.397 39.4896 202.369 40.8908 202.735 42.4989L201.939 42.8014H201.923ZM201.111 35.8753C201.652 36.2734 202.289 36.9421 202.623 37.4197L202.194 37.7382C201.875 37.2605 201.206 36.544 200.729 36.1778L201.127 35.8594L201.111 35.8753Z" fill="#231815"/>
<path d="M205.536 40.7632H215.87V41.5911H205.536V40.7632Z" fill="#231815"/>
<path d="M219.851 36.894H227.414V46.4792H226.633V45.6831H220.599V46.4792H219.851V36.894ZM226.633 37.6265H220.599V39.5849H226.633V37.6265ZM226.633 40.2855H220.599V42.2598H226.633V40.2855ZM220.599 44.9507H226.633V42.9763H220.599V44.9507Z" fill="#231815"/>
<path d="M231.935 37.6266C232.778 37.5947 239.641 37.1011 241.09 37.0852V37.9291C240.962 37.9291 240.819 37.9291 240.692 37.9291C240.039 37.9291 239.498 38.0405 238.781 38.5023C237.109 39.5054 235.485 41.3046 235.485 42.7376C235.485 44.2979 236.584 45.2214 239.338 45.5876L238.972 46.3678C235.804 45.9061 234.625 44.7278 234.625 42.7376C234.625 41.1613 236.17 39.2506 238.224 37.9768C236.998 38.0724 233.702 38.3112 232.269 38.4386C232.237 38.5341 232.11 38.5978 232.03 38.6137L231.935 37.6266ZM239.163 39.8238C239.705 40.2219 240.341 40.8906 240.676 41.3683L240.246 41.7186C239.927 41.225 239.259 40.5403 238.781 40.1741L239.163 39.8397V39.8238ZM240.373 38.8366C240.915 39.2347 241.567 39.8875 241.886 40.3811L241.456 40.7155C241.154 40.2696 240.501 39.585 239.991 39.171L240.373 38.8366Z" fill="#231815"/>
<path d="M247.188 36.4005L248.319 36.512C248.287 36.6393 248.191 36.703 248 36.7189C247.952 37.2444 247.921 37.8494 247.905 38.3112C247.968 38.343 248.08 38.3908 248.303 38.4704C248.175 38.7411 247.952 39.3461 247.841 39.8238C247.841 40.0467 247.825 40.1263 247.809 40.3014C249.019 39.4257 250.277 38.948 251.455 38.948C253.414 38.948 254.433 40.2696 254.433 42.1484C254.433 44.489 252.586 45.5557 249.577 45.8105C249.513 45.5717 249.417 45.301 249.29 45.094C252.06 44.8392 253.621 44.0591 253.621 42.1484C253.621 40.795 252.92 39.6805 251.392 39.6805C250.213 39.6805 249.051 40.1422 247.793 41.1453C247.793 42.7534 247.793 44.68 247.793 46.1608H247.013C247.013 45.492 247.013 42.2121 247.013 41.4797C246.647 42.1484 245.771 43.2789 244.895 44.0591L244.481 43.4062C245.357 42.6101 246.535 41.2886 247.029 40.0944L247.061 39.1869C246.631 39.2665 245.739 39.3461 244.864 39.3779V38.6137C245.628 38.6137 246.535 38.5659 247.109 38.4385L247.172 36.3687L247.188 36.4005Z" fill="#231815"/>
<path d="M261.678 36.6553C261.662 36.7827 261.519 36.8464 261.312 36.8623C261.184 37.4833 260.993 38.566 260.85 39.2347C261.343 39.171 261.805 39.1392 262.092 39.1392C263.779 39.1232 264.369 40.2378 264.369 41.9096C264.369 42.7535 264.209 43.7407 263.986 44.4094C263.636 45.5399 262.92 46.0972 261.996 46.0972C261.534 46.0972 260.929 45.9061 259.974 45.1259C260.101 44.9189 260.181 44.6801 260.277 44.4413C261.168 45.1259 261.63 45.2851 261.98 45.2851C262.617 45.2851 262.999 44.8871 263.222 44.1706C263.461 43.4859 263.572 42.451 263.572 41.8778C263.572 40.604 263.143 39.8557 262.028 39.8557C261.694 39.8557 261.232 39.9034 260.675 39.9671C260.117 42.244 259.465 44.2024 258.382 45.9857L257.649 45.6354C258.732 43.8999 259.337 42.1803 259.863 40.0627C259.289 40.1263 258.477 40.2219 257.872 40.3333L257.809 39.5531C258.35 39.4895 259.274 39.378 260.022 39.2984C260.181 38.4864 260.372 37.4833 260.499 36.4961L261.662 36.6553H261.678ZM266.837 42.0211C266.486 40.397 265.419 39.0118 264.321 38.1998L264.926 37.738C266.104 38.5819 267.282 40.1104 267.633 41.7026L266.837 42.0211Z" fill="#231815"/>
<path d="M274.113 41.018C274.845 40.6358 275.992 40.3652 276.883 40.3652C278.651 40.3652 279.765 41.4001 279.765 43.0401C279.765 45.0622 277.998 46.1768 275.753 46.1768C274.304 46.1768 273.317 45.6036 273.317 44.6164C273.317 43.7884 274.129 43.1197 275.148 43.1197C276.406 43.1197 277.25 44.1228 277.425 45.1418C278.316 44.8075 278.969 44.091 278.969 43.056C278.969 41.8459 278.078 41.0817 276.676 41.0817C275.005 41.0817 273.365 41.83 272.632 42.5465C272.298 42.8649 271.868 43.3267 271.565 43.677L270.992 43.1038C271.995 42.0529 275.18 39.0118 276.708 37.5947C276.055 37.6902 273.826 37.7699 272.553 37.8176C272.521 37.8972 272.409 37.9609 272.314 37.9928L272.218 37.0374C273.731 37.0374 276.597 36.9101 277.409 36.7986L277.568 36.719L278.157 37.4514C278.157 37.4514 277.998 37.5469 277.887 37.5469C277.09 38.1998 274.973 40.1741 274.113 41.018ZM275.657 45.4921C275.992 45.4921 276.39 45.4443 276.676 45.3806C276.549 44.5209 275.912 43.8044 275.1 43.8044C274.527 43.8044 274.001 44.1228 274.001 44.6323C274.001 45.317 274.925 45.508 275.657 45.508V45.4921Z" fill="#231815"/>
<path d="M292.312 38.6456C292.312 38.6456 292.216 38.773 292.153 38.8207C290.974 42.5147 289.143 44.7438 286.118 46.2882C285.991 46.0972 285.768 45.8424 285.545 45.6673C288.411 44.2661 290.21 42.1325 291.15 39.1073H287.217C286.564 40.1104 285.752 41.0498 284.749 41.83C284.606 41.6708 284.335 41.4638 284.128 41.3205C285.641 40.19 286.898 38.4227 287.663 36.4324L288.714 36.719C288.682 36.8305 288.554 36.8782 288.395 36.8623C288.172 37.3718 287.917 37.8972 287.663 38.3431H291.548L291.675 38.2794L292.312 38.6456ZM290.927 36.0821C291.452 36.512 292.057 37.1807 292.392 37.6743L291.978 38.0246C291.643 37.5151 291.038 36.8464 290.545 36.4483L290.943 36.098L290.927 36.0821ZM292.551 35.7637C293.076 36.1936 293.681 36.8623 294.016 37.3559L293.602 37.7062C293.267 37.1967 292.694 36.5598 292.169 36.1299L292.567 35.7796L292.551 35.7637Z" fill="#231815"/>
<path d="M175.937 55.9689C175.937 55.9689 175.857 56.0644 175.793 56.0803C174.886 59.4558 173.023 61.0958 169.679 62.0193C169.584 61.8123 169.361 61.5416 169.218 61.3665C172.259 60.6022 174.138 59.0419 174.838 56.4625H167.45V55.6982H175.172L175.284 55.6345L175.937 55.9689ZM174.886 53.5806H168.533V52.8481H174.886V53.5806Z" fill="#231815"/>
<path d="M188.276 53.7716C188.276 53.7716 188.197 53.8672 188.133 53.899C187.257 58.1184 185.06 60.6341 181.414 61.9238C181.286 61.7327 181.048 61.4302 180.904 61.271C184.359 60.1405 186.477 57.6566 187.146 54.2811H179.854V53.5328H187.432L187.592 53.4373L188.276 53.7875V53.7716Z" fill="#231815"/>
<path d="M195.426 52.5776C195.41 52.705 195.267 52.7687 195.06 52.7846C194.932 53.4056 194.741 54.4883 194.598 55.157C195.091 55.0933 195.553 55.0615 195.84 55.0615C197.527 55.0455 198.117 56.1601 198.117 57.8319C198.117 58.6758 197.957 59.663 197.734 60.3317C197.384 61.4622 196.668 62.0194 195.744 62.0194C195.282 62.0194 194.677 61.8284 193.722 61.0482C193.849 60.8412 193.929 60.6024 194.025 60.3635C194.916 61.0482 195.378 61.2074 195.728 61.2074C196.365 61.2074 196.747 60.8094 196.97 60.0929C197.209 59.4082 197.321 58.3733 197.321 57.8001C197.321 56.5263 196.891 55.778 195.776 55.778C195.442 55.778 194.98 55.8257 194.423 55.8894C193.865 58.1663 193.213 60.1247 192.13 61.908L191.397 61.5577C192.48 59.8222 193.085 58.1026 193.611 55.9849C193.037 56.0486 192.225 56.1442 191.62 56.2556L191.557 55.4754C192.098 55.4117 193.022 55.3003 193.77 55.2207C193.929 54.4087 194.12 53.4056 194.247 52.4184L195.41 52.5776H195.426ZM198.005 52.2273C198.547 52.6413 199.183 53.31 199.502 53.7877L199.072 54.1061C198.754 53.6285 198.085 52.9279 197.607 52.5617L198.021 52.2432L198.005 52.2273ZM200.505 58.7236C200.139 57.1154 199.263 55.762 198.228 54.9182L198.881 54.4883C199.979 55.4117 200.951 56.8129 201.317 58.421L200.521 58.7236H200.505ZM199.693 51.7974C200.234 52.1955 200.871 52.8642 201.206 53.3419L200.776 53.6603C200.457 53.1826 199.788 52.4661 199.311 52.0999L199.709 51.7815L199.693 51.7974Z" fill="#231815"/>
<path d="M209.135 52.2114C209.135 52.2114 209.023 52.3229 208.896 52.3388C208.769 52.6891 208.578 53.1668 208.402 53.5807H212.447V62.3379H211.667V61.7488H205.584V62.4016H204.836V53.5648H207.606C207.813 53.0712 208.004 52.4343 208.1 51.9885L209.119 52.1955L209.135 52.2114ZM211.667 54.3132H205.584V56.0964H211.667V54.3132ZM211.667 56.797H205.584V58.5644H211.667V56.797ZM205.584 61.0323H211.667V59.265H205.584V61.0323Z" fill="#231815"/>
<path d="M225.456 54.7111H225.854C225.854 54.8066 225.854 54.9022 225.854 54.9818C225.726 59.8858 225.599 61.4621 225.233 61.9398C224.93 62.3538 224.58 62.3538 224.07 62.3538C223.8 62.3538 223.481 62.3538 223.163 62.3378C223.147 62.1308 223.067 61.8124 222.956 61.6213C223.529 61.6691 224.023 61.6691 224.261 61.6691C224.405 61.6691 224.5 61.6373 224.596 61.5099C224.866 61.1755 225.01 59.6629 225.121 55.4276H223.465C223.465 57.7204 223.226 60.4749 221.061 62.4493C220.934 62.3219 220.663 62.099 220.488 61.9875C220.695 61.7965 220.886 61.5895 221.061 61.3825C219.214 61.6213 217.287 61.8442 216.077 61.9875C216.061 62.0672 215.982 62.1149 215.918 62.1468L215.647 61.3507C216.316 61.287 217.192 61.2074 218.131 61.1118V60.045H215.966V59.4559H218.131V58.6917H216.03V55.3958H218.131V54.5997H215.647V54.0105H218.131V53.2144C217.399 53.294 216.651 53.3418 215.95 53.3737C215.918 53.2144 215.823 52.9756 215.759 52.8164C217.415 52.7208 219.453 52.482 220.536 52.1954L221.093 52.7686C221.093 52.7686 221.029 52.7845 220.997 52.7845C220.965 52.7845 220.934 52.7845 220.886 52.7845C220.376 52.9119 219.708 53.0234 218.991 53.1189C218.959 53.1507 218.896 53.1826 218.816 53.1826V54.0105H221.316V54.5997H218.816V55.3958H221.029V58.6917H218.816V59.4559H221.109V60.045H218.816V61.0322C219.58 60.9526 220.36 60.873 221.141 60.7934V61.2711C222.574 59.4878 222.733 57.2746 222.733 55.4435H221.332V54.743H222.733V52.1636L223.656 52.2273C223.656 52.2273 223.593 52.3546 223.449 52.3706V54.727H225.456V54.7111ZM216.682 55.9212V56.7492H218.131V55.9212H216.682ZM216.682 58.1344H218.131V57.2905H216.682V58.1344ZM220.36 55.9212H218.816V56.7492H220.36V55.9212ZM220.36 58.1344V57.2905H218.816V58.1344H220.36Z" fill="#231815"/>
<path d="M228.416 53.5487C229.26 53.5168 236.122 53.0232 237.571 53.0073V53.8512C237.444 53.8512 237.301 53.8512 237.173 53.8512C236.52 53.8512 235.979 53.9627 235.263 54.4244C233.591 55.4275 231.967 57.2267 231.967 58.6597C231.967 60.2201 233.065 61.1435 235.82 61.5098L235.454 62.2899C232.285 61.8282 231.107 60.65 231.107 58.6597C231.107 57.0834 232.651 55.1727 234.705 53.899C233.479 53.9945 230.183 54.2333 228.75 54.3607C228.719 54.4562 228.591 54.5199 228.512 54.5359L228.416 53.5487ZM235.645 55.7459C236.186 56.144 236.823 56.8127 237.157 57.2904L236.727 57.6407C236.409 57.1471 235.74 56.4624 235.263 56.0962L235.645 55.7619V55.7459ZM236.855 54.7588C237.396 55.1568 238.049 55.8096 238.367 56.3032L237.937 56.6376C237.635 56.1918 236.982 55.5071 236.473 55.0931L236.855 54.7588Z" fill="#231815"/>
<path d="M245.708 61.3029H250.389V62.0353H240.311V61.3029H244.944V58.3095H241.537V57.5771H244.944V54.9977H242.206C241.807 55.7938 241.362 56.5262 240.868 57.0517C240.725 56.9243 240.438 56.7014 240.247 56.5899C241.155 55.6187 241.951 53.9309 242.412 52.2113L243.384 52.482C243.384 52.482 243.272 52.6094 243.129 52.6094C242.97 53.1507 242.779 53.708 242.556 54.2494H244.96V52.0203L245.963 52.084C245.963 52.084 245.884 52.2113 245.724 52.2432V54.2653H249.88V54.9977H245.724V57.5771H249.466V58.3095H245.724V61.3029H245.708Z" fill="#231815"/>
<path d="M259.066 54.7746C259.194 56.3032 259.448 57.7362 259.783 58.9144C260.404 57.975 260.913 56.9082 261.279 55.73L262.187 56.0006C262.187 56.0006 262.076 56.1121 261.932 56.1121C261.47 57.4814 260.85 58.7074 260.053 59.7583C260.515 60.9365 261.072 61.6849 261.709 61.6849C262.06 61.6849 262.219 61.0639 262.282 59.5513C262.442 59.7105 262.712 59.8857 262.919 59.9493C262.76 61.86 262.474 62.4332 261.646 62.4332C260.738 62.4332 260.037 61.653 259.512 60.427C258.78 61.2231 257.952 61.9078 257.012 62.4491C256.917 62.2899 256.678 62.0192 256.519 61.8759C257.554 61.3346 258.445 60.5862 259.21 59.6627C258.764 58.3253 258.461 56.6057 258.302 54.7906H254.21V56.3032H256.933H257.331V56.5579C257.267 59.2169 257.203 60.1882 256.98 60.4907C256.694 60.7932 256.407 60.8091 255.802 60.8091C255.547 60.8091 255.261 60.8091 254.958 60.7932C254.942 60.5703 254.863 60.2837 254.735 60.0926C255.277 60.1404 255.802 60.1404 255.977 60.1404C256.137 60.1404 256.264 60.1245 256.328 60.0289C256.487 59.8379 256.535 59.0736 256.582 56.9878H254.21C254.21 58.0864 254.21 60.7455 252.968 62.4332C252.841 62.2899 252.538 62.0351 252.379 61.9396C253.366 60.5703 253.478 58.6437 253.478 57.1789V54.0581H258.254C258.206 53.4053 258.191 52.7366 258.175 52.0679L259.178 52.1316C259.178 52.2271 259.098 52.2749 258.939 52.3067C258.939 52.8958 258.939 53.5009 258.987 54.0741H262.633V54.8065H259.034L259.066 54.7746ZM260.213 52.1156C260.929 52.4819 261.805 53.0232 262.235 53.4372L261.773 53.9467C261.343 53.5486 260.467 52.9595 259.751 52.5933L260.213 52.1316V52.1156Z" fill="#231815"/>
<path d="M267.793 60.8411C267.793 61.7009 267.092 62.4015 266.232 62.4015C265.372 62.4015 264.672 61.7009 264.672 60.8411C264.672 59.9813 265.372 59.2808 266.232 59.2808C267.092 59.2808 267.793 60.0132 267.793 60.8411ZM267.395 60.8411C267.395 60.1883 266.885 59.6788 266.232 59.6788C265.579 59.6788 265.086 60.1883 265.086 60.8411C265.086 61.4939 265.595 61.9875 266.232 61.9875C266.901 61.9875 267.395 61.4462 267.395 60.8411Z" fill="#231815"/>
<defs>
<radialGradient id="paint0_radial_1980_95163" cx="0" cy="0" r="1" gradientUnits="userSpaceOnUse" gradientTransform="translate(81.0246 196.62) scale(71.1911 7.71238)">
<stop stop-color="#B6B3BF"/>
<stop offset="0.41" stop-color="#DAD9DF"/>
<stop offset="0.86" stop-color="white"/>
</radialGradient>
<linearGradient id="paint1_linear_1980_95163" x1="78.4616" y1="129.227" x2="78.4616" y2="108.241" gradientUnits="userSpaceOnUse">
<stop stop-color="#78777D"/>
<stop offset="0.14" stop-color="#4F4E54"/>
<stop offset="0.29" stop-color="#222127"/>
<stop offset="0.39" stop-color="#424046"/>
<stop offset="0.44" stop-color="#4F4D53"/>
<stop offset="0.5" stop-color="#434147"/>
<stop offset="0.64" stop-color="#2B2B31"/>
<stop offset="0.77" stop-color="#1D1E23"/>
<stop offset="0.88" stop-color="#191A1F"/>
</linearGradient>
<linearGradient id="paint2_linear_1980_95163" x1="55.2157" y1="129.179" x2="101.804" y2="129.179" gradientUnits="userSpaceOnUse">
<stop stop-color="#A0A1A2"/>
<stop offset="0.04" stop-color="#2C2C2F"/>
<stop offset="0.96" stop-color="#2F2F2F"/>
<stop offset="0.99" stop-color="#898989"/>
<stop offset="1" stop-color="#ADADAE"/>
</linearGradient>
<radialGradient id="paint3_radial_1980_95163" cx="0" cy="0" r="1" gradientUnits="userSpaceOnUse" gradientTransform="translate(78.2077 136.952) scale(16.3361 10.1284)">
<stop offset="0.3" stop-color="#A1A4AB"/>
<stop offset="0.44" stop-color="#AEB0B6"/>
<stop offset="0.71" stop-color="#D1D2D6"/>
<stop offset="1" stop-color="white"/>
</radialGradient>
</defs>
</svg>
