<svg width="128" height="38" viewBox="0 0 128 38" fill="none" xmlns="http://www.w3.org/2000/svg">
<path d="M49.0084 15.2749V14.8284H42.3428V13.4251H49.0084V8.99198H42.3587V7.57275H50.5233V15.2749H49.0084Z" fill="#03B8DF"/>
<path d="M57.3808 9.34246C56.6473 8.73649 55.7862 8.19431 54.7656 7.73187L55.547 6.53589C56.3922 6.90266 57.4287 7.46078 58.226 8.11458L57.3808 9.34246ZM61.1123 12.8028C59.1031 14.4294 57.8911 14.9715 56.3124 15.6413C56.2486 15.8167 56.2167 16.0399 56.1211 16.0399C56.0413 16.0399 55.9297 15.9602 55.834 15.8007L54.941 14.2699C55.9616 14.0307 57.636 13.6001 59.6771 12.0693C61.6226 10.6182 62.8505 8.92785 63.4086 8.16242L64.2856 9.43813C63.7913 10.1079 62.7867 11.4474 61.1123 12.8028Z" fill="#03B8DF"/>
<path d="M74.7776 10.2195C74.6341 13.8553 73.7889 15.131 71.3173 16.6299L70.2648 15.6413C72.577 14.3815 73.2946 13.0739 73.3425 10.2195H70.9345V13.1377H69.4196V10.2195H67.0596V8.76836H69.4196V6.32856L70.8229 6.48803C71.11 6.51992 71.2056 6.53587 71.2056 6.66344C71.2056 6.71128 71.1737 6.74317 71.1099 6.79101C70.9664 6.88669 70.9505 6.91858 70.9505 6.98237V8.76836H73.3584C73.3584 7.79563 73.3584 6.95047 73.3265 6.13721L74.6341 6.31262C74.7298 6.31262 75.0328 6.36046 75.0328 6.51992C75.0328 6.56776 75.0009 6.6156 74.9211 6.67938C74.8255 6.75912 74.8095 6.77506 74.7776 6.83885V8.76836H76.9144V10.2195H74.7617H74.7776Z" fill="#03B8DF"/>
<path d="M83.4048 7.50895C83.3091 7.58868 83.3091 7.60463 83.3091 7.66841C83.3091 10.0604 83.3091 10.2517 83.2453 10.8099C82.9424 13.457 81.4274 14.7008 80.4866 15.4343L79.0674 14.3978C80.2953 13.6802 81.7942 12.5959 81.7942 9.42252C81.7942 8.24248 81.6985 7.39733 81.6507 7.01461L83.1975 7.11029C83.4207 7.11029 83.5643 7.15813 83.5643 7.30165C83.5643 7.34949 83.5324 7.36543 83.3889 7.493L83.4048 7.50895ZM85.7649 15.4503L84.6805 14.6051V6.87109L86.1635 7.0465C86.2752 7.0465 86.5143 7.0784 86.5143 7.20597C86.5143 7.25381 86.4825 7.30165 86.3708 7.39732C86.3708 7.39732 86.2114 7.54084 86.2114 7.55679V13.1221C87.3117 12.5161 88.7628 11.0969 89.5761 9.85307L90.4372 11.1447C89.1934 12.835 87.2798 14.5892 85.7489 15.4343L85.7649 15.4503Z" fill="#03B8DF"/>
<path d="M101.376 9.34271C101.025 10.3314 100.77 11.0649 99.9088 12.4044C100.228 12.6755 100.531 12.9466 100.977 13.3771L100.036 14.4774C99.8131 14.2701 99.5739 14.015 99.0476 13.5526C98.059 14.6529 97.15 15.5459 95.0132 16.6621L93.8651 15.4661C95.9381 14.7485 97.0225 13.6642 97.9633 12.6596C97.4211 12.2609 96.8311 11.8463 95.8584 11.3201L96.6397 10.3633C97.4052 10.6981 97.9314 10.9692 98.8085 11.5752C99.5739 10.443 99.7812 9.85299 99.9566 9.21513H96.6876C95.8424 10.3952 95.2205 11.1446 94.3754 11.7985L93.1953 10.9214C94.9973 9.69353 96.2251 7.52482 96.7673 5.93018L98.1706 6.34478C98.1706 6.34478 98.4257 6.44046 98.4257 6.53614C98.4257 6.61587 98.3141 6.66371 98.1387 6.74344C97.9792 7.04642 97.74 7.54076 97.4849 7.98726H100.419C100.578 7.98726 100.802 7.81185 100.993 7.68428L101.934 8.67296C101.711 8.86431 101.487 9.08756 101.392 9.39055L101.376 9.34271Z" fill="#03B8DF"/>
<path d="M108.409 9.34246C107.676 8.73649 106.815 8.19431 105.794 7.73187L106.575 6.53589C107.42 6.90266 108.457 7.46078 109.254 8.11458L108.409 9.34246ZM112.141 12.8028C110.131 14.4294 108.919 14.9715 107.341 15.6413C107.277 15.8167 107.245 16.0399 107.149 16.0399C107.07 16.0399 106.958 15.9602 106.862 15.8007L105.969 14.2699C106.99 14.0307 108.664 13.6001 110.705 12.0693C112.651 10.6182 113.879 8.92785 114.437 8.16242L115.314 9.43813C114.82 10.1079 113.815 11.4474 112.141 12.8028Z" fill="#03B8DF"/>
<path d="M126.763 13.2973C125.822 12.4203 124.546 11.3837 123.016 10.7459V16.2474H121.517V6.15332L123.047 6.42441C123.047 6.42441 123.35 6.47225 123.35 6.63171C123.35 6.71144 123.016 6.91875 123.016 6.98253V10.3313L123.622 9.39044C124.275 9.67747 124.69 9.83694 125.79 10.5545C126.795 11.2243 127.273 11.6389 127.784 12.0854L126.779 13.3133L126.763 13.2973Z" fill="#03B8DF"/>
<path d="M50.8582 29.8816C49.9014 31.3008 48.5779 31.843 47.8922 32.13L46.9513 30.8224C47.5254 30.6629 48.4663 30.3918 49.2476 29.451C50.029 28.5261 50.1725 27.4737 50.1725 26.9155C50.1725 26.2139 49.9652 25.3528 49.2476 24.683C48.4503 23.9176 47.5573 23.8698 47.0789 23.8219C46.6643 26.8517 45.9148 28.6377 45.5002 29.4989C45.1175 30.2962 44.5275 31.3646 43.8737 31.3646C43.4112 31.3646 41.3223 30.2164 41.3223 27.9361C41.3223 25.1136 43.6504 22.5303 46.9513 22.5303C49.5984 22.5303 51.6874 24.3322 51.6874 27.1707C51.6874 28.2869 51.3366 29.1799 50.8742 29.8816H50.8582ZM44.0013 24.9701C43.0923 25.8312 42.7255 27.0272 42.7255 27.7926C42.7255 28.8291 43.3156 29.3553 43.5388 29.3553C44.2086 29.3553 45.2929 26.0225 45.5481 24.0452C45.1813 24.1728 44.6072 24.3641 43.9853 24.9701H44.0013Z" fill="#03B8DF"/>
<path d="M62.0208 26.166C61.8773 29.8018 61.0321 31.0775 58.5604 32.5765L57.508 31.5878C59.8202 30.328 60.5378 29.0204 60.5856 26.166H58.1777V29.0842H56.6628V26.166H54.3027V24.7149H56.6628V22.2751L58.0661 22.4346C58.3531 22.4665 58.4488 22.4824 58.4488 22.61C58.4488 22.6578 58.4169 22.6897 58.3531 22.7375C58.2096 22.8332 58.1937 22.8651 58.1937 22.9289V24.7149H60.6016C60.6016 23.7422 60.6016 22.897 60.5697 22.0837L61.8773 22.2592C61.973 22.2592 62.2759 22.307 62.2759 22.4665C62.2759 22.5143 62.244 22.5621 62.1643 22.6259C62.0686 22.7057 62.0527 22.7216 62.0208 22.7854V24.7149H64.1576V26.166H62.0048H62.0208Z" fill="#03B8DF"/>
<path d="M70.3288 27.9522C70.1693 28 70.1534 28 70.1055 28.0479C69.4358 29.0206 69.0052 29.6425 67.9209 30.5833L66.6133 29.7701C67.5382 29.1163 68.4312 28.1435 69.1966 26.8997L70.2491 27.5854C70.2491 27.5854 70.4882 27.7449 70.4882 27.8246C70.4882 27.9044 70.4085 27.9203 70.3288 27.9362V27.9522ZM72.7208 25.8154V30.679C72.7208 31.8591 72.4178 32.0664 70.281 32.0823L69.8026 30.5993C70.0577 30.6471 70.4245 30.695 70.8072 30.695C71.2218 30.695 71.2856 30.5993 71.2856 30.2804V25.7994H67.5701V24.4918H71.2856V22.1796L72.657 22.355C72.8643 22.3869 73.0078 22.4188 73.0078 22.5304C73.0078 22.5942 72.96 22.6261 72.8483 22.7058C72.8005 22.7377 72.7367 22.7856 72.7367 22.8493V24.4759H76.3884V25.7835H72.7367L72.7208 25.8154ZM75.7825 30.2963C75.2243 29.2438 74.6024 28.4306 73.7732 27.6492L74.7619 26.804C75.7825 27.6652 76.5798 28.8611 76.9146 29.3874L75.7984 30.2963H75.7825ZM76.5798 23.8859C75.91 23.8859 75.3997 23.3437 75.3997 22.6899C75.3997 22.0361 75.926 21.4939 76.5798 21.4939C77.2336 21.4939 77.7598 22.0201 77.7598 22.6899C77.7598 23.3596 77.2336 23.8859 76.5798 23.8859ZM76.5798 21.9563C76.1652 21.9563 75.8622 22.2912 75.8622 22.6899C75.8622 23.0885 76.1811 23.4234 76.5798 23.4234C76.9784 23.4234 77.2974 23.1045 77.2974 22.6899C77.2974 22.2753 76.9784 21.9563 76.5798 21.9563Z" fill="#03B8DF"/>
<path d="M80.1992 28.0001V26.3735H89.2727V28.0001H80.1992Z" fill="#03B8DF"/>
<path d="M101.249 29.2436C100.308 28.3665 99.0328 27.33 97.5019 26.6922V32.1937H96.0029V22.0996L97.5338 22.3707C97.5338 22.3707 97.8368 22.4185 97.8368 22.578C97.8368 22.6577 97.5019 22.865 97.5019 22.9288V26.2776L98.1079 25.3367C98.7617 25.6238 99.1763 25.7832 100.277 26.5008C101.281 27.1706 101.76 27.5852 102.27 28.0317L101.265 29.2595L101.249 29.2436Z" fill="#03B8DF"/>
<path d="M28.7251 0.907227H7.86716C3.63982 0.907227 0.212891 4.33416 0.212891 8.5615V29.4194C0.212891 33.6467 3.63982 37.0737 7.86716 37.0737H28.7251C32.9524 37.0737 36.3793 33.6467 36.3793 29.4194V8.5615C36.3793 4.33416 32.9524 0.907227 28.7251 0.907227Z" fill="#03B8DF"/>
<path d="M22.9522 13.9354C22.9522 16.1041 22.0592 18.1293 20.5283 19.5645C24.4192 21.5259 26.9866 25.5603 26.9866 30.0731V30.5994H32.1851C32.1851 26.9158 29.6497 23.8222 26.2371 22.977C26.2371 22.977 26.1893 22.977 26.1574 22.961C26.0298 22.9292 25.9501 22.8016 25.9501 22.674C25.9501 22.5464 26.0298 22.4348 26.1414 22.387C27.8318 21.6694 29.0278 19.995 29.0278 18.0336C29.0278 15.4343 26.9228 13.3135 24.3076 13.3135C23.8292 13.3135 23.3668 13.3932 22.9362 13.5208C22.9362 13.6643 22.9362 13.8078 22.9362 13.9513L22.9522 13.9354Z" fill="#1853A4"/>
<path d="M25.8064 30.5835H4.59766V30.0573C4.59766 25.2734 7.77099 21.1114 12.3476 19.8356C10.0832 18.7353 8.63209 16.455 8.63209 13.9195C8.63209 10.2997 11.5822 7.34961 15.202 7.34961C18.8218 7.34961 21.7719 10.2997 21.7719 13.9195C21.7719 16.455 20.3208 18.7513 18.0564 19.8356C22.633 21.1114 25.8064 25.2734 25.8064 30.0573V30.5835ZM5.65011 29.547H24.7539C24.5307 25.369 21.6284 21.813 17.5461 20.7924C17.5461 20.7924 17.4664 20.7765 17.4186 20.7605C17.0518 20.6489 16.7966 20.2821 16.7966 19.8994C16.7966 19.5327 17.0199 19.1978 17.3548 19.0543C19.4119 18.1932 20.7514 16.1839 20.7514 13.9514C20.7514 10.9057 18.2637 8.41802 15.218 8.41802C12.1722 8.41802 9.68455 10.9057 9.68455 13.9514C9.68455 16.1839 11.0081 18.1772 13.0652 19.0543C13.416 19.1978 13.6233 19.5327 13.6233 19.8994C13.6233 20.2981 13.3682 20.6489 12.9855 20.7765C12.9376 20.7765 12.8579 20.8084 12.8579 20.8084C8.75967 21.8289 5.85741 25.4009 5.63416 29.5629L5.65011 29.547Z" fill="white"/>
<path d="M31.1968 29.2122C31.1968 30.7271 29.969 31.939 28.47 31.939C26.971 31.939 25.7432 30.7111 25.7432 29.2122C25.7432 27.7132 26.971 26.4854 28.47 26.4854C29.969 26.4854 31.1968 27.7132 31.1968 29.2122Z" stroke="white" stroke-width="1.80194"/>
<path d="M31.1968 29.2122C31.1968 30.7271 29.969 31.939 28.47 31.939C26.971 31.939 25.7432 30.7111 25.7432 29.2122C25.7432 27.7132 26.971 26.4854 28.47 26.4854C29.969 26.4854 31.1968 27.7132 31.1968 29.2122Z" fill="#EB6136"/>
<path d="M28.8045 27.9521H28.1348V30.4876H28.8045V27.9521Z" fill="white"/>
<path d="M29.7298 28.8772H27.1943V29.5469H29.7298V28.8772Z" fill="white"/>
</svg>
