<svg width="118" height="38" viewBox="0 0 118 38" fill="none" xmlns="http://www.w3.org/2000/svg">
<path d="M52.9422 9.05584C52.5914 10.0445 52.3363 10.7781 51.4752 12.1176C51.7941 12.3886 52.0971 12.6597 52.5436 13.0903L51.6027 14.1906C51.3795 13.9833 51.1403 13.7281 50.614 13.2657C49.6254 14.366 48.7164 15.259 46.5796 16.3752L45.4315 15.1793C47.5045 14.4617 48.5889 13.3773 49.5297 12.3727C48.9875 11.974 48.3975 11.5594 47.4248 11.0332L48.2061 10.0764C48.9716 10.4113 49.4978 10.6824 50.3749 11.2883C51.1403 10.1561 51.3476 9.56613 51.523 8.92827H48.254C47.4088 10.1083 46.7869 10.8578 45.9418 11.5116L44.7617 10.6345C46.5637 9.40666 47.7915 7.23795 48.3337 5.64331L49.737 6.05792C49.737 6.05792 49.9921 6.1536 49.9921 6.24927C49.9921 6.32901 49.8805 6.37685 49.7051 6.45658C49.5456 6.75956 49.3064 7.2539 49.0513 7.7004H51.9854C52.1449 7.7004 52.3682 7.52499 52.5595 7.39742L53.5003 8.38609C53.2771 8.57745 53.0538 8.8007 52.9582 9.10368L52.9422 9.05584Z" fill="#03B8DF"/>
<path d="M65.5242 7.01455C65.3328 7.01455 65.3009 7.04644 65.1255 7.2378C64.4877 7.97133 63.7701 8.62513 63.0206 9.2311V16.0243H61.426V10.4111C60.5649 10.9852 59.7038 11.5274 58.2207 12.229L57.1045 11.0968C59.7675 10.0444 62.5741 7.95538 64.5036 5.67505L65.6199 6.59994C65.6199 6.59994 65.8431 6.80724 65.8431 6.90292C65.8431 6.9986 65.7953 6.9986 65.5401 7.01455H65.5242Z" fill="#03B8DF"/>
<path d="M78.2175 15.5302C78.058 14.988 77.9304 14.685 77.6753 14.095C76.4474 14.3023 70.3878 15.307 70.2921 15.3707C70.2602 15.3707 70.1167 15.5302 70.1008 15.5462C70.0689 15.578 70.0529 15.594 70.0051 15.594C69.9094 15.594 69.8616 15.4824 69.8137 15.2432L69.5107 13.7602C69.8137 13.7602 70.1805 13.7283 70.93 13.6645C71.9186 11.1449 72.8754 8.35432 73.4495 6.12183L74.9485 6.48859C75.0601 6.52049 75.2993 6.60022 75.2993 6.72779C75.2993 6.79158 75.2674 6.80752 75.0601 6.93509C74.9325 6.99888 74.9006 7.03077 74.789 7.38159C74.1193 9.35895 73.0349 12.1177 72.4768 13.505C74.2947 13.2977 75.6342 13.1223 77.0215 12.8831C76.7026 12.3569 76.272 11.6712 75.5544 10.9057L76.9099 10.236C78.1537 11.719 78.9829 13.1223 79.6527 14.7169L78.2175 15.5143V15.5302Z" fill="#03B8DF"/>
<path d="M85.648 6.37665C85.4566 6.52017 85.4407 6.53611 85.4407 6.56801V11.9419H83.9258V5.93015L85.4407 6.05772C85.5364 6.05772 85.7756 6.08962 85.7756 6.20124C85.7756 6.26503 85.6958 6.32881 85.648 6.37665ZM90.9422 6.28097C90.7827 6.44044 90.7827 6.48828 90.7827 6.8391C90.7827 6.95072 90.7827 7.52479 90.7827 7.65236C90.7827 10.14 90.7508 11.1446 90.3522 12.3884C89.6027 14.6528 87.9443 15.5937 86.6207 16.2634L85.5045 15.0196C88.1197 13.9831 89.22 12.7712 89.22 8.92808C89.22 8.62509 89.1881 6.85504 89.1243 5.83447L90.7508 5.93015C90.7508 5.93015 91.0698 5.93015 91.0698 6.08961C91.0698 6.12151 91.0698 6.18529 90.9263 6.28097H90.9422Z" fill="#03B8DF"/>
<path d="M95.5508 11.7664V10.1399H104.624V11.7664H95.5508Z" fill="#03B8DF"/>
<path d="M111.88 8.72077C110.843 11.7028 110.19 12.9785 109.52 14.1904L108.148 13.6004C109.169 12.0376 109.807 10.3951 110.333 8.95997C109.743 9.0397 109.392 9.0716 108.786 9.11943L108.595 7.79588C109.44 7.79588 109.966 7.7321 110.764 7.63642C110.987 6.87099 111.13 6.31287 111.226 5.53149L112.613 5.83448C112.613 5.83448 112.916 5.91421 112.916 6.05773C112.916 6.1853 112.693 6.26503 112.629 6.34476C112.629 6.34476 112.374 7.17397 112.326 7.33344C113.076 7.14208 113.459 7.01451 113.793 6.90288V8.33806C113.363 8.44969 112.964 8.56131 111.88 8.75267V8.72077ZM116.393 15.498C115.962 15.1472 115.627 14.9239 115.133 14.6528C115.021 15.6734 114.639 16.2156 112.964 16.2156C112.151 16.2156 111.417 16.088 110.891 15.6096C110.684 15.4342 110.413 15.0674 110.413 14.5253C110.413 13.8396 110.907 12.7074 112.677 12.7074C113.092 12.7074 113.411 12.7393 113.666 12.7871C113.634 12.5001 113.49 11.1925 113.49 10.9214C113.49 10.3154 113.778 9.9327 114.033 9.61377L115.356 10.3314C114.942 10.6662 114.878 10.9852 114.878 11.3519C114.878 11.623 114.91 12.1811 115.037 13.122C115.882 13.4569 116.425 13.7758 117.238 14.2861L116.393 15.4821V15.498ZM112.613 13.8715C111.944 13.8715 111.641 14.2223 111.641 14.4774C111.641 14.7645 111.992 15.0515 112.693 15.0515C113.73 15.0515 113.714 14.5093 113.714 14.0628C113.49 13.999 113.044 13.8715 112.597 13.8715H112.613ZM116.967 10.0443C116.122 9.53404 115.436 9.19917 114.176 8.88024L114.75 7.77994C115.691 7.9394 116.648 8.24238 117.589 8.95997L116.967 10.0443Z" fill="#03B8DF"/>
<path d="M44.7779 24.2206C44.6981 25.1934 44.5068 26.0864 44.2516 26.9156L43.0557 26.5647C43.5341 25.1455 43.6138 23.9814 43.6457 23.5987L44.8257 23.822C45.0649 23.8539 45.0809 23.9336 45.0809 23.9974C45.0809 24.1409 44.9214 24.1887 44.7779 24.2206ZM47.3134 26.1501V25.1136C47.1539 24.8266 46.9944 24.5874 46.5479 24.109V32.3852H45.1287V21.4141L46.7393 21.5895C46.835 21.5895 46.9625 21.6214 46.9625 21.7489C46.9625 21.8765 46.8669 21.9084 46.7871 21.9562C46.6914 22.0041 46.5639 22.0679 46.5639 22.2114V23.7741L47.0901 23.232C47.4888 23.519 47.9512 23.9655 48.2382 24.4439L47.409 25.1136H50.1518V24.6193H48.302V23.6625H50.1518V23.1522H47.5525V22.1795H50.1518V21.446L51.7146 21.5576C51.7146 21.5576 51.874 21.6054 51.874 21.6533C51.874 21.717 51.8262 21.7489 51.7783 21.7968C51.6189 21.9243 51.587 21.9722 51.587 22.1795H54.5371V23.1522H51.587V23.6625H53.7079V24.6193H51.587V25.1136H54.5849V26.1661H47.3293L47.3134 26.1501ZM51.8262 32.5128L51.2202 31.1892C51.6986 31.2849 51.9059 31.2849 52.0016 31.2849C52.2886 31.2849 52.3684 31.1573 52.3684 30.95V30.5992H49.3385V32.3852H47.9512V26.6604H53.7716V31.4922C53.7716 32.433 52.8946 32.4968 51.8262 32.5128ZM52.3684 27.6969H49.3385V28.1753H52.3684V27.6969ZM52.3684 29.1002H49.3385V29.6424H52.3684V29.1002Z" fill="#03B8DF"/>
<path d="M60.9158 25.6719L61.3464 25.7676C61.3464 25.7676 61.4739 25.8314 61.4739 25.9111C61.4739 26.0068 61.3942 26.0387 61.2028 26.1344C61.0434 26.5649 60.9318 26.8041 60.852 26.9795H61.8726V28.2552H59.8952V29.0047H61.6972V30.2485H59.8952V32.3854H58.5557V30.2485H56.7379V29.0047H58.5557V28.2552H56.5624V26.9795H57.7425C57.5352 26.4214 57.4395 26.2141 57.2322 25.7995L57.5511 25.6719H56.3232V24.46H58.5557V23.6627H56.8973V22.5305H58.5557V21.478L60.0228 21.5418C60.1344 21.5418 60.1823 21.6215 60.1823 21.6694C60.1823 21.7332 60.1504 21.781 60.1025 21.8129C59.975 21.9086 59.8952 21.9724 59.8952 22.0362V22.5145H61.6493V23.6467H59.8952V24.4441H62.0639V25.656H60.8999L60.9158 25.6719ZM58.492 25.6719C58.7471 26.1822 58.8587 26.4693 58.9385 26.7563L58.4441 26.9795H59.6401C59.7358 26.7722 59.8155 26.5171 60.0547 25.6719H58.492ZM66.7044 32.481C66.1781 32.1143 65.8911 31.8272 65.5243 31.4126C65.2851 31.7475 65.1097 31.9548 64.727 32.3375L63.7702 31.5243V32.4013H62.4148V21.7332H67.1668V24.46C67.1668 25.5763 66.6884 25.9271 65.7476 25.9271H65.1735L64.6154 24.6514H65.4127C65.62 24.6514 65.7635 24.5397 65.7635 24.3165V23.0248H63.7702V26.2301H66.9754L67.5017 26.8998C67.0392 28.6061 66.7044 29.3874 66.2579 30.2485C66.7362 30.8386 67.0552 31.1256 67.693 31.5083L66.7044 32.497V32.481ZM63.7543 27.4898V31.3489C64.121 31.0299 64.3602 30.7588 64.7111 30.2804C64.2805 29.4831 64.0732 28.9091 63.8659 28.1915L64.9821 27.5696C65.0938 28.0479 65.2054 28.3988 65.4605 28.9409C65.6997 28.3988 65.8273 28.0161 65.9549 27.4898H63.7543Z" fill="#03B8DF"/>
<path d="M79.4936 27.0113C79.0152 26.8199 78.5528 26.5967 77.8033 25.8791C77.7555 31.6676 77.4046 32.2098 74.7416 32.2577L74.1356 30.7906C74.6778 30.8544 75.0605 30.8863 75.22 30.8863C75.9057 30.8863 76.0651 30.3122 76.1449 29.9295C76.2884 29.2119 76.3522 28.0478 76.3681 26.7721H74.3589C74.1516 29.6265 73.0672 31.0936 70.4998 32.3374L69.4633 31.1574C70.1331 30.9182 71.2812 30.5035 72.0945 29.4032C72.844 28.3667 72.8759 27.3302 72.8918 26.7721H71.4566V25.5921C70.5796 26.5169 70.1012 26.8518 69.8142 27.0591L68.666 26.0226C70.0693 25.1615 70.9145 24.2526 72.0945 22.0838L73.4818 22.8652C73.4818 22.8652 73.5775 22.9768 73.5775 23.0247C73.5775 23.0885 73.5137 23.1204 73.4978 23.1204C73.4499 23.1523 73.1948 23.216 73.1629 23.2798C72.3975 24.4599 72.2699 24.6672 71.5523 25.4804H77.4046C76.7349 24.6512 76.3362 23.9655 75.9695 22.9768H74.5662V21.5576H77.0857C77.7555 24.125 78.4412 24.8266 80.4823 25.7834L79.4777 27.0432L79.4936 27.0113Z" fill="#03B8DF"/>
<path d="M85.5373 28.5738C85.3938 28.4622 85.0589 28.0954 84.8357 27.6489V32.3691H83.3846V28.9884C83.0178 29.706 82.8264 29.9452 82.6829 30.1366L81.3594 29.4349C82.1089 28.3506 82.97 26.8197 83.1773 24.8902H81.8856V23.471H83.3846V21.4936L84.5805 21.5733C84.7241 21.5733 85.1227 21.6212 85.1227 21.7966C85.1227 21.8444 85.1227 21.8444 84.9792 21.9561C84.8835 22.0358 84.8357 22.0677 84.8357 22.1474V23.471H86.4622V24.8902H84.8357V25.3686C85.0908 25.9905 85.7606 26.8038 86.4782 27.4735L85.5373 28.5738ZM92.6973 22.7853C92.6973 22.7853 92.4102 22.7055 92.3624 22.7055C92.3145 22.7055 91.1983 23.0085 91.0548 23.0564C90.8634 23.1042 89.5558 23.4231 88.2004 23.5985C88.2482 24.3002 88.2642 24.4915 88.2961 24.9061H92.777V26.3254H91.3737V32.385H89.8588V26.3254H88.3598C88.2642 29.6263 87.7698 30.9977 86.6536 32.5445L85.2184 32.0182C86.0317 30.9658 86.9725 29.7539 86.9725 26.15C86.9725 24.8424 86.8768 23.5348 86.7014 22.2431L87.706 22.4026C87.8655 22.4026 88.1366 22.3547 88.2163 22.3388C89.8429 21.972 90.9751 21.7009 91.6129 21.3501L92.6175 22.3388C92.6175 22.3388 92.8408 22.562 92.8408 22.6577C92.8408 22.7374 92.7611 22.7853 92.6973 22.7853Z" fill="#03B8DF"/>
<path d="M28.8315 0.906982H7.97361C3.74627 0.906982 0.319336 4.33392 0.319336 8.56126V29.4192C0.319336 33.6465 3.74627 37.0734 7.97361 37.0734H28.8315C33.0588 37.0734 36.4858 33.6465 36.4858 29.4192V8.56126C36.4858 4.33392 33.0588 0.906982 28.8315 0.906982Z" fill="#03B8DF"/>
<path d="M17.7328 11.2407H19.0564L19.9494 13.0108H16.8398L17.7328 11.2407Z" fill="#1853A4"/>
<path d="M23.0266 12.2932L24.1747 12.963L24.0631 14.9563L21.3682 13.3935L23.0266 12.2932Z" fill="#1853A4"/>
<path d="M27.0779 15.8652L27.7477 17.0293L26.6633 18.6877L25.1006 15.9928L27.0779 15.8652Z" fill="#1853A4"/>
<path d="M28.8163 21.0002V22.3237L27.0303 23.2167V20.1072L28.8163 21.0002Z" fill="#1853A4"/>
<path d="M27.7477 26.2942L27.0779 27.4423L25.1006 27.3307L26.6633 24.6357L27.7477 26.2942Z" fill="#1853A4"/>
<path d="M24.1747 30.3445L23.0266 31.0143L21.3682 29.914L24.0631 28.3672L24.1747 30.3445Z" fill="#1853A4"/>
<path d="M19.0564 32.0826H17.7328L16.8398 30.2966H19.9494L19.0564 32.0826Z" fill="#1853A4"/>
<path d="M13.7617 31.0143L12.5977 30.3445L12.7252 28.3672L15.4202 29.914L13.7617 31.0143Z" fill="#1853A4"/>
<path d="M9.69579 27.4423L9.04199 26.2942L10.1263 24.6357L11.6891 27.3307L9.69579 27.4423Z" fill="#1853A4"/>
<path d="M7.97363 22.3237V20.9842L9.74368 20.1072V23.2167L7.97363 22.3237Z" fill="#1853A4"/>
<path d="M9.04199 17.0293L9.69579 15.8652L11.6891 15.9928L10.1263 18.6877L9.04199 17.0293Z" fill="#1853A4"/>
<path d="M12.6143 12.963L13.7624 12.2932L15.4208 13.3935L12.7259 14.9563L12.6143 12.963Z" fill="#1853A4"/>
<path d="M18.387 12.7717C13.4755 12.7717 9.50488 16.7583 9.50488 21.6539C9.50488 26.5494 13.4915 30.536 18.387 30.536C23.2826 30.536 27.2692 26.5494 27.2692 21.6539C27.2692 16.7583 23.2826 12.7717 18.387 12.7717ZM18.387 24.9867C16.5532 24.9867 15.0542 23.4877 15.0542 21.6539C15.0542 19.82 16.5532 18.3211 18.387 18.3211C20.2209 18.3211 21.7198 19.82 21.7198 21.6539C21.7198 23.4877 20.2209 24.9867 18.387 24.9867Z" fill="white"/>
<path d="M18.3864 34.4426C11.338 34.4426 5.61328 28.7179 5.61328 21.6696C5.61328 14.6212 11.338 8.89648 18.3864 8.89648C25.4347 8.89648 31.1594 14.6212 31.1594 21.6696C31.1594 28.7179 25.4347 34.4426 18.3864 34.4426ZM18.3864 9.99679C11.9599 9.99679 6.71358 15.2272 6.71358 21.6696C6.71358 28.1119 11.944 33.3423 18.3864 33.3423C24.8287 33.3423 30.0591 28.1119 30.0591 21.6696C30.0591 15.2272 24.8287 9.99679 18.3864 9.99679Z" fill="white"/>
<path d="M28.2025 11.0557L26.6357 12.6235L27.4253 13.4126L28.9921 11.8447L28.2025 11.0557Z" fill="white"/>
<path d="M27.8295 9.86708L27.04 10.6562L29.3963 13.0133L30.1857 12.2241L27.8295 9.86708Z" fill="white"/>
<path d="M8.56763 11.0496L7.77832 11.8389L9.34566 13.4062L10.135 12.6169L8.56763 11.0496Z" fill="white"/>
<path d="M8.95276 9.87277L6.5957 12.229L7.38487 13.0184L9.74193 10.6622L8.95276 9.87277Z" fill="white"/>
<path d="M18.96 5.65942H17.8438V9.43872H18.96V5.65942Z" fill="white"/>
<path d="M20.8416 7.7642H15.9461C15.3879 7.7642 14.8458 7.54096 14.4471 7.1423C14.0484 6.74364 13.8252 6.2174 13.8252 5.64333C13.8252 5.06926 14.0484 4.54303 14.4471 4.14437C14.8458 3.74571 15.372 3.52246 15.9461 3.52246H20.8416C21.3997 3.52246 21.9419 3.74571 22.3406 4.14437C22.7392 4.54303 22.9625 5.06926 22.9625 5.64333C22.9625 6.2174 22.7392 6.74364 22.3406 7.1423C21.9419 7.54096 21.4157 7.7642 20.8416 7.7642ZM15.9461 4.65466C15.675 4.65466 15.4358 4.76628 15.2444 4.94169C15.0531 5.13305 14.9574 5.38819 14.9574 5.64333C14.9574 5.89847 15.069 6.15362 15.2444 6.34498C15.4358 6.53633 15.6909 6.63201 15.9461 6.63201H20.8416C21.1127 6.63201 21.3519 6.52039 21.5433 6.34498C21.7346 6.15362 21.8303 5.89847 21.8303 5.64333C21.8303 5.38819 21.7187 5.1171 21.5433 4.94169C21.3519 4.75033 21.0968 4.65466 20.8416 4.65466H15.9461Z" fill="white"/>
<path d="M18.3866 23.5512C17.35 23.5512 16.5049 22.706 16.5049 21.6695C16.5049 20.633 17.35 19.7878 18.3866 19.7878C19.4231 19.7878 20.2682 20.633 20.2682 21.6695C20.2682 22.706 19.4231 23.5512 18.3866 23.5512ZM18.3866 20.8881C17.956 20.8881 17.6052 21.239 17.6052 21.6695C17.6052 22.1001 17.956 22.4509 18.3866 22.4509C18.8171 22.4509 19.1679 22.1001 19.1679 21.6695C19.1679 21.239 18.8171 20.8881 18.3866 20.8881Z" fill="white"/>
<path d="M23.9833 21.0957H19.7256V22.212H23.9833V21.0957Z" fill="white"/>
<path d="M18.96 13.8557H17.8438V14.972H18.96V13.8557Z" fill="#03B8DF"/>
<path d="M21.8081 14.6004L21.25 15.5671L22.2167 16.1253L22.7748 15.1586L21.8081 14.6004Z" fill="#03B8DF"/>
<path d="M24.8837 17.2632L23.917 17.8213L24.4751 18.788L25.4418 18.2299L24.8837 17.2632Z" fill="#03B8DF"/>
<path d="M26.2168 21.0955H25.1006V22.2117H26.2168V21.0955Z" fill="#03B8DF"/>
<path d="M24.4741 24.5094L23.916 25.4761L24.8827 26.0342L25.4408 25.0675L24.4741 24.5094Z" fill="#03B8DF"/>
<path d="M22.2187 27.1709L21.252 27.729L21.8101 28.6957L22.7768 28.1376L22.2187 27.1709Z" fill="#03B8DF"/>
<path d="M18.96 28.3511H17.8438V29.4673H18.96V28.3511Z" fill="#03B8DF"/>
<path d="M14.5513 27.1827L13.9932 28.1494L14.9599 28.7075L15.518 27.7408L14.5513 27.1827Z" fill="#03B8DF"/>
<path d="M12.3183 24.5198L11.3516 25.0779L11.9097 26.0446L12.8764 25.4865L12.3183 24.5198Z" fill="#03B8DF"/>
<path d="M11.7051 21.0955H10.5889V22.2117H11.7051V21.0955Z" fill="#03B8DF"/>
<path d="M11.9077 17.2684L11.3496 18.2351L12.3163 18.7932L12.8744 17.8265L11.9077 17.2684Z" fill="#03B8DF"/>
<path d="M14.9618 14.6062L13.9951 15.1643L14.5532 16.131L15.5199 15.5729L14.9618 14.6062Z" fill="#03B8DF"/>
</svg>
