<svg width="116" height="37" viewBox="0 0 116 37" fill="none" xmlns="http://www.w3.org/2000/svg">
<path d="M42.4214 11.2203C41.88 10.7108 41.0839 10.2013 40.6699 9.96246L41.4183 8.9116C41.9437 9.16635 42.6602 9.64402 43.2334 10.1058L42.4373 11.2203H42.4214ZM42.0233 16.188C42.0233 16.188 41.9915 16.2836 41.9915 16.4746C41.9915 16.5224 41.9915 16.5861 41.9278 16.5861C41.8322 16.5861 41.7049 16.4905 41.6252 16.4269L40.7018 15.6307C41.4501 14.5958 42.087 13.4972 42.5806 12.3349L43.6155 13.131C43.0582 14.3729 42.6443 15.1053 42.0392 16.188H42.0233ZM42.8194 7.78112C42.4691 7.43084 41.8959 6.92133 41.3227 6.52327L42.1507 5.48833C42.6283 5.8227 43.2652 6.31628 43.711 6.74618L42.8194 7.78112ZM45.7013 7.44676C45.4625 7.78112 45.16 8.14733 44.6345 8.57723L43.4563 7.87666C44.1728 7.22385 44.8893 6.44366 45.5103 5.1062L46.784 5.5361C46.8955 5.56794 47.0388 5.63163 47.0388 5.69532C47.0388 5.74309 46.9751 5.79085 46.9432 5.80678C46.8796 5.80678 46.7363 5.85454 46.7203 5.88639C46.6726 5.91823 46.5452 6.18891 46.5134 6.23667H52.1339V7.43084H45.7172L45.7013 7.44676ZM51.1945 11.9527C51.1626 12.4622 51.1626 12.6851 51.0989 13.2583H51.9747V14.4366H50.9556C50.8123 15.2008 50.7327 15.5193 50.4461 15.8218C50.271 15.997 49.7774 16.4269 48.6151 16.4428L47.9623 15.2008C49.3953 15.2008 49.443 15.0098 49.5704 14.4207H45.8605C45.7809 14.7073 45.765 14.755 45.6854 15.0257L44.3957 14.8983C44.5868 14.2137 44.746 13.5449 44.9211 11.9368H43.9976V10.8223H45.0167C45.0644 10.0898 45.1122 9.32557 45.0644 8.32248H51.2741C51.2741 9.08674 51.2741 9.51664 51.2422 10.8223H52.0543V11.9368H51.1785L51.1945 11.9527ZM46.2268 11.9527C46.1631 12.6374 46.0994 13.0354 46.0675 13.2583H47.1502C47.2458 12.7807 47.3254 12.1438 47.3572 11.9527H46.2268ZM46.3701 9.51664C46.3701 10.058 46.3382 10.5993 46.3382 10.8223H47.4687C47.5005 10.2968 47.5483 9.89877 47.5324 9.51664H46.3701ZM48.6628 11.9527C48.631 12.3985 48.5673 12.8284 48.5036 13.2583H49.7455C49.7933 12.7807 49.8252 12.3508 49.8411 11.9527H48.6628ZM48.8221 9.51664C48.8221 10.058 48.7902 10.3924 48.7743 10.8223H49.8889C49.9207 10.1217 49.9207 9.88285 49.9207 9.51664H48.8221Z" fill="#03B8DF"/>
<path d="M58.7104 11.1887C57.5003 14.2776 55.717 15.631 54.9687 16.1882L53.7109 15.3125C55.1438 14.389 55.8922 13.5452 56.8953 11.8733C56.4813 11.4434 55.9877 11.0295 55.4941 10.7269C55.319 11.0295 55.1439 11.2683 54.9528 11.5708L53.6631 10.9339C55.0961 8.97551 55.6374 6.79417 55.8444 5.55225L57.4844 5.85477C57.4844 5.85477 57.5959 5.91846 57.5959 5.99807C57.5959 6.07768 57.4844 6.14137 57.4366 6.15729C57.2297 6.25282 57.2137 6.30059 57.1978 6.39612C57.1023 6.79417 57.0545 6.96932 56.9112 7.36737H59.5702C59.4747 8.67299 59.1881 9.97861 58.7104 11.2046V11.1887ZM56.4495 8.70483C56.3062 9.07104 56.2106 9.30988 56.0355 9.66016C56.4495 9.86715 57.0386 10.2334 57.4366 10.6155C57.7073 9.91492 57.8347 9.45318 57.978 8.70483H56.4495ZM64.3628 13.6248C63.5348 13.2267 62.9457 12.7968 62.4203 12.4147V16.2042H61.051V11.2046C60.6529 10.8225 60.0001 10.2174 59.5065 9.53279L60.43 8.54561C60.5574 8.72076 60.7325 8.95959 61.051 9.3258V5.60001L62.5636 5.71147C62.5636 5.71147 62.7228 5.74331 62.7228 5.82292C62.7228 5.90253 62.6591 5.9503 62.6273 5.96622C62.468 6.0936 62.4203 6.12544 62.4203 6.18913V10.6633C63.3597 11.4116 64.0603 11.8415 65.2226 12.3669L64.3628 13.6407V13.6248Z" fill="#03B8DF"/>
<path d="M72.8807 11.475V14.5002C72.8807 16.2676 72.3235 16.3472 69.8874 16.3472L69.155 14.8027C70.2217 14.946 70.3491 14.962 70.5879 14.962C70.9542 14.962 71.3204 14.8505 71.3204 14.2455V11.4591H66.6074V10.042H71.3204V8.1632L72.1483 8.37019C72.7852 7.86068 73.247 7.44671 73.4539 7.23972H67.7857V5.85449H75.5557L76.3199 6.6506C74.9029 7.94029 73.7883 8.89562 72.8807 9.65989V10.0579H77.5778V11.475H72.8807Z" fill="#03B8DF"/>
<path d="M89.4552 10.0419C88.8024 9.81898 88.3725 9.58015 87.9904 9.37316V10.4559H81.8603V9.405C81.2075 9.80306 80.8254 9.99412 80.2681 10.233L79.2969 9.1184C81.4623 8.25861 82.7838 7.08037 83.9461 5.2334L85.7613 5.55184C85.8568 5.55184 85.9523 5.63145 85.9523 5.71106C85.9523 5.79067 85.9046 5.85436 85.8409 5.87028C86.4618 6.58678 87.1943 7.19182 87.9904 7.68541C88.4362 7.95609 89.4552 8.51336 90.4583 8.79996L89.4552 10.026V10.0419ZM88.6113 16.4108C88.484 16.2197 88.3247 15.9331 87.7675 15.2803C86.016 15.5032 83.166 15.8057 82.7838 15.8535C82.5132 15.8853 81.1598 15.9968 80.8573 16.0445C80.7936 16.0445 80.7617 16.0764 80.7299 16.1401C80.6503 16.2993 80.6184 16.3311 80.5707 16.3311C80.5229 16.3311 80.4751 16.2834 80.4592 16.2197L80.0452 14.5479C80.8413 14.5479 81.2075 14.5479 81.8444 14.516C82.1629 14.0065 82.4335 13.5607 83.0067 12.4621H80.1089V11.2201H89.4711V12.4621H86.7803C87.8789 13.3219 88.9935 14.5001 89.7418 15.4713L88.5795 16.4267L88.6113 16.4108ZM84.8378 6.69824C83.9143 7.81279 83.2456 8.44967 82.1947 9.19802H87.6719C86.5892 8.48152 85.8409 7.8924 84.8378 6.69824ZM85.7613 13.3855L86.6848 12.4621H84.7741C84.1691 13.5129 83.8028 14.0861 83.5799 14.4205C84.6467 14.3727 85.7135 14.309 86.7644 14.1817C86.5892 14.0224 86.2867 13.7358 85.7772 13.3855H85.7613Z" fill="#03B8DF"/>
<path d="M96.4772 13.1787C96.095 12.8921 95.6173 12.5418 95.0919 11.9526V16.2835H93.7545V12.7169C93.3246 13.099 93.0539 13.322 92.6399 13.5767L91.6846 12.5895C93.0857 11.7297 94.264 10.5197 95.0601 9.07073H92.21V7.70143H93.7385V5.44048L95.2193 5.5997C95.2193 5.5997 95.3626 5.64747 95.3626 5.71116C95.3626 5.75893 95.3148 5.80669 95.2671 5.83854C95.0919 6.01368 95.0601 6.04552 95.0601 6.09329V7.70143H96.4294L97.0026 8.27463C96.8115 8.75229 96.5249 9.42102 95.6014 10.6789C96.2065 11.3635 96.6364 11.7138 97.2414 12.1119L96.4772 13.1787ZM95.8562 16.0606V14.6913H98.8655V10.44H96.9389V9.07073H98.8655V5.42456L100.426 5.58378C100.426 5.58378 100.569 5.63155 100.569 5.69524C100.569 5.72708 100.537 5.79077 100.505 5.82261C100.41 5.91815 100.33 5.98184 100.33 6.04553V9.07073H102.655V10.44H100.33V14.6913H102.973V16.0606H95.8562Z" fill="#03B8DF"/>
<path d="M114.676 13.5447C113.72 14.9618 112.399 15.5031 111.714 15.7897L110.775 14.4841C111.348 14.3249 112.287 14.0542 113.068 13.1148C113.848 12.1913 113.991 11.1405 113.991 10.5832C113.991 9.88261 113.784 9.02281 113.068 8.35408C112.272 7.58982 111.38 7.54205 110.902 7.49429C110.488 10.5195 109.74 12.3028 109.326 13.1626C108.944 13.9587 108.355 15.0255 107.702 15.0255C107.24 15.0255 105.154 13.8791 105.154 11.6022C105.154 8.78398 107.479 6.20459 110.775 6.20459C113.418 6.20459 115.504 8.00379 115.504 10.8379C115.504 11.9525 115.153 12.8441 114.692 13.5447H114.676ZM107.829 8.64068C106.922 9.50048 106.555 10.6946 106.555 11.4589C106.555 12.4938 107.145 13.0193 107.367 13.0193C108.036 13.0193 109.119 9.69154 109.374 7.7172C109.007 7.84457 108.434 8.03564 107.813 8.64068H107.829Z" fill="#03B8DF"/>
<path d="M46.132 27.8907C45.9728 27.9703 45.9569 28.0181 45.941 28.1136C45.5747 30.3746 44.8423 31.3936 42.3585 32.333L41.3076 31.1548C43.6959 30.4223 44.508 29.5307 44.5398 27.3812L46.1002 27.6041C46.1957 27.6041 46.2753 27.6678 46.2753 27.7474C46.2753 27.827 46.1798 27.8589 46.132 27.8907ZM47.3899 23.6077V24.2127H50.6858V25.3272H42.5336V24.2127H45.8613V23.6077H41.435V22.4135H45.8613V21.4104L47.4695 21.5696C47.565 21.5696 47.6287 21.6333 47.6287 21.7129C47.6287 21.7448 47.5809 21.8085 47.5491 21.8244C47.4376 21.9518 47.3899 21.9836 47.3899 22.0473V22.4135H51.8799V23.6077H47.3899ZM50.3196 28.3365V26.9991H42.9317V28.3365H41.5146V25.8208H51.7207V28.3365H50.3036H50.3196ZM50.3673 32.126H48.186C47.5491 32.126 47.0237 31.8235 47.0237 31.1388V27.3812L48.4726 27.5404C48.5681 27.5404 48.6318 27.6041 48.6318 27.6837C48.6318 27.7633 48.6 27.7952 48.4885 27.8589C48.4567 27.8907 48.4089 27.9385 48.4089 27.9703V30.2631C48.4089 30.6612 48.5044 30.7726 48.9184 30.7726H49.8897C50.3036 30.7726 50.4947 30.6134 50.6062 29.467L51.9914 29.9447C51.6093 31.9509 51.0997 32.1419 50.3673 32.1419V32.126Z" fill="#03B8DF"/>
<path d="M56.5437 24.7224V26.442C56.9417 26.2987 57.101 26.251 57.3716 26.1554L57.3079 27.5247C57.1328 27.6044 57.0691 27.6203 56.5437 27.8432V31.4734C56.5437 32.1262 55.859 32.2377 54.633 32.2536L54.1713 30.8366C54.2668 30.8366 54.7763 30.8684 54.8559 30.8684C55.254 30.8684 55.254 30.7729 55.254 30.5181V28.3208C55.1425 28.3527 54.5853 28.5438 54.4579 28.6074C54.3942 28.6393 54.3624 28.6711 54.3305 28.703C54.1713 28.8781 54.1554 28.91 54.0757 28.91C53.9484 28.91 53.9165 28.7985 53.9006 28.4482L53.8369 27.2063C54.1076 27.1426 54.5056 27.0471 55.254 26.8401V24.7224H53.8847V23.3531H55.254V21.2673L56.3845 21.2992C56.7347 21.2992 56.7825 21.3788 56.7825 21.4584C56.7825 21.5221 56.7347 21.5699 56.6711 21.6176C56.5755 21.7132 56.5437 21.7609 56.5437 21.8087V23.3531H57.3876V24.7224H56.5437ZM59.8077 26.3624L60.3491 26.458C60.4924 26.4898 60.6834 26.5376 60.6834 26.6649C60.6834 26.7764 60.5561 26.8242 60.3491 26.8719V27.5407H61.7184V28.7826H60.3491V29.9927C61.0656 29.9131 61.1452 29.8971 61.9413 29.8175L61.9094 30.948C61.2726 31.0435 57.9448 31.553 57.8971 31.553C57.8334 31.5849 57.7856 31.6167 57.7379 31.6645C57.5468 31.8874 57.5468 31.9033 57.4672 31.9033C57.3079 31.9033 57.2443 31.6008 57.2443 31.5053L57.0213 30.2793C57.3716 30.2793 57.6264 30.2474 59.0275 30.1201V28.7667H57.6582V27.5247H59.0275V26.3465H57.4672V25.0568H59.0275V23.9741H57.8334V22.7322H59.0275V21.2833L60.2058 21.3469C60.3809 21.3469 60.6357 21.3469 60.6357 21.5062C60.6357 21.5539 60.6357 21.5858 60.5242 21.6654C60.3809 21.7609 60.365 21.7768 60.365 21.8246V22.7322H61.6706V23.9741H60.365V25.0568H61.9891V26.3465H59.8236L59.8077 26.3624ZM64.6958 27.2222C64.4092 26.9993 64.1226 26.7764 63.645 26.5376V32.2855H62.2757V21.2833L63.4858 21.3469C63.8838 21.3788 63.8997 21.4425 63.8997 21.5221C63.8997 21.5699 63.8679 21.6017 63.836 21.6495C63.645 21.8405 63.629 21.8565 63.629 21.9361V25.0568C64.6003 25.5345 65.0302 25.8529 65.3646 26.0917L64.6958 27.2222Z" fill="#03B8DF"/>
<path d="M76.9724 26.1234C76.3514 25.9164 75.6667 25.6775 74.4726 24.8814V25.9641H72.8326V26.8399H76.1444V28.0818H72.8326V30.7886H74.393L73.3899 30.2313C73.8835 29.5148 74.17 28.9097 74.4407 28.2092L75.7623 28.8779C75.7623 28.8779 75.8578 28.9894 75.8578 29.0053C75.8578 29.0371 75.8578 29.1008 75.7623 29.1167C75.603 29.1645 75.5871 29.1804 75.5394 29.2441C75.3005 29.7059 74.8706 30.486 74.6796 30.8045H76.8609V32.126H67.3076V30.8045H69.3775C69.0909 30.0721 68.8043 29.5307 68.3903 28.9894L69.5685 28.2251C70.0144 28.8938 70.301 29.5148 70.5557 30.1517L69.4889 30.7886H71.3678V28.0818H67.9923V26.8399H71.3678V25.9641H69.6004V25.0407C68.9635 25.4546 68.4062 25.8049 67.3872 26.2826L66.209 25.1521C67.0051 24.8496 67.833 24.5312 69.0591 23.5917C70.4284 22.5409 70.8423 21.8562 71.2245 21.1875L72.8644 21.3945C72.8644 21.3945 72.9759 21.4423 72.9759 21.5059C72.9759 21.5378 72.9759 21.5696 72.9441 21.6015C72.9441 21.6333 72.9122 21.6492 72.9122 21.6652C72.9122 21.697 73.5173 22.4772 74.807 23.3529C76.0807 24.2127 76.8768 24.5312 77.9118 24.9611L76.9564 26.1393L76.9724 26.1234ZM72.1161 22.732C71.7658 23.2096 71.2722 23.8147 70.1099 24.6904H74.2019C73.6605 24.2923 72.944 23.735 72.132 22.732H72.1161Z" fill="#03B8DF"/>
<path d="M88.1021 23.2255C88.1498 23.3687 88.2613 23.6235 88.325 24.1967L86.8761 24.2922C86.8761 23.926 86.7805 23.5598 86.6372 23.2255H86.1596C85.9367 23.5757 85.8252 23.7031 85.6342 23.9579C85.7615 23.9579 85.9526 23.9897 85.9526 24.1171C85.9526 24.1649 85.9526 24.1967 85.8571 24.2763C85.7456 24.3718 85.7456 24.3878 85.7456 24.5629H90.2197V27.0786H88.723V25.6456H80.9212V27.0786H79.4404V24.5629H83.9782V23.9101L84.7266 23.9419L83.9782 23.528C84.0738 23.4324 84.1534 23.3847 84.3285 23.1936H83.214C83.3732 23.6076 83.4528 23.9579 83.5006 24.2126L82.0198 24.3718C81.988 24.0216 81.9243 23.5757 81.7492 23.1936H81.2556C81.0645 23.4484 80.7301 23.926 80.2684 24.3718L79.0742 23.6553C79.934 22.8592 80.4276 21.9676 80.762 21.267L82.0676 21.5695C82.0676 21.5695 82.2905 21.6332 82.2905 21.7288C82.2905 21.8084 82.2427 21.8402 82.195 21.8561C82.0198 21.9517 82.0039 21.9517 81.9561 22.0313H84.7744V22.6363C85.2202 22.0313 85.3794 21.6492 85.5705 21.1396L87.0034 21.474C87.0034 21.474 87.2423 21.5377 87.2423 21.6332C87.2423 21.681 87.1945 21.7128 86.9557 21.8561C86.9238 21.888 86.8283 22.0631 86.8124 22.0791H90.2197V23.2414H88.0862L88.1021 23.2255ZM87.6881 32.11V31.8075H82.9274V32.3329H81.3829V26.0914H88.2135V28.639H82.9274V29.0848H89.1529V32.11H87.6881ZM86.7965 27.0627H82.9274V27.6677H86.7965V27.0627ZM87.6881 30.0879H82.9274V30.7407H87.6881V30.0879Z" fill="#03B8DF"/>
<path d="M93.9286 30.0086C93.6897 30.1042 92.5274 30.4704 92.4319 30.55C92.4 30.5818 92.2727 30.7729 92.209 30.7729C92.1453 30.7729 92.1134 30.7092 92.0816 30.5341L91.8428 29.3081C92.4319 29.1807 92.9573 29.0215 93.3872 28.8941V26.3784H92.3045V25.1365H93.3872V23.0825H92.1134V21.9202H96.0462V23.0825H94.7565V25.1365H95.8392V26.3784H94.7565V28.4801C95.2342 28.3686 95.5208 28.2731 96.1258 28.0661V29.1807C95.3934 29.4673 94.6769 29.738 93.9286 30.0086ZM95.4889 31.8715V30.6933H99.0714V29.4673H96.9219V28.3209H99.0714V27.1426H96.699V21.6973H102.765V27.1426H100.377V28.3209H102.638V29.4673H100.377V30.6933H103.036V31.8715H95.473H95.4889ZM99.0714 22.8277H97.9887V23.8468H99.0714V22.8277ZM99.0714 24.9135H97.9887V26.044H99.0714V24.9135ZM101.492 22.8277H100.393V23.8468H101.492V22.8277ZM101.492 24.9135H100.393V26.044H101.492V24.9135Z" fill="#03B8DF"/>
<path d="M28.8712 0.536621H8.04497C3.82406 0.536621 0.402344 3.95835 0.402344 8.17926V29.0054C0.402344 33.2263 3.82406 36.6481 8.04497 36.6481H28.8712C33.0921 36.6481 36.5138 33.2263 36.5138 29.0054V8.17926C36.5138 3.95835 33.0921 0.536621 28.8712 0.536621Z" fill="#03B8DF"/>
<path d="M21.5778 13.6404H17.4062V17.812H21.5778V13.6404Z" fill="#E6F4F9"/>
<path d="M26.7839 9.99438H22.6123V17.8122H26.7839V9.99438Z" fill="#E6F4F9"/>
<path d="M31.9909 6.34814H27.8193V17.7962H31.9909V6.34814Z" fill="#E6F4F9"/>
<path d="M21.5778 20.9329H17.4062V25.1045H21.5778V20.9329Z" fill="#1853A4"/>
<path d="M16.3708 20.9329H12.1992V28.7506H16.3708V20.9329Z" fill="#1853A4"/>
<path d="M11.1648 20.9329H6.99316V32.3809H11.1648V20.9329Z" fill="#1853A4"/>
<path d="M33.0267 18.8469H5.43359V19.8819H33.0267V18.8469Z" fill="white"/>
<path d="M5.94313 6.34814H4.9082V32.3809H5.94313V6.34814Z" fill="white"/>
<path d="M31.9773 31.3457H30.9424V32.3806H31.9773V31.3457Z" fill="#E6F4F9"/>
<path d="M29.906 31.3457H28.8711V32.3806H29.906V31.3457Z" fill="#E6F4F9"/>
<path d="M27.8211 31.3457H26.7861V32.3806H27.8211V31.3457Z" fill="#E6F4F9"/>
<path d="M8.02811 6.34814H6.99316V7.38309H8.02811V6.34814Z" fill="white"/>
<path d="M8.02811 8.43408H6.99316V9.46902H8.02811V8.43408Z" fill="white"/>
<path d="M8.02811 10.5198H6.99316V11.5547H8.02811V10.5198Z" fill="white"/>
<path d="M17.4064 6.34814H9.0791V7.38309H17.4064V6.34814Z" fill="white"/>
<path d="M17.4064 8.43408H9.0791V9.46902H17.4064V8.43408Z" fill="white"/>
<path d="M17.4064 10.5198H9.0791V11.5547H17.4064V10.5198Z" fill="white"/>
</svg>
