<svg width="103" height="37" viewBox="0 0 103 37" fill="none" xmlns="http://www.w3.org/2000/svg">
<path d="M47.5896 11.604L48.2913 15.5746L46.8083 15.8616L46.1226 11.7953L41.9765 12.3375L41.7852 10.9502L45.8834 10.408L45.5963 8.7655L42.5187 9.18011L42.3433 7.85655L45.389 7.47384L44.9904 5.19351L46.3299 5.11377C46.6169 5.11377 46.7126 5.14567 46.7126 5.24134C46.7126 5.28918 46.4893 5.52838 46.5053 5.59217L46.8083 7.28248L49.5829 6.93166L49.7743 8.25521L47.0315 8.60604L47.3186 10.2326L51.0341 9.75417L51.2095 11.1575L47.5737 11.6358L47.5896 11.604Z" fill="#03B8DF"/>
<path d="M61.5589 12.7042L60.3948 12.2099C60.618 11.8431 60.6499 11.7634 61.0008 11.1734C61.2399 10.7747 61.2719 10.7428 61.511 10.3123L59.1829 10.7907L60.1397 15.6543L58.7683 15.9732L57.8912 11.0458L55.563 11.5242L55.1006 10.376L57.6839 9.88171L57.2693 7.60137L58.4812 7.45785C58.4812 7.45785 58.8161 7.42596 58.8161 7.56948C58.8161 7.60137 58.8161 7.61732 58.7204 7.74489C58.6885 7.77678 58.6247 7.87246 58.6407 7.93624L58.9915 9.62657L61.9735 9.05249C62.1967 9.0206 62.3403 8.8133 62.404 8.71762L63.4405 9.4671C62.8824 10.392 62.4519 11.1415 61.5589 12.6883V12.7042Z" fill="#03B8DF"/>
<path d="M69.1163 11.1416C68.893 10.4081 68.5741 9.73833 68.1436 9.08453L69.3236 8.63803C69.7542 9.30778 70.089 9.97752 70.3123 10.6951L69.1322 11.1416H69.1163ZM75.75 8.86128C75.6384 8.92506 75.6224 8.9729 75.4948 9.46724C74.5381 13.3741 71.9707 14.8731 70.7428 15.5907L69.7223 14.6817C72.1939 13.4538 73.9321 11.7157 74.4105 8.09585L75.6543 8.47856C75.8138 8.5264 75.9095 8.62208 75.9095 8.70181C75.9095 8.78154 75.8776 8.79749 75.75 8.84533V8.86128ZM71.4604 10.5197C71.2372 9.75428 70.9501 9.10047 70.5515 8.44667L71.6837 8.01611C72.1621 8.76559 72.4172 9.56292 72.5448 10.0892L71.4445 10.5197H71.4604Z" fill="#03B8DF"/>
<path d="M82.7031 10.5676C82.0972 10.153 81.3158 9.65866 80.2314 9.32379L80.965 8.04807C81.9218 8.33511 82.735 8.76566 83.5005 9.35568L82.7031 10.5517V10.5676ZM86.5462 12.832C84.7921 14.2991 83.325 15.0326 82.1769 15.5907C82.1291 15.6226 82.0972 15.6545 82.0812 15.7342C82.0334 15.9096 82.0015 15.9575 81.9537 15.9575C81.8261 15.9575 81.6826 15.7183 81.6347 15.6067L80.965 14.3788C84.1862 13.0552 86.4346 11.3809 88.5714 8.27133L89.576 9.49919C89.0976 10.2008 88.2366 11.4128 86.5462 12.832ZM84.0745 7.64941C83.3251 7.09129 82.5118 6.69263 81.6028 6.40559L82.3364 5.12988C83.3091 5.41692 84.1064 5.84747 84.8081 6.3737L84.0745 7.64941Z" fill="#03B8DF"/>
<path d="M93.3232 14.7135V13.5813H97.9955L98.6015 9.86583H94.9657V8.68579H100.085L99.2872 13.5654H101.711V14.6976H93.3232V14.7135Z" fill="#03B8DF"/>
<path d="M50.5714 23.8031C49.9973 25.302 49.3914 26.8967 48.004 28.5711C46.6964 30.1816 45.2772 30.9471 44.5118 31.3617L43.1244 30.2454C45.325 29.2089 47.6054 27.5664 48.913 23.7234H42.1357V22.2244H49.3435C49.503 22.2244 49.6305 22.1287 49.7581 22.0171L51.0179 23.1652C50.7946 23.3885 50.6671 23.532 50.5714 23.8031Z" fill="#03B8DF"/>
<path d="M62.1485 30.8197V30.2775H56.344V30.7719H54.8291V22.4319H63.6634V30.8197H62.1485ZM62.1485 23.8671H56.344V28.8264H62.1485V23.8671Z" fill="#03B8DF"/>
<path d="M67.4424 27.2318V25.6052H76.5159V27.2318H67.4424Z" fill="#03B8DF"/>
<path d="M88.0455 22.8624C88.0934 23.0059 88.205 23.2611 88.2688 23.8352L86.8176 23.9308C86.8176 23.5641 86.722 23.1973 86.5784 22.8624H86.1001C85.8768 23.2132 85.7652 23.3408 85.5738 23.596C85.7014 23.596 85.8927 23.6278 85.8927 23.7554C85.8927 23.8033 85.8927 23.8351 85.7971 23.9149C85.6854 24.0106 85.6854 24.0265 85.6854 24.2019H90.1664V26.7215H88.6674V25.2863H80.8537V26.7215H79.3707V24.2019H83.9154V23.5481L84.6649 23.58L83.9154 23.1654C84.0111 23.0697 84.0908 23.0219 84.2662 22.8305H83.15C83.3094 23.2451 83.3892 23.596 83.437 23.8511L81.954 24.0106C81.9221 23.6597 81.8583 23.2132 81.6829 22.8305H81.1886C80.9972 23.0857 80.6623 23.5641 80.1999 24.0106L79.0039 23.293C79.865 22.4957 80.3593 21.6027 80.6942 20.901L82.0018 21.204C82.0018 21.204 82.2251 21.2678 82.2251 21.3635C82.2251 21.4432 82.1772 21.4751 82.1294 21.491C81.954 21.5867 81.938 21.5867 81.8902 21.6664H84.7127V22.2724C85.1592 21.6664 85.3187 21.2837 85.51 20.7734L86.9452 21.1083C86.9452 21.1083 87.1844 21.1721 87.1844 21.2678C87.1844 21.3156 87.1366 21.3475 86.8974 21.491C86.8655 21.5229 86.7698 21.6983 86.7539 21.7143H90.1664V22.8784H88.0296L88.0455 22.8624ZM87.6309 31.7605V31.4575H82.8629V31.9838H81.3161V25.7328H88.1571V28.2842H82.8629V28.7307H89.098V31.7605H87.6309ZM86.7379 26.7055H82.8629V27.3115H86.7379V26.7055ZM87.6309 29.7353H82.8629V30.3891H87.6309V29.7353Z" fill="#03B8DF"/>
<path d="M93.8663 29.6552C93.6271 29.7509 92.463 30.1177 92.3674 30.1974C92.3355 30.2293 92.2079 30.4207 92.1441 30.4207C92.0803 30.4207 92.0484 30.3569 92.0165 30.1815L91.7773 28.9536C92.3674 28.826 92.8936 28.6666 93.3241 28.539V26.0195H92.2398V24.7756H93.3241V22.7186H92.0484V21.5545H95.9872V22.7186H94.6955V24.7756H95.7799V26.0195H94.6955V28.1244C95.1739 28.0128 95.461 27.9171 96.0669 27.7098V28.826C95.3334 29.1131 94.6158 29.3842 93.8663 29.6552ZM95.4291 31.5369V30.3569H99.017V29.129H96.8643V27.9809H99.017V26.8008H96.641V21.3472H102.717V26.8008H100.325V27.9809H102.589V29.129H100.325V30.3569H102.988V31.5369H95.4131H95.4291ZM99.017 22.4794H97.9327V23.4999H99.017V22.4794ZM99.017 24.5683H97.9327V25.7005H99.017V24.5683ZM101.441 22.4794H100.341V23.4999H101.441V22.4794ZM101.441 24.5683H100.341V25.7005H101.441V24.5683Z" fill="#03B8DF"/>
<path d="M28.7251 0.138428H7.86716C3.63982 0.138428 0.212891 3.56536 0.212891 7.7927V28.6506C0.212891 32.8779 3.63982 36.3049 7.86716 36.3049H28.7251C32.9524 36.3049 36.3793 32.8779 36.3793 28.6506V7.7927C36.3793 3.56536 32.9524 0.138428 28.7251 0.138428Z" fill="#03B8DF"/>
<path d="M17.2586 32.3661C16.9078 32.3342 16.541 32.2704 16.1902 32.2066L16.3815 31.186C16.7005 31.2498 17.0353 31.2976 17.3702 31.3295L17.2586 32.3661ZM15.1377 31.9833C14.7869 31.8877 14.4361 31.792 14.1012 31.6804L14.4361 30.6917C14.755 30.8033 15.0739 30.899 15.3928 30.9787L15.1377 31.9833ZM13.0966 31.2976C12.7617 31.1541 12.4428 31.0106 12.1079 30.8512L12.5703 29.9263C12.8733 30.0698 13.1763 30.2133 13.4793 30.3409L13.0806 31.2976H13.0966ZM11.167 30.3249C10.8641 30.1336 10.5451 29.9422 10.2581 29.7349L10.8481 28.8738C11.1192 29.0652 11.4062 29.2406 11.6933 29.416L11.167 30.309V30.3249ZM9.397 29.097C9.10996 28.8738 8.83888 28.6346 8.58374 28.3954L9.30132 27.63C9.54052 27.8532 9.79567 28.0765 10.0668 28.2838L9.41295 29.097H9.397ZM7.81831 27.63C7.57911 27.3748 7.33991 27.0878 7.11666 26.8167L7.92993 26.1629C8.13723 26.418 8.36049 26.6732 8.58374 26.9283L7.81831 27.6459V27.63ZM6.46287 25.9556C6.25556 25.6686 6.0642 25.3496 5.87284 25.0467L6.76585 24.5204C6.94126 24.8075 7.11667 25.0945 7.30802 25.3656L6.44692 25.9556H6.46287ZM5.36256 24.1058C5.2031 23.7869 5.04363 23.452 4.91606 23.1171L5.87284 22.7185C6.00042 23.0215 6.14394 23.3404 6.28745 23.6274L5.36256 24.0899V24.1058ZM4.53335 22.1125C4.42173 21.7776 4.3101 21.4268 4.23037 21.076L5.23499 20.8209C5.31472 21.1398 5.4104 21.4747 5.52202 21.7776L4.53335 22.1125ZM4.00712 20.0235C3.94333 19.6727 3.8955 19.306 3.84766 18.9551L4.88417 18.8435C4.91607 19.1784 4.9639 19.5133 5.02769 19.8322L4.00712 20.0235Z" fill="#E6F4F9"/>
<path d="M19.4281 31.4089H18.3916V32.4455H19.4281V31.4089Z" fill="#E6F4F9"/>
<path d="M4.80507 16.7864H3.76855V17.8229H4.80507V16.7864Z" fill="#E6F4F9"/>
<path d="M26.6512 18.2693C26.1887 22.1443 22.8878 25.1581 18.8853 25.1581C17.0674 25.1581 15.393 24.5362 14.0535 23.4838L10.7207 26.8166C12.9054 28.6982 15.7598 29.8464 18.8853 29.8464C25.4871 29.8464 30.877 24.7435 31.3554 18.2693H26.6352H26.6512Z" fill="#E6F4F9"/>
<path d="M17.9443 9.56259V4.8584C11.47 5.33679 6.36719 10.7426 6.36719 17.3285C6.36719 20.454 7.51532 23.2924 9.39699 25.493L12.7298 22.1602C11.6933 20.8367 11.0554 19.1623 11.0554 17.3285C11.0554 13.3259 14.0693 10.025 17.9443 9.56259Z" fill="#1853A4"/>
<path d="M26.7634 5.03388C26.4604 4.84252 26.1574 4.66711 25.8385 4.4917L20.624 9.70617C21.0067 9.78591 21.3894 9.91348 21.7562 10.057L26.7634 5.04983V5.03388Z" fill="white"/>
<path d="M25.0888 4.12489C24.7539 3.96543 24.4031 3.82191 24.0523 3.69434L19.8105 7.93608V9.40315L25.0888 4.12489Z" fill="white"/>
<path d="M28.8204 6.64429L24.0205 11.4442C24.2757 11.6674 24.5308 11.9225 24.754 12.1777L29.5539 7.37782C29.3147 7.12268 29.0755 6.88348 28.8204 6.64429Z" fill="white"/>
<path d="M28.2466 6.13395C27.9755 5.9107 27.7044 5.7034 27.4174 5.49609L22.5059 10.4076C22.8248 10.567 23.1278 10.7584 23.4148 10.9657L28.2466 6.13395Z" fill="white"/>
<path d="M19.8262 2.76929V4.23635L21.1497 2.9128C20.7192 2.84902 20.2727 2.80118 19.8262 2.76929Z" fill="white"/>
<path d="M23.2387 3.39111C22.856 3.27949 22.4733 3.16787 22.0746 3.08813L19.8262 5.33658V6.80364L23.2387 3.39111Z" fill="white"/>
<path d="M33.4446 16.3875C33.4127 15.941 33.3649 15.4945 33.3011 15.064L31.9775 16.3875H33.4446Z" fill="white"/>
<path d="M30.7343 8.79723C30.527 8.5102 30.3197 8.23911 30.0964 7.96802L25.2646 12.7998C25.472 13.0868 25.6633 13.3898 25.8228 13.7087L30.7343 8.79723Z" fill="white"/>
<path d="M33.1257 14.1389C33.03 13.7403 32.9343 13.3576 32.8227 12.9749L29.4102 16.3874H30.8772L33.1257 14.1389Z" fill="white"/>
<path d="M32.536 12.1618C32.4084 11.8109 32.2649 11.4601 32.1054 11.1252L26.8271 16.4035H28.2942L32.536 12.1618Z" fill="white"/>
<path d="M31.7232 10.3917C31.5478 10.0728 31.3724 9.76978 31.181 9.4668L26.1738 14.474C26.3173 14.8407 26.429 15.2075 26.5247 15.6062L31.7391 10.3917H31.7232Z" fill="white"/>
<path d="M19.4435 21.2034H18.3272C17.7372 21.2034 17.195 20.9802 16.7804 20.5656C16.3658 20.151 16.1426 19.5928 16.1426 19.0028H17.1791C17.1791 19.3058 17.3067 19.6088 17.514 19.8161C17.7372 20.0234 18.0243 20.1509 18.3272 20.1509H19.4435C19.7465 20.1509 20.0494 20.0234 20.2568 19.8161C20.48 19.5928 20.5916 19.3058 20.5916 19.0028C20.5916 18.6998 20.4641 18.3968 20.2568 18.1895C20.0335 17.9663 19.7465 17.8547 19.4435 17.8547H18.3272C17.7372 17.8547 17.195 17.6314 16.7804 17.2168C16.3658 16.8022 16.1426 16.2441 16.1426 15.67C16.1426 15.0959 16.3658 14.5378 16.7804 14.1232C17.211 13.7086 17.7532 13.4854 18.3432 13.4854H19.4594C20.0335 13.4854 20.5916 13.7086 21.0062 14.1232C21.4208 14.5538 21.66 15.0959 21.66 15.686H20.6235C20.6235 15.383 20.4959 15.08 20.2886 14.8727C20.0654 14.6654 19.7784 14.5378 19.4754 14.5378H18.3591C18.0561 14.5378 17.7691 14.6654 17.5459 14.8727C17.3386 15.0959 17.211 15.383 17.211 15.686C17.211 15.9889 17.3386 16.2919 17.5459 16.4992C17.7691 16.7225 18.0561 16.8341 18.3591 16.8341H19.4754C20.0654 16.8341 20.6076 17.0573 21.0222 17.472C21.4368 17.8866 21.66 18.4447 21.66 19.0188C21.66 19.5928 21.4368 20.151 21.0222 20.5656C20.6076 20.9802 20.0494 21.2034 19.4594 21.2034H19.4435Z" fill="white"/>
<path d="M19.3959 12.6401H18.3594V13.9796H19.3959V12.6401Z" fill="white"/>
<path d="M19.3959 20.6772H18.3594V22.0167H19.3959V20.6772Z" fill="white"/>
</svg>
