<svg width="116" height="37" viewBox="0 0 116 37" fill="none" xmlns="http://www.w3.org/2000/svg">
<path d="M50.8621 8.41666C50.5117 9.40427 50.2568 10.137 49.3966 11.4751C49.7152 11.7459 50.0179 12.0167 50.4639 12.4467L49.5241 13.5459C49.3011 13.3388 49.0621 13.0839 48.5364 12.622C47.5488 13.7211 46.6409 14.6131 44.5064 15.7282L43.3595 14.5335C45.4303 13.8167 46.5134 12.7335 47.4533 11.7299C46.9117 11.3317 46.3223 10.9175 45.3506 10.3919L46.1311 9.43613C46.8957 9.77064 47.4214 10.0414 48.2975 10.6467C49.0621 9.51577 49.2692 8.92639 49.4444 8.28922H46.1789C45.3347 9.46799 44.7134 10.2167 43.8692 10.8698L42.6904 9.99365C44.4904 8.7671 45.717 6.60073 46.2586 5.00781L47.6603 5.42197C47.6603 5.42197 47.9152 5.51754 47.9152 5.61312C47.9152 5.69276 47.8037 5.74055 47.6285 5.8202C47.4692 6.12285 47.2303 6.61666 46.9754 7.06267H49.9064C50.0657 7.06267 50.2887 6.88746 50.4798 6.76002L51.4196 7.74763C51.1966 7.93878 50.9736 8.16179 50.878 8.46445L50.8621 8.41666Z" fill="#03B8DF"/>
<path d="M63.4301 6.3776C63.239 6.3776 63.2071 6.40947 63.0319 6.60062C62.3948 7.33336 61.6779 7.98646 60.9293 8.59177V15.3776H59.3363V9.77053C58.4762 10.344 57.616 10.8856 56.1346 11.5865L55.0195 10.4555C57.6797 9.40415 60.4832 7.31743 62.4107 5.03955L63.5257 5.96345C63.5257 5.96345 63.7487 6.17052 63.7487 6.2661C63.7487 6.36168 63.7009 6.36167 63.4461 6.3776H63.4301Z" fill="#03B8DF"/>
<path d="M76.1095 14.8841C75.9502 14.3425 75.8227 14.0398 75.5679 13.4504C74.3413 13.6575 68.2882 14.6611 68.1926 14.7248C68.1608 14.7248 68.0174 14.8841 68.0015 14.9C67.9696 14.9319 67.9537 14.9478 67.9059 14.9478C67.8103 14.9478 67.7625 14.8363 67.7148 14.5973L67.4121 13.1159C67.7148 13.1159 68.0811 13.0841 68.8298 13.0204C69.8174 10.5035 70.7732 7.71593 71.3466 5.48584L72.844 5.85221C72.9555 5.88407 73.1944 5.96371 73.1944 6.09115C73.1944 6.15486 73.1626 6.17079 72.9555 6.29823C72.828 6.36194 72.7962 6.3938 72.6847 6.74424C72.0157 8.71946 70.9325 11.4752 70.3749 12.8611C72.1909 12.654 73.5289 12.4788 74.9148 12.2398C74.5962 11.7142 74.1661 11.0292 73.4493 10.2646L74.8033 9.59557C76.0457 11.077 76.8741 12.4788 77.5431 14.0717L76.1095 14.8681V14.8841Z" fill="#03B8DF"/>
<path d="M83.5329 5.74032C83.3417 5.88369 83.3258 5.89961 83.3258 5.93147V11.2996H81.8125V5.2943L83.3258 5.42174C83.4214 5.42174 83.6603 5.4536 83.6603 5.5651C83.6603 5.62882 83.5806 5.69254 83.5329 5.74032ZM88.8213 5.64475C88.6621 5.80404 88.6621 5.85183 88.6621 6.20227C88.6621 6.31378 88.6621 6.88723 88.6621 7.01466C88.6621 9.49961 88.6302 10.5032 88.232 11.7456C87.4833 14.0076 85.8267 14.9474 84.5045 15.6164L83.3895 14.3739C86.0019 13.3386 87.101 12.1279 87.101 8.28899C87.101 7.98634 87.0691 6.2182 87.0054 5.19873L88.6302 5.2943C88.6302 5.2943 88.9488 5.29431 88.9488 5.4536C88.9488 5.48546 88.9488 5.54917 88.8054 5.64475H88.8213Z" fill="#03B8DF"/>
<path d="M93.4258 11.1404V9.51562H102.489V11.1404H93.4258Z" fill="#03B8DF"/>
<path d="M109.737 8.09795C108.702 11.0767 108.049 12.351 107.38 13.5617L106.01 12.9723C107.029 11.4112 107.666 9.77051 108.192 8.33688C107.603 8.41653 107.252 8.44839 106.647 8.49618L106.456 7.17405C107.3 7.17405 107.826 7.11034 108.622 7.01476C108.845 6.25016 108.989 5.69264 109.084 4.91211L110.47 5.21476C110.47 5.21476 110.773 5.29441 110.773 5.43777C110.773 5.5652 110.55 5.64485 110.486 5.7245C110.486 5.7245 110.231 6.55282 110.183 6.71211C110.932 6.52096 111.314 6.39353 111.649 6.28202V7.71565C111.219 7.82715 110.82 7.93866 109.737 8.12981V8.09795ZM114.245 14.8679C113.815 14.5174 113.481 14.2944 112.987 14.0236C112.875 15.0431 112.493 15.5847 110.82 15.5847C110.008 15.5847 109.275 15.4572 108.75 14.9794C108.542 14.8041 108.272 14.4378 108.272 13.8962C108.272 13.2112 108.766 12.0803 110.534 12.0803C110.948 12.0803 111.266 12.1121 111.521 12.1599C111.489 11.8732 111.346 10.567 111.346 10.2962C111.346 9.69087 111.633 9.30857 111.888 8.98999L113.21 9.7068C112.796 10.0413 112.732 10.3599 112.732 10.7263C112.732 10.9971 112.764 11.5546 112.891 12.4944C113.735 12.8289 114.277 13.1475 115.089 13.6572L114.245 14.8519V14.8679ZM110.47 13.2431C109.801 13.2431 109.498 13.5935 109.498 13.8484C109.498 14.1351 109.849 14.4218 110.55 14.4218C111.585 14.4218 111.569 13.8802 111.569 13.4342C111.346 13.3705 110.9 13.2431 110.454 13.2431H110.47ZM114.819 9.42007C113.974 8.91034 113.289 8.57582 112.031 8.25724L112.604 7.15813C113.544 7.31742 114.5 7.62007 115.44 8.33688L114.819 9.42007Z" fill="#03B8DF"/>
<path d="M42.7067 23.5653C42.627 24.5369 42.4359 25.429 42.181 26.2573L40.9863 25.9069C41.4642 24.4892 41.5439 23.3263 41.5757 22.944L42.7545 23.167C42.9934 23.1989 43.0093 23.2785 43.0093 23.3422C43.0093 23.4856 42.85 23.5334 42.7067 23.5653ZM45.2394 25.4927V24.4573C45.0801 24.1706 44.9208 23.9316 44.4748 23.4538V31.721H43.0571V20.7617L44.666 20.9369C44.7616 20.9369 44.889 20.9688 44.889 21.0962C44.889 21.2237 44.7934 21.2555 44.7138 21.3033C44.6182 21.3511 44.4908 21.4148 44.4908 21.5582V23.1192L45.0164 22.5776C45.4146 22.8644 45.8766 23.3104 46.1633 23.7883L45.335 24.4573H48.0748V23.9635H46.227V23.0077H48.0748V22.498H45.4784V21.5263H48.0748V20.7936L49.6359 20.9051C49.6359 20.9051 49.7952 20.9529 49.7952 21.0007C49.7952 21.0644 49.7474 21.0962 49.6996 21.144C49.5403 21.2714 49.5085 21.3192 49.5085 21.5263H52.4554V22.498H49.5085V23.0077H51.627V23.9635H49.5085V24.4573H52.5031V25.5086H45.2554L45.2394 25.4927ZM49.7474 31.8484L49.1421 30.5263C49.62 30.6219 49.827 30.6219 49.9226 30.6219C50.2093 30.6219 50.289 30.4945 50.289 30.2874V29.9369H47.2624V31.721H45.8766V26.0024H51.6908V30.829C51.6908 31.7688 50.8146 31.8325 49.7474 31.8484ZM50.289 27.0378H47.2624V27.5157H50.289V27.0378ZM50.289 28.4396H47.2624V28.9812H50.289V28.4396Z" fill="#03B8DF"/>
<path d="M58.8269 25.0151L59.257 25.1106C59.257 25.1106 59.3844 25.1744 59.3844 25.254C59.3844 25.3496 59.3047 25.3814 59.1136 25.477C58.9543 25.9071 58.8428 26.146 58.7632 26.3213H59.7826V27.5956H57.8074V28.3443H59.6074V29.5867H57.8074V31.7213H56.4693V29.5867H54.6534V28.3443H56.4693V27.5956H54.4782V26.3213H55.657C55.4499 25.7637 55.3543 25.5567 55.1472 25.1425L55.4658 25.0151H54.2393V23.8044H56.4693V23.008H54.8127V21.877H56.4693V20.8257L57.9348 20.8894C58.0463 20.8894 58.0941 20.9691 58.0941 21.0168C58.0941 21.0806 58.0623 21.1283 58.0145 21.1602C57.887 21.2558 57.8074 21.3195 57.8074 21.3832V21.8611H59.5596V22.9921H57.8074V23.7885H59.9738V24.9991H58.8109L58.8269 25.0151ZM56.4056 25.0151C56.6605 25.5248 56.772 25.8115 56.8516 26.0983L56.3578 26.3213H57.5525C57.6481 26.1142 57.7278 25.8593 57.9667 25.0151H56.4056ZM64.6092 31.8168C64.0835 31.4505 63.7968 31.1637 63.4304 30.7496C63.1915 31.0841 63.0162 31.2912 62.6339 31.6735L61.6782 30.8611V31.7372H60.3242V21.0806H65.0711V23.8044C65.0711 24.9195 64.5932 25.2699 63.6534 25.2699H63.08L62.5224 23.9956H63.3189C63.526 23.9956 63.6693 23.8841 63.6693 23.6611V22.3708H61.6782V25.5726H64.88L65.4056 26.2416C64.9437 27.946 64.6092 28.7266 64.1632 29.5708C64.641 30.1602 64.9596 30.4469 65.5968 30.8292L64.6092 31.8168ZM61.6623 26.831V30.6859C62.0286 30.3673 62.2676 30.0965 62.618 29.6186C62.1879 28.8221 61.9809 28.2487 61.7738 27.5319L62.8888 26.9106C63.0003 27.3885 63.1118 27.739 63.3667 28.2806C63.6056 27.739 63.7331 27.3567 63.8605 26.831H61.6623Z" fill="#03B8DF"/>
<path d="M77.3843 26.3529C76.9064 26.1617 76.4445 25.9387 75.6958 25.2219C75.648 31.0042 75.2976 31.5458 72.6374 31.5936L72.0321 30.1281C72.5737 30.1918 72.956 30.2237 73.1153 30.2237C73.8002 30.2237 73.9595 29.6502 74.0392 29.2679C74.1825 28.5511 74.2462 27.3883 74.2622 26.1139H72.2551C72.048 28.9653 70.9648 30.4308 68.4002 31.6732L67.3648 30.4945C68.0338 30.2555 69.1807 29.8414 69.9931 28.7423C70.7418 27.7069 70.7737 26.6715 70.7896 26.1139H69.356V24.9352C68.4799 25.8591 68.002 26.1936 67.7153 26.4007L66.5684 25.3653C67.9701 24.5051 68.8144 23.5971 69.9931 21.4308L71.379 22.2113C71.379 22.2113 71.4746 22.3228 71.4746 22.3706C71.4746 22.4343 71.4108 22.4662 71.3949 22.4662C71.3471 22.498 71.0923 22.5617 71.0604 22.6254C70.2958 23.8042 70.1684 24.0113 69.4515 24.8237H75.2976C74.6285 23.9954 74.2303 23.3104 73.8639 22.3069H72.4622V20.8892H74.979C75.648 23.4538 76.333 24.1546 78.3719 25.1104L77.3684 26.3688L77.3843 26.3529Z" fill="#03B8DF"/>
<path d="M83.4215 27.9142C83.2781 27.8027 82.9436 27.4363 82.7206 26.9903V31.7053H81.2711V28.3283C80.9047 29.0451 80.7135 29.2841 80.5702 29.4752L79.248 28.7743C79.9967 27.6912 80.8569 26.162 81.064 24.2345H79.7737V22.8168H81.2711V20.8416L82.4657 20.9213C82.6091 20.9213 83.0073 20.969 83.0073 21.1443C83.0073 21.192 83.0073 21.192 82.864 21.3036C82.7684 21.3832 82.7206 21.4151 82.7206 21.4947V22.8168H84.3454V24.2345H82.7206V24.7124C82.9755 25.3336 83.6445 26.146 84.3613 26.8151L83.4215 27.9142ZM90.5737 22.1319C90.5737 22.1319 90.287 22.0522 90.2392 22.0522C90.1914 22.0522 89.0764 22.3549 88.933 22.4027C88.7419 22.4505 87.4357 22.769 86.0817 22.9443C86.1295 23.6451 86.1454 23.8363 86.1772 24.2505H90.6534V25.6682H89.2516V31.7212H87.7383V25.6682H86.241C86.1454 28.9655 85.6516 30.3354 84.5365 31.8805L83.1029 31.3549C83.9153 30.3035 84.8551 29.0929 84.8551 25.4929C84.8551 24.1867 84.7595 22.8805 84.5843 21.5903L85.5879 21.7496C85.7472 21.7496 86.018 21.7018 86.0976 21.6859C87.7224 21.3195 88.8534 21.0487 89.4905 20.6982L90.4941 21.6859C90.4941 21.6859 90.7171 21.9089 90.7171 22.0044C90.7171 22.0841 90.6374 22.1319 90.5737 22.1319Z" fill="#03B8DF"/>
<path d="M28.1628 0H7.9646C3.56587 0 0 3.56587 0 7.9646V28.1628C0 32.5616 3.56587 36.1274 7.9646 36.1274H28.1628C32.5616 36.1274 36.1274 32.5616 36.1274 28.1628V7.9646C36.1274 3.56587 32.5616 0 28.1628 0Z" fill="#03B8DF"/>
<path d="M17.395 10.3286H18.733L19.6091 12.0968H16.5029L17.395 10.3286Z" fill="#1853A4"/>
<path d="M22.684 11.3799L23.8468 12.0489L23.7194 14.0241L21.0273 12.479L22.684 11.3799Z" fill="#1853A4"/>
<path d="M26.746 14.9478L27.4151 16.1106L26.3159 17.7672L24.7549 15.0752L26.746 14.9478Z" fill="#1853A4"/>
<path d="M28.4654 20.0615V21.3995L26.6973 22.2916V19.1694L28.4654 20.0615Z" fill="#1853A4"/>
<path d="M27.4151 25.3656L26.746 26.5125L24.7549 26.401L26.3159 23.709L27.4151 25.3656Z" fill="#1853A4"/>
<path d="M23.8468 29.4117L22.684 30.0808L21.0273 28.9817L23.7194 27.4365L23.8468 29.4117Z" fill="#1853A4"/>
<path d="M18.733 31.1319H17.395L16.5029 29.3638H19.6091L18.733 31.1319Z" fill="#1853A4"/>
<path d="M13.4291 30.0808L12.2822 29.4117L12.3937 27.4365L15.0858 28.9817L13.4291 30.0808Z" fill="#1853A4"/>
<path d="M9.38289 26.5123L8.71387 25.3654L9.81298 23.6929L11.3581 26.3849L9.38289 26.5123Z" fill="#1853A4"/>
<path d="M7.64648 21.3995V20.0615L9.43055 19.1694V22.2916L7.64648 21.3995Z" fill="#1853A4"/>
<path d="M8.71387 16.1106L9.38289 14.9478L11.3581 15.0752L9.81298 17.7513L8.71387 16.1106Z" fill="#1853A4"/>
<path d="M12.2822 12.0489L13.4291 11.3799L15.0858 12.479L12.3937 14.0241L12.2822 12.0489Z" fill="#1853A4"/>
<path d="M18.0649 11.8579C13.1588 11.8579 9.19238 15.8402 9.19238 20.7305C9.19238 25.6207 13.1747 29.603 18.0649 29.603C22.9552 29.603 26.9375 25.6207 26.9375 20.7305C26.9375 15.8402 22.9552 11.8579 18.0649 11.8579ZM18.0649 24.0597C16.2331 24.0597 14.7357 22.5623 14.7357 20.7305C14.7357 18.8986 16.2331 17.4013 18.0649 17.4013C19.8968 17.4013 21.3942 18.8986 21.3942 20.7305C21.3942 22.5623 19.8968 24.0597 18.0649 24.0597Z" fill="white"/>
<path d="M18.064 33.4893C11.0233 33.4893 5.30469 27.7707 5.30469 20.73C5.30469 13.6893 11.0233 7.9707 18.064 7.9707C25.1047 7.9707 30.8233 13.6893 30.8233 20.73C30.8233 27.7707 25.1047 33.4893 18.064 33.4893ZM18.064 9.06982C11.6445 9.06982 6.4038 14.2946 6.4038 20.73C6.4038 27.1654 11.6286 32.3902 18.064 32.3902C24.4994 32.3902 29.7242 27.1654 29.7242 20.73C29.7242 14.2946 24.4994 9.06982 18.064 9.06982Z" fill="white"/>
<path d="M27.8727 10.1423L26.3076 11.7085L27.0963 12.4967L28.6615 10.9305L27.8727 10.1423Z" fill="white"/>
<path d="M27.4927 8.96217L26.7041 9.75049L29.0578 12.105L29.8464 11.3167L27.4927 8.96217Z" fill="white"/>
<path d="M8.25818 10.1373L7.46973 10.9258L9.03537 12.4914L9.82383 11.703L8.25818 10.1373Z" fill="white"/>
<path d="M8.65236 8.96809L6.29785 11.3218L7.08617 12.1104L9.44068 9.75668L8.65236 8.96809Z" fill="white"/>
<path d="M18.6219 4.75293H17.5068V8.52816H18.6219V4.75293Z" fill="white"/>
<path d="M20.501 6.85533H15.6108C15.0532 6.85533 14.5117 6.63232 14.1134 6.23409C13.7152 5.83586 13.4922 5.3102 13.4922 4.73674C13.4922 4.16329 13.7152 3.63763 14.1134 3.2394C14.5117 2.84117 15.0373 2.61816 15.6108 2.61816H20.501C21.0586 2.61816 21.6002 2.84117 21.9984 3.2394C22.3966 3.63763 22.6196 4.16329 22.6196 4.73674C22.6196 5.3102 22.3966 5.83586 21.9984 6.23409C21.6002 6.63232 21.0745 6.85533 20.501 6.85533ZM15.6108 3.74914C15.34 3.74914 15.101 3.86064 14.9099 4.03586C14.7187 4.22701 14.6232 4.48188 14.6232 4.73674C14.6232 4.99161 14.7347 5.24648 14.9099 5.43763C15.101 5.62878 15.3559 5.72435 15.6108 5.72435H20.501C20.7718 5.72435 21.0108 5.61285 21.2019 5.43763C21.3931 5.24648 21.4886 4.99161 21.4886 4.73674C21.4886 4.48188 21.3771 4.21108 21.2019 4.03586C21.0108 3.84471 20.7559 3.74914 20.501 3.74914H15.6108Z" fill="white"/>
<path d="M18.0642 22.6094C17.0288 22.6094 16.1846 21.7651 16.1846 20.7297C16.1846 19.6943 17.0288 18.8501 18.0642 18.8501C19.0996 18.8501 19.9439 19.6943 19.9439 20.7297C19.9439 21.7651 19.0996 22.6094 18.0642 22.6094ZM18.0642 19.9492C17.6341 19.9492 17.2837 20.2997 17.2837 20.7297C17.2837 21.1598 17.6341 21.5103 18.0642 21.5103C18.4943 21.5103 18.8447 21.1598 18.8447 20.7297C18.8447 20.2997 18.4943 19.9492 18.0642 19.9492Z" fill="white"/>
<path d="M23.6388 20.1724H19.3857V21.2874H23.6388V20.1724Z" fill="white"/>
<path d="M18.6209 12.9248H17.5059V14.0399H18.6209V12.9248Z" fill="#03B8DF"/>
<path d="M21.4745 13.6896L20.917 14.6553L21.8826 15.2128L22.4402 14.2471L21.4745 13.6896Z" fill="#03B8DF"/>
<path d="M24.5487 16.3526L23.583 16.9102L24.1405 17.8758L25.1062 17.3183L24.5487 16.3526Z" fill="#03B8DF"/>
<path d="M25.8699 20.1729H24.7549V21.2879H25.8699V20.1729Z" fill="#03B8DF"/>
<path d="M24.1366 23.5881L23.5791 24.5537L24.5448 25.1112L25.1023 24.1456L24.1366 23.5881Z" fill="#03B8DF"/>
<path d="M21.9002 26.2418L20.9346 26.7993L21.4921 27.765L22.4577 27.2075L21.9002 26.2418Z" fill="#03B8DF"/>
<path d="M18.6209 27.4204H17.5059V28.5354H18.6209V27.4204Z" fill="#03B8DF"/>
<path d="M14.2333 26.2448L13.6758 27.2104L14.6414 27.768L15.199 26.8023L14.2333 26.2448Z" fill="#03B8DF"/>
<path d="M11.9979 23.6017L11.0322 24.1592L11.5897 25.1248L12.5554 24.5673L11.9979 23.6017Z" fill="#03B8DF"/>
<path d="M11.3738 20.1729H10.2588V21.2879H11.3738V20.1729Z" fill="#03B8DF"/>
<path d="M11.5839 16.339L11.0264 17.3047L11.992 17.8622L12.5495 16.8966L11.5839 16.339Z" fill="#03B8DF"/>
<path d="M14.6522 13.691L13.6865 14.2485L14.244 15.2142L15.2097 14.6567L14.6522 13.691Z" fill="#03B8DF"/>
</svg>
