<svg width="104" height="37" viewBox="0 0 104 37" fill="none" xmlns="http://www.w3.org/2000/svg">
<path d="M42.8186 9.92492C42.277 9.41518 41.4806 8.90545 41.0664 8.66651L41.8151 7.61518C42.3407 7.87005 43.0576 8.34793 43.631 8.80987L42.8345 9.92492H42.8186ZM42.4204 14.8948C42.4204 14.8948 42.3885 14.9904 42.3885 15.1816C42.3885 15.2293 42.3885 15.2931 42.3248 15.2931C42.2292 15.2931 42.1018 15.1975 42.0222 15.1338L41.0983 14.3373C41.8469 13.3019 42.4841 12.2028 42.9779 11.04L44.0133 11.8364C43.4558 13.0789 43.0416 13.8116 42.4363 14.8948H42.4204ZM43.2168 6.48421C42.8664 6.13377 42.293 5.62403 41.7195 5.2258L42.5478 4.19041C43.0257 4.52492 43.6629 5.01872 44.1089 5.44881L43.2168 6.48421ZM46.1 6.1497C45.8611 6.48421 45.5584 6.85058 45.0328 7.28067L43.854 6.57979C44.5708 5.92669 45.2876 5.14616 45.9089 3.80811L47.1832 4.23819C47.2947 4.27005 47.4381 4.33377 47.4381 4.39749C47.4381 4.44527 47.3744 4.49306 47.3425 4.50899C47.2788 4.50899 47.1354 4.55678 47.1195 4.58864C47.0717 4.62049 46.9443 4.89129 46.9124 4.93908H52.5354V6.13377H46.116L46.1 6.1497ZM51.5956 10.6577C51.5637 11.1674 51.5638 11.3904 51.5 11.9639H52.3761V13.1426H51.3567C51.2133 13.9072 51.1337 14.2258 50.8469 14.5285C50.6717 14.7037 50.1779 15.1338 49.0151 15.1497L48.362 13.9072C49.7956 13.9072 49.8434 13.7161 49.9708 13.1267H46.2593C46.1797 13.4134 46.1638 13.4612 46.0841 13.732L44.7938 13.6046C44.985 12.9196 45.1443 12.2506 45.3195 10.6417H44.3956V9.52669H45.4151C45.4629 8.79394 45.5107 8.02934 45.4629 7.0258H51.6753C51.6753 7.79041 51.6753 8.22049 51.6434 9.52669H52.4558V10.6417H51.5797L51.5956 10.6577ZM46.6257 10.6577C46.562 11.3426 46.4983 11.7408 46.4664 11.9639H47.5496C47.6452 11.486 47.7248 10.8488 47.7567 10.6577H46.6257ZM46.7691 8.22049C46.7691 8.76209 46.7372 9.30368 46.7372 9.52669H47.8682C47.9 9.00102 47.9478 8.60279 47.9319 8.22049H46.7691ZM49.0629 10.6577C49.031 11.1037 48.9673 11.5338 48.9036 11.9639H50.1461C50.1938 11.486 50.2257 11.0559 50.2416 10.6577H49.0629ZM49.2222 8.22049C49.2222 8.76209 49.1903 9.0966 49.1744 9.52669H50.2894C50.3213 8.8258 50.3213 8.58687 50.3213 8.22049H49.2222Z" fill="#03B8DF"/>
<path d="M59.114 9.87722C57.9034 12.9675 56.1193 14.3215 55.3706 14.879L54.1122 14.0029C55.5459 13.079 56.2945 12.2347 57.2981 10.5622C56.8839 10.1321 56.3901 9.71793 55.8963 9.41527C55.7211 9.71793 55.5459 9.95687 55.3547 10.2595L54.0645 9.62235C55.4981 7.66306 56.0397 5.48076 56.2468 4.23828L57.8875 4.54094C57.8875 4.54094 57.999 4.60465 57.999 4.6843C57.999 4.76394 57.8875 4.82766 57.8397 4.84359C57.6326 4.93917 57.6167 4.98695 57.6007 5.08253C57.5052 5.48076 57.4574 5.65598 57.314 6.05421H59.9742C59.8786 7.36041 59.5919 8.6666 59.114 9.89315V9.87722ZM56.8521 7.39226C56.7087 7.75864 56.6131 7.99757 56.4379 8.34802C56.8521 8.5551 57.4414 8.92147 57.8397 9.30377C58.1105 8.60288 58.2379 8.14094 58.3813 7.39226H56.8521ZM64.7689 12.3144C63.9406 11.9162 63.3512 11.4861 62.8255 11.1038V14.8949H61.4556V9.89315C61.0574 9.51085 60.4043 8.90554 59.9105 8.22058L60.8344 7.23297C60.9618 7.40819 61.137 7.64713 61.4556 8.0135V4.28607L62.9689 4.39757C62.9689 4.39757 63.1282 4.42943 63.1282 4.50908C63.1282 4.58872 63.0645 4.63651 63.0326 4.65244C62.8733 4.77987 62.8255 4.81173 62.8255 4.87545V9.35156C63.7653 10.1002 64.4662 10.5303 65.6291 11.056L64.7689 12.3303V12.3144Z" fill="#03B8DF"/>
<path d="M77.3697 7.647C76.7643 7.4877 76.0635 7.26469 75.0281 6.77089V7.45585H70.2812V6.83461C69.3573 7.28062 68.5927 7.51956 67.7325 7.72664L66.8086 6.51602C68.2422 6.24523 70.2812 5.73549 71.9219 4.01514L73.5148 4.11071C73.5148 4.11071 73.7856 4.14257 73.7856 4.27001C73.7856 4.34965 73.7378 4.39744 73.7059 4.41337C75.0759 5.40098 76.3343 5.99036 78.2617 6.43638L77.3537 7.63107L77.3697 7.647ZM75.6174 15.4045V15.1178H71.2051V15.4045H69.7714V12.3302C69.5166 13.3656 69.1661 14.2895 68.2741 15.2612L67.0475 14.5603C68.3856 13.0948 68.6564 11.9638 68.6564 9.41514C68.6564 8.95319 68.6564 8.23638 68.6564 7.87H76.5254V11.5178H69.9148C69.8829 11.6771 69.8511 11.932 69.8192 12.1231H77.0033V15.3886H75.6174V15.4045ZM75.1555 8.82576H69.9785C69.9785 8.92133 69.9785 9.11248 69.9785 9.30363H75.1555V8.82576ZM75.1555 10.1957H69.9785C69.9785 10.4027 69.9785 10.4187 69.9785 10.6735H75.1555V10.1957ZM72.6068 5.27354C71.9856 5.83107 71.5396 6.13372 71.0458 6.42045H74.3431C73.5148 5.9585 73.1006 5.6877 72.6068 5.27354ZM75.6174 13.1266H71.2051V14.0346H75.6174V13.1266Z" fill="#03B8DF"/>
<path d="M86.7191 6.19713V6.92988H90.3032V7.93342H86.7191V8.45908H89.5386V12.298H86.7191V12.7122H90.4307V13.8909H86.7191V15.4201H85.1899V13.8909H81.6855V12.7122H85.1899V12.298H82.4023V8.45908H85.1899V7.93342H82.02V6.92988H85.1899V6.19713H81.574C81.6218 6.88209 81.6218 7.67855 81.6218 8.37943C81.6218 11.9635 81.4466 13.0148 80.682 15.006L79.2324 14.5918C79.9492 13.206 80.3475 12.0113 80.3475 8.92103C80.3475 7.61483 80.2837 6.29271 80.0926 4.98651H84.5687V4.03076L86.1298 4.11041C86.2253 4.11041 86.6076 4.14227 86.6076 4.31749C86.6076 4.39713 86.528 4.44492 86.4802 4.47678C86.3846 4.52457 86.3368 4.57235 86.3368 4.62014V4.98651H90.7811V6.19713H86.751H86.7191ZM85.1899 9.33519H83.8041V9.90864H85.1899V9.33519ZM85.1899 10.7688H83.8041V11.3741H85.1899V10.7688ZM88.1368 9.33519H86.7191V9.90864H88.1368V9.33519ZM88.1368 10.7688H86.7191V11.3741H88.1368V10.7688Z" fill="#03B8DF"/>
<path d="M102.346 12.2506C101.39 13.6683 100.068 14.2099 99.3831 14.4966L98.4433 13.1904C99.0168 13.0311 99.9566 12.7603 100.737 11.8205C101.518 10.8966 101.661 9.84528 101.661 9.28776C101.661 8.58687 101.454 7.7267 100.737 7.05767C99.9407 6.29307 99.0486 6.24528 98.5708 6.19749C98.1566 9.22404 97.4079 11.0081 96.9938 11.8683C96.6115 12.6647 96.0221 13.732 95.369 13.732C94.907 13.732 92.8203 12.5851 92.8203 10.3072C92.8203 7.48776 95.146 4.90723 98.4433 4.90723C101.088 4.90723 103.174 6.70723 103.174 9.54262C103.174 10.6577 102.824 11.5497 102.362 12.2506H102.346ZM95.4964 7.34439C94.5885 8.20457 94.2221 9.39926 94.2221 10.1639C94.2221 11.1993 94.8115 11.7249 95.0345 11.7249C95.7035 11.7249 96.7867 8.39572 97.0415 6.4205C96.6752 6.54793 96.1017 6.73908 95.4805 7.34439H95.4964Z" fill="#03B8DF"/>
<path d="M46.1636 22.955C45.8132 23.6558 45.4309 24.3886 44.4592 25.5514C44.6344 25.6151 44.7619 25.6629 44.7619 25.7744C44.7619 25.8859 44.5388 25.9815 44.4592 26.0134V30.9673H43.0893V26.9213C42.5955 27.3355 42.2928 27.5426 42.1017 27.67L40.9707 26.8258C41.4167 26.5709 42.3406 26.0452 43.376 24.8824C43.9017 24.293 44.3477 23.6399 44.73 22.955H41.8468V21.6806H45.3034C45.6061 20.8204 45.7017 20.3266 45.7813 19.9443L47.0875 20.1355C47.1831 20.1355 47.422 20.1833 47.422 20.3107C47.422 20.4381 47.1353 20.5178 47.0238 20.5974C46.9282 20.9319 46.7849 21.4258 46.7052 21.6806H52.3282V22.955H46.1955H46.1636ZM44.9849 30.5213V29.2151H48.0433V26.3957H45.6539V25.1213H48.0433V23.4328L49.3973 23.5603C49.5088 23.5603 49.684 23.5921 49.684 23.7355C49.684 23.8311 49.5247 23.9107 49.4132 23.9904V25.1213H51.93V26.3957H49.4132V29.2151H52.4557V30.5213H44.9849Z" fill="#03B8DF"/>
<path d="M61.2328 22.1263V22.8591H64.8169V23.8626H61.2328V24.3883H64.0523V28.2272H61.2328V28.6414H64.9443V29.8201H61.2328V31.3493H59.7036V29.8201H56.1992V28.6414H59.7036V28.2272H56.916V24.3883H59.7036V23.8626H56.5337V22.8591H59.7036V22.1263H56.0877C56.1355 22.8113 56.1355 23.6077 56.1355 24.3086C56.1355 27.8927 55.9603 28.944 55.1957 30.9352L53.7461 30.521C54.4629 29.1352 54.8611 27.9405 54.8611 24.8502C54.8611 23.544 54.7974 22.2219 54.6063 20.9157H59.0824V19.96L60.6434 20.0396C60.739 20.0396 61.1213 20.0715 61.1213 20.2467C61.1213 20.3263 61.0417 20.3741 60.9939 20.406C60.8983 20.4538 60.8505 20.5016 60.8505 20.5493V20.9157H65.2948V22.1263H61.2647H61.2328ZM59.7036 25.2644H58.3178V25.8378H59.7036V25.2644ZM59.7036 26.698H58.3178V27.3033H59.7036V26.698ZM62.6505 25.2644H61.2328V25.8378H62.6505V25.2644ZM62.6505 26.698H61.2328V27.3033H62.6505V26.698Z" fill="#03B8DF"/>
<path d="M76.4924 21.6968V29.5976C76.4924 30.41 76.0942 30.9994 75.2181 30.9994H74.0234L73.4499 29.5339C73.8322 29.5817 74.1827 29.6295 74.4375 29.6295C74.8676 29.6295 74.9791 29.4383 74.9791 29.0401V21.6808H67.1738V20.3428H77.8145V21.6808H76.4924V21.6968ZM69.8818 28.164V29.1516H68.4482V23.2897H73.1791V28.1481H69.8659L69.8818 28.164ZM71.7137 24.6277H69.8818V26.8419H71.7137V24.6277Z" fill="#03B8DF"/>
<path d="M83.868 27.3832C83.3423 27.0487 83.0078 26.7938 82.6096 26.4434V31.031H81.2397V27.1124C80.9052 27.4469 80.6662 27.6381 80.2999 27.877L79.1211 26.8416C80.6344 26.0292 81.8131 24.723 82.6733 23.2416H79.7264V21.9514H81.3512V20.0239L82.7211 20.0876C82.7211 20.0876 83.1034 20.0876 83.1034 20.3107C83.1034 20.4699 82.9122 20.5177 82.6892 20.677V21.9514H84.0273L84.6167 22.6045C84.1547 23.6717 83.6609 24.4045 83.1353 25.0735C83.7884 25.6151 83.9954 25.7744 84.7282 26.2522L83.8839 27.3832H83.868ZM89.8733 30.9354H88.5034C87.9618 30.9354 87.5158 30.7284 87.5158 30.139V26.8735H86.0503L87.0857 27.2399C87.0857 27.2399 87.3087 27.3354 87.3087 27.4469C87.3087 27.4947 87.2609 27.5425 87.1494 27.6062C87.022 27.6699 87.0061 27.7018 86.9901 27.7814C86.5441 29.8682 85.3653 30.6328 84.1707 31.2222L82.9282 30.0912C84.7122 29.5496 85.3813 28.8965 85.6999 26.8735H84.76V20.3107H90.2238V26.8735H88.8857V29.0717C88.8857 29.2788 88.9335 29.4859 89.268 29.4859C89.6344 29.4859 89.7299 29.0876 89.8096 28.5461L91.0521 29.0717C90.8928 30.2345 90.7016 30.9354 89.8892 30.9354H89.8733ZM88.8379 21.4416H86.1299V22.2062H88.8379V21.4416ZM88.8379 23.1938H86.1299V23.9744H88.8379V23.1938ZM88.8379 24.962H86.1299V25.7425H88.8379V24.962Z" fill="#03B8DF"/>
<path d="M97.0102 21.0915C96.7872 21.1871 96.7553 21.1871 96.7235 21.2668C96.4686 21.7446 96.373 21.9517 95.7996 22.9712C95.9111 23.0508 95.9907 23.0986 95.9907 23.1942C95.9907 23.2579 95.9907 23.3216 95.927 23.4013C95.7837 23.5606 95.7677 23.6084 95.7677 23.7039V30.9199H94.2704V25.1216C93.9837 25.5358 93.8084 25.7429 93.4739 26.1092L92.2314 25.2331C93.9996 23.3216 94.8916 21.5694 95.5288 19.9287L96.8987 20.6615C96.9943 20.7092 97.1376 20.8048 97.1376 20.9163C97.1376 21.0119 97.0421 21.0756 97.0102 21.0756V21.0915ZM103.621 22.7641C103.621 22.7641 103.318 22.7641 103.254 22.796C103.191 22.8278 102.315 23.7676 102.123 23.9429C101.216 24.7871 100.244 25.5676 99.2244 26.2845V28.6898C99.2244 29.2154 99.3199 29.3747 99.766 29.3747H101.534C102.012 29.3747 102.171 29.0721 102.299 28.0048L103.573 28.8969C103.223 30.5853 102.777 30.7765 101.757 30.7765H99.0173C98.1571 30.7765 97.7748 30.4261 97.7748 29.5659V20.0084L99.1288 20.1199C99.304 20.1199 99.5429 20.1517 99.5429 20.311C99.5429 20.3907 99.4474 20.4703 99.4155 20.4862C99.3677 20.5181 99.2244 20.6137 99.2244 20.7252V24.5641C100.61 23.4491 101.439 22.6048 102.219 21.5216L103.462 22.3022C103.462 22.3022 103.732 22.4615 103.732 22.5889C103.732 22.6685 103.685 22.7323 103.637 22.7482L103.621 22.7641Z" fill="#03B8DF"/>
<path d="M28.1628 0.829102H7.9646C3.56587 0.829102 0 4.39497 0 8.7937V28.9919C0 33.3907 3.56587 36.9565 7.9646 36.9565H28.1628C32.5616 36.9565 36.1274 33.3907 36.1274 28.9919V8.7937C36.1274 4.39497 32.5616 0.829102 28.1628 0.829102Z" fill="#03B8DF"/>
<path d="M20.837 31.1326H12.6494V28.4087H13.6211V30.145H19.8494V28.4087H20.837V31.1326Z" fill="white"/>
<path d="M22.4145 30.145H11.0889V31.1326H22.4145V30.145Z" fill="white"/>
<path d="M29.4867 24.5858H4V8.35398C4 7.98761 4.14336 7.6531 4.39823 7.39823C4.6531 7.14336 5.00354 7 5.35398 7H28.1327C28.4991 7 28.8336 7.14336 29.0885 7.39823C29.3434 7.6531 29.4867 7.98761 29.4867 8.35398V24.5858ZM4.97168 23.5982H28.4991V8.35398C28.4991 8.25841 28.4673 8.16283 28.3876 8.08319C28.3239 8.01947 28.2283 7.97168 28.1168 7.97168H5.35398C5.25841 7.97168 5.16283 8.00354 5.08319 8.08319C5.01947 8.1469 4.97168 8.24248 4.97168 8.35398V23.5982Z" fill="white"/>
<path d="M28.1327 27.4691H5.35398C4.98761 27.4691 4.6531 27.3258 4.39823 27.0709C4.14336 26.816 4 26.4815 4 26.1151V23.6143H29.4867V26.1151C29.4867 26.4815 29.3434 26.816 29.0885 27.0709C28.8336 27.3258 28.4991 27.4691 28.1327 27.4691ZM4.98761 24.5859V26.1151C4.98761 26.2107 5.01947 26.3063 5.09912 26.3859C5.19469 26.4815 5.30619 26.4974 5.36991 26.4974H28.1487C28.1487 26.4974 28.3239 26.4974 28.4035 26.3859C28.4832 26.3063 28.515 26.2266 28.515 26.1151V24.5859H4.97168H4.98761Z" fill="white"/>
<path d="M27.0337 9.45312H6.45312V22.1328H27.0337V9.45312Z" fill="white"/>
<path d="M6.45312 14.6461V13.6585C6.99472 13.6585 7.44074 13.2125 7.44074 12.6709H8.42835C8.42835 13.7541 7.55224 14.6302 6.46905 14.6302L6.45312 14.6461Z" fill="#0D3D81"/>
<path d="M12.3314 14.6463C11.2482 14.6463 10.3721 13.7702 10.3721 12.687H11.3597C11.3597 13.2286 11.8057 13.6746 12.3473 13.6746C12.8889 13.6746 13.3349 13.2286 13.3349 12.687H14.3225C14.3225 13.7702 13.4464 14.6463 12.3632 14.6463H12.3314Z" fill="#0D3D81"/>
<path d="M11.343 12.6868H10.3554C10.3554 12.1452 9.90939 11.6992 9.3678 11.6992C8.82621 11.6992 8.38019 12.1452 8.38019 12.6868H7.39258C7.39258 11.6036 8.26868 10.7275 9.35187 10.7275C10.4351 10.7275 11.3112 11.6036 11.3112 12.6868H11.343Z" fill="#0D3D81"/>
<path d="M18.2083 14.6463C17.1251 14.6463 16.249 13.7702 16.249 12.687H17.2366C17.2366 13.2286 17.6827 13.6746 18.2242 13.6746C18.7658 13.6746 19.2119 13.2286 19.2119 12.687H20.1995C20.1995 13.7702 19.3234 14.6463 18.2402 14.6463H18.2083Z" fill="#0D3D81"/>
<path d="M17.2376 12.6868H16.2499C16.2499 12.1452 15.8039 11.6992 15.2623 11.6992C14.7207 11.6992 14.2747 12.1452 14.2747 12.6868H13.2871C13.2871 11.6036 14.1632 10.7275 15.2464 10.7275C16.3296 10.7275 17.2057 11.6036 17.2057 12.6868H17.2376Z" fill="#0D3D81"/>
<path d="M24.0862 14.6463C23.0031 14.6463 22.127 13.7702 22.127 12.687H23.1146C23.1146 13.2286 23.5606 13.6746 24.1022 13.6746C24.6438 13.6746 25.0898 13.2286 25.0898 12.687H26.0774C26.0774 13.7702 25.2013 14.6463 24.1181 14.6463H24.0862Z" fill="#1853A4"/>
<path d="M23.1155 12.6868H22.1279C22.1279 12.1452 21.6819 11.6992 21.1403 11.6992C20.5987 11.6992 20.1526 12.1452 20.1526 12.6868H19.165C19.165 11.6036 20.0411 10.7275 21.1243 10.7275C22.2075 10.7275 23.0836 11.6036 23.0836 12.6868H23.1155Z" fill="#0D3D81"/>
<path d="M26.0618 12.6868H25.0742C25.0742 11.6036 25.9503 10.7275 27.0335 10.7275V11.7151C26.4919 11.7151 26.0459 12.1612 26.0459 12.7028L26.0618 12.6868Z" fill="#1853A4"/>
<path d="M7.44074 18.7241H6.45312V22.133H7.44074V18.7241Z" fill="#1853A4"/>
<path d="M9.39972 19.7754H8.41211V22.1329H9.39972V19.7754Z" fill="#1853A4"/>
<path d="M11.3597 15.8887H10.3721V22.1329H11.3597V15.8887Z" fill="#1853A4"/>
<path d="M13.3187 18.3896H12.3311V22.133H13.3187V18.3896Z" fill="#1853A4"/>
<path d="M15.2776 16.7646H14.29V22.1328H15.2776V16.7646Z" fill="#1853A4"/>
<path d="M17.2366 18.6602H16.249V22.1327H17.2366V18.6602Z" fill="#1853A4"/>
<path d="M19.1966 16.271H18.209V22.1329H19.1966V16.271Z" fill="#1853A4"/>
<path d="M21.1556 17.2744H20.168V22.1328H21.1556V17.2744Z" fill="#1853A4"/>
<path d="M23.1146 18.3896H22.127V22.133H23.1146V18.3896Z" fill="#1853A4"/>
<path d="M25.0745 16.3823H24.0869V22.1328H25.0745V16.3823Z" fill="#1853A4"/>
<path d="M27.0501 18.7241H26.0625V22.133H27.0501V18.7241Z" fill="#1853A4"/>
<path d="M27.7028 20.5081C25.6638 21.1134 23.4656 20.5718 21.9523 19.0426C19.6904 16.7806 19.6904 13.101 21.9523 10.839C24.2143 8.57709 27.8939 8.57709 30.1559 10.839C31.6691 12.3523 32.2267 14.5665 31.6213 16.5895L37.0373 22.0054C37.5629 22.5311 37.8497 23.216 37.8497 23.9647C37.8497 24.6974 37.5629 25.3983 37.0373 25.924C36.5116 26.4497 35.8267 26.7364 35.078 26.7364C34.3452 26.7364 33.6444 26.4497 33.1187 25.924" fill="white"/>
<path d="M28.1968 12.7983C29.3915 13.9929 29.3756 15.9045 28.1968 17.0991C27.018 18.2938 25.0906 18.2938 23.8959 17.0991C22.7012 15.9045 22.7172 13.9929 23.8959 12.7983C25.0747 11.6036 27.0021 11.6195 28.1968 12.7983Z" fill="#56C1D5"/>
<path d="M25.2186 15.7768L24.5177 16.4777C23.6894 15.6494 23.6894 14.2795 24.5177 13.4512L25.2186 14.1521C24.7726 14.5981 24.7726 15.3467 25.2186 15.7928V15.7768Z" fill="white"/>
<path d="M29.5191 18.4214C27.6076 20.3329 24.5014 20.3329 22.5899 18.4214C20.6784 16.5099 20.6784 13.4037 22.5899 11.4922C24.5014 9.58072 27.6076 9.58072 29.5191 11.4922C31.4306 13.4037 31.4306 16.5099 29.5191 18.4214ZM23.2748 12.1772C21.7456 13.7064 21.7456 16.1913 23.2748 17.7205C24.804 19.2497 27.289 19.2497 28.8182 17.7205C30.3474 16.1913 30.3474 13.7064 28.8182 12.1772C27.289 10.648 24.804 10.648 23.2748 12.1772Z" fill="#03B8DF"/>
<path d="M36.3845 25.3029C36.034 25.6534 35.5721 25.8445 35.0624 25.8445C34.5685 25.8445 34.0907 25.6534 33.7402 25.3029L27.6553 19.218L28.3562 18.5171L34.4411 24.6021C34.6004 24.7613 34.8234 24.8569 35.0624 24.8569C35.3013 24.8569 35.5243 24.7613 35.6836 24.6021C35.8429 24.4428 35.9385 24.2198 35.9385 23.9808C35.9385 23.7419 35.8429 23.5189 35.6836 23.3596L29.5986 17.2746L30.2995 16.5737L36.3845 22.6587C36.7349 23.0091 36.9261 23.4711 36.9261 23.9808C36.9261 24.4746 36.7349 24.9525 36.3845 25.3029Z" fill="#03B8DF"/>
</svg>
