<svg width="134" height="35" viewBox="0 0 134 35" fill="none" xmlns="http://www.w3.org/2000/svg">
<path d="M47.0195 24.1131C45.232 22.9414 43.3393 22.0702 41.1162 21.4243L41.4767 20.0874C44.2707 20.8235 46.0582 21.7698 47.4551 22.611L47.0195 24.1131ZM46.6139 16.7377C45.1269 15.7613 43.3994 15.2356 41.657 14.9051L41.8823 13.5382C43.7149 13.8687 45.6376 14.6047 46.9594 15.3107L46.6139 16.7377ZM46.1633 19.9222C44.7513 19.051 42.9188 18.4501 42.0025 18.2098L42.3029 16.918C43.6247 17.2484 45.5475 17.9694 46.4637 18.5553L46.1483 19.9372L46.1633 19.9222Z" fill="#03B8DF"/>
<path d="M59.847 23.0615C58.7504 21.7096 57.8942 20.8534 56.9179 20.0573C55.9565 21.1238 55.0703 22.0401 52.8171 23.1367L51.7656 22.0401C52.5467 21.7096 54.0789 21.0637 55.596 19.4415C56.8878 18.0595 57.3685 16.8428 57.6389 16.1669H53.0574V14.7699H58.2397C58.465 14.7699 58.6453 14.6497 58.8706 14.4995L59.8019 15.5209C59.5616 15.6862 59.2912 15.8965 59.156 16.242C58.7504 17.2033 58.5251 17.7591 57.7591 18.9307C58.9307 19.802 59.9521 20.8234 60.9435 21.9049L59.877 23.0465L59.847 23.0615Z" fill="#03B8DF"/>
<path d="M69.3858 19.9672L68.9351 18.6604C69.1755 18.6904 69.4459 18.7205 69.6862 18.7205C71.1282 18.7205 71.9994 17.9694 71.9994 17.1282C71.9994 16.4673 71.2634 16.227 70.8879 16.227C70.6175 16.227 70.272 16.3171 70.1068 16.3772C70.272 16.6025 70.4673 16.9179 70.7377 17.3686L69.4459 17.9244C69.3407 17.684 69.2205 17.4437 68.845 16.8278C68.2592 17.0832 67.9137 17.2484 67.1927 17.6389C68.094 19.4715 68.6798 20.8985 69.4008 23.1367L68.0489 23.7375C67.2378 20.8385 66.5167 19.3664 66.006 18.3299C65.1949 18.8707 64.8344 19.1561 64.4438 19.5016L63.3623 18.3149C63.5275 18.2248 63.7228 18.1046 65.3902 17.1433C64.9846 16.4072 64.6391 15.8514 64.1584 15.2356L65.4352 14.6798C65.5854 14.6197 65.9159 14.4545 65.9159 14.6798C65.9159 14.7399 65.8258 14.9802 65.8258 15.0403C65.8258 15.0854 65.9459 15.2656 65.976 15.3407C66.0661 15.4609 66.4266 16.1218 66.6219 16.4974C67.2678 16.1669 67.6283 15.9866 68.139 15.7763C67.5382 14.9952 67.2528 14.7249 66.9223 14.4545L68.154 13.8837C68.4995 14.2442 68.7699 14.5296 69.3557 15.3107C69.7613 15.1905 70.287 15.0403 70.8278 15.0403C71.9694 15.0403 73.2612 15.6411 73.2612 17.1583C73.2612 19.8471 70.3171 19.9372 69.3858 19.9522V19.9672Z" fill="#03B8DF"/>
<path d="M82.1542 15.2205C81.6435 16.0917 81.5083 16.272 81.2229 16.6325C81.283 16.6325 81.3881 16.6776 81.3881 16.7827C81.3881 16.8578 81.328 16.9029 81.313 16.9179C81.1327 17.0681 81.1027 17.0982 81.1027 17.1733V23.9628H79.6607V18.3149C78.3238 19.5166 77.3474 20.1625 75.9655 20.8534L75.0342 19.6518C75.8453 19.2913 77.3474 18.6303 78.6242 17.3385C79.2551 16.7076 79.8409 16.0166 80.2465 15.2205H75.3045V13.9437H85.5039V15.2205H82.1542ZM84.5576 20.8084C83.6413 19.6968 82.725 18.7355 81.3881 17.684L82.2293 16.7226C83.5211 17.6389 84.5576 18.6153 85.609 19.7869L84.5576 20.8084Z" fill="#03B8DF"/>
<path d="M87.3213 23.5873V22.3405H88.7934V16.9029L90.1753 16.993C90.2805 16.993 90.4157 17.0381 90.4157 17.1582C90.4157 17.1883 90.3856 17.2484 90.3556 17.2634C90.2654 17.3535 90.1903 17.4136 90.1903 17.5338V22.3255H91.7075V15.1755H87.6067V13.9287H97.2052V15.1755H93.1495V17.9093H96.5893V19.2913H93.1495V22.3105H97.4305V23.5572H87.3363L87.3213 23.5873Z" fill="#03B8DF"/>
<path d="M108.546 21.334C107.645 22.6709 106.398 23.1816 105.752 23.452L104.866 22.2203C105.407 22.0701 106.293 21.8147 107.029 20.9285C107.765 20.0572 107.9 19.0659 107.9 18.5401C107.9 17.8792 107.705 17.068 107.029 16.4372C106.278 15.7161 105.437 15.6711 104.986 15.626C104.596 18.48 103.89 20.1624 103.499 20.9735C103.138 21.7246 102.583 22.731 101.967 22.731C101.531 22.731 99.5635 21.6495 99.5635 19.5015C99.5635 16.8277 101.757 14.4093 104.866 14.4093C107.359 14.4093 109.327 16.1067 109.327 18.7804C109.327 19.8319 108.997 20.6731 108.561 21.334H108.546ZM102.087 16.7075C101.231 17.5187 100.885 18.6453 100.885 19.3813C100.885 20.3577 101.441 20.8534 101.651 20.8534C102.282 20.8534 103.304 17.7139 103.544 15.8513C103.199 15.9715 102.658 16.1517 102.072 16.7225L102.087 16.7075Z" fill="#03B8DF"/>
<path d="M117.994 16.5725C117.994 17.1433 117.994 17.4137 117.964 17.6239H120.983C120.983 18.8707 120.953 20.6732 120.623 22.3556C120.337 23.7676 119.421 23.9328 117.904 23.9478L117.408 22.5058C117.603 22.5359 117.949 22.5959 118.43 22.5959C118.67 22.5959 119.151 22.5959 119.361 21.905C119.496 21.4844 119.601 19.832 119.616 18.9308H117.874C117.543 21.3041 116.988 22.3856 115.185 24.0229L113.893 23.1667C115.891 21.8749 116.627 20.508 116.672 16.5574H114.96V15.6862C114.704 16.3622 114.674 16.4523 114.314 17.3686C114.9 18.1797 115.365 18.8256 115.365 19.9372C115.365 21.6496 114.073 21.8899 113.082 22.0251L112.601 20.8234V23.9178H111.31V13.7785H114.749L115.5 14.4094C115.335 14.785 115.305 14.845 115.14 15.2506H117.228V13.5682H118.219C118.43 13.5682 118.985 13.5682 118.985 13.7485C118.985 13.8086 118.985 13.8536 118.85 13.9438C118.73 14.0189 118.73 14.0639 118.73 14.109V15.2506H121.614V16.5424H117.979L117.994 16.5725ZM112.812 17.5639L113.758 15.0553H112.586V20.6582C113.337 20.6582 113.953 20.5831 113.953 19.8321C113.953 19.0209 113.473 18.405 112.812 17.5789V17.5639Z" fill="#03B8DF"/>
<path d="M123.267 23.5424V22.2505H124.829V15.6413L126.316 15.7314C126.316 15.7314 126.466 15.7765 126.466 15.8516C126.466 15.9417 126.391 15.9717 126.361 16.0018C126.256 16.0619 126.241 16.1219 126.241 16.167V22.2505H127.833V13.5984L129.35 13.7486C129.44 13.7486 129.515 13.7786 129.515 13.8838C129.515 13.9138 129.515 13.9589 129.47 13.9739C129.305 14.1091 129.275 14.1241 129.275 14.1992V17.1734H132.91V18.4502H129.275V22.2505H133.661V23.5424H123.267Z" fill="#03B8DF"/>
<path d="M27.597 0.544922H7.94939C3.96734 0.544922 0.739258 3.77302 0.739258 7.75507V27.4027C0.739258 31.3847 3.96734 34.6128 7.94939 34.6128H27.597C31.5791 34.6128 34.8072 31.3847 34.8072 27.4027V7.75507C34.8072 3.77302 31.5791 0.544922 27.597 0.544922Z" fill="#03B8DF"/>
<path d="M20.7322 18.6003H14.7988V19.5767H20.7322V18.6003Z" fill="white"/>
<path d="M20.7322 23.4521H14.7988V24.4285H20.7322V23.4521Z" fill="white"/>
<path d="M7.1541 16.7226H6.17773V13.8535L10.1583 9.85791H15.1303V10.8343H10.5639L7.1541 14.2591V16.7226Z" fill="white"/>
<path d="M29.3706 16.7226H28.3942V14.2591L24.9694 10.8343H20.418V9.85791H25.3749L29.3706 13.8535V16.7226Z" fill="white"/>
<path d="M15.6111 10.3536H14.6347C14.6347 9.31719 13.7936 8.46098 12.7421 8.46098C11.6906 8.46098 10.8494 9.30217 10.8494 10.3536H9.87305C9.87305 8.77643 11.1649 7.48462 12.7421 7.48462C14.3193 7.48462 15.6111 8.77643 15.6111 10.3536Z" fill="white"/>
<path d="M25.6756 10.3536H24.6992C24.6992 9.31719 23.858 8.46098 22.8065 8.46098C21.7551 8.46098 20.9139 9.30217 20.9139 10.3536H19.9375C19.9375 8.77643 21.2293 7.48462 22.8065 7.48462C24.3838 7.48462 25.6756 8.77643 25.6756 10.3536Z" fill="white"/>
<path d="M17.7732 13.478C16.0458 13.478 14.6338 12.0661 14.6338 10.3386H15.6102C15.6102 11.5253 16.5715 12.4866 17.7582 12.4866C18.9449 12.4866 19.9062 11.5253 19.9062 10.3386H20.8826C20.8826 12.0661 19.4706 13.478 17.7432 13.478H17.7732Z" fill="white"/>
<path d="M18.2547 21.0337H17.2783V22.0101H18.2547V21.0337Z" fill="white"/>
<path d="M9.67721 27.673C6.28244 27.673 3.51855 24.9091 3.51855 21.5144C3.51855 18.1196 6.28244 15.3557 9.67721 15.3557C13.072 15.3557 15.8359 18.1196 15.8359 21.5144C15.8359 24.9091 13.072 27.673 9.67721 27.673ZM9.67721 16.3471C6.8232 16.3471 4.50995 18.6754 4.50995 21.5144C4.50995 24.3534 6.83822 26.6816 9.67721 26.6816C12.5162 26.6816 14.8445 24.3534 14.8445 21.5144C14.8445 18.6754 12.5162 16.3471 9.67721 16.3471Z" fill="white"/>
<path d="M14.0181 21.5143C14.0181 23.9177 12.0804 25.8554 9.67704 25.8554C7.27366 25.8554 5.33594 23.9177 5.33594 21.5143C5.33594 19.1109 7.27366 17.1732 9.67704 17.1732C12.0804 17.1732 14.0181 19.1109 14.0181 21.5143Z" fill="#1853A4"/>
<path d="M9.67708 20.0122C9.67708 20.8384 9.00113 21.5144 8.17496 21.5144C7.3488 21.5144 6.67285 20.8384 6.67285 20.0122C6.67285 19.1861 7.3488 18.5101 8.17496 18.5101C9.00113 18.5101 9.67708 19.1861 9.67708 20.0122Z" fill="white"/>
<path d="M10.9848 22.0852C10.9848 22.4907 10.6543 22.8212 10.2487 22.8212C9.84317 22.8212 9.5127 22.4907 9.5127 22.0852C9.5127 21.6796 9.84317 21.3491 10.2487 21.3491C10.6543 21.3491 10.9848 21.6796 10.9848 22.0852Z" fill="white"/>
<path d="M30.1959 21.5143C30.1959 23.9177 28.2582 25.8554 25.8548 25.8554C23.4514 25.8554 21.5137 23.9177 21.5137 21.5143C21.5137 19.1109 23.4514 17.1732 25.8548 17.1732C28.2582 17.1732 30.1959 19.1109 30.1959 21.5143Z" fill="#1853A4"/>
<path d="M25.8549 27.673C22.4602 27.673 19.6963 24.9091 19.6963 21.5144C19.6963 18.1196 22.4602 15.3557 25.8549 15.3557C29.2497 15.3557 32.0136 18.1196 32.0136 21.5144C32.0136 24.9091 29.2497 27.673 25.8549 27.673ZM25.8549 16.3471C23.0009 16.3471 20.6877 18.6754 20.6877 21.5144C20.6877 24.3534 23.016 26.6816 25.8549 26.6816C28.6939 26.6816 31.0222 24.3534 31.0222 21.5144C31.0222 18.6754 28.6939 16.3471 25.8549 16.3471Z" fill="white"/>
<path d="M25.8558 20.0122C25.8558 20.8384 25.1798 21.5144 24.3537 21.5144C23.5275 21.5144 22.8516 20.8384 22.8516 20.0122C22.8516 19.1861 23.5275 18.5101 24.3537 18.5101C25.1798 18.5101 25.8558 19.1861 25.8558 20.0122Z" fill="white"/>
<path d="M27.1625 22.0852C27.1625 22.4907 26.832 22.8212 26.4265 22.8212C26.0209 22.8212 25.6904 22.4907 25.6904 22.0852C25.6904 21.6796 26.0209 21.3491 26.4265 21.3491C26.832 21.3491 27.1625 21.6796 27.1625 22.0852Z" fill="white"/>
</svg>
