<svg width="117" height="37" viewBox="0 0 117 37" fill="none" xmlns="http://www.w3.org/2000/svg">
<path d="M48.424 10.5937C48.3602 13.6043 47.1974 15.1176 44.7443 16.2167L43.5496 15.1494C45.7956 14.3529 46.8788 13.3175 46.9425 10.5937H42.6895V9.27153H52.247V10.5937H48.424ZM44.3939 7.43967V6.05383H50.6222V7.43967H44.3939ZM52.7408 8.2202C52.1673 7.7264 51.7372 7.47153 51.4027 7.26445L51.8806 6.54764C52.4381 6.86622 52.7726 7.10516 53.2187 7.50339L52.7408 8.2202ZM53.1071 6.59543C52.8841 6.38835 52.6452 6.18127 51.8169 5.73525L52.2948 5.05029C53.139 5.52817 53.3779 5.71932 53.585 5.91047L53.1231 6.59543H53.1071Z" fill="#03B8DF"/>
<path d="M55.6553 11.6765V10.0518H64.719V11.6765H55.6553Z" fill="#03B8DF"/>
<path d="M76.8094 8.96891C76.4589 9.95652 76.2041 10.6893 75.3439 12.0273C75.6625 12.2981 75.9651 12.5689 76.4112 12.999L75.4713 14.0981C75.2483 13.891 75.0094 13.6362 74.4837 13.1742C73.4961 14.2733 72.5881 15.1654 70.4536 16.2804L69.3067 15.0857C71.3616 14.3689 72.4448 13.2857 73.4005 12.2822C72.8589 11.884 72.2696 11.4698 71.2979 10.9441L72.0784 9.98838C72.843 10.3229 73.3687 10.5937 74.2448 11.199C75.0094 10.068 75.2165 9.47864 75.3917 8.84148H72.1262C71.2819 10.0202 70.6607 10.7689 69.8165 11.422L68.6377 10.5459C70.4377 9.31935 71.6483 7.15298 72.2058 5.56006L73.6076 5.97422C73.6076 5.97422 73.8625 6.06979 73.8625 6.16537C73.8625 6.24501 73.751 6.2928 73.5758 6.37245C73.4165 6.6751 73.1775 7.16891 72.9227 7.61493H75.8536C76.0129 7.61493 76.2359 7.43971 76.4271 7.31227L77.3669 8.29988C77.1439 8.49103 76.9209 8.71404 76.8253 9.0167L76.8094 8.96891Z" fill="#03B8DF"/>
<path d="M84.0096 6.1971C83.8025 6.3086 83.7866 6.32453 83.7069 6.49975C83.4839 7.00949 83.3565 7.29621 82.9582 8.06081L83.1335 8.15639C83.1335 8.15639 83.1972 8.23604 83.1972 8.28382C83.1972 8.3794 83.1016 8.44312 83.0538 8.4909C83.006 8.52276 82.8627 8.61834 82.8627 8.71391V16.2644H81.4131V10.4502C81.2697 10.6254 81.1423 10.7688 80.999 10.9281L79.7246 10.1316C81.0945 8.6502 81.668 7.6148 82.3211 5.49621L83.9936 5.89444C84.0892 5.9263 84.1211 5.97409 84.1211 6.02188C84.1211 6.08559 84.0733 6.13338 84.0255 6.18117L84.0096 6.1971ZM87.6255 8.57055V9.86081H90.5246V11.167H87.6255V12.4413H90.9388V13.859H87.6255V16.2803H86.1441V8.58648H85.714C85.2202 9.51037 84.806 10.036 84.3281 10.6095L82.9742 9.89267C84.2644 8.55462 84.822 7.50329 85.4273 5.46436L86.9565 5.9263C86.9565 5.9263 87.068 6.00595 87.068 6.05374C87.068 6.08559 87.068 6.14931 86.9883 6.18117C86.9565 6.21303 86.7653 6.27674 86.7494 6.3086C86.7175 6.34046 86.4308 7.10506 86.383 7.2325H91.1458V8.60241H87.6255V8.57055Z" fill="#03B8DF"/>
<path d="M103.363 15.707C103.044 16.2486 102.758 16.3123 102.519 16.3123C101.467 16.3123 100.4 14.9265 100.066 14.4964C99.3329 15.2451 98.7435 15.7229 97.8196 16.3123L96.7683 15.3088C97.7241 14.7672 98.3931 14.2575 99.3329 13.2061C98.871 12.107 98.5524 11.1035 98.2975 8.73002H95.2072C95.2072 9.41497 95.2072 9.68577 95.1754 10.0362H97.963C97.9311 11.4539 97.8674 12.8875 97.6125 13.8114C97.517 14.1778 97.294 14.9583 95.9878 14.9583H95.4462L94.809 13.8274C94.6179 14.7513 94.4426 15.3406 94.0444 16.169L92.6904 15.7548C93.2002 14.6875 93.8214 13.1424 93.8214 9.71763C93.8214 8.85745 93.7895 8.23621 93.7258 7.45568H98.1701C98.1223 6.484 98.1223 6.03798 98.1063 5.35303L99.6993 5.51232C99.7948 5.51232 99.8904 5.59197 99.8904 5.67161C99.8904 5.75126 99.8267 5.81498 99.7789 5.86276C99.6196 6.02205 99.6196 6.06984 99.6196 6.26099C99.6196 6.65922 99.6196 7.05745 99.6196 7.45568H101.595C101.069 6.78666 100.719 6.46807 100.496 6.29285L101.42 5.49639C101.754 5.81497 102.089 6.11763 102.582 6.80258L101.866 7.45568H103.745V8.73002H99.6833C99.8267 10.2911 99.9701 10.992 100.273 11.8681C100.862 10.9282 101.181 10.2114 101.483 9.19197L102.853 9.90878C102.853 9.90878 102.965 10.0044 102.965 10.0681C102.965 10.1636 102.885 10.2114 102.837 10.2274C102.678 10.3229 102.577 10.4185 102.535 10.5141C102.121 11.5017 101.834 12.1548 100.974 13.3495C101.149 13.6203 101.77 14.592 102.216 14.592C102.471 14.592 102.582 14.0026 102.694 13.5406L103.873 14.2256C103.809 14.4964 103.634 15.1176 103.283 15.7229L103.363 15.707ZM95.1435 11.3583C95.0639 12.4893 94.9842 12.9513 94.8887 13.5406C95.1595 13.5725 95.4621 13.6203 95.8763 13.6203C96.1152 13.6203 96.2745 13.5725 96.3542 13.3973C96.4019 13.2698 96.5294 12.6964 96.5453 11.3743H95.1595L95.1435 11.3583Z" fill="#03B8DF"/>
<path d="M115.549 13.5563C114.593 14.974 113.271 15.5155 112.586 15.8023L111.646 14.4961C112.22 14.3368 113.16 14.066 113.94 13.1262C114.721 12.2023 114.864 11.1509 114.864 10.5934C114.864 9.89254 114.657 9.03236 113.94 8.36333C113.144 7.59873 112.252 7.55094 111.774 7.50316C111.36 10.5297 110.611 12.3138 110.197 13.174C109.815 13.9704 109.225 15.0377 108.572 15.0377C108.11 15.0377 106.023 13.8908 106.023 11.6129C106.023 8.79342 108.349 6.21289 111.646 6.21289C114.291 6.21289 116.377 8.01289 116.377 10.8483C116.377 11.9633 116.027 12.8554 115.565 13.5563H115.549ZM108.7 8.65006C107.792 9.51024 107.425 10.7049 107.425 11.4695C107.425 12.5049 108.015 13.0306 108.238 13.0306C108.907 13.0306 109.99 9.70139 110.245 7.72617C109.878 7.8536 109.305 8.04475 108.684 8.65006H108.7Z" fill="#03B8DF"/>
<path d="M42.0205 31.3333V29.8678H46.6718V23.6236H42.8329V22.1899H52.0878V23.6236H48.2329V29.8678H52.8524V31.3333H42.0205Z" fill="#03B8DF"/>
<path d="M60.0524 28.4983C59.8135 29.1992 59.5745 29.6293 59.1126 30.2186C59.463 30.5054 59.6542 30.6806 59.9091 30.9514L59.0967 32.0027C58.6188 31.4611 58.4276 31.27 58.2365 31.0788C57.5356 31.6204 57.0099 31.8912 56.1179 32.2257L55.3374 31.3178C56.0701 31.0788 56.5958 30.8239 57.2807 30.3142C56.994 30.139 56.8666 30.0753 56.6436 29.9638C56.4843 30.1868 56.4683 30.2027 56.3568 30.3779L55.1781 29.9638C55.3533 29.7089 55.6241 29.3585 56.102 28.4983H54.7798V27.3832H56.6595C56.8188 27.0647 56.8825 26.9213 57.0896 26.4593H57.0099V25.5195C56.7869 25.7903 56.4365 26.2045 55.7037 26.8098L54.7002 26.077C55.4011 25.5992 55.7993 25.2169 56.2931 24.5319H54.7639V23.4328H55.6241C55.4011 22.939 55.0825 22.4611 54.7002 22.0629L55.7356 21.4257C56.1498 21.9195 56.4046 22.3178 56.6276 22.9231L55.7675 23.4328H57.0099V21.3779L58.2524 21.4735C58.4276 21.4735 58.5391 21.5372 58.5391 21.6487C58.5391 21.6806 58.5391 21.7284 58.4436 21.808C58.3639 21.8877 58.3321 21.9514 58.3321 21.9992V23.4328H59.6383L58.6666 22.9868C59.017 22.4452 59.1604 22.1903 59.463 21.5054L60.4666 21.9036C60.4666 21.9036 60.6418 21.9832 60.6418 22.0629C60.6418 22.1107 60.6099 22.1266 60.5781 22.1425C60.4188 22.2062 60.4188 22.2062 60.371 22.27C60.1958 22.6363 59.9568 23.0664 59.7657 23.4487H60.5621V24.5478H59.017C59.24 24.8983 59.5745 25.3124 60.1958 25.6788L59.3993 26.6346C58.794 26.2204 58.5232 25.8062 58.3161 25.4558V26.4912H57.5834L58.3161 26.8576C58.3161 26.8576 58.4276 26.9372 58.4276 27.0009C58.4276 27.0965 58.3321 27.1124 58.2365 27.1602C58.1887 27.2399 58.1409 27.3195 58.1091 27.4151H60.817V28.5301H60.0206L60.0524 28.4983ZM57.5834 28.4983C57.4878 28.6576 57.3922 28.8487 57.2967 28.9921C57.456 29.0717 57.663 29.1673 58.1568 29.4859C58.3799 29.2151 58.571 28.9443 58.7621 28.4983H57.5834ZM64.9268 32.0824C64.417 31.8275 63.9073 31.5248 63.1427 30.5213C62.4737 31.2859 61.9639 31.7319 61.1037 32.3372L60.0046 31.3496C61.056 30.7284 61.6613 30.2027 62.3622 29.2788C61.9639 28.4824 61.6772 27.7815 61.4542 26.6505C61.3745 26.8098 61.2471 27.0647 61.0719 27.3832L59.9409 26.8416C60.2913 26.2523 60.6259 25.7107 60.9922 24.4363C61.3427 23.1461 61.4064 22.2222 61.4701 21.4576L62.84 21.5372C62.9834 21.5372 63.079 21.5372 63.079 21.6487C63.079 21.6806 63.079 21.7124 62.9993 21.7762C62.84 21.9036 62.8241 21.9992 62.7922 22.1107C62.7604 22.4611 62.7126 22.7638 62.5692 23.4169H65.6754V24.7071H65.086C64.8471 27.1124 64.5763 28.0841 63.9073 29.3903C64.5285 30.3142 65.3728 30.8558 65.8347 31.1585L64.9108 32.0983L64.9268 32.0824ZM62.2825 24.6753C62.4099 25.9178 62.6011 26.7939 63.0949 27.9567C63.5887 26.7301 63.7161 25.8381 63.7639 24.6753H62.2666H62.2825Z" fill="#03B8DF"/>
<path d="M68.3676 24.5796C68.1446 23.9265 67.8897 23.2893 67.2207 22.2539L68.5269 21.6486C68.8614 22.1424 69.3074 22.8751 69.7057 24.0061L68.3676 24.5796ZM73.4809 22.3495C73.2897 22.9867 72.9711 23.799 72.5251 24.5955L71.3145 24.1654V24.7229H73.3535V31.1743C73.3535 31.9229 73.0667 32.2893 71.2508 32.353L70.5181 30.8875C70.8207 30.9194 71.0278 30.9194 71.2508 30.9194C71.872 30.9194 71.9835 30.8557 71.9835 30.4574V29.9159H69.1004V32.3212H67.7145V24.707H69.7375V21.2982L71.2667 21.3459C71.2667 21.3459 71.5694 21.3459 71.5694 21.5052C71.5694 21.6008 71.4419 21.6645 71.2827 21.792V24.038C71.5853 23.4805 71.9517 22.6681 72.1588 21.5371L73.3853 21.792C73.672 21.8557 73.7517 21.9353 73.7517 22.0468C73.7517 22.1583 73.5765 22.2061 73.449 22.3336L73.4809 22.3495ZM71.9995 25.9654H69.1163V26.7937H71.9995V25.9654ZM71.9995 27.8928H69.1163V28.753H71.9995V27.8928ZM75.8384 23.2097C75.8384 23.2097 75.6473 23.369 75.6473 23.3849V29.7884H74.1818V22.7796L75.6313 22.8751C75.8543 22.8751 75.934 22.9229 75.934 23.0344C75.934 23.0982 75.8862 23.1459 75.8384 23.1937V23.2097ZM78.4189 21.7282C78.4189 21.7282 78.2278 21.8875 78.2278 21.9194V30.9672C78.2278 32.0822 77.3358 32.2256 75.9181 32.2574L75.1057 30.6486C75.3765 30.6805 75.7747 30.6964 76.1251 30.6964C76.3641 30.6964 76.6986 30.6964 76.6986 30.33V21.2822L78.1959 21.4256C78.403 21.4256 78.4986 21.4893 78.4986 21.5849C78.4986 21.6486 78.4667 21.6805 78.403 21.7282H78.4189Z" fill="#03B8DF"/>
<path d="M81.6199 31.1102C81.3969 31.5084 81.3332 31.604 81.3332 31.7792C81.3332 31.8111 81.365 32.0181 81.365 32.0659C81.365 32.1456 81.3013 32.1774 81.2376 32.1774C81.1739 32.1774 81.0783 32.1456 81.0464 32.1296L79.7402 31.3173C80.5526 30.25 81.4128 28.5934 81.8907 27.4624L83.0057 28.3544C82.7509 28.9597 81.9703 30.5049 81.6199 31.1261V31.1102ZM81.6836 26.6819C81.1261 26.2199 80.1066 25.6624 79.7562 25.4872L80.5208 24.2925C81.2535 24.6429 81.8748 25.0412 82.5119 25.535L81.6836 26.6819ZM82.5597 23.6394C82.1774 23.3845 81.4128 22.8748 80.696 22.5403L81.4765 21.2978C82.496 21.8553 83.0217 22.2535 83.3562 22.5084L82.5756 23.6235L82.5597 23.6394ZM91.3526 31.5881C91.2571 31.8429 91.0659 32.3367 90.4924 32.3367C89.5686 32.3367 88.8199 30.9987 88.5332 30.473C87.8323 31.2058 87.2907 31.6358 86.5101 32.1456L85.2677 31.3013C86.5261 30.696 87.1792 30.1704 87.9438 29.2465C87.5615 27.8288 87.4818 26.9049 87.4181 24.3881H84.8057C84.9013 29.4058 84.1526 30.8553 83.4677 32.0022L82.0818 31.5403C83.0217 29.9155 83.4995 28.8323 83.4995 25.3438C83.4995 24.8022 83.4995 24.5473 83.4517 22.9704H87.434C87.434 22.604 87.4818 21.7757 87.4818 21.25L88.9792 21.3774C88.9792 21.3774 89.2659 21.4093 89.2659 21.5686C89.2659 21.6004 89.2659 21.6323 89.234 21.6482C89.2022 21.6801 89.027 21.8235 88.9951 21.8712C88.8995 22.0146 88.8199 22.9066 88.8199 22.9704H89.9349C89.5845 22.5562 89.4571 22.4288 89.2022 22.158L90.0783 21.3774C90.381 21.6482 90.811 22.1102 91.1137 22.5562L90.6199 22.9704H91.1774V24.3721H88.7562C88.7243 25.9173 88.7562 26.3633 88.9314 27.7013C89.4252 26.3314 89.5049 25.4394 89.5367 24.9615L90.9066 25.4872C90.9066 25.4872 91.1296 25.5668 91.1296 25.6942C91.1296 25.6942 91.1296 25.7739 91.0659 25.7898C90.8907 25.8854 90.7792 25.9491 90.7155 26.1562C90.4765 27.0642 90.2057 28.0518 89.473 29.2624C89.5686 29.4376 89.9509 30.2819 90.2057 30.2819C90.4765 30.2819 90.5243 29.5969 90.5243 29.4376L91.6394 29.9633C91.5916 30.8872 91.4004 31.4606 91.3686 31.5721L91.3526 31.5881ZM85.8889 29.5491V30.027H84.981V26.5544H87.1951V29.565H85.8889V29.5491ZM85.204 25.965V24.8659H87.0836V25.965H85.204ZM86.3668 27.4783H85.8889V28.6093H86.3668V27.4783Z" fill="#03B8DF"/>
<path d="M28.9433 0.54248H8.10792C3.88515 0.54248 0.461914 3.96572 0.461914 8.1885V29.0239C0.461914 33.2467 3.88515 36.6699 8.10792 36.6699H28.9433C33.1661 36.6699 36.5893 33.2467 36.5893 29.0239V8.1885C36.5893 3.96572 33.1661 0.54248 28.9433 0.54248Z" fill="#03B8DF"/>
<path d="M18.5264 21.3456V19.4341" stroke="white" stroke-width="0.907965" stroke-linecap="round" stroke-linejoin="round"/>
<path d="M16.1046 21.9512L15.2285 19.8804" stroke="white" stroke-width="0.907965" stroke-linecap="round" stroke-linejoin="round"/>
<path d="M21.123 21.9506L21.8239 20.0391" stroke="white" stroke-width="0.907965" stroke-linecap="round" stroke-linejoin="round"/>
<path d="M26.6654 21.7918L26.6176 21.4254C26.4742 20.6768 26.06 19.9759 25.4547 19.4821C25.0724 19.1635 24.6901 18.9724 24.3238 18.8927L21.3928 18.0485C21.3928 18.0485 21.2654 18.0007 21.2176 17.9688C21.0583 17.8573 20.9627 17.698 20.9468 17.5069L20.8193 16.344C21.6317 15.7069 22.237 14.7511 22.5397 13.652C23.0654 13.6042 23.4636 13.0308 23.4636 12.298C23.4636 11.6131 23.1291 11.0715 22.6512 10.96" stroke="white" stroke-width="0.907965" stroke-linecap="round" stroke-linejoin="round"/>
<path d="M14.3837 10.9443C13.9377 11.0718 13.6031 11.6134 13.6031 12.2824C13.6031 13.0151 14.0014 13.5886 14.527 13.6364C14.8138 14.7514 15.4191 15.6912 16.2474 16.3284L16.12 17.4912C16.104 17.6824 15.9925 17.8417 15.8492 17.9532C15.8014 17.985 15.7376 18.0169 15.6739 18.0328L12.7589 18.8771C12.3766 18.9567 11.9943 19.1638 11.612 19.4824C11.0067 19.9762 10.6084 20.6612 10.4492 21.4258L10.4014 21.7921" stroke="white" stroke-width="0.907965" stroke-linecap="round" stroke-linejoin="round"/>
<path d="M14.8779 8.42725C14.2566 9.33521 14.3681 10.9441 14.3681 10.9441" stroke="white" stroke-width="0.907965" stroke-linecap="round" stroke-linejoin="round"/>
<path d="M22.6341 10.9446C22.6341 10.9446 22.6819 10.0207 22.3633 8.98535" stroke="white" stroke-width="0.907965" stroke-linecap="round" stroke-linejoin="round"/>
<path d="M14.877 8.42733C14.8929 6.59547 16.438 5.54415 17.8876 5.353C18.238 5.30521 19.4327 5.16185 20.2451 4.84326C20.3566 5.01848 20.3725 5.24149 20.2929 5.41671C21.169 5.65565 21.8858 5.54415 22.6345 5.22556C22.6345 5.75123 22.6663 6.83441 22.4433 7.31229C22.2362 7.80609 21.838 8.22025 21.3283 8.37955C20.9938 8.47512 20.6433 8.45919 20.3088 8.4114C19.6239 8.31583 18.9548 8.12468 18.2858 7.98132C17.6168 7.85388 16.9 7.79016 16.2469 7.99724" stroke="white" stroke-width="0.907965" stroke-linecap="round" stroke-linejoin="round"/>
<path d="M27.5406 32.3688H9.50879C9.50879 31.4927 10.2256 30.7759 11.1017 30.7759H25.9318C26.8079 30.7759 27.5247 31.4927 27.5247 32.3688H27.5406Z" stroke="white" stroke-width="0.907965" stroke-linecap="round" stroke-linejoin="round"/>
<path d="M26.506 30.776L28.4175 24.3725C28.6245 23.6716 28.0989 22.9707 27.3661 22.9707H9.68472C8.95198 22.9707 8.42631 23.6716 8.63339 24.3725L10.5449 30.776" fill="#1853A4"/>
<path d="M26.506 30.776L28.4175 24.3725C28.6245 23.6716 28.0989 22.9707 27.3661 22.9707H9.68472C8.95198 22.9707 8.42631 23.6716 8.63339 24.3725L10.5449 30.776" stroke="white" stroke-width="0.907965" stroke-linecap="round" stroke-linejoin="round"/>
<path d="M16.2324 16.3438L17.6342 17.1084C18.1917 17.411 18.8607 17.411 19.4183 17.1084L20.8041 16.3438" stroke="white" stroke-width="0.907965" stroke-linecap="round" stroke-linejoin="round"/>
<path d="M9.78125 24.1338L11.2149 28.9603C11.4697 28.4984 11.6768 28.0046 11.8202 27.4789C11.9476 27.0488 12.0432 26.555 12.3777 26.2524C12.7441 25.9338 13.2857 25.9179 13.7636 25.9338C15.4202 25.9816 17.0768 26.1887 18.7175 25.9338C20.183 25.6949 21.5848 25.0577 22.7476 24.1338H9.78125Z" fill="#E6F4F9"/>
</svg>
