<svg width="104" height="37" viewBox="0 0 104 37" fill="none" xmlns="http://www.w3.org/2000/svg">
<path d="M52.0094 15.7279C51.3085 15.2978 50.8784 14.9314 50.2731 14.2305C49.5881 14.9951 49.0466 15.4093 48.1545 15.9349L46.9758 14.9633C46.8005 15.2818 46.6572 15.4889 46.4023 15.7916L45.0324 15.2022C45.4465 14.788 45.6696 14.4695 45.8926 14.0712L45.128 14.565C44.889 14.2464 44.5227 13.7208 44.3474 13.3863C44.3156 13.3863 44.2041 13.45 44.1881 13.4659C44.1404 13.4978 44.1244 13.4978 44.1085 13.5296C43.9014 14.0872 43.535 14.9633 43.0572 15.7916L41.751 15.1863C42.42 14.2305 42.6749 13.5774 42.9297 12.6217H42.3244V5.02344H46.0359V12.6217H45.5421C45.7173 13.004 45.9722 13.3863 46.1315 13.5934C46.3386 13.0518 46.466 12.6854 46.5935 12.0482C46.8165 10.8695 46.8483 9.57919 46.8483 8.81459C46.8483 7.54025 46.7368 5.86769 46.6731 5.02344H52.9014V6.31371H48.1545C48.1864 6.83937 48.1864 7.11016 48.2182 8.12963H52.0572L52.5669 8.54379C52.4713 9.18096 52.3598 9.97742 51.9935 11.1403C51.6589 12.1916 51.4359 12.5898 51.1333 13.0995C51.6908 13.7367 52.2005 14.1509 53.22 14.7243L52.0412 15.7597L52.0094 15.7279ZM43.0412 12.6217L44.2678 13.1473C44.2678 13.1473 44.3474 13.1792 44.3634 13.211L45.2395 12.6217H43.0412ZM44.8572 6.29777H43.4873V7.25353H44.8572V6.29777ZM44.8572 8.30486H43.4873V9.26061H44.8572V8.30486ZM44.8572 10.3119H43.4873V11.3473H44.8572V10.3119ZM48.1864 9.46769C48.0908 11.8411 47.8359 13.1951 47.0395 14.8518C48.2501 14.3739 48.8873 13.7367 49.4607 13.0518C49.1581 12.4624 48.505 11.2358 48.1864 9.46769ZM49.62 9.40397C49.7474 10.1686 50.0342 11.188 50.289 11.7615C50.4643 11.3473 50.7669 10.6783 50.9581 9.40397H49.6359H49.62Z" fill="#03B8DF"/>
<path d="M59.7347 11.4436C59.5755 11.5233 59.5595 11.5711 59.5436 11.6666C59.1772 13.9286 58.4445 14.9481 55.9595 15.8879L54.9082 14.7091C57.2976 13.9764 58.11 13.0843 58.1418 10.9339L59.7029 11.1569C59.7985 11.1569 59.8781 11.2206 59.8781 11.3003C59.8781 11.3799 59.7825 11.4118 59.7347 11.4436ZM60.9932 7.15868V7.76399H64.2905V8.87903H56.1347V7.76399H59.464V7.15868H55.0356V5.96399H59.464V4.96045L61.0728 5.11974C61.1684 5.11974 61.2321 5.18346 61.2321 5.26311C61.2321 5.29497 61.1843 5.35868 61.1524 5.37461C61.0409 5.50205 60.9932 5.5339 60.9932 5.59762V5.96399H65.4852V7.15868H60.9932ZM63.9241 11.8897V10.5516H56.533V11.8897H55.1153V9.37284H65.3259V11.8897H63.9082H63.9241ZM63.9719 15.6808H61.7896C61.1525 15.6808 60.6268 15.3781 60.6268 14.6932V10.9339L62.0763 11.0932C62.1719 11.0932 62.2356 11.1569 62.2356 11.2366C62.2356 11.3162 62.2038 11.3481 62.0923 11.4118C62.0604 11.4436 62.0126 11.4914 62.0126 11.5233V13.8171C62.0126 14.2153 62.1082 14.3268 62.5224 14.3268H63.494C63.9082 14.3268 64.0993 14.1675 64.2109 13.0206L65.5967 13.4985C65.2144 15.5056 64.7047 15.6967 63.9719 15.6967V15.6808Z" fill="#03B8DF"/>
<path d="M71.0607 13.8011V15.7764H69.8183V13.8011H67.5245V12.6861H69.8183V12.0171H67.7953V7.46132H68.2094C67.9227 6.74451 67.4767 6.10734 67.3174 5.8684L68.305 5.31088C68.6873 5.83655 68.974 6.33035 69.2448 6.98345L68.3687 7.46132H71.4431C71.682 6.9038 71.9209 6.39407 72.2236 5.05602L73.3864 5.40646C73.3864 5.40646 73.5298 5.50203 73.5298 5.56575C73.5298 5.62947 73.4661 5.69318 73.4342 5.70911C73.2908 5.78876 73.259 5.80469 73.1793 5.99584C73.0041 6.48964 72.797 6.99938 72.574 7.47726H73.1634V12.033H71.0767V12.702H73.7368V13.8171H71.0767L71.0607 13.8011ZM69.8183 8.48079H68.974V9.30911H69.8183V8.48079ZM69.8183 10.2011H68.974V11.0295H69.8183V10.2011ZM70.0572 7.36575C69.8501 6.48965 69.5475 5.80469 69.4041 5.47017L70.5032 5.07194C70.8377 5.83654 71.0129 6.53743 71.1244 7.07903L70.0572 7.36575ZM71.9687 8.48079H71.0448V9.30911H71.9687V8.48079ZM71.9687 10.2011H71.0448V11.0295H71.9687V10.2011ZM77.99 15.3781C77.8307 15.6171 77.6873 15.7923 77.3846 15.7923C76.4607 15.7923 75.5528 14.3268 75.3616 14.0082C74.836 14.5657 74.374 15.0596 73.5776 15.633L72.6696 14.725C73.6572 14.1197 74.2944 13.4507 74.82 12.8135C74.6607 12.3038 74.39 11.3162 74.2307 9.34097L73.4342 9.50026L73.3068 8.3215L74.1669 8.16221C74.1191 7.04717 74.1191 5.85248 74.1191 4.83301L75.4254 4.94451C75.5209 4.94451 75.6324 4.9923 75.6324 5.1038C75.6324 5.19938 75.6006 5.23124 75.5209 5.31088C75.4572 5.39053 75.3935 5.47018 75.3935 5.66133V6.71265C75.3935 7.09496 75.3935 7.81176 75.4254 7.9392L78.213 7.46132L78.3563 8.5923L75.4731 9.13389C75.5528 10.233 75.6324 10.7268 75.7599 11.5233C76.3333 10.5038 76.4926 9.93035 76.62 9.53212L77.8147 9.96221C77.8147 9.96221 77.9262 10.0578 77.9262 10.1056C77.9262 10.1693 77.8625 10.2171 77.8466 10.2171C77.6873 10.2808 77.6395 10.3127 77.5758 10.456C77.2094 11.2843 76.9705 11.8259 76.2059 12.925C76.5563 13.6737 77.0023 14.1038 77.1935 14.1038C77.4484 14.1038 77.5598 13.6259 77.6714 13.1799L78.6271 13.9764C78.5315 14.2472 78.2926 14.9162 77.974 15.4259L77.99 15.3781ZM76.7475 7.20646C76.4607 6.41 76.2059 6.05955 75.9351 5.69318L76.9068 5.11973C77.4802 5.91619 77.6395 6.31442 77.7988 6.71265L76.7475 7.20646Z" fill="#03B8DF"/>
<path d="M90.7812 11.6822C90.6697 11.6503 90.5104 11.6025 90.383 11.5548V15.6645H89.1246V15.1866H86.9901V15.7282H85.7317V11.7459L85.0626 11.1247V14.3264H83.9476V13.9123H81.6856V14.9477H80.5547V5.7406H85.0626V7.9229C85.6042 7.23795 86.2095 6.13883 86.5441 4.80078L87.7865 5.03972C88.0573 5.0875 88.137 5.13529 88.137 5.2468C88.137 5.31051 88.137 5.34237 87.9618 5.42202C87.8662 5.46981 87.8503 5.50167 87.7387 5.77246H90.0803L90.6856 6.3937C90.4467 6.99901 90.1441 7.76361 89.0609 9.10167C90.0963 9.89813 90.8131 10.2167 91.5458 10.4397L90.7972 11.6981L90.7812 11.6822ZM82.291 6.96715H81.6856V8.97423H82.291V6.96715ZM82.291 10.376H81.6856V12.5424H82.291V10.376ZM83.9476 6.96715H83.3264V8.97423H83.9476V6.96715ZM83.9476 10.376H83.3264V12.5424H83.9476V10.376ZM86.56 8.08219C86.4325 8.33706 86.1777 8.78308 85.9387 9.08573L85.0626 8.52821V10.6309C85.875 10.2804 86.56 9.69105 87.1972 9.06981C86.7989 8.576 86.6556 8.27334 86.56 8.08219ZM88.137 10.0733C87.6272 10.5512 87.2768 10.8698 86.7193 11.2362H89.7299C88.9972 10.8061 88.5511 10.4397 88.137 10.0733ZM89.1246 12.4787H86.9901V13.9441H89.1246V12.4787ZM87.3883 6.90344C87.5317 7.31759 87.675 7.62025 88.0573 8.09813C88.4556 7.58839 88.6467 7.28574 88.806 6.90344H87.3883Z" fill="#03B8DF"/>
<path d="M102.807 13.0201C101.851 14.4378 100.529 14.9794 99.8441 15.2661L98.9043 13.9599C99.4777 13.8007 100.418 13.5299 101.198 12.59C101.979 11.6661 102.122 10.6148 102.122 10.0573C102.122 9.3564 101.915 8.49622 101.198 7.8272C100.402 7.0626 99.5096 7.01481 99.0317 6.96703C98.6175 9.99357 97.8689 11.7776 97.4547 12.6378C97.0724 13.4343 96.483 14.5015 95.8299 14.5015C95.368 14.5015 93.2812 13.3546 93.2812 11.0768C93.2812 8.25729 95.6069 5.67676 98.9043 5.67676C101.549 5.67676 103.635 7.47676 103.635 10.3122C103.635 11.4272 103.285 12.3192 102.823 13.0201H102.807ZM95.9574 8.11392C95.0494 8.9741 94.683 10.1688 94.683 10.9334C94.683 11.9688 95.2724 12.4945 95.4954 12.4945C96.1644 12.4945 97.2476 9.16525 97.5025 7.19003C97.1361 7.31747 96.5627 7.50861 95.9414 8.11392H95.9574Z" fill="#03B8DF"/>
<path d="M46.642 25.7159V24.6168H48.9677V24.1389H47.0881V23.0398H48.9677V22.562H46.9128V21.877C46.658 23.1832 46.5624 23.7248 46.2438 24.3301L45.081 24.0434V24.4575H46.4509V25.7637H45.081V25.8912C45.4155 26.4168 45.8774 27.0699 46.7058 27.7708L45.7819 28.8062C45.6066 28.6469 45.304 28.3602 45.0969 28.0257V31.7372H43.7907V28.7903C43.6155 29.1407 43.3288 29.6186 43.1217 29.9053L41.8633 29.1407C42.6597 28.1372 43.281 27.0062 43.5518 25.7478H42.0385V24.4416H43.7907V20.7142L45.0173 20.8097C45.1128 20.8097 45.3677 20.8416 45.3677 20.969C45.3677 21.0009 45.3359 21.0328 45.304 21.0646C45.1288 21.192 45.1128 21.208 45.1128 21.2717V24.0115C45.4951 22.8646 45.5429 22.6416 45.7022 21.4947L46.9447 21.7496V21.4947H48.9996V20.6982L50.3058 20.746C50.3058 20.746 50.5766 20.746 50.5766 20.8894C50.5766 20.9372 50.4173 21.1124 50.4173 21.1602V21.4947H52.7589V22.546H50.4173V23.0239H52.3288V24.123H50.4173V24.6009H52.9341V25.7H46.6739L46.642 25.7159ZM42.4208 24.2664C42.3889 23.5814 42.3093 22.6894 41.9429 21.654L43.2651 21.4628C43.4881 22.323 43.6155 23.2151 43.7111 24.1071L42.4208 24.2664ZM50.3058 31.8009L49.7004 30.3832C50.1465 30.431 50.6243 30.431 50.6881 30.431C50.8633 30.431 51.1022 30.431 51.1022 30.208V29.9372H48.3465V31.7212H47.104V26.0505H52.3447V30.7336C52.3447 31.6416 51.7872 31.7531 50.2739 31.785L50.3058 31.8009ZM51.1181 27.1018H48.3624V27.5956H51.1181V27.1018ZM51.1181 28.5036H48.3624V28.9974H51.1181V28.5036Z" fill="#03B8DF"/>
<path d="M63.0642 22.6893V23.422H65.1669V24.553H63.0642V26.4008H58.3651V24.553H57.0271C56.9952 25.7955 56.9952 27.245 56.6448 28.9813C56.374 30.3671 56.1032 30.9406 55.7846 31.5618L54.3828 31.1955C54.6695 30.7017 54.8607 30.3353 55.0678 29.5548C55.4501 28.1848 55.6094 26.7034 55.6094 24.7601C55.6094 23.7087 55.5775 22.5618 55.5138 21.5424H59.4324V20.73L61.1209 20.8415C61.1209 20.8415 61.3598 20.8733 61.3598 21.0008C61.3598 21.0963 61.312 21.1282 61.2324 21.1601C61.1527 21.1919 61.089 21.2556 61.089 21.3034V21.5424H65.6129V22.6733H63.0324L63.0642 22.6893ZM64.5456 31.7848C62.9209 31.5618 61.9173 31.2433 60.5793 30.5424C59.5917 31.0202 58.7952 31.3388 57.266 31.6893L56.5173 30.5742C57.489 30.4149 58.3333 30.1919 59.4005 29.7618C59.0979 29.507 58.6678 29.1565 58.0465 28.4556L59.2094 28.0574H57.2182V26.8787H63.5899L64.1474 27.4521C63.4465 28.4397 62.8731 29.0132 61.9014 29.73C62.6182 30.0167 63.4625 30.3194 65.2625 30.5105L64.5297 31.8008L64.5456 31.7848ZM58.3651 22.6893H57.0271V23.422H58.3651V22.6893ZM59.512 28.0415C59.8625 28.4875 60.181 28.7902 60.6748 29.0928C61.3598 28.6149 61.6625 28.2645 61.8536 28.0415H59.512ZM61.6784 22.6893H59.735V23.422H61.6784V22.6893ZM61.6784 24.5689H59.735V25.3494H61.6784V24.5689Z" fill="#03B8DF"/>
<path d="M74.6442 31.4024C72.1434 31.4024 70.7734 29.9528 70.7734 27.436V21.813H72.4938V27.6431C72.4938 29.2519 73.4018 29.8572 74.5965 29.8572C75.9982 29.8572 76.731 29.0767 76.731 27.6431V21.813H78.4513V27.436C78.4513 30.3829 76.6354 31.4024 74.6442 31.4024Z" fill="#03B8DF"/>
<path d="M84.6951 27.7863H82.1305V31.0995H80.4102V21.7969H84.6951C86.7181 21.7969 87.865 23.1668 87.865 24.7438C87.865 26.6234 86.4314 27.7863 84.6951 27.7863ZM84.4402 23.2464H82.1305V26.3367H84.4402C85.396 26.3367 86.065 25.811 86.065 24.7278C86.065 23.6447 85.3482 23.2464 84.4402 23.2464Z" fill="#03B8DF"/>
<path d="M28.9433 0.00585938H8.10792C3.88515 0.00585938 0.461914 3.4291 0.461914 7.65188V28.4873C0.461914 32.7101 3.88515 36.1333 8.10792 36.1333H28.9433C33.1661 36.1333 36.5893 32.7101 36.5893 28.4873V7.65188C36.5893 3.4291 33.1661 0.00585938 28.9433 0.00585938Z" fill="#03B8DF"/>
<path d="M8.12326 26.0503H5.60645V30.0645H8.12326V26.0503Z" fill="#1853A4"/>
<path d="M11.1345 30.08H10.131V26.5597H6.11682V30.08H5.11328V25.5562H11.1345V30.08Z" fill="white"/>
<path d="M15.1477 19.0259H12.6309V30.0648H15.1477V19.0259Z" fill="#1853A4"/>
<path d="M18.1589 30.0804H17.1554V19.5353H13.1412V30.0804H12.1377V18.5317H18.1589V30.0804Z" fill="white"/>
<path d="M22.1731 12H19.6562V30.0637H22.1731V12Z" fill="#1853A4"/>
<path d="M25.1843 30.0798H24.1808V12.5099H20.1666V30.0798H19.1631V11.5063H25.1843V30.0798Z" fill="white"/>
<path d="M28.9758 4.97559H26.459V30.0641H28.9758V4.97559Z" fill="#1853A4"/>
<path d="M32.2097 30.0802H31.2062V5.48548H27.192V30.0802H26.1885V4.48193H32.2097V30.0802Z" fill="white"/>
<path d="M32.2248 30.9722H5.11328V31.9757H32.2248V30.9722Z" fill="white"/>
<path d="M6.11682 18.5317H5.11328V19.5353H6.11682V18.5317Z" fill="white"/>
<path d="M8.45764 18.5317H7.4541V19.5353H8.45764V18.5317Z" fill="white"/>
<path d="M10.8004 18.5317H9.79688V19.5353H10.8004V18.5317Z" fill="white"/>
<path d="M6.11682 11.5063H5.11328V12.5099H6.11682V11.5063Z" fill="white"/>
<path d="M8.45764 11.5063H7.4541V12.5099H8.45764V11.5063Z" fill="white"/>
<path d="M10.8004 11.5063H9.79688V12.5099H10.8004V11.5063Z" fill="white"/>
<path d="M13.1422 11.5063H12.1387V12.5099H13.1422V11.5063Z" fill="white"/>
<path d="M15.483 11.5063H14.4795V12.5099H15.483V11.5063Z" fill="white"/>
<path d="M17.8239 11.5063H16.8203V12.5099H17.8239V11.5063Z" fill="white"/>
<path d="M6.11682 4.48193H5.11328V5.48548H6.11682V4.48193Z" fill="white"/>
<path d="M8.45764 4.48193H7.4541V5.48548H8.45764V4.48193Z" fill="white"/>
<path d="M10.8004 4.48193H9.79688V5.48548H10.8004V4.48193Z" fill="white"/>
<path d="M13.1422 4.48193H12.1387V5.48548H13.1422V4.48193Z" fill="white"/>
<path d="M15.483 4.48193H14.4795V5.48548H15.483V4.48193Z" fill="white"/>
<path d="M17.8239 4.48193H16.8203V5.48548H17.8239V4.48193Z" fill="white"/>
<path d="M20.1666 4.48193H19.1631V5.48548H20.1666V4.48193Z" fill="white"/>
<path d="M22.5084 4.48193H21.5049V5.48548H22.5084V4.48193Z" fill="white"/>
<path d="M24.8492 4.48193H23.8457V5.48548H24.8492V4.48193Z" fill="white"/>
</svg>
