<svg width="129" height="37" viewBox="0 0 129 37" fill="none" xmlns="http://www.w3.org/2000/svg">
<path d="M41.7474 14.235C41.2212 14.3785 41.1734 14.3945 41.1415 14.4582C41.0777 14.5699 41.0617 14.6177 40.982 14.6177C40.9023 14.6177 40.8704 14.4901 40.8544 14.4104L40.6152 13.2304C41.1096 13.1347 41.4604 13.039 42.1939 12.8636V10.3281H40.9661V9.08431H42.1939V6.93155H40.8225V5.73557H45.0164V6.93155H43.5653V9.08431H44.8091V10.3281H43.5653V12.5128C44.0437 12.4012 44.4105 12.2895 45.1281 12.0822L45.16 13.1666C44.5221 13.4058 43.5015 13.7726 41.7634 14.2509L41.7474 14.235ZM50.6136 15.6861H49.4655C48.8436 15.6861 48.413 15.5107 48.413 14.7453V11.8749H46.7705L47.8709 12.1141C47.8709 12.1141 48.0622 12.162 48.0622 12.2736C48.0622 12.3852 47.9346 12.4171 47.823 12.4331C47.6954 13.055 47.3765 13.8523 46.8184 14.5061C46.2124 15.2396 45.5108 15.6542 44.554 15.9253L43.5653 14.8729C45.4948 14.3626 46.34 13.3579 46.4676 11.8749H45.6224V5.28906H51.1239V11.8749H49.7525V14.2031C49.7525 14.4423 49.7844 14.5061 50.0396 14.5061H50.3106C50.4701 14.5061 50.5817 14.5061 50.6774 14.3147C50.7731 14.1234 50.8209 13.6131 50.8528 13.2463L52.1604 13.8204C51.8734 15.2715 51.4907 15.7021 50.5977 15.7021L50.6136 15.6861ZM49.7047 6.42126H47.0097V7.1229H49.7047V6.42126ZM49.7047 8.14347H47.0097V8.877H49.7047V8.14347ZM49.7047 9.89757H47.0097V10.6949H49.7047V9.89757Z" fill="#03B8DF"/>
<path d="M57.6623 13.7565C56.8969 14.0276 56.1155 14.2827 55.3341 14.5219C55.2066 14.5538 54.6006 14.7292 54.473 14.7611C54.186 14.8568 54.0584 14.8887 53.9787 14.9844C53.899 15.0801 53.8511 15.1439 53.7873 15.1439C53.7395 15.1439 53.6917 15.112 53.6917 15.0482L53.4365 13.4535C53.9468 13.3579 54.5049 13.2303 54.9355 13.1346V9.30747H53.5641V7.90418H54.9355V5.01789L56.4344 5.09762C56.4344 5.09762 56.5939 5.12951 56.5939 5.20924C56.5939 5.28898 56.4982 5.33681 56.4663 5.36871C56.4026 5.4006 56.3069 5.46439 56.3069 5.52817V7.92013H57.5348V9.32342H56.3069V12.7838C57.0404 12.5765 57.2956 12.4968 57.6942 12.3692L57.6623 13.7565ZM63.0522 15.8136H60.3094C59.257 15.8136 58.4277 15.3193 58.4277 14.2509V10.8862L57.2318 11.3646L56.8172 10.057L58.4277 9.43504V5.75142L59.8629 5.89494C59.8629 5.89494 60.0224 5.92683 60.0224 6.02251C60.0224 6.08629 59.9905 6.13414 59.9267 6.18198C59.831 6.26171 59.7832 6.30954 59.7832 6.37333V8.89286L60.6124 8.55799V4.9541L62.0954 5.06573C62.1911 5.06573 62.2549 5.11356 62.2549 5.17735C62.2549 5.22519 62.223 5.27303 62.1752 5.32087C62.0954 5.38465 61.9838 5.46439 61.9838 5.52817V8.03176L63.8017 7.29822L64.4714 7.64904V11.9386C64.4714 13.0708 63.4987 13.1506 62.7811 13.1665L62.0157 11.8748C62.2389 11.9067 62.4781 11.9386 62.6854 11.9386C63.0522 11.9386 63.0682 11.5719 63.0682 11.4762V9.05233L61.9838 9.48288V13.2781H60.6124V10.0251L59.7832 10.3599V13.7087C59.7832 14.3465 59.9905 14.4741 60.3892 14.4741H62.6535C63.1957 14.4741 63.3233 13.9957 63.4509 13.4854L64.7904 14.0117C64.5671 14.7452 64.2163 15.8295 63.0682 15.8295L63.0522 15.8136Z" fill="#03B8DF"/>
<path d="M75.5059 15.0165C74.3418 13.5813 73.4329 12.6723 72.3964 11.8272C71.3758 12.9594 70.435 13.9321 68.043 15.0962L66.9268 13.9321C67.756 13.5813 69.3825 12.8956 70.9931 11.1734C72.3645 9.7063 72.8748 8.41464 73.1618 7.69705H68.2981V6.21404H73.7997C74.0388 6.21404 74.2302 6.08647 74.4694 5.927L75.4581 7.01136C75.2029 7.18677 74.9159 7.41002 74.7724 7.77678C74.3418 8.79735 74.1026 9.38737 73.2894 10.6312C74.5332 11.5561 75.6175 12.6404 76.67 13.7886L75.5378 15.0005L75.5059 15.0165Z" fill="#03B8DF"/>
<path d="M88.4227 8.57391C88.0719 9.56258 87.8167 10.2961 86.9556 11.6356C87.2745 11.9067 87.5775 12.1778 88.024 12.6083L87.0832 13.7086C86.8599 13.5013 86.6208 13.2462 86.0945 12.7838C85.1058 13.8841 84.1969 14.7771 82.0601 15.8933L80.9119 14.6973C82.985 13.9797 84.0693 12.8954 85.0102 11.8908C84.468 11.4921 83.878 11.0775 82.9052 10.5513L83.6866 9.59447C84.452 9.92935 84.9783 10.2004 85.8553 10.8064C86.6207 9.6742 86.8281 9.08419 87.0035 8.44633H83.7344C82.8893 9.62637 82.2674 10.3759 81.4222 11.0297L80.2422 10.1526C82.0441 8.92472 83.272 6.75602 83.8142 5.16138L85.2175 5.57598C85.2175 5.57598 85.4726 5.67166 85.4726 5.76734C85.4726 5.84707 85.361 5.89491 85.1856 5.97464C85.0261 6.27762 84.7869 6.77196 84.5318 7.21846H87.4659C87.6254 7.21846 87.8486 7.04305 88.04 6.91548L88.9808 7.90415C88.7576 8.09551 88.5343 8.31876 88.4386 8.62174L88.4227 8.57391Z" fill="#03B8DF"/>
<path d="M94.418 11.1414C94.1948 10.4078 93.8759 9.73808 93.4453 9.08428L94.6253 8.63778C95.0559 9.30753 95.3908 9.97728 95.614 10.6949L94.434 11.1414H94.418ZM101.052 8.86103C100.94 8.92482 100.924 8.97266 100.797 9.467C99.8398 13.3739 97.2725 14.8728 96.0446 15.5904L95.024 14.6815C97.4957 13.4536 99.2339 11.7154 99.7122 8.09561L100.956 8.47832C101.116 8.52616 101.211 8.62183 101.211 8.70156C101.211 8.7813 101.179 8.79724 101.052 8.84508V8.86103ZM96.7622 10.5195C96.5389 9.75403 96.2519 9.10023 95.8532 8.44642L96.9854 8.01587C97.4638 8.76535 97.719 9.56267 97.8465 10.0889L96.7462 10.5195H96.7622Z" fill="#03B8DF"/>
<path d="M114.144 7.85631C113.57 9.35527 112.964 10.9499 111.576 12.6243C110.269 14.2349 108.849 15.0003 108.084 15.4149L106.697 14.2987C108.897 13.2621 111.178 11.6197 112.485 7.77658H105.708V6.27762H112.916C113.075 6.27762 113.203 6.18194 113.33 6.07031L114.59 7.21845C114.367 7.4417 114.239 7.58522 114.144 7.85631Z" fill="#03B8DF"/>
<path d="M127.204 13.1826C126.247 14.6018 124.924 15.144 124.238 15.431L123.297 14.1234C123.871 13.964 124.812 13.6929 125.593 12.752C126.375 11.8271 126.518 10.7747 126.518 10.2166C126.518 9.51492 126.311 8.65382 125.593 7.98407C124.796 7.21864 123.903 7.1708 123.425 7.12296C123.01 10.1528 122.261 11.9388 121.846 12.7999C121.463 13.5972 120.873 14.6656 120.219 14.6656C119.757 14.6656 117.668 13.5175 117.668 11.2371C117.668 8.41462 119.996 5.8313 123.297 5.8313C125.944 5.8313 128.033 7.63324 128.033 10.4717C128.033 11.5879 127.682 12.4809 127.22 13.1826H127.204ZM120.347 8.2711C119.438 9.13221 119.071 10.3282 119.071 11.0936C119.071 12.1301 119.661 12.6564 119.885 12.6564C120.554 12.6564 121.639 9.32356 121.894 7.34621C121.527 7.47378 120.953 7.66514 120.331 8.2711H120.347Z" fill="#03B8DF"/>
<path d="M42.7042 20.9963L44.0596 21.0442C44.3466 21.0442 44.3945 21.092 44.3945 21.1717C44.3945 21.2036 44.3945 21.2196 44.3626 21.2515C44.2988 21.3312 44.1712 21.4588 44.1712 21.5066V22.1764H45.2237V22.6229C45.3832 22.3358 45.5267 22.0169 45.734 21.4747L46.93 21.9531C47.0256 21.985 47.1213 22.0328 47.1213 22.1126C47.1213 22.1445 47.1213 22.1923 47.0575 22.2083C46.8981 22.2402 46.8662 22.2561 46.8024 22.3677C46.4994 22.9737 46.2921 23.3564 45.9413 23.9305H46.5154V25.0467H45.144C44.8729 25.3816 44.6496 25.6367 44.2988 25.9716H45.4788L46.0689 26.5138C45.3194 27.3908 44.841 27.8214 44.3945 28.236V28.2838C45.0004 28.252 45.144 28.236 46.324 28.1244L46.3559 29.129C45.6702 29.2087 44.7294 29.3044 44.3945 29.3523V30.612C44.3945 31.7921 43.8045 31.8718 42.5766 31.8877L42.0025 30.7077C42.5766 30.7396 42.6085 30.7396 42.752 30.7396C42.9593 30.7396 43.0709 30.628 43.0709 30.4366V29.4639C42.8636 29.4958 41.572 29.5755 41.5082 29.6074C41.4603 29.6074 41.2849 29.8306 41.2371 29.8306C41.1414 29.8306 41.1095 29.735 41.0617 29.5277L40.7906 28.4114C41.3647 28.4114 42.0344 28.4114 43.055 28.3476V27.6141L43.5812 27.6938C43.7407 27.4706 43.8523 27.2792 43.932 27.056H43.0231C42.449 27.4706 42.0344 27.7576 41.4125 28.1084L40.4238 27.3111C40.6471 27.1835 41.0776 26.9603 41.6198 26.5776V25.9716H42.4171C42.8477 25.6208 43.0231 25.4454 43.4377 25.0467H40.8384V23.9305H42.6882V23.1969H41.1733V22.1764H42.6882V20.9963H42.7042ZM44.1712 23.9464H44.3945C44.5539 23.7232 44.6975 23.5318 44.8888 23.2129H44.1553V23.9464H44.1712ZM45.7021 26.2108C46.4197 25.3497 47.3765 24.1378 47.8389 21.0761L49.2103 21.2515C49.2103 21.2515 49.4335 21.2993 49.4335 21.4109C49.4335 21.4428 49.4335 21.4907 49.4017 21.5066C49.2422 21.6342 49.2262 21.6501 49.1943 21.7458C49.0349 22.4156 48.9073 22.7983 48.7797 23.2448H51.7617V24.4886H51.092C50.8687 26.753 50.486 27.8214 49.6887 29.0971C50.3903 29.9582 50.9325 30.3569 51.8096 30.7874L50.8528 31.9037C49.9917 31.4253 49.4654 30.9788 48.7957 30.1496C48.2216 30.6599 47.6316 31.1382 46.1486 31.8399L45.2237 30.7715C46.8981 30.2134 47.5519 29.6393 48.11 29.0812C47.6954 28.2679 47.4402 27.646 47.1692 26.5297C47.1692 26.5297 47.0097 26.753 46.93 26.8646L45.734 26.2268L45.7021 26.2108ZM48.2854 24.5045C48.1578 24.7756 48.1259 24.8554 48.0622 24.967C48.2057 25.9397 48.3811 26.7689 48.9233 27.933C49.6249 26.6892 49.7206 25.4135 49.7844 24.5045H48.2695H48.2854Z" fill="#03B8DF"/>
<path d="M61.6489 22.8938C62.3984 23.3244 63.2276 23.8666 64.3279 24.8233L63.3712 25.8599C63.132 25.6207 62.9247 25.4293 62.2868 24.935C61.2343 25.0147 60.2297 25.0625 59.1932 25.0944C58.5872 25.1263 55.6372 25.1901 54.9674 25.2061C54.5528 25.2061 54.5209 25.2061 54.4252 25.3177C54.2498 25.525 54.2179 25.5569 54.1541 25.5569C54.0425 25.5569 54.0106 25.3496 53.9947 25.3177L53.8512 23.9463C55.3182 23.9463 55.9401 23.9782 56.5461 23.9782C56.8012 23.4998 56.8331 23.4041 57.0564 22.8779H53.5322V21.7457H58.2205V20.8208L59.847 20.9165C60.0703 20.9165 60.1659 20.9643 60.1659 21.0759C60.1659 21.1238 60.134 21.1716 60.0862 21.2035C59.9427 21.347 59.9108 21.3789 59.9108 21.4268V21.7297H64.5352V22.8619H61.633L61.6489 22.8938ZM60.8516 31.9833H60.5327L60.0384 30.6438C60.2935 30.6757 60.6124 30.6916 60.9473 30.6916C61.1387 30.6916 61.4097 30.6597 61.4097 30.4205V29.99H56.6896V31.8717H55.2544V25.7004H62.829V30.8351C62.829 31.9673 61.2024 31.9673 60.8676 31.9673L60.8516 31.9833ZM61.3938 26.8007H56.6737V27.3907H61.3938V26.8007ZM61.3938 28.3794H56.6737V28.9854H61.3938V28.3794ZM60.2776 23.5795L60.8197 22.8779H58.9699C58.5553 23.436 58.364 23.6752 58.1088 23.9622C58.9699 23.9622 59.7035 23.9622 60.8676 23.9304C60.6443 23.7868 60.5168 23.7071 60.2616 23.5795H60.2776Z" fill="#03B8DF"/>
<path d="M74.3092 30.4682V30.0217H67.6436V28.6184H74.3092V24.1853H67.6595V22.7661H75.8241V30.4682H74.3092Z" fill="#03B8DF"/>
<path d="M88.2628 30.963C87.0987 29.5278 86.1897 28.6189 85.1532 27.7737C84.1326 28.9059 83.1918 29.8786 80.7998 31.0427L79.6836 29.8786C80.5128 29.5278 82.1393 28.8421 83.7499 27.1199C85.1213 25.6528 85.6316 24.3612 85.9186 23.6436H81.055V22.1606H86.5565C86.7957 22.1606 86.987 22.033 87.2262 21.8735L88.2149 22.9579C87.9598 23.1333 87.6727 23.3566 87.5292 23.7233C87.0987 24.7439 86.8595 25.3339 86.0462 26.5777C87.29 27.5026 88.3744 28.587 89.4268 29.7192L88.2946 30.9311L88.2628 30.963Z" fill="#03B8DF"/>
<path d="M101.036 28.4912C100.096 27.6141 98.8199 26.5776 97.289 25.9397V31.4412H95.79V21.3472L97.3209 21.6183C97.3209 21.6183 97.6239 21.6661 97.6239 21.8256C97.6239 21.9053 97.289 22.1126 97.289 22.1764V25.5251L97.895 24.5843C98.5488 24.8713 98.9634 25.0308 100.064 25.7484C101.068 26.4181 101.547 26.8327 102.057 27.2792L101.052 28.5071L101.036 28.4912Z" fill="#03B8DF"/>
<path d="M115.037 26.721C114.048 26.4499 113.41 26.1629 112.501 25.5091C111.911 25.9396 111.417 26.2745 110.332 26.7848L109.519 25.9556V28.1562H107.797V28.6983H109.551V29.9422H107.797V31.9036H106.489V29.9422H104.544V28.6983H106.489V28.1562H104.783V23.5477H106.489V23.0852H104.735V21.9052H106.489V20.9165L107.797 20.9803C107.909 20.9803 108.084 21.0122 108.084 21.1238C108.084 21.1876 107.988 21.2514 107.941 21.2833C107.829 21.379 107.781 21.4108 107.781 21.4746V21.9052H109.503V23.0852H107.781V23.5477H109.503V25.5091C110.237 25.3018 110.731 25.0626 111.417 24.5842C110.938 24.1058 110.62 23.7071 110.125 22.9895L110.683 22.5271H109.79V21.2354H114.893L115.244 21.7298C114.574 23.2447 114.096 23.8985 113.506 24.5523C114.383 25.1583 115.419 25.3974 115.85 25.4931L115.021 26.6891L115.037 26.721ZM106.489 24.648H105.867V25.3656H106.489V24.648ZM106.489 26.3702H105.867V27.1356H106.489V26.3702ZM108.419 24.648H107.781V25.3656H108.419V24.648ZM108.419 26.3702H107.781V27.1356H108.419V26.3702ZM109.168 31.6325V30.3249H111.608V28.6983H109.966V27.4226H111.608V26.1469L113.091 26.3064C113.251 26.3064 113.378 26.3383 113.378 26.4659C113.378 26.5137 113.346 26.5615 113.299 26.5934C113.091 26.7688 113.075 26.7848 113.075 26.8645V27.4386H115.069V28.7143H113.075V30.3408H115.579V31.6484H109.184L109.168 31.6325ZM111.401 22.543C111.688 23.0852 111.911 23.3563 112.406 23.7869C112.852 23.3563 113.027 23.0533 113.203 22.543H111.385H111.401Z" fill="#03B8DF"/>
<path d="M118.753 30.7395C118.53 31.1382 118.466 31.2339 118.466 31.4093C118.466 31.4412 118.498 31.6485 118.498 31.6963C118.498 31.7761 118.434 31.808 118.37 31.808C118.306 31.808 118.211 31.7761 118.179 31.7601L116.871 30.9469C117.684 29.8784 118.545 28.22 119.024 27.0878L120.14 27.9808C119.885 28.5868 119.104 30.1336 118.753 30.7555V30.7395ZM118.817 26.3064C118.258 25.844 117.238 25.2859 116.887 25.1105L117.652 23.9145C118.386 24.2653 119.008 24.664 119.646 25.1583L118.817 26.3064ZM119.694 23.2607C119.311 23.0055 118.545 22.4953 117.812 22.1604L118.593 20.9166C119.614 21.4747 120.14 21.8734 120.475 22.1285L119.694 23.2447V23.2607ZM128.496 31.2179C128.4 31.4731 128.209 31.9674 127.635 31.9674C126.71 31.9674 125.961 30.6279 125.674 30.1017C124.972 30.8352 124.43 31.2658 123.648 31.7761L122.404 30.9309C123.664 30.3249 124.318 29.7987 125.083 28.8579C124.701 27.4386 124.621 26.5138 124.541 23.9942H121.926C122.022 29.0173 121.272 30.4685 120.587 31.6166L119.199 31.1542C120.14 29.5276 120.618 28.4433 120.618 24.951C120.618 24.4088 120.618 24.1537 120.571 22.575H124.541C124.541 22.2082 124.589 21.379 124.589 20.8528L126.088 20.9804C126.088 20.9804 126.375 21.0122 126.375 21.1717C126.375 21.2036 126.375 21.2355 126.343 21.2674C126.311 21.2993 126.136 21.4428 126.104 21.4906C126.008 21.6342 125.929 22.5272 125.929 22.5909H127.045C126.694 22.1763 126.567 22.0488 126.311 21.7777L127.188 20.9963C127.491 21.2674 127.922 21.7298 128.225 22.1763L127.731 22.5909H128.289V23.9942H125.865C125.833 25.541 125.865 25.9875 126.04 27.327C126.535 25.9556 126.614 25.0626 126.646 24.5842L128.018 25.1105C128.018 25.1105 128.241 25.1902 128.241 25.3178C128.241 25.3178 128.241 25.3975 128.177 25.4135C128.002 25.5091 127.89 25.5729 127.826 25.7802C127.587 26.6892 127.316 27.6778 126.582 28.8898C126.678 29.0652 127.061 29.9103 127.316 29.9103C127.587 29.9103 127.635 29.2246 127.635 29.0652L128.751 29.5914C128.703 30.5163 128.512 31.0904 128.48 31.202L128.496 31.2179ZM123.026 29.1768V29.6552H122.117V26.1789H124.334V29.1928H123.026V29.1768ZM122.341 25.5889V24.4886H124.222V25.5889H122.341ZM123.505 27.1038H123.026V28.236H123.505V27.1038Z" fill="#03B8DF"/>
<path d="M28.5122 0.138428H7.65427C3.42694 0.138428 0 3.56536 0 7.7927V28.6506C0 32.8779 3.42694 36.3049 7.65427 36.3049H28.5122C32.7395 36.3049 36.1664 32.8779 36.1664 28.6506V7.7927C36.1664 3.56536 32.7395 0.138428 28.5122 0.138428Z" fill="#03B8DF"/>
<path d="M11.2905 31.537C9.67995 31.537 8.53181 31.0586 8.00558 30.1496C6.69797 27.9012 9.64806 23.8508 14.9901 20.5339L15.5163 21.3631C10.3178 24.5843 8.00558 28.1723 8.86668 29.6553C9.34507 30.4685 10.7962 30.7556 12.8692 30.4048L13.0287 31.3775C12.4068 31.4732 11.8327 31.537 11.3065 31.537H11.2905Z" fill="white"/>
<path d="M18.4341 29.607L18.0195 28.714C18.7212 28.3792 19.4547 28.0124 20.1563 27.5978C22.0699 26.4975 23.7921 25.2218 25.1316 23.8982C27.2525 21.8252 28.1933 19.8797 27.5874 18.8432C27.0611 17.9343 25.323 17.6951 22.931 18.2213L22.7237 17.2645C25.6419 16.6267 27.6671 17.0253 28.4485 18.3648C29.3096 19.8638 28.3528 22.1282 25.8173 24.6158C24.414 25.9872 22.628 27.3108 20.6507 28.4589C19.9172 28.8895 19.1677 29.2722 18.4341 29.623V29.607Z" fill="white"/>
<path d="M25.148 31.5369C24.6537 31.5369 24.1115 31.489 23.5215 31.3934C21.2093 31.0266 18.4506 29.9741 15.7875 28.4433C10.573 25.4294 7.19239 21.4588 7.75052 18.9871L8.7073 19.1944C8.30864 20.9485 11.0355 24.5683 16.2818 27.5822C18.8492 29.0652 21.4644 30.0698 23.681 30.4206C25.6902 30.7396 27.1254 30.4525 27.5878 29.6552C28.433 28.1722 26.1367 24.5843 20.9382 21.3631L21.4644 20.5339C26.8224 23.8507 29.7566 27.9011 28.4489 30.1495C27.9227 31.0585 26.7746 31.5369 25.164 31.5369H25.148Z" fill="white"/>
<path d="M10.4765 17.9506C10.4765 18.732 9.83863 19.3539 9.07321 19.3539C8.30778 19.3539 7.66992 18.7161 7.66992 17.9506C7.66992 17.1852 8.30778 16.5474 9.07321 16.5474C9.83863 16.5474 10.4765 17.1852 10.4765 17.9506Z" fill="#EB6136"/>
<path d="M9.05778 19.848C8.00532 19.848 7.16016 18.9869 7.16016 17.9504C7.16016 16.9138 8.02126 16.0527 9.05778 16.0527C10.0943 16.0527 10.9554 16.9138 10.9554 17.9504C10.9554 18.9869 10.0943 19.848 9.05778 19.848ZM9.05778 17.0255C8.54749 17.0255 8.13289 17.4401 8.13289 17.9504C8.13289 18.4606 8.54749 18.8752 9.05778 18.8752C9.56806 18.8752 9.98267 18.4606 9.98267 17.9504C9.98267 17.4401 9.56806 17.0255 9.05778 17.0255Z" fill="white"/>
<path d="M15.7226 30.5959C15.7226 31.3773 15.0847 31.9992 14.3193 31.9992C13.5539 31.9992 12.916 31.3613 12.916 30.5959C12.916 29.8305 13.5539 29.1926 14.3193 29.1926C15.0847 29.1926 15.7226 29.8305 15.7226 30.5959Z" fill="#EB6136"/>
<path d="M14.3039 32.5094C13.2514 32.5094 12.4062 31.6482 12.4062 30.6117C12.4062 29.5752 13.2674 28.7141 14.3039 28.7141C15.3404 28.7141 16.2015 29.5752 16.2015 30.6117C16.2015 31.6482 15.3404 32.5094 14.3039 32.5094ZM14.3039 29.6868C13.7936 29.6868 13.379 30.1014 13.379 30.6117C13.379 31.122 13.7936 31.5366 14.3039 31.5366C14.8142 31.5366 15.2288 31.122 15.2288 30.6117C15.2288 30.1014 14.8142 29.6868 14.3039 29.6868Z" fill="white"/>
<path d="M21.6234 21.8252H20.6348V24.9507H21.6234V21.8252Z" fill="white"/>
<path d="M15.8188 21.8252H14.8301V24.9507H15.8188V21.8252Z" fill="white"/>
<path d="M22.1174 21.3308H14.3037V22.3195H22.1174V21.3308Z" fill="white"/>
<path d="M22.1174 22.8936H14.3037V23.8822H22.1174V22.8936Z" fill="white"/>
<path d="M22.1174 24.4565H14.3037V25.4452H22.1174V24.4565Z" fill="white"/>
<path d="M19.9646 26.0193H16.4883V27.008H19.9646V26.0193Z" fill="white"/>
<path d="M21.6078 22.3036H14.8146V21.8093C14.8146 20.3262 14.1767 18.907 13.0924 17.9024L13.0445 17.8546C13.0445 17.8546 12.9489 17.7748 12.901 17.727H12.8851C11.2426 16.2121 10.3018 14.0753 10.3018 11.8587C10.3018 7.4894 13.8578 3.93335 18.2271 3.93335C22.5964 3.93335 26.1525 7.4894 26.1525 11.8587C26.1525 14.0753 25.2116 16.2121 23.5692 17.711H23.5532C23.5532 17.711 23.4575 17.8067 23.3938 17.8546L23.3459 17.8865C22.2456 18.8751 21.6237 20.3103 21.6237 21.7933V22.2877L21.6078 22.3036ZM15.7873 21.3149H20.651C20.7785 19.7362 21.4961 18.2373 22.6921 17.1689L22.74 17.121C22.74 17.121 22.8516 17.0253 22.9154 16.9775C24.3505 15.6699 25.1798 13.8042 25.1798 11.8587C25.1798 8.03158 22.0702 4.92202 18.2431 4.92202C14.4159 4.92202 11.3064 8.03158 11.3064 11.8587C11.3064 13.8042 12.1356 15.654 13.5548 16.9775C13.6027 17.0253 13.6505 17.0572 13.7143 17.1051L13.7781 17.1529C14.9741 18.2373 15.6916 19.7203 15.8192 21.3149H15.7873Z" fill="white"/>
<path d="M18.227 6.03857C15.0058 6.03857 12.3906 8.65378 12.3906 11.875C12.3906 15.0961 15.0058 17.7113 18.227 17.7113C21.4482 17.7113 24.0634 15.0961 24.0634 11.875C24.0634 8.65378 21.4482 6.03857 18.227 6.03857Z" fill="white"/>
<path d="M18.6895 15.5104L17.7487 15.2234L18.6417 12.369H16.457L17.7487 8.2229L18.6895 8.52589L17.7965 11.3803H19.9812L18.6895 15.5104Z" fill="#03B8DF"/>
</svg>
