<svg width="270" height="220" viewBox="0 0 270 220" fill="none" xmlns="http://www.w3.org/2000/svg">
<rect opacity="0.3" x="21" y="64" width="148" height="149" fill="#D5F7FF"/>
<rect opacity="0.3" x="129" y="13" width="94" height="94" fill="#BCF3FF"/>
<rect opacity="0.3" x="193" y="92" width="70" height="70" fill="#D5F7FF"/>
<rect opacity="0.3" x="7" y="33" width="23" height="23" stroke="url(#paint0_linear_1606_4849)" stroke-width="2"/>
<rect opacity="0.3" x="208" y="151" width="41" height="42" fill="#87BAFF"/>
<path d="M213.864 167.801L222.253 169.112C225.093 165.674 227.05 161.595 227.955 157.229C221.821 162.25 212.493 159.581 205.055 162.323C202.741 163.196 200.654 164.578 198.948 166.367C197.241 168.156 195.959 170.306 195.196 172.658L191.097 177.069C194.808 178.538 198.793 179.185 202.779 178.966C206.764 178.746 210.654 177.666 214.182 175.798C216.15 174.731 217.977 173.42 219.617 171.896C216.682 170.048 213.864 167.801 213.864 167.801Z" fill="#F2F2F2"/>
<path d="M210.886 154.385L218.979 151.817C219.988 147.473 219.92 142.949 218.783 138.637C215.532 145.867 205.993 147.639 200.558 153.41C198.877 155.223 197.625 157.391 196.896 159.753C196.166 162.116 195.978 164.612 196.344 167.057L194.642 172.833C198.618 172.493 202.474 171.295 205.943 169.321C209.413 167.348 212.413 164.645 214.737 161.4C216.023 159.567 217.073 157.579 217.862 155.484C214.41 155.138 210.886 154.385 210.886 154.385Z" fill="#F2F2F2"/>
<path d="M228 179.741C228 179.784 227.992 179.827 227.975 179.867C227.959 179.907 227.934 179.944 227.904 179.974C227.873 180.005 227.837 180.029 227.797 180.046C227.757 180.062 227.714 180.07 227.671 180.07H41.3293C41.242 180.07 41.1582 180.036 41.0965 179.974C41.0347 179.912 41 179.828 41 179.741C41 179.654 41.0347 179.57 41.0965 179.508C41.1582 179.446 41.242 179.412 41.3293 179.412H227.671C227.714 179.411 227.757 179.42 227.797 179.436C227.837 179.453 227.873 179.477 227.904 179.508C227.934 179.538 227.959 179.575 227.975 179.615C227.992 179.655 228 179.698 228 179.741Z" fill="#CCCCCC"/>
<path d="M118.216 165.7C151.079 165.7 177.72 139.059 177.72 106.196C177.72 73.3332 151.079 46.6924 118.216 46.6924C85.3527 46.6924 58.7119 73.3332 58.7119 106.196C58.7119 139.059 85.3527 165.7 118.216 165.7Z" fill="#E7ECF2"/>
<path d="M169.418 106.196C169.424 114.185 167.557 122.065 163.969 129.203C160.38 136.34 155.168 142.538 148.752 147.298C148.323 147.619 147.886 147.932 147.446 148.236C138.865 154.201 128.666 157.397 118.217 157.397C107.767 157.397 97.5679 154.201 88.9878 148.236C88.5477 147.932 88.1104 147.619 87.6815 147.298C81.2696 142.534 76.0612 136.335 72.4729 129.199C68.8845 122.062 67.0156 114.184 67.0156 106.196C67.0156 98.208 68.8845 90.3306 72.4729 83.1937C76.0612 76.0568 81.2696 69.8585 87.6815 65.0942C88.1104 64.7731 88.5477 64.4604 88.9878 64.1559C97.5679 58.1918 107.767 54.9951 118.217 54.9951C128.666 54.9951 138.865 58.1918 147.446 64.1559C147.886 64.4604 148.323 64.7731 148.752 65.0942C155.168 69.8543 160.38 76.0518 163.969 83.1896C167.557 90.3274 169.424 98.2069 169.418 106.196Z" fill="white"/>
<path d="M118.216 152.969C144.048 152.969 164.989 132.028 164.989 106.196C164.989 80.3642 144.048 59.4233 118.216 59.4233C92.3843 59.4233 71.4434 80.3642 71.4434 106.196C71.4434 132.028 92.3843 152.969 118.216 152.969Z" fill="#68E1FD"/>
<path opacity="0.2" d="M118.338 59.5542C117.629 59.5542 116.924 59.5727 116.223 59.604C128.044 60.6428 139.029 66.1364 146.951 74.9718C154.874 83.8073 159.141 95.3238 158.889 107.188C158.638 119.053 153.885 130.378 145.595 138.869C137.305 147.361 126.097 152.383 114.242 152.919C115.592 153.036 116.958 153.1 118.338 153.1C130.743 153.1 142.64 148.172 151.411 139.4C160.183 130.629 165.111 118.732 165.111 106.327C165.111 93.9221 160.183 82.0253 151.411 73.2536C142.64 64.482 130.743 59.5542 118.338 59.5542Z" fill="black"/>
<path d="M118.355 56.1025C117.952 56.1032 117.565 56.2638 117.28 56.5492C116.994 56.8345 116.834 57.2212 116.833 57.6247V64.267C116.833 64.6707 116.993 65.0579 117.279 65.3434C117.564 65.6288 117.951 65.7892 118.355 65.7892C118.759 65.7892 119.146 65.6288 119.432 65.3434C119.717 65.0579 119.877 64.6707 119.877 64.267V57.6247C119.877 57.2212 119.716 56.8345 119.431 56.5492C119.145 56.2638 118.759 56.1032 118.355 56.1025Z" fill="white"/>
<path d="M148.751 65.0943C148.322 64.7732 147.885 64.4605 147.445 64.1561C147.181 64.1388 146.917 64.1908 146.679 64.3068C146.441 64.4228 146.238 64.5988 146.089 64.8175L142.35 70.3057C142.123 70.6393 142.037 71.0495 142.113 71.4461C142.188 71.8426 142.418 72.193 142.751 72.4202C143.085 72.6474 143.495 72.7327 143.892 72.6574C144.288 72.5822 144.638 72.3525 144.866 72.0189L148.605 66.5307C148.747 66.3225 148.835 66.082 148.861 65.8311C148.886 65.5802 148.849 65.3269 148.751 65.0943Z" fill="white"/>
<path d="M165.74 90.1189C165.665 89.9339 165.554 89.7655 165.414 89.6233C165.273 89.4811 165.106 89.368 164.922 89.2904C164.738 89.2128 164.541 89.1722 164.341 89.1709C164.141 89.1697 163.943 89.2078 163.758 89.2831L157.603 91.7823C157.23 91.9344 156.932 92.2288 156.775 92.6005C156.618 92.9722 156.615 93.391 156.767 93.7647C156.919 94.1385 157.213 94.4367 157.585 94.5938C157.956 94.7508 158.375 94.754 158.749 94.6025L164.904 92.1033C165.278 91.9503 165.575 91.6556 165.732 91.2837C165.888 90.9118 165.891 90.493 165.74 90.1189Z" fill="white"/>
<path d="M94.082 70.3057L90.3429 64.8175C90.1939 64.5988 89.9904 64.4228 89.7526 64.3068C89.5148 64.1908 89.2508 64.1388 88.9868 64.1561C88.5467 64.4605 88.1094 64.7732 87.6805 65.0943C87.5832 65.3269 87.5457 65.5802 87.5713 65.8311C87.5969 66.082 87.6849 66.3225 87.8271 66.5307L91.5662 72.0189C91.7934 72.3525 92.1438 72.5822 92.5403 72.6574C92.9369 72.7327 93.347 72.6474 93.6807 72.4202C94.0143 72.193 94.244 71.8426 94.3192 71.4461C94.3945 71.0495 94.3091 70.6393 94.082 70.3057Z" fill="white"/>
<path d="M78.8299 91.7824L72.6747 89.2832C72.3008 89.1314 71.8818 89.1343 71.51 89.2913C71.1382 89.4483 70.8439 89.7466 70.692 90.1205C70.5401 90.4945 70.5429 90.9134 70.6999 91.2853C70.8568 91.6571 71.155 91.9514 71.529 92.1034L77.6841 94.6026C78.058 94.7541 78.4768 94.7509 78.8484 94.5939C79.22 94.4368 79.514 94.1386 79.6659 93.7648C79.8177 93.3911 79.815 92.9723 79.6582 92.6006C79.5015 92.2289 79.2036 91.9346 78.8299 91.7824Z" fill="white"/>
<path d="M118.355 146.604C117.952 146.604 117.565 146.765 117.28 147.05C116.994 147.335 116.834 147.722 116.833 148.126V154.768C116.833 155.172 116.993 155.559 117.279 155.844C117.564 156.13 117.951 156.29 118.355 156.29C118.759 156.29 119.146 156.13 119.432 155.844C119.717 155.559 119.877 155.172 119.877 154.768V148.126C119.877 147.722 119.716 147.335 119.431 147.05C119.145 146.765 118.759 146.604 118.355 146.604Z" fill="white"/>
<path d="M148.605 145.862L144.866 140.374C144.753 140.209 144.609 140.067 144.442 139.958C144.275 139.848 144.088 139.772 143.892 139.735C143.695 139.698 143.493 139.7 143.298 139.74C143.102 139.781 142.916 139.86 142.751 139.972C142.586 140.085 142.445 140.229 142.335 140.396C142.225 140.563 142.15 140.75 142.113 140.947C142.075 141.143 142.077 141.345 142.118 141.54C142.159 141.736 142.237 141.922 142.35 142.087L146.089 147.575C146.238 147.794 146.441 147.97 146.679 148.086C146.917 148.202 147.181 148.254 147.445 148.237C147.885 147.932 148.322 147.619 148.751 147.298C148.849 147.066 148.886 146.812 148.861 146.562C148.835 146.311 148.747 146.07 148.605 145.862Z" fill="white"/>
<path d="M164.903 120.289L158.748 117.79C158.374 117.638 157.955 117.641 157.583 117.798C157.211 117.955 156.917 118.253 156.765 118.627C156.613 119.001 156.616 119.42 156.773 119.792C156.93 120.163 157.228 120.458 157.602 120.61L163.757 123.109C164.131 123.26 164.55 123.257 164.922 123.1C165.293 122.943 165.587 122.645 165.739 122.271C165.891 121.897 165.888 121.479 165.731 121.107C165.575 120.735 165.277 120.441 164.903 120.289Z" fill="white"/>
<path d="M93.6806 139.972C93.347 139.745 92.9368 139.66 92.5403 139.735C92.1438 139.81 91.7934 140.04 91.5662 140.374L87.8271 145.862C87.6849 146.07 87.5969 146.311 87.5713 146.561C87.5457 146.812 87.5832 147.066 87.6805 147.298C88.1094 147.619 88.5467 147.932 88.9868 148.236C89.2508 148.254 89.5148 148.202 89.7526 148.086C89.9904 147.97 90.1939 147.794 90.3429 147.575L94.082 142.087C94.1945 141.922 94.2733 141.736 94.314 141.54C94.3548 141.345 94.3565 141.143 94.3193 140.946C94.282 140.75 94.2064 140.563 94.0968 140.396C93.9873 140.229 93.8458 140.085 93.6806 139.972Z" fill="white"/>
<path d="M79.6667 118.626C79.5915 118.441 79.4806 118.272 79.3403 118.13C79.2 117.988 79.0331 117.875 78.8491 117.797C78.665 117.72 78.4675 117.679 78.2678 117.678C78.0681 117.677 77.8701 117.715 77.6851 117.79L71.5299 120.289C71.1563 120.441 70.8583 120.736 70.7016 121.107C70.5449 121.479 70.5421 121.898 70.694 122.272C70.8458 122.645 71.1398 122.944 71.5114 123.101C71.883 123.258 72.3018 123.261 72.6757 123.109L78.8309 120.61C79.2043 120.457 79.5019 120.162 79.6586 119.791C79.8152 119.419 79.8182 119 79.6667 118.626Z" fill="white"/>
<path d="M120.329 105.441C120.47 106.273 120.274 107.127 119.786 107.815C119.298 108.503 118.557 108.97 117.725 109.112L90.7136 113.707C90.3015 113.777 89.8797 113.765 89.4722 113.672C89.0647 113.579 88.6795 113.407 88.3385 113.165C87.9976 112.924 87.7077 112.617 87.4852 112.263C87.2628 111.909 87.1122 111.515 87.0421 111.103C86.972 110.691 86.9838 110.269 87.0767 109.862C87.1697 109.454 87.342 109.069 87.5838 108.728C87.8256 108.387 88.1321 108.097 88.486 107.875C88.8399 107.652 89.2341 107.502 89.6461 107.432L116.658 102.837C117.49 102.696 118.343 102.892 119.032 103.38C119.72 103.868 120.187 104.609 120.329 105.441Z" fill="#2F2E41"/>
<path d="M148.758 135.368C148.37 135.758 147.843 135.978 147.293 135.98C146.742 135.983 146.214 135.766 145.823 135.379L116.745 106.53C116.355 106.142 116.135 105.615 116.133 105.065C116.131 104.515 116.348 103.986 116.735 103.596C117.123 103.205 117.649 102.984 118.199 102.982C118.75 102.98 119.278 103.196 119.669 103.583L148.747 132.432C149.137 132.82 149.357 133.347 149.359 133.898C149.362 134.448 149.145 134.977 148.758 135.368Z" fill="#2F2E41"/>
<path d="M118.216 109.794C120.203 109.794 121.814 108.183 121.814 106.196C121.814 104.209 120.203 102.598 118.216 102.598C116.229 102.598 114.618 104.209 114.618 106.196C114.618 108.183 116.229 109.794 118.216 109.794Z" fill="#FFD200"/>
<path d="M93.4345 43.8084C87.9118 52.4912 79.4853 58.2534 69.0934 62.0389C68.888 62.1927 68.6544 62.3045 68.4058 62.368C68.1572 62.4315 67.8986 62.4455 67.6446 62.409C67.3907 62.3726 67.1464 62.2864 66.9257 62.1556C66.7051 62.0247 66.5123 61.8517 66.3585 61.6463C60.7137 54.1094 61.9883 43.3376 69.4383 37.5786C71.2394 36.1886 73.2987 35.1703 75.4966 34.5828C77.6945 33.9952 79.9873 33.8501 82.2417 34.1558C84.4962 34.4616 86.6674 35.2121 88.6294 36.3639C90.5914 37.5157 92.3051 39.0457 93.671 40.8651L93.8271 41.0736C93.9809 41.2789 94.0928 41.5126 94.1563 41.7611C94.2198 42.0097 94.2337 42.2684 94.1972 42.5223C94.1608 42.7763 94.0747 43.0206 93.9438 43.2412C93.8129 43.4619 93.6399 43.6546 93.4345 43.8084Z" fill="#E7ECF2"/>
<path d="M142.763 40.8651C144.129 39.0457 145.842 37.5156 147.804 36.3639C149.766 35.2121 151.938 34.4616 154.192 34.1558C156.447 33.8501 158.739 33.9952 160.937 34.5828C163.135 35.1703 165.194 36.1886 166.996 37.5785C174.446 43.3376 175.72 54.1094 170.075 61.6463C169.922 61.8517 169.729 62.0247 169.508 62.1556C169.287 62.2864 169.043 62.3726 168.789 62.409C168.535 62.4455 168.277 62.4315 168.028 62.368C167.779 62.3045 167.546 62.1927 167.34 62.0389C157.693 58.3454 149.782 51.9538 142.999 43.8084C142.585 43.4978 142.31 43.0352 142.237 42.5223C142.163 42.0094 142.296 41.4883 142.607 41.0736L142.763 40.8651Z" fill="#E7ECF2"/>
<path d="M140.341 157.748C139.99 157.946 139.731 158.275 139.621 158.663C139.511 159.051 139.56 159.467 139.756 159.82L148.541 175.518C148.739 175.871 149.068 176.13 149.456 176.24C149.844 176.349 150.261 176.3 150.613 176.103C150.965 175.906 151.225 175.577 151.334 175.189C151.444 174.8 151.395 174.384 151.198 174.032L142.413 158.333C142.215 157.981 141.886 157.722 141.498 157.613C141.11 157.503 140.694 157.552 140.341 157.748Z" fill="#E7ECF2"/>
<path d="M94.0196 158.333L85.2347 174.032C85.0377 174.384 84.9886 174.8 85.0984 175.189C85.2081 175.577 85.4676 175.906 85.8199 176.103C86.1721 176.301 86.5882 176.35 86.9767 176.24C87.3652 176.13 87.6942 175.871 87.8914 175.519L96.6763 159.82C96.774 159.646 96.8364 159.454 96.8598 159.255C96.8833 159.057 96.8674 158.855 96.8131 158.663C96.7588 158.47 96.6671 158.291 96.5433 158.134C96.4195 157.977 96.266 157.846 96.0915 157.748C95.917 157.65 95.725 157.588 95.5265 157.565C95.328 157.541 95.1267 157.557 94.9343 157.612C94.7419 157.666 94.5621 157.758 94.4052 157.881C94.2483 158.005 94.1172 158.159 94.0196 158.333Z" fill="#E7ECF2"/>
<path d="M150.321 179.538C152.92 179.538 155.026 177.432 155.026 174.833C155.026 172.235 152.92 170.128 150.321 170.128C147.723 170.128 145.616 172.235 145.616 174.833C145.616 177.432 147.723 179.538 150.321 179.538Z" fill="#E7ECF2"/>
<path d="M153.641 59.1467C156.24 59.1467 158.346 57.0403 158.346 54.4418C158.346 51.8433 156.24 49.7368 153.641 49.7368C151.043 49.7368 148.937 51.8433 148.937 54.4418C148.937 57.0403 151.043 59.1467 153.641 59.1467Z" fill="#E7ECF2"/>
<path d="M117.94 48.0759C120.539 48.0759 122.645 45.9695 122.645 43.371C122.645 40.7725 120.539 38.666 117.94 38.666C115.342 38.666 113.235 40.7725 113.235 43.371C113.235 45.9695 115.342 48.0759 117.94 48.0759Z" fill="#E7ECF2"/>
<path d="M83.8973 58.5935C86.4958 58.5935 88.6023 56.487 88.6023 53.8886C88.6023 51.2901 86.4958 49.1836 83.8973 49.1836C81.2989 49.1836 79.1924 51.2901 79.1924 53.8886C79.1924 56.487 81.2989 58.5935 83.8973 58.5935Z" fill="#E7ECF2"/>
<path d="M86.9413 179.538C89.5398 179.538 91.6462 177.432 91.6462 174.833C91.6462 172.235 89.5398 170.128 86.9413 170.128C84.3428 170.128 82.2363 172.235 82.2363 174.833C82.2363 177.432 84.3428 179.538 86.9413 179.538Z" fill="#E7ECF2"/>
<path d="M146.63 132.722C146.815 133.012 147.062 133.258 147.353 133.443C147.644 133.628 147.972 133.746 148.314 133.79C148.655 133.835 149.003 133.803 149.331 133.699C149.659 133.594 149.961 133.419 150.214 133.186L157.597 137.142L157.201 132.807L150.251 129.715C149.83 129.316 149.278 129.084 148.698 129.065C148.118 129.045 147.551 129.239 147.105 129.61C146.659 129.981 146.364 130.502 146.276 131.076C146.189 131.649 146.314 132.235 146.63 132.722Z" fill="#FFB7B7"/>
<path d="M152.009 134.234L154.902 130.241L168.84 136.829L186.183 133.575C187.041 133.414 187.923 133.444 188.767 133.663C189.612 133.881 190.398 134.283 191.07 134.839C191.741 135.396 192.283 136.093 192.654 136.882C193.026 137.671 193.22 138.532 193.222 139.405C193.223 140.98 192.599 142.492 191.487 143.608C190.375 144.724 188.866 145.353 187.29 145.358L167.414 145.395L152.009 134.234Z" fill="#9EECFE"/>
<path d="M147.552 203.211L144.625 201.811L148.646 189.576L152.966 191.642L147.552 203.211Z" fill="#FFB7B7"/>
<path d="M167.178 201.238C166.965 201.371 166.752 201.503 166.537 201.634C166.109 201.896 165.677 202.154 165.245 202.408C165.028 202.535 164.808 202.661 164.591 202.786V202.793L164.578 202.795L164.574 202.797L164.243 202.879L163.768 201.623L163.548 201.045L163.239 200.225L162.671 198.727L159.683 190.836L164.329 189.69L164.503 190.402H164.505L164.591 190.754L166.215 197.338L166.546 198.684L166.556 198.725L166.756 199.529L166.928 200.225L167.12 201.004L167.178 201.238Z" fill="#FFB7B7"/>
<path d="M194.895 173.528C194.6 174.001 194.299 174.472 193.996 174.938C193.433 175.807 192.855 176.663 192.261 177.505C192.261 177.508 192.259 177.508 192.257 177.51C191.911 177.83 191.528 178.11 191.117 178.342C191.1 178.355 191.081 178.363 191.064 178.374C190.761 178.541 190.439 178.671 190.105 178.759C189.984 178.789 189.862 178.819 189.741 178.849C189.307 178.952 188.877 179.041 188.449 179.118C187.688 179.253 186.935 179.35 186.187 179.41C186.127 179.417 186.067 179.421 186.007 179.425C182.93 179.651 179.935 179.288 176.808 178.692C175.265 178.4 173.689 178.049 172.057 177.686C171.523 177.566 170.988 177.447 170.446 177.329C170.405 177.321 170.362 177.31 170.319 177.301C169.545 177.131 168.758 176.964 167.952 176.798C166.937 176.589 165.89 176.387 164.802 176.196L164.88 177.729C164.944 178.908 165.189 180.071 165.606 181.176C166.071 182.534 166.439 183.61 165.662 185.848L165.288 186.931C165.482 187.47 165.549 188.045 165.483 188.613C165.417 189.182 165.22 189.727 164.908 190.206L164.832 190.32L167.952 198.213L168.154 198.725H166.557L164.592 198.727H161.261L156.456 189.086L156.226 188.626V188.602L156.722 170.075C156.729 169.911 156.742 169.746 156.763 169.582C156.851 168.839 157.085 168.122 157.453 167.47C157.821 166.819 158.316 166.248 158.907 165.79C159.473 165.347 160.122 165.021 160.816 164.831C161.509 164.642 162.234 164.592 162.947 164.684L164.592 164.897L167.952 165.332L170.319 165.639L170.367 165.646L177.348 166.549L177.849 164.506L177.942 164.472L180.881 163.394L191.046 159.668L191.072 159.66L191.741 159.415L191.82 159.544C191.844 159.582 191.868 159.621 191.889 159.66C192.55 160.844 193.088 162.094 193.495 163.388C194.18 165.502 194.743 167.654 195.183 169.832C195.202 169.926 195.22 170.012 195.235 170.09L195.241 170.113C195.248 170.15 195.252 170.174 195.254 170.18C195.488 171.156 195.325 172.347 194.895 173.528Z" fill="#2F2E41"/>
<path d="M195.324 166.699C195.292 166.562 195.251 166.422 195.208 166.287C194.867 165.261 194.469 164.254 194.017 163.272C193.51 162.154 192.901 160.956 192.177 159.66C191.826 159.032 191.449 158.379 191.046 157.701C190.844 157.361 190.634 157.015 190.416 156.663C190.407 156.646 190.398 156.631 190.388 156.615L190.325 156.512L180.267 157.858L176.522 158.359L176.298 160.225L176.244 160.688C176.242 160.688 176.242 160.688 176.244 160.69L176.094 161.95V161.952L175.894 163.616L175.877 163.614L170.319 162.894L164.591 162.152L161.514 161.754C160.801 161.661 160.077 161.711 159.383 161.901C158.689 162.091 158.041 162.416 157.474 162.859C156.883 163.318 156.389 163.889 156.021 164.54C155.653 165.191 155.418 165.909 155.33 166.652C155.311 166.803 155.298 166.957 155.292 167.11L152.389 173.988C150.652 178.102 149.546 182.454 149.108 186.897L146.979 193.702L147.283 193.73L151.794 194.15L152.985 194.261L155.608 190.432C155.907 189.996 156.19 189.546 156.455 189.086C156.89 188.335 157.277 187.556 157.614 186.755L163.288 173.253C163.727 173.328 164.161 173.4 164.591 173.468C166.58 173.79 168.489 174.053 170.319 174.257C176.268 174.921 181.42 174.973 186.006 174.41C187.294 174.253 188.539 174.046 189.741 173.79C190.181 173.698 190.616 173.598 191.046 173.492C191.147 173.468 191.246 173.444 191.345 173.418C192.233 173.189 193.05 172.741 193.72 172.114C194.391 171.488 194.894 170.703 195.182 169.832C195.527 168.823 195.576 167.736 195.324 166.699Z" fill="#2F2E41"/>
<path d="M148.489 201.213L145.321 199.695L144.825 199.456L144.031 201.404L138.493 202.623C138.219 202.683 137.971 202.829 137.786 203.04C137.602 203.251 137.489 203.515 137.465 203.794C137.441 204.074 137.507 204.353 137.653 204.592C137.799 204.832 138.018 205.018 138.278 205.124L143.69 207.332L145.407 205.786L144.986 207.861L147.024 208.693L149.258 201.582L148.489 201.213Z" fill="#FFD200"/>
<path d="M167.953 198.213L168.155 198.725H167.953V198.213Z" fill="#2F2E41"/>
<path d="M166.849 198.834L163.53 199.984L163.009 200.164L163.816 202.106L160.738 206.869C160.586 207.105 160.513 207.383 160.53 207.663C160.547 207.942 160.652 208.21 160.832 208.425C161.011 208.64 161.255 208.793 161.527 208.86C161.799 208.927 162.086 208.905 162.345 208.798L167.744 206.559L167.877 204.252L169.038 206.022L171.071 205.179L167.656 198.555L166.849 198.834Z" fill="#FFD200"/>
<path d="M194.497 169.814C194.3 169.814 194.106 169.766 193.932 169.674L176.42 160.524L176.217 159.695L175.836 157.074L175.841 157.049L177.507 149.371C177.476 149.305 177.412 149.197 177.34 149.075C176.597 147.815 174.334 143.981 178.652 138.702L186.235 129.862L192.742 129.582L192.816 129.676C194.556 131.86 195.73 134.44 196.232 137.186C196.735 139.933 196.551 142.762 195.697 145.42L195.02 157.658L195.746 160.129C196.171 161.581 196.101 163.134 195.547 164.542L195.713 168.544C195.72 168.708 195.693 168.871 195.635 169.025C195.577 169.178 195.488 169.319 195.375 169.437C195.261 169.556 195.125 169.65 194.974 169.715C194.823 169.78 194.661 169.814 194.497 169.814Z" fill="#68E1FD"/>
<path d="M179.306 179.907C179.603 179.732 179.857 179.494 180.052 179.209C180.247 178.925 180.377 178.602 180.433 178.262C180.489 177.922 180.47 177.574 180.377 177.242C180.284 176.91 180.119 176.603 179.894 176.341L184.105 169.101L179.759 169.346L176.427 176.184C176.013 176.59 175.763 177.135 175.723 177.713C175.684 178.292 175.858 178.865 176.213 179.324C176.568 179.783 177.079 180.096 177.649 180.203C178.219 180.311 178.808 180.205 179.306 179.907Z" fill="#FFB7B7"/>
<path d="M181.006 174.584L177.115 171.553L184.185 157.853L181.536 140.407C181.405 139.544 181.465 138.664 181.713 137.827C181.961 136.991 182.39 136.219 182.969 135.567C183.548 134.915 184.264 134.399 185.066 134.055C185.867 133.71 186.735 133.547 187.606 133.575C189.181 133.629 190.67 134.305 191.747 135.455C192.823 136.605 193.4 138.136 193.35 139.71L192.695 159.576L181.006 174.584Z" fill="#9EECFE"/>
<path d="M182.06 126.189V119.75C182.058 117.461 182.966 115.266 184.583 113.647C186.2 112.028 188.394 111.117 190.683 111.116C192.971 111.114 195.166 112.022 196.786 113.639C198.405 115.256 199.315 117.45 199.317 119.739V119.75C200.838 122.919 199.886 124.426 199.317 126.189C199.316 126.496 199.194 126.791 198.977 127.008C198.76 127.225 198.465 127.347 198.158 127.348H183.219C182.911 127.347 182.617 127.225 182.4 127.008C182.182 126.791 182.06 126.496 182.06 126.189Z" fill="#2F2E41"/>
<path d="M187.859 126.929C191.426 126.929 194.318 124.038 194.318 120.471C194.318 116.903 191.426 114.012 187.859 114.012C184.292 114.012 181.4 116.903 181.4 120.471C181.4 124.038 184.292 126.929 187.859 126.929Z" fill="#FFB7B7"/>
<path d="M194.619 122.163C194.561 122.154 194.502 122.142 194.444 122.133C193.436 121.954 192.429 121.778 191.424 121.596L191.332 119.32L190.115 121.359C187.339 122.28 184.742 121.76 182.299 120.611C181.493 120.228 180.711 119.797 179.957 119.32C180.162 118.06 180.646 116.863 181.374 115.815C182.102 114.767 183.054 113.895 184.163 113.262C184.255 113.21 184.344 113.164 184.437 113.118L184.438 113.117L184.439 113.117L184.44 113.116L184.44 113.115C184.597 113.041 184.757 112.97 184.917 112.905C186.172 112.415 187.539 112.291 188.861 112.547C190.183 112.803 191.406 113.43 192.386 114.353C194.358 116.236 195.245 119.344 194.619 122.163Z" fill="#2F2E41"/>
<defs>
<linearGradient id="paint0_linear_1606_4849" x1="31" y1="57" x2="6" y2="32" gradientUnits="userSpaceOnUse">
<stop stop-color="#03B8DF"/>
<stop offset="1" stop-color="#1853A4"/>
</linearGradient>
</defs>
</svg>
