<svg width="270" height="220" viewBox="0 0 270 220" fill="none" xmlns="http://www.w3.org/2000/svg">
<rect opacity="0.3" x="65" y="16" width="158" height="158" fill="#D5F7FF"/>
<rect opacity="0.3" x="20" y="110" width="99" height="100" fill="#BCF3FF"/>
<rect opacity="0.3" x="191" y="51" width="74" height="74" fill="#D5F7FF"/>
<rect opacity="0.3" x="214" y="167" width="23" height="23" stroke="url(#paint0_linear_1606_4850)" stroke-width="2"/>
<rect opacity="0.3" x="8" y="34" width="44" height="44" fill="#87BAFF"/>
<path opacity="0.45" d="M139.678 187.792C188.42 187.792 227.933 182.072 227.933 175.016C227.933 167.959 188.42 162.239 139.678 162.239C90.936 162.239 51.4229 167.959 51.4229 175.016C51.4229 182.072 90.936 187.792 139.678 187.792Z" fill="#DCE1E9"/>
<path d="M31.1533 99.9414H85.2695L85.2695 40.2639L31.1533 40.2639L31.1533 99.9414Z" fill="#E6E6E6"/>
<path d="M37.0294 48.423C38.1745 48.423 39.1027 47.4948 39.1027 46.3497C39.1027 45.2046 38.1745 44.2764 37.0294 44.2764C35.8843 44.2764 34.9561 45.2046 34.9561 46.3497C34.9561 47.4948 35.8843 48.423 37.0294 48.423Z" fill="#FFD200"/>
<path d="M42.8673 48.423C44.0123 48.423 44.9406 47.4948 44.9406 46.3497C44.9406 45.2046 44.0123 44.2764 42.8673 44.2764C41.7222 44.2764 40.7939 45.2046 40.7939 46.3497C40.7939 47.4948 41.7222 48.423 42.8673 48.423Z" fill="#68E1FD"/>
<path d="M48.4581 48.423C49.6032 48.423 50.5314 47.4948 50.5314 46.3497C50.5314 45.2046 49.6032 44.2764 48.4581 44.2764C47.313 44.2764 46.3848 45.2046 46.3848 46.3497C46.3848 47.4948 47.313 48.423 48.4581 48.423Z" fill="#2F2E41"/>
<path d="M58.2117 79.3658C64.5861 79.3658 69.7535 74.1984 69.7535 67.824C69.7535 61.4497 64.5861 56.2822 58.2117 56.2822C51.8374 56.2822 46.6699 61.4497 46.6699 67.824C46.6699 74.1984 51.8374 79.3658 58.2117 79.3658Z" fill="#2F2E41"/>
<path d="M58.2334 67.8312L68.9069 63.445C68.9069 63.445 66.871 56.5364 58.5103 56.2969L58.2334 67.8312Z" fill="#FFD200"/>
<path d="M58.2334 67.831L68.862 72.322C69.4606 70.916 69.7728 69.4048 69.7805 67.8767C69.7883 66.3486 69.4913 64.8343 68.9069 63.4224L58.2334 67.831Z" fill="white"/>
<path opacity="0.19" d="M69.2671 88.939H47.2314V93.2653H69.2671V88.939Z" fill="#7D8592"/>
<path opacity="0.58" d="M70.6508 163.361C70.6508 163.361 64.0266 161.55 62.582 155.382C62.582 155.382 72.8439 153.309 73.1358 163.9L70.6508 163.361Z" fill="#68E1FD"/>
<path opacity="0.73" d="M71.4598 162.703C71.4598 162.703 66.8341 155.383 70.906 148.542C70.906 148.542 78.7128 153.504 75.2398 162.718L71.4598 162.703Z" fill="#68E1FD"/>
<path d="M72.6572 162.703C72.6572 162.703 75.0973 154.979 82.4925 153.519C82.4925 153.519 83.8772 158.534 77.7021 162.726L72.6572 162.703Z" fill="#68E1FD"/>
<path d="M67.8516 162.531L69.1914 171.715L77.6494 171.752L78.8994 162.576L67.8516 162.531Z" fill="#2F2E41"/>
<path d="M99.7158 86.7979V166.453C99.7158 172.441 117.478 177.343 139.386 177.343C161.295 177.343 179.056 172.471 179.056 166.453V86.7979H99.7158Z" fill="#68E1FD"/>
<path d="M139.393 97.6889C161.302 97.6889 179.063 92.813 179.063 86.7983C179.063 80.7836 161.302 75.9077 139.393 75.9077C117.484 75.9077 99.7227 80.7836 99.7227 86.7983C99.7227 92.813 117.484 97.6889 139.393 97.6889Z" fill="#68E1FD"/>
<path opacity="0.47" d="M139.393 97.6889C161.302 97.6889 179.063 92.813 179.063 86.7983C179.063 80.7836 161.302 75.9077 139.393 75.9077C117.484 75.9077 99.7227 80.7836 99.7227 86.7983C99.7227 92.813 117.484 97.6889 139.393 97.6889Z" fill="white"/>
<path opacity="0.09" d="M99.7158 114.874C99.7158 114.874 135.569 128.302 179.056 114.874V142.681C179.056 142.681 142.44 158.99 99.7158 142.681V114.874Z" fill="black"/>
<path d="M237.999 64.8521H163.472V105.263H237.999V64.8521Z" fill="#2F2E41"/>
<path d="M105.18 104.223C105.18 104.223 112.665 109.38 131.175 109.193" stroke="white" stroke-width="0.748495" stroke-miterlimit="10"/>
<path d="M105.18 129.957C105.18 129.957 112.665 135.121 131.175 134.927" stroke="white" stroke-width="0.748495" stroke-miterlimit="10"/>
<path d="M105.18 157.988C105.18 157.988 112.665 163.152 131.175 162.958" stroke="white" stroke-width="0.748495" stroke-miterlimit="10"/>
<path d="M228.187 87.1275L225.702 85.1889C225.777 84.5098 225.777 83.8246 225.702 83.1455L228.187 81.1994C228.413 81.0194 228.568 80.7642 228.623 80.4801C228.678 80.1959 228.629 79.9015 228.486 79.65L225.896 75.159C225.75 74.9072 225.52 74.715 225.246 74.6164C224.972 74.5178 224.673 74.5191 224.399 74.6201L221.473 75.8027C220.921 75.4052 220.332 75.0618 219.714 74.7773L219.265 71.671C219.226 71.3814 219.084 71.1157 218.863 70.9241C218.642 70.7325 218.359 70.6281 218.067 70.6306H212.888C212.593 70.6244 212.306 70.7271 212.082 70.9191C211.859 71.111 211.714 71.3788 211.675 71.671L211.218 74.7923C210.603 75.0766 210.016 75.42 209.467 75.8177L206.525 74.6351C206.254 74.5254 205.952 74.519 205.676 74.6169C205.4 74.7148 205.17 74.9103 205.028 75.1665L202.439 79.6575C202.29 79.9096 202.238 80.2068 202.292 80.4943C202.346 80.7817 202.501 81.0401 202.731 81.2218L205.216 83.1604C205.141 83.8395 205.141 84.5248 205.216 85.2038L202.731 87.1499C202.505 87.331 202.352 87.5866 202.298 87.8707C202.245 88.1548 202.295 88.4487 202.439 88.6993L205.021 93.1903C205.166 93.4432 205.396 93.6364 205.67 93.7351C205.945 93.8338 206.245 93.8317 206.518 93.7292L209.445 92.5466C209.998 92.9426 210.586 93.2859 211.204 93.572L211.66 96.6783C211.697 96.9673 211.838 97.2329 212.057 97.4246C212.277 97.6164 212.559 97.721 212.85 97.7187H218.03C218.318 97.7199 218.598 97.6168 218.816 97.4284C219.035 97.2399 219.178 96.9789 219.22 96.6932L219.676 93.572C220.292 93.2877 220.879 92.9443 221.428 92.5466L224.37 93.7292C224.641 93.8372 224.943 93.8428 225.218 93.7451C225.493 93.6473 225.724 93.4528 225.867 93.1978L228.456 88.7068C228.61 88.4553 228.667 88.157 228.617 87.8667C228.568 87.5764 228.415 87.3139 228.187 87.1275ZM215.462 89.7996C214.347 89.8011 213.257 89.4718 212.329 88.8534C211.401 88.235 210.678 87.3552 210.25 86.3255C209.822 85.2957 209.71 84.1623 209.926 83.0685C210.143 81.9747 210.679 80.9697 211.467 80.1807C212.255 79.3917 213.259 78.8542 214.353 78.6361C215.446 78.418 216.58 78.5292 217.61 78.9556C218.64 79.3819 219.521 80.1043 220.141 81.0314C220.76 81.9584 221.091 83.0484 221.091 84.1634C221.091 85.6544 220.5 87.0845 219.448 88.1409C218.396 89.1972 216.968 89.7937 215.477 89.7996H215.462Z" fill="#FFD200"/>
<path d="M193.532 78.7368H173.15V82.8161H193.532V78.7368Z" fill="white"/>
<path opacity="0.29" d="M193.532 87.3071H173.15V91.3864H193.532V87.3071Z" fill="white"/>
<defs>
<linearGradient id="paint0_linear_1606_4850" x1="238" y1="191" x2="213" y2="166" gradientUnits="userSpaceOnUse">
<stop stop-color="#03B8DF"/>
<stop offset="1" stop-color="#1853A4"/>
</linearGradient>
</defs>
</svg>
