<svg width="270" height="220" viewBox="0 0 270 220" fill="none" xmlns="http://www.w3.org/2000/svg">
<g clip-path="url(#clip0_1606_4851)">
<rect opacity="0.3" x="49" y="19" width="160" height="161" fill="#D5F7FF"/>
<rect opacity="0.3" x="169" y="110" width="101" height="101" fill="#BCF3FF"/>
<rect opacity="0.3" x="-3" y="70" width="75" height="75" fill="#D5F7FF"/>
<rect opacity="0.3" x="200" y="8" width="23" height="23" stroke="url(#paint0_linear_1606_4851)" stroke-width="2"/>
<rect opacity="0.3" x="91" y="155" width="45" height="45" fill="#87BAFF"/>
<path d="M97.2202 108.934H55.9102V169.727H97.2202V108.934Z" fill="#E7ECF2"/>
<path d="M156.525 94.0786H115.215V169.727H156.525V94.0786Z" fill="#E7ECF2"/>
<path d="M215.007 44.6758H173.697V169.719H215.007V44.6758Z" fill="#E7ECF2"/>
<path d="M38.8535 168.472L36.3428 166.262L76.4225 120.567L105.748 147.097L135.96 107.461L161.838 134.602L176.224 109.553L179.12 111.227L162.507 140.159L136.245 112.608L106.2 152.027L76.6987 125.329L38.8535 168.472Z" fill="#68E1FD"/>
<path d="M225.636 172.338H35.456C34.7902 172.338 34.1515 172.074 33.6807 171.603C33.2098 171.132 32.9453 170.494 32.9453 169.828V34.4487C32.9453 33.7828 33.2098 33.1442 33.6807 32.6734C34.1515 32.2025 34.7902 31.938 35.456 31.938C36.1219 31.938 36.7606 32.2025 37.2314 32.6734C37.7023 33.1442 37.9668 33.7828 37.9668 34.4487V167.317H225.636C226.302 167.317 226.941 167.581 227.411 168.052C227.882 168.523 228.147 169.162 228.147 169.828C228.147 170.494 227.882 171.132 227.411 171.603C226.941 172.074 226.302 172.338 225.636 172.338Z" fill="#2F2E41"/>
<path d="M217.03 96.8455L212.636 103.899L226.047 112.254L230.441 105.2L217.03 96.8455Z" fill="#2F2E41"/>
<path opacity="0.29" d="M217.03 96.8455L212.636 103.899L226.047 112.254L230.441 105.2L217.03 96.8455Z" fill="#F1F4F9"/>
<path d="M194.093 116.324C210.04 116.324 222.967 103.397 222.967 87.4506C222.967 71.5042 210.04 58.5771 194.093 58.5771C178.147 58.5771 165.22 71.5042 165.22 87.4506C165.22 103.397 178.147 116.324 194.093 116.324Z" fill="#FFD200"/>
<path d="M194.092 107.862C205.365 107.862 214.504 98.7233 214.504 87.4499C214.504 76.1765 205.365 67.0376 194.092 67.0376C182.819 67.0376 173.68 76.1765 173.68 87.4499C173.68 98.7233 182.819 107.862 194.092 107.862Z" fill="#F1F4F9"/>
<path d="M227.489 104.528L224.099 109.969C222.85 111.974 223.463 114.611 225.468 115.86L246.459 128.936C248.464 130.185 251.101 129.572 252.35 127.568L255.74 122.126C256.989 120.121 256.376 117.484 254.371 116.235L233.38 103.159C231.375 101.91 228.738 102.523 227.489 104.528Z" fill="#2F2E41"/>
<path d="M183.43 85.4503L200.185 96.3887L200.704 76.9473L183.43 85.4503Z" fill="#68E1FD"/>
<path d="M189.029 89.1074L179.873 102.13C181.458 103.776 183.364 105.081 185.472 105.963L194.234 92.522L189.029 89.1074Z" fill="#68E1FD"/>
<path d="M76.5987 130.76C80.1993 130.76 83.1182 127.841 83.1182 124.241C83.1182 120.64 80.1993 117.721 76.5987 117.721C72.998 117.721 70.0791 120.64 70.0791 124.241C70.0791 127.841 72.998 130.76 76.5987 130.76Z" fill="#68E1FD"/>
<path d="M135.859 117.378C139.46 117.378 142.379 114.46 142.379 110.859C142.379 107.258 139.46 104.339 135.859 104.339C132.259 104.339 129.34 107.258 129.34 110.859C129.34 114.46 132.259 117.378 135.859 117.378Z" fill="#68E1FD"/>
<path opacity="0.57" d="M76.5987 130.76C80.1993 130.76 83.1182 127.841 83.1182 124.241C83.1182 120.64 80.1993 117.721 76.5987 117.721C72.998 117.721 70.0791 120.64 70.0791 124.241C70.0791 127.841 72.998 130.76 76.5987 130.76Z" fill="#F1F4F9"/>
<path opacity="0.57" d="M135.859 117.378C139.46 117.378 142.379 114.46 142.379 110.859C142.379 107.258 139.46 104.339 135.859 104.339C132.259 104.339 129.34 107.258 129.34 110.859C129.34 114.46 132.259 117.378 135.859 117.378Z" fill="#F1F4F9"/>
<path opacity="0.58" d="M73.9535 100.331C73.9535 100.331 66.9904 98.4308 65.4756 91.9614C65.4756 91.9614 76.2634 89.7771 76.573 100.916L73.9535 100.331Z" fill="#68E1FD"/>
<path opacity="0.73" d="M74.8076 99.644C74.8076 99.644 69.9452 91.9528 74.2218 84.7637C74.2218 84.7637 82.4235 89.9693 78.783 99.6607L74.8076 99.644Z" fill="#68E1FD"/>
<path d="M76.0967 99.6443C76.0967 99.6443 78.666 91.5262 86.4326 89.9863C86.4326 89.9863 87.8888 95.2589 81.4111 99.6694L76.0967 99.6443Z" fill="#68E1FD"/>
<path d="M71.0088 99.46L72.4232 109.118L81.3112 109.16L82.6168 99.5102L71.0088 99.46Z" fill="#2F2E41"/>
</g>
<defs>
<linearGradient id="paint0_linear_1606_4851" x1="224" y1="32" x2="199" y2="7" gradientUnits="userSpaceOnUse">
<stop stop-color="#03B8DF"/>
<stop offset="1" stop-color="#1853A4"/>
</linearGradient>
<clipPath id="clip0_1606_4851">
<rect width="270" height="220" fill="white"/>
</clipPath>
</defs>
</svg>
