<svg width="197" height="105" viewBox="0 0 197 105" fill="none" xmlns="http://www.w3.org/2000/svg">
<path d="M7.85997 72.0041C8.1449 71.8208 8.38619 71.5773 8.56682 71.2907C8.74746 71.004 8.86306 70.6813 8.90547 70.3452C8.94788 70.009 8.91608 69.6677 8.81231 69.3452C8.70853 69.0227 8.53531 68.7269 8.30484 68.4785L10.0462 43.766L5.03008 44.2525L4.8923 68.4535C4.5008 68.8683 4.27508 69.4124 4.25789 69.9825C4.24071 70.5527 4.43327 71.1093 4.79907 71.547C5.16488 71.9846 5.67852 72.2729 6.24267 72.3571C6.80681 72.4414 7.38225 72.3158 7.85997 72.0041Z" fill="#FFB8B8"/>
<path d="M8.08764 52.2194L3.49479 50.9741C3.24647 50.9065 3.03511 50.7431 2.90709 50.5198C2.77906 50.2966 2.74483 50.0316 2.8119 49.7832L4.42648 43.8282C4.59941 43.1903 5.00239 42.6391 5.55771 42.2807C6.11302 41.9224 6.78136 41.7823 7.43383 41.8875C8.0863 41.9928 8.67671 42.3358 9.0912 42.8506C9.50569 43.3654 9.71491 44.0154 9.67852 44.6753L9.31096 51.3359C9.30301 51.4804 9.26289 51.6212 9.19353 51.7481C9.12416 51.875 9.02731 51.9848 8.91005 52.0695C8.7928 52.1542 8.6581 52.2116 8.51581 52.2375C8.37351 52.2634 8.22722 52.2572 8.08764 52.2194Z" fill="#ADEFFE"/>
<path d="M172.283 91.9646C167.14 91.9195 162.005 91.5427 156.911 90.8367C156.732 90.812 156.553 90.7851 156.374 90.7603L156.643 42.5949C156.821 42.4535 157.001 42.3143 157.183 42.1794C157.785 41.7297 158.404 41.3083 159.045 40.9214C162.132 39.0618 165.745 38.2104 168.239 39.0636L168.277 39.0788C168.823 39.263 169.328 39.5532 169.761 39.9327C171.951 41.8779 171.586 45.8107 169.818 49.3797C173.322 46.1785 177.744 43.6296 181.691 43.4359C185.54 43.246 188.29 45.259 190.627 47.4422C190.704 47.5139 190.78 47.5855 190.855 47.6571C190.893 47.6919 190.93 47.7287 190.968 47.7634C192.749 49.4668 194.505 51.4527 194.293 54.3271C194.059 57.4796 191.419 60.9748 188.342 63.4255C185.267 65.8762 181.774 67.5047 178.365 69.1555C174.958 70.8083 171.464 72.5965 168.552 75.2488C173.096 71.6565 178.266 68.7601 183.294 67.6902C188.322 66.6203 193.151 67.5619 195.519 70.7635C196.216 71.7355 196.67 72.8602 196.842 74.0435C196.865 74.1816 196.884 74.3219 196.901 74.4644C197.238 77.4282 196.213 80.9669 193.762 83.9777C191.065 87.2934 187.065 89.5922 183.269 90.7359C179.472 91.8796 175.817 92.0015 172.283 91.9646Z" fill="#E7ECF2"/>
<path d="M156.544 60.4519L156.549 59.5309C156.732 59.2384 156.913 58.9446 157.091 58.6494C157.207 58.4667 157.318 58.2818 157.431 58.0968C159.297 55.0418 161.086 51.9677 162.8 48.8745C164.515 45.7841 166.151 42.6781 167.708 39.5566C167.744 39.4739 167.808 39.4064 167.888 39.3658C167.969 39.3253 168.061 39.3143 168.149 39.3347C168.161 39.3381 168.172 39.3433 168.182 39.3501C168.263 39.3936 168.297 39.4909 168.227 39.633C168.035 40.0158 167.843 40.4009 167.647 40.7837C166.064 43.9138 164.401 47.0303 162.659 50.1335C160.918 53.2345 159.1 56.3178 157.206 59.3835C157.167 59.4479 157.125 59.5125 157.086 59.5769C156.905 59.8693 156.725 60.1595 156.544 60.4519Z" fill="white"/>
<path d="M156.477 72.3274L156.48 71.7578C156.66 71.6294 156.839 71.5032 157.019 71.3747C161.251 68.3567 165.483 65.3394 169.715 62.3226C176.644 57.3824 183.573 52.4437 190.501 47.5064C190.539 47.4771 190.581 47.4554 190.627 47.4423C190.78 47.4001 190.87 47.5128 190.854 47.6572C190.846 47.7181 190.824 47.7764 190.791 47.8283C190.758 47.8802 190.714 47.9245 190.663 47.9581C186.777 50.7279 182.893 53.497 179.01 56.2653C172.116 61.1798 165.223 66.0936 158.331 71.0067C157.893 71.3193 157.453 71.6318 157.016 71.9443C156.836 72.0727 156.656 72.2011 156.477 72.3274Z" fill="white"/>
<path d="M159.785 85.0151C158.825 84.9861 157.881 84.9226 156.945 84.8396C156.766 84.8235 156.587 84.8074 156.408 84.7913L156.412 84.1938C156.59 84.212 156.769 84.2303 156.948 84.2464C158.3 84.3726 159.667 84.4622 161.072 84.4744C164.965 84.4903 168.85 84.1108 172.667 83.3419C176.776 82.5246 180.807 81.3511 184.713 79.8346C188.833 78.243 192.818 76.324 196.632 74.0961C196.694 74.0542 196.769 74.0355 196.843 74.0434C197.014 74.068 197.064 74.2948 196.901 74.4643C196.869 74.4978 196.833 74.5266 196.793 74.55C196.319 74.8256 195.844 75.0962 195.367 75.3618C191.532 77.5076 187.533 79.3442 183.407 80.8542C179.488 82.2925 175.451 83.3866 171.342 84.124C167.53 84.8147 163.658 85.1133 159.785 85.0151Z" fill="white"/>
<path d="M155.04 0.738403H24.0969C23.5981 0.738857 23.1199 0.93719 22.7672 1.28987C22.4146 1.64254 22.2163 2.12074 22.2158 2.61949V91.35C22.2163 91.8487 22.4146 92.3269 22.7672 92.6796C23.1199 93.0323 23.5981 93.2306 24.0969 93.231H155.04C155.312 93.2311 155.58 93.172 155.827 93.0581C156.074 92.9441 156.293 92.7779 156.47 92.5709C156.485 92.5547 156.499 92.5374 156.511 92.5192C156.623 92.3819 156.714 92.2284 156.781 92.064C156.875 91.8379 156.924 91.5951 156.923 91.3499V2.61951C156.922 2.1204 156.724 1.64193 156.371 1.28921C156.017 0.936488 155.539 0.738378 155.04 0.738403ZM156.386 91.35C156.386 91.6124 156.309 91.8691 156.164 92.0877C156.035 92.2802 155.86 92.4374 155.654 92.5451C155.464 92.6432 155.254 92.6943 155.04 92.6939H24.0969C23.7406 92.6935 23.399 92.5517 23.147 92.2998C22.8951 92.0478 22.7533 91.7063 22.7529 91.35V2.61951C22.7533 2.2632 22.8951 1.92161 23.147 1.66967C23.399 1.41772 23.7405 1.27599 24.0969 1.27555H155.04C155.396 1.27551 155.738 1.41702 155.991 1.669C156.243 1.92099 156.385 2.26285 156.386 2.61951V91.35Z" fill="#2F2E41"/>
<path d="M156.653 8.27771H22.4834V8.81546H156.653V8.27771Z" fill="#2F2E41"/>
<path d="M27.0547 6.38484C27.9456 6.38484 28.6679 5.66256 28.6679 4.77158C28.6679 3.88061 27.9456 3.15833 27.0547 3.15833C26.1637 3.15833 25.4414 3.88061 25.4414 4.77158C25.4414 5.66256 26.1637 6.38484 27.0547 6.38484Z" fill="#2F2E41"/>
<path d="M31.6933 6.38484C32.5843 6.38484 33.3066 5.66256 33.3066 4.77158C33.3066 3.88061 32.5843 3.15833 31.6933 3.15833C30.8024 3.15833 30.0801 3.88061 30.0801 4.77158C30.0801 5.66256 30.8024 6.38484 31.6933 6.38484Z" fill="url(#paint0_linear_1943_5608)"/>
<path d="M36.331 6.38484C37.222 6.38484 37.9443 5.66256 37.9443 4.77158C37.9443 3.88061 37.222 3.15833 36.331 3.15833C35.4401 3.15833 34.7178 3.88061 34.7178 4.77158C34.7178 5.66256 35.4401 6.38484 36.331 6.38484Z" fill="#FFD200"/>
<path d="M123.242 20.7256H55.9372C55.1934 20.7256 54.4801 20.4301 53.9542 19.9042C53.4283 19.3783 53.1328 18.665 53.1328 17.9212C53.1328 17.1774 53.4283 16.4641 53.9542 15.9382C54.4801 15.4123 55.1934 15.1168 55.9372 15.1168H123.242C123.986 15.1168 124.699 15.4123 125.225 15.9382C125.751 16.4641 126.047 17.1774 126.047 17.9212C126.047 18.665 125.751 19.3783 125.225 19.9042C124.699 20.4301 123.986 20.7256 123.242 20.7256ZM55.9372 15.5483C55.3078 15.5483 54.7043 15.7983 54.2593 16.2433C53.8143 16.6883 53.5643 17.2919 53.5643 17.9212C53.5643 18.5505 53.8143 19.1541 54.2593 19.5991C54.7043 20.0441 55.3078 20.2941 55.9372 20.2941H123.242C123.872 20.2941 124.475 20.0441 124.92 19.5991C125.365 19.1541 125.615 18.5505 125.615 17.9212C125.615 17.2919 125.365 16.6883 124.92 16.2433C124.475 15.7983 123.872 15.5483 123.242 15.5483H55.9372Z" fill="#2F2E41"/>
<path d="M56.4984 37.8752H50.4582C50.0005 37.8752 49.5615 37.6934 49.2379 37.3698C48.9142 37.0461 48.7324 36.6072 48.7324 36.1495C48.7324 35.6918 48.9142 35.2528 49.2379 34.9292C49.5615 34.6055 50.0005 34.4237 50.4582 34.4237H56.4984C56.9561 34.4237 57.395 34.6055 57.7187 34.9292C58.0423 35.2528 58.2242 35.6918 58.2242 36.1495C58.2242 36.6072 58.0423 37.0461 57.7187 37.3698C57.395 37.6934 56.9561 37.8752 56.4984 37.8752Z" fill="#E7ECF2"/>
<path d="M63.6172 43.6996H50.4582C50.0005 43.6996 49.5615 43.5178 49.2379 43.1941C48.9142 42.8705 48.7324 42.4315 48.7324 41.9738C48.7324 41.5161 48.9142 41.0772 49.2379 40.7535C49.5615 40.4299 50.0005 40.248 50.4582 40.248H63.6172C64.0749 40.248 64.5138 40.4299 64.8375 40.7535C65.1611 41.0772 65.343 41.5161 65.343 41.9738C65.343 42.4315 65.1611 42.8705 64.8375 43.1941C64.5138 43.5178 64.0749 43.6996 63.6172 43.6996Z" fill="#E7ECF2"/>
<path d="M57.5785 63.3303H51.5383C51.0806 63.3303 50.6416 63.1485 50.318 62.8249C49.9943 62.5012 49.8125 62.0623 49.8125 61.6046C49.8125 61.1469 49.9943 60.7079 50.318 60.3843C50.6416 60.0606 51.0806 59.8788 51.5383 59.8788H57.5785C58.0362 59.8788 58.4751 60.0606 58.7988 60.3843C59.1224 60.7079 59.3042 61.1469 59.3042 61.6046C59.3042 62.0623 59.1224 62.5012 58.7988 62.8249C58.4751 63.1485 58.0362 63.3303 57.5785 63.3303Z" fill="#E7ECF2"/>
<path d="M64.6973 69.1549H51.5383C51.0806 69.1549 50.6416 68.9731 50.318 68.6494C49.9943 68.3258 49.8125 67.8868 49.8125 67.4291C49.8125 66.9714 49.9943 66.5325 50.318 66.2088C50.6416 65.8852 51.0806 65.7034 51.5383 65.7034H64.6973C65.155 65.7034 65.5939 65.8852 65.9176 66.2088C66.2412 66.5325 66.423 66.9714 66.423 67.4291C66.423 67.8868 66.2412 68.3258 65.9176 68.6494C65.5939 68.9731 65.155 69.1549 64.6973 69.1549Z" fill="#E7ECF2"/>
<path d="M97.2708 62.683H91.2307C90.7729 62.683 90.334 62.5012 90.0103 62.1775C89.6867 61.8539 89.5049 61.4149 89.5049 60.9572C89.5049 60.4995 89.6867 60.0606 90.0103 59.7369C90.334 59.4133 90.7729 59.2314 91.2307 59.2314H97.2708C97.7285 59.2314 98.1675 59.4133 98.4911 59.7369C98.8148 60.0606 98.9966 60.4995 98.9966 60.9572C98.9966 61.4149 98.8148 61.8539 98.4911 62.1775C98.1675 62.5012 97.7285 62.683 97.2708 62.683Z" fill="#E7ECF2"/>
<path d="M104.39 68.5076H91.2307C90.773 68.5076 90.334 68.3257 90.0103 68.0021C89.6867 67.6785 89.5049 67.2395 89.5049 66.7818C89.5049 66.3241 89.6867 65.8851 90.0103 65.5615C90.334 65.2379 90.773 65.056 91.2307 65.056H104.39C104.847 65.056 105.286 65.2379 105.61 65.5615C105.934 65.8851 106.115 66.3241 106.115 66.7818C106.115 67.2395 105.934 67.6785 105.61 68.0021C105.286 68.3257 104.847 68.5076 104.39 68.5076Z" fill="#E7ECF2"/>
<path d="M96.6234 38.9536H90.5832C90.1255 38.9536 89.6865 38.7718 89.3629 38.4481C89.0392 38.1245 88.8574 37.6855 88.8574 37.2278C88.8574 36.7701 89.0392 36.3312 89.3629 36.0075C89.6865 35.6839 90.1255 35.5021 90.5832 35.5021H96.6234C97.0811 35.5021 97.52 35.6839 97.8437 36.0075C98.1673 36.3312 98.3492 36.7701 98.3492 37.2278C98.3492 37.6855 98.1673 38.1245 97.8437 38.4481C97.52 38.7718 97.0811 38.9536 96.6234 38.9536Z" fill="#E7ECF2"/>
<path d="M103.742 44.7782H90.5832C90.1255 44.7782 89.6865 44.5964 89.3629 44.2727C89.0392 43.9491 88.8574 43.5101 88.8574 43.0524C88.8574 42.5947 89.0392 42.1558 89.3629 41.8321C89.6865 41.5085 90.1255 41.3267 90.5832 41.3267H103.742C104.2 41.3267 104.639 41.5085 104.962 41.8321C105.286 42.1558 105.468 42.5947 105.468 43.0524C105.468 43.5101 105.286 43.9491 104.962 44.2727C104.639 44.5964 104.2 44.7782 103.742 44.7782Z" fill="#E7ECF2"/>
<path d="M136.963 37.6595H130.923C130.465 37.6595 130.026 37.4777 129.703 37.1541C129.379 36.8304 129.197 36.3915 129.197 35.9338C129.197 35.4761 129.379 35.0371 129.703 34.7135C130.026 34.3898 130.465 34.208 130.923 34.208H136.963C137.421 34.208 137.86 34.3898 138.184 34.7135C138.507 35.0371 138.689 35.4761 138.689 35.9338C138.689 36.3915 138.507 36.8304 138.184 37.1541C137.86 37.4777 137.421 37.6595 136.963 37.6595Z" fill="#E7ECF2"/>
<path d="M144.082 43.4841H130.923C130.465 43.4841 130.026 43.3023 129.703 42.9787C129.379 42.655 129.197 42.2161 129.197 41.7584C129.197 41.3007 129.379 40.8617 129.703 40.5381C130.026 40.2144 130.465 40.0326 130.923 40.0326H144.082C144.54 40.0326 144.979 40.2144 145.302 40.5381C145.626 40.8617 145.808 41.3007 145.808 41.7584C145.808 42.2161 145.626 42.655 145.302 42.9787C144.979 43.3023 144.54 43.4841 144.082 43.4841Z" fill="#E7ECF2"/>
<path d="M39.8017 45.5334C43.3759 45.5334 46.2734 42.6359 46.2734 39.0617C46.2734 35.4875 43.3759 32.5901 39.8017 32.5901C36.2275 32.5901 33.3301 35.4875 33.3301 39.0617C33.3301 42.6359 36.2275 45.5334 39.8017 45.5334Z" fill="url(#paint1_linear_1943_5608)"/>
<path d="M42.8221 41.9739H36.7819C36.6103 41.9737 36.4458 41.9055 36.3245 41.7841C36.2032 41.6628 36.135 41.4983 36.1348 41.3267V36.7966C36.135 36.625 36.2032 36.4605 36.3245 36.3392C36.4458 36.2178 36.6103 36.1496 36.7819 36.1494H38.4823C38.5929 36.149 38.7017 36.1771 38.7983 36.2311C38.8949 36.285 38.9759 36.3629 39.0335 36.4573L39.5077 37.228H42.8221C42.9937 37.2282 43.1582 37.2965 43.2795 37.4178C43.4009 37.5391 43.4691 37.7036 43.4693 37.8752V41.3267C43.4691 41.4983 43.4009 41.6628 43.2795 41.7841C43.1582 41.9055 42.9937 41.9737 42.8221 41.9739ZM36.7819 36.5809C36.7247 36.5809 36.6699 36.6037 36.6295 36.6441C36.589 36.6846 36.5663 36.7394 36.5662 36.7966V41.3267C36.5663 41.3839 36.589 41.4387 36.6295 41.4792C36.6699 41.5196 36.7247 41.5424 36.7819 41.5424H42.8221C42.8793 41.5424 42.9341 41.5196 42.9746 41.4792C43.015 41.4387 43.0378 41.3839 43.0378 41.3267V37.8752C43.0378 37.818 43.015 37.7632 42.9746 37.7227C42.9341 37.6823 42.8793 37.6595 42.8221 37.6595H39.2667L38.6661 36.6835C38.6469 36.652 38.6199 36.626 38.5877 36.6081C38.5555 36.5901 38.5192 36.5807 38.4823 36.5809H36.7819Z" fill="white"/>
<path d="M79.4951 46.6117C83.0693 46.6117 85.9667 43.7143 85.9667 40.1401C85.9667 36.5659 83.0693 33.6685 79.4951 33.6685C75.9209 33.6685 73.0234 36.5659 73.0234 40.1401C73.0234 43.7143 75.9209 46.6117 79.4951 46.6117Z" fill="url(#paint2_linear_1943_5608)"/>
<path d="M82.2989 44.239H76.6901C76.5186 44.2388 76.3541 44.1706 76.2327 44.0493C76.1114 43.9279 76.0432 43.7634 76.043 43.5919V36.6888C76.0432 36.5172 76.1114 36.3527 76.2327 36.2314C76.3541 36.1101 76.5186 36.0418 76.6901 36.0416H80.7542C80.9016 36.0418 81.0446 36.0921 81.1596 36.1844L82.7042 37.4256C82.7799 37.4861 82.8409 37.5628 82.8828 37.6502C82.9247 37.7375 82.9463 37.8332 82.946 37.93V43.5919C82.9459 43.7634 82.8776 43.9279 82.7563 44.0493C82.635 44.1706 82.4705 44.2388 82.2989 44.239ZM76.6901 36.4731C76.6329 36.4731 76.5781 36.4959 76.5377 36.5363C76.4972 36.5768 76.4745 36.6316 76.4744 36.6888V43.5919C76.4745 43.6491 76.4972 43.7039 76.5377 43.7443C76.5781 43.7848 76.6329 43.8075 76.6901 43.8076H82.2989C82.3561 43.8075 82.4109 43.7848 82.4513 43.7443C82.4918 43.7039 82.5145 43.6491 82.5146 43.5919V37.93C82.5147 37.8978 82.5075 37.8659 82.4935 37.8368C82.4796 37.8077 82.4592 37.7821 82.434 37.7619L80.8892 36.5206C80.8509 36.4899 80.8033 36.4731 80.7542 36.4731H76.6901Z" fill="white"/>
<path d="M81.22 39.0617H77.7685C77.7112 39.0617 77.6564 39.039 77.6159 38.9985C77.5755 38.958 77.5527 38.9032 77.5527 38.846C77.5527 38.7888 77.5755 38.7339 77.6159 38.6934C77.6564 38.653 77.7112 38.6302 77.7685 38.6302H81.22C81.2772 38.6302 81.3321 38.653 81.3725 38.6934C81.413 38.7339 81.4357 38.7888 81.4357 38.846C81.4357 38.9032 81.413 38.958 81.3725 38.9985C81.3321 39.039 81.2772 39.0617 81.22 39.0617Z" fill="white"/>
<path d="M81.22 40.356H77.7685C77.7112 40.356 77.6564 40.3333 77.6159 40.2928C77.5755 40.2524 77.5527 40.1975 77.5527 40.1403C77.5527 40.0831 77.5755 40.0282 77.6159 39.9877C77.6564 39.9473 77.7112 39.9246 77.7685 39.9246H81.22C81.2772 39.9246 81.3321 39.9473 81.3725 39.9877C81.413 40.0282 81.4357 40.0831 81.4357 40.1403C81.4357 40.1975 81.413 40.2524 81.3725 40.2928C81.3321 40.3333 81.2772 40.356 81.22 40.356Z" fill="white"/>
<path d="M81.22 41.6504H77.7685C77.7112 41.6504 77.6564 41.6277 77.6159 41.5873C77.5755 41.5468 77.5527 41.4919 77.5527 41.4347C77.5527 41.3775 77.5755 41.3226 77.6159 41.2822C77.6564 41.2417 77.7112 41.219 77.7685 41.219H81.22C81.2772 41.219 81.3321 41.2417 81.3725 41.2822C81.413 41.3226 81.4357 41.3775 81.4357 41.4347C81.4357 41.4919 81.413 41.5468 81.3725 41.5873C81.3321 41.6277 81.2772 41.6504 81.22 41.6504Z" fill="white"/>
<path d="M119.403 45.3177C122.977 45.3177 125.875 42.4202 125.875 38.846C125.875 35.2718 122.977 32.3744 119.403 32.3744C115.829 32.3744 112.932 35.2718 112.932 38.846C112.932 42.4202 115.829 45.3177 119.403 45.3177Z" fill="url(#paint3_linear_1943_5608)"/>
<path d="M122.424 41.2189H116.383C116.212 41.2187 116.047 41.1505 115.926 41.0291C115.805 40.9078 115.737 40.7433 115.736 40.5717V37.1202C115.737 36.9486 115.805 36.7841 115.926 36.6628C116.047 36.5415 116.212 36.4732 116.383 36.473H122.424C122.595 36.4732 122.76 36.5415 122.881 36.6628C123.002 36.7841 123.071 36.9486 123.071 37.1202V40.5717C123.071 40.7433 123.002 40.9078 122.881 41.0291C122.76 41.1505 122.595 41.2187 122.424 41.2189ZM116.383 36.9045C116.326 36.9045 116.271 36.9273 116.231 36.9677C116.191 37.0082 116.168 37.063 116.168 37.1202V40.5717C116.168 40.6289 116.191 40.6838 116.231 40.7242C116.271 40.7646 116.326 40.7874 116.383 40.7874H122.424C122.481 40.7874 122.536 40.7646 122.576 40.7242C122.617 40.6838 122.639 40.6289 122.639 40.5717V37.1202C122.639 37.063 122.617 37.0082 122.576 36.9677C122.536 36.9273 122.481 36.9045 122.424 36.9045H116.383Z" fill="white"/>
<path d="M119.403 39.4151C119.282 39.4153 119.163 39.3814 119.06 39.3175L115.837 37.3032C115.789 37.2728 115.755 37.2244 115.742 37.1687C115.729 37.113 115.739 37.0545 115.769 37.0061C115.799 36.9576 115.848 36.9231 115.903 36.9102C115.959 36.8973 116.018 36.9071 116.066 36.9373L119.289 38.9515C119.323 38.9728 119.363 38.9841 119.403 38.9841C119.444 38.9841 119.483 38.9728 119.518 38.9515L122.74 36.9373C122.789 36.9071 122.847 36.8973 122.903 36.9102C122.959 36.9231 123.007 36.9576 123.037 37.0061C123.068 37.0545 123.078 37.113 123.065 37.1687C123.052 37.2244 123.018 37.2728 122.969 37.3032L119.746 39.3175C119.643 39.3815 119.525 39.4153 119.403 39.4151Z" fill="white"/>
<path d="M39.8017 70.9884C43.3759 70.9884 46.2734 68.091 46.2734 64.5168C46.2734 60.9426 43.3759 58.0452 39.8017 58.0452C36.2275 58.0452 33.3301 60.9426 33.3301 64.5168C33.3301 68.091 36.2275 70.9884 39.8017 70.9884Z" fill="url(#paint4_linear_1943_5608)"/>
<path d="M42.8221 66.8897H36.7819C36.6103 66.8895 36.4458 66.8212 36.3245 66.6999C36.2032 66.5786 36.135 66.4141 36.1348 66.2425V62.791C36.135 62.6194 36.2032 62.4549 36.3245 62.3336C36.4458 62.2122 36.6103 62.144 36.7819 62.1438H42.8221C42.9937 62.144 43.1582 62.2122 43.2795 62.3336C43.4009 62.4549 43.4691 62.6194 43.4693 62.791V66.2425C43.4691 66.4141 43.4009 66.5786 43.2795 66.6999C43.1582 66.8212 42.9937 66.8895 42.8221 66.8897ZM36.7819 62.5752C36.7247 62.5753 36.6699 62.598 36.6295 62.6385C36.589 62.6789 36.5663 62.7338 36.5662 62.791V66.2425C36.5663 66.2997 36.589 66.3545 36.6295 66.395C36.6699 66.4354 36.7247 66.4582 36.7819 66.4582H42.8221C42.8793 66.4582 42.9342 66.4354 42.9746 66.395C43.015 66.3545 43.0378 66.2997 43.0378 66.2425V62.791C43.0378 62.7338 43.015 62.6789 42.9746 62.6385C42.9342 62.598 42.8793 62.5753 42.8221 62.5752H36.7819Z" fill="white"/>
<path d="M41.8654 66.8899H37.5243C37.4485 66.8899 37.3741 66.87 37.3085 66.8322C37.2429 66.7943 37.1884 66.7398 37.1506 66.6742C37.1127 66.6086 37.0928 66.5342 37.0928 66.4585C37.0928 66.3827 37.1128 66.3083 37.1506 66.2428L38.4582 63.9777C38.4961 63.9121 38.5506 63.8576 38.6162 63.8198C38.6818 63.7819 38.7562 63.762 38.8319 63.762C38.9077 63.762 38.982 63.7819 39.0476 63.8198C39.1132 63.8576 39.1677 63.9121 39.2056 63.9777L40.0501 65.4405L40.5394 64.593C40.5773 64.5274 40.6317 64.473 40.6973 64.4351C40.7629 64.3973 40.8373 64.3773 40.9131 64.3773C40.9888 64.3773 41.0632 64.3973 41.1288 64.4351C41.1944 64.473 41.2489 64.5274 41.2867 64.593L42.2391 66.2428C42.277 66.3084 42.2969 66.3828 42.2969 66.4585C42.2969 66.5342 42.277 66.6086 42.2391 66.6742C42.2012 66.7398 42.1468 66.7943 42.0812 66.8321C42.0156 66.87 41.9412 66.8899 41.8654 66.8899ZM41.8654 66.4585L40.913 64.8088L40.237 65.9798C40.2181 66.0126 40.1908 66.0399 40.158 66.0588C40.1252 66.0778 40.088 66.0877 40.0501 66.0877C40.0123 66.0877 39.9751 66.0778 39.9423 66.0588C39.9094 66.0399 39.8822 66.0126 39.8633 65.9798L38.832 64.1934L37.5243 66.4585H41.8654Z" fill="white"/>
<path d="M42.1756 63.8696C42.4139 63.8696 42.607 63.6764 42.607 63.4382C42.607 63.1999 42.4139 63.0067 42.1756 63.0067C41.9373 63.0067 41.7441 63.1999 41.7441 63.4382C41.7441 63.6764 41.9373 63.8696 42.1756 63.8696Z" fill="white"/>
<path d="M79.9257 70.3411C83.4999 70.3411 86.3974 67.4436 86.3974 63.8695C86.3974 60.2953 83.4999 57.3978 79.9257 57.3978C76.3516 57.3978 73.4541 60.2953 73.4541 63.8695C73.4541 67.4436 76.3516 70.3411 79.9257 70.3411Z" fill="url(#paint5_linear_1943_5608)"/>
<path d="M79.9268 63.9777C79.5429 63.9777 79.1675 63.8638 78.8482 63.6505C78.5289 63.4372 78.2801 63.134 78.1331 62.7792C77.9862 62.4244 77.9477 62.0341 78.0227 61.6574C78.0976 61.2808 78.2825 60.9349 78.554 60.6634C78.8255 60.3919 79.1715 60.2069 79.5481 60.132C79.9247 60.0571 80.3151 60.0956 80.6698 60.2425C81.0246 60.3895 81.3278 60.6383 81.5411 60.9576C81.7545 61.2769 81.8683 61.6522 81.8683 62.0362C81.8678 62.551 81.663 63.0444 81.299 63.4084C80.9351 63.7724 80.4416 63.9771 79.9268 63.9777ZM79.9268 60.5262C79.6282 60.5262 79.3362 60.6147 79.0879 60.7807C78.8396 60.9466 78.646 61.1824 78.5317 61.4583C78.4174 61.7343 78.3875 62.0379 78.4458 62.3308C78.5041 62.6237 78.6479 62.8928 78.8591 63.104C79.0703 63.3152 79.3393 63.459 79.6322 63.5173C79.9252 63.5755 80.2288 63.5456 80.5047 63.4313C80.7806 63.317 81.0165 63.1235 81.1824 62.8752C81.3483 62.6268 81.4369 62.3349 81.4369 62.0362C81.4364 61.6359 81.2772 61.2521 80.9941 60.969C80.711 60.6859 80.3272 60.5266 79.9268 60.5262Z" fill="white"/>
<path d="M81.6529 67.6446H78.2013C78.0011 67.6444 77.8092 67.5648 77.6677 67.4232C77.5262 67.2817 77.4465 67.0898 77.4463 66.8896C77.4463 66.2317 77.7077 65.6007 78.1729 65.1354C78.6381 64.6702 79.2691 64.4088 79.9271 64.4088C80.585 64.4088 81.216 64.6702 81.6813 65.1354C82.1465 65.6007 82.4079 66.2317 82.4079 66.8896C82.4076 67.0898 82.328 67.2817 82.1865 67.4232C82.0449 67.5648 81.853 67.6444 81.6529 67.6446ZM79.9271 64.8403C79.3838 64.8409 78.8628 65.057 78.4787 65.4412C78.0945 65.8254 77.8783 66.3463 77.8777 66.8896C77.8778 66.9754 77.9119 67.0576 77.9726 67.1183C78.0333 67.179 78.1155 67.2131 78.2013 67.2132H81.6529C81.7386 67.2131 81.8209 67.179 81.8816 67.1183C81.9422 67.0576 81.9763 66.9754 81.9764 66.8896C81.9758 66.3463 81.7597 65.8254 81.3755 65.4412C80.9913 65.057 80.4704 64.8409 79.9271 64.8403Z" fill="white"/>
<path d="M17.4604 102.386H20.1051L21.3632 92.1847L17.46 92.1849L17.4604 102.386Z" fill="#FFB8B8"/>
<path d="M25.2051 104.841L16.8932 104.842L16.893 101.63L21.9935 101.63C22.8452 101.63 23.6621 101.968 24.2644 102.571C24.8667 103.173 25.205 103.99 25.2051 104.841Z" fill="#FFD200"/>
<path d="M7.53656 102.386H10.1813L11.4394 92.1847L7.53613 92.1849L7.53656 102.386Z" fill="#FFB8B8"/>
<path d="M15.2822 104.841L6.97033 104.842L6.97018 101.63L12.0707 101.63C12.9224 101.63 13.7392 101.968 14.3415 102.571C14.9438 103.173 15.2822 103.99 15.2822 104.841Z" fill="#FFD200"/>
<path d="M17.539 97.2482C17.3017 97.2474 17.0728 97.1601 16.8953 97.0026C16.7178 96.8451 16.6039 96.6282 16.5749 96.3927L15.0377 83.5352C15.016 83.3541 14.9296 83.187 14.7944 83.0647C14.6591 82.9424 14.4842 82.8732 14.3019 82.8699C14.1196 82.8665 13.9422 82.9292 13.8026 83.0464C13.6629 83.1636 13.5704 83.3274 13.5421 83.5076L11.6056 95.8182C11.5705 96.0471 11.4544 96.2558 11.2784 96.4063C11.1024 96.5568 10.8782 96.6391 10.6466 96.6381H7.50788C7.37978 96.6381 7.25295 96.6128 7.1347 96.5635C7.01645 96.5143 6.90911 96.4421 6.81887 96.3512C6.72864 96.2603 6.65728 96.1524 6.60893 96.0337C6.56058 95.9151 6.53618 95.7881 6.53714 95.66L8.03516 68.3639C8.03571 68.1315 8.1201 67.9071 8.27281 67.732C8.42552 67.5568 8.6363 67.4426 8.86644 67.4104L20.514 65.7196C20.6524 65.6996 20.7935 65.7097 20.9276 65.7492C21.0618 65.7887 21.1858 65.8567 21.2912 65.9486C21.3966 66.0405 21.481 66.154 21.5384 66.2815C21.5959 66.409 21.6252 66.5474 21.6242 66.6872L21.421 96.1454C21.4193 96.3937 21.3225 96.6318 21.1505 96.8109C20.9786 96.99 20.7445 97.0964 20.4965 97.1081L17.585 97.247C17.5696 97.2478 17.5542 97.2482 17.539 97.2482Z" fill="#2F2E41"/>
<path d="M11.5003 69.3951C10.3799 69.3908 9.26873 69.1929 8.21575 68.8103C8.03724 68.7445 7.88221 68.6274 7.77018 68.4736C7.65816 68.3199 7.59416 68.1364 7.58627 67.9463C7.48578 65.7164 6.89793 54.2386 5.18648 47.2373C4.85383 45.8639 4.93519 44.4228 5.42029 43.0955C5.9054 41.7683 6.77254 40.6143 7.91243 39.7791C8.0045 39.713 8.09835 39.648 8.19399 39.5843C9.18382 38.9253 10.3258 38.5306 11.5113 38.4377C12.6967 38.3448 13.8863 38.5567 14.9667 39.0534C16.0828 39.5528 17.0526 40.3295 17.7838 41.3096C18.5149 42.2898 18.9831 43.4407 19.1438 44.6529L21.9347 65.3731C21.9526 65.5026 21.944 65.6344 21.9095 65.7605C21.875 65.8867 21.8152 66.0045 21.7338 66.1068C21.6542 66.2084 21.5547 66.2928 21.4415 66.3549C21.3283 66.4169 21.2036 66.4553 21.0751 66.4677C20.1081 66.5642 18.1024 66.9389 15.5354 68.3651C14.301 69.0489 12.9114 69.4036 11.5003 69.3951Z" fill="#68E1FD"/>
<path d="M13.2007 36.2399C16.1269 36.2399 18.499 33.8677 18.499 30.9415C18.499 28.0153 16.1269 25.6432 13.2007 25.6432C10.2745 25.6432 7.90234 28.0153 7.90234 30.9415C7.90234 33.8677 10.2745 36.2399 13.2007 36.2399Z" fill="#FFB8B8"/>
<path d="M32.4008 41.3511C32.3743 41.4675 32.3571 41.5858 32.3492 41.705L23.0824 47.051L20.8299 45.7543L18.4287 48.8978L23.2473 52.3322L33.8194 43.9919C34.2505 44.1514 34.7201 44.1759 35.1655 44.0621C35.611 43.9483 36.0113 43.7016 36.3131 43.3548C36.6149 43.008 36.804 42.5775 36.8552 42.1206C36.9064 41.6637 36.8173 41.202 36.5997 40.797C36.3821 40.3919 36.0464 40.0627 35.6372 39.8532C35.228 39.6436 34.7647 39.5636 34.3089 39.6237C33.853 39.6839 33.4263 39.8814 33.0855 40.19C32.7447 40.4985 32.5059 40.9035 32.4008 41.3511Z" fill="#FFB8B8"/>
<path d="M22.3148 47.3088L18.3231 49.8993C18.107 50.0392 17.8443 50.0877 17.5926 50.0341C17.3408 49.9805 17.1207 49.8292 16.9803 49.6135L13.6215 44.4379C13.2617 43.8835 13.1199 43.2155 13.2235 42.5628C13.327 41.91 13.6686 41.3187 14.1823 40.9029C14.696 40.487 15.3454 40.2761 16.0054 40.3108C16.6654 40.3455 17.2892 40.6233 17.7565 41.0907L22.4729 45.8082C22.5752 45.9104 22.6533 46.0343 22.7016 46.1706C22.7498 46.307 22.767 46.4524 22.7519 46.5962C22.7367 46.7401 22.6896 46.8787 22.614 47.002C22.5384 47.1253 22.4362 47.2301 22.3148 47.3088Z" fill="#ADEFFE"/>
<path d="M9.45093 35.1334C10.4394 36.1863 12.275 35.6211 12.4038 34.1827C12.4139 34.071 12.4132 33.9587 12.4016 33.8471C12.3351 33.21 11.967 32.6315 12.0552 31.9588C12.0752 31.7914 12.1375 31.6318 12.2364 31.4952C13.0241 30.4405 14.873 31.967 15.6164 31.0122C16.0722 30.4267 15.5364 29.5049 15.8862 28.8505C16.3478 27.9869 17.7152 28.4129 18.5727 27.9399C19.5268 27.4137 19.4698 25.9498 18.8417 25.0595C18.0758 23.9736 16.7329 23.3942 15.4067 23.3107C14.0805 23.2272 12.7635 23.5857 11.5254 24.0682C10.1187 24.6164 8.72367 25.3741 7.85799 26.611C6.80522 28.1153 6.70391 30.1376 7.23042 31.8966C7.5507 32.9665 8.64377 34.2736 9.45093 35.1334Z" fill="#2F2E41"/>
<path d="M30.4167 104.857H0.215721C0.158508 104.857 0.103639 104.834 0.0631831 104.794C0.0227275 104.753 0 104.698 0 104.641C0 104.584 0.0227275 104.529 0.0631831 104.488C0.103639 104.448 0.158508 104.425 0.215721 104.425H30.4167C30.4739 104.425 30.5288 104.448 30.5692 104.488C30.6097 104.529 30.6324 104.584 30.6324 104.641C30.6324 104.698 30.6097 104.753 30.5692 104.794C30.5288 104.834 30.4739 104.857 30.4167 104.857Z" fill="#2F2E41"/>
<defs>
<linearGradient id="paint0_linear_1943_5608" x1="33.3066" y1="6.38484" x2="30.0801" y2="3.15832" gradientUnits="userSpaceOnUse">
<stop stop-color="#03B8DF"/>
<stop offset="1" stop-color="#1853A4"/>
</linearGradient>
<linearGradient id="paint1_linear_1943_5608" x1="46.2734" y1="45.5334" x2="33.3301" y2="32.5901" gradientUnits="userSpaceOnUse">
<stop stop-color="#03B8DF"/>
<stop offset="1" stop-color="#1853A4"/>
</linearGradient>
<linearGradient id="paint2_linear_1943_5608" x1="85.9667" y1="46.6117" x2="73.0234" y2="33.6685" gradientUnits="userSpaceOnUse">
<stop stop-color="#03B8DF"/>
<stop offset="1" stop-color="#1853A4"/>
</linearGradient>
<linearGradient id="paint3_linear_1943_5608" x1="125.875" y1="45.3177" x2="112.932" y2="32.3744" gradientUnits="userSpaceOnUse">
<stop stop-color="#03B8DF"/>
<stop offset="1" stop-color="#1853A4"/>
</linearGradient>
<linearGradient id="paint4_linear_1943_5608" x1="46.2734" y1="70.9884" x2="33.3301" y2="58.0452" gradientUnits="userSpaceOnUse">
<stop stop-color="#03B8DF"/>
<stop offset="1" stop-color="#1853A4"/>
</linearGradient>
<linearGradient id="paint5_linear_1943_5608" x1="86.3974" y1="70.3411" x2="73.4541" y2="57.3978" gradientUnits="userSpaceOnUse">
<stop stop-color="#03B8DF"/>
<stop offset="1" stop-color="#1853A4"/>
</linearGradient>
</defs>
</svg>
