<svg width="155" height="116" viewBox="0 0 155 116" fill="none" xmlns="http://www.w3.org/2000/svg">
<path d="M145.919 105.168C145.826 108.655 145.242 112.111 144.184 115.434C144.161 115.511 144.135 115.587 144.109 115.664H137.635C137.642 115.595 137.649 115.518 137.656 115.434C138.087 110.471 135.621 80.6272 132.646 75.4619C132.906 75.8809 146.421 89.3994 145.919 105.168Z" fill="#E7ECF2"/>
<path d="M145.433 115.435C145.379 115.512 145.323 115.589 145.265 115.665H140.408C140.445 115.599 140.488 115.522 140.537 115.435C141.34 113.987 143.714 109.657 145.919 105.169C148.287 100.345 150.461 95.339 150.278 93.5271C150.335 93.9355 151.974 106.394 145.433 115.435Z" fill="#E7ECF2"/>
<path d="M123.119 94.3286H0.894531V0.23999H123.119V94.3286Z" fill="white"/>
<path d="M123.119 94.3286H0.894531V0.23999H123.119V94.3286ZM2.70039 92.5227H121.313V2.04584H2.70039V92.5227Z" fill="#E7ECF2"/>
<path d="M32.8836 71.1648H23.6298C23.3792 71.1645 23.1389 71.0649 22.9617 70.8877C22.7845 70.7105 22.6849 70.4703 22.6846 70.2197V57.4632C22.6849 57.2126 22.7845 56.9724 22.9617 56.7952C23.1389 56.618 23.3792 56.5183 23.6298 56.5181H32.8836C33.1342 56.5183 33.3744 56.618 33.5516 56.7952C33.7288 56.9724 33.8285 57.2126 33.8288 57.4632V70.2197C33.8285 70.4703 33.7288 70.7105 33.5516 70.8877C33.3744 71.0649 33.1342 71.1645 32.8836 71.1648Z" fill="#E7ECF2"/>
<path d="M49.7576 71.1648H40.5038C40.2532 71.1645 40.013 71.0648 39.8358 70.8877C39.6586 70.7105 39.5589 70.4702 39.5586 70.2197V45.3637C39.5589 45.1131 39.6586 44.8729 39.8358 44.6957C40.013 44.5185 40.2532 44.4189 40.5038 44.4186H49.7576C50.0082 44.4189 50.2485 44.5185 50.4257 44.6957C50.6029 44.8729 50.7025 45.1131 50.7028 45.3637V70.2197C50.7025 70.4702 50.6029 70.7105 50.4257 70.8877C50.2485 71.0648 50.0082 71.1645 49.7576 71.1648Z" fill="#E7ECF2"/>
<path d="M66.6327 71.1648H57.3788C57.1282 71.1645 56.888 71.0649 56.7108 70.8877C56.5336 70.7105 56.4339 70.4703 56.4336 70.2197V57.4632C56.4339 57.2126 56.5336 56.9724 56.7108 56.7952C56.888 56.618 57.1282 56.5183 57.3788 56.5181H66.6327C66.8832 56.5183 67.1235 56.618 67.3007 56.7952C67.4779 56.9724 67.5775 57.2126 67.5778 57.4632V70.2197C67.5775 70.4703 67.4779 70.7105 67.3007 70.8877C67.1235 71.0649 66.8832 71.1645 66.6327 71.1648Z" fill="#E7ECF2"/>
<path d="M83.5086 71.1646H74.2548C74.0099 71.1699 73.7729 71.0779 73.5957 70.9088C73.4186 70.7396 73.3157 70.5072 73.3096 70.2623V40.5446C73.3157 40.2998 73.4186 40.0673 73.5957 39.8982C73.7729 39.729 74.0099 39.637 74.2548 39.6423H83.5086C83.7535 39.637 83.9905 39.729 84.1676 39.8982C84.3448 40.0673 84.4477 40.2998 84.4538 40.5446V70.2623C84.4477 70.5072 84.3448 70.7396 84.1677 70.9088C83.9905 71.0779 83.7535 71.1699 83.5086 71.1646Z" fill="#E7ECF2"/>
<path d="M100.385 71.1646H91.1307C90.8802 71.1643 90.6399 71.0646 90.4627 70.8875C90.2855 70.7103 90.1858 70.4701 90.1855 70.2195V31.9904C90.1858 31.7398 90.2855 31.4996 90.4627 31.3224C90.6399 31.1452 90.8802 31.0456 91.1307 31.0453H100.385C100.635 31.0456 100.875 31.1452 101.053 31.3224C101.23 31.4996 101.329 31.7398 101.33 31.9904V70.2195C101.329 70.4701 101.23 70.7103 101.053 70.8875C100.875 71.0646 100.635 71.1643 100.385 71.1646Z" fill="#F2F2F2"/>
<path d="M28.2561 52.697C29.3113 52.697 30.1666 51.8416 30.1666 50.7865C30.1666 49.7314 29.3113 48.8761 28.2561 48.8761C27.201 48.8761 26.3457 49.7314 26.3457 50.7865C26.3457 51.8416 27.201 52.697 28.2561 52.697Z" fill="#68E1FD"/>
<path d="M45.1311 40.2794C46.1863 40.2794 47.0416 39.424 47.0416 38.3689C47.0416 37.3138 46.1863 36.4585 45.1311 36.4585C44.076 36.4585 43.2207 37.3138 43.2207 38.3689C43.2207 39.424 44.076 40.2794 45.1311 40.2794Z" fill="#68E1FD"/>
<path d="M62.0061 52.697C63.0612 52.697 63.9166 51.8416 63.9166 50.7865C63.9166 49.7314 63.0612 48.8761 62.0061 48.8761C60.951 48.8761 60.0957 49.7314 60.0957 50.7865C60.0957 51.8416 60.951 52.697 62.0061 52.697Z" fill="#68E1FD"/>
<path d="M78.8821 34.2293C79.9372 34.2293 80.7926 33.374 80.7926 32.3189C80.7926 31.2638 79.9372 30.4084 78.8821 30.4084C77.827 30.4084 76.9717 31.2638 76.9717 32.3189C76.9717 33.374 77.827 34.2293 78.8821 34.2293Z" fill="#68E1FD"/>
<path d="M95.7571 27.2243C96.8122 27.2243 97.6676 26.369 97.6676 25.3139C97.6676 24.2588 96.8122 23.4034 95.7571 23.4034C94.702 23.4034 93.8467 24.2588 93.8467 25.3139C93.8467 26.369 94.702 27.2243 95.7571 27.2243Z" fill="#68E1FD"/>
<path d="M62.0478 51.2147L45.1318 38.5446L28.4473 51.0416L28.0654 50.5318L45.1318 37.7488L61.9671 50.3587L78.6969 32.0509L78.764 32.0237L95.6395 25.2242L95.8776 25.815L79.0691 32.5872L62.0478 51.2147Z" fill="#68E1FD"/>
<path d="M119.364 112.78L116.49 112.779L115.122 101.692L119.365 101.692L119.364 112.78Z" fill="#FFB6B6"/>
<path d="M120.097 115.566L110.828 115.565V115.448C110.828 114.491 111.208 113.574 111.885 112.897C112.561 112.221 113.479 111.841 114.436 111.841H114.436L120.097 111.841L120.097 115.566Z" fill="#FFD200"/>
<path d="M109.091 65.8517L110.723 91.8529L116.202 110.155L120.447 110.462L118.315 88.157L119.25 73.344C119.25 73.344 123.681 70.0412 121.231 66.0655L109.091 65.8517Z" fill="#2F2E41"/>
<path d="M121.239 112.78L118.364 112.779L116.997 101.692L121.239 101.692L121.239 112.78Z" fill="#FFB6B6"/>
<path d="M121.973 115.566L112.704 115.565V115.448C112.704 114.491 113.084 113.574 113.761 112.897C114.437 112.221 115.355 111.841 116.312 111.841H116.312L121.973 111.841L121.973 115.566Z" fill="#FFD200"/>
<path d="M110.967 65.8517L112.599 91.8529L118.078 110.155L122.323 110.462L120.191 88.157L121.126 73.344C121.126 73.344 125.557 70.0412 123.107 66.0655L110.967 65.8517Z" fill="#2F2E41"/>
<path d="M119.813 69.8781C114.918 69.8781 109.156 66.8866 108.822 66.7109L108.729 66.662L119.964 38.0008L125.528 35.3723C125.957 35.1699 126.431 35.0855 126.903 35.1278C127.375 35.1702 127.827 35.3377 128.213 35.6131C128.598 35.8885 128.903 36.2618 129.097 36.6945C129.29 37.1272 129.364 37.6036 129.311 38.0745L127.103 57.8823L124.799 68.1414L124.774 68.1654C123.502 69.4222 121.723 69.8781 119.813 69.8781Z" fill="#68E1FD"/>
<path d="M101.86 50.9048C102.151 50.7202 102.479 50.6017 102.821 50.5576C103.163 50.5135 103.51 50.5449 103.839 50.6496C104.167 50.7542 104.469 50.9296 104.722 51.1634C104.975 51.3972 105.174 51.6837 105.305 52.0027L113.671 51.5457L111.476 55.3057L103.868 55.1633C103.317 55.3471 102.718 55.3227 102.185 55.0946C101.651 54.8665 101.22 54.4506 100.972 53.9257C100.725 53.4008 100.679 52.8033 100.842 52.2465C101.006 51.6898 101.368 51.2123 101.86 50.9048Z" fill="#FFB6B6"/>
<path d="M118.37 56.7908L109.986 56.5768L110.095 51.0309L114.059 49.7691L120.562 40.6483C120.887 40.1916 121.301 39.8048 121.779 39.5108C122.257 39.2168 122.788 39.0216 123.343 38.9367C123.897 38.8518 124.463 38.8789 125.007 39.0164C125.551 39.1539 126.061 39.3991 126.509 39.7374C126.956 40.0757 127.331 40.5003 127.611 40.986C127.892 41.4717 128.072 42.0088 128.141 42.5654C128.211 43.1219 128.168 43.6868 128.015 44.2265C127.862 44.7661 127.603 45.2697 127.252 45.7074L118.37 56.7908Z" fill="#9EECFE"/>
<path d="M123.225 34.3161C126.302 34.3161 128.796 31.8219 128.796 28.7452C128.796 25.6685 126.302 23.1743 123.225 23.1743C120.148 23.1743 117.654 25.6685 117.654 28.7452C117.654 31.8219 120.148 34.3161 123.225 34.3161Z" fill="#FFB6B6"/>
<path d="M116.176 24.1026C116.738 23.5262 117.469 23.1428 118.263 23.0077C119.037 22.8412 119.885 22.7896 120.504 22.3043C121.208 21.7439 121.517 20.6795 122.38 20.4426C122.755 20.3672 123.144 20.3981 123.503 20.5318C124.882 20.9476 126.106 21.7637 127.02 22.8764C127.236 23.1953 127.51 23.4698 127.829 23.6853C128.02 23.766 128.206 23.8568 128.387 23.9573C128.586 24.114 128.742 24.318 128.842 24.5505C129.464 25.8063 129.607 27.2458 129.245 28.5997C129.029 29.3992 128.64 30.1401 128.41 30.9443C128.181 31.7485 127.118 33.2784 126.869 32.8986C126.621 32.5187 126.302 32.1647 126.166 31.7262C125.901 30.8638 126.14 29.9959 125.466 29.3969C125.048 29.0264 124.293 28.7779 124.01 29.2562C123.897 29.4414 123.904 29.6759 123.808 29.8681C123.618 30.2433 123.069 30.3183 122.706 30.1026C122.356 29.8608 122.109 29.4957 122.017 29.0803C121.47 27.2327 120.539 26.0698 118.563 26.8599C117.827 27.1554 116.959 27.3547 116.251 26.8482C115.318 26.1823 115.508 24.8623 116.176 24.1026Z" fill="#2F2E41"/>
<path d="M103.667 74.2128H94.413C94.1624 74.2125 93.9221 74.1129 93.7449 73.9357C93.5678 73.7585 93.4681 73.5183 93.4678 73.2677V35.0386C93.4681 34.788 93.5678 34.5478 93.7449 34.3706C93.9221 34.1934 94.1624 34.0938 94.413 34.0935H103.667C103.917 34.0938 104.158 34.1934 104.335 34.3706C104.512 34.5478 104.612 34.788 104.612 35.0386V73.2677C104.612 73.5183 104.512 73.7585 104.335 73.9357C104.158 74.1129 103.917 74.2125 103.667 74.2128Z" fill="url(#paint0_linear_1943_5870)"/>
<path d="M101.627 54.1875C101.918 54.0029 102.246 53.8844 102.588 53.8403C102.93 53.7962 103.277 53.8276 103.605 53.9323C103.934 54.037 104.235 54.2124 104.488 54.4461C104.742 54.6799 104.941 54.9664 105.071 55.2854L113.437 54.8284L111.242 58.5885L103.634 58.446C103.084 58.6299 102.485 58.6054 101.951 58.3773C101.418 58.1492 100.986 57.7333 100.739 57.2084C100.492 56.6835 100.445 56.086 100.609 55.5292C100.772 54.9725 101.135 54.4951 101.627 54.1875Z" fill="#FFB6B6"/>
<path d="M118.136 60.0735L109.752 59.8595L109.86 54.3137L113.825 53.0518L120.328 43.931C120.653 43.4743 121.067 43.0875 121.545 42.7935C122.022 42.4995 122.554 42.3043 123.108 42.2194C123.663 42.1345 124.229 42.1616 124.772 42.2991C125.316 42.4366 125.827 42.6818 126.274 43.0201C126.722 43.3584 127.097 43.783 127.377 44.2687C127.658 44.7544 127.838 45.2915 127.907 45.8481C127.976 46.4047 127.933 46.9695 127.781 47.5092C127.628 48.0488 127.368 48.5524 127.018 48.9901L118.136 60.0735Z" fill="#9EECFE"/>
<path d="M154.764 115.899H65.4334C65.4025 115.9 65.372 115.894 65.3434 115.882C65.3149 115.87 65.289 115.853 65.2672 115.831C65.2453 115.809 65.228 115.783 65.2161 115.755C65.2043 115.726 65.1982 115.696 65.1982 115.665C65.1982 115.634 65.2043 115.604 65.2161 115.575C65.228 115.547 65.2453 115.521 65.2672 115.499C65.289 115.477 65.3149 115.46 65.3434 115.448C65.372 115.436 65.4025 115.43 65.4334 115.431H154.764C154.795 115.43 154.826 115.436 154.854 115.448C154.883 115.46 154.909 115.477 154.931 115.499C154.953 115.521 154.97 115.547 154.982 115.575C154.994 115.604 155 115.634 155 115.665C155 115.696 154.994 115.726 154.982 115.755C154.97 115.783 154.953 115.809 154.931 115.831C154.909 115.853 154.883 115.87 154.854 115.882C154.826 115.894 154.795 115.9 154.764 115.899Z" fill="#CACACA"/>
<defs>
<linearGradient id="paint0_linear_1943_5870" x1="104.612" y1="74.2128" x2="83.9201" y2="68.4651" gradientUnits="userSpaceOnUse">
<stop stop-color="#03B8DF"/>
<stop offset="1" stop-color="#1853A4"/>
</linearGradient>
</defs>
</svg>
