<svg width="169" height="113" viewBox="0 0 169 113" fill="none" xmlns="http://www.w3.org/2000/svg">
<path opacity="0.3" d="M33.1712 10.29C24.582 13.2574 16.9792 18.5392 11.2011 25.5529C5.42307 32.5667 1.69423 41.04 0.425803 50.0383C-1.709 65.5954 3.41852 82.7886 33.4605 87.6867C91.9632 97.2185 146.755 99.9369 160.741 74.2195C174.727 48.502 170.447 4.45416 140.74 1.6011C117.132 -0.663393 67.0438 -1.4415 33.1712 10.29Z" fill="#E6E6E6"/>
<path d="M97.291 29.1591C97.291 29.1591 97.291 24.0465 101.78 23.8271C106.269 23.6076 122.664 22.5153 125.223 30.9098C127.782 39.3044 126.171 61.4605 115.472 65.5356C104.773 69.6107 93.2559 62.9918 93.2559 62.9918C93.2559 62.9918 101.616 46.3972 97.291 29.1591Z" fill="#FFD200"/>
<path d="M100.661 28.1263C100.661 28.1263 94.1018 28.69 90.4507 32.0867C86.7996 35.4834 87.6475 51.6142 67.1973 50.6815V53.9236C67.1973 53.9236 92.2414 55.7891 96.2316 41.4539L100.661 28.1263Z" fill="#68E1FD"/>
<path opacity="0.46" d="M100.661 28.1263C100.661 28.1263 94.1018 28.69 90.4507 32.0867C86.7996 35.4834 87.6475 51.6142 67.1973 50.6815V53.9236C67.1973 53.9236 92.2414 55.7891 96.2316 41.4539L100.661 28.1263Z" fill="white"/>
<path d="M103.904 18.1209C103.629 19.4589 103.533 20.8276 103.62 22.1909C103.641 22.3521 103.694 22.5075 103.776 22.6482C103.858 22.7888 103.966 22.912 104.095 23.0107C104.225 23.1094 104.372 23.1816 104.529 23.2232C104.686 23.2649 104.85 23.2751 105.011 23.2534C105.535 23.2142 106.036 23.0248 106.454 22.7081C106.873 22.3914 107.191 21.9607 107.371 21.4677L108.368 19.4227C108.521 18.9926 108.537 18.5258 108.414 18.0864C108.29 17.647 108.034 17.2565 107.68 16.9687C106.408 15.8115 104.134 16.6395 103.904 18.1209Z" fill="#F4A28C"/>
<path d="M108.174 19.7919L108.493 27.8373L104.049 27.6976L105.6 21.9017L108.174 19.7919Z" fill="#F4A28C"/>
<path d="M106.772 15.3775C107.166 15.3775 107.455 15.7915 107.769 16.011C108.135 16.2781 108.421 16.6398 108.597 17.0572C108.773 17.4746 108.832 17.932 108.767 18.3802L108.423 21.5026C108.048 21.6002 107.651 21.5638 107.301 21.3999C106.95 21.236 106.668 20.9548 106.503 20.6048C106.324 20.2471 106.254 19.8451 106.301 19.448C106.348 19.051 106.51 18.6764 106.767 18.3703C106.009 18.4265 105.248 18.3964 104.497 18.2805C104.243 18.2417 103.997 18.1608 103.769 18.0411C103.769 18.0411 102.722 15.3077 106.772 15.3775Z" fill="#2F2E41"/>
<path d="M106.248 20.505C106.248 20.505 106.378 19.5673 107.076 19.7269C107.774 19.8865 107.575 21.2233 106.617 21.2482L106.248 20.505Z" fill="#F4A28C"/>
<path d="M103.665 19.6521L102.877 20.505C102.831 20.5537 102.799 20.613 102.783 20.6774C102.767 20.7418 102.768 20.8092 102.784 20.8734C102.801 20.9375 102.834 20.9964 102.88 21.0445C102.926 21.0926 102.983 21.1284 103.046 21.1485L103.959 21.4328L103.665 19.6521Z" fill="#F4A28C"/>
<path opacity="0.31" d="M105.206 23.1535C105.769 23.0879 106.301 22.861 106.737 22.5001C106.737 22.5001 106.498 23.9516 104.742 25.2085L105.206 23.1535Z" fill="#CE8172"/>
<path d="M108.493 27.8372L104.049 27.6975C104.049 27.6975 92.1382 27.887 91.3901 36.5709C90.6419 45.2548 95.7345 52.0333 94.0386 58.8118L110.209 60.8768C110.209 60.8768 136.715 34.2416 108.493 27.8372Z" fill="#68E1FD"/>
<path opacity="0.08" d="M106.214 37.0349C106.007 39.2025 106.132 41.3889 106.583 43.5191C107.116 45.7624 107.112 48.0998 106.571 50.3412C106.03 52.5826 104.968 54.6646 103.47 56.4178L100.662 59.6699L110.209 60.8919C110.209 60.8919 117.486 52.9263 118.823 49.1305C120.16 45.3347 117.192 41.0551 117.192 41.0551L106.214 37.0349Z" fill="black"/>
<path d="M40.3594 112.082H129.508L122.036 94.151L96.6824 88.5097L84.507 75.217L53.9413 77.5514L40.3594 112.082Z" fill="#E7ECF2"/>
<path d="M104.722 60.1736L94.0384 58.8119H93.7541C91.0094 58.8358 88.3325 59.6679 86.058 61.2044C83.7835 62.7408 82.0121 64.9135 80.9652 67.4509L78.3965 73.6707L80.4315 74.5636L84.1724 69.8301C85.2956 68.4094 86.7501 67.2859 88.4084 66.5581C90.0668 65.8302 91.8783 65.5202 93.6843 65.6552L98.1335 65.9894C99.8143 66.1065 101.413 66.7629 102.69 67.8611C103.968 68.9592 104.858 70.4405 105.226 72.0846C106.822 79.4068 106.723 88.3351 106.723 88.3351H109.715L110.214 60.8769L104.722 60.1736Z" fill="#2F2E41"/>
<path d="M21.9346 112.082L36.8383 92.1307L61.6031 100.022L88.4927 102.55L93.0566 112.082H21.9346Z" fill="#DCE1E9"/>
<path d="M108.488 34.3613C108.915 33.555 109.507 32.8479 110.226 32.2862C110.945 31.7244 111.774 31.3207 112.66 31.1013C113.545 30.8819 114.467 30.8519 115.365 31.0131C116.263 31.1743 117.117 31.5232 117.87 32.0369C123.327 35.718 131.308 43.0601 129.023 53.4848C125.627 68.9472 107.795 62.3133 107.795 62.3133V58.747C107.795 58.747 121.721 61.6349 120.873 51.7639C120.165 43.5639 104.887 41.5638 108.488 34.3613Z" fill="#68E1FD"/>
<path opacity="0.46" d="M108.488 34.3613C108.915 33.555 109.507 32.8479 110.226 32.2862C110.945 31.7244 111.774 31.3207 112.66 31.1013C113.545 30.8819 114.467 30.8519 115.365 31.0131C116.263 31.1743 117.117 31.5232 117.87 32.0369C123.327 35.718 131.308 43.0601 129.023 53.4848C125.627 68.9472 107.795 62.3133 107.795 62.3133V58.747C107.795 58.747 121.721 61.6349 120.873 51.7639C120.165 43.5639 104.887 41.5638 108.488 34.3613Z" fill="white"/>
<path d="M107.795 59.6799C107.795 59.6799 103.76 58.4878 104.049 61.1214C104.338 63.755 107.795 62.2985 107.795 62.2985V59.6799Z" fill="#F4A28C"/>
<path d="M116.578 29.982C115.938 29.4597 115.188 29.0896 114.385 28.8995C113.581 28.7094 112.745 28.7043 111.939 28.8847C109.829 29.3286 106.826 30.4209 106.003 33.0894C104.692 37.3341 110.752 50.2577 120.014 49.0506C120.014 49.0506 116.917 44.6563 114.029 42.1973C111.141 39.7383 107.664 30.1466 117.386 31.7577C117.411 31.7527 117.81 31.0244 116.578 29.982Z" fill="#FFD200"/>
<path opacity="0.08" d="M116.578 29.982C115.938 29.4597 115.188 29.0896 114.385 28.8995C113.581 28.7094 112.745 28.7043 111.939 28.8847C109.829 29.3286 106.826 30.4209 106.003 33.0894C104.692 37.3341 110.752 50.2577 120.014 49.0506C120.014 49.0506 116.917 44.6563 114.029 42.1973C111.141 39.7383 107.664 30.1466 117.386 31.7577C117.411 31.7527 117.81 31.0244 116.578 29.982Z" fill="black"/>
<path d="M67.1981 50.6817C67.1981 50.6817 62.9934 49.744 63.1231 52.2928C63.2527 54.8416 67.1981 53.9238 67.1981 53.9238V50.6817Z" fill="#2F2E41"/>
<path d="M65.9557 18.1556H64.5342V76.8728H65.9557V18.1556Z" fill="#2F2E41"/>
<path d="M64.5351 19.652C64.5351 19.652 59.2929 17.193 55.2178 19.652C51.1427 22.111 44.7532 24.4952 39.0421 20.5049C33.331 16.5146 24.8018 20.5049 24.8018 20.5049V46.8309C24.8018 46.8309 33.331 41.6834 39.1918 45.2747C45.0525 48.8659 51.1626 45.4293 55.6168 43.2795C60.071 41.1297 64.5551 43.6636 64.5551 43.6636L64.5351 19.652Z" fill="url(#paint0_linear_1943_5824)"/>
<path d="M79.4988 69.5258L83.09 71.1967L80.4115 75.5312L73.2988 76.2344L77.2891 74.1994L79.4988 69.5258Z" fill="#68E1FD"/>
<path d="M106.273 84.0454H109.79V89.9909L112.404 92.0061L106.737 90.7491L106.273 84.0454Z" fill="#68E1FD"/>
<path d="M103.566 18.1657C103.566 18.1657 106.902 19.1633 108.783 19.0536C108.783 19.0536 109.83 16.8489 108.943 15.188C108.164 13.7265 103.167 12.0805 103.566 18.1657Z" fill="#68E1FD"/>
<path opacity="0.68" d="M103.61 16.6194C103.61 16.6194 107.102 17.7666 109.196 17.8215C109.117 18.247 108.985 18.6609 108.802 19.0535C108.802 19.0535 107.047 19.228 103.585 18.1656C103.543 17.6506 103.551 17.1327 103.61 16.6194Z" fill="white"/>
<path d="M101.001 28.0566C101.001 28.0566 95.779 27.6526 92.9758 29.114C90.1727 30.5755 85.1499 43.2047 93.3948 49.6241C93.3948 49.6241 86.746 31.3935 101.001 28.0566Z" fill="#FFD200"/>
<path opacity="0.08" d="M101.001 28.0566C101.001 28.0566 95.779 27.6526 92.9758 29.114C90.1727 30.5755 85.1499 43.2047 93.3948 49.6241C93.3948 49.6241 86.746 31.3935 101.001 28.0566Z" fill="black"/>
<path d="M102.368 27.8373C102.368 27.8373 101.7 26.0167 104.608 25.6127C107.516 25.2087 111.456 25.3533 110.593 28.381C107.839 28.5851 105.071 28.402 102.368 27.8373Z" fill="#68E1FD"/>
<path opacity="0.68" d="M102.368 27.8373C102.368 27.8373 101.7 26.0167 104.608 25.6127C107.516 25.2087 111.456 25.3533 110.593 28.381C107.839 28.5851 105.071 28.402 102.368 27.8373Z" fill="white"/>
<path d="M24.2928 73.6857C25.593 73.6857 26.647 72.6317 26.647 71.3314C26.647 70.0312 25.593 68.9772 24.2928 68.9772C22.9925 68.9772 21.9385 70.0312 21.9385 71.3314C21.9385 72.6317 22.9925 73.6857 24.2928 73.6857Z" fill="#E6E6E6"/>
<path d="M147.059 26.7547C148.36 26.7547 149.414 25.7006 149.414 24.4004C149.414 23.1002 148.36 22.0461 147.059 22.0461C145.759 22.0461 144.705 23.1002 144.705 24.4004C144.705 25.7006 145.759 26.7547 147.059 26.7547Z" fill="#E6E6E6"/>
<path d="M79.6883 26.7448C80.9885 26.7448 82.0425 25.6908 82.0425 24.3905C82.0425 23.0903 80.9885 22.0363 79.6883 22.0363C78.388 22.0363 77.334 23.0903 77.334 24.3905C77.334 25.6908 78.388 26.7448 79.6883 26.7448Z" fill="#E6E6E6"/>
<path d="M127.936 77.7658C128.781 77.7658 129.467 77.0802 129.467 76.2345C129.467 75.3888 128.781 74.7032 127.936 74.7032C127.09 74.7032 126.404 75.3888 126.404 76.2345C126.404 77.0802 127.09 77.7658 127.936 77.7658Z" fill="#E6E6E6"/>
<path d="M9.24417 45.8184C10.0899 45.8184 10.7754 45.1328 10.7754 44.2871C10.7754 43.4414 10.0899 42.7559 9.24417 42.7559C8.39847 42.7559 7.71289 43.4414 7.71289 44.2871C7.71289 45.1328 8.39847 45.8184 9.24417 45.8184Z" fill="#E6E6E6"/>
<path d="M43.7559 13.8262C44.6016 13.8262 45.2872 13.1406 45.2872 12.2949C45.2872 11.4492 44.6016 10.7637 43.7559 10.7637C42.9102 10.7637 42.2246 11.4492 42.2246 12.2949C42.2246 13.1406 42.9102 13.8262 43.7559 13.8262Z" fill="#E6E6E6"/>
<path d="M108.782 6.19475C109.628 6.19475 110.314 5.50918 110.314 4.66348C110.314 3.81778 109.628 3.1322 108.782 3.1322C107.937 3.1322 107.251 3.81778 107.251 4.66348C107.251 5.50918 107.937 6.19475 108.782 6.19475Z" fill="#E6E6E6"/>
<path d="M153.977 59.2558C154.822 59.2558 155.508 58.5702 155.508 57.7245C155.508 56.8788 154.822 56.1932 153.977 56.1932C153.131 56.1932 152.445 56.8788 152.445 57.7245C152.445 58.5702 153.131 59.2558 153.977 59.2558Z" fill="#E6E6E6"/>
<defs>
<linearGradient id="paint0_linear_1943_5824" x1="64.5551" y1="46.8363" x2="37.8427" y2="9.28285" gradientUnits="userSpaceOnUse">
<stop stop-color="#03B8DF"/>
<stop offset="1" stop-color="#1853A4"/>
</linearGradient>
</defs>
</svg>
