<svg width="162" height="115" viewBox="0 0 162 115" fill="none" xmlns="http://www.w3.org/2000/svg">
<path d="M130.803 73.1743C130.946 73.1876 131.09 73.1565 131.216 73.0852C131.341 73.0138 131.441 72.9058 131.503 72.7756C131.564 72.6454 131.584 72.4994 131.56 72.3574C131.536 72.2153 131.469 72.0841 131.368 71.9815C131.354 71.9104 131.343 71.8593 131.329 71.7881C131.336 71.7731 131.343 71.7581 131.35 71.7431C131.511 71.4078 131.767 71.1275 132.087 70.9373C132.406 70.7471 132.775 70.6557 133.146 70.6743C133.518 70.693 133.875 70.821 134.174 71.0422C134.473 71.2635 134.7 71.5681 134.826 71.9179C135.331 73.3138 135.991 74.7193 136.102 76.1756C136.151 76.8193 136.087 77.4666 135.915 78.0886C137.386 75.2376 138.227 72.1035 138.38 68.899C138.418 68.0948 138.411 67.2891 138.359 66.4858C138.315 65.8271 138.243 65.1718 138.142 64.5199C137.589 60.9822 136.205 57.6261 134.104 54.7271C133.051 54.0875 132.22 53.1405 131.722 52.0139C131.541 51.6088 131.42 51.1797 131.363 50.74C131.484 50.7617 131.607 50.7774 131.729 50.7911C131.766 50.7948 131.806 50.7987 131.844 50.8025L131.858 50.8038C131.992 50.816 132.126 50.7894 132.245 50.7271C132.364 50.6647 132.462 50.5694 132.528 50.4525C132.594 50.3356 132.625 50.2022 132.617 50.0682C132.609 49.9343 132.562 49.8055 132.482 49.6975C132.433 49.6303 132.383 49.5632 132.333 49.496C132.258 49.3924 132.181 49.2907 132.106 49.1872C132.097 49.1772 132.089 49.1668 132.081 49.156C131.994 49.0378 131.908 48.9217 131.821 48.8036C132.001 48.551 132.237 48.3435 132.51 48.1971C133.456 47.7006 134.709 48.1333 135.335 48.9972C135.964 49.8612 136.035 51.0356 135.755 52.0655C135.486 52.9404 135.07 53.7632 134.525 54.4985C134.572 54.5647 134.621 54.6291 134.668 54.6953C135.526 55.9117 136.263 57.2092 136.868 58.5692C136.775 57.0728 137.039 55.5757 137.637 54.201C138.239 52.9219 139.303 51.8706 140.248 50.7847C141.383 49.4802 143.554 50.1736 143.663 51.8992C143.664 51.9159 143.665 51.9326 143.666 51.9493C143.53 52.0179 143.396 52.0913 143.265 52.1693C143.101 52.2685 142.97 52.415 142.89 52.5896C142.811 52.7643 142.785 52.959 142.818 53.1482C142.851 53.3373 142.94 53.5122 143.074 53.6499C143.208 53.7875 143.38 53.8816 143.568 53.9196L143.588 53.9235C143.518 54.399 143.413 54.8686 143.272 55.3281C142.867 56.6104 142.201 57.7951 141.316 58.808C140.432 59.8209 139.348 60.6402 138.132 61.2144C138.052 61.2507 137.974 61.2871 137.894 61.3215C138.476 63.2517 138.804 65.2494 138.871 67.2643C138.906 68.4528 138.846 69.6423 138.689 70.8211L138.697 70.7794C139.014 69.4753 139.772 68.3206 140.841 67.5102C142.429 66.3249 144.612 65.9629 146.309 65.0297C146.489 64.9253 146.696 64.8747 146.904 64.8839C147.113 64.8931 147.314 64.9617 147.485 65.0816C147.656 65.2016 147.789 65.3678 147.868 65.5607C147.947 65.7537 147.97 65.9653 147.933 66.1706C147.93 66.1852 147.927 66.1998 147.924 66.2144C147.673 66.3031 147.428 66.4074 147.191 66.5266C147.055 66.5952 146.921 66.6685 146.79 66.7466C146.626 66.8457 146.495 66.9922 146.416 67.1668C146.336 67.3415 146.311 67.5362 146.343 67.7254C146.376 67.9146 146.465 68.0895 146.599 68.2271C146.733 68.3648 146.905 68.4588 147.094 68.4969L147.113 68.5008C147.127 68.5034 147.139 68.506 147.153 68.5086C146.686 69.4926 146.053 70.3888 145.282 71.158C144.33 72.0883 143.199 72.8144 141.956 73.2919C140.714 73.7693 139.388 73.988 138.058 73.9346L138.056 73.9345C137.622 75.4857 137.028 76.9877 136.284 78.4161L130.711 78.1567C130.694 78.0938 130.679 78.0291 130.664 77.9663C131.178 78.0227 131.697 78.016 132.21 77.9462C131.82 77.4196 131.43 76.889 131.041 76.3624C131.032 76.3525 131.024 76.3421 131.016 76.3312C130.818 76.0618 130.619 75.7942 130.421 75.5248L130.421 75.5245C130.447 74.728 130.575 73.9381 130.803 73.1744L130.803 73.1743Z" fill="#E7ECF2"/>
<path d="M18.5134 24.9831C18.3711 25.0052 18.2254 24.983 18.0961 24.9196C17.9667 24.8561 17.86 24.7545 17.7904 24.6284C17.7208 24.5022 17.6916 24.3578 17.7068 24.2145C17.7221 24.0713 17.781 23.9362 17.8756 23.8275C17.8856 23.7556 17.8927 23.7039 17.9027 23.632C17.8948 23.6175 17.8868 23.6029 17.8787 23.5884C17.6976 23.2637 17.4245 22.9997 17.0938 22.8297C16.7631 22.6596 16.3896 22.5911 16.02 22.6327C15.6505 22.6742 15.3015 22.8241 15.0169 23.0634C14.7322 23.3027 14.5247 23.6207 14.4202 23.9776C14.0026 25.4021 13.4306 26.8457 13.41 28.306C13.4011 28.9515 13.5043 29.5936 13.7149 30.2039C12.0705 27.4491 11.0375 24.373 10.6862 21.1841C10.5989 20.3838 10.5563 19.5792 10.5588 18.7741C10.5615 18.1141 10.5931 17.4556 10.6537 16.7986C10.9868 13.2336 12.1607 9.79835 14.0792 6.77509C15.0903 6.07164 15.8616 5.07513 16.2889 3.91985C16.4441 3.5044 16.5383 3.06868 16.5686 2.62624C16.4491 2.65533 16.3269 2.67867 16.2065 2.69981C16.169 2.70589 16.1294 2.71221 16.0919 2.71831L16.0777 2.7205C15.9451 2.74098 15.8094 2.72269 15.6869 2.66782C15.5644 2.61296 15.4604 2.52387 15.3874 2.41128C15.3144 2.29869 15.2755 2.16739 15.2754 2.03319C15.2753 1.899 15.3139 1.76763 15.3867 1.65491C15.4321 1.58477 15.4775 1.51467 15.5229 1.4446C15.5916 1.33655 15.6625 1.23027 15.7312 1.12224C15.7393 1.1118 15.7469 1.1009 15.7538 1.08959C15.8329 0.966331 15.9122 0.845068 15.9914 0.721805C15.7963 0.480885 15.5482 0.288288 15.2664 0.159027C14.2916 -0.278031 13.0677 0.231226 12.4959 1.1322C11.9221 2.03337 11.9233 3.20995 12.2666 4.22058C12.5892 5.0772 13.0553 5.87267 13.6448 6.5729C13.602 6.64193 13.557 6.70917 13.5143 6.7782C12.7328 8.04522 12.0775 9.38577 11.5575 10.7806C11.5578 9.28131 11.2021 7.80334 10.5197 6.4683C9.84046 5.22881 8.71303 4.24531 7.70286 3.21977C6.48947 1.98794 4.36592 2.81412 4.36383 4.54318C4.36381 4.55992 4.36383 4.57665 4.36389 4.59337C4.50391 4.65345 4.64163 4.7184 4.77706 4.78821C4.94732 4.877 5.08678 5.01514 5.17719 5.18454C5.26759 5.35393 5.30471 5.54669 5.28369 5.73755C5.26267 5.92841 5.1845 6.10847 5.05939 6.25413C4.93429 6.3998 4.76811 6.50428 4.58261 6.55389L4.56362 6.55897C4.66233 7.02929 4.79664 7.49143 4.96541 7.9414C5.4491 9.19618 6.18681 10.3375 7.13226 11.2938C8.07772 12.2501 9.21054 13.0008 10.4597 13.4988C10.5416 13.5301 10.6215 13.5617 10.7031 13.591C10.2418 15.5535 10.0376 17.5677 10.0956 19.5828C10.1337 20.7713 10.2678 21.9547 10.4966 23.1216L10.4861 23.0805C10.0892 21.7985 9.26201 20.6927 8.14423 19.95C6.48605 18.8651 4.28542 18.6386 2.53394 17.8121C2.34723 17.719 2.1378 17.6813 1.93034 17.7034C1.72289 17.7254 1.52608 17.8063 1.3631 17.9366C1.20013 18.0668 1.0778 18.2409 1.01055 18.4384C0.943293 18.6359 0.933914 18.8485 0.983519 19.0511C0.987311 19.0655 0.991142 19.0799 0.99501 19.0943C1.25065 19.1674 1.50149 19.2563 1.74607 19.3606C1.88609 19.4207 2.02381 19.4856 2.15924 19.5554C2.32949 19.6442 2.46896 19.7823 2.55936 19.9517C2.64977 20.1211 2.68689 20.3139 2.66587 20.5047C2.64485 20.6956 2.56667 20.8757 2.44157 21.0213C2.31647 21.167 2.15028 21.2715 1.96479 21.3211L1.94578 21.3262C1.93208 21.3297 1.92037 21.333 1.90669 21.3365C2.43359 22.2897 3.12063 23.1451 3.93773 23.8652C4.94495 24.7349 6.11921 25.3897 7.3885 25.7895C8.65778 26.1893 9.99535 26.3256 11.3192 26.1901L11.3212 26.1899C11.85 27.7114 12.5356 29.1738 13.3668 30.5535L18.9131 29.9502C18.9263 29.8864 18.9372 29.8209 18.9484 29.7573C18.4386 29.8454 17.9198 29.8708 17.4038 29.8328C17.7604 29.2831 18.1165 28.7294 18.4731 28.1797C18.4812 28.1693 18.4888 28.1584 18.4957 28.1471C18.6763 27.866 18.8592 27.5866 19.0398 27.3055L19.0398 27.3052C18.9648 26.5118 18.7879 25.7314 18.5136 24.9832L18.5134 24.9831Z" fill="#E7ECF2"/>
<path d="M95.1412 22.9276C95.4157 23.0031 95.6703 23.1379 95.8871 23.3225C96.1039 23.5071 96.2776 23.7369 96.3959 23.9959C96.5143 24.2549 96.5744 24.5366 96.5721 24.8213C96.5697 25.1061 96.505 25.3868 96.3824 25.6438L99.3587 28.9528L97.789 31.2519L93.6515 26.52C93.2334 26.2854 92.9159 25.9057 92.7591 25.4527C92.6023 24.9997 92.6171 24.5049 92.8007 24.0621C92.9843 23.6193 93.324 23.2592 93.7554 23.0501C94.1867 22.841 94.6798 22.7974 95.1412 22.9276Z" fill="#A0616A"/>
<path d="M123.003 31.0529C122.735 30.6162 122.383 30.2368 121.968 29.9364C121.553 29.6359 121.082 29.4204 120.583 29.3022C120.085 29.1841 119.568 29.1655 119.062 29.2476C118.556 29.3298 118.071 29.5109 117.635 29.7808L107.847 35.8432L97.2881 26.8679L94.6611 29.3138L106.325 44.4476L121.486 36.5444C121.132 36.7288 123.431 31.7488 123.003 31.0529Z" fill="#9EECFE"/>
<path d="M103.613 51.2105C103.614 56.0448 102.663 60.8319 100.813 65.2984C98.9636 69.7649 96.2522 73.8233 92.8338 77.2416C89.4154 80.66 85.3571 83.3714 80.8906 85.2209C76.4241 87.0705 71.637 88.022 66.8027 88.021C46.4731 88.021 29.9922 71.5401 29.9922 51.2105C29.9887 47.2561 30.6226 43.327 31.8695 39.5743C34.3177 32.2454 39.0077 25.8715 45.2766 21.3539C51.5454 16.8363 59.0757 14.4037 66.8027 14.4C73.4667 14.3977 80.0063 16.2051 85.7234 19.6293C91.4404 23.0534 96.1203 27.9658 99.2634 33.8421C100.043 35.2919 100.723 36.793 101.298 38.335C101.378 38.5497 101.456 38.7645 101.531 38.9812V38.9833C101.869 39.9362 102.166 40.907 102.423 41.8954C103.216 44.9369 103.616 48.0674 103.613 51.2105Z" fill="url(#paint0_linear_1943_6920)"/>
<path d="M62.7761 26.3749C61.1219 25.4804 59.2852 24.9754 57.4061 24.8985C55.5271 24.8216 53.6553 25.1749 51.9335 25.9313C50.4174 26.5911 48.8212 27.7746 48.3154 29.9119C50.3608 28.7048 53.0086 30.612 53.5349 33.6717L53.412 33.7055C53.134 35.8247 53.7546 38.132 54.9561 39.4461C55.1138 38.0811 56.0113 37.1522 56.8941 36.5719C57.7768 35.9916 58.7534 35.57 59.4271 34.5726C60.2259 33.3901 60.4287 31.6619 60.7461 30.0853C61.0634 28.5087 61.6654 26.8142 62.7761 26.3749Z" fill="#F9FBFF"/>
<path d="M51.3255 44.409C50.759 45.2597 50.0024 45.7934 49.3234 46.4581C48.6466 47.1248 48.0023 48.0245 47.8674 49.18C47.7815 49.9203 47.9144 50.6729 47.896 51.4214C47.8776 52.1698 47.6281 53.0124 47.1189 53.1985C46.3152 53.4889 45.7017 51.996 44.8755 51.8917C44.219 51.8099 43.628 52.8426 43.8182 53.7384C44.0084 54.6341 44.9021 55.0308 45.4154 54.4459C45.8796 55.2251 45.5524 56.6382 44.8551 56.8775C44.7814 57.3683 44.7078 57.8571 44.6362 58.3478C42.8734 57.1147 41.0922 55.8611 39.5932 54.0553C37.9261 52.064 36.892 49.62 36.6238 47.0368C36.4296 44.9611 36.7179 42.5868 35.7649 40.9897C35.0021 39.7115 33.6933 39.4293 32.5153 39.5091C32.3006 39.5234 32.0839 39.5479 31.8691 39.5745C32.5638 37.4881 33.4461 35.4689 34.5052 33.5417C34.7448 33.4388 34.9675 33.3002 35.1657 33.1306C36.2619 32.2002 36.7486 30.3167 37.6382 29.014C37.6954 28.9301 37.7547 28.8483 37.8161 28.7686C38.7261 27.5804 39.945 26.969 41.1229 26.4004C43.7303 25.1346 46.4134 23.8523 49.166 24.0282L48.3827 24.1039C47.4686 26.6643 46.5538 29.2246 45.6383 31.785C45.4992 32.1776 45.3588 32.571 45.217 32.965C44.6976 34.421 44.1618 35.9712 44.2416 37.6011C44.2886 38.5663 44.624 39.597 45.262 39.9283C45.8571 40.2351 46.5074 39.8588 47.0821 39.4866C47.3254 39.3311 47.5668 39.1757 47.8101 39.0182C48.6833 38.4559 49.6506 37.8792 50.573 38.2555C51.4175 38.599 52.0413 39.7463 52.1599 40.9835C52.2686 42.1862 51.9752 43.391 51.3255 44.409Z" fill="#F9FBFF"/>
<path d="M56.5187 61.8891C53.9684 60.3188 51.418 58.7485 48.8677 57.1783L48.9109 57.0668C47.3253 57.6707 46.6669 60.4894 46.929 62.7944C47.191 65.0995 48.0796 67.1601 48.5285 69.406C49.1338 72.4796 48.9053 75.6592 47.8669 78.6146C51.2204 74.8517 54.1883 70.7621 56.726 66.4071C57.0805 65.8582 57.3506 65.2592 57.5273 64.6302C57.6893 63.961 57.6644 63.1564 57.34 62.6197C57.1312 62.3117 56.8489 62.0606 56.5187 61.8891Z" fill="#F9FBFF"/>
<path d="M46.4535 33.321C46.1827 33.9299 46.0785 34.7418 46.3243 35.3718C46.5753 36.0153 47.1058 36.306 47.5943 36.5481L49.0035 37.2466C49.4723 37.479 49.9777 37.7137 50.4556 37.5225C51.032 37.2919 51.4317 36.3882 51.3283 35.5493C51.2182 34.6566 50.6555 34.0425 50.1351 33.5195C49.4067 32.7877 48.6784 32.0559 47.9501 31.3241L47.5397 31.8268C47.0957 32.2599 46.7284 32.7651 46.4535 33.321Z" fill="#F9FBFF"/>
<path d="M96.0592 42.8646C96.6932 43.0139 97.3272 43.1631 97.9611 43.3124C97.8507 45.4536 96.7893 47.4352 95.366 48.153C94.7729 48.4516 94.1124 48.562 93.6216 49.1203C93.1778 49.6275 92.9528 50.4168 92.7463 51.1715C92.3843 52.4885 92.0223 53.8055 91.6604 55.1224C91.2718 56.5417 90.7729 58.1184 89.7626 58.6297C88.8955 59.0694 87.9037 58.5315 87.237 57.6297C86.5703 56.7278 86.1634 55.5151 85.7687 54.3331C85.7932 55.6214 85.194 56.8853 84.3453 57.3331C83.4946 57.781 82.4598 57.3761 81.8913 56.3761C81.4823 55.6583 81.3126 54.7114 80.9117 53.9834C80.5109 53.2554 79.6704 52.8382 79.2328 53.5212C78.9444 53.9752 78.9812 54.6705 78.8381 55.2472C78.6152 56.1429 77.9403 56.7053 77.2716 56.7544C76.6049 56.8035 75.9546 56.419 75.3963 55.8975C74.2449 54.8177 73.3963 53.104 73.067 51.2001C72.9218 50.3514 72.8809 49.4271 73.1325 48.6315C73.384 47.836 73.9914 47.2225 74.5946 47.3739C74.9914 46.5354 74.2081 45.4229 73.5026 45.5211C72.795 45.6192 72.2408 46.3779 71.66 46.9608C71.0813 47.5436 70.2715 47.9669 69.6886 47.3882C69.6927 47.926 69.2551 48.2818 68.8767 48.2368C68.5004 48.1939 68.1651 47.8913 67.8195 47.6765C66.4841 46.8442 64.7887 47.3963 63.8398 48.971C64.4329 46.4475 65.302 43.5517 67.1241 42.9586C67.8686 42.7153 68.6804 42.9157 69.3839 42.4944C70.6293 41.748 70.8809 38.9279 69.8052 37.7643C69.9422 38.8645 69.9156 40.1487 69.3348 40.9013C68.7541 41.6539 67.5352 41.1631 67.6088 40.0506C67.4411 40.8175 66.6068 40.9341 66.2223 40.3451C65.8358 39.7561 65.8685 38.7929 66.1425 38.0894C66.4166 37.3859 66.8828 36.8808 67.3348 36.3961C68.3062 35.3552 69.2919 34.302 70.4167 33.6476C71.5435 32.9932 72.8441 32.7723 73.9729 33.4227C74.5681 33.7662 75.0916 34.3388 75.6989 34.6415C76.3063 34.9462 77.0773 34.9074 77.4802 34.1957C77.9321 33.4022 77.7194 32.2243 77.8871 31.2324C78.1878 29.4799 79.9403 28.6598 80.9117 29.8173C80.1858 29.6312 79.4352 30.4901 79.3452 31.531C79.2532 32.5719 79.7788 33.6231 80.4823 33.938C81.6643 34.4615 82.8218 33.1445 83.7155 31.9257C84.648 30.6496 85.5819 29.3742 86.5171 28.0995C86.6665 27.8824 86.8341 27.6785 87.0182 27.49C87.3111 27.2045 87.7016 27.041 88.1105 27.0327C88.5195 27.0243 88.9163 27.1717 89.2207 27.4451C90.1655 28.216 90.6093 29.7968 91.3843 30.8848C92.5091 32.4656 94.1922 32.8501 95.7586 33.1568C96.9263 33.3838 98.0947 33.6122 99.2638 33.8419C100.043 35.2917 100.723 36.7928 101.299 38.3348C99.319 39.1753 97.4928 40.748 96.0592 42.8646Z" fill="#F9FBFF"/>
<path d="M99.8337 67.4706C98.9575 69.2496 97.9385 70.9547 96.7866 72.5689C96.0504 72.2539 95.259 72.8163 94.5698 73.3439C93.85 73.8961 92.9849 74.4339 92.2466 73.9308C91.492 73.4155 91.2487 71.9738 91.488 70.8306C91.7272 69.6895 92.3243 68.7815 92.9031 67.9185C93.5166 67.0023 94.173 66.0514 95.0258 65.6955C95.8807 65.3397 96.9788 65.8428 97.2283 67.0575L97.8337 67.037C97.4942 66.5708 97.6721 65.6055 98.1282 65.4358C98.6537 65.2374 99.1098 65.9593 99.4206 66.5974C99.5597 66.8857 99.7008 67.1761 99.8337 67.4706Z" fill="#F9FBFF"/>
<path d="M76.6501 58.8327C75.349 58.9145 74.3184 57.3128 73.6335 55.737C72.9487 54.1613 72.3238 52.3593 71.1498 51.5573C70.479 51.0989 69.7142 51.0361 68.9866 50.814C68.2589 50.5919 67.4974 50.1324 67.1495 49.1966L66.3242 48.8632C65.2342 49.4761 64.1298 50.1001 63.1906 51.0975C62.1371 52.2165 61.481 53.6509 61.3233 55.1797C61.1657 56.8317 61.7479 58.6738 62.8357 59.2944C63.6953 59.7848 64.6961 59.4757 65.5668 59.9246C66.6546 60.4855 67.3005 62.1148 67.545 63.7235C67.7894 65.3322 67.7275 67.0041 67.9024 68.631C68.0773 70.258 68.5594 71.9509 69.557 72.7847C70.8054 73.828 72.6373 72.9611 73.1974 71.0618C73.4722 70.1302 73.4627 69.079 73.6682 68.1119C74.0301 66.4089 75.0066 65.1453 75.7811 63.7483C76.5556 62.3513 77.1652 60.4539 76.6501 58.8327Z" fill="#F9FBFF"/>
<path d="M63.7929 42.0982C63.9142 42.2099 64.0274 42.3301 64.1317 42.4579C64.2396 42.6439 64.2947 42.8559 64.291 43.0709C64.2874 43.286 64.2251 43.4959 64.1109 43.6782C64.2676 43.6692 64.4208 43.6279 64.5607 43.5568C64.7007 43.4857 64.8243 43.3863 64.9239 43.265C65.1614 42.9945 65.3703 42.7002 65.5473 42.3869C65.68 42.1705 65.8212 41.8779 65.7311 41.6209C65.6696 41.4455 65.5243 41.3706 65.4224 41.2387C65.2609 41.0296 65.2208 40.6975 65.1372 40.4105C64.9567 39.7906 64.5242 39.3348 64.0547 39.2697L64.1199 39.2821C63.9238 39.3493 63.7869 39.6607 63.8302 39.941C63.8697 40.1962 64.0337 40.408 64.0174 40.6683C63.994 41.0426 63.6199 41.2182 63.5968 41.5925C63.5932 41.7803 63.6636 41.9619 63.7929 42.0982Z" fill="#F9FBFF"/>
<path d="M61.5645 35.7379C61.5664 35.7374 61.5683 35.7373 61.5703 35.7368C61.6104 35.7002 61.6476 35.6606 61.6815 35.6183L61.5645 35.7379Z" fill="#E6E6E6"/>
<path d="M61.9541 37.4944C62.2418 37.3094 62.4025 36.7978 62.3073 36.3696C62.2128 35.944 61.8783 35.6579 61.5697 35.7365C61.4802 35.8273 61.3691 35.8938 61.2468 35.9298C61.1245 35.9658 60.9951 35.9701 60.8707 35.9423C60.6799 35.8932 60.4705 35.7667 60.305 35.9104C60.2104 36.0178 60.1441 36.1471 60.1123 36.2867C60.0511 36.4747 59.9898 36.6626 59.9286 36.8506C59.8995 36.9179 59.8919 36.9926 59.9069 37.0643C59.9186 37.0931 59.9376 37.1183 59.9619 37.1377C59.9862 37.157 60.0151 37.1698 60.0457 37.1747C60.4132 37.283 60.7806 37.3914 61.1481 37.4997C61.4158 37.5786 61.7049 37.6547 61.9541 37.4944Z" fill="#F9FBFF"/>
<path d="M89.6931 61.7482C89.5232 61.4702 89.3534 61.1921 89.1835 60.914C89.0167 60.5919 88.7886 60.3056 88.5121 60.0709C88.4513 60.02 88.3809 59.9817 88.3051 59.9584C88.2293 59.935 88.1496 59.9271 88.0707 59.935C87.9918 59.9429 87.9152 59.9665 87.8456 60.0044C87.7759 60.0423 87.7145 60.0938 87.665 60.1557L87.6857 60.3146C88.0729 60.8003 88.4825 61.3399 88.5807 62.0608C88.6194 62.345 88.6059 62.6391 88.6399 62.9245C88.6738 63.2099 88.7704 63.5059 88.9546 63.629C89.222 63.8077 89.5361 63.5442 89.7264 63.2228C89.8966 62.9587 89.9729 62.6451 89.9431 62.3324C89.9007 62.1226 89.8156 61.9238 89.6931 61.7482Z" fill="#F9FBFF"/>
<path d="M97.2529 51.1281C97.302 50.806 97.3511 50.4839 97.4003 50.1618C97.48 49.808 97.4899 49.442 97.4295 49.0844C97.4158 49.0062 97.3866 48.9317 97.3436 48.865C97.3006 48.7983 97.2448 48.7409 97.1793 48.6961C97.1139 48.6514 97.0401 48.6201 96.9624 48.6043C96.8847 48.5884 96.8046 48.5883 96.7268 48.6038L96.6404 48.7387C96.6238 49.3596 96.5897 50.0362 96.2006 50.6509C96.0472 50.8933 95.8475 51.1096 95.6896 51.3499C95.5318 51.5901 95.4151 51.8787 95.4767 52.0915C95.5663 52.4004 95.9762 52.4011 96.3288 52.2777C96.6291 52.1853 96.8894 51.9945 97.068 51.7361C97.1706 51.5483 97.2336 51.3413 97.2529 51.1281Z" fill="#E6E6E6"/>
<path d="M92.358 62.11C92.4411 61.8713 92.3212 61.5975 92.2959 61.3336C92.2837 60.9928 92.374 60.6563 92.5552 60.3674C92.7352 60.0949 92.8715 59.7959 92.9593 59.4814C92.9963 59.3381 92.9896 59.187 92.94 59.0475C92.8837 58.9212 92.7475 58.8636 92.6694 58.9636L92.8366 59.0713C92.6109 59.031 92.379 59.0422 92.1582 59.1041C92.0323 59.1523 91.9198 59.2302 91.8303 59.3311C91.7408 59.4319 91.677 59.5529 91.6441 59.6837C91.6165 59.8876 91.5714 60.0888 91.5093 60.285C91.4096 60.4899 91.2166 60.5581 91.0953 60.738C91.0125 60.8975 90.9708 61.075 90.9738 61.2547C90.9768 61.4343 91.0244 61.6104 91.1123 61.767C91.2646 62.0232 91.5068 62.2136 91.7917 62.3013C91.9958 62.3745 92.2646 62.3784 92.358 62.11Z" fill="#F9FBFF"/>
<path d="M97.1027 63.5417C97.1765 63.7337 97.2754 63.9152 97.3967 64.0813C97.6239 64.3101 97.9326 64.1695 98.2082 64.1139C98.4583 64.0744 98.7144 64.1033 98.9494 64.1976C99.1844 64.2918 99.3894 64.4479 99.5429 64.6492C99.436 64.1162 99.2028 63.6167 98.8628 63.1925C98.5228 62.7683 98.086 62.4319 97.589 62.2116C96.9394 61.9467 96.2552 61.9211 95.5796 61.8973L95.4629 61.9272C95.7602 62.7928 96.694 62.7735 97.1027 63.5417Z" fill="#F9FBFF"/>
<path d="M77.0059 65.3126L77.0076 65.3164C77.0189 65.2945 77.0303 65.2727 77.0416 65.2509L77.0059 65.3126Z" fill="#E6E6E6"/>
<path d="M76.2858 66.7058C76.1288 66.9908 75.9938 67.2874 75.8819 67.5929C75.7339 68.0878 75.6358 68.5964 75.5893 69.1109C75.5527 69.4034 75.5414 69.777 75.7247 69.9196C75.7773 69.9545 75.8409 69.9691 75.9034 69.9606C75.966 69.9521 76.0234 69.9211 76.0648 69.8734C76.1666 69.7656 76.2499 69.6418 76.3113 69.5069C76.6716 68.8865 76.9513 68.2227 77.1436 67.5316C77.3191 66.8036 77.3174 65.9466 77.0073 65.3163C76.7668 65.7795 76.5263 66.2427 76.2858 66.7058Z" fill="#F9FBFF"/>
<path d="M69.3423 29.5852C69.4567 29.697 69.6012 29.7729 69.7581 29.8035C69.9151 29.8341 70.0776 29.8182 70.2255 29.7576C70.532 29.6236 70.8131 29.4379 71.0565 29.2087C71.2582 29.0595 71.4292 28.8729 71.5603 28.6591C71.6325 28.5314 71.6788 28.3906 71.6965 28.2449C71.7142 28.0992 71.7029 27.9514 71.6634 27.8101C71.5496 27.4772 71.2608 27.3657 71.006 27.2901C70.5982 27.1692 70.1903 27.0482 69.7825 26.9273L70.0775 26.6614C69.774 26.4985 69.4382 26.8008 69.2484 27.1751C69.1268 27.4195 69.0419 27.6806 68.9968 27.9499C68.8952 28.5374 68.9945 29.237 69.3423 29.5852Z" fill="#E6E6E6"/>
<path d="M76.5433 27.168C76.6583 27.2947 76.8171 27.373 76.9877 27.3868C77.1582 27.4007 77.3276 27.3492 77.4616 27.2427C77.5769 27.1561 77.6726 27.0462 77.7426 26.9202C77.8125 26.7942 77.8552 26.6548 77.8677 26.5112C77.8966 26.1904 77.738 25.8338 77.5114 25.8061L77.5633 25.5057C77.1269 25.4269 76.5898 25.4111 76.3559 25.9411C76.2771 26.1441 76.2529 26.3643 76.2857 26.5796C76.3186 26.7949 76.4074 26.9978 76.5433 27.168Z" fill="#E6E6E6"/>
<path d="M75.5808 11.195C73.0223 10.9064 70.454 11.646 68.4408 13.251C66.4276 14.8561 65.1345 17.1951 64.8459 19.7536C64.2449 25.0813 67.0517 36.6507 72.1691 41.44C74.5787 32.2642 83.0222 26.8216 84.1394 21.9299C85.3332 16.703 80.9086 11.796 75.5808 11.195Z" fill="#68E1FD"/>
<path d="M73.8116 23.0393C75.5602 23.0393 76.9777 21.6218 76.9777 19.8732C76.9777 18.1247 75.5602 16.7072 73.8116 16.7072C72.063 16.7072 70.6455 18.1247 70.6455 19.8732C70.6455 21.6218 72.063 23.0393 73.8116 23.0393Z" fill="#F9FBFF"/>
<path d="M70.4829 46.0052C71.6282 46.0052 72.5566 45.0768 72.5566 43.9315C72.5566 42.7862 71.6282 41.8578 70.4829 41.8578C69.3376 41.8578 68.4092 42.7862 68.4092 43.9315C68.4092 45.0768 69.3376 46.0052 70.4829 46.0052Z" fill="#68E1FD"/>
<path opacity="0.2" d="M76.4303 17.6049C76.7867 17.8191 77.0974 18.1013 77.3447 18.4355C77.592 18.7697 77.7711 19.1494 77.8716 19.5528C77.9722 19.9562 77.9923 20.3755 77.9309 20.7867C77.8694 21.1979 77.7275 21.593 77.5134 21.9494C77.2993 22.3057 77.017 22.6165 76.6828 22.8638C76.3486 23.1111 75.9689 23.2901 75.5655 23.3907C74.7507 23.5938 73.8887 23.4649 73.1689 23.0324C73.9028 23.1957 74.6708 23.0925 75.3354 22.7412C76.0001 22.3899 76.5181 21.8136 76.7966 21.1153C77.0752 20.4171 77.0962 19.6425 76.8558 18.9302C76.6154 18.2179 76.1294 17.6144 75.4847 17.2277C75.8182 17.3016 76.1375 17.429 76.4303 17.6049Z" fill="#24285B"/>
<path opacity="0.2" d="M84.1513 21.9403C83.0341 26.832 74.5906 32.2746 72.1811 41.4503C71.6998 40.9956 71.2528 40.5059 70.8438 39.9852C73.5514 31.3602 81.4693 26.1194 82.5488 21.3931C83.5149 17.1631 80.801 13.1429 76.9069 11.4447C81.6208 12.6297 85.2453 17.1503 84.1513 21.9403Z" fill="#24285B"/>
<path d="M45.9109 23.5488C43.9896 23.332 42.0608 23.8874 40.549 25.0928C39.0372 26.2981 38.0661 28.0547 37.8493 29.976C37.398 33.9769 39.5059 42.6651 43.3489 46.2617C45.1583 39.371 51.4991 35.2838 52.3381 31.6103C53.2346 27.6851 49.9119 24.0001 45.9109 23.5488Z" fill="#68E1FD"/>
<path d="M44.5827 32.4436C45.8958 32.4436 46.9603 31.3791 46.9603 30.066C46.9603 28.7529 45.8958 27.6884 44.5827 27.6884C43.2696 27.6884 42.2051 28.7529 42.2051 30.066C42.2051 31.3791 43.2696 32.4436 44.5827 32.4436Z" fill="#F9FBFF"/>
<path d="M42.0827 49.6896C42.9427 49.6896 43.64 48.9924 43.64 48.1324C43.64 47.2723 42.9427 46.5751 42.0827 46.5751C41.2226 46.5751 40.5254 47.2723 40.5254 48.1324C40.5254 48.9924 41.2226 49.6896 42.0827 49.6896Z" fill="#68E1FD"/>
<path opacity="0.2" d="M46.5498 28.3623C46.8174 28.5231 47.0507 28.7351 47.2364 28.986C47.4221 29.237 47.5566 29.5221 47.6321 29.8251C47.7077 30.1281 47.7228 30.4429 47.6766 30.7517C47.6305 31.0605 47.5239 31.3572 47.3631 31.6248C47.2023 31.8924 46.9904 32.1258 46.7394 32.3115C46.4884 32.4972 46.2033 32.6317 45.9003 32.7072C45.5974 32.7827 45.2825 32.7978 44.9737 32.7517C44.6649 32.7055 44.3682 32.599 44.1006 32.4382C44.6517 32.5608 45.2284 32.4832 45.7275 32.2194C46.2267 31.9557 46.6156 31.5229 46.8248 30.9985C47.034 30.4741 47.0498 29.8924 46.8693 29.3575C46.6887 28.8226 46.3237 28.3694 45.8396 28.079C46.0901 28.1345 46.3299 28.2302 46.5498 28.3623Z" fill="#24285B"/>
<path opacity="0.2" d="M52.348 31.618C51.509 35.2915 45.1682 39.3787 43.3588 46.2694C42.9973 45.9279 42.6617 45.5602 42.3545 45.1692C44.3878 38.6921 50.3339 34.7564 51.1446 31.2071C51.8701 28.0305 49.8321 25.0115 46.9077 23.7362C50.4477 24.6261 53.1696 28.0209 52.348 31.618Z" fill="#24285B"/>
<path d="M120.349 109.679H117.739L116.497 99.6097L120.35 99.6099L120.349 109.679Z" fill="#A0616A"/>
<path d="M121.754 114.636H119.902L119.571 112.887L118.724 114.636H113.811C113.576 114.636 113.347 114.561 113.157 114.421C112.967 114.281 112.827 114.085 112.757 113.86C112.687 113.635 112.691 113.394 112.767 113.171C112.844 112.949 112.99 112.756 113.184 112.623L117.107 109.913V108.145L121.234 108.391L121.754 114.636Z" fill="#FFD200"/>
<path d="M110.238 109.679H107.628L106.386 99.6097L110.239 99.6099L110.238 109.679Z" fill="#A0616A"/>
<path d="M111.643 114.636H109.791L109.46 112.887L108.613 114.636H103.7C103.465 114.636 103.235 114.561 103.046 114.421C102.856 114.281 102.716 114.085 102.646 113.86C102.576 113.635 102.579 113.394 102.656 113.171C102.733 112.949 102.879 112.756 103.073 112.623L106.996 109.913V108.145L111.123 108.391L111.643 114.636Z" fill="#FFD200"/>
<path d="M100.32 83.094C100.819 83.8433 106.254 104.443 106.254 104.443L111.073 104.993L110.501 99.8095L109.627 90.6374L108.273 84.5152C108.273 84.5152 113.054 73.6346 113.356 72.7678L113.571 72.1459L115.064 85.7017C115.242 86.1857 115.319 86.7006 115.292 87.2154C115.247 88.0622 116.096 100.801 116.096 100.801L116.504 105.37L120.633 105.943L122.308 98.0385C123.707 95.4707 122.905 86.3461 122.333 85.4968C121.761 84.6476 121.988 78.7327 121.988 78.7327C122.719 78.4756 127.075 63.6229 124.896 63.7106C125.036 62.9188 125.146 62.2119 125.146 62.2119L121.364 59.162L111.9 56.7017L109.512 55.5552C109.512 55.5552 105.247 63.4409 105.29 63.833C105.349 64.3297 105.235 64.8315 104.968 65.2543L100.662 79.6644C100.662 79.6644 99.8151 82.3371 100.32 83.094Z" fill="#2F2E41"/>
<path d="M124.097 31.5291L122.591 28.3324L117.467 28.5293L115.795 31.8551C115.795 31.8551 111.018 37.5607 110.864 39.4159C110.669 41.7493 112.285 53.1852 110.669 52.4439C110.669 52.4439 106.859 56.9162 109.114 56.9162C111.368 56.9162 121.567 63.3182 122.236 64.0381C122.905 64.7581 125.892 65.2249 125.642 63.7219C125.391 62.2188 124.097 54.0901 124.097 54.0901L127.601 41.3085C128.609 38.549 128.923 35.4536 126.643 33.5999L124.097 31.5291Z" fill="#68E1FD"/>
<path d="M105.117 22.1201C104.432 21.848 103.7 21.7136 102.962 21.7245C102.225 21.7354 101.497 21.8915 100.82 22.1838C100.143 22.4761 99.5298 22.8989 99.0161 23.428C98.5024 23.9571 98.098 24.5823 97.8259 25.2677C96.6816 28.1504 96.492 35.0345 98.6214 38.4847C101.359 33.7286 106.899 31.9724 108.265 29.4115C109.725 26.6751 108 23.2643 105.117 22.1201Z" fill="#68E1FD"/>
<path d="M102.812 28.5273C103.823 28.5273 104.643 27.7074 104.643 26.6959C104.643 25.6844 103.823 24.8644 102.812 24.8644C101.8 24.8644 100.98 25.6844 100.98 26.6959C100.98 27.7074 101.8 28.5273 102.812 28.5273Z" fill="#F9FBFF"/>
<path d="M97.3011 40.8192C97.9637 40.8192 98.5007 40.2821 98.5007 39.6196C98.5007 38.9571 97.9637 38.42 97.3011 38.42C96.6386 38.42 96.1016 38.9571 96.1016 39.6196C96.1016 40.2821 96.6386 40.8192 97.3011 40.8192Z" fill="#68E1FD"/>
<path opacity="0.2" d="M104.618 25.827C104.954 26.1778 105.136 26.6475 105.126 27.1328C105.115 27.6181 104.912 28.0793 104.562 28.4152C104.211 28.7511 103.742 28.9341 103.257 28.924C102.771 28.914 102.31 28.7116 101.974 28.3615C102.358 28.5641 102.803 28.623 103.227 28.5278C103.651 28.4327 104.028 28.1896 104.29 27.8421C104.551 27.4947 104.68 27.0655 104.654 26.6314C104.628 26.1973 104.449 25.7866 104.147 25.4729C104.322 25.5648 104.481 25.6844 104.618 25.827Z" fill="#24285B"/>
<path opacity="0.2" d="M108.269 29.4193C106.903 31.9802 101.364 33.7364 98.6256 38.4924C98.426 38.1655 98.2508 37.8243 98.1016 37.4716C100.922 33.0682 106.138 31.3449 107.458 28.8706C108.639 26.656 107.735 24.0001 105.819 22.4609C108.27 23.838 109.607 26.9116 108.269 29.4193Z" fill="#24285B"/>
<path d="M96.7608 39.2064C97.0397 39.1489 97.3277 39.1532 97.6047 39.2191C97.8817 39.285 98.1409 39.4109 98.364 39.5878C98.5871 39.7647 98.7687 39.9883 98.896 40.243C99.0234 40.4977 99.0933 40.7772 99.1009 41.0618L103.256 42.6567L102.903 45.4181L97.0665 43.0833C96.5875 43.0644 96.1321 42.8705 95.7865 42.5382C95.441 42.206 95.2293 41.7585 95.1916 41.2806C95.1539 40.8027 95.2929 40.3276 95.5821 39.9453C95.8713 39.563 96.2907 39.3001 96.7608 39.2064Z" fill="#A0616A"/>
<path d="M125.792 33.5159C125.354 33.2488 124.868 33.0707 124.362 32.9918C123.855 32.9129 123.338 32.9348 122.84 33.0562C122.342 33.1776 121.873 33.3961 121.46 33.6992C121.047 34.0023 120.697 34.384 120.432 34.8224L114.468 44.671L100.983 41.4747L99.7549 44.8473L117.023 53.0269L125.769 39.0972C127.078 37.2571 127.719 34.6927 125.792 33.5159Z" fill="#9EECFE"/>
<path d="M126.015 21.4463C126.015 22.3956 125.783 23.3304 125.337 24.1687C124.892 25.007 124.248 25.7232 123.461 26.2544C122.675 26.7856 121.77 27.1156 120.826 27.2153C119.882 27.3151 118.928 27.1817 118.047 26.8266C117.167 26.4716 116.387 25.906 115.776 25.1793C115.166 24.4526 114.743 23.5871 114.545 22.6587C114.347 21.7304 114.379 20.7676 114.64 19.855C114.901 18.9423 115.382 18.1076 116.041 17.4241L116.069 17.3963C116.115 17.3476 116.161 17.2989 116.21 17.2525C116.21 17.2525 116.211 17.2524 116.211 17.2523C116.211 17.2522 116.211 17.252 116.212 17.2518C116.212 17.2516 116.212 17.2513 116.212 17.2511C116.212 17.2508 116.212 17.2505 116.212 17.2502C116.273 17.1945 116.333 17.1388 116.396 17.0855C117.234 16.3508 118.265 15.8733 119.368 15.7099C120.47 15.5466 121.596 15.7045 122.611 16.1646C123.626 16.6247 124.487 17.3676 125.091 18.3044C125.694 19.2411 126.015 20.3319 126.015 21.4463Z" fill="#2F2E41"/>
<path d="M118.787 27.6507C121.472 27.6507 123.649 25.4736 123.649 22.788C123.649 20.1024 121.472 17.9253 118.787 17.9253C116.101 17.9253 113.924 20.1024 113.924 22.788C113.924 25.4736 116.101 27.6507 118.787 27.6507Z" fill="#9E616A"/>
<path d="M123.952 24.1747L123.146 24.0323C122.696 23.9505 122.281 23.7332 121.958 23.4094C121.635 23.0857 121.418 22.6709 121.337 22.2206L120.551 23.5381L120.516 23.5495C118.643 24.1714 116.694 23.9854 114.56 22.9817C113.949 22.6922 113.357 22.3657 112.787 22.0041L112.744 21.9778L112.741 21.9283C112.632 20.3465 112.987 19.0249 113.741 18.2072C114.03 17.8995 114.381 17.6564 114.771 17.4939C115.161 17.3314 115.581 17.2531 116.003 17.2642C116.033 17.2563 116.061 17.2411 116.083 17.2198C116.094 17.2119 116.105 17.204 116.116 17.1965V17.1883L116.171 17.162C116.292 17.1056 116.414 17.0516 116.536 17.0022C117.498 16.6297 118.546 16.5363 119.559 16.7326C120.572 16.929 121.509 17.4071 122.262 18.1121C123.76 19.5421 124.447 21.9418 123.972 24.0838L123.952 24.1747Z" fill="#2F2E41"/>
<path d="M134.207 28.3177C132.552 27.4635 134.681 24.3637 134.253 22.5513C133.825 20.7389 130.746 20.1559 130.55 18.3041C130.353 16.4523 129.892 14.5423 128.67 13.1371C127.889 12.2392 126.739 11.5764 125.554 11.6888C125.153 11.7269 124.765 11.8509 124.417 12.0524C124.068 12.2538 123.767 12.5281 123.534 12.8564C123.301 13.1847 123.141 13.5594 123.066 13.9549C122.991 14.3505 123.002 14.7576 123.098 15.1485C122.761 14.6706 121.888 14.7741 121.672 15.3177C121.48 15.801 121.904 16.3864 122.404 16.4291C123.057 17.2361 123.805 18.0925 124.829 18.2553C124.992 18.2927 125.162 18.2926 125.325 18.255C125.488 18.2173 125.64 18.1431 125.77 18.038C126.011 17.8067 126.03 17.3443 125.744 17.1715C127.031 17.6825 127.785 19.0735 127.976 20.4445C128.167 21.8156 127.903 23.2028 127.729 24.5761C127.555 25.9494 127.48 27.3941 128.018 28.6693C128.654 30.1761 130.119 31.256 131.718 31.6023C133.316 31.9486 135.018 31.6102 136.465 30.8476C137.912 30.0849 139.119 28.9207 140.104 27.6155C138.407 28.8211 136.058 29.2728 134.207 28.3177Z" fill="#2F2E41"/>
<path d="M123.744 24.0394C123.744 24.0394 122.304 18.6626 116.129 17.4216C116.122 17.4193 116.099 17.41 116.069 17.3961C116.05 17.3845 116.027 17.3729 116.004 17.3613C116.073 17.3218 116.141 17.2871 116.21 17.2523L116.211 17.2521L116.212 17.2516L116.213 17.2508L116.213 17.2499C116.273 17.1943 116.333 17.1386 116.396 17.0852L116.572 17.0922C116.572 17.0922 122.768 16.111 123.744 24.0394Z" fill="#FFD200"/>
<path opacity="0.2" d="M120.518 41.2925L117.031 45.3329L111.269 43.6313L117.551 46.5262L120.518 41.2925Z" fill="#2F2E41"/>
<path d="M141.451 114.94L87.8324 115C87.7711 115 87.7124 114.975 87.6691 114.932C87.6259 114.889 87.6016 114.83 87.6016 114.768C87.6016 114.707 87.6259 114.648 87.6691 114.605C87.7124 114.562 87.7711 114.537 87.8324 114.537L141.451 114.477C141.513 114.477 141.572 114.502 141.615 114.545C141.658 114.588 141.683 114.647 141.683 114.709C141.683 114.77 141.658 114.829 141.615 114.872C141.572 114.916 141.513 114.94 141.451 114.94Z" fill="#CACACA"/>
<path d="M143.805 78.9596C141.295 78.9596 138.543 78.8648 135.55 78.675C120.069 77.6919 100.017 74.2741 79.0869 69.0514C58.157 63.8286 38.8498 57.4246 24.7222 51.0194C17.8402 47.8991 12.5583 44.9455 9.02338 42.2406C5.28084 39.3769 3.6438 36.8808 4.15754 34.8218C5.15856 30.8106 14.0221 29.933 21.2814 29.9032L21.2838 30.4865C11.3149 30.5275 5.43371 32.1173 4.72361 34.9631C3.81907 38.5876 11.1961 44.2462 24.9631 50.4881C39.0597 56.8792 58.3313 63.2709 79.2282 68.4855C100.125 73.6999 120.14 77.1118 135.587 78.0928C150.672 79.051 159.843 77.5216 160.747 73.897C161.498 70.8876 156.548 66.4544 146.807 61.4138L147.076 60.8958C154.153 64.5584 162.368 69.8115 161.313 74.0383C160.8 76.0972 158.182 77.5315 153.533 78.3011C150.882 78.7397 147.627 78.9596 143.805 78.9596Z" fill="#68E1FD"/>
<defs>
<linearGradient id="paint0_linear_1943_6920" x1="103.613" y1="88.021" x2="29.9922" y2="14.4" gradientUnits="userSpaceOnUse">
<stop stop-color="#03B8DF"/>
<stop offset="1" stop-color="#1853A4"/>
</linearGradient>
</defs>
</svg>
