<svg width="160" height="105" viewBox="0 0 160 105" fill="none" xmlns="http://www.w3.org/2000/svg">
<path opacity="0.3" d="M33.7293 8.12392C16.6879 13.6671 1.69083 28.2675 0.861901 48.3856C0.399122 59.5737 2.83506 88.2761 38.291 95.7314C95.2026 107.703 146.388 103.655 157.133 74.8403C166.704 49.179 151.539 15.0453 123.117 8.00187C103.085 3.04353 67.0189 -2.70815 33.7293 8.12392Z" fill="#E6E6E6"/>
<path d="M127.994 0.287476H28.2217V89.1409H127.994V0.287476Z" fill="#E7ECF2"/>
<path d="M36.1195 10.5091C37.4367 10.5091 38.5045 9.44123 38.5045 8.12398C38.5045 6.80673 37.4367 5.73889 36.1195 5.73889C34.8022 5.73889 33.7344 6.80673 33.7344 8.12398C33.7344 9.44123 34.8022 10.5091 36.1195 10.5091Z" fill="#FFD200"/>
<path d="M42.8372 10.5091C44.1545 10.5091 45.2223 9.44123 45.2223 8.12398C45.2223 6.80673 44.1545 5.73889 42.8372 5.73889C41.52 5.73889 40.4521 6.80673 40.4521 8.12398C40.4521 9.44123 41.52 10.5091 42.8372 10.5091Z" fill="#68E1FD"/>
<path d="M49.2757 10.5091C50.593 10.5091 51.6608 9.44123 51.6608 8.12398C51.6608 6.80673 50.593 5.73889 49.2757 5.73889C47.9585 5.73889 46.8906 6.80673 46.8906 8.12398C46.8906 9.44123 47.9585 10.5091 49.2757 10.5091Z" fill="#2F2E41"/>
<path d="M96.7989 5.36755H59.8428V10.8802H96.7989V5.36755Z" fill="white"/>
<path opacity="0.09" d="M77.4079 24.6161C77.4079 24.6161 87.9298 34.787 82.5493 44.3121C82.3764 44.6173 82.1984 44.9071 82.0103 45.197C79.4675 49.1027 75.4958 51.8386 71.3308 53.7406C69.6915 54.4872 68.0025 55.1194 66.2758 55.6324C64.9027 56.0443 63.1584 56.1918 62.2074 57.3818C61.8605 57.8512 61.5766 58.3642 61.3632 58.9075C60.7016 60.2872 60.2639 61.7635 60.0665 63.281C59.9444 64.71 60.3614 66.1136 60.4326 67.5477C60.6462 71.9263 59.0239 76.254 56.5575 79.8851C55.0297 82.0812 53.2701 84.1067 51.3093 85.9266C50.343 86.842 49.3514 87.7675 48.3088 88.6016C47.5511 89.2016 47.1544 89.1457 46.2289 89.1101C43.5793 89.1101 40.9298 89.1101 38.2803 89.1101L47.5867 64.6388L55.6167 48.8738C55.6167 48.8738 69.978 48.3195 74.4634 42.4865C78.9488 36.6534 77.4079 24.6161 77.4079 24.6161Z" fill="#2F2E41"/>
<path d="M141.282 17.4712H95.5381V80.2972H141.282V17.4712Z" fill="#2F2E41"/>
<path d="M33.042 71.7791C33.042 71.7791 40.2583 52.7543 50.775 54.3766C61.2918 55.9989 62.1207 87.7882 36.0272 87.2033L33.042 71.7791Z" fill="#F4A28C"/>
<path opacity="0.1" d="M57.483 69.5211C56.8168 75.0541 54.0859 80.7753 48.5936 84.1622C46.0084 85.7174 43.1155 86.6909 40.1161 87.0152C38.7543 87.1755 37.3828 87.2384 36.0121 87.2033L33.0371 71.7791C33.0371 71.7791 40.2585 52.7543 50.7753 54.3766C53.8265 54.8495 56.0794 57.8856 57.0762 61.9336C57.6597 64.4188 57.7975 66.9878 57.483 69.5211Z" fill="black"/>
<path opacity="0.1" d="M57.4831 69.5212C54.8692 72.5725 50.216 74.3423 49.4175 79.0565C49.1328 80.7398 48.848 82.5146 48.5937 84.142C46.0085 85.6971 43.1156 86.6707 40.1162 86.9949L41.6419 77.0783L56.5067 61.3947C56.7021 61.5631 56.8872 61.7431 57.061 61.9337C57.6497 64.418 57.7926 66.987 57.4831 69.5212Z" fill="black"/>
<path d="M59.2953 49.191L53.2627 47.2356L49.2248 59.6926L55.2574 61.648L59.2953 49.191Z" fill="#68E1FD"/>
<path d="M67.0537 15.3761C63.5001 14.2243 59.6847 14.1522 56.0901 15.1688C52.4954 16.1855 49.283 18.2452 46.859 21.0876C44.435 23.93 42.9084 27.4274 42.4721 31.1374C42.0357 34.8475 42.7094 38.6036 44.4079 41.9308C46.1063 45.258 48.7532 48.0068 52.0139 49.8296C55.2747 51.6525 59.0027 52.4674 62.7266 52.1715C66.4504 51.8755 70.0029 50.482 72.9348 48.167C75.8667 45.852 78.0462 42.7196 79.1978 39.166C80.742 34.4008 80.3301 29.2174 78.0526 24.756C75.7752 20.2946 71.8188 16.9205 67.0537 15.3761ZM56.8472 46.8552C54.1738 45.9902 51.8169 44.352 50.0744 42.1477C48.3319 39.9434 47.2822 37.272 47.0578 34.4711C46.8334 31.6702 47.4444 28.8657 48.8137 26.4121C50.183 23.9585 52.249 21.966 54.7506 20.6864C57.2522 19.4068 60.077 18.8977 62.8679 19.2233C65.6588 19.5489 68.2905 20.6947 70.4303 22.5159C72.57 24.337 74.1219 26.7516 74.8895 29.4546C75.6571 32.1575 75.6061 35.0274 74.7429 37.7013C73.5816 41.2863 71.0438 44.2631 67.6877 45.9769C64.3316 47.6907 60.4321 48.0012 56.8472 46.8399V46.8552Z" fill="#2F2E41"/>
<path d="M56.1346 57.9721L50.6584 56.1969C49.3973 55.7882 48.0436 56.4791 47.6348 57.7402L42.2389 74.3866C41.8302 75.6477 42.5211 77.0014 43.7822 77.4101L49.2584 79.1852C50.5195 79.594 51.8732 78.9031 52.2819 77.642L57.6778 60.9956C58.0866 59.7345 57.3957 58.3808 56.1346 57.9721Z" fill="#2F2E41"/>
<path d="M42.4111 65.7474C42.4111 65.7474 51.8142 58.6938 55.2062 59.9703C58.0032 61.0281 57.1183 66.7899 50.0749 70.6091C48.6456 71.3746 47.3973 72.4382 46.4146 73.7279C45.4319 75.0176 44.7378 76.5034 44.3792 78.0847C43.7893 80.7394 42.4111 83.7906 39.2937 85.7791C32.7894 89.9644 29.2245 84.8942 30.8366 78.1509C32.4487 71.4075 33.1505 69.4191 42.4111 65.7474Z" fill="#F4A28C"/>
<path d="M38.1695 104.713L42.6447 85.1742L27.8663 78.0851L15.2188 104.713H38.1695Z" fill="#68E1FD"/>
<path opacity="0.1" d="M38.1689 104.713L42.6441 85.1742L35.5906 81.7872L29.0049 104.713H38.1689Z" fill="black"/>
<path opacity="0.43" d="M121.433 31.4666H111.537V34.3042H121.433V31.4666Z" fill="#C1C1C1"/>
<path opacity="0.36" d="M104.941 37.269C107.025 37.269 108.715 35.5796 108.715 33.4956C108.715 31.4116 107.025 29.7222 104.941 29.7222C102.857 29.7222 101.168 31.4116 101.168 33.4956C101.168 35.5796 102.857 37.269 104.941 37.269Z" fill="#C1C1C1"/>
<path d="M124.546 66.1443H103.894V72.1757H124.546V66.1443Z" fill="#68E1FD"/>
<path d="M124.215 41.8256H103.894V44.3327H124.215V41.8256Z" fill="#C1C1C1"/>
<path opacity="0.44" d="M135.652 48.3857H103.894V50.8929H135.652V48.3857Z" fill="#C1C1C1"/>
<path opacity="0.44" d="M135.652 53.8783H103.894V56.3854H135.652V53.8783Z" fill="#C1C1C1"/>
<path opacity="0.44" d="M128.823 59.584H103.894V62.0911H128.823V59.584Z" fill="#C1C1C1"/>
<path d="M99.9726 24.189C100.919 24.189 101.686 23.4217 101.686 22.4752C101.686 21.5287 100.919 20.7614 99.9726 20.7614C99.0261 20.7614 98.2588 21.5287 98.2588 22.4752C98.2588 23.4217 99.0261 24.189 99.9726 24.189Z" fill="#FFD200"/>
<path d="M104.804 24.189C105.75 24.189 106.517 23.4217 106.517 22.4752C106.517 21.5287 105.75 20.7614 104.804 20.7614C103.857 20.7614 103.09 21.5287 103.09 22.4752C103.09 23.4217 103.857 24.189 104.804 24.189Z" fill="#68E1FD"/>
<path d="M109.432 24.189C110.378 24.189 111.145 23.4217 111.145 22.4752C111.145 21.5287 110.378 20.7614 109.432 20.7614C108.485 20.7614 107.718 21.5287 107.718 22.4752C107.718 23.4217 108.485 24.189 109.432 24.189Z" fill="white"/>
<path d="M61.3852 45.248C59.0255 45.252 56.7177 44.5559 54.7538 43.2477C52.7898 41.9396 51.2582 40.0782 50.3526 37.8991C49.447 35.7201 49.2082 33.3214 49.6665 31.0066C50.1248 28.6918 51.2594 26.565 52.9269 24.8954C54.5944 23.2257 56.7198 22.0883 59.034 21.6271C61.3482 21.1659 63.7472 21.4016 65.9274 22.3044C68.1076 23.2072 69.9709 24.7365 71.2816 26.6987C72.5923 28.6609 73.2913 30.9679 73.2903 33.3276C73.2863 36.4852 72.0312 39.5125 69.7999 41.7467C67.5686 43.9809 64.5428 45.2399 61.3852 45.248ZM61.3852 24.6162C59.6623 24.6162 57.978 25.1271 56.5454 26.0843C55.1128 27.0415 53.9963 28.4021 53.3369 29.9939C52.6776 31.5857 52.5051 33.3373 52.8412 35.0271C53.1773 36.717 54.007 38.2692 55.2253 39.4875C56.4437 40.7058 57.9959 41.5355 59.6857 41.8716C61.3756 42.2078 63.1272 42.0353 64.719 41.3759C66.3108 40.7166 67.6713 39.6 68.6285 38.1674C69.5857 36.7348 70.0967 35.0506 70.0967 33.3276C70.0953 31.0176 69.1771 28.8026 67.5437 27.1692C65.9102 25.5358 63.6952 24.6175 61.3852 24.6162Z" fill="#BCC5D2"/>
<path d="M61.3845 45.2481C58.4701 45.2496 55.6564 44.182 53.4766 42.2476L55.6074 39.8473C57.1993 41.2613 59.2552 42.0413 61.3845 42.0391V45.2481Z" fill="#2F2E41"/>
<path d="M73.2895 33.3277H70.0806C70.0779 31.0181 69.1592 28.8039 67.5261 27.1707C65.8929 25.5376 63.6787 24.6189 61.3691 24.6162V21.4022C64.5303 21.4063 67.5607 22.6641 69.7954 24.8999C72.0302 27.1356 73.2868 30.1665 73.2895 33.3277Z" fill="url(#paint0_linear_1943_5777)"/>
<path d="M61.3848 45.2482V42.0393C63.6939 42.0353 65.9074 41.1162 67.5402 39.4833C69.1731 37.8505 70.0922 35.6371 70.0962 33.3279H73.2899C73.2858 36.4855 72.0308 39.5128 69.7994 41.747C67.5681 43.9812 64.5424 45.2402 61.3848 45.2482Z" fill="#FFD200"/>
<path opacity="0.08" d="M69.5718 70.8638H64.6592V78.8327H69.5718V70.8638Z" fill="#2F2E41"/>
<path opacity="0.08" d="M77.8549 62.3046H72.9424V78.8374H77.8549V62.3046Z" fill="#2F2E41"/>
<path opacity="0.08" d="M86.5932 56.5482H81.6807V78.8379H86.5932V56.5482Z" fill="#2F2E41"/>
<path d="M116.007 3.32857C116.969 3.31437 117.924 3.48709 118.82 3.83712C119.582 4.12748 120.286 4.55109 120.9 5.08814C121.144 5.29665 121.367 5.52041 121.591 5.74417C121.718 5.88618 121.787 6.07089 121.784 6.26147C121.781 6.45205 121.707 6.63451 121.575 6.77245C121.443 6.9104 121.265 6.99371 121.075 7.00577C120.884 7.01784 120.697 6.95777 120.549 6.83755C120.32 6.63413 120.116 6.41037 119.888 6.21203C118.909 5.38238 117.679 4.9066 116.396 4.86139C115.114 4.81618 113.854 5.20419 112.819 5.96285C112.456 6.23296 112.116 6.5323 111.802 6.85789C111.667 7.02537 111.475 7.13754 111.263 7.17319C111.117 7.19393 110.969 7.17177 110.836 7.10942C110.704 7.04708 110.592 6.94728 110.515 6.82229C110.427 6.6924 110.385 6.53696 110.395 6.38045C110.405 6.22394 110.467 6.07524 110.571 5.95776C111.003 5.46415 111.491 5.02217 112.025 4.64062C112.669 4.18687 113.384 3.84317 114.141 3.62352C114.746 3.43817 115.374 3.33887 116.007 3.32857Z" fill="#68E1FD"/>
<path d="M116.379 6.07471C116.98 6.10356 117.57 6.25225 118.113 6.51206C118.72 6.8099 119.257 7.23277 119.69 7.75291C119.817 7.89983 119.887 8.08757 119.887 8.2818C119.887 8.47603 119.817 8.66377 119.69 8.81069C119.575 8.95191 119.415 9.04857 119.236 9.08387C119.058 9.11917 118.873 9.09089 118.713 9.00394C118.516 8.8766 118.335 8.72637 118.174 8.55642C117.847 8.22144 117.437 7.97873 116.986 7.85283C116.535 7.72692 116.059 7.72228 115.606 7.83937C115.066 7.98181 114.58 8.27876 114.207 8.69373C114.056 8.86124 113.886 9.00981 113.699 9.13617C113.54 9.22543 113.356 9.25795 113.177 9.22836C112.998 9.19877 112.834 9.10884 112.712 8.97343C112.587 8.83693 112.512 8.66204 112.499 8.47732C112.486 8.29259 112.536 8.10894 112.641 7.95633C112.811 7.75088 112.994 7.55719 113.19 7.37659C113.44 7.13161 113.717 6.91501 114.014 6.73073C114.506 6.43367 115.052 6.23987 115.621 6.16116C115.87 6.10014 116.125 6.09505 116.379 6.07471Z" fill="#68E1FD"/>
<path d="M117.462 10.5346C117.467 10.796 117.394 11.0531 117.253 11.2732C117.112 11.4934 116.909 11.6668 116.669 11.7714C116.429 11.8761 116.164 11.9074 115.907 11.8613C115.649 11.8152 115.411 11.6938 115.223 11.5125C115.034 11.3312 114.904 11.0981 114.848 10.8427C114.792 10.5872 114.813 10.3209 114.908 10.0775C115.004 9.83399 115.169 9.62427 115.384 9.47481C115.598 9.32535 115.852 9.24287 116.114 9.23779C116.288 9.23306 116.461 9.26299 116.623 9.32585C116.786 9.38871 116.934 9.48324 117.059 9.60393C117.185 9.72462 117.285 9.86906 117.354 10.0288C117.423 10.1886 117.46 10.3605 117.462 10.5346Z" fill="#68E1FD"/>
<g opacity="0.08">
<path d="M61.7254 6.146L62.234 8.10899C62.3459 8.54126 62.4527 8.94301 62.5239 9.33967C62.6154 8.94809 62.7425 8.53617 62.8697 8.11916L63.5003 6.146H64.136L64.736 8.07848C64.8784 8.54126 64.9903 8.94809 65.0768 9.33967C65.1505 8.91724 65.2489 8.49951 65.3717 8.08865L65.921 6.146H66.6177L65.3717 10.011H64.731L64.136 8.16493C64.0037 7.73775 63.8919 7.35126 63.7952 6.89865C63.7008 7.33 63.5836 7.75607 63.4443 8.1751L62.8188 10.011H62.1831L61.0186 6.146H61.7254Z" fill="black"/>
<path d="M67.695 6.146L68.2035 8.10899C68.3154 8.54126 68.4171 8.94301 68.4883 9.33967H68.5138C68.6002 8.94809 68.7273 8.53617 68.8545 8.11916L69.4851 6.146H70.075L70.6751 8.07848C70.8175 8.54126 70.9294 8.94809 71.0209 9.33967C71.097 8.91774 71.1955 8.50015 71.3158 8.08865L71.8702 6.146H72.5618L71.3158 10.011H70.6802L70.0903 8.16493C69.9529 7.74918 69.8375 7.3265 69.7444 6.89865C69.6523 7.33058 69.5352 7.75679 69.3935 8.1751L68.7731 10.011H68.1323L66.9678 6.146H67.695Z" fill="black"/>
<path d="M73.6707 6.146L74.1793 8.10899C74.2912 8.54126 74.398 8.94301 74.4692 9.33967C74.5607 8.94809 74.6878 8.53617 74.815 8.11916L75.4456 6.146H76.0355L76.6356 8.07848C76.778 8.54126 76.8899 8.94809 76.9763 9.33967H77.0017C77.0754 8.91724 77.1739 8.49951 77.2967 8.08865L77.8663 6.146H78.563L77.317 10.011H76.6763L76.0863 8.16493C75.9541 7.73775 75.8422 7.35126 75.7456 6.89865C75.6511 7.33 75.534 7.75607 75.3947 8.1751L74.7692 10.011H74.1335L72.9639 6.146H73.6707Z" fill="black"/>
<path d="M78.7867 9.59392C78.7798 9.52735 78.787 9.46007 78.8077 9.39644C78.8285 9.33281 78.8624 9.27425 78.9072 9.22454C78.952 9.17484 79.0068 9.1351 79.0679 9.1079C79.1291 9.0807 79.1953 9.06665 79.2622 9.06665C79.3291 9.06665 79.3953 9.0807 79.4565 9.1079C79.5176 9.1351 79.5724 9.17484 79.6172 9.22454C79.662 9.27425 79.6959 9.33281 79.7167 9.39644C79.7374 9.46007 79.7446 9.52735 79.7377 9.59392C79.7446 9.6605 79.7374 9.72778 79.7167 9.79141C79.6959 9.85504 79.662 9.9136 79.6172 9.9633C79.5724 10.013 79.5176 10.0527 79.4565 10.0799C79.3953 10.1071 79.3291 10.1212 79.2622 10.1212C79.1953 10.1212 79.1291 10.1071 79.0679 10.0799C79.0068 10.0527 78.952 10.013 78.9072 9.9633C78.8624 9.9136 78.8285 9.85504 78.8077 9.79141C78.787 9.72778 78.7798 9.6605 78.7867 9.59392Z" fill="black"/>
</g>
<defs>
<linearGradient id="paint0_linear_1943_5777" x1="73.2895" y1="33.3277" x2="61.3641" y2="21.4073" gradientUnits="userSpaceOnUse">
<stop stop-color="#03B8DF"/>
<stop offset="1" stop-color="#1853A4"/>
</linearGradient>
</defs>
</svg>
