<svg width="146" height="111" viewBox="0 0 146 111" fill="none" xmlns="http://www.w3.org/2000/svg">
<path d="M133.407 98.6039L133.626 93.6761C135.911 92.4548 138.459 91.8098 141.05 91.7969C137.484 94.7118 137.93 100.331 135.513 104.251C134.749 105.468 133.722 106.497 132.507 107.263C131.292 108.029 129.92 108.511 128.492 108.675L125.509 110.502C125.099 108.219 125.19 105.875 125.773 103.631C126.357 101.387 127.42 99.296 128.89 97.5024C129.724 96.5043 130.681 95.6153 131.738 94.8563C132.452 96.7406 133.407 98.6039 133.407 98.6039Z" fill="#E7ECF2"/>
<path d="M30.9737 54.7944C30.7765 54.6144 30.6212 54.3935 30.5187 54.1471C30.4162 53.9007 30.369 53.6348 30.3803 53.3681C30.3917 53.1015 30.4614 52.8405 30.5845 52.6037C30.7076 52.3669 30.8812 52.16 31.0929 51.9975L29.0488 45.8403L32.3047 46.715L33.7466 52.4279C33.996 52.8017 34.0996 53.254 34.0378 53.6991C33.976 54.1442 33.753 54.5511 33.4112 54.8428C33.0694 55.1345 32.6325 55.2907 32.1832 55.2817C31.734 55.2728 31.3036 55.0994 30.9737 54.7944Z" fill="#FCBCB8"/>
<path d="M36.8747 21.3411C37.4149 21.6508 40.6113 20.8834 41.2355 21.1017C40.8909 23.2042 42.7625 22.4152 40.7301 25.1763C38.6977 27.9374 34.6043 36.2159 33.6744 39.31C32.7445 42.404 33.6649 46.7644 33.5256 48.2308C33.4583 49.0804 33.4625 49.9342 33.5381 50.7831C32.4401 50.7692 31.3578 50.9971 30.2425 50.8515C29.0532 47.4862 28.2536 42.696 27.7106 40.0487C27.1676 37.4013 27.1477 38.5208 27.3968 37.1971C27.6458 35.8733 27.7061 36.8353 27.4445 35.5689C27.1829 34.3024 28.2409 32.7113 29.2185 31.804C29.64 30.5917 30.1847 29.4613 30.602 28.2616C33.6599 25.594 33.8609 24.0531 36.8747 21.3411Z" fill="#9EECFE"/>
<path d="M125.718 107.087H123.017L121.731 96.6661H125.719L125.718 107.087Z" fill="#FFB6B6"/>
<path d="M126.408 109.706L117.696 109.705V109.595C117.696 108.696 118.054 107.834 118.689 107.198C119.325 106.562 120.188 106.205 121.087 106.205L122.678 104.997L125.647 106.205L126.408 106.205L126.408 109.706Z" fill="#2F2E41"/>
<path d="M113.166 107.087H110.465L109.18 96.6661H113.167L113.166 107.087Z" fill="#FFB6B6"/>
<path d="M113.856 109.706L105.145 109.705V109.595C105.145 108.696 105.502 107.834 106.138 107.198C106.774 106.562 107.636 106.205 108.535 106.205L110.127 104.997L113.095 106.205L113.856 106.205L113.856 109.706Z" fill="#2F2E41"/>
<path d="M111.998 50.1165L129.57 50.5558C132.908 52.3685 132.959 56.2919 131.865 60.9501C131.865 60.9501 132.234 63.7188 131.496 64.4571C130.758 65.1954 130.388 65.1954 130.758 66.4874C131.127 67.7795 129.176 69.8898 129.413 70.1267C129.65 70.3636 130.204 71.6556 130.204 71.6556L128.358 82.1766C128.358 82.1766 127.066 100.45 126.697 100.819C126.328 101.188 125.958 100.819 126.328 101.742C126.697 102.665 127.066 102.296 126.697 102.665C126.37 103.017 126.062 103.387 125.774 103.772H121.311C121.311 103.772 120.975 101.927 120.975 101.742C120.975 101.557 120.606 100.45 120.606 100.265C120.606 100.081 120.932 99.7545 120.932 99.7545C121.045 99.3793 121.121 98.994 121.159 98.6041C121.159 98.235 122.267 84.0224 122.267 84.0224L120.052 65.5645L114.699 83.6533C114.699 83.6533 114.699 99.527 114.33 99.8962C113.961 100.265 113.961 100.081 114.145 100.819C114.33 101.557 115.068 101.373 114.515 101.927C113.961 102.48 113.776 101.557 113.961 102.48L114.145 103.403L108.608 103.482C108.608 103.482 107.87 101.927 108.239 101.373C108.608 100.819 108.586 100.97 108.136 100.064C107.685 99.1579 107.501 98.9733 107.685 98.7887C107.87 98.6041 107.87 97.6224 107.87 97.6224L108.793 79.9617C108.793 79.9617 108.977 61.3192 108.977 60.7655C108.991 60.4806 108.939 60.1963 108.824 59.9351V59.1835L109.531 56.5202L111.998 50.1165Z" fill="#68E1FD"/>
<path d="M122.555 13.5767C125.57 13.5767 128.015 11.1322 128.015 8.1168C128.015 5.10136 125.57 2.65686 122.555 2.65686C119.539 2.65686 117.095 5.10136 117.095 8.1168C117.095 11.1322 119.539 13.5767 122.555 13.5767Z" fill="#FFB6B6"/>
<path d="M119.824 17.1854C118.648 17.8847 117.944 19.1696 117.54 20.4771C116.792 22.8977 116.342 25.4004 116.2 27.9298L115.773 35.5026L110.489 51.6273C115.069 55.5021 132.281 52.5079 132.281 52.5079C132.281 52.5079 132.81 52.3318 132.281 51.8034C131.753 51.275 131.239 51.7431 131.767 51.2147C132.295 50.6864 131.931 51.275 131.755 50.7466C131.579 50.2182 131.755 50.5705 131.931 50.3944C132.107 50.2182 130.568 48.6331 130.568 48.6331L131.977 39.3774L133.738 20.708C131.624 18.0661 127.374 16.5087 127.374 16.5087L126.276 14.5317L120.784 14.9711L119.824 17.1854Z" fill="#2F2E41"/>
<path d="M119.076 4.91245C119.287 4.9141 119.497 4.94169 119.702 4.9946C120.105 5.09154 120.514 5.16021 120.927 5.20011C122.191 5.31902 123.379 5.85807 124.301 6.73117C125.222 7.60426 125.825 8.76103 126.012 10.0167C126.329 9.74011 127.051 9.23129 127.643 9.70418C127.652 9.71169 127.657 9.71555 127.678 9.70569C128.071 9.51928 128.768 7.22466 128.79 5.20429C128.801 4.13195 128.632 2.76263 127.765 2.32899L127.719 2.30615L127.707 2.25649C127.649 2.01527 127.002 1.60352 125.877 1.28304C123.832 0.700644 120.844 0.616448 119.128 2.28609C118.998 2.84897 118.515 3.0032 118.088 3.13974C117.616 3.29086 117.207 3.42128 117.143 4.0011C117.089 4.82623 117.093 5.65411 117.155 6.4787C117.315 5.97412 117.629 5.53249 118.054 5.21598C118.355 5.01286 118.712 4.90694 119.076 4.91245Z" fill="#2F2E41"/>
<path d="M108.913 35.0811L117.832 29.3692L113.34 23.3977L108.904 28.854L95.0833 29.7017C94.7198 29.3423 94.2596 29.0965 93.7588 28.9942C93.258 28.8919 92.7382 28.9376 92.2629 29.1255C91.7876 29.3135 91.3773 29.6357 91.0819 30.0529C90.7866 30.4701 90.619 30.9641 90.5996 31.4749C90.5802 31.9857 90.7098 32.4911 90.9726 32.9294C91.2355 33.3678 91.6202 33.7202 92.0799 33.9437C92.5396 34.1672 93.0544 34.2521 93.5615 34.1881C94.0686 34.1241 94.5461 33.9139 94.9359 33.5832L108.913 35.0811Z" fill="#FFB6B6"/>
<path d="M126.109 21.3966C126.627 24.5293 116.852 30.5114 116.852 30.5114C116.852 29.7761 111.017 35.3271 110.754 34.7173C110.005 32.9841 109.479 28.879 108.433 28.2219C107.835 27.8462 112.036 24.3162 112.036 24.3162C112.036 24.3162 114.234 22.1012 117.12 19.3073C117.921 18.5023 118.912 17.9131 120.002 17.5945C121.092 17.2758 122.245 17.2382 123.354 17.485C123.354 17.485 125.592 18.2639 126.109 21.3966Z" fill="#2F2E41"/>
<path d="M116.171 57.3651C116.175 60.7176 115.613 64.0467 114.51 67.2124C114.46 67.3596 114.407 67.5046 114.354 67.6518C112.096 73.7841 107.896 79.0106 102.394 82.5358C102.018 82.7775 101.638 83.0081 101.252 83.2321C96.8556 85.7806 91.8791 87.1586 86.7983 87.2343C86.6313 87.2365 86.4644 87.2387 86.2974 87.2387C86.0822 87.2387 85.8691 87.2365 85.656 87.2321C80.5683 87.131 75.5917 85.7257 71.2025 83.1509C70.8159 82.9246 70.4352 82.6896 70.0603 82.4458C63.9512 78.4856 59.4969 72.4327 57.5327 65.4223C55.5685 58.4119 56.2294 50.9257 59.3914 44.3679C59.4617 44.2208 59.5342 44.0758 59.6089 43.9286C62.0993 38.9864 65.9131 34.8327 70.6254 31.9305C75.3376 29.0283 80.7632 27.4916 86.2974 27.4916C91.8317 27.4916 97.2573 29.0283 101.97 31.9305C106.682 34.8327 110.496 38.9864 112.986 43.9286C113.061 44.0758 113.133 44.2208 113.203 44.3679C115.163 48.42 116.178 52.864 116.171 57.3651Z" fill="#E7ECF2"/>
<path d="M106.928 67.2123V67.6516H109.604V67.2123H106.928ZM101.577 67.2123V67.6516H104.253V67.2123H101.577ZM96.2265 67.2123V67.6516H98.9019V67.2123H96.2265ZM90.8756 67.2123V67.6516H93.551V67.2123H90.8756ZM85.5247 67.2123V67.6516H88.2001V67.2123H85.5247ZM80.1738 67.2123V67.6516H82.8492V67.2123H80.1738ZM74.8229 67.2123V67.6516H77.4984V67.2123H74.8229ZM69.4742 67.2123V67.6516H72.1475V67.2123H69.4742ZM64.1233 67.2123V67.6516H66.7988V67.2123H64.1233ZM58.7725 67.2123V67.6516H61.4479V67.2123H58.7725ZM114.511 67.2123H112.279V67.6516H114.355L114.511 67.2123Z" fill="white"/>
<path d="M112.279 64.1373V64.5766H114.955V64.1373H112.279ZM106.928 64.1373V64.5766H109.604V64.1373H106.928ZM101.577 64.1373V64.5766H104.253V64.1373H101.577ZM96.2265 64.1373V64.5766H98.9019V64.1373H96.2265ZM90.8756 64.1373V64.5766H93.551V64.1373H90.8756ZM85.5247 64.1373V64.5766H88.2001V64.1373H85.5247ZM80.1738 64.1373V64.5766H82.8492V64.1373H80.1738ZM74.8229 64.1373V64.5766H77.4984V64.1373H74.8229ZM69.4742 64.1373V64.5766H72.1475V64.1373H69.4742ZM64.1233 64.1373V64.5766H66.7988V64.1373H64.1233ZM58.7725 64.1373V64.5766H61.4479V64.1373H58.7725Z" fill="white"/>
<path d="M112.279 57.767V58.2063H114.955V57.767H112.279ZM106.928 57.767V58.2063H109.604V57.767H106.928ZM101.577 57.767V58.2063H104.253V57.767H101.577ZM96.2265 57.767V58.2063H98.9019V57.767H96.2265ZM90.8756 57.767V58.2063H93.551V57.767H90.8756ZM85.5247 57.767V58.2063H88.2001V57.767H85.5247ZM80.1738 57.767V58.2063H82.8492V57.767H80.1738ZM74.8229 57.767V58.2063H77.4984V57.767H74.8229ZM69.4742 57.767V58.2063H72.1475V57.767H69.4742ZM64.1233 57.767V58.2063H66.7988V57.767H64.1233ZM58.7725 57.767V58.2063H61.4479V57.767H58.7725Z" fill="white"/>
<path d="M112.279 53.3741V53.8135H114.955V53.3741H112.279ZM106.928 53.3741V53.8135H109.604V53.3741H106.928ZM101.577 53.3741V53.8135H104.253V53.3741H101.577ZM96.2265 53.3741V53.8135H98.9019V53.3741H96.2265ZM90.8756 53.3741V53.8135H93.551V53.3741H90.8756ZM85.5247 53.3741V53.8135H88.2001V53.3741H85.5247ZM80.1738 53.3741V53.8135H82.8492V53.3741H80.1738ZM74.8229 53.3741V53.8135H77.4984V53.3741H74.8229ZM69.4742 53.3741V53.8135H72.1475V53.3741H69.4742ZM64.1233 53.3741V53.8135H66.7988V53.3741H64.1233ZM58.7725 53.3741V53.8135H61.4479V53.3741H58.7725Z" fill="white"/>
<path d="M112.985 43.9288H112.278V44.3682H113.203C113.132 44.221 113.06 44.076 112.985 43.9288ZM106.927 43.9288V44.3682H109.602V43.9288H106.927ZM101.576 43.9288V44.3682H104.252V43.9288H101.576ZM96.2252 43.9288V44.3682H98.9006V43.9288H96.2252ZM90.8743 43.9288V44.3682H93.5498V43.9288H90.8743ZM85.5234 43.9288V44.3682H88.1989V43.9288H85.5234ZM80.1725 43.9288V44.3682H82.848V43.9288H80.1725ZM74.8216 43.9288V44.3682H77.4971V43.9288H74.8216ZM69.473 43.9288V44.3682H72.1462V43.9288H69.473ZM64.1221 43.9288V44.3682H66.7975V43.9288H64.1221ZM59.6081 43.9288C59.5334 44.076 59.4609 44.221 59.3906 44.3682H61.4466V43.9288H59.6081Z" fill="white"/>
<path d="M102.394 45.4093V82.536C102.019 82.7776 101.639 83.0083 101.252 83.2323V45.4093H102.394Z" fill="#7D8592"/>
<path d="M86.7985 57.7102V87.2345C86.6315 87.2367 86.4646 87.2389 86.2976 87.2389C86.0824 87.2389 85.8693 87.2367 85.6562 87.2323V57.7102H86.7985Z" fill="#7D8592"/>
<path d="M71.2028 45.4093V83.1511C70.8162 82.9248 70.4354 82.6898 70.0605 82.446V45.4093H71.2028Z" fill="#7D8592"/>
<path d="M15.2329 95.9412L14.7972 89.8812C11.9431 88.4544 8.78382 87.746 5.59375 87.8173C10.0817 91.2863 9.72226 98.2198 12.8304 102.965C13.8112 104.437 15.1107 105.67 16.6328 106.572C18.1548 107.474 19.8603 108.022 21.6229 108.176L25.358 110.324C25.7852 107.5 25.5952 104.617 24.801 101.874C24.0067 99.1305 22.6272 96.5919 20.7574 94.4329C19.6964 93.2321 18.4885 92.1698 17.162 91.2708C16.3456 93.6149 15.2329 95.9412 15.2329 95.9412Z" fill="#E7ECF2"/>
<path d="M101.674 48.3592C103.979 48.3592 105.848 46.4907 105.848 44.1857C105.848 41.8808 103.979 40.0122 101.674 40.0122C99.3695 40.0122 97.501 41.8808 97.501 44.1857C97.501 46.4907 99.3695 48.3592 101.674 48.3592Z" fill="url(#paint0_linear_1943_5723)"/>
<path d="M103.817 42.4462C103.754 42.3863 103.67 42.3529 103.584 42.3529C103.497 42.3529 103.413 42.3863 103.351 42.4462C102.465 43.1525 101.67 43.9649 100.982 44.8653C100.814 44.5388 100.645 44.2123 100.476 43.8858C100.281 43.5089 99.7126 43.8418 99.9072 44.2184C100.154 44.6959 100.401 45.1735 100.648 45.6511C100.677 45.6998 100.719 45.7401 100.769 45.768C100.819 45.796 100.875 45.8107 100.932 45.8107C100.989 45.8107 101.045 45.796 101.095 45.768C101.145 45.7401 101.187 45.6998 101.217 45.6511C101.949 44.6195 102.825 43.6973 103.817 42.9122C103.878 42.8501 103.912 42.7664 103.912 42.6792C103.912 42.592 103.878 42.5083 103.817 42.4462Z" fill="white"/>
<path d="M86.2975 60.6601C88.6025 60.6601 90.4711 58.7916 90.4711 56.4866C90.4711 54.1817 88.6025 52.3131 86.2975 52.3131C83.9926 52.3131 82.124 54.1817 82.124 56.4866C82.124 58.7916 83.9926 60.6601 86.2975 60.6601Z" fill="url(#paint1_linear_1943_5723)"/>
<path d="M88.4407 54.7471C88.3779 54.6872 88.2945 54.6538 88.2077 54.6538C88.1209 54.6538 88.0375 54.6872 87.9747 54.7471C87.0892 55.4534 86.2938 56.2658 85.6064 57.1662C85.4377 56.8397 85.2689 56.5132 85.1002 56.1867C84.9054 55.8098 84.3366 56.1427 84.5312 56.5193C84.778 56.9968 85.0248 57.4744 85.2716 57.952C85.3014 58.0007 85.3432 58.041 85.393 58.0689C85.4428 58.0969 85.499 58.1116 85.5561 58.1116C85.6132 58.1116 85.6694 58.0969 85.7192 58.0689C85.7691 58.041 85.8109 58.0007 85.8406 57.952C86.5731 56.9204 87.4486 55.9982 88.4407 55.2131C88.502 55.151 88.5364 55.0673 88.5364 54.9801C88.5364 54.8929 88.502 54.8092 88.4407 54.7471Z" fill="white"/>
<path d="M70.7028 49.2378C73.0078 49.2378 74.8763 47.3692 74.8763 45.0643C74.8763 42.7593 73.0078 40.8907 70.7028 40.8907C68.3978 40.8907 66.5293 42.7593 66.5293 45.0643C66.5293 47.3692 68.3978 49.2378 70.7028 49.2378Z" fill="url(#paint2_linear_1943_5723)"/>
<path d="M72.845 43.3248C72.7822 43.2649 72.6988 43.2314 72.612 43.2314C72.5252 43.2314 72.4418 43.2649 72.379 43.3248C71.4935 44.031 70.6981 44.8435 70.0107 45.7438C69.842 45.4173 69.6732 45.0908 69.5045 44.7643C69.3097 44.3874 68.7409 44.7204 68.9355 45.0969C69.1823 45.5745 69.4291 46.052 69.6759 46.5296C69.7057 46.5783 69.7475 46.6186 69.7973 46.6466C69.8471 46.6745 69.9033 46.6892 69.9604 46.6892C70.0175 46.6892 70.0737 46.6745 70.1235 46.6466C70.1734 46.6186 70.2152 46.5783 70.2449 46.5296C70.9774 45.498 71.8528 44.5758 72.845 43.7907C72.9063 43.7287 72.9407 43.645 72.9407 43.5577C72.9407 43.4705 72.9063 43.3868 72.845 43.3248Z" fill="white"/>
<path d="M130.554 42.0964L133.301 31.8679L125.959 30.478L126.354 37.4988L116.707 47.4319C116.197 47.411 115.691 47.5392 115.252 47.8008C114.813 48.0624 114.459 48.4461 114.234 48.9051C114.009 49.3642 113.923 49.8787 113.986 50.386C114.048 50.8933 114.257 51.3714 114.587 51.7621C114.916 52.1528 115.352 52.4391 115.842 52.5862C116.331 52.7333 116.853 52.7348 117.343 52.5905C117.834 52.4462 118.272 52.1623 118.603 51.7735C118.935 51.3847 119.147 50.9077 119.212 50.4008L130.554 42.0964Z" fill="#FFB6B6"/>
<path d="M134.053 20.3997C136.545 22.3671 133.346 33.3721 133.346 33.3721C132.851 32.8286 132.276 40.8612 131.67 40.5877C129.95 39.8104 126.797 37.1298 125.581 37.3483C124.886 37.4733 125.614 32.0352 125.614 32.0352C125.614 32.0352 125.748 28.9171 126 24.9087C126.05 23.7741 126.386 22.6707 126.978 21.7011C127.569 20.7315 128.396 19.9273 129.382 19.3634C129.382 19.3634 131.561 18.4322 134.053 20.3997Z" fill="#2F2E41"/>
<path d="M47.975 43.3636L50.9955 56.8432L31.6396 55.6393L36.9031 42.4009L47.975 43.3636Z" fill="#FCBCB8"/>
<path d="M44.7514 105.577L46.9256 105.577L47.96 97.1907H44.751L44.7514 105.577Z" fill="#FCBCB8"/>
<path d="M44.0154 104.504L47.4525 104.299V105.772L50.7202 108.029C50.8816 108.14 51.0032 108.3 51.0671 108.486C51.1311 108.671 51.1341 108.872 51.0757 109.059C51.0174 109.247 50.9007 109.41 50.7427 109.527C50.5847 109.643 50.3937 109.705 50.1975 109.705H46.1056L45.4002 108.249L45.1249 109.705H43.582L44.0154 104.504Z" fill="#2F2E41"/>
<path d="M24.2012 104.495L26.3262 104.956L29.1149 96.9798L25.9789 96.2996L24.2012 104.495Z" fill="#FCBCB8"/>
<path d="M23.7088 103.291L27.1112 103.819L26.799 105.259L29.514 108.157C29.6481 108.3 29.733 108.482 29.7562 108.677C29.7794 108.872 29.7397 109.069 29.6429 109.239C29.5462 109.41 29.3974 109.545 29.2184 109.625C29.0394 109.706 28.8394 109.726 28.6477 109.685L24.6488 108.817L24.2683 107.244L23.6904 108.609L22.1826 108.282L23.7088 103.291Z" fill="#2F2E41"/>
<path d="M51.4886 68.1151C49.9627 76.5013 49.5812 80.1221 49.5812 80.1221C49.5812 80.1221 50.7256 81.4562 49.9627 82.2192C49.1997 82.9822 49.9627 84.506 49.9627 84.506L48.2471 102.994L46.8661 102.77L43.5393 102.235L42.3395 102.041L43.1024 84.6978C43.1024 84.6978 42.3395 83.1718 42.721 82.7903C43.1024 82.4089 42.3395 80.1221 42.3395 80.1221L41.3868 62.0157L35.4771 81.8377C35.4771 81.8377 36.0504 82.6007 35.4771 83.1718C34.906 83.743 33.7636 86.603 33.7636 86.603L30.2493 98.8999L29.951 99.9441L28.1182 99.601L26.1234 99.2259L25.7568 99.1577L25.1047 99.0341L24.6849 98.9553L24.5421 98.9297L23.8516 98.7997L24.0604 97.8726L24.1691 97.3846L27.1421 84.1799L27.2103 83.8751L27.2828 83.5533C27.2828 83.5533 26.9013 82.6007 27.4724 82.0274C27.6395 81.8527 27.7616 81.6399 27.828 81.4075C27.8945 81.175 27.9034 80.9299 27.8539 80.6933C27.8352 80.6733 27.8181 80.652 27.8028 80.6294C27.7353 80.5367 27.6888 80.4306 27.6664 80.3182C27.6152 80.0795 27.66 79.7449 28.0457 79.3592C28.1544 79.2438 28.2455 79.1131 28.3164 78.9713C28.8961 77.8737 29.188 75.5486 29.188 75.5486C29.188 75.5486 29.7038 57.1332 31.3917 54.32C31.4812 54.173 33.273 51.3499 33.3668 51.2924C35.272 50.1501 50.1158 51.7279 50.1158 51.7279C50.1158 51.7279 51.0149 54.1431 51.0554 54.3946C51.2749 55.8076 52.7822 61.0012 51.4886 68.1151Z" fill="#2F2E41"/>
<path d="M46.9788 23.7573C46.9788 23.7573 47.3 22.09 44.2137 19.0037C42.5798 18.459 39.7487 18.7765 38.7672 19.0037C34.2285 24.9948 35.0412 23.9377 33.8597 27.2851C33.5533 28.1532 33.4002 28.9872 33.5363 29.668C34.081 32.3912 34.9652 46.3702 34.7836 47.0964C34.6021 47.8226 33.3313 48.7304 34.6021 48.7304C35.8729 48.7304 52.2616 48.4435 51.8985 47.8988C51.5354 47.3542 46.9788 23.7573 46.9788 23.7573Z" fill="#68E1FD"/>
<path d="M66.4425 45.9089C66.1936 46.0053 65.9266 46.046 65.6603 46.028C65.394 46.01 65.1349 45.9339 64.9013 45.8049C64.6676 45.676 64.465 45.4974 64.3078 45.2817C64.1506 45.066 64.0427 44.8184 63.9915 44.5565L57.5684 43.6441L59.8017 41.1187L65.5588 42.3722C66.0046 42.3154 66.4557 42.4241 66.8267 42.6777C67.1976 42.9313 67.4627 43.3122 67.5716 43.7481C67.6805 44.1841 67.6257 44.6448 67.4176 45.0431C67.2095 45.4413 66.8626 45.7494 66.4425 45.9089Z" fill="#FCBCB8"/>
<path d="M39.2686 22.6841C39.7865 22.3384 40.3747 22.176 40.8482 21.7144C42.5771 22.9593 42.7043 20.9323 44.2712 23.9817C45.838 27.0312 51.4267 34.3834 53.7827 36.5941C56.1387 38.8048 60.4526 39.9229 61.7035 40.7007C62.4342 41.1394 63.2005 41.516 63.9943 41.8263C63.4928 42.8033 63.2147 43.8738 62.5877 44.8075C59.0449 44.3734 54.3999 42.9557 51.7878 42.2627C49.1757 41.5697 50.1692 42.0862 49.0949 41.2736C48.0206 40.461 48.9087 40.8354 47.6584 40.5056C46.408 40.1758 45.4546 38.5198 45.0778 37.2404C44.1801 36.3231 43.4106 35.3319 42.5224 34.4239C41.496 30.4979 40.3543 26.5903 39.2686 22.6841Z" fill="#9EECFE"/>
<path d="M43.3234 16.6801C46.2268 16.6801 48.5805 14.3264 48.5805 11.4231C48.5805 8.51967 46.2268 6.16602 43.3234 6.16602C40.4201 6.16602 38.0664 8.51967 38.0664 11.4231C38.0664 14.3264 40.4201 16.6801 43.3234 16.6801Z" fill="#FCBCB8"/>
<path d="M46.8358 21.0328C46.5866 20.6769 44.7237 17.1485 44.1699 15.8141C44.1129 16.1031 44.077 16.3958 44.0623 16.6899L44.0568 16.7995L43.948 16.8136C43.7843 16.8345 39.9178 17.3038 37.9056 15.0222C36.7134 13.6707 36.4431 11.6435 37.1009 8.99569C36.9813 8.9722 36.8666 8.92804 36.7621 8.86519C36.5881 8.74476 36.4425 8.58783 36.3354 8.40533C36.2283 8.22283 36.1623 8.01916 36.1419 7.80852L36.0305 7.83839C32.4507 6.09643 35.5348 1.0006 38.8046 3.53414C39.0914 3.47006 39.3904 3.48724 39.6679 3.58375C39.9356 3.69267 40.1689 3.87198 40.343 4.1027C40.517 4.33341 40.6254 4.60692 40.6567 4.89424C42.3461 4.00562 44.582 4.15022 45.7384 4.81694C46.2226 5.09614 46.5006 5.44776 46.55 5.84003C47.9159 5.9163 49.3849 7.24679 49.3849 9.13183V9.2631H49.2536C48.7041 9.2748 48.1682 9.43573 47.7031 9.72868C47.238 10.0216 46.8614 10.4355 46.6136 10.9261C46.2777 11.533 46.1114 12.2191 46.1323 12.9124C46.1532 13.6057 46.3605 14.2805 46.7323 14.866C47.137 15.4871 47.4133 16.1829 47.5449 16.9123C47.6766 17.6418 47.6609 18.3903 47.4988 19.1136L47.0056 21.2751L46.8358 21.0328Z" fill="#FFD200"/>
<path d="M62.0899 109.749C62.09 109.783 62.0834 109.817 62.0703 109.849C62.0572 109.881 62.0379 109.91 62.0136 109.934C61.9893 109.958 61.9604 109.978 61.9287 109.991C61.8969 110.004 61.8629 110.011 61.8285 110.01H0.260418C0.191092 110.01 0.124604 109.983 0.0755836 109.934C0.0265627 109.885 -0.000976562 109.818 -0.000976562 109.749C-0.000976562 109.68 0.0265627 109.613 0.0755836 109.564C0.124604 109.515 0.191092 109.488 0.260418 109.488H61.8286C61.8629 109.488 61.8969 109.494 61.9287 109.507C61.9605 109.52 61.9893 109.54 62.0136 109.564C62.0379 109.588 62.0572 109.617 62.0703 109.649C62.0834 109.681 62.09 109.715 62.0899 109.749Z" fill="#CCCCCC"/>
<path d="M145.999 109.749C145.999 109.783 145.993 109.817 145.979 109.849C145.966 109.881 145.947 109.91 145.923 109.934C145.899 109.958 145.87 109.978 145.838 109.991C145.806 110.004 145.772 110.011 145.738 110.01H84.1696C84.1003 110.01 84.0338 109.983 83.9848 109.934C83.9357 109.885 83.9082 109.818 83.9082 109.749C83.9082 109.68 83.9357 109.613 83.9848 109.564C84.0338 109.515 84.1003 109.488 84.1696 109.488H145.738C145.772 109.488 145.806 109.494 145.838 109.507C145.87 109.52 145.899 109.54 145.923 109.564C145.947 109.588 145.966 109.617 145.979 109.649C145.993 109.681 145.999 109.715 145.999 109.749Z" fill="#CCCCCC"/>
<path d="M70.5724 90.9107C71.8572 90.9107 72.8987 89.8691 72.8987 88.5844C72.8987 87.2996 71.8572 86.2581 70.5724 86.2581C69.2876 86.2581 68.2461 87.2996 68.2461 88.5844C68.2461 89.8691 69.2876 90.9107 70.5724 90.9107Z" fill="#DCE1E9"/>
<path d="M86.1681 93.3271C87.4529 93.3271 88.4944 92.2855 88.4944 91.0007C88.4944 89.716 87.4529 88.6744 86.1681 88.6744C84.8833 88.6744 83.8418 89.716 83.8418 91.0007C83.8418 92.2855 84.8833 93.3271 86.1681 93.3271Z" fill="#DCE1E9"/>
<path d="M101.764 90.4715C103.049 90.4715 104.09 89.4299 104.09 88.1452C104.09 86.8604 103.049 85.8188 101.764 85.8188C100.479 85.8188 99.4375 86.8604 99.4375 88.1452C99.4375 89.4299 100.479 90.4715 101.764 90.4715Z" fill="#DCE1E9"/>
<defs>
<linearGradient id="paint0_linear_1943_5723" x1="105.848" y1="48.3592" x2="97.501" y2="40.0122" gradientUnits="userSpaceOnUse">
<stop stop-color="#03B8DF"/>
<stop offset="1" stop-color="#1853A4"/>
</linearGradient>
<linearGradient id="paint1_linear_1943_5723" x1="90.4711" y1="60.6601" x2="82.124" y2="52.3131" gradientUnits="userSpaceOnUse">
<stop stop-color="#03B8DF"/>
<stop offset="1" stop-color="#1853A4"/>
</linearGradient>
<linearGradient id="paint2_linear_1943_5723" x1="74.8763" y1="49.2378" x2="66.5293" y2="40.8907" gradientUnits="userSpaceOnUse">
<stop stop-color="#03B8DF"/>
<stop offset="1" stop-color="#1853A4"/>
</linearGradient>
</defs>
</svg>
