<svg width="67" height="60" viewBox="0 0 67 60" fill="none" xmlns="http://www.w3.org/2000/svg">
<path fill-rule="evenodd" clip-rule="evenodd" d="M35.8813 20.5142V29.6338H45.0009V20.5142H35.8813ZM58.6614 16.4454V24.7719H66.9879V16.4454H58.6614V16.4454ZM42.046 3.52122V14.3779H52.9026V3.52122H42.046ZM59.8225 44.446H45.0103V29.6338H59.8225V44.446ZM0.554688 29.6338C0.554688 13.3394 13.8848 -0.00012207 30.1886 -0.00012207V14.8121C22.0697 14.8121 15.3764 21.5055 15.3764 29.6244C15.3764 37.7433 22.0697 44.4366 30.1886 44.4366H45.0009V59.2489H30.1886C13.8942 59.2489 0.554688 45.9093 0.554688 29.6149V29.6338Z" fill="url(#paint0_linear_1911_806)"/>
<defs>
<linearGradient id="paint0_linear_1911_806" x1="65.6662" y1="61.0426" x2="9.89139" y2="5.26773" gradientUnits="userSpaceOnUse">
<stop stop-color="#03B8DF"/>
<stop offset="1" stop-color="#1853A4"/>
</linearGradient>
</defs>
</svg>
