<svg width="229" height="120" viewBox="0 0 229 120" fill="none" xmlns="http://www.w3.org/2000/svg">
<path d="M33.692 117.318C33.692 117.639 33.7015 117.96 33.7015 118.281C33.7015 118.498 33.7109 118.725 33.7109 118.951C33.7109 119.319 33.5127 119.329 32.9085 119.329H32.4175C31.8606 119.329 31.7756 119.253 31.7756 118.979C31.7756 118.441 31.7945 117.903 31.7945 117.365V114.703C31.7945 114.523 31.7378 114.401 31.5773 114.401C31.4735 114.401 31.313 114.523 31.228 114.58C30.9071 114.807 29.255 115.902 28.9812 115.902C28.7074 115.902 27.584 114.807 27.584 114.495C27.584 114.363 27.7256 114.316 27.8389 114.278C28.4714 114.042 29.5854 113.409 30.1707 113.041C31.2564 112.352 32.3703 111.446 33.2106 110.464C33.5599 110.068 34.0319 109.426 34.3057 108.972C34.334 108.916 34.3812 108.831 34.4567 108.831C34.6361 108.831 35.6368 109.558 35.9955 109.822C36.1371 109.926 36.2315 110.049 36.2315 110.124C36.2315 110.209 36.1466 110.228 36.071 110.256C35.9011 110.294 35.769 110.332 35.6368 110.455C35.3536 110.738 34.8249 111.399 33.928 112.305C33.7392 112.513 33.6543 112.654 33.6543 112.909V117.299L33.692 117.318Z" fill="#00194C"/>
<path d="M54.0554 112.305C54.0554 112.305 54.0932 112.39 54.131 112.437C54.2159 112.616 54.3292 112.871 54.3292 112.994C54.3292 113.277 53.3663 114.202 53.1114 114.438C51.1949 116.317 49.2691 117.384 46.8806 118.536C46.6446 118.658 46.654 118.677 46.5596 118.847C46.5502 118.885 46.5124 118.923 46.4652 118.923C46.3708 118.923 46.2953 118.819 46.2481 118.734C46.0498 118.432 45.8516 118.13 45.6911 117.818C45.6061 117.676 45.3418 117.233 45.3418 117.101C45.3418 116.997 45.474 116.931 45.5684 116.912C46.6257 116.629 47.6642 116.157 48.6271 115.6C50.0998 114.731 51.9313 113.239 52.932 111.861C52.9509 111.823 52.9792 111.804 53.0075 111.767C53.1114 111.606 53.2152 111.483 53.338 111.483C53.574 111.483 53.9421 112.125 54.0554 112.314V112.305ZM46.8712 109.869C47.8341 110.445 48.5799 111.011 48.967 111.37C49.0425 111.427 49.0708 111.493 49.0708 111.587C49.0708 111.937 48.2212 112.9 47.9474 112.9C47.8435 112.9 47.7208 112.796 47.6453 112.72C46.9561 112.144 46.4275 111.767 45.6439 111.323C45.5495 111.266 45.4268 111.191 45.4268 111.068C45.4268 110.832 46.1442 109.699 46.4935 109.699C46.5502 109.699 46.6918 109.775 46.8617 109.869H46.8712Z" fill="#00194C"/>
<path d="M62.6186 111.946C62.7413 111.946 63.0151 111.937 63.0151 111.672V111.162C63.0151 110.653 62.9868 110.133 62.9868 109.624C62.9868 109.539 62.9962 109.501 63.0906 109.501C63.3266 109.501 64.0724 109.548 64.384 109.557C64.7616 109.567 65.0542 109.595 65.0542 109.727C65.0542 109.765 65.007 109.831 64.9787 109.86C64.8843 109.982 64.856 110.086 64.856 110.228V111.644C64.856 111.814 64.9504 111.946 65.1298 111.946H66.6119C66.8196 111.946 66.8857 111.776 66.8857 111.597C66.8857 111.266 66.8668 109.935 66.8385 109.68C66.8385 109.633 66.8291 109.586 66.8291 109.539C66.8291 109.444 66.914 109.388 67.0084 109.388C67.1784 109.388 67.877 109.425 68.0941 109.435C68.5 109.444 68.9343 109.463 68.9343 109.586C68.9343 109.794 68.7455 109.614 68.7455 110.171V110.841C68.7455 111.059 68.7361 111.276 68.7361 111.502C68.7361 111.852 68.8116 111.955 69.1137 111.955H69.2553C69.5574 111.946 70.5203 111.918 70.6242 111.918C70.8885 111.918 70.9451 112.022 70.9451 112.588V113.117C70.9451 113.513 70.9263 113.692 70.5486 113.692C70.1144 113.692 69.6801 113.674 69.2458 113.674H69.1042C68.7549 113.674 68.6889 113.73 68.6889 114.089C68.6794 116.119 68.2924 117.469 66.5364 118.658C66.3098 118.809 65.4602 119.319 65.2147 119.319C65.0637 119.319 64.7049 118.97 64.4878 118.724C64.299 118.535 64.0063 118.243 64.0063 118.082C64.0063 117.931 64.2235 117.856 64.5633 117.724C66.4042 116.959 66.8574 115.958 66.8574 114.032C66.8574 113.844 66.8007 113.674 66.5836 113.674H65.1298C64.9693 113.674 64.856 113.806 64.856 113.947V114.58C64.856 115.071 64.8654 115.741 64.8654 115.892C64.8654 116.308 64.856 116.392 64.4217 116.392H63.5815C63.0434 116.392 62.9773 116.355 62.9773 116.09C62.9773 115.59 63.0056 115.099 63.0056 114.608V113.966C63.0056 113.796 62.864 113.664 62.6941 113.664H62.4581C61.9955 113.664 61.5235 113.702 61.2119 113.702C60.8532 113.702 60.8438 113.39 60.8438 112.947V112.503C60.8438 112.012 60.8909 111.918 61.1647 111.918C61.4196 111.918 62.0049 111.955 62.4581 111.955H62.6091L62.6186 111.946Z" fill="#00194C"/>
<path d="M83.8776 117.318C83.8776 117.639 83.887 117.96 83.887 118.281C83.887 118.498 83.8965 118.725 83.8965 118.951C83.8965 119.319 83.6982 119.329 83.094 119.329H82.6031C82.0461 119.329 81.9611 119.253 81.9611 118.979C81.9611 118.441 81.98 117.903 81.98 117.365V114.703C81.98 114.523 81.9234 114.401 81.7629 114.401C81.6591 114.401 81.4986 114.523 81.4136 114.58C81.0926 114.807 79.4405 115.902 79.1667 115.902C78.893 115.902 77.7695 114.807 77.7695 114.495C77.7695 114.363 77.9111 114.316 78.0244 114.278C78.6569 114.042 79.7709 113.409 80.3563 113.041C81.4419 112.352 82.5559 111.446 83.3961 110.464C83.7454 110.068 84.2174 109.426 84.4912 108.972C84.5195 108.916 84.5667 108.831 84.6423 108.831C84.8216 108.831 85.8223 109.558 86.1811 109.822C86.3227 109.926 86.4171 110.049 86.4171 110.124C86.4171 110.209 86.3321 110.228 86.2566 110.256C86.0867 110.294 85.9545 110.332 85.8223 110.455C85.5391 110.738 85.0104 111.399 84.1136 112.305C83.9248 112.513 83.8398 112.654 83.8398 112.909V117.299L83.8776 117.318Z" fill="#00194C"/>
<path d="M99.5965 117.592C99.5965 117.988 99.6059 118.375 99.6059 118.781C99.6059 119.357 99.5681 119.404 98.794 119.404H98.2559C97.7744 119.404 97.6328 119.348 97.6328 119.036C97.6328 118.555 97.6611 118.092 97.6611 117.62V110.728C97.6611 110.237 97.6328 109.614 97.6328 109.246C97.6328 109.095 97.6611 109.02 97.8216 109.02C97.9632 109.02 99.3699 109.171 99.6625 109.256C99.7381 109.284 99.7947 109.331 99.7947 109.397C99.7947 109.454 99.7569 109.501 99.7192 109.539C99.6625 109.624 99.587 109.718 99.587 109.973V112.286C99.587 112.343 99.5965 112.456 99.7286 112.456C99.8041 112.456 99.8702 112.409 99.9269 112.409C100.021 112.409 100.182 112.494 100.371 112.598C100.748 112.834 101.239 113.221 101.4 113.334C101.702 113.57 102.24 114.023 102.495 114.297C102.542 114.354 102.58 114.42 102.58 114.486C102.58 114.722 101.711 115.694 101.437 115.694C101.334 115.694 101.211 115.571 101.135 115.505C100.937 115.317 99.9552 114.429 99.7664 114.429C99.5964 114.429 99.587 114.599 99.587 114.712V117.582L99.5965 117.592Z" fill="#00194C"/>
<path d="M125.633 111.068C125.784 111.068 125.935 111.068 126.086 111.03C126.124 111.021 126.171 111.021 126.209 111.021C126.606 111.021 127.408 112.022 127.408 112.239C127.408 112.295 127.351 112.409 127.238 112.569C127.163 112.701 127.068 112.852 126.964 113.051C125.737 115.382 124.623 117.063 122.367 118.517C122.065 118.706 120.969 119.385 120.686 119.385C120.46 119.385 119.997 118.97 119.799 118.8C119.657 118.668 119.346 118.394 119.346 118.215C119.346 118.045 119.572 117.96 119.78 117.884C121.781 116.921 123.566 115.449 124.651 113.494C124.727 113.362 124.868 113.088 124.868 112.947C124.868 112.796 124.699 112.777 124.557 112.777H122.848C122.65 112.777 122.546 112.919 122.442 113.06C122.206 113.391 121.678 113.995 121.394 114.297C121.366 114.325 121.338 114.353 121.3 114.401C121.073 114.627 120.658 115.062 120.488 115.062C120.233 115.062 119.393 114.486 119.185 114.306C119.1 114.231 119.034 114.136 119.034 114.032C119.034 113.948 119.091 113.891 119.157 113.844C119.922 113.221 120.46 112.664 121.045 111.861C121.526 111.219 122.159 110.2 122.433 109.454C122.48 109.322 122.556 109.123 122.65 109.123C122.725 109.123 123.367 109.435 123.811 109.662C124.009 109.756 124.179 109.841 124.245 109.86C124.321 109.898 124.5 109.982 124.5 110.067C124.5 110.115 124.425 110.152 124.396 110.171C124.085 110.341 123.915 110.776 123.915 110.851C123.915 110.983 124.009 111.04 124.132 111.068H125.671H125.633ZM128.22 110.879C128.22 111.115 127.559 111.502 127.455 111.502C127.399 111.502 127.361 111.446 127.323 111.399C126.993 110.908 126.86 110.738 126.483 110.285C126.445 110.247 126.398 110.19 126.398 110.143C126.398 109.954 127.078 109.595 127.181 109.595C127.304 109.595 128.21 110.719 128.21 110.889L128.22 110.879ZM129.475 110.011C129.475 110.228 128.871 110.634 128.72 110.634C128.664 110.634 128.616 110.558 128.579 110.511C128.314 110.124 128.04 109.775 127.729 109.416C127.691 109.369 127.653 109.331 127.653 109.284C127.653 109.105 128.324 108.736 128.437 108.736C128.55 108.736 129.466 109.831 129.466 110.011H129.475Z" fill="#00194C"/>
<path d="M142.56 110.606C142.871 110.606 143.145 110.596 143.381 110.596C144.042 110.596 144.382 110.681 144.382 111.266C144.382 111.672 144.372 112.069 144.372 112.456V116.487C144.372 116.921 144.382 117.346 144.382 117.79C144.382 118.271 144.335 118.3 143.74 118.3H143.004C142.55 118.3 142.513 118.224 142.503 117.969C142.484 117.639 142.362 117.601 141.871 117.601H138.614C138.123 117.601 138.01 117.639 137.981 117.969C137.962 118.243 137.934 118.3 137.424 118.3H136.744C136.15 118.3 136.103 118.252 136.103 117.79C136.103 117.356 136.112 116.921 136.112 116.487V112.456C136.112 112.059 136.103 111.672 136.103 111.266C136.103 110.738 136.386 110.606 136.877 110.606H142.569H142.56ZM138.321 112.333C138.123 112.333 137.953 112.503 137.953 112.701V115.505C137.953 115.703 138.123 115.873 138.321 115.873H142.154C142.352 115.873 142.522 115.703 142.522 115.505V112.701C142.522 112.484 142.352 112.352 142.154 112.333H138.321Z" fill="#00194C"/>
<path d="M159.724 113.07C160.432 113.07 161.196 113.022 161.3 113.022C161.612 113.022 161.659 113.155 161.659 113.504V114.08C161.659 114.741 161.65 114.939 161.262 114.939C160.8 114.939 160.252 114.901 159.724 114.901H154.229C153.701 114.901 153.144 114.939 152.7 114.939C152.294 114.939 152.294 114.712 152.294 114.08V113.532C152.294 113.173 152.332 113.032 152.643 113.032C152.813 113.032 153.483 113.079 154.229 113.079H159.724V113.07Z" fill="#00194C"/>
<path d="M172.459 111.701C172.61 111.776 173.185 112.078 173.289 112.182C173.327 112.201 173.346 112.239 173.346 112.286C173.346 112.343 173.299 112.38 173.252 112.409C173.072 112.503 173.034 112.579 172.94 112.739C172.26 113.995 171.552 115.118 170.646 116.213C170.467 116.43 169.796 117.242 169.56 117.242C169.353 117.242 168.078 116.487 168.078 116.185C168.078 116.109 168.125 116.043 168.182 115.977C169.456 114.712 170.58 113.211 171.288 111.54C171.335 111.408 171.382 111.285 171.486 111.285C171.637 111.285 172.26 111.606 172.44 111.701H172.459ZM176.131 111.691C176.395 111.927 177.028 112.786 177.254 113.126C177.566 113.579 178.831 115.562 178.831 116.015C178.831 116.27 178.274 116.553 178.066 116.657C177.859 116.761 177.405 116.987 177.198 116.987C177.028 116.987 176.971 116.836 176.924 116.704C176.424 115.515 175.48 113.815 174.658 112.815C174.583 112.73 174.526 112.635 174.526 112.541C174.526 112.352 174.97 112.05 175.13 111.946C175.281 111.823 175.631 111.578 175.819 111.578C175.942 111.578 176.046 111.625 176.131 111.701V111.691ZM178.359 111.833C178.359 112.05 177.802 112.512 177.651 112.512C177.594 112.512 177.556 112.456 177.519 112.409C177.217 112.059 176.914 111.729 176.584 111.408C176.537 111.37 176.48 111.323 176.48 111.257C176.48 111.087 177.103 110.653 177.207 110.653C177.33 110.653 178.349 111.653 178.349 111.842L178.359 111.833ZM179.614 110.842C179.614 111.059 179.057 111.521 178.925 111.521C178.869 111.521 178.803 111.446 178.755 111.389C178.472 111.059 178.161 110.719 177.84 110.407C177.792 110.369 177.745 110.322 177.745 110.266C177.745 110.086 178.349 109.643 178.472 109.643C178.576 109.643 179.614 110.643 179.614 110.832V110.842Z" fill="#00194C"/>
<path d="M188.979 110.483C189.206 110.511 189.394 110.53 189.394 110.624C189.394 110.672 189.347 110.719 189.319 110.747C189.215 110.87 189.187 110.945 189.187 111.2C189.187 111.342 189.196 111.483 189.196 111.635C189.196 112.626 189.158 113.721 188.97 114.693C188.743 115.911 188.063 117.138 187.195 118.007C187.063 118.139 186.864 118.356 186.704 118.356C186.449 118.356 185.788 117.941 185.543 117.78C185.42 117.705 185.222 117.592 185.222 117.431C185.222 117.327 185.316 117.242 185.401 117.167C187.157 115.666 187.355 114.061 187.355 111.889C187.355 111.342 187.308 110.521 187.308 110.473C187.308 110.369 187.365 110.351 187.459 110.351C187.714 110.351 188.649 110.445 188.96 110.483H188.979ZM191.924 114.788C191.924 115.279 191.953 115.449 192.16 115.449C192.595 115.449 194.464 113.683 194.851 113.296C194.908 113.239 194.993 113.145 195.106 113.145C195.276 113.145 195.474 113.513 195.635 113.787C195.729 113.957 195.946 114.335 195.946 114.523C195.946 114.74 195.597 115.033 195.389 115.231C195.351 115.269 195.304 115.307 195.285 115.326C194.728 115.817 194.162 116.289 193.577 116.761C193.086 117.157 192.576 117.525 192.094 117.941C191.972 118.045 191.792 118.215 191.651 118.215C191.471 118.215 190.754 117.856 190.574 117.752C190.376 117.648 190.065 117.469 190.065 117.195C190.065 116.959 190.102 116.421 190.102 115.751V112.003C190.102 111.767 190.112 111.37 190.112 111.002C190.112 110.728 190.102 110.464 190.084 110.313C190.074 110.275 190.074 110.256 190.074 110.218C190.074 110.133 190.131 110.124 190.206 110.124C190.235 110.124 190.716 110.171 190.811 110.181C190.999 110.2 191.84 110.303 192 110.322C192.094 110.351 192.17 110.36 192.17 110.454C192.17 110.53 192.113 110.577 192.066 110.624C191.943 110.747 191.943 110.926 191.943 111.078C191.934 111.436 191.934 111.795 191.934 112.154V114.807L191.924 114.788Z" fill="#00194C"/>
<path fill-rule="evenodd" clip-rule="evenodd" d="M0.0471985 77.6201L0 80.3862H2.76608L2.81328 77.6201H0.0471985Z" fill="url(#paint0_linear_1911_777)"/>
<path d="M2.69056 97.4831H0V81.4813H2.69056V97.4831Z" fill="#00194C"/>
<path d="M9.93174 77.7051C10.045 77.7617 10.1772 77.8845 10.3282 78.0733L21.8363 93.046C21.808 92.81 21.7891 92.574 21.7796 92.3474C21.7702 92.1208 21.7702 91.9037 21.7702 91.6865V77.6201H24.1303V97.4831H22.7709C22.5538 97.4831 22.3838 97.4453 22.2328 97.3698C22.0912 97.2943 21.9496 97.1715 21.808 96.9921L10.3188 82.0383C10.3377 82.2649 10.3471 82.4914 10.3566 82.718C10.3566 82.9351 10.366 83.1428 10.366 83.3316V97.4831H8.00586V77.6201H9.39362C9.62964 77.6201 9.80901 77.6484 9.93174 77.7145V77.7051Z" fill="#00194C"/>
<path d="M39.1402 80.7261C39.0553 80.8677 38.9703 80.9715 38.8759 81.0376C38.7815 81.1037 38.6588 81.1414 38.5172 81.1414C38.3567 81.1414 38.1773 81.0659 37.9696 80.9054C37.7619 80.7449 37.4976 80.575 37.1766 80.3862C36.8556 80.1974 36.478 80.0274 36.0248 79.867C35.5811 79.7065 35.0336 79.6309 34.3916 79.6309C33.7874 79.6309 33.2587 79.7159 32.7962 79.8764C32.3336 80.0369 31.9465 80.254 31.635 80.5372C31.3234 80.811 31.0874 81.1414 30.9364 81.5191C30.7759 81.8967 30.7004 82.3026 30.7004 82.7274C30.7004 83.2844 30.8325 83.7376 31.1063 84.1058C31.3801 84.4739 31.7388 84.7855 32.192 85.0404C32.6357 85.2953 33.1455 85.5219 33.7213 85.7107C34.2878 85.8995 34.8731 86.0977 35.4678 86.296C36.0626 86.5037 36.6479 86.7303 37.2143 86.9851C37.7808 87.24 38.2906 87.561 38.7437 87.9481C39.1874 88.3351 39.5556 88.8166 39.8294 89.3736C40.1032 89.94 40.2353 90.6292 40.2353 91.4505C40.2353 92.319 40.0843 93.1309 39.7916 93.8956C39.499 94.6603 39.0647 95.3212 38.4983 95.8876C37.9318 96.454 37.2332 96.8977 36.4025 97.2187C35.5717 97.5397 34.6371 97.7002 33.5797 97.7002C32.2958 97.7002 31.1252 97.4642 30.0678 97.0016C29.0105 96.539 28.1042 95.9065 27.3584 95.1135L28.1325 93.839C28.2081 93.7351 28.293 93.6502 28.4063 93.5841C28.5101 93.518 28.6329 93.4802 28.7556 93.4802C28.9538 93.4802 29.171 93.5841 29.4164 93.7918C29.6619 93.9995 29.9734 94.226 30.3511 94.4809C30.7287 94.7264 31.1818 94.9624 31.7105 95.1701C32.2392 95.3778 32.8906 95.4817 33.6553 95.4817C34.2972 95.4817 34.8636 95.3967 35.364 95.2173C35.8643 95.0379 36.2892 94.7925 36.629 94.4715C36.9689 94.1505 37.2427 93.7729 37.422 93.3292C37.6109 92.8855 37.6958 92.3946 37.6958 91.847C37.6958 91.2428 37.5637 90.7519 37.2899 90.3743C37.0161 89.9967 36.6574 89.6662 36.2137 89.4114C35.7699 89.1565 35.2602 88.9299 34.6937 88.7505C34.1273 88.5712 33.542 88.3823 32.9472 88.1935C32.3525 88.0047 31.7671 87.7876 31.2007 87.5327C30.6343 87.2872 30.1245 86.9568 29.6808 86.5603C29.2371 86.1638 28.8783 85.6635 28.6046 85.0687C28.3308 84.474 28.1986 83.7376 28.1986 82.8596C28.1986 82.161 28.3308 81.4813 28.6046 80.8205C28.8783 80.1691 29.2748 79.5837 29.7941 79.074C30.3133 78.5642 30.9553 78.1582 31.7105 77.8561C32.4657 77.554 33.3437 77.403 34.335 77.403C35.4395 77.403 36.4591 77.5823 37.3748 77.9316C38.2906 78.2809 39.093 78.7907 39.7727 79.461L39.1213 80.7355L39.1402 80.7261Z" fill="#00194C"/>
<path d="M46.8449 97.4831H44.1543V77.6201H46.8449V97.4831Z" fill="#00194C"/>
<path d="M61.0239 95.5288C61.562 95.5288 62.053 95.5005 62.4967 95.4533C62.9404 95.4061 63.3652 95.3306 63.7617 95.2267C64.1582 95.1229 64.5358 95.0002 64.8851 94.8586C65.2344 94.717 65.5837 94.547 65.9425 94.3676V89.9872H62.8648C62.6855 89.9872 62.5439 89.94 62.44 89.8362C62.3362 89.7323 62.2795 89.6096 62.2795 89.4586V87.9292H68.3781V95.5572C67.8778 95.9159 67.3586 96.2274 66.8204 96.5012C66.2823 96.7656 65.7065 96.9921 65.0834 97.1715C64.4697 97.3509 63.8089 97.4831 63.1103 97.5775C62.4117 97.6624 61.647 97.7096 60.8257 97.7096C59.3813 97.7096 58.0596 97.4642 56.8606 96.9638C55.6617 96.4729 54.6232 95.7743 53.7547 94.8869C52.8862 93.9995 52.2064 92.9233 51.725 91.6771C51.2435 90.431 50.998 89.0621 50.998 87.561C50.998 86.06 51.2341 84.6628 51.7155 83.4166C52.1876 82.1705 52.8673 81.1037 53.7547 80.2068C54.6327 79.3194 55.7089 78.6208 56.9551 78.1393C58.2012 77.6578 59.6078 77.403 61.1655 77.403C61.9491 77.403 62.6855 77.4596 63.3558 77.5729C64.026 77.6862 64.6585 77.8561 65.2344 78.0733C65.8103 78.2904 66.3484 78.5547 66.8393 78.8663C67.3302 79.1778 67.7834 79.5271 68.2082 79.9141L67.4435 81.132C67.283 81.3774 67.0848 81.5096 66.8299 81.5096C66.6788 81.5096 66.5183 81.4624 66.3484 81.3586C66.1218 81.2264 65.8575 81.0753 65.5743 80.8865C65.2911 80.6977 64.9418 80.5278 64.5264 80.3484C64.111 80.1785 63.6295 80.0274 63.0725 79.9141C62.5155 79.7914 61.8547 79.7348 61.0806 79.7348C59.9666 79.7348 58.947 79.9142 58.0407 80.2823C57.1344 80.6505 56.3603 81.1698 55.7278 81.8495C55.0858 82.5292 54.6044 83.3505 54.2551 84.3135C53.9152 85.2764 53.7453 86.3621 53.7453 87.561C53.7453 88.76 53.9246 89.94 54.2834 90.9218C54.6421 91.9037 55.1425 92.7439 55.7844 93.4236C56.4264 94.1033 57.2005 94.632 58.0879 94.9907C58.9753 95.3495 59.9572 95.5288 61.0239 95.5288Z" fill="#00194C"/>
<path d="M88.6274 97.4831H85.9274V88.4484H75.2313V97.4831H72.5312V77.6201H75.2313V86.4754H85.9274V77.6201H88.6274V97.4831Z" fill="#00194C"/>
<path d="M106.999 77.6201V79.8764H100.58V97.4831H97.8893V79.8764H91.4414V77.6201H106.99H106.999Z" fill="#00194C"/>
<path fill-rule="evenodd" clip-rule="evenodd" d="M123.389 83.228V86.636H126.797V83.228H123.389ZM132.329 92.1682H126.797V86.636H132.329V92.1682ZM110.2 86.636C110.2 80.5468 115.175 75.5717 121.265 75.5717V81.1038C118.234 81.1038 115.732 83.6056 115.732 86.636C115.732 89.6664 118.234 92.1682 121.265 92.1682H126.797V97.7003H121.265C115.175 97.7003 110.2 92.7252 110.2 86.636Z" fill="#00194C"/>
<path d="M139.579 93.5181H147.745V97.5964H134.472V75.5621H139.579V93.5086V93.5181Z" fill="#00194C"/>
<path d="M171.139 86.5793C171.139 88.1747 170.865 89.6569 170.318 91.0258C169.77 92.3947 168.996 93.5842 167.995 94.6038C166.995 95.6139 165.796 96.4069 164.389 96.9828C162.983 97.5587 161.425 97.8419 159.707 97.8419C157.988 97.8419 156.431 97.5587 155.015 96.9828C153.599 96.4069 152.4 95.6139 151.389 94.6038C150.389 93.5936 149.615 92.3947 149.058 91.0258C148.51 89.6569 148.236 88.1747 148.236 86.5793C148.236 84.9838 148.51 83.5017 149.058 82.1328C149.605 80.7639 150.379 79.5744 151.389 78.5643C152.39 77.5541 153.599 76.7611 155.015 76.1947C156.421 75.6188 157.988 75.3356 159.707 75.3356C161.425 75.3356 162.983 75.6282 164.389 76.2041C165.796 76.78 166.995 77.573 167.995 78.5831C168.996 79.5933 169.77 80.7828 170.318 82.1517C170.865 83.5205 171.139 85.0027 171.139 86.5793ZM165.909 86.5793C165.909 85.4936 165.767 84.5118 165.484 83.6338C165.201 82.7653 164.795 82.0195 164.266 81.4153C163.738 80.8111 163.086 80.3485 162.322 80.0275C161.557 79.7066 160.679 79.5461 159.707 79.5461C158.734 79.5461 157.837 79.7066 157.073 80.0275C156.299 80.3485 155.647 80.8111 155.119 81.4153C154.59 82.0195 154.184 82.7559 153.901 83.6338C153.617 84.5024 153.476 85.4842 153.476 86.5793C153.476 87.6744 153.617 88.6657 153.901 89.5342C154.184 90.4027 154.59 91.1485 155.119 91.7527C155.647 92.3569 156.299 92.8195 157.073 93.1405C157.847 93.4615 158.725 93.6125 159.707 93.6125C160.688 93.6125 161.557 93.452 162.322 93.1405C163.086 92.8195 163.738 92.3569 164.266 91.7527C164.795 91.1485 165.201 90.4122 165.484 89.5342C165.767 88.6657 165.909 87.6744 165.909 86.5793Z" fill="#00194C"/>
<path d="M173.594 97.606V75.5717H181.703C183.223 75.5717 184.516 75.7133 185.593 75.9965C186.659 76.2797 187.537 76.6762 188.208 77.1954C188.887 77.7052 189.378 78.3378 189.68 79.0741C189.992 79.8105 190.143 80.6318 190.143 81.5381C190.143 82.029 190.068 82.5105 189.935 82.9636C189.794 83.4262 189.577 83.851 189.275 84.257C188.972 84.6629 188.585 85.0217 188.113 85.3521C187.641 85.6825 187.065 85.9657 186.405 86.2112C187.858 86.5605 188.925 87.1364 189.624 87.9294C190.322 88.7224 190.672 89.7325 190.672 90.9787C190.672 91.9133 190.492 92.7913 190.124 93.5937C189.765 94.3962 189.227 95.1042 188.529 95.6989C187.83 96.3031 186.962 96.7657 185.933 97.1056C184.904 97.4455 183.733 97.6154 182.411 97.6154H173.613L173.594 97.606ZM178.701 84.8423H181.363C181.93 84.8423 182.44 84.8045 182.893 84.7196C183.346 84.6346 183.733 84.5024 184.054 84.2948C184.375 84.0965 184.611 83.8133 184.781 83.464C184.951 83.1147 185.026 82.671 185.026 82.1329C185.026 81.5947 184.96 81.1699 184.828 80.8206C184.696 80.4713 184.498 80.1975 184.224 79.9804C183.95 79.7727 183.61 79.6217 183.185 79.5273C182.77 79.4328 182.27 79.3951 181.694 79.3951H178.701V84.8423ZM178.701 88.2598V93.7447H182.298C182.978 93.7447 183.525 93.6598 183.95 93.4899C184.375 93.3199 184.715 93.0933 184.96 92.829C185.206 92.5647 185.366 92.2531 185.461 91.9038C185.555 91.564 185.593 91.2147 185.593 90.8559C185.593 90.45 185.536 90.0912 185.432 89.7703C185.328 89.4493 185.149 89.1755 184.885 88.9489C184.63 88.7318 184.29 88.5524 183.865 88.4391C183.44 88.3164 182.912 88.2598 182.26 88.2598H178.692H178.701Z" fill="#00194C"/>
<path d="M213.933 97.606H209.968C209.524 97.606 209.156 97.5021 208.873 97.2944C208.589 97.0867 208.382 96.8224 208.278 96.5014L206.975 92.6591H198.601L197.298 96.5014C197.195 96.7846 196.996 97.0395 196.713 97.2661C196.42 97.4927 196.062 97.606 195.637 97.606H191.644L200.168 75.5717H205.398L213.923 97.606H213.933ZM199.781 89.185H205.804L203.775 83.1524C203.643 82.7654 203.491 82.3217 203.312 81.8024C203.133 81.2832 202.963 80.7168 202.793 80.1126C202.632 80.7262 202.462 81.2927 202.293 81.8213C202.123 82.35 201.962 82.8032 201.811 83.1808L199.781 89.185Z" fill="#00194C"/>
<path d="M220.834 93.5181H229V97.5964H215.727V75.5621H220.834V93.5086V93.5181Z" fill="#00194C"/>
<path fill-rule="evenodd" clip-rule="evenodd" d="M113.881 20.5142V29.6338H123.001V20.5142H113.881ZM136.661 16.4454V24.7719H144.988V16.4454H136.661ZM120.046 3.52122V14.3779H130.903V3.52122H120.046ZM137.823 44.446H123.01V29.6338H137.823V44.446ZM78.5547 29.6338C78.5547 13.3394 91.8848 -0.00012207 108.189 -0.00012207V14.8121C100.07 14.8121 93.3764 21.5055 93.3764 29.6244C93.3764 37.7433 100.07 44.4366 108.189 44.4366H123.001V59.2489H108.189C91.8942 59.2489 78.5547 45.9093 78.5547 29.6149V29.6338Z" fill="url(#paint1_linear_1911_777)"/>
<defs>
<linearGradient id="paint0_linear_1911_777" x1="3.493" y1="81.0848" x2="-0.0471992" y2="77.5446" gradientUnits="userSpaceOnUse">
<stop stop-color="#03B8DF"/>
<stop offset="1" stop-color="#1853A4"/>
</linearGradient>
<linearGradient id="paint1_linear_1911_777" x1="143.666" y1="61.0426" x2="87.8914" y2="5.26773" gradientUnits="userSpaceOnUse">
<stop stop-color="#03B8DF"/>
<stop offset="1" stop-color="#1853A4"/>
</linearGradient>
</defs>
</svg>
