<svg width="203" height="35" viewBox="0 0 203 35" fill="none" xmlns="http://www.w3.org/2000/svg">
<path d="M114.581 33.8735C114.581 34.0444 114.581 34.2215 114.581 34.3924C114.581 34.5063 114.587 34.6329 114.587 34.7531C114.587 34.9556 114.479 34.9619 114.157 34.9619H113.891C113.587 34.9619 113.543 34.9239 113.543 34.7721C113.543 34.481 113.555 34.1899 113.555 33.9051V32.4687C113.555 32.3738 113.524 32.3105 113.442 32.3105C113.385 32.3105 113.302 32.3738 113.252 32.4054C113.081 32.5256 112.189 33.1205 112.043 33.1205C111.898 33.1205 111.29 32.5256 111.29 32.3611C111.29 32.2915 111.366 32.2662 111.423 32.2472C111.765 32.1206 112.366 31.7789 112.682 31.5764C113.271 31.2031 113.866 30.7158 114.327 30.1843C114.517 29.9691 114.77 29.6211 114.922 29.3806C114.935 29.349 114.96 29.3047 115.005 29.3047C115.099 29.3047 115.644 29.697 115.834 29.8426C115.909 29.8995 115.96 29.9628 115.96 30.0008C115.96 30.0451 115.916 30.0577 115.878 30.0704C115.789 30.0894 115.72 30.1083 115.644 30.178C115.492 30.3298 115.207 30.6842 114.72 31.1778C114.619 31.2853 114.574 31.3676 114.574 31.5068V33.8798L114.581 33.8735Z" fill="#00194C"/>
<path d="M125.572 31.1651C125.572 31.1651 125.591 31.2094 125.61 31.2347C125.655 31.3296 125.718 31.4688 125.718 31.5384C125.718 31.6903 125.199 32.1902 125.06 32.3168C124.022 33.3292 122.984 33.9114 121.693 34.5252C121.567 34.5885 121.573 34.6012 121.522 34.6961C121.516 34.7151 121.497 34.7341 121.472 34.7341C121.421 34.7341 121.383 34.6771 121.358 34.6328C121.25 34.4746 121.143 34.3038 121.054 34.1392C121.01 34.0633 120.864 33.8228 120.864 33.7532C120.864 33.6963 120.934 33.6646 120.984 33.652C121.56 33.5001 122.117 33.247 122.636 32.9432C123.427 32.475 124.421 31.665 124.965 30.9246C124.977 30.9056 124.99 30.893 125.003 30.874C125.06 30.7917 125.11 30.7221 125.186 30.7221C125.313 30.7221 125.515 31.0701 125.572 31.1714V31.1651ZM121.693 29.8488C122.212 30.1589 122.617 30.469 122.826 30.6588C122.864 30.6905 122.883 30.7221 122.883 30.7727C122.883 30.9562 122.427 31.4815 122.275 31.4815C122.218 31.4815 122.155 31.4245 122.117 31.3865C121.744 31.0765 121.459 30.8677 121.035 30.6335C120.985 30.6019 120.921 30.5639 120.921 30.5006C120.921 30.3741 121.307 29.7603 121.497 29.7603C121.529 29.7603 121.605 29.7982 121.7 29.8488H121.693Z" fill="#00194C"/>
<path d="M130.199 30.9757C130.262 30.9757 130.414 30.9693 130.414 30.8301V30.5517C130.414 30.2733 130.401 29.9948 130.401 29.7227C130.401 29.6784 130.408 29.6595 130.458 29.6595C130.585 29.6595 130.99 29.6848 131.154 29.6911C131.363 29.6974 131.515 29.7101 131.515 29.7797C131.515 29.7987 131.49 29.8366 131.477 29.8493C131.426 29.9126 131.414 29.9695 131.414 30.0518V30.8175C131.414 30.9061 131.464 30.9757 131.559 30.9757H132.357C132.464 30.9757 132.502 30.8871 132.502 30.7858C132.502 30.6086 132.489 29.8873 132.477 29.748C132.477 29.7227 132.477 29.6974 132.477 29.6721C132.477 29.6215 132.521 29.5898 132.572 29.5898C132.66 29.5898 133.04 29.6088 133.16 29.6152C133.382 29.6215 133.609 29.6278 133.609 29.6974C133.609 29.805 133.508 29.7101 133.508 30.0138V30.3745C133.508 30.4884 133.502 30.6086 133.502 30.7289C133.502 30.9187 133.54 30.9757 133.711 30.9757H133.787C133.945 30.9693 134.47 30.9567 134.527 30.9567C134.666 30.9567 134.698 31.0136 134.698 31.3174V31.6021C134.698 31.8173 134.685 31.9122 134.483 31.9122C134.249 31.9122 134.014 31.8996 133.78 31.8996H133.704C133.515 31.8996 133.477 31.9312 133.477 32.1274C133.477 33.2221 133.261 33.9498 132.319 34.5953C132.198 34.6775 131.736 34.9497 131.603 34.9497C131.521 34.9497 131.325 34.7661 131.211 34.6269C131.11 34.5257 130.952 34.3675 130.952 34.2789C130.952 34.1966 131.066 34.1587 131.255 34.0827C132.249 33.6714 132.496 33.1272 132.496 32.0894C132.496 31.9882 132.464 31.8932 132.35 31.8932H131.566C131.483 31.8932 131.42 31.9628 131.42 32.0388V32.3805C131.42 32.6463 131.42 33.007 131.42 33.0892C131.42 33.317 131.42 33.3613 131.18 33.3613H130.73C130.439 33.3613 130.401 33.3423 130.401 33.2031C130.401 32.931 130.414 32.6716 130.414 32.4058V32.0578C130.414 31.9692 130.338 31.8996 130.243 31.8996H130.116C129.863 31.8996 129.617 31.9185 129.446 31.9185C129.249 31.9185 129.243 31.754 129.243 31.5136V31.2731C129.243 31.0073 129.268 30.9567 129.414 30.9567C129.547 30.9567 129.863 30.9757 130.11 30.9757H130.192H130.199Z" fill="#00194C"/>
<path d="M141.677 33.8735C141.677 34.0444 141.677 34.2215 141.677 34.3924C141.677 34.5063 141.684 34.6329 141.684 34.7531C141.684 34.9556 141.576 34.9619 141.253 34.9619H140.988C140.684 34.9619 140.639 34.9239 140.639 34.7721C140.639 34.481 140.652 34.1899 140.652 33.9051V32.4687C140.652 32.3738 140.62 32.3105 140.538 32.3105C140.481 32.3105 140.399 32.3738 140.348 32.4054C140.178 32.5256 139.285 33.1205 139.14 33.1205C138.994 33.1205 138.387 32.5256 138.387 32.3611C138.387 32.2915 138.463 32.2662 138.52 32.2472C138.861 32.1206 139.462 31.7789 139.779 31.5764C140.367 31.2031 140.962 30.7158 141.424 30.1843C141.614 29.9691 141.867 29.6211 142.019 29.3806C142.032 29.349 142.057 29.3047 142.101 29.3047C142.196 29.3047 142.74 29.697 142.93 29.8426C143.006 29.8995 143.057 29.9628 143.057 30.0008C143.057 30.0451 143.012 30.0577 142.975 30.0704C142.886 30.0894 142.816 30.1083 142.74 30.178C142.589 30.3298 142.304 30.6842 141.816 31.1778C141.715 31.2853 141.671 31.3676 141.671 31.5068V33.8798L141.677 33.8735Z" fill="#00194C"/>
<path d="M150.163 34.0193C150.163 34.2345 150.17 34.4433 150.17 34.6648C150.17 34.9748 150.151 35.0002 149.733 35.0002H149.442C149.182 35.0002 149.106 34.9685 149.106 34.7977C149.106 34.5382 149.119 34.2914 149.119 34.032V30.3111C149.119 30.0453 149.106 29.71 149.106 29.5138C149.106 29.4315 149.119 29.3936 149.208 29.3936C149.284 29.3936 150.043 29.4758 150.201 29.5201C150.239 29.5328 150.271 29.5581 150.271 29.5961C150.271 29.6277 150.252 29.653 150.233 29.672C150.201 29.7163 150.163 29.7669 150.163 29.9061V31.1591C150.163 31.1907 150.17 31.2477 150.239 31.2477C150.277 31.2477 150.315 31.2223 150.347 31.2223C150.397 31.2223 150.48 31.2666 150.587 31.3236C150.796 31.4502 151.055 31.659 151.144 31.7223C151.302 31.8488 151.593 32.0956 151.739 32.2475C151.764 32.2791 151.783 32.3108 151.783 32.3487C151.783 32.4753 151.315 33.0005 151.163 33.0005C151.106 33.0005 151.043 32.9372 151.005 32.8993C150.897 32.798 150.366 32.3171 150.264 32.3171C150.176 32.3171 150.17 32.4057 150.17 32.469V34.013L150.163 34.0193Z" fill="#00194C"/>
<path d="M164.217 30.4946C164.299 30.4946 164.375 30.4946 164.464 30.4756C164.483 30.4693 164.508 30.4693 164.527 30.4693C164.742 30.4693 165.172 31.0135 165.172 31.1274C165.172 31.1591 165.141 31.216 165.084 31.3109C165.046 31.3805 164.995 31.4628 164.938 31.5704C164.274 32.8297 163.673 33.7346 162.458 34.5192C162.3 34.6205 161.705 34.9875 161.547 34.9875C161.426 34.9875 161.173 34.7597 161.072 34.6711C160.996 34.6015 160.825 34.4496 160.825 34.3547C160.825 34.2661 160.945 34.2218 161.059 34.1712C162.141 33.6523 163.103 32.855 163.692 31.7982C163.73 31.7286 163.806 31.5767 163.806 31.5008C163.806 31.4185 163.717 31.4122 163.641 31.4122H162.717C162.61 31.4122 162.559 31.4881 162.496 31.5641C162.369 31.7476 162.084 32.064 161.926 32.2348C161.914 32.2475 161.895 32.2665 161.876 32.2918C161.755 32.412 161.528 32.6461 161.439 32.6461C161.306 32.6461 160.844 32.3361 160.737 32.2411C160.692 32.2032 160.654 32.1526 160.654 32.0956C160.654 32.0513 160.686 32.0197 160.718 31.9944C161.129 31.659 161.42 31.3552 161.736 30.9249C161.996 30.5769 162.338 30.0264 162.483 29.6214C162.508 29.5518 162.546 29.4378 162.597 29.4378C162.635 29.4378 162.983 29.6024 163.223 29.7289C163.331 29.7796 163.426 29.8239 163.458 29.8365C163.496 29.8555 163.59 29.8998 163.59 29.9441C163.59 29.9694 163.553 29.9884 163.534 30.001C163.369 30.0896 163.274 30.3301 163.274 30.3681C163.274 30.4377 163.325 30.4693 163.388 30.482H164.217V30.4946ZM165.615 30.3934C165.615 30.5199 165.261 30.7288 165.204 30.7288C165.172 30.7288 165.154 30.6971 165.135 30.6718C164.951 30.406 164.881 30.3174 164.685 30.0706C164.666 30.0517 164.641 30.02 164.641 29.9947C164.641 29.8935 165.008 29.6973 165.065 29.6973C165.128 29.6973 165.622 30.3048 165.622 30.3934H165.615ZM166.293 29.9251C166.293 30.039 165.963 30.2605 165.888 30.2605C165.856 30.2605 165.831 30.2225 165.812 30.1972C165.672 29.9884 165.521 29.7985 165.356 29.6024C165.337 29.5771 165.318 29.5581 165.318 29.5328C165.318 29.4378 165.679 29.2354 165.742 29.2354C165.805 29.2354 166.299 29.8302 166.299 29.9251H166.293Z" fill="#00194C"/>
<path d="M173.361 30.2417C173.532 30.2417 173.678 30.2354 173.804 30.2354C174.159 30.2354 174.348 30.2796 174.348 30.596C174.348 30.8175 174.342 31.0264 174.342 31.2415V33.4183C174.342 33.6525 174.348 33.8803 174.348 34.1207C174.348 34.3802 174.323 34.3992 174 34.3992H173.602C173.355 34.3992 173.336 34.3612 173.33 34.2157C173.317 34.0321 173.254 34.0132 172.988 34.0132H171.229C170.963 34.0132 170.9 34.0321 170.887 34.2157C170.874 34.3612 170.862 34.3992 170.583 34.3992H170.216C169.893 34.3992 169.868 34.3739 169.868 34.1207C169.868 33.8866 169.874 33.6525 169.874 33.4183V31.2415C169.874 31.0264 169.868 30.8175 169.868 30.596C169.868 30.3113 170.02 30.2417 170.286 30.2417H173.361ZM171.07 31.1782C170.963 31.1782 170.868 31.2668 170.868 31.3807V32.8931C170.868 33.0007 170.957 33.0956 171.07 33.0956H173.14C173.247 33.0956 173.342 33.007 173.342 32.8931V31.3807C173.342 31.2668 173.254 31.1972 173.14 31.1782H171.07Z" fill="#00194C"/>
<path d="M182.62 31.5771C183 31.5771 183.411 31.5518 183.468 31.5518C183.639 31.5518 183.664 31.6214 183.664 31.8112V32.1213C183.664 32.4756 183.658 32.5832 183.449 32.5832C183.196 32.5832 182.898 32.5642 182.62 32.5642H179.658C179.374 32.5642 179.07 32.5832 178.836 32.5832C178.614 32.5832 178.614 32.463 178.614 32.1213V31.8239C178.614 31.6277 178.633 31.5518 178.804 31.5518C178.893 31.5518 179.253 31.5771 179.658 31.5771H182.62Z" fill="#00194C"/>
<path d="M189.498 30.8364C189.58 30.8744 189.89 31.0452 189.947 31.0958C189.966 31.1085 189.979 31.1275 189.979 31.1528C189.979 31.1844 189.954 31.2034 189.928 31.2161C189.833 31.2667 189.814 31.3047 189.764 31.3996C189.397 32.0767 189.017 32.6842 188.524 33.2727C188.429 33.3866 188.068 33.8295 187.935 33.8295C187.827 33.8295 187.138 33.4245 187.138 33.2537C187.138 33.2157 187.163 33.1777 187.195 33.1461C187.884 32.4627 188.492 31.6527 188.872 30.7478C188.897 30.6782 188.922 30.6149 188.979 30.6149C189.061 30.6149 189.397 30.7858 189.498 30.8427V30.8364ZM191.485 30.8301C191.624 30.9566 191.966 31.4249 192.093 31.6021C192.257 31.8489 192.94 32.9183 192.94 33.1588C192.94 33.2916 192.637 33.4498 192.529 33.5068C192.422 33.5637 192.175 33.6903 192.061 33.6903C191.972 33.6903 191.941 33.608 191.915 33.5384C191.643 32.893 191.137 31.9817 190.688 31.4375C190.65 31.3932 190.618 31.3426 190.618 31.292C190.618 31.1907 190.859 31.0262 190.947 30.9693C191.029 30.906 191.219 30.7668 191.32 30.7668C191.384 30.7668 191.441 30.7921 191.485 30.8301ZM192.687 30.906C192.687 31.0199 192.384 31.273 192.308 31.273C192.276 31.273 192.257 31.2414 192.238 31.2161C192.08 31.0262 191.909 30.849 191.738 30.6719C191.713 30.6529 191.681 30.6276 191.681 30.5896C191.681 30.501 192.017 30.2605 192.074 30.2605C192.137 30.2605 192.694 30.8047 192.694 30.906H192.687ZM193.364 30.3681C193.364 30.482 193.061 30.7351 192.991 30.7351C192.959 30.7351 192.928 30.6972 192.902 30.6655C192.751 30.482 192.58 30.3048 192.409 30.134C192.384 30.115 192.358 30.0897 192.358 30.058C192.358 29.9631 192.687 29.7227 192.751 29.7227C192.808 29.7227 193.371 30.2669 193.371 30.3681H193.364Z" fill="#00194C"/>
<path d="M198.42 30.1781C198.54 30.1908 198.648 30.2034 198.648 30.254C198.648 30.2793 198.623 30.3047 198.61 30.3173C198.553 30.3806 198.54 30.4249 198.54 30.5641C198.54 30.64 198.547 30.716 198.547 30.7982C198.547 31.3361 198.528 31.9246 198.426 32.4499C198.306 33.108 197.939 33.7724 197.464 34.2407C197.395 34.3103 197.281 34.4305 197.199 34.4305C197.066 34.4305 196.705 34.2027 196.572 34.1204C196.509 34.0825 196.401 34.0192 196.401 33.9369C196.401 33.88 196.452 33.8357 196.496 33.7977C197.446 32.9877 197.553 32.1208 197.553 30.9501C197.553 30.6527 197.528 30.2097 197.528 30.1844C197.528 30.1275 197.559 30.1212 197.61 30.1212C197.743 30.1212 198.255 30.1718 198.42 30.1908V30.1781ZM200.015 32.5068C200.015 32.7726 200.027 32.8612 200.141 32.8612C200.375 32.8612 201.388 31.9056 201.59 31.7031C201.622 31.6715 201.666 31.6209 201.723 31.6209C201.812 31.6209 201.926 31.8234 202.008 31.9689C202.059 32.0575 202.179 32.2663 202.179 32.3676C202.179 32.4815 201.989 32.646 201.875 32.7473C201.856 32.7663 201.831 32.7852 201.818 32.7979C201.514 33.0637 201.211 33.3168 200.894 33.5699C200.628 33.7851 200.356 33.9812 200.097 34.209C200.034 34.266 199.939 34.3546 199.856 34.3546C199.762 34.3546 199.376 34.1584 199.274 34.1015C199.167 34.0445 198.996 33.9496 198.996 33.7977C198.996 33.6712 199.015 33.3801 199.015 33.0194V30.9944C199.015 30.8679 199.021 30.6527 199.021 30.4565C199.021 30.311 199.015 30.1654 199.009 30.0832C199.002 30.0642 199.002 30.0515 199.002 30.0326C199.002 29.9883 199.034 29.9819 199.072 29.9819C199.084 29.9819 199.35 30.0072 199.401 30.0136C199.502 30.0262 199.958 30.0769 200.046 30.0895C200.097 30.1022 200.135 30.1085 200.135 30.1591C200.135 30.1971 200.103 30.2224 200.078 30.2477C200.015 30.311 200.015 30.4059 200.015 30.4945C200.008 30.6907 200.008 30.8805 200.008 31.0767V32.5068H200.015Z" fill="#00194C"/>
<path fill-rule="evenodd" clip-rule="evenodd" d="M18.4081 10.6943V15.4466H23.1604V10.6943H18.4081ZM30.2731 8.57443V12.9154H34.6141V8.57443H30.2731ZM21.6164 1.84145V7.49867H27.2736V1.84145H21.6164ZM30.8743 23.1604H23.1541V15.4403H30.8743V23.1604ZM0 15.4403C0 6.94813 6.94813 0 15.434 0V7.72648C11.2069 7.72648 7.71382 11.2132 7.71382 15.4466C7.71382 19.68 11.2005 23.1668 15.434 23.1668H23.1541V30.8869H15.434C6.9418 30.8869 0 23.9388 0 15.4466V15.4403Z" fill="url(#paint0_linear_1911_2632)"/>
<path fill-rule="evenodd" clip-rule="evenodd" d="M127.306 12.466V14.8896H129.73V12.466H127.306ZM133.666 18.8256H129.73V14.8896H133.666V18.8256ZM117.922 14.8896C117.922 10.5613 121.466 7.01758 125.794 7.01758V10.9536C123.636 10.9536 121.858 12.7318 121.858 14.8896C121.858 17.0474 123.636 18.8256 125.794 18.8256H129.73V22.7616H125.794C121.466 22.7616 117.922 19.2179 117.922 14.8896Z" fill="#00194C"/>
<path fill-rule="evenodd" clip-rule="evenodd" d="M39.5624 8.47363L39.5244 10.4416H41.4924L41.5304 8.47363H39.5624Z" fill="#1F96CD"/>
<path d="M41.4355 22.6038H39.5244V11.2197H41.4355V22.6038Z" fill="#00194C"/>
<path d="M46.5861 8.53691C46.6683 8.58121 46.7632 8.6698 46.8645 8.79636L55.0466 19.4464C55.0276 19.2755 55.0149 19.111 55.0086 18.9465C55.0023 18.7819 54.996 18.6301 54.996 18.4782V8.47363H56.6729V22.604H55.7047C55.5528 22.604 55.4263 22.5787 55.325 22.5281C55.2238 22.4775 55.1225 22.3889 55.0213 22.2623L46.8455 11.625C46.8582 11.7895 46.8708 11.9477 46.8772 12.1059C46.8835 12.2641 46.8898 12.4096 46.8898 12.5425V22.6104H45.2129V8.47363H46.2001C46.3709 8.47363 46.4975 8.49262 46.5797 8.53691H46.5861Z" fill="#00194C"/>
<path d="M67.367 10.6816C67.31 10.7829 67.2467 10.8525 67.1771 10.9031C67.1139 10.9537 67.0253 10.979 66.9177 10.979C66.8038 10.979 66.6772 10.9221 66.5253 10.8145C66.3798 10.7006 66.19 10.5804 65.9622 10.4475C65.7344 10.3146 65.4623 10.188 65.1459 10.0805C64.8295 9.96657 64.4434 9.90961 63.9878 9.90961C63.5575 9.90961 63.1842 9.96657 62.8551 10.0805C62.5261 10.1944 62.254 10.3526 62.0325 10.5487C61.811 10.7449 61.6465 10.979 61.5326 11.2448C61.4187 11.5106 61.3617 11.8017 61.3617 12.1054C61.3617 12.4978 61.4566 12.8268 61.6528 13.0863C61.849 13.3457 62.1021 13.5672 62.4248 13.7507C62.7412 13.9342 63.1082 14.0924 63.5069 14.2316C63.9119 14.3645 64.3232 14.5037 64.7472 14.6493C65.1712 14.7948 65.5825 14.9594 65.9875 15.1365C66.3925 15.32 66.7532 15.5479 67.0696 15.82C67.386 16.0984 67.6454 16.4338 67.8416 16.8388C68.0377 17.2438 68.1327 17.731 68.1327 18.3195C68.1327 18.9397 68.0251 19.5155 67.8163 20.0597C67.6074 20.6039 67.2974 21.0722 66.8924 21.4772C66.4874 21.8822 65.9938 22.1922 65.4053 22.4264C64.8168 22.6542 64.146 22.7744 63.3993 22.7744C62.4881 22.7744 61.6528 22.6099 60.8998 22.2745C60.1467 21.9455 59.5013 21.4962 58.9697 20.9266L59.5203 20.0217C59.5709 19.9521 59.6342 19.8889 59.7101 19.8382C59.786 19.7876 59.8683 19.7623 59.9632 19.7623C60.1024 19.7623 60.2606 19.8382 60.4378 19.9838C60.615 20.1293 60.8365 20.2938 61.1023 20.471C61.368 20.6482 61.6908 20.8127 62.0704 20.9583C62.4501 21.1038 62.9121 21.1798 63.4563 21.1798C63.9119 21.1798 64.3169 21.1165 64.6713 20.9899C65.0256 20.8634 65.3294 20.6862 65.5762 20.4647C65.8229 20.2432 66.0128 19.9648 66.1457 19.6484C66.2786 19.332 66.3418 18.984 66.3418 18.5916C66.3418 18.1613 66.2469 17.8133 66.0507 17.5412C65.8546 17.2691 65.6015 17.0413 65.2851 16.8577C64.9687 16.6742 64.608 16.516 64.203 16.3895C63.798 16.2629 63.3867 16.13 62.9627 15.9971C62.5387 15.8643 62.1274 15.7061 61.7224 15.5289C61.3174 15.3517 60.9567 15.1239 60.6403 14.8391C60.3239 14.5544 60.0708 14.2063 59.8746 13.776C59.6785 13.3457 59.5835 12.8268 59.5835 12.2003C59.5835 11.7004 59.6785 11.2195 59.8746 10.7512C60.0708 10.283 60.3492 9.87165 60.7163 9.51095C61.0833 9.15026 61.5389 8.85917 62.0831 8.64402C62.6273 8.42886 63.2475 8.32129 63.9499 8.32129C64.7409 8.32129 65.4559 8.44785 66.1077 8.69464C66.7595 8.94776 67.329 9.30846 67.8163 9.77673L67.3543 10.6816H67.367Z" fill="#00194C"/>
<path d="M72.8534 22.604H70.9424V8.47363H72.8534V22.604Z" fill="#00194C"/>
<path d="M82.9412 21.2119C83.3209 21.2119 83.6753 21.1929 83.9917 21.1549C84.3081 21.117 84.6118 21.0663 84.8966 20.9904C85.1813 20.9208 85.4471 20.8322 85.6939 20.7309C85.9407 20.6297 86.1938 20.5095 86.4406 20.3829V17.2695H84.2511C84.1246 17.2695 84.0233 17.2316 83.9474 17.162C83.8714 17.0924 83.8335 17.0038 83.8335 16.8962V15.8141H88.1745V21.2372C87.8201 21.4966 87.4468 21.7181 87.0671 21.908C86.6811 22.0978 86.2697 22.256 85.8331 22.3889C85.3965 22.5154 84.9282 22.6104 84.4283 22.6736C83.9284 22.7369 83.3842 22.7686 82.802 22.7686C81.7769 22.7686 80.834 22.5914 79.9797 22.2433C79.1254 21.889 78.3914 21.4017 77.7713 20.7626C77.1511 20.1298 76.6702 19.3704 76.3285 18.4782C75.9804 17.5923 75.8096 16.6114 75.8096 15.5483C75.8096 14.4852 75.9804 13.4854 76.3158 12.5995C76.6575 11.7136 77.1385 10.9542 77.7649 10.3151C78.3914 9.68228 79.1508 9.18869 80.043 8.84065C80.9352 8.49261 81.9287 8.31543 83.0361 8.31543C83.593 8.31543 84.1119 8.3534 84.5928 8.43566C85.0738 8.51793 85.5167 8.63816 85.928 8.79003C86.3394 8.9419 86.719 9.13174 87.0671 9.35322C87.4151 9.5747 87.7378 9.82149 88.0416 10.0999L87.4974 10.9669C87.3835 11.144 87.2379 11.2326 87.0607 11.2326C86.9532 11.2326 86.8393 11.1947 86.7127 11.1251C86.5482 11.0301 86.3647 10.9226 86.1622 10.7897C85.9597 10.6568 85.7129 10.5302 85.4155 10.41C85.1244 10.2898 84.7763 10.1822 84.3777 10.0999C83.979 10.0177 83.5107 9.97336 82.9602 9.97336C82.1629 9.97336 81.4478 10.1063 80.8024 10.3657C80.1569 10.6251 79.6064 10.9985 79.1571 11.4794C78.7015 11.9604 78.3534 12.5489 78.113 13.2323C77.8725 13.922 77.7459 14.6877 77.7459 15.542C77.7459 16.3963 77.8725 17.2316 78.1256 17.934C78.3787 18.6364 78.7331 19.2249 79.195 19.7121C79.657 20.1994 80.2012 20.5727 80.834 20.8259C81.4668 21.0853 82.1629 21.2119 82.9222 21.2119H82.9412Z" fill="#00194C"/>
<path d="M102.57 22.604H100.647V16.1748H93.0341V22.604H91.1104V8.47363H93.0341V14.7763H100.647V8.47363H102.57V22.604Z" fill="#00194C"/>
<path d="M115.65 8.47363V10.0809H111.088V22.604H109.177V10.0809H104.589V8.47363H115.65Z" fill="#00194C"/>
<path d="M138.817 19.7875H144.626V22.692H135.179V7.01758H138.817V19.7875Z" fill="#00194C"/>
<path d="M161.275 14.8452C161.275 15.978 161.078 17.0347 160.686 18.0092C160.294 18.9837 159.743 19.8317 159.034 20.5531C158.326 21.2745 157.471 21.8377 156.472 22.249C155.472 22.6603 154.364 22.8628 153.143 22.8628C151.922 22.8628 150.814 22.6603 149.808 22.249C148.802 21.8377 147.948 21.2745 147.233 20.5531C146.518 19.8317 145.967 18.9837 145.575 18.0092C145.183 17.0347 144.986 15.978 144.986 14.8452C144.986 13.7125 145.183 12.6558 145.575 11.6812C145.967 10.7067 146.518 9.85878 147.233 9.14372C147.948 8.42866 148.802 7.86547 149.808 7.45415C150.814 7.04283 151.922 6.84033 153.143 6.84033C154.364 6.84033 155.472 7.04916 156.472 7.46047C157.471 7.87179 158.326 8.43499 159.034 9.15638C159.743 9.87144 160.294 10.7194 160.686 11.6939C161.078 12.6684 161.275 13.7189 161.275 14.8452ZM157.554 14.8452C157.554 14.0732 157.452 13.3708 157.25 12.7507C157.047 12.1305 156.763 11.6053 156.383 11.175C156.003 10.7447 155.548 10.4156 155.004 10.1878C154.459 9.96003 153.839 9.84613 153.143 9.84613C152.447 9.84613 151.814 9.96003 151.264 10.1878C150.713 10.4156 150.251 10.7447 149.878 11.175C149.505 11.6053 149.213 12.1305 149.011 12.7507C148.808 13.3708 148.707 14.0669 148.707 14.8452C148.707 15.6236 148.808 16.326 149.011 16.9461C149.213 17.5663 149.498 18.0915 149.878 18.5218C150.258 18.9521 150.719 19.2812 151.264 19.509C151.814 19.7368 152.441 19.8507 153.143 19.8507C153.846 19.8507 154.459 19.7368 155.004 19.509C155.548 19.2812 156.01 18.9521 156.383 18.5218C156.756 18.0915 157.047 17.5663 157.25 16.9461C157.452 16.326 157.554 15.6236 157.554 14.8452Z" fill="#00194C"/>
<path d="M163.021 22.692V7.01758H168.786C169.868 7.01758 170.792 7.11883 171.552 7.32132C172.311 7.52382 172.931 7.80858 173.412 8.16927C173.893 8.5363 174.241 8.97926 174.463 9.50448C174.684 10.0297 174.792 10.6119 174.792 11.2573C174.792 11.6117 174.741 11.9471 174.64 12.2761C174.538 12.6052 174.38 12.9089 174.165 13.1937C173.95 13.4785 173.672 13.7379 173.336 13.972C173.001 14.2062 172.596 14.4087 172.121 14.5795C173.153 14.8326 173.918 15.2376 174.412 15.8008C174.905 16.364 175.152 17.0854 175.152 17.9713C175.152 18.6358 175.026 19.2559 174.766 19.8318C174.507 20.4076 174.127 20.9075 173.634 21.3315C173.134 21.7555 172.52 22.0909 171.786 22.3313C171.052 22.5718 170.216 22.692 169.28 22.692H163.021ZM166.66 13.6113H168.552C168.951 13.6113 169.318 13.5797 169.641 13.5228C169.963 13.4658 170.235 13.3646 170.463 13.219C170.691 13.0735 170.862 12.8773 170.982 12.6305C171.102 12.3837 171.159 12.0673 171.159 11.6813C171.159 11.2953 171.115 10.9979 171.02 10.7511C170.925 10.5043 170.786 10.3018 170.59 10.1563C170.394 10.0044 170.153 9.89681 169.856 9.83353C169.558 9.77025 169.204 9.73861 168.799 9.73861H166.666V13.6113H166.66ZM166.66 16.0413V19.9457H169.223C169.704 19.9457 170.096 19.8824 170.4 19.7622C170.704 19.6419 170.944 19.4837 171.115 19.2876C171.286 19.0914 171.406 18.8762 171.469 18.6294C171.533 18.389 171.564 18.1359 171.564 17.8891C171.564 17.6043 171.526 17.3449 171.45 17.1171C171.374 16.8892 171.248 16.6931 171.064 16.5349C170.881 16.3767 170.64 16.2564 170.337 16.1679C170.033 16.0793 169.653 16.0413 169.198 16.0413H166.66Z" fill="#00194C"/>
<path d="M191.719 22.692H188.903C188.586 22.692 188.327 22.6161 188.125 22.4705C187.922 22.325 187.776 22.1351 187.701 21.9073L186.777 19.1736H180.816L179.892 21.9073C179.822 22.1098 179.683 22.287 179.474 22.4515C179.265 22.6161 179.012 22.692 178.708 22.692H175.867L181.936 7.01758H185.657L191.725 22.692H191.719ZM181.651 16.6994H185.935L184.492 12.409C184.397 12.1369 184.29 11.8142 184.163 11.4472C184.037 11.0801 183.916 10.6752 183.79 10.2449C183.676 10.6815 183.556 11.0865 183.435 11.4598C183.315 11.8332 183.201 12.1559 183.094 12.428L181.651 16.6994Z" fill="#00194C"/>
<path d="M196.623 19.7875H202.432V22.692H192.984V7.01758H196.623V19.7875Z" fill="#00194C"/>
<defs>
<linearGradient id="paint0_linear_1911_2632" x1="33.918" y1="31.8045" x2="4.86623" y2="2.75267" gradientUnits="userSpaceOnUse">
<stop stop-color="#03B8DF"/>
<stop offset="1" stop-color="#1853A4"/>
</linearGradient>
</defs>
</svg>
