<svg width="40" height="40" viewBox="0 0 40 40" fill="none" xmlns="http://www.w3.org/2000/svg">
<path d="M36.5859 8.61638V28.2503C36.5859 29.6815 35.423 30.8667 33.9695 30.8667H5.81559C4.38441 30.8667 3.19922 29.6815 3.19922 28.2503V8.61638C3.19922 7.18521 4.36205 6 5.81559 6H33.9695C35.423 6 36.5859 7.16284 36.5859 8.61638ZM33.4775 26.0812V10.7855C33.4775 9.66739 32.516 8.75055 31.3308 8.75055H8.18597C7.00078 8.75055 6.03921 9.66739 6.03921 10.7855V26.0812C6.03921 27.1993 7.00078 28.1161 8.18597 28.1161H31.3308C32.516 28.1161 33.4775 27.1993 33.4775 26.0812Z" fill="#1853A4"/>
<path d="M31.3099 13.7151V15.6829L21.5377 21.184L17.1323 18.5453L12.4139 21.6313H9.2832L17.1323 16.5551L21.5377 19.1044L31.3099 13.7151Z" fill="#03B8DF"/>
<path d="M26.3001 31.7387C26.9039 31.7387 27.3959 32.2306 27.3959 32.8344C27.3959 33.4382 26.9039 33.9302 26.3001 33.9302H12.8829C12.2791 33.9302 11.7871 33.4382 11.7871 32.8344C11.7871 32.5437 11.9213 32.253 12.1002 32.0517C12.3014 31.8505 12.5698 31.7163 12.8829 31.7163H26.3001V31.7387Z" fill="#1853A4"/>
</svg>
