<svg width="40" height="40" viewBox="0 0 40 40" fill="none" xmlns="http://www.w3.org/2000/svg">
<path d="M32.9819 22.0015C36.8506 22.0015 39.9812 25.1322 39.9812 29.0008C39.9812 32.8695 36.8506 36.0002 32.9819 36.0002C30.3655 36.0002 28.0846 34.569 26.8994 32.4446C27.4361 32.0197 27.9057 31.5725 28.3529 31.0581C29.1356 32.8247 30.9246 34.077 32.9819 34.077C35.7772 34.077 38.0581 31.7961 38.0581 29.0008C38.0581 26.2055 35.7772 23.9246 32.9819 23.9246C32.2887 23.9246 31.6178 24.0588 31.014 24.3271C31.014 24.193 31.014 24.0588 31.014 23.9246C31.014 23.3879 30.9693 22.8512 30.9022 22.3145C31.5507 22.1133 32.2663 22.0015 32.9819 22.0015Z" fill="#1853A4"/>
<path d="M32.7588 25.7138C32.7588 25.7138 32.8035 25.535 32.8482 25.4679C32.9153 25.4008 33.0048 25.3784 33.0942 25.3784C33.2731 25.3784 33.4297 25.535 33.4297 25.7138V28.9787C33.4297 28.9787 33.4297 29.0011 33.4297 29.0234C33.4297 29.0011 33.4297 28.9787 33.4297 28.934C33.3849 28.7775 33.2507 28.688 33.0942 28.688C33.0718 28.688 33.0495 28.688 33.0048 28.688L32.7588 28.7551V25.7138V25.7138Z" fill="#1853A4"/>
<path d="M33.0942 29.3141C32.9153 29.3141 32.7588 29.1576 32.7588 28.9787V28.7551L33.0048 28.688C33.0048 28.688 33.0718 28.688 33.0942 28.688C33.2507 28.688 33.3849 28.7998 33.4297 28.934C33.4297 28.9563 33.4297 28.9787 33.4297 29.0234V29.0681C33.4297 29.0681 33.3849 29.18 33.3402 29.2247C33.2731 29.2918 33.206 29.3141 33.0942 29.3141V29.3141Z" fill="#1853A4"/>
<path d="M32.7585 28.9788C32.7585 29.1577 32.915 29.3143 33.0939 29.3143C33.1834 29.3143 33.2728 29.2696 33.3399 29.2248C33.3846 29.1801 33.4294 29.113 33.4294 29.0683C33.4294 29.2025 33.3176 29.3143 33.1834 29.359L30.008 30.164C30.008 30.164 29.9632 30.164 29.9185 30.164C29.762 30.164 29.6278 30.0746 29.5831 29.9181C29.5384 29.7392 29.6502 29.5603 29.8291 29.5155L32.7585 28.7776V29.0012V28.9788Z" fill="#1853A4"/>
<path d="M30.7465 21.42L29.2259 22.2698L28.7563 22.5381C28.4432 20.5255 27.4369 18.7589 25.9834 17.4619L26.5201 15.1362C27.5487 15.8742 28.4656 16.8134 29.1812 17.8868C29.8968 18.9602 30.4335 20.1453 30.7465 21.4424V21.42Z" fill="#03B8DF"/>
<path d="M31.0367 23.9248C31.0367 24.0589 31.0367 24.1931 31.0367 24.3273C29.7844 24.864 28.7781 25.8703 28.2861 27.1449C28.6887 26.161 28.8899 25.0652 28.8899 23.9248C28.8899 23.7459 28.8899 23.5446 28.8899 23.3657C29.1135 23.1868 29.3595 23.0303 29.6055 22.8961C30.0304 22.6501 30.4776 22.4712 30.9472 22.3147C31.0367 22.829 31.059 23.3657 31.059 23.9248H31.0367Z" fill="#1853A4"/>
<path d="M26.0946 30.2525C27.0339 29.3804 27.7718 28.3294 28.2414 27.1218C28.0178 27.7032 27.8836 28.3294 27.8836 28.9779C27.8836 29.7158 28.0401 30.4091 28.3085 31.0352C27.8612 31.5272 27.3693 31.9968 26.855 32.4216C26.6761 32.0862 26.5195 31.7508 26.3853 31.3706C26.2512 30.9905 26.1617 30.6327 26.0723 30.2525H26.0946Z" fill="#1853A4"/>
<path d="M28.8457 23.343C28.8457 23.5219 28.8457 23.7232 28.8457 23.9021C28.8457 25.0425 28.6221 26.1159 28.242 27.1222C27.7724 28.3298 27.0121 29.3808 26.0952 30.2529C26.0281 29.8504 25.9834 29.4255 25.9834 28.9783C25.9834 26.6526 27.1015 24.6177 28.8457 23.343V23.343Z" fill="#1853A4"/>
<path d="M25.4911 31.7516L26.0054 33.071C24.3283 34.122 22.3604 34.7481 20.236 34.7481C18.1116 34.7481 16.099 34.122 14.4219 33.0486L14.8468 32.02L15.2716 31.0137C16.6804 31.9976 18.4023 32.579 20.2584 32.579C22.1144 32.579 23.8363 31.9976 25.2451 31.0137L25.5359 31.7516H25.4911Z" fill="#03B8DF"/>
<path d="M25.2003 14.3086V16.8356C24.0599 16.0305 22.7182 15.4938 21.2646 15.3149L21.3764 15.136L20.8174 13.1011C22.3827 13.1905 23.8586 13.6154 25.178 14.2863L25.2003 14.3086Z" fill="#1853A4"/>
<path d="M25.2007 14.3091C23.8814 13.6159 22.4055 13.2134 20.8401 13.1239L20.2363 10.843L21.7122 10.2839C22.3831 10.4628 23.2552 10.7759 23.9485 11.335C24.664 11.894 25.2007 12.6767 25.2007 13.7724V14.2868V14.3091Z" fill="#1853A4"/>
<path d="M21.2646 15.3154C22.7181 15.4943 24.0598 16.031 25.2003 16.8361V17.574C25.2003 17.574 25.0661 19.2288 20.6832 19.2288H19.7886C15.3833 19.2288 15.2715 17.574 15.2715 17.574V16.8361C16.412 16.031 17.7537 15.4943 19.1849 15.3154L20.2359 16.8584L21.2869 15.3154H21.2646Z" fill="#1853A4"/>
<path d="M20.2135 4C21.6 4 22.7405 5.31937 22.7405 6.92944C22.7405 8.53951 21.6223 9.85888 20.2135 9.85888C18.8047 9.85888 17.709 8.53951 17.709 6.92944C17.709 5.31937 18.8271 4 20.2135 4Z" fill="#1853A4"/>
<path d="M20.2133 10.8424L19.5872 13.1233C18.0218 13.2127 16.5459 13.6376 15.2266 14.3085V13.7942C15.2266 11.5803 17.3957 10.6635 18.7374 10.3057L20.2133 10.8647V10.8424Z" fill="#1853A4"/>
<path d="M19.5872 13.124L19.0281 15.159L19.1399 15.3379C17.6864 15.5168 16.3447 16.0535 15.2266 16.8585V14.3316C16.5459 13.6607 18.0218 13.2358 19.5872 13.1464V13.124Z" fill="#1853A4"/>
<path d="M13.7282 15.2705L14.4438 17.4844C12.9903 18.7814 11.984 20.548 11.6709 22.5606L11.2013 22.2922L9.68066 21.4425C10.2621 18.9379 11.738 16.7688 13.7282 15.2705V15.2705Z" fill="#03B8DF"/>
<path d="M11.5819 23.3882C13.3038 24.6628 14.3995 26.6978 14.3995 29.0011C14.3995 29.426 14.3548 29.8285 14.2878 30.231C13.3709 29.3589 12.6329 28.2855 12.1633 27.1003C11.7832 26.1164 11.5596 25.043 11.5596 23.9249C11.5596 23.746 11.5596 23.5671 11.5596 23.3882H11.5819Z" fill="#1853A4"/>
<path d="M12.1635 27.1003C12.6331 28.3079 13.3711 29.3813 14.288 30.231C14.1985 30.723 14.0643 31.1926 13.8854 31.6399C13.7736 31.9082 13.6618 32.1542 13.5053 32.4225C12.991 31.9976 12.499 31.528 12.0518 31.0361C12.3201 30.4099 12.4766 29.7167 12.4766 29.0011C12.4766 28.3303 12.3425 27.7041 12.1188 27.1227H12.1635V27.1003Z" fill="#1853A4"/>
<path d="M12.0511 31.0135C12.4983 31.5279 12.9903 31.9751 13.5046 32.4C12.3194 34.5244 10.0161 35.9779 7.39975 35.9779C3.5311 35.9779 0.400391 32.8472 0.400391 28.9786C0.400391 25.1099 3.5311 21.9792 7.39975 21.9792C8.1377 21.9792 8.85329 22.0911 9.50179 22.3147C9.41235 22.829 9.38998 23.3657 9.38998 23.9024C9.38998 24.0366 9.38998 24.1707 9.38998 24.3273C8.7862 24.0589 8.09295 23.9024 7.37736 23.9024C4.5821 23.9024 2.30119 26.1833 2.30119 28.9786C2.30119 31.7739 4.5821 34.0548 7.37736 34.0548C9.45704 34.0548 11.246 32.8025 12.0287 31.0135H12.0511Z" fill="#1853A4"/>
<path d="M12.1179 27.1002C11.626 25.8479 10.642 24.8416 9.41211 24.3273C9.41211 24.1931 9.41211 24.0589 9.41211 23.9024C9.41211 23.3657 9.45684 22.829 9.52393 22.3147C9.99353 22.4489 10.4408 22.6501 10.8656 22.8961C11.1116 23.0303 11.3576 23.1868 11.5812 23.3657C11.5812 23.5446 11.5812 23.7235 11.5812 23.9024C11.5812 25.0205 11.7825 26.0939 12.185 27.0778H12.1403L12.1179 27.1002Z" fill="#1853A4"/>
<path d="M7.22111 28.1285V26.8315C6.99749 26.8762 6.81858 26.9656 6.6844 27.0551C6.55023 27.1445 6.5055 27.3011 6.5055 27.48C6.5055 27.6589 6.57259 27.793 6.6844 27.8825C6.79621 27.9719 6.97512 28.0614 7.22111 28.1285V28.1285ZM7.73543 30.633C8.00377 30.5883 8.20503 30.4989 8.36156 30.3647C8.5181 30.2305 8.5852 30.074 8.5852 29.8727C8.5852 29.6715 8.51812 29.5373 8.38395 29.4255C8.22741 29.3137 8.02612 29.2242 7.75778 29.1571V30.6554L7.73543 30.633ZM8.47338 26.3171C8.67464 26.3842 8.85355 26.496 9.01008 26.6526C9.1219 26.7644 9.21132 26.8762 9.30077 27.0104C9.36786 27.1445 9.39024 27.2564 9.39024 27.3458C9.39024 27.4576 9.3455 27.5471 9.23369 27.6365C9.14424 27.726 9.01006 27.7707 8.87588 27.7707C8.60754 27.7707 8.45101 27.6589 8.36156 27.4129C8.27212 27.1222 8.07087 26.9433 7.71308 26.8538V28.2627C8.04851 28.3297 8.31686 28.4192 8.51812 28.4639C8.71937 28.531 8.89825 28.6204 9.05478 28.7323C9.21132 28.8664 9.34549 29.0006 9.43494 29.1795C9.52439 29.3584 9.56914 29.5373 9.56914 29.7609C9.56914 30.0069 9.50204 30.2529 9.3455 30.4765C9.21133 30.7001 8.98771 30.879 8.71937 31.0356C8.42866 31.1697 8.1156 31.2592 7.71308 31.2815V32.1313C7.71308 32.2655 7.71307 32.3549 7.66834 32.422C7.62362 32.4891 7.5789 32.5115 7.46709 32.5115C7.37764 32.5115 7.31057 32.4891 7.26584 32.4444C7.22112 32.3996 7.19872 32.3102 7.19872 32.2207V31.3039C6.88565 31.2592 6.61732 31.2145 6.37134 31.125C6.14771 31.0356 5.94647 30.9014 5.78993 30.7672C5.6334 30.633 5.52158 30.4765 5.43213 30.32C5.36504 30.1634 5.32031 30.0069 5.32031 29.8727C5.32031 29.7609 5.36505 29.6715 5.47686 29.582C5.58867 29.4926 5.70048 29.4478 5.85702 29.4478C5.99119 29.4478 6.08064 29.4702 6.17008 29.5149C6.25953 29.5597 6.30426 29.6267 6.34899 29.7162C6.41607 29.8951 6.48316 30.0516 6.52789 30.1411C6.57261 30.2305 6.66206 30.32 6.77387 30.4094C6.88568 30.4989 7.01983 30.5436 7.19872 30.5883V29.0006C6.84093 28.9112 6.52787 28.8217 6.30425 28.7099C6.05827 28.5981 5.87938 28.4639 5.72285 28.2627C5.56631 28.0838 5.49921 27.8378 5.49921 27.5247C5.49921 27.1445 5.65574 26.8091 5.94645 26.5631C6.23716 26.3171 6.66205 26.1606 7.22111 26.1382V25.7805C7.22111 25.5792 7.31056 25.4897 7.46709 25.4897C7.62363 25.4897 7.71308 25.5792 7.71308 25.7805V26.1382C8.00378 26.1606 8.24977 26.2053 8.45103 26.2948L8.47338 26.3171Z" fill="#1853A4"/>
</svg>
