<svg width="40" height="40" viewBox="0 0 40 40" fill="none" xmlns="http://www.w3.org/2000/svg">
<path d="M36.8801 14.2242V29.9001C36.8801 31.5549 35.5384 32.8966 33.8836 32.8966H32.2959V11.2053H33.8836C35.5384 11.2053 36.8801 12.5471 36.8801 14.2242Z" fill="#1853A4"/>
<path d="M24.4692 6.80005C25.2071 6.80005 25.8109 7.40383 25.8109 8.14178C25.8109 8.87973 25.2071 9.48351 24.4692 9.48351H15.3007C14.9206 9.48351 14.5851 9.32697 14.3615 9.08099C14.1155 8.835 13.959 8.49957 13.959 8.14178C13.959 7.40383 14.5628 6.80005 15.3007 6.80005H24.4692Z" fill="#1853A4"/>
<path d="M21.6955 22.2965C21.9862 22.5201 22.1428 22.8108 22.1428 23.2133C22.1428 23.6158 21.9862 23.9065 21.6955 24.1749C21.4048 24.4432 20.98 24.6445 20.4209 24.7339V21.7598C20.98 21.9163 21.4272 22.0952 21.7179 22.2965H21.6955Z" fill="#1853A4"/>
<path d="M17.5143 20.9548C18.0062 21.1561 18.6324 21.335 19.3703 21.5139V24.6669C18.9902 24.5775 18.6994 24.4657 18.4758 24.2868C18.2522 24.1302 18.0957 23.9513 17.9839 23.7501C17.872 23.5488 17.7379 23.2805 17.6037 22.9003C17.5366 22.7214 17.4248 22.5873 17.2459 22.4978C17.067 22.4084 16.8658 22.3636 16.6198 22.3636C16.3067 22.3636 16.0607 22.4531 15.8595 22.632C15.6582 22.8109 15.5464 23.0121 15.5464 23.2134C15.5464 23.5041 15.6135 23.7948 15.77 24.1079C15.9265 24.3986 16.1502 24.7117 16.4856 24.98C16.7987 25.2707 17.2012 25.4943 17.6932 25.6956C18.1628 25.8969 18.7442 26.0087 19.3703 26.0758V27.9094C19.3703 28.1107 19.415 28.2672 19.4821 28.3791C19.5716 28.4685 19.7057 28.5356 19.907 28.5356C20.1306 28.5356 20.2648 28.4685 20.3319 28.3567C20.399 28.2225 20.4213 28.0436 20.4213 27.7753V26.0758C21.204 26.031 21.8749 25.8521 22.4563 25.5614C23.0377 25.2707 23.4626 24.9129 23.7533 24.4657C24.044 24.0184 24.2005 23.5265 24.2005 23.0121C24.2005 22.6096 24.1111 22.2295 23.9322 21.8717C23.7533 21.5139 23.4849 21.2232 23.1495 20.9772C22.8364 20.7312 22.4786 20.5523 22.0761 20.4181C21.6736 20.284 21.1369 20.1498 20.4437 19.9933V17.1756C21.1369 17.3545 21.5618 17.7347 21.7631 18.2937C21.9196 18.7633 22.2774 19.0093 22.8141 19.0093C23.1048 19.0093 23.3508 18.9199 23.552 18.7633C23.7533 18.6068 23.8427 18.4055 23.8427 18.1819C23.8427 17.9807 23.7757 17.757 23.6415 17.5111C23.5073 17.2651 23.306 17.0191 23.0601 16.7955C22.747 16.5048 22.3892 16.2588 21.9643 16.1246C21.5394 15.9681 21.0475 15.8786 20.4437 15.8339V15.0959C20.4437 14.7158 20.2648 14.5369 19.907 14.5369C19.5492 14.5369 19.3927 14.7381 19.3927 15.1183V15.8339C18.2522 15.9233 17.3801 16.2141 16.7763 16.706C16.1725 17.198 15.8818 17.8465 15.8818 18.6068C15.8818 19.1882 16.0384 19.6802 16.3514 20.0603C16.6645 20.4405 17.067 20.7312 17.559 20.9325L17.5143 20.9548ZM29.7016 11.2273V32.9186H9.91113V11.2273H29.7016Z" fill="#1853A4"/>
<path d="M18.2737 17.6001C18.5421 17.4212 18.8998 17.2646 19.3471 17.1528V19.7468C18.8551 19.5903 18.475 19.4338 18.2513 19.2549C18.0054 19.076 17.8936 18.8076 17.8936 18.4498C17.8936 18.092 18.0277 17.8013 18.2737 17.6001Z" fill="#1853A4"/>
<path d="M20.3992 24.7346C20.9582 24.6451 21.3831 24.4662 21.6738 24.1755C21.9869 23.9072 22.121 23.5941 22.121 23.214C22.121 22.8338 21.9645 22.5207 21.6738 22.2971C21.3831 22.0735 20.9582 21.8946 20.3768 21.7604V24.7346H20.3992ZM19.3481 17.1538C18.8785 17.2656 18.5207 17.4222 18.2748 17.6011C18.0288 17.78 17.8946 18.0707 17.8946 18.4508C17.8946 18.831 18.0064 19.077 18.2524 19.2559C18.4984 19.4348 18.8562 19.6137 19.3481 19.7478V17.1538ZM17.5815 22.9009C17.7381 23.281 17.8499 23.5494 17.9617 23.7507C18.0735 23.9519 18.23 24.1308 18.4537 24.2873C18.6773 24.4439 18.968 24.5781 19.3481 24.6675V21.5144C18.6102 21.3355 18.0064 21.1566 17.4921 20.9554C17.0001 20.7541 16.5976 20.4634 16.2845 20.0833C15.9715 19.7031 15.8149 19.2111 15.8149 18.6297C15.8149 17.847 16.1056 17.2209 16.7094 16.7289C17.3132 16.237 18.1853 15.9463 19.3258 15.8568V15.1412C19.3258 14.7611 19.5047 14.5598 19.8401 14.5598C20.1755 14.5598 20.3768 14.7387 20.3768 15.1189V15.8568C20.9582 15.9015 21.4725 16.0134 21.8974 16.1475C22.3223 16.3041 22.6801 16.5277 22.9932 16.8184C23.2392 17.042 23.4404 17.288 23.5746 17.534C23.7088 17.78 23.7758 18.0036 23.7758 18.2048C23.7758 18.4285 23.664 18.6297 23.4851 18.7863C23.2839 18.9652 23.0379 19.0322 22.7472 19.0322C22.2105 19.0322 21.8527 18.7863 21.6962 18.3167C21.5173 17.7576 21.07 17.3774 20.3768 17.1985V20.0162C21.0477 20.1727 21.6067 20.3069 22.0092 20.4411C22.4118 20.5752 22.7696 20.7541 23.0826 21.0001C23.4181 21.2461 23.6864 21.5368 23.8653 21.8946C24.0442 22.23 24.1336 22.6102 24.1336 23.0351C24.1336 23.5494 23.9771 24.0414 23.6864 24.4886C23.3957 24.9358 22.9708 25.2936 22.3894 25.5843C21.8303 25.8751 21.1371 26.0316 20.3544 26.0987V27.7982C20.3544 28.0665 20.3097 28.2678 20.265 28.3796C20.1979 28.4914 20.0637 28.5585 19.8401 28.5585C19.6389 28.5585 19.5047 28.5138 19.4152 28.402C19.3258 28.2902 19.3034 28.156 19.3034 27.9324V26.0987C18.6549 26.0316 18.0959 25.9198 17.6263 25.7185C17.1567 25.5396 16.7541 25.2936 16.4187 25.0029C16.0833 24.7122 15.8596 24.4215 15.7031 24.1308C15.5466 23.8177 15.4795 23.527 15.4795 23.2363C15.4795 23.0127 15.5913 22.8338 15.7926 22.6549C15.9938 22.476 16.2622 22.3866 16.5529 22.3866C16.7989 22.3866 17.0001 22.4313 17.179 22.5207C17.3579 22.6102 17.4697 22.7444 17.5368 22.9233L17.5815 22.9009Z" fill="#03B8DF"/>
<path d="M7.31695 11.2053V32.8966H5.79633C4.14153 32.8966 2.7998 31.5549 2.7998 29.9001V14.2242C2.7998 12.5694 4.14153 11.2053 5.79633 11.2053H7.31695Z" fill="#1853A4"/>
</svg>
