<svg width="50" height="50" viewBox="0 0 50 50" fill="none" xmlns="http://www.w3.org/2000/svg">
<path d="M33.3857 25.814C33.325 25.814 33.2643 25.814 33.2137 25.7937C32.8091 25.6926 32.5664 25.288 32.6574 24.8935C33.1733 22.7592 31.8077 20.5136 29.6835 19.9775C28.0955 19.583 26.4568 20.2001 25.5161 21.5656C25.2835 21.9095 24.8081 21.9904 24.4743 21.7578C24.1303 21.5251 24.0494 21.0497 24.2821 20.7159C25.5869 18.8345 27.8527 17.9848 30.0477 18.5311C33.0114 19.2695 34.8321 22.2838 34.114 25.2475C34.033 25.5914 33.7195 25.8241 33.3857 25.8241V25.814Z" fill="#03B8DF"/>
<path d="M35.4187 32.9453C34.4274 32.9453 33.4766 32.5913 32.7078 31.9338C31.8582 31.2055 31.3423 30.194 31.2614 29.0915C31.231 28.6767 31.5345 28.3227 31.9492 28.2822C32.374 28.2519 32.7179 28.5554 32.7584 28.9701C32.809 29.6781 33.1428 30.3255 33.689 30.7908C34.2352 31.2561 34.9332 31.4887 35.6311 31.428C36.7134 31.3471 37.6137 30.5986 37.9374 29.5466C38.0587 29.1521 38.4735 28.9296 38.8679 29.0409C39.2624 29.1623 39.485 29.577 39.3737 29.9715C38.8781 31.6303 37.4518 32.7835 35.7525 32.9251C35.6412 32.9251 35.53 32.9352 35.4288 32.9352L35.4187 32.9453Z" fill="#03B8DF"/>
<path d="M43.9357 25.9962C42.9444 25.9962 41.9936 25.6422 41.2349 24.9847C40.3853 24.2564 39.8694 23.2449 39.7885 22.1423C39.7581 21.7276 40.0616 21.3736 40.4763 21.3331C40.9011 21.2927 41.245 21.6164 41.2855 22.021C41.3361 22.729 41.6699 23.3764 42.2161 23.8417C42.7623 24.307 43.4603 24.5396 44.1582 24.4789C45.2405 24.398 46.1408 23.6495 46.4644 22.5975C46.5858 22.203 47.0006 21.9805 47.395 22.0918C47.7895 22.2131 48.0121 22.6279 47.9008 23.0224C47.4052 24.6812 45.9789 25.8344 44.2796 25.976C44.1683 25.976 44.0571 25.9861 43.9458 25.9861L43.9357 25.9962Z" fill="#03B8DF"/>
<path d="M18.0101 19.2193C17.474 19.2193 16.9277 19.108 16.4119 18.8956C15.3801 18.4708 14.5911 17.6717 14.1764 16.65C14.0247 16.2657 14.2068 15.8307 14.5911 15.6689C14.9755 15.5171 15.4105 15.6992 15.5723 16.0836C15.8353 16.731 16.3411 17.2367 16.9986 17.5098C17.6661 17.7829 18.3843 17.7829 19.0418 17.5098C20.0432 17.085 20.6805 16.0937 20.6703 14.981C20.6703 14.5663 20.994 14.2224 21.4087 14.2224C21.4087 14.2224 21.4087 14.2224 21.4189 14.2224C21.8235 14.2224 22.1573 14.5461 22.1674 14.9608C22.1977 16.6905 21.1963 18.2381 19.6285 18.8956C19.1126 19.108 18.5664 19.2193 18.0303 19.2193H18.0101Z" fill="#03B8DF"/>
<path d="M11.9114 28.879C11.5877 28.879 11.2843 28.6666 11.1932 28.3328C10.5762 26.1277 11.3247 23.8113 13.1151 22.4154C14.2884 21.4949 15.7551 21.1005 17.2319 21.3028C18.6784 21.4949 19.963 22.2435 20.8329 23.3966C21.0858 23.7304 21.015 24.1957 20.6812 24.4486C20.3474 24.7014 19.8821 24.6306 19.6292 24.2968C19.0021 23.4573 18.0715 22.9212 17.0296 22.7796C15.9574 22.638 14.8852 22.9212 14.0356 23.5888C12.7307 24.6104 12.1845 26.3097 12.6397 27.9181C12.7509 28.3125 12.5183 28.7273 12.1238 28.8385C12.053 28.8588 11.9923 28.8689 11.9215 28.8689L11.9114 28.879Z" fill="#03B8DF"/>
<path d="M23.4932 41.3814C20.0439 41.3814 17.0903 39.0752 16.1395 35.8383C15.2493 36.1923 14.3086 36.3744 13.3477 36.3744C9.10945 36.3744 5.6602 32.8746 5.6602 28.5655C5.6602 28.1913 5.68043 27.8271 5.731 27.463C3.08084 26.5627 1.25 24.0441 1.25 21.1208C1.25 17.6007 3.93051 14.7078 7.32919 14.4448C8.34071 11.997 10.7481 10.3381 13.4084 10.3381C14.8144 10.3381 16.1395 10.773 17.2521 11.5924C18.6581 9.83232 20.9745 8.75 23.4831 8.75C25.7488 8.75 27.8932 9.65025 29.3195 11.1574C30.3512 10.3684 31.6156 9.93347 32.9205 9.93347C35.955 9.93347 38.4636 12.2195 38.8783 15.1832C39.5459 14.991 40.2438 14.9 40.9418 14.9C45.18 14.9 48.6293 18.3998 48.6293 22.7089C48.6293 24.9646 47.6582 27.1191 45.9892 28.5959C46.0297 28.8892 46.06 29.1927 46.06 29.4961C46.06 32.2879 44.1685 34.6144 41.5487 35.1808C40.4967 38.3064 37.5937 40.4407 34.286 40.4407C32.4653 40.4407 30.7255 39.7933 29.3599 38.62C27.9135 40.3497 25.7691 41.3814 23.4932 41.3814ZM16.8678 33.2994C17.0195 33.2994 17.1712 33.3298 17.3128 33.4006C17.6365 33.5523 17.8489 33.8659 17.8894 34.2098C18.203 37.133 20.6104 39.3381 23.4932 39.3381C25.4656 39.3381 27.3268 38.2558 28.3383 36.5261C28.5103 36.2429 28.8036 36.0507 29.1374 36.0204C29.4611 35.99 29.7949 36.1215 30.0073 36.3845C31.0795 37.659 32.6474 38.3974 34.2961 38.3974C36.8957 38.3974 39.1514 36.5969 39.7684 34.0277C39.8696 33.6029 40.2337 33.2893 40.6687 33.2488C42.5804 33.0769 44.0269 31.4585 44.0269 29.486C44.0269 29.132 43.9763 28.7881 43.8954 28.4644C43.7841 28.0598 43.9257 27.6248 44.2696 27.372C45.7262 26.2896 46.6062 24.5397 46.6062 22.7089C46.6062 19.5327 44.0774 16.9433 40.962 16.9433C40.0516 16.9433 39.1817 17.1557 38.3725 17.5906C38.0387 17.7727 37.624 17.7423 37.3104 17.5299C36.9969 17.3074 36.835 16.9331 36.8856 16.5488C36.9058 16.3869 36.9159 16.215 36.9159 16.0329C36.9159 13.7974 35.1357 11.9767 32.9407 11.9767C31.8179 11.9767 30.7457 12.4623 29.9972 13.322C29.7848 13.5648 29.4813 13.6862 29.1576 13.666C28.8441 13.6457 28.5507 13.4738 28.3788 13.2108C27.3976 11.7238 25.5263 10.7933 23.5033 10.7933C21.278 10.7933 19.2752 11.8958 18.385 13.6053C18.2333 13.8986 17.9501 14.1009 17.6163 14.1515C17.2926 14.1919 16.9588 14.0807 16.7261 13.8379C15.8562 12.9073 14.6829 12.3914 13.4185 12.3914C11.4056 12.3914 9.61521 13.7671 9.04876 15.7396C8.91727 16.215 8.45197 16.5285 7.95633 16.478C7.92598 16.478 7.88552 16.478 7.84506 16.478C5.33651 16.478 3.29326 18.5617 3.29326 21.1309C3.29326 23.4169 4.89145 25.3489 7.09654 25.7232C7.37977 25.7738 7.63265 25.9356 7.79449 26.1885C7.94622 26.4312 7.99679 26.7347 7.91587 27.0179C7.77426 27.5136 7.70345 28.0395 7.70345 28.5858C7.70345 31.7619 10.2322 34.3514 13.3477 34.3514C14.3997 34.3514 15.4314 34.0479 16.3317 33.4815C16.5036 33.3803 16.6857 33.3196 16.8779 33.3196L16.8678 33.2994Z" fill="#1853A4"/>
<path d="M14.3284 35.7977C13.9136 35.7977 13.5798 35.4639 13.5798 35.0492C13.5798 34.6344 13.9136 34.3006 14.3284 34.3006C16.5132 34.3006 18.2834 32.4496 18.2834 30.1737C18.2834 28.4946 17.2921 27.0177 15.7748 26.4108C15.3904 26.2591 15.2084 25.8242 15.3601 25.4398C15.5118 25.0554 15.9468 24.8733 16.3311 25.0251C18.425 25.8646 19.7905 27.8876 19.7905 30.1838C19.7905 33.279 17.3427 35.8078 14.3385 35.8078L14.3284 35.7977Z" fill="#1853A4"/>
<path d="M33.4659 40.107C30.6741 40.107 28.287 37.7502 28.0341 34.8674C25.7784 34.1593 24.2004 32.025 24.2004 29.5772C24.2004 27.4631 25.3536 25.5615 27.2147 24.6208C27.589 24.4286 28.0341 24.5803 28.2263 24.9546C28.4184 25.3288 28.2667 25.7739 27.8925 25.9661C26.537 26.6539 25.6975 28.0397 25.6975 29.5873C25.6975 31.5294 27.0529 33.1984 28.9141 33.5625C29.3187 33.6435 29.5817 34.0278 29.5109 34.4324C29.5412 36.7185 31.3417 38.6201 33.4659 38.6201C33.8806 38.6201 34.2144 38.9539 34.2144 39.3686C34.2144 39.7833 33.8806 40.1171 33.4659 40.1171V40.107Z" fill="#1853A4"/>
</svg>
