<svg width="50" height="50" viewBox="0 0 50 50" fill="none" xmlns="http://www.w3.org/2000/svg">
<path d="M35.5822 48.7317C30.0566 48.7317 25.4614 44.4315 23.5099 42.2644C22.8632 41.5496 22.1257 40.9142 21.3428 40.3696L16.8497 37.2948C16.0555 36.7275 15.5449 35.9106 15.3861 34.9688C15.2272 34.0271 15.4428 33.074 15.9988 32.2911C16.2711 31.9167 16.6909 31.599 17.2468 31.3608C17.4738 31.2586 17.7347 31.1679 18.0411 31.0885C19.5388 30.68 21.1726 30.9183 22.5341 31.7352L21.6832 29.9198L17.4738 20.1735C17.088 19.2771 17.0767 18.2333 17.4397 17.3029C17.8028 16.4066 18.4722 15.7144 19.3232 15.3514C20.1968 14.9769 21.1613 14.9656 22.0349 15.3173C22.9199 15.6691 23.6234 16.3385 23.9978 17.2235L26.1876 22.6356C26.4259 21.7846 26.9478 21.0017 27.9349 20.5025C28.6384 20.1394 29.478 20.094 30.2722 20.3777C30.9643 20.6273 31.5884 21.1039 32.0309 21.7052C32.3032 20.9337 32.8024 20.2415 33.7555 19.9806C35.4234 19.504 37.1253 20.1735 37.9422 21.5917C38.4755 20.911 39.2697 20.4231 40.2001 20.2529C41.8793 19.9465 43.4791 20.7635 44.1145 22.2158C44.2053 22.4314 44.2847 22.6696 44.3187 22.9079L45.8278 30.3056C45.8278 30.3056 45.8391 30.3963 45.8505 30.4077C45.9072 30.6913 45.9639 31.0431 46.0207 31.4969C46.4291 34.6171 47.1553 45.0215 39.4285 47.9942C38.1124 48.4934 36.8303 48.7204 35.5936 48.7204L35.5822 48.7317ZM19.4934 32.3252C19.1303 32.3252 18.7559 32.3706 18.4041 32.4727C18.1999 32.5294 17.9843 32.5975 17.8028 32.6769C17.4057 32.8471 17.2355 33.0173 17.1561 33.1308C16.827 33.596 16.6909 34.1746 16.7817 34.7419C16.8724 35.3092 17.1901 35.7971 17.6553 36.1375L22.137 39.2009C23.022 39.8023 23.8276 40.5171 24.5538 41.3113C26.7549 43.7394 32.5528 49.1175 38.8839 46.6781C45.6462 44.0798 44.9428 34.5604 44.5683 31.7011C44.5116 31.27 44.4662 30.9523 44.4322 30.7481L42.8891 23.2029C42.8664 23.0554 42.821 22.9306 42.7757 22.8171C42.4126 21.9775 41.4255 21.5123 40.427 21.6939C39.4059 21.8754 38.6457 22.6923 38.6343 23.6114C38.6343 23.9631 38.3734 24.2467 38.033 24.3035C37.6926 24.3602 37.3635 24.156 37.2387 23.8383L36.8643 22.7717C36.8416 22.6923 36.8189 22.6356 36.7849 22.5789C36.3537 21.5804 35.2305 21.0812 34.1186 21.3989C33.2449 21.6485 33.1428 22.8512 33.0974 24.1673C33.0974 24.3262 33.0974 24.4623 33.0747 24.5985C33.052 24.9388 32.7911 25.2225 32.4507 25.2679C32.1103 25.3133 31.7812 25.109 31.6791 24.78L31.1686 23.2256C31.1459 23.1575 31.1232 23.1008 31.1005 23.044C30.8509 22.4654 30.3403 21.9775 29.7616 21.7733C29.4666 21.6712 29.0241 21.5917 28.5589 21.8187C27.0159 22.6129 27.3336 24.6438 27.7534 26.4933L27.8328 26.845C27.9122 27.2081 27.6966 27.5712 27.3449 27.6846C26.9818 27.7867 26.6074 27.6165 26.4713 27.2648L22.659 17.8248C22.432 17.3142 22.0236 16.9058 21.4903 16.7015C20.957 16.486 20.3897 16.4973 19.8565 16.7242C19.3572 16.9398 18.9601 17.3483 18.7445 17.8815C18.5176 18.4489 18.5176 19.0956 18.7559 19.6515L23.4872 30.5098L25.019 33.7775C25.1551 34.0725 25.0757 34.4356 24.8147 34.6398C24.5538 34.844 24.1907 34.844 23.9297 34.6398C23.3057 34.1519 22.7157 33.6981 22.2051 33.301C21.3995 32.6883 20.4351 32.3592 19.4707 32.3592L19.4934 32.3252Z" fill="#1853A4" stroke="#1853A4" stroke-width="0.625001"/>
<path d="M15.1139 24.8703C14.887 24.8703 14.6601 24.7909 14.4785 24.6434C12.4476 22.9642 11.2903 20.4794 11.2903 17.8471C11.2903 12.9796 15.2501 9.01978 20.1176 9.01978C24.293 9.01978 27.9237 11.9811 28.7633 16.0657C28.8768 16.6103 28.5251 17.1323 27.9918 17.2457C27.4472 17.3478 26.9253 17.0075 26.8118 16.4742C26.1651 13.3086 23.3512 11.0167 20.1176 11.0167C16.3507 11.0167 13.2872 14.0802 13.2872 17.8471C13.2872 19.8894 14.1835 21.8069 15.7607 23.1117C16.1805 23.4634 16.2372 24.0875 15.8855 24.5186C15.6926 24.7569 15.4089 24.8817 15.1139 24.8817V24.8703Z" fill="#03B8DF"/>
<path d="M11.7671 32.098C11.5516 32.098 11.3246 32.0413 11.1204 31.9051C6.30965 28.819 3.42773 23.5657 3.42773 17.8473C3.42773 8.65691 10.9162 1.16846 20.1066 1.16846C27.8446 1.16846 34.5162 6.42172 36.3315 13.9329C36.4904 14.5796 36.0933 15.215 35.4465 15.3738C34.7998 15.5327 34.1644 15.1356 34.0056 14.4888C32.4625 8.04422 26.7441 3.55115 20.1066 3.55115C12.2323 3.56249 5.82177 9.97306 5.82177 17.8473C5.82177 22.7488 8.28388 27.2532 12.4252 29.8969C12.9812 30.2486 13.14 30.9861 12.7883 31.5421C12.5614 31.8938 12.1756 32.098 11.7785 32.098H11.7671Z" fill="#03B8DF"/>
</svg>
