<svg width="50" height="50" viewBox="0 0 50 50" fill="none" xmlns="http://www.w3.org/2000/svg">
<path d="M35.3666 28.7734C35.2336 28.7734 35.1007 28.7402 34.9788 28.6848C33.0619 27.7208 32.5079 25.4272 33.5052 22.5353C33.8154 21.6378 32.5744 19.4551 30.7019 18.7238C30.0371 18.4689 29.1064 18.0257 28.785 17.1393C28.4194 16.1643 28.9402 15.2114 29.5385 14.1145L29.6271 13.9483C30.857 11.7544 32.7628 11.2669 35.289 12.4968C35.6768 12.663 36.0425 12.807 36.4081 12.8957C36.8846 13.0175 37.1727 13.494 37.0508 13.9593C36.9289 14.4358 36.4525 14.7239 35.9871 14.602C35.5439 14.4912 35.1007 14.3361 34.5467 14.0923C32.5855 13.1394 31.8099 13.6602 31.1673 14.8014C30.7573 15.5549 30.3473 16.2972 30.436 16.5188C30.436 16.541 30.5468 16.7626 31.3335 17.0728C33.9151 18.0811 35.8541 21.1171 35.1672 23.1004C34.9123 23.8428 34.2032 26.3136 35.7655 27.1003C36.1976 27.3219 36.3749 27.8427 36.1644 28.2859C36.0092 28.5961 35.699 28.7734 35.3777 28.7734H35.3666Z" fill="#03B8DF"/>
<path d="M28.0545 9.64925C27.6889 9.64925 27.3343 9.54953 27.0462 9.29469C26.7471 9.02877 26.4368 8.508 26.7028 7.55511C26.9022 6.83491 27.4008 5.98174 28.0435 5.2837C28.3759 4.92913 28.9299 4.89589 29.2844 5.2283C29.639 5.5607 29.6722 6.1147 29.3398 6.46927C28.9631 6.87923 28.6418 7.37783 28.4756 7.79888C28.5864 7.76564 28.7083 7.72132 28.8745 7.65483C30.1487 7.08975 31.0905 7.04543 31.9215 7.01219C32.8854 6.96787 33.7165 6.92355 35.179 6.0593C35.6001 5.81554 36.1319 5.9485 36.3868 6.36955C36.6305 6.79059 36.4976 7.32243 36.0765 7.57727C34.2372 8.6742 33.0517 8.7296 31.999 8.77392C31.2234 8.80716 30.5476 8.8404 29.5503 9.28361C29.1071 9.46089 28.5642 9.64925 28.0435 9.64925H28.0545Z" fill="#03B8DF"/>
<path d="M21.2946 29.2941C21.0286 29.2941 20.7405 29.2498 20.4414 29.15C16.9955 27.9977 14.8792 21.4494 14.5579 18.358C14.3252 15.6656 12.4526 13.1393 10.3807 12.7072C9.90423 12.6075 9.59398 12.1421 9.69371 11.6657C9.79343 11.1892 10.2699 10.8901 10.7352 10.9787C13.5607 11.566 16.0094 14.7349 16.2974 18.1918C16.6298 21.3718 18.6686 26.7124 20.9843 27.4769C21.2281 27.5545 21.3389 27.5323 21.35 27.5213C21.6713 27.2997 21.7267 25.7263 21.7599 24.8842C21.8153 23.5324 21.8596 22.1253 22.4469 21.2056C22.9898 20.3303 23.6989 19.732 24.3194 19.2112C25.1837 18.491 25.6823 18.0478 25.782 17.2168C25.7931 17.106 25.782 16.9398 25.6269 16.7293C24.9731 15.8872 22.7239 15.1448 19.7655 14.7903C17.0509 14.4689 14.9457 14.0368 14.5468 11.7876C14.4581 11.3997 14.5468 10.9787 14.7905 10.6463C15.3889 9.82638 16.7628 9.7045 18.5134 9.54938C19.5993 9.44966 20.7184 9.34993 21.5716 9.08401C21.771 9.01753 22.0148 8.91781 22.0812 8.75161C22.3139 8.17545 21.3721 6.50235 21.0729 5.94835C20.8403 5.52731 20.9843 4.98438 21.4164 4.7517C21.8375 4.50794 22.3804 4.66306 22.6131 5.09518C23.6324 6.9234 24.1754 8.27517 23.7211 9.40533C23.4662 10.048 22.9233 10.5023 22.1034 10.7571C21.0729 11.0784 19.7987 11.2003 18.6797 11.3C17.904 11.3665 16.7739 11.4773 16.3307 11.6435C16.508 12.2529 17.0509 12.674 19.9871 13.0285C22.5023 13.3277 25.7709 14.0368 27.023 15.6323C27.444 16.1642 27.6213 16.7957 27.5437 17.4273C27.3443 18.9896 26.3471 19.8206 25.4607 20.563C24.8845 21.0394 24.3527 21.4826 23.9538 22.1363C23.6214 22.6571 23.577 23.8759 23.5327 24.9396C23.4662 26.6349 23.4108 28.2304 22.3693 28.9617C22.0591 29.1833 21.6934 29.2941 21.2946 29.2941Z" fill="#03B8DF"/>
<path d="M44.4864 43.166H4.86403C3.20202 43.166 1.86133 41.8475 1.86133 40.2187V11.0116C1.86133 9.38286 3.2131 8.06433 4.86403 8.06433H8.07725C8.56478 8.06433 8.95258 8.46321 8.95258 8.93966C8.95258 9.4161 8.5537 9.81498 8.07725 9.81498H4.86403C4.16598 9.81498 3.62306 10.3357 3.62306 11.0006V40.2076C3.62306 40.8725 4.16598 41.3932 4.86403 41.3932H44.4864C45.1844 41.3932 45.7274 40.8725 45.7274 40.2076V29.5929C45.7274 29.1054 46.1263 28.7176 46.6027 28.7176C47.0791 28.7176 47.478 29.1165 47.478 29.5929V40.2076C47.478 41.8364 46.1262 43.1549 44.4753 43.1549L44.4864 43.166ZM46.6138 27.2107C46.1262 27.2107 45.7384 26.8118 45.7384 26.3354V11.0116C45.7384 10.3468 45.1955 9.82606 44.4975 9.82606H41.2399C40.7524 9.82606 40.3646 9.42718 40.3646 8.95074C40.3646 8.47429 40.7635 8.07541 41.2399 8.07541H44.4975C46.1595 8.07541 47.5002 9.39394 47.5002 11.0227V26.3575C47.5002 26.8451 47.1013 27.2329 46.6249 27.2329L46.6138 27.2107Z" fill="#1853A4"/>
<path d="M32.2091 49.2825H17.1402C16.6527 49.2825 16.2649 48.8836 16.2649 48.4072C16.2649 47.9307 16.6638 47.5319 17.1402 47.5319H32.2091C32.6967 47.5319 33.0845 47.9307 33.0845 48.4072C33.0845 48.8836 32.6856 49.2825 32.2091 49.2825Z" fill="#1853A4"/>
<path d="M20.3541 49.2822C20.2877 49.2822 20.2212 49.2822 20.1547 49.26C19.6783 49.1492 19.3902 48.6728 19.501 48.1963L20.2212 45.1382C20.332 44.6618 20.8084 44.3737 21.2849 44.4845C21.7613 44.5953 22.0494 45.0717 21.9386 45.5482L21.2184 48.6063C21.1187 49.0163 20.7641 49.2822 20.3652 49.2822H20.3541Z" fill="#1853A4"/>
<path d="M28.9961 49.2824C28.5973 49.2824 28.2316 49.0054 28.143 48.6065L26.902 43.277C26.7912 42.8006 27.0904 42.3352 27.5557 42.2244C28.0211 42.1136 28.5086 42.4128 28.6083 42.8781L29.8493 48.2076C29.9601 48.6841 29.6609 49.1494 29.1956 49.2602C29.1291 49.2713 29.0626 49.2824 28.9961 49.2824Z" fill="#1853A4"/>
<path d="M46.6027 37.6263H2.73665C2.24913 37.6263 1.86133 37.2274 1.86133 36.7509C1.86133 36.2745 2.26021 35.8756 2.73665 35.8756H46.6027C47.0902 35.8756 47.478 36.2745 47.478 36.7509C47.478 37.2274 47.0791 37.6263 46.6027 37.6263Z" fill="#1853A4"/>
<path d="M24.6972 33.2051C23.5006 33.2051 22.2928 33.0722 21.0851 32.7952C12.498 30.8229 7.11312 22.2469 9.08537 13.6599C10.0383 9.50485 12.5645 5.95922 16.1877 3.68781C19.8109 1.42747 24.0989 0.707265 28.265 1.66015C31.8217 2.45792 34.913 4.38585 37.1955 7.25559C37.4947 7.63232 37.4393 8.18632 37.0626 8.49656C36.6859 8.79572 36.1319 8.74032 35.8216 8.3636C33.7829 5.81518 31.035 4.09777 27.8772 3.38864C20.2209 1.63799 12.5534 6.42459 10.8028 14.0698C9.05213 21.704 13.8387 29.3382 21.484 31.0888C29.1514 32.8506 36.7967 28.0529 38.5584 20.4076C39.2675 17.2166 38.9019 13.9812 37.4836 11.045C37.2731 10.6018 37.4615 10.081 37.8936 9.87049C38.3257 9.65997 38.8576 9.83725 39.0681 10.2805C40.6636 13.5823 41.0736 17.2166 40.2758 20.7954C39.3229 24.9616 36.7967 28.4961 33.1735 30.7675C30.5918 32.3852 27.6778 33.2162 24.7083 33.2162L24.6972 33.2051Z" fill="#1853A4"/>
</svg>
