<svg width="72" height="72" viewBox="0 0 72 72" fill="none" xmlns="http://www.w3.org/2000/svg">
<path d="M65.8554 15.5093V50.8505C65.8554 53.4266 63.7623 55.56 61.1459 55.56H10.4688C7.89263 55.56 5.75928 53.4266 5.75928 50.8505V15.5093C5.75928 12.9332 7.85238 10.7998 10.4688 10.7998H61.1459C63.7623 10.7998 65.8554 12.8929 65.8554 15.5093ZM60.2604 46.946V19.4137C60.2604 17.4011 58.5295 15.7508 56.3962 15.7508H14.7355C12.6021 15.7508 10.8713 17.4011 10.8713 19.4137V46.946C10.8713 48.9586 12.6021 50.609 14.7355 50.609H56.3962C58.5295 50.609 60.2604 48.9586 60.2604 46.946Z" fill="#1853A4"/>
<path d="M56.3576 24.687V28.2292L38.7675 38.1311L30.8379 33.3814L22.3447 38.9362H16.7095L30.8379 29.799L38.7675 34.3877L56.3576 24.687Z" fill="#03B8DF"/>
<path d="M47.3401 57.1291C48.4269 57.1291 49.3124 58.0147 49.3124 59.1015C49.3124 60.1883 48.4269 61.0738 47.3401 61.0738H23.1889C22.1021 61.0738 21.2166 60.1883 21.2166 59.1015C21.2166 58.5782 21.4581 58.0549 21.7801 57.6927C22.1423 57.3304 22.6254 57.0889 23.1889 57.0889H47.3401V57.1291Z" fill="#1853A4"/>
</svg>
