<svg width="72" height="72" viewBox="0 0 72 72" fill="none" xmlns="http://www.w3.org/2000/svg">
<path d="M59.368 39.6025C66.3315 39.6025 71.9668 45.2378 71.9668 52.2014C71.9668 59.165 66.3315 64.8002 59.368 64.8002C54.6585 64.8002 50.5528 62.2241 48.4194 58.4002C49.3855 57.6354 50.2307 56.8304 51.0358 55.9046C52.4446 59.0845 55.6648 61.3386 59.368 61.3386C64.3995 61.3386 68.5051 57.2329 68.5051 52.2014C68.5051 47.1699 64.3995 43.0642 59.368 43.0642C58.1202 43.0642 56.9126 43.3057 55.8258 43.7887C55.8258 43.5472 55.8258 43.3057 55.8258 43.0642C55.8258 42.0982 55.7453 41.1321 55.6245 40.1661C56.7918 39.8038 58.0799 39.6025 59.368 39.6025Z" fill="#7D8592"/>
<path d="M58.967 46.2854C58.967 46.2854 59.0475 45.9634 59.128 45.8427C59.2488 45.7219 59.4098 45.6816 59.5708 45.6816C59.8928 45.6816 60.1746 45.9634 60.1746 46.2854V52.1622C60.1746 52.1622 60.1746 52.2025 60.1746 52.2427C60.1746 52.2025 60.1746 52.1622 60.1746 52.0817C60.0941 51.7999 59.8526 51.6389 59.5708 51.6389C59.5305 51.6389 59.4903 51.6389 59.4098 51.6389L58.967 51.7597V46.2854Z" fill="#7D8592"/>
<path d="M59.5708 52.7657C59.2488 52.7657 58.967 52.484 58.967 52.162V51.7594L59.4098 51.6387C59.4098 51.6387 59.5305 51.6387 59.5708 51.6387C59.8526 51.6387 60.0941 51.8399 60.1746 52.0814C60.1746 52.1217 60.1746 52.1619 60.1746 52.2424V52.323C60.1746 52.323 60.0941 52.5242 60.0136 52.6047C59.8928 52.7255 59.7721 52.7657 59.5708 52.7657Z" fill="#7D8592"/>
<path d="M58.9652 52.1621C58.9652 52.4841 59.2469 52.7659 59.569 52.7659C59.73 52.7659 59.891 52.6853 60.0117 52.6048C60.0922 52.5243 60.1728 52.4036 60.1728 52.3231C60.1728 52.5646 59.9715 52.7659 59.73 52.8464L54.0142 54.2954C54.0142 54.2954 53.9337 54.2954 53.8532 54.2954C53.5714 54.2954 53.3299 54.1344 53.2494 53.8527C53.1689 53.5306 53.3702 53.2086 53.6922 53.1281L58.9652 51.7998V52.2023V52.1621Z" fill="#7D8592"/>
<path d="M55.3437 38.5564L52.6065 40.086L51.7612 40.569C51.1977 36.9463 49.3864 33.7664 46.77 31.4318L47.736 27.2456C49.5876 28.5739 51.238 30.2645 52.526 32.1966C53.8141 34.1287 54.7802 36.262 55.3437 38.5966V38.5564Z" fill="#DCE1E9"/>
<path d="M55.8665 43.0646C55.8665 43.3062 55.8665 43.5477 55.8665 43.7892C53.6124 44.7552 51.8011 46.5666 50.9155 48.8609C51.6401 47.0898 52.0023 45.1175 52.0023 43.0646C52.0023 42.7426 52.0023 42.3804 52.0023 42.0583C52.4049 41.7363 52.8476 41.4546 53.2904 41.2131C54.0552 40.7703 54.8602 40.4483 55.7055 40.1665C55.8665 41.0923 55.9068 42.0583 55.9068 43.0646H55.8665Z" fill="#7D8592"/>
<path d="M46.9705 54.4551C48.661 52.8853 49.9893 50.9934 50.8346 48.8198C50.4321 49.8664 50.1906 50.9934 50.1906 52.1607C50.1906 53.489 50.4723 54.7369 50.9554 55.8639C50.1503 56.7495 49.2648 57.5947 48.339 58.3595C48.017 57.7557 47.7352 57.152 47.4937 56.4677C47.2522 55.7834 47.0912 55.1394 46.9302 54.4551H46.9705Z" fill="#7D8592"/>
<path d="M51.9223 42.0176C51.9223 42.3396 51.9223 42.7019 51.9223 43.0239C51.9223 45.0767 51.5197 47.0088 50.8354 48.8202C49.9902 50.9938 48.6216 52.8856 46.9713 54.4554C46.8505 53.7309 46.77 52.9661 46.77 52.1611C46.77 47.9749 48.7826 44.3119 51.9223 42.0176Z" fill="#7D8592"/>
<path d="M45.8842 57.153L46.8099 59.5279C43.791 61.4197 40.2489 62.5468 36.4249 62.5468C32.601 62.5468 28.9784 61.4197 25.9595 59.4876L26.7243 57.636L27.489 55.8247C30.0249 57.5958 33.1243 58.6423 36.4652 58.6423C39.8061 58.6423 42.9055 57.5958 45.4414 55.8247L45.9647 57.153H45.8842Z" fill="#DCE1E9"/>
<path d="M45.3603 25.7561V30.3046C43.3074 28.8555 40.8923 27.8895 38.276 27.5675L38.4772 27.2454L37.4709 23.5825C40.2886 23.7435 42.9452 24.5083 45.3201 25.7159L45.3603 25.7561Z" fill="#7D8592"/>
<path d="M45.3615 25.7566C42.9866 24.5088 40.33 23.7842 37.5124 23.6232L36.4255 19.5175L39.0822 18.5112C40.2897 18.8332 41.8596 19.3968 43.1074 20.4031C44.3954 21.4094 45.3615 22.8182 45.3615 24.7905V25.7163V25.7566Z" fill="#7D8592"/>
<path d="M38.2763 27.5679C40.8927 27.8899 43.3078 28.8559 45.3606 30.305V31.6333C45.3606 31.6333 45.1192 34.612 37.2298 34.612H35.6197C27.69 34.612 27.4888 31.6333 27.4888 31.6333V30.305C29.5416 28.8559 31.9567 27.8899 34.5329 27.5679L36.4247 30.3453L38.3165 27.5679H38.2763Z" fill="#7D8592"/>
<path d="M36.3851 7.2002C38.8808 7.2002 40.9336 9.57506 40.9336 12.4732C40.9336 15.3713 38.921 17.7462 36.3851 17.7462C33.8493 17.7462 31.877 15.3713 31.877 12.4732C31.877 9.57506 33.8895 7.2002 36.3851 7.2002Z" fill="#7D8592"/>
<path d="M36.3841 19.5163L35.2571 23.622C32.4394 23.783 29.7828 24.5478 27.408 25.7554V24.8296C27.408 20.8447 31.3124 19.1943 33.7275 18.5503L36.3841 19.5566V19.5163Z" fill="#7D8592"/>
<path d="M35.2571 23.6235L34.2508 27.2865L34.452 27.6085C31.8357 27.9305 29.4206 28.8965 27.408 30.3456V25.7971C29.7828 24.5896 32.4394 23.8248 35.2571 23.6638V23.6235Z" fill="#7D8592"/>
<path d="M24.7112 27.4873L25.9992 31.4722C23.3828 33.8069 21.5715 36.9868 21.008 40.6094L20.1627 40.1264L17.4255 38.5968C18.4721 34.0886 21.1288 30.1842 24.7112 27.4873Z" fill="#DCE1E9"/>
<path d="M20.8478 42.0986C23.9472 44.393 25.9196 48.0559 25.9196 52.2019C25.9196 52.9667 25.8391 53.6912 25.7184 54.4157C24.068 52.8459 22.7397 50.9138 21.8944 48.7805C21.2101 47.0094 20.8076 45.0773 20.8076 43.0647C20.8076 42.7427 20.8076 42.4206 20.8076 42.0986H20.8478Z" fill="#7D8592"/>
<path d="M21.8948 48.7808C22.7401 50.9544 24.0685 52.8865 25.7188 54.416C25.5578 55.3016 25.3162 56.1469 24.9942 56.9519C24.793 57.4349 24.5917 57.8777 24.31 58.3607C23.3842 57.5959 22.4986 56.7506 21.6936 55.8651C22.1766 54.738 22.4583 53.4902 22.4583 52.2022C22.4583 50.9946 22.2169 49.8676 21.8144 48.821H21.8948V48.7808Z" fill="#7D8592"/>
<path d="M21.6927 55.8248C22.4978 56.7506 23.3833 57.5556 24.3091 58.3204C22.1757 62.1443 18.0298 64.7607 13.3203 64.7607C6.35672 64.7607 0.721436 59.1254 0.721436 52.1618C0.721436 45.1983 6.35672 39.563 13.3203 39.563C14.6486 39.563 15.9367 39.7642 17.104 40.1668C16.943 41.0926 16.9027 42.0586 16.9027 43.0247C16.9027 43.2662 16.9027 43.5077 16.9027 43.7894C15.8159 43.3064 14.5681 43.0247 13.28 43.0247C8.24853 43.0247 4.14287 47.1304 4.14287 52.1618C4.14287 57.1933 8.24853 61.299 13.28 61.299C17.0234 61.299 20.2436 59.0449 21.6524 55.8248H21.6927Z" fill="#7D8592"/>
<path d="M21.8124 48.7804C20.9269 46.5263 19.1558 44.715 16.9419 43.7892C16.9419 43.5477 16.9419 43.3062 16.9419 43.0244C16.9419 42.0583 17.0224 41.0923 17.1432 40.1665C17.9885 40.408 18.7935 40.7703 19.5582 41.2131C20.001 41.4546 20.4438 41.7363 20.8463 42.0583C20.8463 42.3804 20.8463 42.7024 20.8463 43.0244C20.8463 45.037 21.2086 46.9691 21.9332 48.7402H21.8526L21.8124 48.7804Z" fill="#7D8592"/>
<path d="M12.9988 50.6316V48.297C12.5963 48.3775 12.2743 48.5385 12.0328 48.6995C11.7913 48.8605 11.7107 49.1422 11.7107 49.4643C11.7107 49.7863 11.8315 50.0278 12.0328 50.1888C12.234 50.3498 12.5561 50.5108 12.9988 50.6316ZM13.9246 55.1398C14.4076 55.0593 14.7699 54.8983 15.0517 54.6568C15.3334 54.4152 15.4542 54.1335 15.4542 53.7712C15.4542 53.409 15.3335 53.1674 15.0919 52.9662C14.8102 52.7649 14.4479 52.6039 13.9648 52.4832V55.18L13.9246 55.1398ZM15.2529 47.3712C15.6152 47.4919 15.9372 47.6932 16.219 47.9749C16.4203 48.1762 16.5812 48.3775 16.7422 48.619C16.863 48.8605 16.9033 49.0617 16.9033 49.2227C16.9033 49.424 16.8227 49.585 16.6215 49.746C16.4605 49.907 16.2189 49.9875 15.9774 49.9875C15.4944 49.9875 15.2127 49.7863 15.0517 49.3435C14.8906 48.8202 14.5284 48.4982 13.8844 48.3372V50.8731C14.4882 50.9938 14.9712 51.1548 15.3335 51.2353C15.6957 51.3561 16.0177 51.5171 16.2995 51.7184C16.5812 51.9599 16.8227 52.2014 16.9837 52.5234C17.1447 52.8454 17.2253 53.1674 17.2253 53.57C17.2253 54.0127 17.1045 54.4555 16.8228 54.858C16.5812 55.2605 16.1787 55.5826 15.6957 55.8643C15.1724 56.1058 14.6089 56.2668 13.8844 56.3071V57.8367C13.8844 58.0782 13.8844 58.2392 13.8039 58.3599C13.7234 58.4807 13.6429 58.5209 13.4416 58.5209C13.2806 58.5209 13.1599 58.4807 13.0794 58.4002C12.9988 58.3197 12.9585 58.1587 12.9585 57.9977V56.3473C12.395 56.2668 11.912 56.1863 11.4692 56.0253C11.0667 55.8643 10.7045 55.6228 10.4227 55.3813C10.1409 55.1398 9.93967 54.858 9.77866 54.5763C9.65791 54.2945 9.57739 54.0127 9.57739 53.7712C9.57739 53.57 9.65793 53.4089 9.85919 53.2479C10.0604 53.0869 10.2617 53.0064 10.5435 53.0064C10.785 53.0064 10.946 53.0467 11.107 53.1272C11.268 53.2077 11.3485 53.3284 11.429 53.4895C11.5498 53.8115 11.6705 54.0932 11.751 54.2542C11.8315 54.4152 11.9925 54.5763 12.1938 54.7373C12.3951 54.8983 12.6365 54.9788 12.9585 55.0593V52.2014C12.3145 52.0404 11.751 51.8794 11.3485 51.6781C10.9057 51.4769 10.5837 51.2353 10.302 50.8731C10.0202 50.5511 9.89942 50.1083 9.89942 49.5448C9.89942 48.8605 10.1812 48.2567 10.7044 47.8139C11.2277 47.3712 11.9925 47.0894 12.9988 47.0491V46.4051C12.9988 46.0428 13.1598 45.8818 13.4416 45.8818C13.7234 45.8818 13.8844 46.0428 13.8844 46.4051V47.0491C14.4077 47.0894 14.8504 47.1699 15.2127 47.3309L15.2529 47.3712Z" fill="#7D8592"/>
</svg>
