<svg width="50" height="51" viewBox="0 0 50 51" fill="none" xmlns="http://www.w3.org/2000/svg">
<path d="M1.71399 26.414H8.15907C8.45292 26.414 8.688 26.1789 8.688 25.8851C8.688 19.2049 14.1144 13.7785 20.7946 13.7785C21.0884 13.7785 21.3235 13.5434 21.3235 13.2496V6.78491C21.3235 6.49106 21.0884 6.25598 20.7946 6.25598C10.0005 6.25598 1.18506 15.0519 1.18506 25.8851C1.18506 26.0222 1.24383 26.1593 1.34178 26.2573C1.43973 26.3552 1.57686 26.414 1.71399 26.414ZM20.2852 7.33343V12.7207C13.4483 12.9949 7.92399 18.5193 7.64973 25.3562H2.2625C2.53676 15.5416 10.4707 7.60769 20.2852 7.33343Z" fill="#1853A4" stroke="#1853A4" stroke-width="0.661221"/>
<path d="M20.8142 42.4779C14.134 42.4779 8.70759 37.0515 8.70759 30.3713C8.70759 30.0775 8.47251 29.8424 8.17866 29.8424H1.71399C1.42014 29.8424 1.18506 30.0775 1.18506 30.3713C1.18506 41.2046 10.0005 50.0004 20.8142 50.0004C21.108 50.0004 21.3431 49.7654 21.3431 49.4715V43.0264C21.3431 42.7326 21.108 42.4975 20.8142 42.4975V42.4779ZM20.2852 48.923C10.4707 48.6487 2.53676 40.7148 2.2625 30.9003H7.64973C7.92399 37.7371 13.4483 43.2615 20.2852 43.5358V48.923Z" fill="#1853A4" stroke="#1853A4" stroke-width="0.661221"/>
<path d="M44.3805 29.8227H37.9354C37.6416 29.8227 37.4065 30.0578 37.4065 30.3516C37.4065 37.0318 31.9801 42.4582 25.2999 42.4582C25.0061 42.4582 24.771 42.6933 24.771 42.9871V49.4322C24.771 49.726 25.0061 49.9611 25.2999 49.9611C36.1332 49.9611 44.929 41.1457 44.929 30.332C44.929 30.0382 44.6939 29.8031 44.4001 29.8031L44.3805 29.8227ZM25.8289 48.9033V43.516C32.6657 43.2418 38.1901 37.7174 38.4644 30.8805H43.8516C43.5773 40.6951 35.6434 48.629 25.8289 48.9033Z" fill="#1853A4" stroke="#1853A4" stroke-width="0.661221"/>
<path d="M48.6518 20.2432C48.6518 20.2432 48.7105 20.0473 48.6909 19.9297C48.6713 19.773 48.593 19.6555 48.495 19.5575C47.4568 15.3261 45.3019 11.5257 42.3634 8.48923C42.3438 8.37169 42.285 8.25415 42.2067 8.1562C42.1087 8.05825 41.9912 8.01907 41.8736 7.99948C40.326 6.49106 38.5825 5.19812 36.6627 4.14027C36.604 4.02273 36.4864 3.90519 36.3493 3.84642C36.2513 3.80724 36.1338 3.78765 36.0163 3.80724C34.1748 2.86692 32.2158 2.16168 30.1393 1.71112C30.0609 1.65235 29.963 1.61317 29.8454 1.59358C29.7671 1.59358 29.7083 1.59358 29.6495 1.59358C28.1607 1.29973 26.6523 1.1626 25.0851 1.1626C24.7912 1.1626 24.5562 1.39768 24.5562 1.69153V9.66462C24.5562 9.95847 24.7912 10.1936 25.0851 10.1936C26.2801 10.1936 27.4359 10.3307 28.5525 10.6049C28.6309 10.6637 28.7288 10.7029 28.8268 10.7029C28.8463 10.7029 28.8659 10.7029 28.9051 10.7029C28.9051 10.7029 28.9247 10.7029 28.9443 10.7029C31.5106 11.3885 33.8026 12.7207 35.6245 14.5229C35.644 14.5621 35.6636 14.6013 35.7028 14.6405C35.742 14.6796 35.7812 14.6992 35.8204 14.7188C38.4846 17.4418 40.1497 21.1639 40.1497 25.2778C40.1497 25.5716 40.3848 25.8067 40.6787 25.8067H48.6322C48.926 25.8067 49.1611 25.5716 49.1611 25.2778C49.1611 23.5539 48.9848 21.8691 48.6322 20.2432H48.6518ZM28.3174 9.44913C27.4359 9.27283 26.5347 9.15529 25.5944 9.11611V2.24004C26.7894 2.25963 27.9452 2.37717 29.0814 2.59266L28.3174 9.46872V9.44913ZM29.5712 9.76257L30.3548 2.84733C32.0983 3.25872 33.7634 3.86601 35.3306 4.63001L32.6272 10.9967C31.6673 10.4874 30.6486 10.076 29.5908 9.76257H29.5712ZM33.7242 11.6432L36.4472 5.2373C38.0732 6.15803 39.562 7.27465 40.9137 8.548L36.0358 13.4259C35.3306 12.7598 34.547 12.1721 33.7242 11.6432ZM36.937 14.327L41.8149 9.44913C42.9903 10.6833 44.0089 12.0546 44.8905 13.5238L38.7001 16.619C38.1711 15.7963 37.5834 15.0323 36.937 14.327ZM40.5023 20.4587C40.2085 19.4988 39.8167 18.578 39.3465 17.7161L45.5174 14.6405C46.3205 16.1685 46.9474 17.7944 47.398 19.4988L40.5023 20.4783V20.4587ZM41.2272 24.7489C41.188 23.7106 41.0509 22.6919 40.8354 21.6928L47.6723 20.7329C47.9269 22.0455 48.0836 23.3776 48.1228 24.7489H41.2272Z" fill="#1853A4" stroke="#1853A4" stroke-width="0.661221"/>
<path d="M29.6689 20.8112V36.3068C29.6689 36.8945 30.1391 37.3646 30.7268 37.3646H33.5086C34.0963 37.3646 34.5664 36.8945 34.5664 36.3068V20.8112C34.5664 20.2235 34.0963 19.7533 33.5086 19.7533H30.7268C30.1391 19.7533 29.6689 20.2235 29.6689 20.8112ZM30.9423 21.0266H33.2931V36.0913H30.9423V21.0266Z" fill="#03B8DF" stroke="#03B8DF" stroke-width="0.661221"/>
<path d="M27.6115 37.3646C28.1992 37.3646 28.6694 36.8944 28.6694 36.3067V26.2179C28.6694 25.6302 28.1992 25.16 27.6115 25.16H25.0256C24.4379 25.16 23.9678 25.6302 23.9678 26.2179V36.3067C23.9678 36.8944 24.4379 37.3646 25.0256 37.3646H27.6115ZM25.2411 26.4334H27.396V36.1108H25.2411V26.4334Z" fill="#03B8DF" stroke="#03B8DF" stroke-width="0.661221"/>
<path d="M13.2122 27.1782C12.6245 27.1782 12.1543 27.6484 12.1543 28.2361V36.3071C12.1543 36.8948 12.6245 37.365 13.2122 37.365H15.7784C16.3661 37.365 16.8363 36.8948 16.8363 36.3071V28.2361C16.8363 27.6484 16.3661 27.1782 15.7784 27.1782H13.2122ZM15.5825 36.0916H13.4276V28.4516H15.5825V36.0916Z" fill="#03B8DF" stroke="#03B8DF" stroke-width="0.661221"/>
<path d="M21.7151 22.8682H18.855C18.2673 22.8682 17.7971 23.3383 17.7971 23.926V36.3069C17.7971 36.8945 18.2673 37.3647 18.855 37.3647H21.7151C22.3028 37.3647 22.773 36.8945 22.773 36.3069V23.926C22.773 23.3383 22.3028 22.8682 21.7151 22.8682ZM21.4996 36.111H19.0509V24.1415H21.4996V36.111Z" fill="#03B8DF" stroke="#03B8DF" stroke-width="0.661221"/>
<path d="M31.7452 16.0705L26.0054 20.0276L20.5594 18.0294C20.3635 17.9511 20.148 17.9903 19.9913 18.0882L14.1535 21.9866C13.8596 22.1825 13.7813 22.5743 13.9772 22.8682C14.0947 23.0445 14.3102 23.1424 14.5061 23.1424C14.6236 23.1424 14.7412 23.1032 14.8587 23.0445L20.4223 19.3224L25.8683 21.3206C26.0642 21.3989 26.2796 21.3597 26.456 21.2422L32.4701 17.1087C32.7639 16.9128 32.8227 16.521 32.6268 16.2272C32.4309 15.9333 32.0391 15.8746 31.7452 16.0705Z" fill="#03B8DF" stroke="#03B8DF" stroke-width="0.661221"/>
</svg>
