<svg width="50" height="50" viewBox="0 0 50 50" fill="none" xmlns="http://www.w3.org/2000/svg">
<path d="M25.041 44.552C16.2708 44.552 9.13647 37.4176 9.13647 28.6475C9.13647 19.8773 16.2708 12.7429 25.041 12.7429C33.8112 12.7429 40.9455 19.8773 40.9455 28.6475C40.9455 37.4176 33.8112 44.552 25.041 44.552ZM25.041 14.3999C17.189 14.3999 10.7934 20.7954 10.7934 28.6475C10.7934 36.4995 17.189 42.8951 25.041 42.8951C32.893 42.8951 39.2886 36.4995 39.2886 28.6475C39.2886 20.7954 32.893 14.3999 25.041 14.3999Z" fill="#1853A4"/>
<path d="M25.0416 48.6891C13.9918 48.6891 5 39.7079 5 28.6581C5 17.6083 13.9918 8.61646 25.0416 8.61646C36.0914 8.61646 45.0832 17.6083 45.0832 28.6581C45.0832 39.7079 36.0914 48.6997 25.0416 48.6997V48.6891ZM25.0416 10.6955C15.1422 10.6955 7.07909 18.7481 7.07909 28.6581C7.07909 38.5681 15.1316 46.6206 25.0416 46.6206C34.9516 46.6206 43.0041 38.5681 43.0041 28.6581C43.0041 18.7481 34.9411 10.6955 25.0416 10.6955Z" fill="#1853A4"/>
<path d="M28.4821 10.4843H21.6011V4.90137H28.4821V10.4738V10.4843ZM23.2475 8.82737H26.8252V6.55831H23.2475V8.82737Z" fill="#1853A4"/>
<path d="M30.2655 6.76962H19.8067C18.6247 6.76962 17.6643 5.80923 17.6643 4.62721V3.39242C17.6643 2.21039 18.6247 1.25 19.8067 1.25H30.2655C31.4475 1.25 32.4079 2.21039 32.4079 3.39242V4.62721C32.4079 5.80923 31.4475 6.76962 30.2655 6.76962ZM19.8067 3.32909C19.8067 3.32909 19.7434 3.36075 19.7434 3.39242V4.62721C19.7434 4.62721 19.7751 4.69053 19.8067 4.69053H30.2655C30.2655 4.69053 30.3288 4.65887 30.3288 4.62721V3.39242C30.3288 3.39242 30.2972 3.32909 30.2655 3.32909H19.8067Z" fill="#1853A4"/>
<path d="M25.2847 24.5741C25.5802 24.5635 25.8652 24.5741 26.0868 24.6374C26.414 24.7324 26.8889 24.9434 27.1844 25.7772C27.3216 26.1782 27.7438 26.3999 28.1554 26.2838L31.2265 25.3867C31.4376 25.3234 31.617 25.1756 31.712 24.9751C31.807 24.7746 31.8175 24.5424 31.7436 24.3313C30.8782 22.115 29.369 20.7641 27.2583 20.3209L27.3111 19.1072C27.3111 18.8961 27.2477 18.685 27.1 18.5373C26.9522 18.379 26.7623 18.2946 26.5512 18.284L24.1133 18.1785C23.67 18.1785 23.3112 18.4951 23.2901 18.9383L23.2162 20.4897C22.1503 20.8064 21.2637 21.3552 20.5672 22.1361C19.5118 23.3287 19.0263 24.6796 19.1002 26.1677C19.153 27.0964 19.4274 27.9196 19.9023 28.6267C20.3878 29.3338 21.0105 29.8826 21.7809 30.2414C22.2241 30.442 22.7307 30.6319 23.3639 30.8008C23.7017 30.8958 24.0816 30.9802 24.4826 31.0646C24.9892 31.1807 25.4114 31.2757 25.7702 31.3812C26.2557 31.5184 26.4351 31.6134 26.4879 31.6345C26.5301 31.6662 26.6251 31.7295 26.6356 32.0356C26.6462 32.31 26.5617 32.5105 26.3507 32.7005C26.1924 32.8377 25.9602 32.9432 25.6436 33.0171C25.4853 33.0593 25.2953 33.0804 25.0842 33.1015C24.5354 33.1332 24.071 33.0698 23.7228 32.9221C23.2162 32.7005 22.7624 32.2783 22.298 31.5712C22.1819 31.3918 22.0025 31.2757 21.7914 31.2335C21.5804 31.1913 21.3693 31.2335 21.1899 31.3496L18.6464 33.0487C18.2981 33.2809 18.1926 33.7347 18.3931 34.0936L18.467 34.2308C18.9314 35.0751 19.2691 35.6872 20.525 36.4682C21.1054 36.827 21.7492 37.1014 22.4458 37.2702L22.4036 38.1779C22.3824 38.6211 22.7202 38.9905 23.1634 39.0116L25.6013 39.1172C25.6013 39.1172 25.6225 39.1172 25.633 39.1172C25.8335 39.1172 26.0235 39.0433 26.1712 38.9061C26.3296 38.7689 26.414 38.5684 26.4245 38.3573L26.4668 37.3547C27.9971 37.0908 29.2002 36.5104 30.1184 35.5816C31.2687 34.3996 31.807 32.9643 31.712 31.3179C31.6592 30.2942 31.3848 29.4077 30.8782 28.6795C30.3716 27.9618 29.6857 27.413 28.8097 27.0542C28.1448 26.7798 27.3216 26.5371 26.319 26.326C26.1185 26.2838 25.8968 26.231 25.6858 26.1888C24.757 26.0094 24.3771 25.8511 24.2188 25.7666C24.2082 25.7561 24.1871 25.7455 24.1766 25.735C24.1238 25.7033 24.0394 25.6505 24.0288 25.4184C24.0288 25.2812 24.0499 25.1228 24.3243 24.8801C24.5354 24.7113 24.8626 24.6163 25.2742 24.5846L25.2847 24.5741ZM23.2584 27.012C23.2584 27.012 23.3006 27.0436 23.3217 27.0647C23.7333 27.3286 24.3666 27.5397 25.3903 27.7402C25.5908 27.7718 25.7808 27.8141 25.9813 27.8668C26.8889 28.0674 27.6382 28.2784 28.2081 28.5106C28.7991 28.7639 29.2529 29.1122 29.5801 29.5765C29.9073 30.062 30.0972 30.6741 30.1289 31.3918C30.1922 32.5949 29.8229 33.6081 28.9785 34.4629C28.2081 35.2439 27.1 35.7083 25.6119 35.8666C25.2214 35.9088 24.9153 36.2254 24.9048 36.6265L24.8626 37.5024L24.0183 37.4602L24.0499 36.6581C24.071 36.2571 23.7755 35.8983 23.3745 35.8349C22.6146 35.7188 21.9392 35.4761 21.3482 35.1067C20.6727 34.6846 20.3983 34.3891 20.1239 33.9564L21.422 33.091C21.9286 33.7031 22.4669 34.1252 23.079 34.3891C23.6594 34.6318 24.3454 34.7373 25.1475 34.6951C25.4747 34.674 25.7596 34.6318 25.9918 34.5685C26.5617 34.4418 27.0261 34.2097 27.3849 33.893C27.9548 33.3865 28.2398 32.711 28.1976 31.9617C28.1448 31.0224 27.6804 30.5369 27.3005 30.2942C27.0472 30.1464 26.6989 30.0092 26.1924 29.8615C25.823 29.756 25.3692 29.6399 24.8098 29.5132C24.4299 29.4288 24.0816 29.3549 23.7755 29.2705C23.2373 29.1227 22.8046 28.9644 22.4458 28.7956C21.9392 28.5634 21.5381 28.2151 21.211 27.7296C20.8944 27.2653 20.7149 26.7059 20.6727 26.0727C20.62 24.9962 20.9682 24.0569 21.7387 23.181C22.3402 22.5161 23.1212 22.0939 24.1238 21.8828C24.4826 21.809 24.7359 21.5029 24.757 21.1441L24.8204 19.8037L25.6647 19.8354L25.6119 20.9647C25.5908 21.3868 25.9074 21.7456 26.319 21.7879C27.9337 21.9567 29.1052 22.7166 29.8651 24.1097L28.3453 24.5529C27.9232 23.8036 27.3005 23.3182 26.4773 23.0965C26.0868 22.991 25.6436 22.9488 25.1792 22.9804C24.4299 23.0226 23.8072 23.2337 23.2901 23.6453C23.2901 23.6453 23.2162 23.7086 23.2162 23.7192C22.6779 24.1941 22.4036 24.8062 22.4458 25.4817C22.4774 26.136 22.7518 26.6531 23.2479 27.0014L23.2584 27.012Z" fill="#03B8DF"/>
</svg>
