<svg width="72" height="72" viewBox="0 0 72 72" fill="none" xmlns="http://www.w3.org/2000/svg">
<path d="M66.3835 25.6039V53.8205C66.3835 56.7992 63.9684 59.2143 60.9897 59.2143H58.1318V20.1699H60.9897C63.9684 20.1699 66.3835 22.585 66.3835 25.6039Z" fill="#7D8592"/>
<path d="M44.0449 12.2402C45.3732 12.2402 46.46 13.327 46.46 14.6554C46.46 15.9837 45.3732 17.0705 44.0449 17.0705H27.5416C26.8573 17.0705 26.2535 16.7887 25.851 16.3459C25.4082 15.9032 25.1265 15.2994 25.1265 14.6554C25.1265 13.327 26.2133 12.2402 27.5416 12.2402H44.0449Z" fill="#7D8592"/>
<path d="M39.0519 40.1335C39.5752 40.536 39.857 41.0593 39.857 41.7838C39.857 42.5084 39.5752 43.0317 39.0519 43.5147C38.5287 43.9977 37.7639 44.36 36.7576 44.521V39.1675C37.7639 39.4492 38.5689 39.7713 39.0922 40.1335H39.0519Z" fill="#7D8592"/>
<path d="M31.5257 37.7191C32.4113 38.0813 33.5383 38.4033 34.8667 38.7254V44.4009C34.1824 44.2399 33.6591 44.0386 33.2566 43.7166C32.854 43.4348 32.5723 43.1128 32.371 42.7506C32.1698 42.3883 31.9283 41.9053 31.6867 41.221C31.566 40.899 31.3647 40.6574 31.0427 40.4964C30.7207 40.3354 30.3584 40.2549 29.9157 40.2549C29.3521 40.2549 28.9094 40.4159 28.5471 40.738C28.1848 41.06 27.9836 41.4222 27.9836 41.7845C27.9836 42.3078 28.1043 42.8311 28.3861 43.3946C28.6679 43.9179 29.0704 44.4814 29.6741 44.9644C30.2377 45.4877 30.9622 45.8902 31.8478 46.2525C32.693 46.6147 33.7396 46.816 34.8667 46.9368V50.2374C34.8667 50.5997 34.9472 50.8814 35.0679 51.0827C35.2289 51.2437 35.4704 51.3645 35.8327 51.3645C36.2352 51.3645 36.4767 51.2437 36.5975 51.0425C36.7182 50.8009 36.7585 50.4789 36.7585 49.9959V46.9368C38.1673 46.8563 39.3749 46.5342 40.4214 46.011C41.468 45.4877 42.2327 44.8437 42.756 44.0386C43.2793 43.2336 43.5611 42.348 43.5611 41.4222C43.5611 40.6977 43.4 40.0134 43.078 39.3694C42.756 38.7254 42.273 38.2021 41.6692 37.7593C41.1057 37.3165 40.4617 36.9945 39.7371 36.753C39.0126 36.5115 38.0466 36.27 36.7987 35.9882V30.9165C38.0466 31.2385 38.8113 31.9228 39.1736 32.9291C39.4554 33.7744 40.0994 34.2171 41.0654 34.2171C41.5887 34.2171 42.0315 34.0561 42.3938 33.7744C42.756 33.4926 42.917 33.1303 42.917 32.7278C42.917 32.3656 42.7963 31.963 42.5548 31.5203C42.3133 31.0775 41.951 30.6347 41.5082 30.2322C40.9447 29.7089 40.3007 29.2662 39.5359 29.0246C38.7711 28.7429 37.8855 28.5819 36.7987 28.5014V27.1731C36.7987 26.4888 36.4767 26.1668 35.8327 26.1668C35.1887 26.1668 34.9069 26.529 34.9069 27.2133V28.5014C32.854 28.6624 31.2842 29.1857 30.1974 30.0712C29.1106 30.9567 28.5873 32.124 28.5873 33.4926C28.5873 34.5392 28.8691 35.4247 29.4326 36.109C29.9962 36.7933 30.7207 37.3165 31.6062 37.6788L31.5257 37.7191ZM53.463 20.2095V59.2538H17.8401V20.2095H53.463Z" fill="#7D8592"/>
<path d="M32.8933 31.6805C33.3763 31.3585 34.0203 31.0767 34.8254 30.8755V35.5447C33.9398 35.2629 33.2555 34.9812 32.853 34.6592C32.4102 34.3372 32.209 33.8541 32.209 33.2101C32.209 32.5661 32.4505 32.0428 32.8933 31.6805Z" fill="#7D8592"/>
<path d="M36.7177 44.5226C37.724 44.3616 38.4888 44.0396 39.0121 43.5163C39.5756 43.0333 39.8171 42.4698 39.8171 41.7855C39.8171 41.1012 39.5354 40.5377 39.0121 40.1352C38.4888 39.7327 37.724 39.4106 36.6775 39.1691V44.5226H36.7177ZM34.8259 30.8772C33.9806 31.0785 33.3366 31.3603 32.8938 31.6823C32.451 32.0043 32.2095 32.5276 32.2095 33.2119C32.2095 33.8961 32.4108 34.3389 32.8536 34.6609C33.2963 34.9829 33.9403 35.3049 34.8259 35.5465V30.8772ZM31.646 41.222C31.9277 41.9063 32.129 42.3893 32.3303 42.7516C32.5315 43.1138 32.8133 43.4358 33.2158 43.7176C33.6183 43.9994 34.1416 44.2409 34.8259 44.4019V38.7264C33.4976 38.4043 32.4108 38.0823 31.485 37.7201C30.5994 37.3578 29.8749 36.8345 29.3114 36.1502C28.7478 35.466 28.4661 34.5804 28.4661 33.5339C28.4661 32.125 28.9894 30.998 30.0762 30.1125C31.163 29.2269 32.7328 28.7036 34.7856 28.5426V27.2546C34.7856 26.5703 35.1077 26.208 35.7114 26.208C36.3152 26.208 36.6775 26.53 36.6775 27.2143V28.5426C37.724 28.6231 38.6498 28.8244 39.4146 29.0659C40.1794 29.3477 40.8234 29.7502 41.387 30.2735C41.8297 30.676 42.192 31.1187 42.4335 31.5615C42.675 32.0043 42.7958 32.4068 42.7958 32.7691C42.7958 33.1716 42.5945 33.5339 42.2725 33.8156C41.9102 34.1376 41.4675 34.2584 40.9442 34.2584C39.9781 34.2584 39.3341 33.8156 39.0523 32.9703C38.7303 31.964 37.9253 31.2798 36.6775 30.9577V36.0295C37.885 36.3113 38.8913 36.5528 39.6159 36.7943C40.3404 37.0358 40.9844 37.3578 41.548 37.8006C42.1517 38.2433 42.6348 38.7666 42.9568 39.4107C43.2788 40.0144 43.4398 40.6987 43.4398 41.4635C43.4398 42.3893 43.158 43.2748 42.6348 44.0799C42.1115 44.8849 41.3467 45.5289 40.3002 46.0522C39.2939 46.5755 38.046 46.8572 36.6372 46.978V50.0372C36.6372 50.5202 36.5567 50.8824 36.4762 51.0837C36.3555 51.285 36.114 51.4057 35.7114 51.4057C35.3492 51.4057 35.1077 51.3252 34.9467 51.124C34.7856 50.9227 34.7454 50.6812 34.7454 50.2787V46.978C33.5781 46.8572 32.5718 46.656 31.7265 46.2937C30.8812 45.9717 30.1567 45.5289 29.5529 45.0057C28.9491 44.4824 28.5466 43.9591 28.2648 43.4358C27.9831 42.8723 27.8623 42.349 27.8623 41.8258C27.8623 41.4232 28.0636 41.1012 28.4258 40.7792C28.7881 40.4572 29.2711 40.2962 29.7944 40.2962C30.2372 40.2962 30.5994 40.3767 30.9215 40.5377C31.2435 40.6987 31.4447 40.9402 31.5655 41.2622L31.646 41.222Z" fill="#DCE1E9"/>
<path d="M13.1704 20.1699V59.2143H10.4333C7.45467 59.2143 5.03955 56.7992 5.03955 53.8205V25.6039C5.03955 22.6253 7.45467 20.1699 10.4333 20.1699H13.1704Z" fill="#7D8592"/>
</svg>
