<svg width="50" height="50" viewBox="0 0 50 50" fill="none" xmlns="http://www.w3.org/2000/svg">
<path d="M42.4352 1.25H7.05189C6.79227 1.25 6.57593 1.46635 6.57593 1.72596V48.9866C6.57593 49.2463 6.79227 49.4626 7.05189 49.4626H42.4352C42.6948 49.4626 42.9112 49.2463 42.9112 48.9866V1.72596C42.9112 1.46635 42.6948 1.25 42.4352 1.25ZM41.4184 47.9698H8.06871V2.74278H41.4184V47.9698Z" fill="#1853A4" stroke="#1853A4" stroke-width="0.250001"/>
<path d="M10.957 24.6009H38.5303C38.7899 24.6009 39.0062 24.3846 39.0062 24.1249C39.0062 23.8653 38.7899 23.649 38.5303 23.649H37.3512V8.12619L38.5086 5.68149C38.6168 5.44351 38.5194 5.16226 38.2815 5.05409C38.0435 4.94591 37.7622 5.04327 37.6541 5.28125L32.6024 15.9471L28.8488 10.149C28.8488 10.149 28.8272 10.1382 28.8272 10.1274C28.7406 10.0084 28.6108 9.93268 28.4594 9.93268C28.3079 9.93268 28.1781 10.0084 28.0916 10.1274C28.0916 10.1274 28.0699 10.1382 28.0699 10.149L24.1216 16.2608L20.314 13.7187C20.314 13.7187 20.2923 13.7187 20.2815 13.7187C20.2058 13.6755 20.1301 13.643 20.0435 13.643C20.0435 13.643 20.0327 13.643 20.0219 13.643C19.9354 13.643 19.8704 13.6755 19.8055 13.7187C19.8055 13.7187 19.7839 13.7187 19.7731 13.7187L11.4546 19.7007V5.47596C11.4546 5.21635 11.2383 5 10.9786 5C10.719 5 10.5027 5.21635 10.5027 5.47596V24.1249C10.5027 24.3846 10.719 24.6009 10.9786 24.6009H10.957ZM32.1913 23.6598H28.9245V11.9988L32.1913 17.0504V23.6598ZM27.9834 23.6598H24.7166V17.0504L27.9834 11.9988V23.6598ZM23.7755 23.6598H20.5087V14.9843L23.7755 17.1586V23.649V23.6598ZM19.5676 23.6598H16.3007V17.375L19.5676 15.0276V23.6598ZM36.4101 23.6598H33.1432V17.018L36.4101 10.1274V23.6598ZM15.3488 18.0456V23.649H11.433V20.8581L15.3488 18.0456Z" fill="#03B8DF" stroke="#03B8DF" stroke-width="0.250001"/>
<path d="M10.9567 30.262H16.8196C17.0793 30.262 17.2956 30.0456 17.2956 29.786C17.2956 29.5264 17.0793 29.3101 16.8196 29.3101H10.9567C10.6971 29.3101 10.4807 29.5264 10.4807 29.786C10.4807 30.0456 10.6971 30.262 10.9567 30.262Z" fill="#1853A4" stroke="#1853A4" stroke-width="0.250001"/>
<path d="M10.9567 35.0756H16.8196C17.0793 35.0756 17.2956 34.8592 17.2956 34.5996C17.2956 34.34 17.0793 34.1237 16.8196 34.1237H10.9567C10.6971 34.1237 10.4807 34.34 10.4807 34.5996C10.4807 34.8592 10.6971 35.0756 10.9567 35.0756Z" fill="#1853A4" stroke="#1853A4" stroke-width="0.250001"/>
<path d="M10.9567 39.8894H16.8196C17.0793 39.8894 17.2956 39.6731 17.2956 39.4135C17.2956 39.1538 17.0793 38.9375 16.8196 38.9375H10.9567C10.6971 38.9375 10.4807 39.1538 10.4807 39.4135C10.4807 39.6731 10.6971 39.8894 10.9567 39.8894Z" fill="#1853A4" stroke="#1853A4" stroke-width="0.250001"/>
<path d="M10.9567 44.7029H16.8196C17.0793 44.7029 17.2956 44.4866 17.2956 44.2269C17.2956 43.9673 17.0793 43.751 16.8196 43.751H10.9567C10.6971 43.751 10.4807 43.9673 10.4807 44.2269C10.4807 44.4866 10.6971 44.7029 10.9567 44.7029Z" fill="#1853A4" stroke="#1853A4" stroke-width="0.250001"/>
<path d="M21.2014 29.3208H19.3949C19.1353 29.3208 18.9189 29.5371 18.9189 29.7968C18.9189 30.0564 19.1353 30.2727 19.3949 30.2727H21.2014C21.461 30.2727 21.6774 30.0564 21.6774 29.7968C21.6774 29.5371 21.461 29.3208 21.2014 29.3208Z" fill="#1853A4" stroke="#1853A4" stroke-width="0.250001"/>
<path d="M21.2014 34.1343H19.3949C19.1353 34.1343 18.9189 34.3506 18.9189 34.6102C18.9189 34.8699 19.1353 35.0862 19.3949 35.0862H21.2014C21.461 35.0862 21.6774 34.8699 21.6774 34.6102C21.6774 34.3506 21.461 34.1343 21.2014 34.1343Z" fill="#1853A4" stroke="#1853A4" stroke-width="0.250001"/>
<path d="M21.2014 38.9485H19.3949C19.1353 38.9485 18.9189 39.1648 18.9189 39.4244C18.9189 39.6841 19.1353 39.9004 19.3949 39.9004H21.2014C21.461 39.9004 21.6774 39.6841 21.6774 39.4244C21.6774 39.1648 21.461 38.9485 21.2014 38.9485Z" fill="#1853A4" stroke="#1853A4" stroke-width="0.250001"/>
<path d="M21.2014 43.762H19.3949C19.1353 43.762 18.9189 43.9783 18.9189 44.2379C18.9189 44.4975 19.1353 44.7139 19.3949 44.7139H21.2014C21.461 44.7139 21.6774 44.4975 21.6774 44.2379C21.6774 43.9783 21.461 43.762 21.2014 43.762Z" fill="#1853A4" stroke="#1853A4" stroke-width="0.250001"/>
<path d="M32.667 30.5758C30.9362 30.5758 29.3569 31.2248 28.1453 32.2741L26.9662 31.095V29.3643C26.9662 29.1047 26.7499 28.8883 26.4903 28.8883C26.2307 28.8883 26.0143 29.1047 26.0143 29.3643V30.1431L24.9001 29.0289C24.7163 28.845 24.4134 28.845 24.2295 29.0289C24.0456 29.2128 24.0456 29.5157 24.2295 29.6996L25.1706 30.6407L24.6297 30.565C24.3701 30.5325 24.1321 30.7164 24.0997 30.976C24.0672 31.2357 24.2511 31.4736 24.5107 31.5061L26.2739 31.7333L27.4747 32.934C26.4146 34.1455 25.7763 35.7248 25.7763 37.4556C25.7763 41.2525 28.8701 44.3462 32.667 44.3462C36.4638 44.3462 39.5576 41.2525 39.5576 37.4556C39.5576 33.6587 36.4638 30.565 32.667 30.565V30.5758ZM32.667 43.4051C29.3893 43.4051 26.7283 40.744 26.7283 37.4664C26.7283 35.9953 27.2691 34.6539 28.1561 33.6155L29.2054 34.6647C28.578 35.4328 28.1886 36.4063 28.1886 37.4664C28.1886 39.9436 30.2006 41.9448 32.667 41.9448C35.1333 41.9448 37.1453 39.9327 37.1453 37.4664C37.1453 35.0001 35.1333 32.9881 32.667 32.9881C31.596 32.9881 30.6333 33.3775 29.8653 34.0049L28.816 32.9556C29.8545 32.0686 31.1958 31.5277 32.667 31.5277C35.9446 31.5277 38.6056 34.1888 38.6056 37.4664C38.6056 40.744 35.9446 43.4051 32.667 43.4051ZM30.9037 36.3739C30.709 36.6876 30.59 37.0662 30.59 37.4664C30.59 38.613 31.5203 39.5433 32.667 39.5433C33.8136 39.5433 34.7439 38.613 34.7439 37.4664C34.7439 36.3198 33.8136 35.3895 32.667 35.3895C32.2667 35.3895 31.8989 35.5085 31.5744 35.7032L30.5359 34.6647C31.1309 34.2104 31.8665 33.9292 32.667 33.9292C34.6141 33.9292 36.2042 35.5193 36.2042 37.4664C36.2042 39.4135 34.6141 41.0037 32.667 41.0037C30.7198 41.0037 29.1297 39.4135 29.1297 37.4664C29.1297 36.6659 29.411 35.9304 29.8653 35.3354L30.9037 36.3739ZM32.3316 37.8017C32.429 37.8991 32.548 37.9424 32.667 37.9424C32.7859 37.9424 32.9049 37.8991 33.0023 37.8017C33.1862 37.6179 33.1862 37.315 33.0023 37.1311L32.2883 36.4171C32.4073 36.3739 32.5371 36.3414 32.6778 36.3414C33.3052 36.3414 33.8136 36.8498 33.8136 37.4772C33.8136 38.1046 33.3052 38.613 32.6778 38.613C32.0504 38.613 31.542 38.1046 31.542 37.4772C31.542 37.3366 31.5744 37.2176 31.6177 37.0878L32.3424 37.8126L32.3316 37.8017Z" fill="#03B8DF" stroke="#03B8DF" stroke-width="0.250001"/>
</svg>
