<svg width="440" height="440" viewBox="0 0 440 440" fill="none" xmlns="http://www.w3.org/2000/svg">
<rect x="160" width="280" height="440" fill="#D4F7FF"/>
<path d="M335.093 234.38L336.245 224.959C336.655 221.611 338.35 218.567 340.96 216.495C343.569 214.423 346.878 213.493 350.159 213.911C353.44 214.329 356.424 216.059 358.455 218.722C360.485 221.384 361.396 224.761 360.987 228.109L359.835 237.529C359.78 237.979 359.552 238.387 359.201 238.666C358.851 238.944 358.407 239.069 357.966 239.013L336.548 236.287C336.107 236.23 335.707 235.998 335.434 235.64C335.162 235.282 335.039 234.829 335.093 234.38Z" fill="#24285B"/>
<path d="M345.353 237.189C350.401 237.189 354.493 233.014 354.493 227.863C354.493 222.712 350.401 218.536 345.353 218.536C340.305 218.536 336.213 222.712 336.213 227.863C336.213 233.014 340.305 237.189 345.353 237.189Z" fill="#FFB8B8"/>
<path d="M333.226 225.34C333.553 222.693 334.895 220.286 336.959 218.648C339.022 217.009 341.638 216.273 344.233 216.6L346.08 216.835C348.674 217.168 351.032 218.538 352.638 220.644C354.244 222.749 354.965 225.419 354.644 228.066L354.621 228.255L350.719 227.758L349.853 223.786L349.122 227.555L347.106 227.298L346.669 225.294L346.3 227.195L333.203 225.528L333.226 225.34Z" fill="#24285B"/>
<path d="M300.649 261.133C300.928 261.693 301.324 262.183 301.809 262.569C302.295 262.956 302.857 263.229 303.457 263.37C304.057 263.511 304.679 263.516 305.281 263.384C305.883 263.253 306.45 262.988 306.94 262.609L315.242 267.572L319.428 263.159L307.608 256.32C306.929 255.52 305.987 255.003 304.96 254.865C303.932 254.727 302.891 254.979 302.033 255.572C301.175 256.165 300.561 257.059 300.305 258.084C300.05 259.109 300.172 260.194 300.649 261.133Z" fill="#FFB8B8"/>
<path d="M327.858 270.049C321.734 270.049 310.958 267.252 310.362 267.096L310.173 267.047L311.869 258.285L328.328 261.602L337.269 248.754L347.535 247.689L347.248 248.074C347.115 248.253 333.882 266.028 331.823 269.01C331.303 269.762 329.818 270.049 327.858 270.049Z" fill="#9EECFE"/>
<path d="M329.499 302.935L329.254 302.815C329.202 302.79 324 300.208 321.305 295.167C318.623 290.149 331.178 268.866 332.056 267.389L332.069 260.63L336.585 248.188L342.345 244.866L337.399 256.64L329.499 302.935Z" fill="#68E1FD"/>
<path d="M323.729 375.58L318.225 375.58L315.606 353.914L323.73 353.914L323.729 375.58Z" fill="#FFB8B8"/>
<path d="M325.133 381.025L307.383 381.024V380.795C307.383 378.925 308.111 377.132 309.407 375.81C310.703 374.488 312.46 373.746 314.292 373.746H314.292L325.133 373.746L325.133 381.025Z" fill="#FFD200"/>
<path d="M382.856 370.657L377.625 372.406L368.525 352.65L376.245 350.069L382.856 370.657Z" fill="#FFB8B8"/>
<path d="M385.852 375.386L368.984 381.025L368.914 380.807C368.344 379.03 368.489 377.095 369.316 375.427C370.144 373.759 371.587 372.495 373.328 371.913L383.631 368.469L385.852 375.386Z" fill="#FFD200"/>
<path d="M372.198 367.115L356.506 340.383L343.259 311.822L331.338 337.051L326.603 369.726L309.995 369.961L310.061 369.696L335.475 266.653L355.379 269.688L354.473 283.094L355.013 283.877C359.509 290.395 364.158 297.134 361.492 304.398L369.051 327.3L385.783 365.435L372.198 367.115Z" fill="#24285B"/>
<path d="M336.385 288.985C333.5 288.985 330.21 285.625 331.917 279.888L331.806 279.806L335.907 261.32C332.328 256.099 337.046 251.789 337.488 251.404L339.74 247.268L349.677 240.837L354.704 283.462L354.63 283.534C350.999 287.079 338.804 288.985 336.385 288.985Z" fill="white"/>
<path d="M356.734 298.604C356.339 298.61 355.945 298.567 355.56 298.477C355.173 298.378 354.548 297.876 353.581 294.664C349.738 281.896 345.2 243.476 348.497 239.717L348.572 239.631L353.985 240.551C354.435 240.212 356.796 238.531 358.975 238.823C359.423 238.881 359.856 239.031 360.245 239.266C360.634 239.501 360.972 239.815 361.238 240.188L361.275 240.238L362.999 265.27L369.317 294.729L369.165 294.799C368.798 294.97 360.909 298.604 356.734 298.604Z" fill="#68E1FD"/>
<path d="M353.094 288.82C353.709 288.799 354.312 288.641 354.861 288.356C355.409 288.072 355.89 287.668 356.269 287.173C356.649 286.678 356.917 286.105 357.055 285.493C357.194 284.881 357.199 284.245 357.071 283.631L364.995 278.062L362.853 272.323L351.771 280.348C350.774 280.636 349.915 281.288 349.357 282.179C348.8 283.07 348.582 284.139 348.745 285.183C348.908 286.228 349.44 287.175 350.242 287.845C351.043 288.515 352.058 288.862 353.094 288.82Z" fill="#FFB8B8"/>
<path d="M362.38 282.524L355.322 277.242L365.243 263.438L357.63 249.728L361.036 239.789L361.256 240.217C361.359 240.416 371.526 260.181 373.3 263.348C375.145 266.643 363.021 281.73 362.504 282.37L362.38 282.524Z" fill="#9EECFE"/>
<path d="M203.619 344.657L197.612 342.076L193.491 311.349H138.616L134.15 341.95L128.776 344.692C128.518 344.824 128.312 345.039 128.19 345.305C128.069 345.571 128.038 345.871 128.104 346.156C128.17 346.442 128.329 346.696 128.554 346.878C128.78 347.06 129.059 347.159 129.346 347.159H203.124C203.418 347.159 203.704 347.055 203.932 346.865C204.16 346.675 204.316 346.41 204.375 346.115C204.433 345.82 204.39 345.514 204.252 345.248C204.114 344.982 203.89 344.774 203.619 344.657Z" fill="#F1F4F9"/>
<path d="M301.135 315.438H31.5744C30.1601 315.434 28.8048 314.859 27.8058 313.837C26.8069 312.815 26.2459 311.431 26.2458 309.988V271.201H306.464V309.988C306.464 311.431 305.903 312.815 304.904 313.837C303.905 314.859 302.549 315.434 301.135 315.438Z" fill="#DCE1E9"/>
<path d="M306.746 289.532H26V123.569C26.002 121.828 26.6809 120.158 27.8879 118.926C29.0948 117.695 30.7312 117.002 32.4381 117H300.307C302.014 117.002 303.651 117.695 304.858 118.926C306.065 120.158 306.744 121.828 306.746 123.569V289.532Z" fill="#24285B"/>
<path d="M289.978 277.487H42.7677C41.4518 277.486 40.1903 276.952 39.2598 276.002C38.3293 275.053 37.8059 273.765 37.8044 272.423V134.111C37.8059 132.768 38.3293 131.481 39.2598 130.531C40.1902 129.582 41.4518 129.047 42.7677 129.046H289.978C291.294 129.047 292.555 129.582 293.486 130.531C294.416 131.481 294.94 132.768 294.941 134.111V272.423C294.94 273.765 294.416 275.053 293.486 276.002C292.555 276.952 291.294 277.486 289.978 277.487Z" fill="white"/>
<path d="M235.703 347.48H96.7923C96.65 347.483 96.5107 347.438 96.3961 347.352C96.2815 347.265 96.1981 347.143 96.1587 347.003C96.1342 346.908 96.1313 346.809 96.1504 346.713C96.1694 346.616 96.2099 346.526 96.2686 346.448C96.3274 346.37 96.4028 346.307 96.4892 346.264C96.5756 346.22 96.6706 346.198 96.7668 346.197H235.652C235.802 346.192 235.949 346.239 236.07 346.33C236.191 346.421 236.278 346.551 236.317 346.699C236.337 346.793 236.337 346.89 236.315 346.983C236.294 347.077 236.252 347.164 236.193 347.239C236.134 347.314 236.06 347.375 235.975 347.416C235.89 347.458 235.797 347.48 235.703 347.48Z" fill="white"/>
<path d="M287.339 151.407H227.651V197.937H287.339V151.407Z" fill="#E7ECF2"/>
<path d="M284.373 153.718H230.617V195.625H284.373V153.718Z" fill="white"/>
<path d="M258.439 184.803C258.446 184.803 258.453 184.803 258.46 184.802C262.099 184.608 265.529 183.007 268.052 180.324C270.575 177.642 272.002 174.079 272.043 170.361C272.084 166.643 270.735 163.049 268.272 160.31C265.808 157.57 262.414 155.891 258.781 155.613C258.736 155.61 258.691 155.616 258.648 155.631C258.606 155.646 258.566 155.67 258.533 155.701C258.5 155.732 258.474 155.769 258.456 155.81C258.438 155.852 258.428 155.897 258.428 155.943L258.114 184.465C258.113 184.554 258.147 184.639 258.208 184.702C258.269 184.766 258.352 184.802 258.439 184.803Z" fill="#24285B"/>
<path d="M247.199 160.33C247.31 160.331 247.417 160.377 247.495 160.459L257.117 170.5C257.156 170.541 257.187 170.588 257.207 170.64C257.228 170.693 257.238 170.749 257.237 170.805L257.087 184.453C257.087 184.512 257.075 184.569 257.051 184.623C257.028 184.676 256.994 184.724 256.951 184.764C256.909 184.804 256.859 184.834 256.804 184.854C256.749 184.873 256.692 184.881 256.634 184.876C253.958 184.672 251.392 183.71 249.222 182.1C247.053 180.489 245.367 178.292 244.353 175.758C243.34 173.223 243.039 170.45 243.485 167.75C243.931 165.05 245.106 162.531 246.878 160.475C246.916 160.431 246.963 160.395 247.016 160.37C247.068 160.345 247.125 160.331 247.183 160.33C247.188 160.33 247.193 160.33 247.199 160.33Z" fill="#E6E6E6"/>
<path d="M256.984 155.496C257.091 155.497 257.194 155.54 257.271 155.616C257.313 155.657 257.346 155.705 257.368 155.759C257.391 155.814 257.402 155.872 257.401 155.93L257.265 168.244C257.265 168.329 257.239 168.412 257.192 168.482C257.145 168.552 257.079 168.606 257.002 168.638C256.925 168.669 256.84 168.677 256.759 168.659C256.677 168.642 256.603 168.6 256.545 168.539L248.148 159.777C248.108 159.735 248.077 159.686 248.056 159.631C248.036 159.577 248.026 159.519 248.028 159.461C248.03 159.402 248.044 159.345 248.069 159.293C248.093 159.24 248.128 159.193 248.171 159.154C250.613 156.961 253.709 155.672 256.957 155.497C256.966 155.496 256.975 155.496 256.984 155.496Z" fill="#FFD200"/>
<path d="M252.658 190.717C252.652 191.236 252.495 191.742 252.208 192.171C251.92 192.6 251.514 192.932 251.042 193.125C250.569 193.319 250.051 193.365 249.553 193.258C249.055 193.151 248.599 192.895 248.243 192.524C247.887 192.152 247.647 191.681 247.553 191.171C247.46 190.66 247.516 190.133 247.716 189.655C247.917 189.177 248.251 188.771 248.677 188.487C249.104 188.203 249.603 188.055 250.112 188.061C250.795 188.069 251.446 188.354 251.923 188.852C252.4 189.35 252.664 190.02 252.658 190.717Z" fill="#03B8DF"/>
<path d="M260.012 190.802C260.006 191.321 259.85 191.827 259.562 192.256C259.275 192.685 258.869 193.017 258.396 193.21C257.924 193.404 257.406 193.45 256.908 193.343C256.409 193.236 255.953 192.98 255.597 192.609C255.241 192.237 255.001 191.766 254.908 191.256C254.814 190.745 254.871 190.218 255.071 189.74C255.271 189.262 255.605 188.856 256.032 188.572C256.458 188.288 256.958 188.14 257.467 188.146C258.149 188.154 258.801 188.439 259.278 188.937C259.755 189.435 260.019 190.105 260.012 190.802Z" fill="#24285B"/>
<path d="M267.367 190.885C267.361 191.405 267.204 191.911 266.917 192.34C266.629 192.768 266.223 193.1 265.751 193.294C265.278 193.487 264.76 193.533 264.262 193.426C263.764 193.319 263.308 193.064 262.952 192.692C262.596 192.321 262.356 191.85 262.262 191.339C262.169 190.829 262.225 190.301 262.425 189.823C262.625 189.346 262.96 188.939 263.386 188.655C263.813 188.372 264.312 188.223 264.821 188.229C265.504 188.238 266.155 188.522 266.632 189.02C267.109 189.518 267.373 190.189 267.367 190.885Z" fill="#E6E6E6"/>
<path d="M286.71 205.26H227.023V251.79H286.71V205.26Z" fill="#E7ECF2"/>
<path d="M283.744 207.572H229.988V249.478H283.744V207.572Z" fill="white"/>
<path d="M239.109 221.345C240.342 221.345 241.341 220.325 241.341 219.068C241.341 217.81 240.342 216.79 239.109 216.79C237.877 216.79 236.877 217.81 236.877 219.068C236.877 220.325 237.877 221.345 239.109 221.345Z" fill="#24285B"/>
<path d="M274.971 217.295C275.17 217.295 275.367 217.335 275.551 217.412C275.735 217.49 275.902 217.603 276.043 217.747C276.184 217.89 276.296 218.061 276.372 218.248C276.448 218.436 276.487 218.637 276.487 218.84C276.487 219.043 276.448 219.244 276.372 219.432C276.296 219.619 276.184 219.79 276.043 219.933C275.902 220.076 275.735 220.19 275.551 220.268C275.367 220.345 275.17 220.385 274.971 220.384H251.497C251.095 220.384 250.71 220.222 250.426 219.932C250.142 219.642 249.983 219.25 249.983 218.84C249.983 218.43 250.142 218.037 250.426 217.748C250.71 217.458 251.095 217.295 251.497 217.295H274.971ZM274.971 216.917H251.497C251.249 216.917 251.004 216.966 250.775 217.063C250.546 217.159 250.338 217.301 250.162 217.479C249.987 217.658 249.848 217.87 249.753 218.103C249.658 218.337 249.609 218.587 249.609 218.84C249.609 219.093 249.658 219.343 249.753 219.576C249.848 219.81 249.987 220.022 250.162 220.201C250.338 220.379 250.546 220.521 250.775 220.617C251.004 220.714 251.249 220.763 251.497 220.763H274.971C275.219 220.763 275.464 220.714 275.693 220.617C275.922 220.521 276.13 220.379 276.306 220.201C276.481 220.022 276.62 219.81 276.715 219.576C276.81 219.343 276.858 219.093 276.858 218.84C276.858 218.587 276.81 218.337 276.715 218.103C276.62 217.87 276.481 217.658 276.306 217.479C276.13 217.301 275.922 217.159 275.693 217.063C275.464 216.966 275.219 216.917 274.971 216.917Z" fill="#24285B"/>
<path d="M265.709 220.763H248.037C247.537 220.763 247.058 220.56 246.705 220.2C246.351 219.839 246.153 219.35 246.153 218.84C246.153 218.33 246.351 217.841 246.705 217.48C247.058 217.12 247.537 216.917 248.037 216.917H265.709C266.208 216.917 266.688 217.12 267.041 217.48C267.395 217.841 267.593 218.33 267.593 218.84C267.593 219.35 267.395 219.839 267.041 220.2C266.688 220.56 266.208 220.763 265.709 220.763Z" fill="#03B8DF"/>
<path d="M239.109 230.803C240.342 230.803 241.341 229.783 241.341 228.526C241.341 227.268 240.342 226.248 239.109 226.248C237.877 226.248 236.877 227.268 236.877 228.526C236.877 229.783 237.877 230.803 239.109 230.803Z" fill="#24285B"/>
<path d="M274.971 226.753C275.17 226.752 275.367 226.792 275.551 226.87C275.735 226.947 275.902 227.061 276.043 227.204C276.184 227.348 276.296 227.518 276.372 227.706C276.448 227.893 276.488 228.094 276.488 228.297C276.488 228.5 276.448 228.702 276.372 228.889C276.296 229.077 276.184 229.247 276.043 229.39C275.902 229.534 275.735 229.648 275.551 229.725C275.367 229.803 275.17 229.842 274.971 229.842H251.497C251.095 229.842 250.71 229.679 250.426 229.39C250.143 229.1 249.983 228.707 249.983 228.297C249.983 227.888 250.143 227.495 250.426 227.205C250.71 226.916 251.095 226.753 251.497 226.753H274.971ZM274.971 226.375H251.497C250.997 226.375 250.518 226.577 250.164 226.938C249.811 227.298 249.612 227.787 249.612 228.297C249.612 228.807 249.811 229.296 250.164 229.657C250.518 230.018 250.997 230.22 251.497 230.22H274.971C275.471 230.22 275.95 230.018 276.304 229.657C276.657 229.296 276.856 228.807 276.856 228.297C276.856 227.787 276.657 227.298 276.304 226.938C275.95 226.577 275.471 226.375 274.971 226.375Z" fill="#24285B"/>
<path d="M272.382 230.22H248.037C247.537 230.22 247.058 230.018 246.705 229.657C246.351 229.296 246.153 228.807 246.153 228.297C246.153 227.787 246.351 227.298 246.705 226.938C247.058 226.577 247.537 226.375 248.037 226.375H272.382C272.882 226.375 273.361 226.577 273.714 226.938C274.068 227.298 274.266 227.787 274.266 228.297C274.266 228.807 274.068 229.296 273.714 229.657C273.361 230.018 272.882 230.22 272.382 230.22Z" fill="#1853A4"/>
<path d="M239.109 240.26C240.342 240.26 241.341 239.24 241.341 237.983C241.341 236.725 240.342 235.705 239.109 235.705C237.877 235.705 236.877 236.725 236.877 237.983C236.877 239.24 237.877 240.26 239.109 240.26Z" fill="#24285B"/>
<path d="M274.971 236.21C275.17 236.21 275.367 236.25 275.551 236.327C275.735 236.405 275.902 236.518 276.043 236.662C276.184 236.805 276.296 236.976 276.372 237.163C276.448 237.351 276.488 237.552 276.488 237.755C276.488 237.958 276.448 238.159 276.372 238.347C276.296 238.534 276.184 238.705 276.043 238.848C275.902 238.991 275.735 239.105 275.551 239.183C275.367 239.26 275.17 239.3 274.971 239.299H251.497C251.095 239.299 250.71 239.137 250.426 238.847C250.143 238.557 249.983 238.165 249.983 237.755C249.983 237.345 250.143 236.952 250.426 236.663C250.71 236.373 251.095 236.21 251.497 236.21H274.971ZM274.971 235.832H251.497C250.997 235.832 250.518 236.035 250.164 236.395C249.811 236.756 249.612 237.245 249.612 237.755C249.612 238.265 249.811 238.754 250.164 239.115C250.518 239.475 250.997 239.678 251.497 239.678H274.971C275.471 239.678 275.95 239.475 276.304 239.115C276.657 238.754 276.856 238.265 276.856 237.755C276.856 237.245 276.657 236.756 276.304 236.395C275.95 236.035 275.471 235.832 274.971 235.832Z" fill="#24285B"/>
<path d="M257.923 239.678H248.037C247.789 239.678 247.544 239.629 247.315 239.532C247.086 239.436 246.878 239.294 246.703 239.116C246.528 238.937 246.388 238.725 246.294 238.491C246.199 238.258 246.15 238.008 246.15 237.755C246.15 237.502 246.199 237.252 246.294 237.018C246.388 236.785 246.528 236.573 246.703 236.394C246.878 236.216 247.086 236.074 247.315 235.978C247.544 235.881 247.789 235.832 248.037 235.832H257.923C258.422 235.833 258.901 236.036 259.254 236.396C259.607 236.757 259.805 237.245 259.805 237.755C259.805 238.264 259.607 238.753 259.254 239.114C258.901 239.474 258.422 239.677 257.923 239.678Z" fill="#03B8DF"/>
<path d="M213.829 159.638H47.0718V246.845H213.829V159.638Z" fill="#E7ECF2"/>
<path d="M208.27 163.972H52.6301V242.512H208.27V163.972Z" fill="white"/>
<path d="M188.967 230.53H75.5089C75.4147 230.53 75.3244 230.492 75.2578 230.424C75.1912 230.356 75.1538 230.264 75.1538 230.168V174.678C75.1538 174.582 75.1912 174.489 75.2578 174.422C75.3244 174.354 75.4147 174.315 75.5089 174.315C75.6031 174.315 75.6934 174.354 75.76 174.422C75.8265 174.489 75.864 174.582 75.864 174.678V229.806H188.967C189.061 229.806 189.152 229.844 189.218 229.912C189.285 229.98 189.322 230.072 189.322 230.168C189.322 230.264 189.285 230.356 189.218 230.424C189.152 230.492 189.061 230.53 188.967 230.53Z" fill="#24285B"/>
<path d="M99.7502 226.545H89.4307C89.1513 226.544 88.8834 226.431 88.6858 226.229C88.4882 226.028 88.377 225.754 88.3767 225.469V210.953C88.377 210.668 88.4882 210.395 88.6858 210.193C88.8834 209.992 89.1513 209.878 89.4307 209.878H99.7502C100.03 209.878 100.298 209.992 100.495 210.193C100.693 210.395 100.804 210.668 100.804 210.953V225.469C100.804 225.754 100.693 226.028 100.495 226.229C100.298 226.431 100.03 226.544 99.7502 226.545Z" fill="url(#paint0_linear_2022_10975)"/>
<path d="M118.569 226.545H108.249C107.97 226.544 107.702 226.431 107.504 226.229C107.307 226.028 107.196 225.754 107.195 225.469V197.185C107.196 196.9 107.307 196.627 107.504 196.425C107.702 196.224 107.97 196.11 108.249 196.11H118.569C118.848 196.11 119.116 196.224 119.314 196.425C119.511 196.627 119.623 196.9 119.623 197.185V225.469C119.623 225.754 119.511 226.028 119.314 226.229C119.116 226.431 118.848 226.544 118.569 226.545Z" fill="url(#paint1_linear_2022_10975)"/>
<path d="M137.388 226.545H127.068C126.789 226.544 126.521 226.431 126.323 226.229C126.126 226.028 126.015 225.754 126.014 225.469V210.953C126.015 210.668 126.126 210.395 126.323 210.193C126.521 209.992 126.789 209.878 127.068 209.878H137.388C137.667 209.878 137.935 209.992 138.133 210.193C138.33 210.395 138.442 210.668 138.442 210.953V225.469C138.442 225.754 138.33 226.028 138.133 226.229C137.935 226.431 137.667 226.544 137.388 226.545Z" fill="url(#paint2_linear_2022_10975)"/>
<path d="M156.207 226.545H145.887C145.614 226.551 145.35 226.446 145.152 226.254C144.955 226.062 144.84 225.797 144.833 225.518V191.702C144.84 191.424 144.955 191.159 145.152 190.967C145.35 190.774 145.614 190.67 145.887 190.676H156.207C156.48 190.67 156.744 190.774 156.942 190.967C157.139 191.159 157.254 191.424 157.261 191.702V225.518C157.254 225.797 157.139 226.062 156.942 226.254C156.744 226.446 156.48 226.551 156.207 226.545Z" fill="url(#paint3_linear_2022_10975)"/>
<path d="M175.025 226.545H164.706C164.426 226.544 164.159 226.431 163.961 226.229C163.763 226.028 163.652 225.754 163.652 225.469V181.968C163.652 181.683 163.763 181.41 163.961 181.208C164.159 181.006 164.426 180.893 164.706 180.893H175.025C175.305 180.893 175.573 181.006 175.77 181.208C175.968 181.41 176.079 181.683 176.079 181.968V225.469C176.079 225.754 175.968 226.028 175.77 226.229C175.573 226.431 175.305 226.544 175.025 226.545Z" fill="url(#paint4_linear_2022_10975)"/>
<path d="M94.5902 205.53C95.7668 205.53 96.7206 204.557 96.7206 203.357C96.7206 202.156 95.7668 201.183 94.5902 201.183C93.4136 201.183 92.4597 202.156 92.4597 203.357C92.4597 204.557 93.4136 205.53 94.5902 205.53Z" fill="#24285B"/>
<path d="M113.409 191.4C114.586 191.4 115.54 190.427 115.54 189.226C115.54 188.026 114.586 187.052 113.409 187.052C112.233 187.052 111.279 188.026 111.279 189.226C111.279 190.427 112.233 191.4 113.409 191.4Z" fill="#24285B"/>
<path d="M132.228 205.53C133.405 205.53 134.359 204.557 134.359 203.357C134.359 202.156 133.405 201.183 132.228 201.183C131.051 201.183 130.098 202.156 130.098 203.357C130.098 204.557 131.051 205.53 132.228 205.53Z" fill="#24285B"/>
<path d="M151.047 184.516C152.224 184.516 153.177 183.543 153.177 182.342C153.177 181.141 152.224 180.168 151.047 180.168C149.87 180.168 148.917 181.141 148.917 182.342C148.917 183.543 149.87 184.516 151.047 184.516Z" fill="#24285B"/>
<path d="M169.866 176.545C171.042 176.545 171.996 175.572 171.996 174.371C171.996 173.171 171.042 172.197 169.866 172.197C168.689 172.197 167.735 173.171 167.735 174.371C167.735 175.572 168.689 176.545 169.866 176.545Z" fill="#24285B"/>
<path d="M132.273 203.843L113.41 189.426L94.8033 203.646L94.3777 203.066L113.41 188.52L132.183 202.869L150.84 182.037L150.914 182.005L169.733 174.269L169.999 174.941L151.255 182.647L132.273 203.843Z" fill="#24285B"/>
<path d="M413.588 382.237H256.75C256.64 382.237 256.536 382.193 256.458 382.114C256.381 382.035 256.338 381.928 256.338 381.817C256.338 381.706 256.381 381.599 256.458 381.52C256.536 381.441 256.64 381.397 256.75 381.397H413.588C413.698 381.397 413.802 381.441 413.879 381.52C413.957 381.599 414 381.706 414 381.817C414 381.928 413.957 382.035 413.879 382.114C413.802 382.193 413.698 382.237 413.588 382.237Z" fill="white"/>
<defs>
<linearGradient id="paint0_linear_2022_10975" x1="100.804" y1="226.545" x2="84.8305" y2="214.634" gradientUnits="userSpaceOnUse">
<stop stop-color="#03B8DF"/>
<stop offset="1" stop-color="#1853A4"/>
</linearGradient>
<linearGradient id="paint1_linear_2022_10975" x1="119.623" y1="226.545" x2="98.3198" y2="217.846" gradientUnits="userSpaceOnUse">
<stop stop-color="#03B8DF"/>
<stop offset="1" stop-color="#1853A4"/>
</linearGradient>
<linearGradient id="paint2_linear_2022_10975" x1="138.442" y1="226.545" x2="122.468" y2="214.634" gradientUnits="userSpaceOnUse">
<stop stop-color="#03B8DF"/>
<stop offset="1" stop-color="#1853A4"/>
</linearGradient>
<linearGradient id="paint3_linear_2022_10975" x1="157.261" y1="226.545" x2="135.069" y2="218.857" gradientUnits="userSpaceOnUse">
<stop stop-color="#03B8DF"/>
<stop offset="1" stop-color="#1853A4"/>
</linearGradient>
<linearGradient id="paint4_linear_2022_10975" x1="176.079" y1="226.545" x2="152.939" y2="220.246" gradientUnits="userSpaceOnUse">
<stop stop-color="#03B8DF"/>
<stop offset="1" stop-color="#1853A4"/>
</linearGradient>
</defs>
</svg>
