<svg width="440" height="440" viewBox="0 0 440 440" fill="none" xmlns="http://www.w3.org/2000/svg">
<rect x="160" width="280" height="440" fill="#D4F7FF"/>
<path d="M46.1681 316.243L44.9286 322.461C44.8352 322.937 44.7376 323.421 44.6314 323.9C43.5955 323.685 42.5213 323.746 41.5157 324.074C42.3135 325.214 43.0285 326.41 43.6551 327.653C42.8741 330.06 41.728 332.284 39.8093 333.893C38.5278 334.943 36.9973 335.646 35.3653 335.933C33.7333 336.22 32.0548 336.081 30.4918 335.531L30.547 335.285C28.484 331.282 29.6047 326.235 32.1686 322.538C33.4762 320.714 35.0256 319.076 36.7742 317.669C38.5061 316.226 40.3781 314.931 42.2331 313.653C42.6497 313.367 43.1423 313.211 43.6479 313.206C44.1535 313.201 44.6492 313.346 45.0716 313.624C45.494 313.902 45.8239 314.3 46.0192 314.766C46.2145 315.233 46.2664 315.747 46.1681 316.243Z" fill="#E4E4E4"/>
<path d="M30.9338 350.494C30.4122 346.694 29.8756 342.845 30.2415 339.004C30.5667 335.593 31.6071 332.261 33.7261 329.529C34.8508 328.081 36.2193 326.841 37.7702 325.864C38.1747 325.61 38.5466 326.25 38.1441 326.504C35.4609 328.2 33.3854 330.704 32.2171 333.655C30.9266 336.937 30.7195 340.515 30.9436 344.002C31.0782 346.11 31.363 348.204 31.6504 350.297C31.6735 350.391 31.6596 350.491 31.6115 350.576C31.5633 350.661 31.4846 350.724 31.3914 350.753C31.2967 350.778 31.1956 350.765 31.1103 350.717C31.0249 350.668 30.9621 350.588 30.9355 350.494L30.9338 350.494Z" fill="#F2F2F2"/>
<g style="mix-blend-mode:multiply">
<path d="M35.4108 159.874C53.5945 159.557 71.7803 159.512 89.968 159.737C108.153 159.964 126.332 160.463 144.505 161.233C154.702 161.666 164.896 162.184 175.085 162.788C175.904 162.836 175.901 161.562 175.085 161.514C156.93 160.44 138.762 159.636 120.581 159.103C102.402 158.571 84.2184 158.311 66.0292 158.323C55.8225 158.33 45.6164 158.422 35.4108 158.6C34.5922 158.614 34.5896 159.888 35.4108 159.874Z" fill="#7D8592"/>
</g>
<g style="mix-blend-mode:multiply">
<path d="M162.134 151.889L170.085 151.297C170.898 151.236 170.904 149.963 170.085 150.023L162.134 150.615C161.322 150.676 161.315 151.95 162.134 151.889Z" fill="#7D8592"/>
</g>
<g style="mix-blend-mode:multiply">
<path d="M162.134 159.529L170.085 158.938C170.898 158.877 170.904 157.603 170.085 157.664L162.134 158.256C161.322 158.316 161.315 159.59 162.134 159.529Z" fill="#7D8592"/>
</g>
<g style="mix-blend-mode:multiply">
<path d="M161.537 156.04L172.842 157.067C173.657 157.141 173.652 155.867 172.842 155.794L161.537 154.767C160.721 154.693 160.726 155.966 161.537 156.04Z" fill="#7D8592"/>
</g>
<g style="mix-blend-mode:multiply">
<path d="M40.1162 150.176C39.5632 150.173 39.0215 150.332 38.5586 150.635C38.0956 150.937 37.7319 151.369 37.5127 151.876C37.2676 152.373 37.1919 152.937 37.2973 153.481C37.4026 154.025 37.6833 154.519 38.0962 154.889C38.4845 155.219 38.9501 155.445 39.4496 155.547C39.9491 155.648 40.4662 155.621 40.9525 155.469C41.4499 155.295 41.8811 154.972 42.187 154.543C42.4929 154.114 42.6582 153.6 42.6604 153.074C42.6826 152.489 42.5242 151.912 42.2069 151.421C41.8895 150.929 41.4285 150.548 40.8866 150.328C40.7238 150.283 40.5501 150.305 40.4034 150.389C40.2567 150.472 40.1488 150.61 40.1034 150.772C40.0632 150.935 40.0869 151.107 40.1697 151.253C40.2524 151.398 40.3878 151.507 40.5481 151.556C40.6591 151.598 40.4467 151.501 40.5503 151.557C40.5929 151.581 40.6363 151.602 40.6782 151.626C40.7137 151.648 40.7478 151.671 40.7824 151.693C40.9012 151.771 40.7244 151.636 40.8003 151.706C40.8662 151.766 40.9315 151.825 40.9914 151.892C41.014 151.917 41.1027 151.988 41.0338 151.938C40.981 151.901 41.0135 151.91 41.0338 151.94C41.0492 151.963 41.0655 151.985 41.0807 152.008C41.1304 152.083 41.1755 152.161 41.2159 152.242C41.2252 152.26 41.2338 152.279 41.2433 152.298C41.2611 152.333 41.287 152.342 41.2451 152.298C41.205 152.257 41.2305 152.259 41.2448 152.299C41.2543 152.326 41.2646 152.352 41.2737 152.378C41.3036 152.464 41.3286 152.551 41.3488 152.64C41.3581 152.681 41.3656 152.722 41.3736 152.764C41.4021 152.91 41.3695 152.673 41.3764 152.781C41.3821 152.872 41.3888 152.962 41.3872 153.053C41.3865 153.094 41.3847 153.136 41.3818 153.178C41.3803 153.198 41.378 153.219 41.3767 153.24C41.3701 153.34 41.3698 153.203 41.3838 153.194C41.3547 153.279 41.3354 153.367 41.3263 153.456C41.3149 153.495 41.3013 153.534 41.2886 153.573C41.2443 153.71 41.3302 153.499 41.283 153.592C41.2442 153.672 41.2007 153.75 41.1529 153.825C41.1322 153.857 41.054 153.928 41.1179 153.879C41.1873 153.825 41.0815 153.917 41.059 153.941C41.03 153.972 40.9999 154.001 40.9687 154.03C40.9487 154.049 40.9276 154.068 40.9055 154.085C40.9015 154.083 41.0119 154.011 40.9524 154.049C40.8767 154.097 40.8051 154.149 40.7253 154.191C40.7161 154.196 40.6141 154.243 40.6145 154.245C40.6102 154.227 40.7456 154.197 40.6526 154.227C40.6331 154.233 40.6139 154.241 40.5945 154.247C40.5098 154.276 40.4234 154.299 40.3358 154.316C40.3158 154.32 40.2946 154.322 40.2748 154.327C40.209 154.344 40.3377 154.317 40.3416 154.32C40.2929 154.318 40.2442 154.322 40.1967 154.333C40.1063 154.338 40.0158 154.338 39.9254 154.333C39.9045 154.331 39.8837 154.329 39.8628 154.328C39.8143 154.325 39.7786 154.29 39.8432 154.328C39.893 154.357 39.8889 154.336 39.8448 154.328C39.8241 154.324 39.8034 154.321 39.7827 154.317C39.6933 154.3 39.6049 154.279 39.5179 154.252C39.471 154.238 39.4251 154.221 39.3789 154.205C39.3588 154.199 39.3392 154.192 39.3204 154.183C39.3201 154.177 39.4394 154.24 39.3764 154.206C39.2969 154.163 39.2146 154.127 39.137 154.08C39.0955 154.055 39.0557 154.028 39.0154 154.001C38.9977 153.99 38.9809 153.978 38.965 153.965C38.9664 153.96 39.0638 154.05 39.0126 154.001C38.948 153.94 38.8788 153.884 38.8176 153.819C38.8036 153.804 38.7903 153.788 38.7764 153.773L38.7629 153.758C38.7284 153.715 38.7277 153.716 38.761 153.758C38.7947 153.768 38.7932 153.805 38.7611 153.757C38.7497 153.74 38.7376 153.723 38.7262 153.706C38.6745 153.632 38.6304 153.554 38.5946 153.471C38.5977 153.469 38.6498 153.624 38.61 153.507C38.6024 153.485 38.594 153.463 38.5866 153.441C38.572 153.396 38.5591 153.352 38.548 153.307C38.537 153.262 38.5313 153.216 38.5202 153.172C38.5015 153.097 38.5312 153.231 38.5278 153.227C38.5172 153.217 38.5217 153.152 38.5209 153.136C38.5158 153.036 38.5272 152.939 38.529 152.84C38.5303 152.763 38.5226 152.9 38.521 152.896C38.5214 152.873 38.5255 152.85 38.5331 152.828C38.5446 152.776 38.5553 152.724 38.5694 152.672C38.5856 152.613 38.6042 152.554 38.6252 152.496C38.6331 152.475 38.6427 152.453 38.65 152.431C38.6768 152.351 38.5969 152.528 38.641 152.456C38.7015 152.357 38.7467 152.249 38.811 152.151C38.8262 152.128 38.9189 151.999 38.8697 152.064C38.8207 152.129 38.92 152.006 38.9388 151.985C39.0169 151.898 39.1088 151.827 39.1897 151.743C39.2375 151.694 39.1562 151.768 39.1515 151.771C39.1765 151.753 39.201 151.734 39.2264 151.717C39.2706 151.687 39.3159 151.658 39.3622 151.631C39.4145 151.6 39.4735 151.577 39.5242 151.545C39.584 151.506 39.4784 151.562 39.4765 151.563C39.5039 151.549 39.5324 151.538 39.5618 151.53C39.6111 151.513 39.8256 151.42 39.8706 151.449C39.8685 151.448 39.7077 151.462 39.8377 151.454C39.8684 151.452 39.899 151.449 39.9298 151.447C39.992 151.445 40.054 151.446 40.1162 151.45C40.2847 151.449 40.446 151.381 40.5652 151.262C40.6844 151.143 40.7518 150.981 40.7529 150.813C40.7493 150.645 40.6811 150.485 40.5624 150.367C40.4438 150.248 40.2839 150.18 40.1162 150.176Z" fill="#7D8592"/>
</g>
<g style="mix-blend-mode:multiply">
<path d="M49.0302 150.176C48.4773 150.173 47.9356 150.332 47.4726 150.635C47.0097 150.937 46.6459 151.369 46.4268 151.876C46.1816 152.373 46.1059 152.937 46.2113 153.481C46.3167 154.025 46.5973 154.519 47.0103 154.889C47.3985 155.219 47.8641 155.445 48.3636 155.547C48.8632 155.648 49.3802 155.621 49.8666 155.469C50.3639 155.295 50.7952 154.972 51.1011 154.543C51.4069 154.114 51.5723 153.6 51.5744 153.074C51.5966 152.489 51.4383 151.912 51.1209 151.421C50.8036 150.929 50.3426 150.548 49.8007 150.328C49.6379 150.283 49.4642 150.305 49.3174 150.389C49.1707 150.472 49.0629 150.61 49.0174 150.772C48.9773 150.935 49.001 151.107 49.0837 151.253C49.1665 151.398 49.3019 151.507 49.4622 151.556C49.5731 151.598 49.3608 151.501 49.4644 151.557C49.507 151.581 49.5504 151.602 49.5922 151.626C49.6278 151.648 49.6619 151.671 49.6964 151.693C49.8153 151.771 49.6384 151.636 49.7144 151.706C49.7803 151.766 49.8456 151.825 49.9054 151.892C49.9281 151.917 50.0168 151.988 49.9479 151.938C49.8951 151.901 49.9275 151.91 49.9478 151.94C49.9633 151.963 49.9796 151.985 49.9948 152.008C50.0444 152.083 50.0896 152.161 50.1299 152.242C50.1393 152.26 50.1479 152.279 50.1574 152.298C50.1752 152.333 50.2011 152.342 50.1591 152.298C50.1191 152.257 50.1446 152.259 50.1589 152.299C50.1683 152.326 50.1786 152.352 50.1878 152.378C50.2176 152.464 50.2427 152.551 50.2629 152.64C50.2722 152.681 50.2797 152.722 50.2877 152.764C50.3162 152.91 50.2836 152.673 50.2904 152.781C50.2962 152.872 50.3029 152.962 50.3013 153.053C50.3006 153.094 50.2988 153.136 50.2959 153.178C50.2944 153.198 50.2921 153.219 50.2907 153.24C50.2841 153.34 50.2839 153.203 50.2979 153.194C50.2688 153.279 50.2495 153.367 50.2403 153.456C50.2289 153.495 50.2154 153.534 50.2027 153.573C50.1584 153.71 50.2443 153.499 50.1971 153.592C50.1582 153.672 50.1148 153.75 50.067 153.825C50.0463 153.857 49.968 153.928 50.032 153.879C50.1014 153.825 49.9956 153.917 49.973 153.941C49.944 153.972 49.9139 154.001 49.8827 154.03C49.8627 154.049 49.8417 154.068 49.8196 154.085C49.8155 154.083 49.9259 154.011 49.8664 154.049C49.7908 154.097 49.7191 154.149 49.6394 154.191C49.6301 154.196 49.5282 154.243 49.5286 154.245C49.5242 154.227 49.6597 154.197 49.5667 154.227C49.5472 154.233 49.528 154.241 49.5086 154.247C49.4239 154.276 49.3375 154.299 49.2499 154.316C49.2298 154.32 49.2086 154.322 49.1889 154.327C49.1231 154.344 49.2518 154.317 49.2556 154.32C49.207 154.318 49.1583 154.322 49.1107 154.333C49.0204 154.338 48.9298 154.338 48.8395 154.333C48.8186 154.331 48.7977 154.329 48.7768 154.328C48.7283 154.325 48.6927 154.29 48.7573 154.328C48.8071 154.357 48.803 154.336 48.7588 154.328C48.7382 154.324 48.7174 154.321 48.6968 154.317C48.6074 154.3 48.519 154.279 48.4319 154.252C48.3851 154.238 48.3392 154.221 48.293 154.205C48.2729 154.199 48.2533 154.192 48.2344 154.183C48.2341 154.177 48.3535 154.24 48.2905 154.206C48.211 154.163 48.1287 154.127 48.051 154.08C48.0096 154.055 47.9698 154.028 47.9295 154.001C47.9118 153.99 47.8949 153.978 47.8791 153.965C47.8804 153.96 47.9778 154.05 47.9267 154.001C47.862 153.94 47.7929 153.884 47.7317 153.819C47.7177 153.804 47.7044 153.788 47.6904 153.773L47.6769 153.758C47.6424 153.715 47.6418 153.716 47.675 153.758C47.7088 153.768 47.7072 153.805 47.6752 153.757C47.6638 153.74 47.6517 153.723 47.6403 153.706C47.5886 153.632 47.5445 153.554 47.5087 153.471C47.5118 153.469 47.5638 153.624 47.524 153.507C47.5165 153.485 47.508 153.463 47.5007 153.441C47.486 153.396 47.4732 153.352 47.462 153.307C47.451 153.262 47.4454 153.216 47.4343 153.172C47.4156 153.097 47.4452 153.231 47.4418 153.227C47.4312 153.217 47.4357 153.152 47.435 153.136C47.4299 153.036 47.4412 152.939 47.443 152.84C47.4444 152.763 47.4367 152.9 47.435 152.896C47.4354 152.873 47.4395 152.85 47.4471 152.828C47.4587 152.776 47.4694 152.724 47.4835 152.672C47.4997 152.613 47.5183 152.554 47.5393 152.496C47.5472 152.475 47.5567 152.453 47.5641 152.431C47.5909 152.351 47.511 152.528 47.555 152.456C47.6156 152.357 47.6607 152.249 47.725 152.151C47.7403 152.128 47.833 151.999 47.7838 152.064C47.7348 152.129 47.8341 152.006 47.8529 151.985C47.931 151.898 48.0229 151.827 48.1037 151.743C48.1516 151.694 48.0703 151.768 48.0655 151.771C48.0906 151.753 48.1151 151.734 48.1404 151.717C48.1846 151.687 48.2299 151.658 48.2763 151.631C48.3285 151.6 48.3876 151.577 48.4382 151.545C48.498 151.506 48.3925 151.562 48.3906 151.563C48.4179 151.549 48.4465 151.538 48.4759 151.53C48.5252 151.513 48.7396 151.42 48.7846 151.449C48.7826 151.448 48.6218 151.462 48.7518 151.454C48.7825 151.452 48.8131 151.449 48.8438 151.447C48.9061 151.445 48.9681 151.446 49.0302 151.45C49.1988 151.449 49.3601 151.381 49.4792 151.262C49.5984 151.143 49.6659 150.981 49.667 150.813C49.6634 150.645 49.5951 150.485 49.4765 150.367C49.3578 150.248 49.198 150.18 49.0302 150.176Z" fill="#7D8592"/>
</g>
<g style="mix-blend-mode:multiply">
<path d="M57.9453 150.176C57.3923 150.173 56.8506 150.332 56.3877 150.635C55.9247 150.937 55.561 151.369 55.3418 151.876C55.0967 152.373 55.021 152.937 55.1264 153.481C55.2317 154.025 55.5124 154.519 55.9253 154.889C56.3136 155.219 56.7792 155.445 57.2787 155.547C57.7782 155.648 58.2953 155.621 58.7816 155.469C59.279 155.295 59.7103 154.972 60.0161 154.543C60.322 154.114 60.4873 153.6 60.4895 153.074C60.5117 152.489 60.3533 151.912 60.036 151.421C59.7186 150.929 59.2576 150.548 58.7157 150.328C58.5529 150.283 58.3792 150.305 58.2325 150.389C58.0858 150.472 57.9779 150.61 57.9325 150.772C57.8923 150.935 57.916 151.107 57.9988 151.253C58.0815 151.398 58.2169 151.507 58.3772 151.556C58.4882 151.598 58.2758 151.501 58.3794 151.557C58.422 151.581 58.4654 151.602 58.5073 151.626C58.5428 151.648 58.5769 151.671 58.6115 151.693C58.7303 151.771 58.5535 151.636 58.6294 151.706C58.6953 151.766 58.7606 151.825 58.8205 151.892C58.8431 151.917 58.9318 151.988 58.8629 151.938C58.8101 151.901 58.8426 151.91 58.8629 151.94C58.8783 151.963 58.8946 151.985 58.9098 152.008C58.9595 152.083 59.0046 152.161 59.045 152.242C59.0543 152.26 59.0629 152.279 59.0724 152.298C59.0902 152.333 59.1161 152.342 59.0742 152.298C59.0341 152.257 59.0596 152.259 59.074 152.299C59.0834 152.326 59.0937 152.352 59.1028 152.378C59.1327 152.464 59.1577 152.551 59.1779 152.64C59.1872 152.681 59.1947 152.722 59.2027 152.764C59.2312 152.91 59.1986 152.673 59.2055 152.781C59.2112 152.872 59.2179 152.962 59.2163 153.053C59.2156 153.094 59.2138 153.136 59.2109 153.178C59.2094 153.198 59.2071 153.219 59.2058 153.24C59.1992 153.34 59.1989 153.203 59.2129 153.194C59.1838 153.279 59.1645 153.367 59.1554 153.456C59.144 153.495 59.1304 153.534 59.1177 153.573C59.0734 153.71 59.1593 153.499 59.1121 153.592C59.0733 153.672 59.0298 153.75 58.982 153.825C58.9613 153.857 58.8831 153.928 58.947 153.879C59.0164 153.825 58.9106 153.917 58.8881 153.941C58.8591 153.972 58.829 154.001 58.7978 154.03C58.7778 154.049 58.7567 154.068 58.7346 154.085C58.7306 154.083 58.841 154.011 58.7815 154.049C58.7058 154.097 58.6342 154.149 58.5544 154.191C58.5452 154.196 58.4432 154.243 58.4436 154.245C58.4393 154.227 58.5747 154.197 58.4817 154.227C58.4622 154.233 58.443 154.241 58.4236 154.247C58.3389 154.276 58.2525 154.299 58.1649 154.316C58.1449 154.32 58.1237 154.322 58.1039 154.327C58.0381 154.344 58.1668 154.317 58.1707 154.32C58.122 154.318 58.0733 154.322 58.0258 154.333C57.9354 154.338 57.8449 154.338 57.7545 154.333C57.7336 154.331 57.7128 154.329 57.6919 154.328C57.6434 154.325 57.6078 154.29 57.6723 154.328C57.7221 154.357 57.718 154.336 57.6739 154.328C57.6532 154.324 57.6325 154.321 57.6118 154.317C57.5224 154.3 57.434 154.279 57.347 154.252C57.3001 154.238 57.2542 154.221 57.208 154.205C57.1879 154.199 57.1683 154.192 57.1495 154.183C57.1492 154.177 57.2685 154.24 57.2055 154.206C57.126 154.163 57.0437 154.127 56.9661 154.08C56.9246 154.055 56.8848 154.028 56.8445 154.001C56.8268 153.99 56.81 153.978 56.7941 153.965C56.7955 153.96 56.8929 154.05 56.8417 154.001C56.7771 153.94 56.7079 153.884 56.6467 153.819C56.6327 153.804 56.6194 153.788 56.6055 153.773L56.592 153.758C56.5575 153.715 56.5568 153.716 56.5901 153.758C56.6238 153.768 56.6223 153.805 56.5902 153.757C56.5788 153.74 56.5667 153.723 56.5553 153.706C56.5036 153.632 56.4595 153.554 56.4237 153.471C56.4268 153.469 56.4789 153.624 56.4391 153.507C56.4315 153.485 56.4231 153.463 56.4157 153.441C56.4011 153.396 56.3882 153.352 56.3771 153.307C56.3661 153.262 56.3604 153.216 56.3493 153.172C56.3306 153.097 56.3603 153.231 56.3569 153.227C56.3463 153.217 56.3508 153.152 56.35 153.136C56.3449 153.036 56.3563 152.939 56.3581 152.84C56.3594 152.763 56.3517 152.9 56.3501 152.896C56.3505 152.873 56.3546 152.85 56.3622 152.828C56.3737 152.776 56.3844 152.724 56.3985 152.672C56.4147 152.613 56.4333 152.554 56.4543 152.496C56.4622 152.475 56.4718 152.453 56.4791 152.431C56.5059 152.351 56.426 152.528 56.4701 152.456C56.5306 152.357 56.5758 152.249 56.6401 152.151C56.6553 152.128 56.748 151.999 56.6988 152.064C56.6498 152.129 56.7491 152.006 56.7679 151.985C56.8461 151.898 56.9379 151.827 57.0188 151.743C57.0666 151.694 56.9854 151.768 56.9806 151.771C57.0056 151.753 57.0301 151.734 57.0555 151.717C57.0997 151.687 57.145 151.658 57.1913 151.631C57.2436 151.6 57.3026 151.577 57.3533 151.545C57.4131 151.506 57.3075 151.562 57.3056 151.563C57.333 151.549 57.3615 151.538 57.3909 151.53C57.4402 151.513 57.6547 151.42 57.6997 151.449C57.6976 151.448 57.5368 151.462 57.6668 151.454C57.6975 151.452 57.7281 151.449 57.7589 151.447C57.8211 151.445 57.8831 151.446 57.9453 151.45C58.1138 151.449 58.2751 151.381 58.3943 151.262C58.5135 151.143 58.5809 150.981 58.582 150.813C58.5784 150.645 58.5102 150.485 58.3915 150.367C58.2729 150.248 58.113 150.18 57.9453 150.176Z" fill="#7D8592"/>
</g>
<g style="mix-blend-mode:multiply">
<path d="M186.722 291.195H30.5521C28.5773 291.193 26.684 290.407 25.2876 289.011C23.8912 287.614 23.1057 285.721 23.1035 283.746V144.555C23.1057 142.581 23.8912 140.687 25.2876 139.291C26.684 137.894 28.5773 137.109 30.5521 137.107H186.722C188.697 137.109 190.59 137.894 191.987 139.291C193.383 140.687 194.169 142.581 194.171 144.555V283.746C194.169 285.721 193.383 287.614 191.987 289.011C190.59 290.407 188.697 291.193 186.722 291.195ZM30.5521 137.956C28.8024 137.958 27.1249 138.654 25.8877 139.891C24.6504 141.128 23.9545 142.806 23.9525 144.555V283.746C23.9545 285.496 24.6505 287.174 25.8877 288.411C27.125 289.648 28.8024 290.344 30.5521 290.346H186.722C188.472 290.344 190.149 289.648 191.387 288.411C192.624 287.174 193.32 285.496 193.322 283.746V144.555C193.32 142.806 192.624 141.128 191.387 139.891C190.15 138.654 188.472 137.958 186.722 137.956H30.5521Z" fill="#7D8592"/>
</g>
<g style="mix-blend-mode:multiply">
<path d="M30.2928 231.812L85.2123 231.645L139.852 231.479L170.674 231.385C170.839 231.379 170.995 231.31 171.11 231.191C171.225 231.072 171.289 230.913 171.289 230.748C171.289 230.583 171.225 230.424 171.11 230.306C170.995 230.187 170.839 230.117 170.674 230.111L115.754 230.279L61.115 230.445L30.2928 230.538C30.1277 230.544 29.9713 230.614 29.8566 230.733C29.7419 230.851 29.6777 231.01 29.6777 231.175C29.6777 231.34 29.7419 231.499 29.8566 231.618C29.9713 231.737 30.1277 231.806 30.2928 231.812Z" fill="#7D8592"/>
</g>
<path d="M57.9992 230.779L58.3387 210.728C58.3526 209.908 57.0792 209.908 57.0653 210.728L56.7257 230.779C56.7118 231.599 57.9853 231.599 57.9992 230.779Z" fill="#E6E6E6"/>
<g style="mix-blend-mode:multiply">
<path d="M84.2475 230.996L85.0751 205.793L85.3115 198.592C85.3384 197.772 84.0649 197.773 84.0381 198.592L83.2105 223.795L82.9741 230.996C82.9471 231.816 84.2206 231.815 84.2475 230.996Z" fill="#7D8592"/>
</g>
<g style="mix-blend-mode:multiply">
<path d="M110.424 186.645C109.925 195.572 109.001 221.902 108.502 230.829C108.456 231.648 109.73 231.646 109.776 230.829C110.275 221.902 111.198 195.572 111.698 186.645C111.743 185.826 110.47 185.828 110.424 186.645Z" fill="#7D8592"/>
</g>
<g style="mix-blend-mode:multiply">
<path d="M136.476 221.872L136.319 230.452C136.305 231.272 137.578 231.272 137.593 230.452C137.777 220.318 138.25 220.648 138.302 217.788C138.317 216.969 137.044 216.969 137.029 217.788C137.029 217.788 136.66 211.738 136.476 221.872Z" fill="#7D8592"/>
</g>
<g style="mix-blend-mode:multiply">
<path d="M161.992 199.331L162.136 223.403L162.177 230.296C162.183 230.461 162.253 230.618 162.372 230.732C162.49 230.847 162.649 230.911 162.814 230.911C162.979 230.911 163.138 230.847 163.257 230.732C163.376 230.618 163.445 230.461 163.451 230.296L163.307 206.224L163.266 199.331C163.26 199.166 163.19 199.01 163.072 198.895C162.953 198.781 162.794 198.716 162.629 198.716C162.464 198.716 162.305 198.781 162.186 198.895C162.067 199.01 161.998 199.166 161.992 199.331Z" fill="#7D8592"/>
</g>
<g style="mix-blend-mode:multiply">
<path d="M30.3955 231.096C29.3415 228.199 31.7176 225.413 34.1592 224.161C37.0843 222.661 40.4493 222.321 43.4054 220.875C47.8125 218.72 51.0225 214.851 53.8788 210.979C56.8187 206.993 59.5087 202.716 63.2443 199.404C65.2128 197.62 67.5378 196.275 70.0653 195.457C73.2499 194.463 76.6273 194.395 79.9179 194.795C86.7176 195.623 93.0209 198.432 99.5818 200.216C105.767 201.899 112.583 202.846 118.654 200.229C121.739 198.899 124.261 196.669 126.971 194.739C129.593 192.852 132.525 191.438 135.634 190.561C141.728 188.866 148.384 189.318 154.059 192.183C159.274 194.783 163.404 199.142 165.719 204.49C168.409 210.916 168.059 218.097 167.18 224.861C166.953 226.61 166.683 228.352 166.409 230.094C166.284 230.895 167.511 231.241 167.637 230.432C168.732 223.458 169.822 216.262 168.461 209.244C167.284 203.115 163.914 197.626 158.982 193.802C154.029 189.969 147.872 188.025 141.616 188.322C138.337 188.474 135.11 189.192 132.076 190.443C128.926 191.746 126.259 193.677 123.55 195.709C120.765 197.797 117.894 199.525 114.436 200.207C111.082 200.867 107.593 200.62 104.254 199.996C97.3632 198.708 90.9407 195.757 84.1088 194.245C77.779 192.844 70.9486 192.704 65.2806 196.28C60.9205 199.031 57.8396 203.301 54.8829 207.424C51.9521 211.512 48.9842 215.882 44.6986 218.674C42.0843 220.378 39.1456 221.006 36.2211 221.964C33.289 222.924 30.4742 224.544 29.2787 227.548C28.7635 228.785 28.7239 230.169 29.1676 231.434C29.4456 232.198 30.6767 231.868 30.3955 231.096Z" fill="#7D8592"/>
</g>
<path d="M57.577 207.955L57.5752 207.956L57.5788 207.955H57.577Z" fill="#E6E6E6"/>
<g style="mix-blend-mode:multiply">
<path d="M59.7847 206.784C59.4904 206.263 59.0208 205.863 58.4595 205.655C57.8981 205.447 57.2813 205.445 56.7186 205.649C56.4388 205.751 56.1824 205.909 55.9645 206.112C55.7466 206.314 55.5715 206.559 55.4498 206.831C55.4254 206.888 55.4111 206.949 55.3912 207.008C55.3636 207.053 55.3305 207.093 55.3058 207.14C55.0418 207.666 54.9696 208.267 55.1014 208.841C55.2332 209.414 55.5609 209.924 56.0281 210.282C56.4952 210.64 57.0725 210.823 57.6605 210.801C58.2485 210.779 58.8105 210.553 59.2496 210.161C59.7111 209.744 60.0158 209.182 60.1132 208.567C60.2105 207.953 60.0946 207.324 59.7847 206.784ZM58.1898 207.866C58.1931 207.927 58.195 207.898 58.1898 207.866V207.866ZM58.0277 207.497C58.0214 207.49 58.0222 207.491 58.0277 207.497V207.497ZM57.3131 207.784C57.3026 207.767 57.3036 207.77 57.3131 207.784V207.784ZM57.4825 207.928C57.5069 207.939 57.5228 207.942 57.4825 207.928V207.928ZM57.5581 207.964L57.5749 207.956C57.5708 207.957 57.5667 207.956 57.563 207.954L57.5635 207.954L57.5766 207.955L57.5791 207.954L57.5715 207.953C57.5781 207.952 57.5787 207.953 57.5791 207.954C57.6549 207.92 57.6037 207.936 57.5598 207.95L57.5569 207.949C57.5295 207.935 57.5 207.926 57.4696 207.921C57.4668 207.92 57.4635 207.918 57.4611 207.917C57.4367 207.899 57.3135 207.803 57.4278 207.904C57.4029 207.882 57.3784 207.86 57.355 207.837C57.3412 207.823 57.3287 207.807 57.3176 207.791C57.3026 207.765 57.2881 207.739 57.274 207.713L57.2718 207.699C57.27 207.687 57.2686 207.682 57.267 207.675C57.2678 207.668 57.2689 207.66 57.2701 207.653C57.2786 207.63 57.284 207.606 57.2862 207.581L57.2912 207.575C57.3094 207.55 57.3255 207.52 57.3429 207.493C57.2506 207.633 57.379 207.478 57.3886 207.458C57.3902 207.455 57.3874 207.457 57.3881 207.454C57.3918 207.452 57.3907 207.454 57.3952 207.451C57.4238 207.434 57.4509 207.415 57.4799 207.399C57.5145 207.38 57.6508 207.341 57.5095 207.382C57.5416 207.373 57.5724 207.361 57.6048 207.353C57.6107 207.351 57.6582 207.344 57.6839 207.34C57.7064 207.339 57.7282 207.339 57.7305 207.339C57.7411 207.339 57.7516 207.34 57.7622 207.34C57.7388 207.344 57.8427 207.366 57.8736 207.371C57.878 207.374 57.8803 207.377 57.8863 207.381C57.9124 207.4 57.9442 207.417 57.9717 207.435C57.8486 207.355 57.9733 207.441 57.9968 207.465C58.0109 207.479 58.0239 207.494 58.0371 207.509C58.0492 207.523 58.0602 207.538 58.0699 207.553C58.0901 207.59 58.1116 207.628 58.1328 207.664L58.1387 207.674C58.1386 207.675 58.1385 207.676 58.1385 207.677C58.1495 207.736 58.1659 207.794 58.1873 207.85C58.1883 207.855 58.1891 207.86 58.1897 207.865C58.1916 207.897 58.1943 207.929 58.1944 207.962L58.1941 207.968C58.0961 207.917 57.9872 207.89 57.8767 207.889C57.7661 207.889 57.6569 207.914 57.5581 207.964Z" fill="#7D8592"/>
</g>
<path d="M57.5805 207.955C57.5831 207.955 57.5801 207.955 57.5801 207.955L57.5805 207.955Z" fill="#E6E6E6"/>
<path d="M57.5803 207.955L57.5781 207.956C57.5809 207.956 57.5803 207.955 57.5803 207.955Z" fill="#E6E6E6"/>
<path d="M57.5791 207.954L57.5801 207.955L57.5791 207.954Z" fill="#E6E6E6"/>
<path d="M84.744 196.07L84.7422 196.071L84.7457 196.07H84.744Z" fill="#E6E6E6"/>
<g style="mix-blend-mode:multiply">
<path d="M86.9517 194.899C86.6574 194.377 86.1878 193.977 85.6265 193.77C85.0651 193.562 84.4483 193.56 83.8856 193.764C83.6058 193.866 83.3494 194.023 83.1315 194.226C82.9136 194.429 82.7385 194.673 82.6168 194.945C82.5924 195.003 82.5781 195.064 82.5582 195.123C82.5306 195.167 82.4975 195.208 82.4728 195.254C82.2088 195.78 82.1366 196.382 82.2684 196.955C82.4002 197.529 82.7279 198.038 83.195 198.396C83.6622 198.754 84.2394 198.938 84.8275 198.916C85.4155 198.894 85.9775 198.668 86.4166 198.276C86.8781 197.859 87.1828 197.296 87.2802 196.682C87.3775 196.067 87.2616 195.438 86.9517 194.899ZM85.3568 195.98C85.3601 196.042 85.362 196.012 85.3568 195.98V195.98ZM85.1947 195.611C85.1884 195.604 85.1892 195.605 85.1947 195.611V195.611ZM84.4801 195.899C84.4696 195.882 84.4706 195.884 84.4801 195.899V195.899ZM84.6495 196.042C84.6739 196.053 84.6898 196.056 84.6495 196.042V196.042ZM84.7251 196.078L84.7419 196.071C84.7378 196.071 84.7336 196.07 84.73 196.068L84.7305 196.068L84.7436 196.07L84.7461 196.069L84.7385 196.067C84.7451 196.067 84.7456 196.068 84.7461 196.069C84.8218 196.034 84.7707 196.051 84.7268 196.064L84.7239 196.064C84.6964 196.05 84.667 196.04 84.6366 196.036C84.6338 196.034 84.6304 196.033 84.6281 196.031C84.6037 196.014 84.4805 195.918 84.5948 196.019C84.5699 195.997 84.5453 195.975 84.5219 195.951C84.5081 195.937 84.4956 195.922 84.4846 195.905C84.4696 195.88 84.455 195.854 84.4409 195.828L84.4388 195.813C84.437 195.802 84.4356 195.797 84.434 195.79C84.4347 195.782 84.4359 195.775 84.437 195.767C84.4456 195.744 84.451 195.72 84.4532 195.696L84.4581 195.69C84.4764 195.664 84.4924 195.634 84.5099 195.608C84.4176 195.748 84.546 195.592 84.5556 195.573C84.5572 195.569 84.5543 195.571 84.555 195.569C84.5588 195.567 84.5576 195.568 84.5621 195.565C84.5907 195.549 84.6178 195.53 84.6469 195.514C84.6815 195.495 84.8177 195.456 84.6764 195.496C84.7085 195.487 84.7393 195.476 84.7718 195.467C84.7776 195.466 84.8252 195.459 84.8508 195.454C84.8733 195.454 84.8952 195.453 84.8975 195.453C84.908 195.453 84.9186 195.454 84.9292 195.455C84.9057 195.458 85.0097 195.481 85.0405 195.485C85.045 195.489 85.0473 195.491 85.0533 195.495C85.0794 195.515 85.1111 195.531 85.1387 195.549C85.0155 195.47 85.1403 195.556 85.1638 195.579C85.1779 195.593 85.1908 195.608 85.2041 195.623C85.2162 195.637 85.2272 195.652 85.2369 195.668C85.2571 195.705 85.2785 195.742 85.2998 195.779L85.3056 195.788C85.3055 195.789 85.3055 195.791 85.3055 195.792C85.3165 195.851 85.3328 195.909 85.3542 195.965C85.3553 195.97 85.3561 195.974 85.3566 195.979C85.3586 196.012 85.3613 196.044 85.3614 196.076L85.3611 196.083C85.263 196.032 85.1542 196.005 85.0436 196.004C84.9331 196.003 84.8239 196.029 84.7251 196.078Z" fill="#7D8592"/>
</g>
<path d="M84.7483 196.07L84.7461 196.07C84.7488 196.07 84.7483 196.07 84.7483 196.07Z" fill="#E6E6E6"/>
<path d="M84.7461 196.069L84.7471 196.069L84.7461 196.069Z" fill="#E6E6E6"/>
<path d="M84.7475 196.069C84.7501 196.07 84.7471 196.07 84.7471 196.07L84.7475 196.069Z" fill="#E6E6E6"/>
<path d="M111.064 202.011L111.065 202.012L111.064 202.011Z" fill="#E6E6E6"/>
<g style="mix-blend-mode:multiply">
<path d="M113.27 183.013C112.976 182.492 112.506 182.092 111.945 181.884C111.383 181.676 110.767 181.674 110.204 181.878C109.924 181.98 109.668 182.137 109.45 182.34C109.232 182.543 109.057 182.788 108.935 183.06C108.911 183.117 108.896 183.178 108.877 183.237C108.849 183.282 108.816 183.322 108.791 183.369C108.527 183.895 108.455 184.496 108.587 185.07C108.719 185.643 109.046 186.153 109.513 186.511C109.981 186.869 110.558 187.052 111.146 187.03C111.734 187.008 112.296 186.782 112.735 186.39C113.196 185.973 113.501 185.411 113.599 184.796C113.696 184.182 113.58 183.552 113.27 183.013ZM111.675 184.094C111.678 184.156 111.68 184.127 111.675 184.094V184.094ZM111.513 183.726C111.507 183.719 111.508 183.719 111.513 183.726V183.726ZM110.798 184.013C110.788 183.996 110.789 183.998 110.798 184.013V184.013ZM110.968 184.157C110.992 184.168 111.008 184.17 110.968 184.157V184.157ZM111.043 184.193L111.06 184.185C111.056 184.185 111.052 184.185 111.048 184.183L111.049 184.183L111.062 184.184L111.064 184.183L111.057 184.181C111.063 184.181 111.064 184.182 111.064 184.183C111.14 184.148 111.089 184.165 111.045 184.179L111.042 184.178C111.015 184.164 110.985 184.155 110.955 184.15C110.952 184.148 110.949 184.147 110.946 184.146C110.922 184.128 110.799 184.032 110.913 184.133C110.888 184.111 110.864 184.089 110.84 184.066C110.826 184.051 110.814 184.036 110.803 184.02C110.788 183.994 110.773 183.968 110.759 183.942L110.757 183.928C110.755 183.916 110.754 183.911 110.752 183.904C110.753 183.897 110.754 183.889 110.755 183.881C110.764 183.859 110.769 183.835 110.772 183.81L110.776 183.804C110.795 183.779 110.811 183.749 110.828 183.722C110.736 183.862 110.864 183.707 110.874 183.687C110.876 183.684 110.873 183.685 110.873 183.683C110.877 183.681 110.876 183.683 110.881 183.68C110.909 183.663 110.936 183.644 110.965 183.628C111 183.609 111.136 183.57 110.995 183.611C111.027 183.602 111.058 183.59 111.09 183.581C111.096 183.58 111.144 183.573 111.169 183.569C111.192 183.568 111.214 183.567 111.216 183.567C111.226 183.568 111.237 183.569 111.248 183.569C111.224 183.572 111.328 183.595 111.359 183.6C111.363 183.603 111.366 183.605 111.372 183.61C111.398 183.629 111.43 183.646 111.457 183.664C111.334 183.584 111.459 183.67 111.482 183.694C111.496 183.708 111.509 183.723 111.522 183.737C111.535 183.751 111.546 183.767 111.555 183.782C111.575 183.819 111.597 183.857 111.618 183.893L111.624 183.903C111.624 183.904 111.624 183.905 111.624 183.906C111.635 183.965 111.651 184.023 111.673 184.079C111.674 184.084 111.674 184.089 111.675 184.094C111.677 184.126 111.68 184.158 111.68 184.191L111.679 184.197C111.581 184.146 111.473 184.119 111.362 184.118C111.251 184.118 111.142 184.143 111.043 184.193Z" fill="#7D8592"/>
</g>
<path d="M111.062 202.013L111.061 202.013L111.064 202.013H111.062Z" fill="#E6E6E6"/>
<path d="M111.066 202.012L111.063 202.013C111.066 202.013 111.066 202.012 111.066 202.012Z" fill="#E6E6E6"/>
<path d="M111.066 202.012C111.068 202.013 111.065 202.013 111.065 202.013L111.066 202.012Z" fill="#E6E6E6"/>
<g style="mix-blend-mode:multiply">
<path d="M140.012 215.698C139.718 215.177 139.248 214.777 138.687 214.569C138.126 214.362 137.509 214.359 136.946 214.564C136.666 214.666 136.41 214.823 136.192 215.026C135.974 215.229 135.799 215.473 135.677 215.745C135.653 215.803 135.639 215.863 135.619 215.923C135.591 215.967 135.558 216.007 135.533 216.054C135.269 216.58 135.197 217.182 135.329 217.755C135.461 218.329 135.788 218.838 136.256 219.196C136.723 219.554 137.3 219.738 137.888 219.716C138.476 219.694 139.038 219.467 139.477 219.076C139.939 218.658 140.243 218.096 140.341 217.481C140.438 216.867 140.322 216.238 140.012 215.698ZM138.417 216.78C138.421 216.841 138.423 216.812 138.417 216.78V216.78ZM138.255 216.411C138.249 216.404 138.25 216.405 138.255 216.411V216.411ZM137.541 216.698C137.53 216.681 137.531 216.684 137.541 216.698V216.698ZM137.71 216.842C137.734 216.853 137.75 216.856 137.71 216.842V216.842ZM137.786 216.878L137.802 216.87C137.798 216.871 137.794 216.87 137.791 216.868L137.791 216.868L137.804 216.87L137.807 216.868L137.799 216.867C137.806 216.866 137.806 216.867 137.807 216.868C137.882 216.834 137.831 216.85 137.787 216.864L137.784 216.863C137.757 216.849 137.728 216.84 137.697 216.835C137.694 216.834 137.691 216.833 137.689 216.831C137.664 216.814 137.541 216.717 137.655 216.818C137.63 216.796 137.606 216.775 137.582 216.751C137.569 216.737 137.556 216.721 137.545 216.705C137.53 216.679 137.516 216.653 137.501 216.627L137.499 216.613C137.498 216.601 137.496 216.596 137.495 216.589C137.495 216.582 137.496 216.574 137.498 216.567C137.506 216.544 137.512 216.52 137.514 216.496L137.519 216.489C137.537 216.464 137.553 216.434 137.57 216.408C137.478 216.548 137.607 216.392 137.616 216.372C137.618 216.369 137.615 216.371 137.616 216.368C137.619 216.366 137.618 216.368 137.623 216.365C137.651 216.348 137.678 216.33 137.707 216.313C137.742 216.294 137.878 216.256 137.737 216.296C137.769 216.287 137.8 216.275 137.832 216.267C137.838 216.265 137.886 216.259 137.911 216.254C137.934 216.253 137.956 216.253 137.958 216.253C137.969 216.253 137.979 216.254 137.99 216.255C137.966 216.258 138.07 216.28 138.101 216.285C138.106 216.288 138.108 216.291 138.114 216.295C138.14 216.314 138.172 216.331 138.199 216.349C138.076 216.269 138.201 216.355 138.224 216.379C138.238 216.393 138.251 216.408 138.265 216.423C138.277 216.437 138.288 216.452 138.297 216.468C138.318 216.505 138.339 216.542 138.36 216.579L138.366 216.588C138.366 216.589 138.366 216.59 138.366 216.591C138.377 216.651 138.393 216.708 138.415 216.765C138.416 216.769 138.417 216.774 138.417 216.779C138.419 216.811 138.422 216.844 138.422 216.876L138.422 216.883C138.324 216.831 138.215 216.804 138.104 216.804C137.994 216.803 137.884 216.828 137.786 216.878Z" fill="#7D8592"/>
</g>
<path d="M137.805 188.854L137.803 188.855L137.806 188.854H137.805Z" fill="#E6E6E6"/>
<path d="M137.809 188.853L137.807 188.854C137.809 188.854 137.809 188.853 137.809 188.853Z" fill="#E6E6E6"/>
<path d="M137.808 188.853C137.811 188.854 137.808 188.854 137.808 188.854L137.808 188.853Z" fill="#E6E6E6"/>
<path d="M137.807 188.852L137.808 188.853L137.807 188.852Z" fill="#E6E6E6"/>
<g style="mix-blend-mode:multiply">
<path d="M165.057 196.172C164.763 195.651 164.293 195.251 163.732 195.043C163.171 194.835 162.554 194.833 161.991 195.037C161.711 195.139 161.455 195.297 161.237 195.499C161.019 195.702 160.844 195.947 160.722 196.219C160.698 196.276 160.684 196.337 160.664 196.396C160.636 196.441 160.603 196.481 160.578 196.528C160.314 197.054 160.242 197.655 160.374 198.229C160.506 198.802 160.833 199.312 161.301 199.67C161.768 200.028 162.345 200.211 162.933 200.189C163.521 200.167 164.083 199.941 164.522 199.549C164.984 199.132 165.288 198.57 165.386 197.955C165.483 197.341 165.367 196.711 165.057 196.172ZM163.462 197.253C163.466 197.315 163.467 197.286 163.462 197.253V197.253ZM163.3 196.885C163.294 196.878 163.295 196.878 163.3 196.885V196.885ZM162.586 197.172C162.575 197.155 162.576 197.157 162.586 197.172V197.172ZM162.755 197.316C162.779 197.327 162.795 197.33 162.755 197.316V197.316ZM162.831 197.352L162.847 197.344C162.843 197.345 162.839 197.344 162.835 197.342L162.836 197.342L162.849 197.343L162.852 197.342L162.844 197.34C162.851 197.34 162.851 197.341 162.852 197.342C162.927 197.308 162.876 197.324 162.832 197.338L162.829 197.337C162.802 197.323 162.772 197.314 162.742 197.309C162.739 197.307 162.736 197.306 162.734 197.305C162.709 197.287 162.586 197.191 162.7 197.292C162.675 197.27 162.651 197.248 162.627 197.225C162.614 197.211 162.601 197.195 162.59 197.179C162.575 197.153 162.56 197.127 162.546 197.101L162.544 197.087C162.542 197.075 162.541 197.07 162.539 197.063C162.54 197.056 162.541 197.048 162.542 197.04C162.551 197.018 162.556 196.994 162.559 196.969L162.564 196.963C162.582 196.938 162.598 196.908 162.615 196.881C162.523 197.021 162.651 196.866 162.661 196.846C162.663 196.843 162.66 196.845 162.661 196.842C162.664 196.84 162.663 196.842 162.668 196.839C162.696 196.822 162.723 196.803 162.752 196.787C162.787 196.768 162.923 196.729 162.782 196.77C162.814 196.761 162.845 196.749 162.877 196.741C162.883 196.739 162.931 196.732 162.956 196.728C162.979 196.727 163.001 196.726 163.003 196.727C163.014 196.727 163.024 196.728 163.035 196.728C163.011 196.732 163.115 196.754 163.146 196.759C163.15 196.762 163.153 196.764 163.159 196.769C163.185 196.788 163.217 196.805 163.244 196.823C163.121 196.743 163.246 196.829 163.269 196.853C163.283 196.867 163.296 196.882 163.31 196.896C163.322 196.911 163.333 196.926 163.342 196.941C163.363 196.978 163.384 197.016 163.405 197.052L163.411 197.062C163.411 197.063 163.411 197.064 163.411 197.065C163.422 197.124 163.438 197.182 163.46 197.238C163.461 197.243 163.462 197.248 163.462 197.253C163.464 197.285 163.467 197.317 163.467 197.35L163.467 197.356C163.368 197.305 163.26 197.278 163.149 197.277C163.039 197.277 162.929 197.302 162.831 197.352Z" fill="#7D8592"/>
</g>
<path d="M162.849 197.343L162.848 197.344L162.851 197.343H162.849Z" fill="#E6E6E6"/>
<path d="M162.852 197.342L162.853 197.343L162.852 197.342Z" fill="#E6E6E6"/>
<path d="M162.853 197.343C162.856 197.343 162.853 197.343 162.853 197.343L162.853 197.343Z" fill="#E6E6E6"/>
<path d="M162.853 197.343L162.851 197.343C162.853 197.344 162.853 197.343 162.853 197.343Z" fill="#E6E6E6"/>
<path d="M155.986 216.797L136.248 217.894C136.137 217.9 136.028 217.863 135.943 217.791C135.858 217.719 135.804 217.617 135.792 217.507C135.78 217.396 135.81 217.285 135.878 217.196C135.945 217.107 136.044 217.048 136.154 217.03L156.328 213.747L155.986 216.797Z" fill="#24285B"/>
<path d="M181.069 260.738L188.507 248.225L194.004 250.821C194.004 250.821 184.532 262.652 184.23 262.993C184.359 263.568 184.311 264.168 184.091 264.715C183.872 265.262 183.491 265.73 183 266.056C182.509 266.382 181.931 266.551 181.341 266.541C180.752 266.531 180.18 266.343 179.7 266C179.22 265.658 178.855 265.178 178.654 264.624C178.453 264.07 178.425 263.468 178.573 262.898C178.722 262.327 179.04 261.815 179.486 261.43C179.931 261.044 180.484 260.803 181.069 260.738Z" fill="#FFB8B8"/>
<path d="M184.163 231.671L196.213 237.958C196.966 238.5 197.598 239.194 198.068 239.994C198.537 240.795 198.835 241.685 198.941 242.607C199.047 243.529 198.96 244.463 198.685 245.349C198.41 246.236 197.952 247.055 197.343 247.754L189.035 257.284L185.416 252.38L188.206 246.547L182.805 245.123L184.163 231.671Z" fill="#9EECFE"/>
<path d="M149.824 217.001L148.466 231.494L142.387 231.505C142.387 231.505 145.875 216.755 146.002 216.319C145.638 215.854 145.425 215.291 145.389 214.703C145.353 214.114 145.496 213.529 145.8 213.024C146.104 212.519 146.554 212.118 147.091 211.874C147.627 211.631 148.225 211.556 148.806 211.659C149.386 211.763 149.921 212.04 150.34 212.455C150.759 212.869 151.043 213.401 151.153 213.98C151.263 214.559 151.195 215.158 150.958 215.697C150.721 216.237 150.325 216.691 149.824 217.001Z" fill="#FFB8B8"/>
<path d="M161.925 246.639L147.932 244.073C142.04 243.365 139.622 239.488 140.685 235.706L144.107 223.536L149.478 226.416L149.457 232.881L156.976 231.853L161.925 246.639Z" fill="#9EECFE"/>
<path d="M156.197 346.799H152.35L150.52 331.958H156.198L156.197 346.799Z" fill="#FFB8B8"/>
<path d="M156.333 350.813L144.501 350.812V350.663C144.501 349.441 144.986 348.27 145.85 347.406C146.714 346.543 147.885 346.058 149.106 346.058L151.268 344.418L155.3 346.058L156.333 346.058L156.333 350.813Z" fill="#24285B"/>
<path d="M183.422 346.799H187.269L189.1 331.958H183.421L183.422 346.799Z" fill="#FFB8B8"/>
<path d="M183.286 350.813L195.118 350.812V350.663C195.118 349.441 194.633 348.27 193.769 347.406C192.906 346.543 191.734 346.058 190.513 346.058L188.351 344.418L184.319 346.058L183.286 346.058L183.286 350.813Z" fill="#24285B"/>
<path d="M150.35 321.052C150.407 320.205 150.859 315.522 150.859 315.522L151.941 305.59L153.848 279.263L155.549 272.343L163.964 275.621L170.793 272.348L178.909 274.942L185.23 277.312C185.23 277.312 185.24 278.327 185.289 279.553C185.354 281.157 185.468 283.124 185.738 283.635C186.19 284.539 186.076 289.39 186.076 289.39C186.076 289.39 186.525 299.26 187.091 300.342C187.656 301.424 187.77 303.678 187.6 304.129C187.429 304.581 188.165 316.434 188.165 316.434C188.165 316.434 190.054 337.409 188.869 340.572C187.684 343.735 183.206 341.663 183.206 341.663C183.206 341.663 183.422 340.819 182.124 340.421C180.825 340.023 176.869 310.282 176.869 310.282C176.869 310.282 176.134 304.183 175.457 302.436C174.781 300.688 174.159 295.777 174.159 295.777C174.159 295.777 169.981 287.65 169.927 285.843C169.927 285.843 169.381 284.152 168.864 286.013C168.347 287.875 166.824 292.333 166.824 292.333L165.339 297.809L163.591 305.991L162.46 312.879C162.46 312.879 160.766 322.021 160.496 322.416C160.225 322.811 160.496 331.163 160.496 331.163C160.496 331.163 159.186 338.276 157.336 339.517C155.485 340.759 150.582 339.537 150.582 339.537C150.582 339.537 150.293 321.899 150.35 321.052Z" fill="#24285B"/>
<path d="M156.642 250.076L155.567 264.007L153.951 265.679C153.805 265.829 153.691 266.008 153.616 266.204C153.541 266.4 153.507 266.608 153.514 266.818C153.522 267.027 153.572 267.233 153.661 267.423C153.75 267.613 153.876 267.783 154.033 267.923L153.142 269.449L152.827 274.258C152.737 274.633 152.731 275.022 152.809 275.399C152.887 275.776 153.048 276.131 153.279 276.439C153.51 276.746 153.806 276.999 154.146 277.179C154.486 277.359 154.862 277.462 155.246 277.48L183.106 278.789C183.488 278.807 183.87 278.741 184.224 278.595C184.578 278.449 184.895 278.228 185.154 277.946C185.413 277.664 185.607 277.329 185.722 276.964C185.837 276.599 185.871 276.213 185.82 275.834L183.451 257.999V256.666L182.391 254.091L182.936 245.463L184.204 231.77L176.834 229.866L172.837 227.117L165.895 227.227L161.683 230.687L156.066 231.567L151.818 232.411L151.277 233.587L152.36 233.352L156.282 248.651L156.642 250.076Z" fill="#68E1FD"/>
<path d="M169.21 225.25C173.727 225.25 177.388 221.589 177.388 217.072C177.388 212.556 173.727 208.894 169.21 208.894C164.694 208.894 161.032 212.556 161.032 217.072C161.032 221.589 164.694 225.25 169.21 225.25Z" fill="#FFB8B8"/>
<path d="M167.238 224.723L173.147 224.421C173.904 224.383 174.731 224.316 175.281 223.795C175.578 223.473 175.805 223.095 175.951 222.682C176.497 221.413 177.044 220.144 177.576 218.87C178.312 217.106 179.035 215.245 178.847 213.343C178.803 212.475 178.439 211.653 177.825 211.038C177.512 210.741 177.109 210.557 176.68 210.513C176.25 210.47 175.819 210.569 175.452 210.797C175.361 210.196 175.134 209.623 174.789 209.122C174.444 208.621 173.99 208.205 173.46 207.905C172.391 207.315 171.17 207.056 169.953 207.162C168.187 207.276 166.501 207.94 165.133 209.062C164.748 209.417 164.337 209.743 163.903 210.036C163.685 210.182 163.439 210.282 163.181 210.33C162.923 210.378 162.658 210.372 162.402 210.314C162.149 210.246 161.928 210.089 161.782 209.871C161.635 209.654 161.572 209.39 161.605 209.13C161.189 209.441 160.903 209.896 160.804 210.406C160.706 210.916 160.8 211.445 161.07 211.889C160.763 212.018 160.429 212.065 160.098 212.026C159.768 211.986 159.454 211.863 159.185 211.666C158.898 211.809 158.643 212.01 158.438 212.256C158.233 212.503 158.082 212.79 157.994 213.098C157.906 213.407 157.883 213.731 157.927 214.048C157.972 214.366 158.082 214.671 158.251 214.944C158.42 215.217 158.644 215.451 158.909 215.632C159.173 215.813 159.473 215.937 159.789 215.996C160.104 216.054 160.428 216.046 160.741 215.973C161.053 215.899 161.346 215.76 161.602 215.566C161.96 216.069 161.827 216.751 161.78 217.367C161.733 217.982 161.898 218.747 162.492 218.917C163.294 219.147 163.943 218.067 164.778 218.079C164.983 218.095 165.182 218.163 165.355 218.274C165.529 218.386 165.672 218.539 165.773 218.72C165.969 219.082 166.104 219.475 166.171 219.882L167.239 224.689" fill="#24285B"/>
<path d="M397.625 298.257C397.625 296.991 397.2 295.963 396.678 295.96H254.329C253.804 295.963 253.382 296.991 253.379 298.257V350.388C253.379 350.505 253.335 350.619 253.256 350.706C253.177 350.793 253.069 350.847 252.952 350.859C252.57 350.895 252.188 350.93 251.806 350.961C251.796 350.961 251.787 350.963 251.777 350.963C251.569 350.982 251.362 350.997 251.154 351.013H251.151C251.044 350.815 250.939 350.616 250.834 350.415C250.799 350.347 250.78 350.272 250.78 350.195V295.278C250.78 294.928 250.794 294.576 250.818 294.229C250.852 293.752 250.911 293.277 250.995 292.806C251.395 290.611 252.297 289.125 253.322 289.12H397.682C397.832 289.121 397.979 289.153 398.117 289.213C398.318 289.302 398.5 289.429 398.653 289.588C398.86 289.804 399.037 290.046 399.18 290.309C399.768 291.481 400.107 292.763 400.175 294.073C400.175 294.087 400.177 294.101 400.177 294.115C400.21 294.498 400.226 294.888 400.224 295.278L400.257 300.341L400.278 303.36L400.342 312.835L400.366 316.199L400.47 350.741C400.47 350.867 400.42 350.987 400.331 351.076C400.243 351.164 400.123 351.214 399.997 351.214H398.098C397.972 351.214 397.852 351.164 397.764 351.076C397.675 350.987 397.625 350.867 397.625 350.741V298.257Z" fill="white"/>
<path d="M358.945 265.429H343.606C343.389 265.429 343.181 265.516 343.028 265.669C342.875 265.823 342.789 266.031 342.789 266.248V290.478H359.764V266.248C359.764 266.14 359.743 266.034 359.702 265.934C359.66 265.835 359.6 265.745 359.524 265.669C359.448 265.592 359.358 265.532 359.258 265.491C359.159 265.45 359.052 265.429 358.945 265.429ZM351.327 279.196C350.847 279.194 350.388 279.002 350.049 278.663C349.71 278.324 349.518 277.864 349.516 277.385V274.59C349.516 274.11 349.707 273.649 350.046 273.309C350.386 272.97 350.847 272.779 351.327 272.779C351.807 272.779 352.268 272.97 352.608 273.309C352.947 273.649 353.138 274.11 353.138 274.59V277.385C353.136 277.864 352.944 278.324 352.605 278.663C352.266 279.002 351.807 279.194 351.327 279.196Z" fill="#DCE1E9"/>
<path d="M342.737 289.703V292.041C342.738 292.162 342.786 292.278 342.871 292.364C342.957 292.449 343.073 292.497 343.194 292.498H359.36C359.481 292.497 359.597 292.449 359.683 292.363C359.768 292.278 359.817 292.162 359.817 292.041V289.703H342.737Z" fill="#24285B"/>
<path d="M384.344 227.615H318.778C318.215 227.616 317.675 227.84 317.277 228.238C316.878 228.637 316.654 229.177 316.653 229.74V273.984C316.654 274.547 316.878 275.087 317.276 275.486C317.675 275.884 318.215 276.108 318.778 276.109H384.344C384.907 276.108 385.447 275.884 385.846 275.486C386.244 275.087 386.468 274.547 386.469 273.984V229.74C386.468 229.177 386.244 228.637 385.845 228.238C385.447 227.84 384.907 227.616 384.344 227.615Z" fill="#E6E6E6"/>
<path d="M383.796 229.15H319.326C319.024 229.15 318.735 229.271 318.522 229.484C318.309 229.698 318.189 229.987 318.189 230.288V273.436C318.19 273.737 318.31 274.026 318.523 274.239C318.736 274.452 319.025 274.572 319.326 274.572H383.796C384.097 274.572 384.386 274.452 384.599 274.239C384.812 274.026 384.932 273.737 384.933 273.436V230.288C384.933 229.987 384.813 229.698 384.6 229.484C384.387 229.271 384.098 229.15 383.796 229.15Z" fill="white"/>
<path d="M371.239 293.311H332.882C332.777 293.311 332.674 293.288 332.579 293.242C332.484 293.197 332.401 293.131 332.334 293.05C332.268 292.968 332.221 292.873 332.196 292.771C332.172 292.669 332.17 292.563 332.192 292.46L332.787 289.633C332.821 289.475 332.908 289.333 333.033 289.231C333.159 289.13 333.316 289.074 333.477 289.073H370.644C370.805 289.074 370.962 289.13 371.088 289.231C371.213 289.333 371.3 289.475 371.334 289.633L371.929 292.46C371.951 292.563 371.949 292.669 371.925 292.771C371.9 292.873 371.853 292.968 371.787 293.05C371.72 293.131 371.637 293.197 371.542 293.242C371.447 293.288 371.344 293.311 371.239 293.311Z" fill="#DCE1E9"/>
<path d="M334.724 289.582H333.957C333.843 289.582 333.75 289.675 333.75 289.79V290.084C333.75 290.198 333.843 290.291 333.957 290.291H334.724C334.839 290.291 334.931 290.198 334.931 290.084V289.79C334.931 289.675 334.839 289.582 334.724 289.582Z" fill="#E6E6E6"/>
<path d="M337.086 289.582H336.32C336.205 289.582 336.112 289.675 336.112 289.79V290.084C336.112 290.198 336.205 290.291 336.32 290.291H337.086C337.201 290.291 337.294 290.198 337.294 290.084V289.79C337.294 289.675 337.201 289.582 337.086 289.582Z" fill="#E6E6E6"/>
<path d="M339.45 289.582H338.683C338.568 289.582 338.476 289.675 338.476 289.79V290.084C338.476 290.198 338.568 290.291 338.683 290.291H339.45C339.564 290.291 339.657 290.198 339.657 290.084V289.79C339.657 289.675 339.564 289.582 339.45 289.582Z" fill="#E6E6E6"/>
<path d="M341.812 289.582H341.045C340.931 289.582 340.838 289.675 340.838 289.79V290.084C340.838 290.198 340.931 290.291 341.045 290.291H341.812C341.926 290.291 342.019 290.198 342.019 290.084V289.79C342.019 289.675 341.926 289.582 341.812 289.582Z" fill="#E6E6E6"/>
<path d="M344.175 289.582H343.408C343.294 289.582 343.201 289.675 343.201 289.79V290.084C343.201 290.198 343.294 290.291 343.408 290.291H344.175C344.29 290.291 344.382 290.198 344.382 290.084V289.79C344.382 289.675 344.29 289.582 344.175 289.582Z" fill="#E6E6E6"/>
<path d="M346.538 289.582H345.771C345.656 289.582 345.563 289.675 345.563 289.79V290.084C345.563 290.198 345.656 290.291 345.771 290.291H346.538C346.652 290.291 346.745 290.198 346.745 290.084V289.79C346.745 289.675 346.652 289.582 346.538 289.582Z" fill="#E6E6E6"/>
<path d="M348.9 289.582H348.133C348.019 289.582 347.926 289.675 347.926 289.79V290.084C347.926 290.198 348.019 290.291 348.133 290.291H348.9C349.014 290.291 349.107 290.198 349.107 290.084V289.79C349.107 289.675 349.014 289.582 348.9 289.582Z" fill="#E6E6E6"/>
<path d="M351.263 289.582H350.496C350.382 289.582 350.289 289.675 350.289 289.79V290.084C350.289 290.198 350.382 290.291 350.496 290.291H351.263C351.378 290.291 351.47 290.198 351.47 290.084V289.79C351.47 289.675 351.378 289.582 351.263 289.582Z" fill="#E6E6E6"/>
<path d="M353.625 289.582H352.859C352.744 289.582 352.651 289.675 352.651 289.79V290.084C352.651 290.198 352.744 290.291 352.859 290.291H353.625C353.74 290.291 353.833 290.198 353.833 290.084V289.79C353.833 289.675 353.74 289.582 353.625 289.582Z" fill="#E6E6E6"/>
<path d="M355.988 289.582H355.221C355.106 289.582 355.014 289.675 355.014 289.79V290.084C355.014 290.198 355.106 290.291 355.221 290.291H355.988C356.102 290.291 356.195 290.198 356.195 290.084V289.79C356.195 289.675 356.102 289.582 355.988 289.582Z" fill="#E6E6E6"/>
<path d="M358.351 289.582H357.584C357.47 289.582 357.377 289.675 357.377 289.79V290.084C357.377 290.198 357.47 290.291 357.584 290.291H358.351C358.466 290.291 358.558 290.198 358.558 290.084V289.79C358.558 289.675 358.466 289.582 358.351 289.582Z" fill="#E6E6E6"/>
<path d="M360.713 289.582H359.946C359.832 289.582 359.739 289.675 359.739 289.79V290.084C359.739 290.198 359.832 290.291 359.946 290.291H360.713C360.828 290.291 360.921 290.198 360.921 290.084V289.79C360.921 289.675 360.828 289.582 360.713 289.582Z" fill="#E6E6E6"/>
<path d="M363.077 289.582H362.31C362.195 289.582 362.103 289.675 362.103 289.79V290.084C362.103 290.198 362.195 290.291 362.31 290.291H363.077C363.191 290.291 363.284 290.198 363.284 290.084V289.79C363.284 289.675 363.191 289.582 363.077 289.582Z" fill="#E6E6E6"/>
<path d="M365.439 289.582H364.672C364.558 289.582 364.465 289.675 364.465 289.79V290.084C364.465 290.198 364.558 290.291 364.672 290.291H365.439C365.553 290.291 365.646 290.198 365.646 290.084V289.79C365.646 289.675 365.553 289.582 365.439 289.582Z" fill="#E6E6E6"/>
<path d="M367.801 289.582H367.034C366.92 289.582 366.827 289.675 366.827 289.79V290.084C366.827 290.198 366.92 290.291 367.034 290.291H367.801C367.916 290.291 368.008 290.198 368.008 290.084V289.79C368.008 289.675 367.916 289.582 367.801 289.582Z" fill="#E6E6E6"/>
<path d="M370.165 289.582H369.398C369.283 289.582 369.19 289.675 369.19 289.79V290.084C369.19 290.198 369.283 290.291 369.398 290.291H370.165C370.279 290.291 370.372 290.198 370.372 290.084V289.79C370.372 289.675 370.279 289.582 370.165 289.582Z" fill="#E6E6E6"/>
<path d="M334.696 290.764H333.929C333.814 290.764 333.722 290.856 333.722 290.971V291.265C333.722 291.38 333.814 291.472 333.929 291.472H334.696C334.81 291.472 334.903 291.38 334.903 291.265V290.971C334.903 290.856 334.81 290.764 334.696 290.764Z" fill="#E6E6E6"/>
<path d="M337.059 290.764H336.292C336.178 290.764 336.085 290.856 336.085 290.971V291.265C336.085 291.38 336.178 291.472 336.292 291.472H337.059C337.174 291.472 337.266 291.38 337.266 291.265V290.971C337.266 290.856 337.174 290.764 337.059 290.764Z" fill="#E6E6E6"/>
<path d="M339.421 290.764H338.655C338.54 290.764 338.447 290.856 338.447 290.971V291.265C338.447 291.38 338.54 291.472 338.655 291.472H339.421C339.536 291.472 339.629 291.38 339.629 291.265V290.971C339.629 290.856 339.536 290.764 339.421 290.764Z" fill="#E6E6E6"/>
<path d="M341.785 290.764H341.018C340.903 290.764 340.811 290.856 340.811 290.971V291.265C340.811 291.38 340.903 291.472 341.018 291.472H341.785C341.899 291.472 341.992 291.38 341.992 291.265V290.971C341.992 290.856 341.899 290.764 341.785 290.764Z" fill="#E6E6E6"/>
<path d="M344.147 290.764H343.38C343.266 290.764 343.173 290.856 343.173 290.971V291.265C343.173 291.38 343.266 291.472 343.38 291.472H344.147C344.261 291.472 344.354 291.38 344.354 291.265V290.971C344.354 290.856 344.261 290.764 344.147 290.764Z" fill="#E6E6E6"/>
<path d="M346.509 290.764H345.742C345.628 290.764 345.535 290.856 345.535 290.971V291.265C345.535 291.38 345.628 291.472 345.742 291.472H346.509C346.624 291.472 346.717 291.38 346.717 291.265V290.971C346.717 290.856 346.624 290.764 346.509 290.764Z" fill="#E6E6E6"/>
<path d="M348.873 290.764H348.106C347.991 290.764 347.898 290.856 347.898 290.971V291.265C347.898 291.38 347.991 291.472 348.106 291.472H348.873C348.987 291.472 349.08 291.38 349.08 291.265V290.971C349.08 290.856 348.987 290.764 348.873 290.764Z" fill="#E6E6E6"/>
<path d="M351.235 290.764H350.468C350.354 290.764 350.261 290.856 350.261 290.971V291.265C350.261 291.38 350.354 291.472 350.468 291.472H351.235C351.349 291.472 351.442 291.38 351.442 291.265V290.971C351.442 290.856 351.349 290.764 351.235 290.764Z" fill="#E6E6E6"/>
<path d="M353.597 290.764H352.83C352.716 290.764 352.623 290.856 352.623 290.971V291.265C352.623 291.38 352.716 291.472 352.83 291.472H353.597C353.712 291.472 353.804 291.38 353.804 291.265V290.971C353.804 290.856 353.712 290.764 353.597 290.764Z" fill="#E6E6E6"/>
<path d="M355.96 290.764H355.194C355.079 290.764 354.986 290.856 354.986 290.971V291.265C354.986 291.38 355.079 291.472 355.194 291.472H355.96C356.075 291.472 356.168 291.38 356.168 291.265V290.971C356.168 290.856 356.075 290.764 355.96 290.764Z" fill="#E6E6E6"/>
<path d="M358.323 290.764H357.556C357.441 290.764 357.349 290.856 357.349 290.971V291.265C357.349 291.38 357.441 291.472 357.556 291.472H358.323C358.437 291.472 358.53 291.38 358.53 291.265V290.971C358.53 290.856 358.437 290.764 358.323 290.764Z" fill="#E6E6E6"/>
<path d="M360.686 290.764H359.919C359.805 290.764 359.712 290.856 359.712 290.971V291.265C359.712 291.38 359.805 291.472 359.919 291.472H360.686C360.8 291.472 360.893 291.38 360.893 291.265V290.971C360.893 290.856 360.8 290.764 360.686 290.764Z" fill="#E6E6E6"/>
<path d="M363.048 290.764H362.281C362.167 290.764 362.074 290.856 362.074 290.971V291.265C362.074 291.38 362.167 291.472 362.281 291.472H363.048C363.163 291.472 363.256 291.38 363.256 291.265V290.971C363.256 290.856 363.163 290.764 363.048 290.764Z" fill="#E6E6E6"/>
<path d="M365.411 290.764H364.644C364.529 290.764 364.437 290.856 364.437 290.971V291.265C364.437 291.38 364.529 291.472 364.644 291.472H365.411C365.525 291.472 365.618 291.38 365.618 291.265V290.971C365.618 290.856 365.525 290.764 365.411 290.764Z" fill="#E6E6E6"/>
<path d="M367.774 290.764H367.007C366.893 290.764 366.8 290.856 366.8 290.971V291.265C366.8 291.38 366.893 291.472 367.007 291.472H367.774C367.888 291.472 367.981 291.38 367.981 291.265V290.971C367.981 290.856 367.888 290.764 367.774 290.764Z" fill="#E6E6E6"/>
<path d="M370.136 290.764H369.369C369.255 290.764 369.162 290.856 369.162 290.971V291.265C369.162 291.38 369.255 291.472 369.369 291.472H370.136C370.251 291.472 370.343 291.38 370.343 291.265V290.971C370.343 290.856 370.251 290.764 370.136 290.764Z" fill="#E6E6E6"/>
<path d="M354.306 292.181H345.27C345.155 292.181 345.062 292.274 345.062 292.388V292.683C345.062 292.797 345.155 292.89 345.27 292.89H354.306C354.42 292.89 354.513 292.797 354.513 292.683V292.388C354.513 292.274 354.42 292.181 354.306 292.181Z" fill="#E6E6E6"/>
<path d="M380.556 235.094H320.232C320.169 235.093 320.109 235.067 320.065 235.022C320.022 234.977 319.997 234.917 319.997 234.855C319.997 234.792 320.022 234.732 320.065 234.687C320.109 234.642 320.169 234.616 320.232 234.615H380.556C380.619 234.616 380.679 234.642 380.722 234.687C380.766 234.732 380.791 234.792 380.791 234.855C380.791 234.917 380.766 234.977 380.722 235.022C380.679 235.067 380.619 235.093 380.556 235.094Z" fill="#DCE1E9"/>
<path d="M324.338 233.39C325.114 233.39 325.743 232.746 325.743 231.953C325.743 231.159 325.114 230.515 324.338 230.515C323.561 230.515 322.932 231.159 322.932 231.953C322.932 232.746 323.561 233.39 324.338 233.39Z" fill="#DCE1E9"/>
<path d="M329.194 233.39C329.97 233.39 330.6 232.746 330.6 231.953C330.6 231.159 329.97 230.515 329.194 230.515C328.418 230.515 327.788 231.159 327.788 231.953C327.788 232.746 328.418 233.39 329.194 233.39Z" fill="#DCE1E9"/>
<path d="M334.051 233.39C334.828 233.39 335.457 232.746 335.457 231.953C335.457 231.159 334.828 230.515 334.051 230.515C333.275 230.515 332.646 231.159 332.646 231.953C332.646 232.746 333.275 233.39 334.051 233.39Z" fill="#DCE1E9"/>
<path d="M377.632 230.871H374.182C374.113 230.873 374.048 230.901 374.001 230.95C373.953 230.999 373.926 231.064 373.926 231.133C373.926 231.201 373.953 231.267 374.001 231.316C374.048 231.364 374.113 231.393 374.182 231.394H377.632C377.7 231.393 377.765 231.364 377.813 231.316C377.861 231.267 377.888 231.201 377.888 231.133C377.888 231.064 377.861 230.999 377.813 230.95C377.765 230.901 377.7 230.873 377.632 230.871Z" fill="#DCE1E9"/>
<path d="M377.632 231.852H374.182C374.113 231.854 374.048 231.882 374 231.931C373.953 231.979 373.926 232.045 373.926 232.113C373.926 232.182 373.953 232.247 374 232.296C374.048 232.345 374.113 232.373 374.182 232.375H377.632C377.7 232.373 377.765 232.345 377.813 232.296C377.861 232.247 377.888 232.182 377.888 232.113C377.888 232.045 377.861 231.979 377.813 231.931C377.765 231.882 377.7 231.854 377.632 231.852Z" fill="#DCE1E9"/>
<path d="M377.632 232.831H374.182C374.113 232.833 374.048 232.861 374.001 232.91C373.953 232.958 373.926 233.024 373.926 233.093C373.926 233.161 373.953 233.227 374.001 233.275C374.048 233.324 374.113 233.352 374.182 233.354H377.632C377.7 233.352 377.765 233.324 377.813 233.275C377.861 233.227 377.888 233.161 377.888 233.093C377.888 233.024 377.861 232.958 377.813 232.91C377.765 232.861 377.7 232.833 377.632 232.831Z" fill="#DCE1E9"/>
<path d="M355.264 248.164H347.726C347.16 248.164 346.701 248.623 346.701 249.189C346.701 249.756 347.16 250.215 347.726 250.215H355.264C355.83 250.215 356.289 249.756 356.289 249.189C356.289 248.623 355.83 248.164 355.264 248.164Z" fill="#68E1FD"/>
<path d="M360.134 252.265H342.857C342.291 252.265 341.832 252.724 341.832 253.29C341.832 253.856 342.291 254.315 342.857 254.315H360.134C360.7 254.315 361.159 253.856 361.159 253.29C361.159 252.724 360.7 252.265 360.134 252.265Z" fill="#E6E6E6"/>
<path d="M360.134 256.366H342.857C342.291 256.366 341.832 256.825 341.832 257.391C341.832 257.957 342.291 258.416 342.857 258.416H360.134C360.7 258.416 361.159 257.957 361.159 257.391C361.159 256.825 360.7 256.366 360.134 256.366Z" fill="#E6E6E6"/>
<path d="M243.737 320.25L240.262 318.587L245.035 304.063L250.164 306.515L243.737 320.25Z" fill="#FFB8B8"/>
<path d="M267.034 317.908C266.781 318.066 266.528 318.222 266.273 318.377C265.765 318.689 265.252 318.995 264.739 319.296C264.481 319.447 264.221 319.598 263.963 319.746V319.753L263.948 319.756L263.943 319.758L263.55 319.855L262.985 318.365L262.725 317.678L262.358 316.706L261.684 314.926L258.136 305.559L263.652 304.198L263.858 305.043H263.861L263.963 305.462L265.89 313.278L266.283 314.875L266.296 314.924L266.533 315.879L266.738 316.706L266.965 317.63L267.034 317.908Z" fill="#FFB8B8"/>
<path d="M299.938 285.011C299.589 285.573 299.231 286.132 298.871 286.685C298.203 287.717 297.516 288.732 296.812 289.733C296.812 289.736 296.809 289.736 296.806 289.738C296.395 290.119 295.941 290.45 295.454 290.726C295.433 290.741 295.41 290.751 295.39 290.764C295.031 290.963 294.648 291.116 294.251 291.221C294.108 291.257 293.963 291.293 293.82 291.328C293.304 291.451 292.794 291.555 292.286 291.647C291.382 291.808 290.489 291.923 289.601 291.995C289.529 292.002 289.458 292.007 289.386 292.012C285.734 292.28 282.178 291.849 278.467 291.142C276.634 290.795 274.763 290.379 272.826 289.947C272.193 289.804 271.557 289.664 270.914 289.524C270.866 289.514 270.815 289.501 270.764 289.491C269.845 289.289 268.911 289.09 267.953 288.893C266.749 288.646 265.506 288.406 264.214 288.179L264.306 289.998C264.382 291.398 264.673 292.778 265.169 294.09C265.72 295.703 266.156 296.979 265.235 299.637L264.791 300.923C265.021 301.562 265.1 302.245 265.022 302.92C264.943 303.594 264.71 304.241 264.339 304.81L264.25 304.946L267.953 314.316L268.193 314.923H266.297L263.964 314.926H260.01L254.305 303.481L254.032 302.934V302.906L254.622 280.912C254.63 280.718 254.645 280.521 254.67 280.327C254.774 279.445 255.053 278.593 255.49 277.82C255.927 277.047 256.513 276.369 257.215 275.825C257.888 275.299 258.658 274.912 259.481 274.687C260.305 274.462 261.165 274.403 262.011 274.513L263.964 274.765L267.953 275.281L270.764 275.646L270.82 275.654L279.108 276.726L279.702 274.301L279.812 274.26L283.301 272.981L295.369 268.558L295.4 268.548L296.194 268.257L296.288 268.41C296.316 268.456 296.344 268.502 296.37 268.548C297.155 269.954 297.793 271.437 298.277 272.974C299.089 275.483 299.758 278.037 300.28 280.623C300.303 280.736 300.324 280.838 300.342 280.93L300.349 280.958C300.357 281.001 300.362 281.029 300.365 281.037C300.604 282.375 300.456 283.754 299.938 285.011Z" fill="#24285B"/>
<path d="M300.447 276.905C300.409 276.742 300.36 276.576 300.309 276.415C299.904 275.197 299.432 274.003 298.895 272.837C298.293 271.51 297.57 270.088 296.71 268.549C296.294 267.803 295.846 267.028 295.367 266.223C295.128 265.82 294.878 265.409 294.62 264.991C294.609 264.971 294.598 264.953 294.586 264.934L294.512 264.812L282.572 266.41L278.126 267.004L277.86 269.22L277.796 269.769C277.794 269.769 277.794 269.769 277.796 269.771L277.618 271.267V271.27L277.38 273.245L277.36 273.243L270.762 272.388L263.962 271.507L260.309 271.035C259.463 270.924 258.603 270.984 257.78 271.209C256.956 271.434 256.186 271.821 255.513 272.347C254.812 272.891 254.225 273.569 253.788 274.342C253.351 275.115 253.073 275.968 252.969 276.849C252.946 277.028 252.93 277.212 252.923 277.393L249.477 285.558C247.415 290.442 246.102 295.608 245.582 300.883L243.055 308.962L243.415 308.995L248.77 309.493L250.184 309.626L253.298 305.08C253.653 304.561 253.989 304.028 254.303 303.482C254.82 302.59 255.28 301.665 255.679 300.715L262.415 284.685C262.936 284.775 263.451 284.86 263.962 284.941C266.323 285.324 268.59 285.636 270.762 285.877C277.824 286.666 283.94 286.727 289.384 286.059C290.913 285.872 292.391 285.627 293.818 285.324C294.341 285.214 294.858 285.096 295.367 284.969C295.487 284.941 295.605 284.913 295.722 284.882C296.777 284.61 297.747 284.078 298.543 283.334C299.339 282.59 299.936 281.658 300.278 280.624C300.688 279.426 300.746 278.136 300.447 276.905Z" fill="#24285B"/>
<path d="M244.847 317.878L241.088 316.076L240.498 315.792L239.556 318.105L232.981 319.552C232.656 319.623 232.362 319.797 232.143 320.047C231.923 320.297 231.789 320.611 231.761 320.942C231.732 321.274 231.81 321.606 231.984 321.89C232.158 322.174 232.418 322.395 232.726 322.521L239.15 325.142L241.19 323.307L240.689 325.77L243.109 326.758L245.761 318.317L244.847 317.878Z" fill="#24285B"/>
<path d="M267.953 314.316L268.193 314.923H267.953V314.316Z" fill="#24285B"/>
<path d="M266.643 315.053L262.703 316.418L262.085 316.632L263.043 318.938L259.389 324.592C259.208 324.872 259.122 325.202 259.141 325.534C259.161 325.866 259.287 326.183 259.5 326.439C259.713 326.695 260.003 326.876 260.326 326.955C260.649 327.035 260.989 327.009 261.297 326.881L267.706 324.224L267.864 321.485L269.242 323.587L271.656 322.586L267.601 314.722L266.643 315.053Z" fill="#24285B"/>
<path d="M242.733 230.599C242.92 230.963 243.184 231.282 243.507 231.533C243.83 231.783 244.205 231.96 244.604 232.05C245.003 232.141 245.416 232.143 245.816 232.056C246.216 231.969 246.592 231.796 246.917 231.548L255.201 237.047L255.217 231.88L247.348 227.45C246.895 226.931 246.268 226.596 245.585 226.508C244.902 226.421 244.21 226.587 243.642 226.975C243.073 227.363 242.666 227.946 242.499 228.614C242.331 229.282 242.414 229.989 242.733 230.599Z" fill="#FFB8B8"/>
<path d="M248.921 232.987L252.786 228.59L268.523 237.933L289.385 236.023C290.416 235.928 291.455 236.062 292.429 236.414C293.403 236.767 294.287 237.329 295.019 238.062C295.751 238.794 296.312 239.679 296.664 240.653C297.015 241.627 297.148 242.667 297.053 243.698C296.878 245.56 295.972 247.277 294.533 248.472C293.095 249.667 291.241 250.242 289.378 250.072L265.883 247.897L248.921 232.987Z" fill="#DCE1E9"/>
<path d="M297.341 233.055L297.305 233.01C294.37 232.72 291.414 233.288 288.796 234.645C286.177 236.002 284.009 238.089 282.553 240.653L280.783 243.772C275.056 250.773 279.217 255.601 279.466 256.319L277.479 265.485L277.924 268.552L278.147 269.463L300.837 281.319C302.129 275.112 300.88 269.823 296.173 265.783L300.727 251.614C301.737 248.481 301.956 245.147 301.365 241.909C300.774 238.671 299.392 235.63 297.341 233.055Z" fill="#DCE1E9"/>
<path d="M279.299 301.889H272.021C271.621 301.888 271.234 301.744 270.932 301.481C270.63 301.218 270.432 300.856 270.376 300.459C269.927 297.152 269.927 293.8 270.376 290.493C270.432 290.101 270.625 289.742 270.921 289.48C271.218 289.218 271.598 289.07 271.993 289.064C274.283 288.037 276.749 288.037 279.324 289.063C279.564 289.067 279.801 289.122 280.017 289.226C280.233 289.331 280.423 289.481 280.575 289.666C280.733 289.86 280.847 290.086 280.907 290.328C280.967 290.571 280.972 290.823 280.922 291.068C280.337 293.978 280.337 296.974 280.922 299.884C280.972 300.129 280.967 300.381 280.907 300.624C280.847 300.866 280.733 301.092 280.575 301.285C280.421 301.474 280.226 301.626 280.005 301.731C279.785 301.835 279.543 301.889 279.299 301.889Z" fill="url(#paint0_linear_1610_9432)"/>
<path d="M278.537 292.863H272.411C272.36 292.864 272.31 292.854 272.263 292.835C272.216 292.816 272.174 292.788 272.138 292.752C272.102 292.717 272.073 292.674 272.054 292.628C272.034 292.581 272.024 292.531 272.024 292.48C272.024 292.43 272.034 292.38 272.054 292.333C272.073 292.286 272.102 292.244 272.138 292.208C272.174 292.173 272.216 292.145 272.263 292.126C272.31 292.107 272.36 292.097 272.411 292.097H278.537C278.587 292.097 278.637 292.107 278.684 292.126C278.731 292.145 278.774 292.173 278.809 292.208C278.845 292.244 278.874 292.286 278.893 292.333C278.913 292.38 278.923 292.43 278.923 292.48C278.923 292.531 278.913 292.581 278.893 292.628C278.874 292.674 278.845 292.717 278.809 292.752C278.774 292.788 278.731 292.816 278.684 292.835C278.637 292.854 278.587 292.864 278.537 292.863Z" fill="white"/>
<path d="M278.537 295.926H272.411C272.36 295.927 272.31 295.917 272.263 295.898C272.216 295.879 272.174 295.851 272.138 295.815C272.102 295.78 272.073 295.737 272.054 295.691C272.034 295.644 272.024 295.594 272.024 295.543C272.024 295.493 272.034 295.443 272.054 295.396C272.073 295.349 272.102 295.307 272.138 295.271C272.174 295.236 272.216 295.208 272.263 295.189C272.31 295.17 272.36 295.16 272.411 295.16H278.537C278.587 295.16 278.637 295.17 278.684 295.189C278.731 295.208 278.774 295.236 278.809 295.271C278.845 295.307 278.874 295.349 278.893 295.396C278.913 295.443 278.923 295.493 278.923 295.543C278.923 295.594 278.913 295.644 278.893 295.691C278.874 295.737 278.845 295.78 278.809 295.815C278.774 295.851 278.731 295.879 278.684 295.898C278.637 295.917 278.587 295.927 278.537 295.926Z" fill="white"/>
<path d="M278.537 298.989H272.411C272.36 298.99 272.31 298.98 272.263 298.961C272.216 298.942 272.174 298.914 272.138 298.878C272.102 298.843 272.073 298.8 272.054 298.754C272.034 298.707 272.024 298.657 272.024 298.606C272.024 298.556 272.034 298.506 272.054 298.459C272.073 298.412 272.102 298.37 272.138 298.334C272.174 298.299 272.216 298.271 272.263 298.252C272.31 298.232 272.36 298.223 272.411 298.223H278.537C278.587 298.223 278.638 298.232 278.684 298.252C278.731 298.271 278.774 298.299 278.81 298.334C278.846 298.37 278.874 298.412 278.894 298.459C278.913 298.506 278.923 298.556 278.923 298.606C278.923 298.657 278.913 298.707 278.894 298.754C278.874 298.8 278.846 298.843 278.81 298.878C278.774 298.914 278.731 298.942 278.684 298.961C278.638 298.98 278.587 298.99 278.537 298.989Z" fill="white"/>
<path d="M244.067 233.122H236.789C236.388 233.122 236.002 232.977 235.699 232.714C235.397 232.452 235.2 232.089 235.144 231.693C234.694 228.385 234.694 225.033 235.144 221.726C235.199 221.334 235.393 220.975 235.689 220.713C235.985 220.451 236.365 220.304 236.761 220.297C239.051 219.27 241.517 219.27 244.092 220.297C244.332 220.3 244.568 220.355 244.784 220.46C245 220.564 245.191 220.714 245.343 220.9C245.501 221.093 245.614 221.319 245.674 221.561C245.734 221.804 245.739 222.057 245.69 222.301C245.105 225.211 245.105 228.208 245.69 231.117C245.739 231.362 245.734 231.615 245.674 231.857C245.614 232.099 245.501 232.325 245.343 232.519C245.188 232.708 244.993 232.86 244.773 232.964C244.552 233.068 244.311 233.122 244.067 233.122Z" fill="url(#paint1_linear_1610_9432)"/>
<path d="M243.304 224.097H237.178C237.128 224.097 237.078 224.088 237.031 224.069C236.984 224.049 236.941 224.021 236.905 223.986C236.869 223.95 236.841 223.908 236.821 223.861C236.802 223.814 236.792 223.764 236.792 223.714C236.792 223.663 236.802 223.613 236.821 223.567C236.841 223.52 236.869 223.477 236.905 223.442C236.941 223.406 236.984 223.378 237.031 223.359C237.078 223.34 237.128 223.331 237.178 223.331H243.304C243.355 223.331 243.405 223.34 243.452 223.359C243.499 223.378 243.541 223.406 243.577 223.442C243.613 223.477 243.642 223.52 243.661 223.567C243.68 223.613 243.69 223.663 243.69 223.714C243.69 223.764 243.68 223.814 243.661 223.861C243.642 223.908 243.613 223.95 243.577 223.986C243.541 224.021 243.499 224.049 243.452 224.069C243.405 224.088 243.355 224.097 243.304 224.097Z" fill="white"/>
<path d="M243.304 227.16H237.178C237.128 227.16 237.078 227.151 237.031 227.132C236.984 227.112 236.941 227.084 236.905 227.049C236.869 227.013 236.841 226.971 236.821 226.924C236.802 226.877 236.792 226.827 236.792 226.777C236.792 226.726 236.802 226.676 236.821 226.63C236.841 226.583 236.869 226.54 236.905 226.505C236.941 226.469 236.984 226.441 237.031 226.422C237.078 226.403 237.128 226.393 237.178 226.394H243.304C243.355 226.393 243.405 226.403 243.452 226.422C243.499 226.441 243.541 226.469 243.577 226.505C243.613 226.54 243.642 226.583 243.661 226.63C243.68 226.676 243.69 226.726 243.69 226.777C243.69 226.827 243.68 226.877 243.661 226.924C243.642 226.971 243.613 227.013 243.577 227.049C243.541 227.084 243.499 227.112 243.452 227.132C243.405 227.151 243.355 227.16 243.304 227.16Z" fill="white"/>
<path d="M243.304 230.222H237.178C237.128 230.223 237.078 230.213 237.031 230.194C236.984 230.175 236.941 230.147 236.905 230.112C236.869 230.076 236.841 230.034 236.821 229.987C236.802 229.94 236.792 229.89 236.792 229.84C236.792 229.789 236.802 229.739 236.821 229.692C236.841 229.646 236.869 229.603 236.905 229.568C236.941 229.532 236.984 229.504 237.031 229.485C237.078 229.466 237.128 229.456 237.178 229.457H243.304C243.355 229.456 243.405 229.466 243.452 229.485C243.499 229.504 243.542 229.532 243.577 229.568C243.613 229.603 243.642 229.646 243.661 229.692C243.681 229.739 243.691 229.789 243.691 229.84C243.691 229.89 243.681 229.94 243.661 229.987C243.642 230.034 243.613 230.076 243.577 230.112C243.542 230.147 243.499 230.175 243.452 230.194C243.405 230.213 243.355 230.223 243.304 230.222Z" fill="white"/>
<path d="M116.296 251.799H109.018C108.618 251.799 108.231 251.654 107.929 251.392C107.627 251.129 107.429 250.766 107.373 250.37C106.924 247.063 106.924 243.71 107.373 240.403C107.429 240.012 107.622 239.653 107.918 239.391C108.215 239.129 108.595 238.981 108.99 238.974C111.28 237.948 113.746 237.948 116.322 238.974C116.561 238.977 116.798 239.033 117.014 239.137C117.23 239.241 117.42 239.391 117.572 239.577C117.73 239.77 117.844 239.996 117.904 240.239C117.964 240.481 117.969 240.734 117.919 240.979C117.334 243.888 117.334 246.885 117.919 249.794C117.969 250.039 117.964 250.292 117.904 250.534C117.844 250.777 117.73 251.003 117.572 251.196C117.418 251.385 117.223 251.537 117.002 251.641C116.782 251.746 116.541 251.8 116.296 251.799Z" fill="url(#paint2_linear_1610_9432)"/>
<path d="M115.535 242.774H109.409C109.358 242.774 109.308 242.765 109.261 242.746C109.214 242.727 109.172 242.699 109.136 242.663C109.1 242.627 109.071 242.585 109.052 242.538C109.032 242.492 109.022 242.442 109.022 242.391C109.022 242.34 109.032 242.29 109.052 242.244C109.071 242.197 109.1 242.155 109.136 242.119C109.172 242.084 109.214 242.055 109.261 242.036C109.308 242.017 109.358 242.008 109.409 242.008H115.535C115.585 242.008 115.635 242.017 115.682 242.036C115.729 242.055 115.772 242.084 115.808 242.119C115.843 242.155 115.872 242.197 115.891 242.244C115.911 242.29 115.921 242.34 115.921 242.391C115.921 242.442 115.911 242.492 115.891 242.538C115.872 242.585 115.843 242.627 115.808 242.663C115.772 242.699 115.729 242.727 115.682 242.746C115.635 242.765 115.585 242.774 115.535 242.774Z" fill="white"/>
<path d="M115.535 245.837H109.409C109.358 245.837 109.308 245.828 109.261 245.809C109.214 245.79 109.172 245.762 109.136 245.726C109.1 245.69 109.071 245.648 109.052 245.601C109.032 245.555 109.022 245.505 109.022 245.454C109.022 245.403 109.032 245.353 109.052 245.307C109.071 245.26 109.1 245.218 109.136 245.182C109.172 245.147 109.214 245.118 109.261 245.099C109.308 245.08 109.358 245.071 109.409 245.071H115.535C115.585 245.071 115.635 245.08 115.682 245.099C115.729 245.118 115.772 245.147 115.808 245.182C115.843 245.218 115.872 245.26 115.891 245.307C115.911 245.353 115.921 245.403 115.921 245.454C115.921 245.505 115.911 245.555 115.891 245.601C115.872 245.648 115.843 245.69 115.808 245.726C115.772 245.762 115.729 245.79 115.682 245.809C115.635 245.828 115.585 245.837 115.535 245.837Z" fill="white"/>
<path d="M115.535 248.9H109.409C109.358 248.9 109.308 248.891 109.261 248.872C109.214 248.853 109.172 248.825 109.136 248.789C109.1 248.753 109.071 248.711 109.052 248.664C109.032 248.618 109.022 248.568 109.022 248.517C109.022 248.466 109.032 248.416 109.052 248.37C109.071 248.323 109.1 248.281 109.136 248.245C109.172 248.209 109.214 248.181 109.261 248.162C109.308 248.143 109.358 248.134 109.409 248.134H115.535C115.585 248.134 115.636 248.143 115.682 248.162C115.729 248.181 115.772 248.209 115.808 248.245C115.844 248.281 115.872 248.323 115.892 248.37C115.911 248.416 115.921 248.466 115.921 248.517C115.921 248.568 115.911 248.618 115.892 248.664C115.872 248.711 115.844 248.753 115.808 248.789C115.772 248.825 115.729 248.853 115.682 248.872C115.636 248.891 115.585 248.9 115.535 248.9Z" fill="white"/>
<path d="M281.432 292.584C281.784 292.376 282.086 292.094 282.317 291.756C282.548 291.419 282.703 291.035 282.769 290.631C282.836 290.227 282.813 289.814 282.703 289.42C282.592 289.026 282.397 288.661 282.13 288.351L287.128 279.755L281.969 280.046L278.014 288.164C277.523 288.647 277.225 289.293 277.178 289.98C277.132 290.667 277.338 291.348 277.76 291.892C278.181 292.437 278.787 292.809 279.464 292.936C280.141 293.064 280.841 292.939 281.432 292.584Z" fill="#FFB8B8"/>
<path d="M283.449 286.265L278.83 282.667L287.223 266.403L284.078 245.692C283.922 244.668 283.994 243.623 284.288 242.63C284.582 241.637 285.091 240.721 285.779 239.947C286.467 239.173 287.317 238.56 288.268 238.151C289.22 237.743 290.25 237.548 291.285 237.582C293.154 237.646 294.921 238.449 296.2 239.814C297.478 241.179 298.162 242.996 298.103 244.865L297.326 268.448L283.449 286.265Z" fill="#DCE1E9"/>
<path d="M60.2147 281.821C60.5056 281.529 60.7289 281.176 60.8688 280.788C61.0086 280.4 61.0617 279.986 61.0243 279.576C60.9869 279.165 60.8599 278.767 60.6523 278.411C60.4446 278.055 60.1613 277.748 59.8224 277.513L64.3143 255.202L59.3538 256.795L55.7583 278.375C55.4012 278.971 55.275 279.676 55.4035 280.359C55.5321 281.041 55.9065 281.653 56.4558 282.077C57.0051 282.502 57.6912 282.711 58.3839 282.664C59.0767 282.616 59.7281 282.317 60.2147 281.821Z" fill="#9E616A"/>
<path d="M66.8469 234.617L63.7692 232.294C63.7692 232.294 61.0541 232.101 60.5733 236.998C60.0924 241.894 59.1051 251.436 59.1051 251.436L54.3955 273.249L60.9148 274.68L65.9591 251.14L68.9851 244.149L66.8469 234.617Z" fill="#DCE1E9"/>
<path d="M61.7734 270.235L79.1166 269.946L80.562 258.095H61.7734V270.235Z" fill="#9E616A"/>
<path d="M77.3817 343.163H81.3854L83.2901 327.72L77.3809 327.72L77.3817 343.163Z" fill="#9E616A"/>
<path d="M52.2988 343.534L56.3026 343.506L58.099 328.05L52.8918 329.244L52.2988 343.534Z" fill="#9E616A"/>
<path d="M64.8212 247.889L63.9141 250.247L64.0953 252.606L81.8502 258.756L80.9694 248.433L78.9735 246.074L64.8212 247.889Z" fill="#FFB8B8"/>
<path d="M72.438 226.663C75.9403 226.663 78.7794 223.824 78.7794 220.321C78.7794 216.819 75.9403 213.98 72.438 213.98C68.9358 213.98 66.0967 216.819 66.0967 220.321C66.0967 223.824 68.9358 226.663 72.438 226.663Z" fill="#9E616A"/>
<path d="M76.3889 341.188L82.718 340.811V343.522L88.7353 347.678C89.0325 347.883 89.2563 348.178 89.3741 348.519C89.4919 348.861 89.4975 349.231 89.39 349.576C89.2825 349.921 89.0676 350.222 88.7767 350.436C88.4857 350.65 88.134 350.766 87.7728 350.766H80.2377L78.939 348.083L78.4318 350.766H75.5908L76.3889 341.188Z" fill="#24285B"/>
<path d="M50.9292 341.568L57.2556 341.146L57.2745 343.858L63.3208 347.971C63.6194 348.175 63.8453 348.468 63.9655 348.809C64.0857 349.149 64.0938 349.519 63.9887 349.865C63.8837 350.21 63.6709 350.513 63.3814 350.729C63.092 350.945 62.7411 351.063 62.3799 351.066L54.845 351.119L53.5275 348.445L53.0392 351.131L50.1982 351.151L50.9292 341.568Z" fill="#24285B"/>
<path d="M51.0539 331.694L53.9693 308.39L57.4379 283.821C54.8978 279.103 60.6175 264.454 60.6175 264.454L61.4249 264.493L79.6989 267.94L79.695 267.923C83.4326 278.117 84.671 283.153 84.4661 294.009L83.7298 333.034H83.9608C84.3441 333.034 84.7117 333.187 84.9827 333.458C85.2538 333.729 85.4061 334.096 85.4061 334.48C85.4061 334.863 85.2538 335.231 84.9827 335.502C84.7117 335.773 84.3441 335.925 83.9608 335.925H76.7345C76.5445 335.925 76.3563 335.888 76.1806 335.816C76.005 335.743 75.8454 335.637 75.7109 335.503C75.5764 335.368 75.4698 335.209 75.397 335.033C75.3242 334.858 75.2867 334.67 75.2867 334.48C75.2867 334.29 75.3242 334.102 75.397 333.926C75.4698 333.751 75.5764 333.591 75.7109 333.457C75.8454 333.323 76.005 333.216 76.1806 333.144C76.3563 333.071 76.5445 333.034 76.7345 333.034H76.9208L70.2879 286.567L64.6642 306.078L58.3051 331.515C60.6175 330.936 60.2584 332.276 60.2584 333.034C60.2584 333.418 60.1062 333.785 59.8351 334.056C59.5641 334.327 59.1965 334.48 58.8132 334.48H51.5869C51.2508 334.48 50.9251 334.363 50.6659 334.149C50.4068 333.935 50.2305 333.637 50.1673 333.307C50.1042 332.977 50.1582 332.635 50.32 332.341C50.4819 332.046 50.7414 331.817 51.0539 331.694Z" fill="#24285B"/>
<path d="M59.1937 265.213L59.7718 259.432C59.8318 259.196 59.965 258.985 60.1522 258.83C60.3394 258.674 60.571 258.582 60.8138 258.566C61.0547 255.812 62.0681 243.932 62.1287 243.414L62.1311 243.392L62.5919 233.547C62.6086 233.19 62.7565 232.851 63.0072 232.595C63.258 232.34 63.594 232.186 63.9512 232.162L66.3852 232.003C66.4186 232.002 66.4503 231.988 66.4735 231.964C66.4967 231.94 66.5097 231.908 66.5097 231.875C66.5097 231.606 66.5626 231.34 66.6655 231.091C66.7684 230.843 66.9191 230.617 67.1092 230.427C67.2993 230.237 67.5249 230.086 67.7733 229.984C68.0216 229.881 68.2878 229.828 68.5566 229.828H75.763C76.2298 229.828 76.6804 229.998 77.0304 230.307C77.3804 230.616 77.6056 231.042 77.6637 231.505C77.6669 231.537 77.682 231.567 77.706 231.588C77.73 231.609 77.7612 231.621 77.7932 231.62H77.7941C78.6129 231.603 79.4107 231.88 80.0426 232.401C80.6745 232.922 81.0987 233.653 81.2383 234.46C82.2235 240.192 84.1979 253.202 83.2217 260.435C82.8819 262.952 83.6144 260.958 83.743 263.065C83.7557 263.268 83.7282 263.473 83.6619 263.666C83.5957 263.858 83.492 264.036 83.3569 264.189C83.6336 264.29 83.8594 264.495 83.9854 264.761C84.1114 265.027 84.1274 265.332 84.0299 265.61L84.1565 265.579C84.1194 265.726 84.0537 265.865 83.963 265.986C83.8724 266.108 83.7586 266.211 83.6283 266.289C83.4979 266.367 83.3535 266.418 83.2033 266.44C83.0531 266.462 82.9 266.455 82.7527 266.417L63.8989 268.972C63.2798 268.816 59.0376 265.832 59.1937 265.213Z" fill="#DCE1E9"/>
<path d="M109.574 241.708C109.456 242.103 109.253 242.468 108.979 242.776C108.705 243.084 108.366 243.328 107.987 243.492C107.609 243.655 107.199 243.733 106.786 243.72C106.374 243.708 105.97 243.605 105.601 243.42L98.3125 250.071L97.3447 244.952L104.419 239.437C104.772 238.839 105.332 238.391 105.993 238.178C106.654 237.966 107.37 238.003 108.006 238.283C108.641 238.563 109.152 239.066 109.441 239.697C109.73 240.329 109.778 241.044 109.574 241.708Z" fill="#9E616A"/>
<path d="M84.2046 236.624C84.2046 236.624 81.663 230.88 78.453 232.022C75.243 233.164 76.9004 238.736 76.9004 238.736L88.9605 256.909C88.9605 256.909 106.355 245.751 104.24 245.672C102.125 245.593 101.492 241.746 101.492 241.746L92.2987 246.339L91.9876 244.704L91.4891 245.203L90.2025 244.19L84.2046 236.624Z" fill="#DCE1E9"/>
<path d="M292.109 230.314C296.999 230.314 300.963 226.351 300.963 221.461C300.963 216.571 296.999 212.608 292.109 212.608C287.22 212.608 283.256 216.571 283.256 221.461C283.256 226.351 287.22 230.314 292.109 230.314Z" fill="#FFB8B8"/>
<path d="M320.523 234.489C319.501 235.936 318.01 236.986 316.303 237.46C315.619 237.663 314.914 237.783 314.202 237.817C314.114 237.012 313.903 236.224 313.577 235.483C313.61 236.272 313.5 237.061 313.253 237.811C312.183 237.751 311.138 237.471 310.181 236.989C309.242 236.516 308.425 235.831 307.797 234.988C307.168 234.144 306.745 233.166 306.56 232.131C306.185 229.709 307.283 227.331 307.68 224.913C308.078 222.495 307.33 219.433 304.963 218.798C303.161 218.313 303.363 218.523 301.864 219.635C303.423 221.94 297.666 230.386 295.31 229.649C293.978 229.233 293.125 228.01 292.85 228.01C290.998 231.2 294.485 236.575 290.971 237.691L291.26 237.402C293.381 234.793 288.948 229.27 291.069 226.661C291.661 225.931 292.291 225.066 292.116 224.143C291.95 223.266 290.557 222.801 290.15 223.522C290.883 221.842 289.8 219.599 288.007 219.167C286.414 218.783 286.443 219.256 284.844 219.462C284.74 218.771 284.544 218.097 284.263 217.457C284.293 218.147 284.212 218.836 284.025 219.5C283.46 219.489 282.915 219.292 282.473 218.94C281.17 217.889 281.434 215.682 282.597 214.479C283.763 213.275 285.494 212.842 287.145 212.561C287.625 209.218 296.849 208.87 298.072 212.21C298.592 209.716 301.715 208.421 304.142 209.195C306.569 209.969 308.253 212.236 309.14 214.624C310.027 217.011 310.274 219.58 310.82 222.068C311.367 224.555 312.29 227.087 314.191 228.782C316.091 230.476 319.189 231.037 321.191 229.463C321.483 230.295 321.574 231.183 321.458 232.056C321.342 232.929 321.021 233.762 320.523 234.489Z" fill="#24285B"/>
<path d="M403.585 254.692L402.346 260.911C402.252 261.386 402.155 261.87 402.048 262.35C401.012 262.135 399.938 262.195 398.933 262.524C399.731 263.664 400.446 264.86 401.072 266.102C400.291 268.509 399.145 270.734 397.226 272.342C395.945 273.393 394.414 274.096 392.782 274.383C391.15 274.67 389.472 274.531 387.909 273.981L387.964 273.735C385.901 269.732 387.022 264.685 389.586 260.987C390.893 259.163 392.443 257.526 394.191 256.119C395.923 254.675 397.795 253.381 399.65 252.103C400.067 251.816 400.559 251.661 401.065 251.656C401.571 251.65 402.066 251.796 402.489 252.074C402.911 252.352 403.241 252.75 403.436 253.216C403.632 253.682 403.683 254.196 403.585 254.692Z" fill="#E4E4E4"/>
<path d="M388.35 288.944C387.828 285.144 387.292 281.295 387.658 277.454C387.983 274.042 389.023 270.711 391.142 267.979C392.267 266.531 393.635 265.291 395.186 264.314C395.591 264.059 395.963 264.7 395.56 264.954C392.877 266.65 390.801 269.154 389.633 272.105C388.343 275.387 388.135 278.965 388.36 282.452C388.494 284.56 388.779 286.654 389.066 288.747C389.09 288.841 389.076 288.941 389.027 289.026C388.979 289.111 388.901 289.174 388.807 289.203C388.713 289.228 388.612 289.215 388.526 289.167C388.441 289.118 388.378 289.038 388.352 288.944L388.35 288.944Z" fill="#F2F2F2"/>
<path d="M417.867 351.467L21.504 351.597C21.3702 351.597 21.242 351.543 21.1475 351.449C21.0531 351.354 21 351.226 21 351.092C21 350.958 21.0531 350.83 21.1475 350.735C21.242 350.64 21.3702 350.587 21.504 350.586L417.867 350.456C418 350.456 418.129 350.51 418.223 350.604C418.318 350.699 418.371 350.828 418.371 350.961C418.371 351.095 418.318 351.224 418.223 351.318C418.129 351.413 418 351.466 417.867 351.467Z" fill="#DCE1E9"/>
<path d="M64.9753 216.438C64.0028 216.905 62.9141 216.203 62.0744 215.507L62.3748 215.767C60.8908 217.21 60.197 219.288 59.8579 221.333C59.5186 223.375 59.4808 225.464 59.0535 227.492C58.6259 229.519 57.7388 231.554 56.082 232.795C53.8624 234.457 50.801 234.35 48.0771 233.841C48.0408 233.834 48.007 233.828 47.9707 233.821C48.7036 231.704 49.0016 229.462 48.8466 227.228C48.1165 229.467 46.8735 231.504 45.2167 233.178C43.4107 232.681 41.6479 232.038 39.9456 231.257C38.8441 230.75 37.6581 230.057 37.3524 228.883C37.0459 227.718 37.7576 226.496 38.7092 225.76C39.6608 225.025 40.8288 224.641 41.9129 224.117C42.9953 223.595 44.0664 222.852 44.4997 221.729C45.4993 219.147 42.6519 216.183 43.7615 213.644C44.3088 212.396 45.6491 211.717 46.9089 211.194C48.8322 210.396 50.8071 209.73 52.8202 209.2C54.5874 208.733 56.4326 208.371 58.2329 208.677C60.0331 208.982 61.7969 210.077 62.4448 211.787C63.5259 212.152 64.6737 212.564 65.3675 213.474C66.061 214.382 66.0051 215.945 64.9753 216.438Z" fill="#24285B"/>
<path d="M73.629 213.446C70.8467 211.25 68.5971 211.624 66.8617 212.989C66.57 212.665 65.3284 213.557 64.9081 213.429L63.3876 216.283C62.6052 217.664 62.2842 219.073 62.4107 219.867C60.9715 223.903 64.3843 226.628 68.4203 228.067C70.0308 228.645 71.7879 228.671 73.4144 228.139L73.464 227.452L73.7697 228.015C73.7697 228.015 77.4593 235.613 78.3312 235.954C77.8022 234.581 76.4068 228.059 76.0174 226.699C75.4833 224.849 75.8481 221.911 76.162 220.109C76.3576 218.998 76.3679 217.862 76.1923 216.748L76.1845 216.699L77.0478 218.442L78.9847 217.224C78.2444 215.068 78.2297 212.489 73.629 213.446Z" fill="#24285B"/>
<defs>
<linearGradient id="paint0_linear_1610_9432" x1="280.956" y1="301.889" x2="267.682" y2="291.229" gradientUnits="userSpaceOnUse">
<stop stop-color="#03B8DF"/>
<stop offset="1" stop-color="#1853A4"/>
</linearGradient>
<linearGradient id="paint1_linear_1610_9432" x1="245.723" y1="233.122" x2="232.449" y2="222.463" gradientUnits="userSpaceOnUse">
<stop stop-color="#03B8DF"/>
<stop offset="1" stop-color="#1853A4"/>
</linearGradient>
<linearGradient id="paint2_linear_1610_9432" x1="117.953" y1="251.799" x2="104.679" y2="241.14" gradientUnits="userSpaceOnUse">
<stop stop-color="#03B8DF"/>
<stop offset="1" stop-color="#1853A4"/>
</linearGradient>
</defs>
</svg>
