<svg width="440" height="440" viewBox="0 0 440 440" fill="none" xmlns="http://www.w3.org/2000/svg">
<rect x="160" width="280" height="440" fill="#D4F7FF"/>
<g style="mix-blend-mode:multiply">
<path d="M389 387.383C389.111 398.992 315.954 400.056 314.561 387.383C314.45 375.775 387.606 374.711 389 387.383Z" fill="#E6E6E6"/>
</g>
<path d="M331.763 347.08L326.326 350.046L329.786 361.414L335.223 361.908L338.188 355.483L331.763 347.08Z" fill="#9E616A"/>
<path d="M348.567 369.816V375.253L356.97 374.759L356.853 370.281L348.567 369.816Z" fill="#9E616A"/>
<path d="M329.786 281.838L332.751 318.908L342.143 373.276L356.97 371.299L352.028 328.298L354.005 288.758L329.786 281.838Z" fill="#24285B"/>
<path d="M369.327 254.16L333.74 254.654L329.786 281.838L354.005 293.206L359.936 314.954L329.786 347.08L341.648 361.908C341.648 361.908 358.453 339.172 370.81 326.321C383.166 313.471 377.235 274.424 377.235 274.424L369.327 254.16Z" fill="#24285B"/>
<path d="M348.074 183.975C354.079 183.975 358.948 179.106 358.948 173.101C358.948 167.096 354.079 162.227 348.074 162.227C342.069 162.227 337.2 167.096 337.2 173.101C337.2 179.106 342.069 183.975 348.074 183.975Z" fill="#9E616A"/>
<path d="M344.119 180.515V191.388L351.533 203.251C351.533 203.251 362.901 194.848 360.43 192.871C357.958 190.894 357.464 175.572 357.464 175.572L344.119 180.515Z" fill="#9E616A"/>
<path d="M344.119 189.411L336.705 198.308L339.671 260.09L362.901 259.596L366.855 205.722L361.913 191.883L358.522 187.27L352.522 196.331L344.119 189.411Z" fill="white"/>
<path d="M332.257 221.538L326.82 242.297L332.257 263.056L323.36 274.919L315.452 237.355C315.452 237.355 321.383 206.711 321.878 203.251C322.372 199.791 323.36 199.297 323.36 199.297L327.314 199.791L332.257 221.538Z" fill="#9EECFE"/>
<path d="M371.798 229.446L375.258 235.872L376.247 246.745L374.27 259.102L381.189 270.47L388.108 239.331L380.695 199.296H377.729L371.798 229.446Z" fill="#9EECFE"/>
<path d="M329.786 346.586C329.786 346.586 322.866 348.563 320.395 349.058C317.923 349.552 321.877 358.943 321.877 358.943C321.877 358.943 324.349 371.794 324.843 374.265C325.337 376.736 328.797 385.139 333.245 386.127C337.694 387.116 334.728 368.828 334.728 368.828C334.728 368.828 336.705 362.897 336.705 360.92C336.705 358.943 333.74 359.931 333.74 359.931C325.831 358.943 329.786 346.586 329.786 346.586Z" fill="#FFD200"/>
<path d="M346.097 384.644C346.591 387.61 345.602 387.61 353.511 388.598C361.419 389.587 359.442 383.161 359.442 383.161C359.111 380.132 358.448 377.149 357.465 374.265C355.982 370.311 348.074 375.253 348.074 375.253C348.074 375.253 345.602 381.679 346.097 384.644Z" fill="#FFD200"/>
<path d="M357.477 175.917L357.735 180.313C357.735 180.313 360.924 173.101 361.418 165.687C361.913 158.273 353.51 156.79 348.568 156.296C343.625 155.802 335.223 159.262 335.223 163.216C335.223 167.17 344.119 166.181 347.579 165.193C351.039 164.204 352.522 172.607 352.522 172.607L354.499 173.101L357.477 175.917Z" fill="#24285B"/>
<path d="M341.202 192.912L344.12 189.412L352.522 196.331L344.12 202.262L341.202 192.912Z" fill="#E7ECF2"/>
<path d="M361.914 191.883L358.454 187.434L352.522 196.331L359.937 201.768L361.914 191.883Z" fill="#E7ECF2"/>
<path d="M330.774 228.458L332.751 247.24L328.797 258.608L326.326 269.481C326.326 269.481 326.326 279.861 336.211 280.355C346.096 280.849 354.499 249.217 354.499 249.217C354.499 249.217 355.981 256.136 356.97 260.09C357.958 264.044 374.763 279.861 374.763 279.861C374.763 279.861 378.717 279.367 382.177 271.458C385.637 263.55 375.258 256.136 375.258 256.136L372.292 245.757L373.28 232.906L380.2 199.296L359.688 188.67L361.913 217.09L354.499 239.331L343.378 190.153L339.671 192.871L323.854 199.296L330.774 228.458Z" fill="#68E1FD"/>
<g style="mix-blend-mode:multiply">
<path d="M135.438 303.216C134.461 303.208 133.472 303.201 132.501 303.171L132.531 302.192C133.492 302.222 134.475 302.235 135.438 302.236C136.406 302.236 137.392 302.22 138.37 302.189L138.402 303.167C137.413 303.199 136.416 303.216 135.438 303.216ZM126.614 302.802C124.664 302.617 122.694 302.367 120.761 302.059L120.915 301.092C122.828 301.397 124.777 301.645 126.706 301.827L126.614 302.802ZM144.289 302.791L144.196 301.817C146.124 301.632 148.072 301.382 149.985 301.074L150.141 302.041C148.207 302.352 146.239 302.605 144.289 302.791ZM114.968 300.941C113.058 300.508 111.137 300.007 109.258 299.452L109.536 298.512C111.395 299.062 113.295 299.557 115.184 299.985L114.968 300.941ZM155.933 300.917L155.715 299.962C157.609 299.53 159.508 299.032 161.362 298.482L161.641 299.421C159.767 299.977 157.847 300.48 155.933 300.917ZM103.656 297.598C101.814 296.921 99.9709 296.176 98.178 295.383L98.5744 294.487C100.348 295.272 102.171 296.009 103.994 296.679L103.656 297.598ZM167.24 297.56L166.901 296.641C168.713 295.973 170.53 295.236 172.302 294.45L172.699 295.345C170.908 296.14 169.071 296.885 167.24 297.56ZM92.8557 292.819C91.122 291.914 89.3907 290.939 87.7104 289.92L88.2183 289.082C89.8809 290.091 91.5936 291.055 93.3088 291.951L92.8557 292.819ZM178.007 292.783L177.553 291.915C179.265 291.021 180.973 290.056 182.632 289.048L183.14 289.885C181.464 290.904 179.737 291.879 178.007 292.783ZM82.7628 286.698C81.1571 285.577 79.5657 284.389 78.0324 283.166L78.6432 282.4C80.1602 283.61 81.7348 284.786 83.3233 285.894L82.7628 286.698ZM188.08 286.663L187.518 285.86C189.107 284.75 190.679 283.575 192.192 282.366L192.803 283.131C191.274 284.353 189.685 285.541 188.08 286.663ZM73.5375 279.34C72.086 278.022 70.6589 276.641 69.2966 275.237L69.9997 274.555C71.3476 275.945 72.7597 277.31 74.1961 278.615L73.5375 279.34ZM197.294 279.306L196.635 278.581C198.068 277.279 199.479 275.912 200.829 274.519L201.532 275.2C200.168 276.609 198.742 277.99 197.294 279.306ZM65.3261 270.873C64.0552 269.383 62.816 267.833 61.6426 266.266L62.4267 265.679C63.5877 267.229 64.8137 268.763 66.0713 270.237L65.3261 270.873ZM205.501 270.832L204.756 270.197C206.013 268.722 207.24 267.186 208.4 265.634L209.185 266.22C208.012 267.789 206.772 269.341 205.501 270.832ZM58.2611 261.434C57.1896 259.793 56.1585 258.098 55.1962 256.397L56.049 255.915C57.0007 257.598 58.021 259.275 59.0813 260.898L58.2611 261.434ZM212.567 261.381L211.747 260.846C212.807 259.219 213.828 257.54 214.78 255.853L215.633 256.334C214.671 258.04 213.639 259.737 212.567 261.381ZM52.4611 251.176C51.6088 249.413 50.8037 247.601 50.0681 245.791L50.9754 245.422C51.7033 247.213 52.4998 249.005 53.343 250.749L52.4611 251.176ZM218.369 251.099L217.487 250.674C218.33 248.927 219.127 247.13 219.856 245.33L220.763 245.698C220.027 247.517 219.221 249.334 218.369 251.099ZM48.0236 240.256C47.404 238.395 46.838 236.492 46.3411 234.599L47.2885 234.351C47.7799 236.223 48.34 238.106 48.9529 239.946L48.0236 240.256ZM222.804 240.152L221.874 239.844C222.484 238.006 223.042 236.123 223.532 234.246L224.48 234.494C223.984 236.391 223.42 238.294 222.804 240.152ZM45.0271 228.848C44.6529 226.926 44.3363 224.967 44.0859 223.024L45.0572 222.898C45.305 224.821 45.6182 226.759 45.9884 228.66L45.0271 228.848ZM225.787 228.74L224.826 228.555C225.193 226.654 225.504 224.715 225.75 222.791L226.721 222.915C226.473 224.86 226.158 226.82 225.787 228.74ZM43.5196 217.152C43.3941 215.2 43.3293 213.215 43.3271 211.254L44.3066 211.253C44.3088 213.194 44.3729 215.157 44.4972 217.089L43.5196 217.152ZM227.281 217.042L226.303 216.98C226.425 215.05 226.487 213.087 226.487 211.146L226.486 210.931H227.466L227.466 211.142C227.466 213.108 227.404 215.091 227.281 217.042ZM44.4836 205.418L43.506 205.358C43.6275 203.402 43.8133 201.426 44.0584 199.484L45.0302 199.607C44.7875 201.528 44.6036 203.483 44.4836 205.418ZM226.29 205.097C226.163 203.161 225.972 201.206 225.723 199.287L226.694 199.161C226.946 201.101 227.139 203.076 227.267 205.033L226.29 205.097ZM45.9475 193.843L44.9858 193.657C45.3552 191.735 45.7928 189.799 46.2859 187.903L47.2338 188.149C46.746 190.025 46.3131 191.941 45.9475 193.843ZM224.784 193.527C224.411 191.624 223.971 189.71 223.477 187.838L224.424 187.588C224.924 189.48 225.368 191.415 225.745 193.338L224.784 193.527ZM48.8852 182.55L47.955 182.243C48.5698 180.382 49.2542 178.515 49.9895 176.694L50.8977 177.061C50.1703 178.862 49.4933 180.709 48.8852 182.55ZM221.807 182.245C221.192 180.406 220.51 178.565 219.779 176.771L220.685 176.401C221.425 178.214 222.115 180.076 222.736 181.934L221.807 182.245ZM53.2603 171.714L52.3774 171.289C53.227 169.523 54.1457 167.761 55.1078 166.051L55.9614 166.532C55.0095 168.223 54.1008 169.966 53.2603 171.714ZM217.405 171.447C216.561 169.708 215.649 167.971 214.693 166.284L215.545 165.801C216.512 167.506 217.434 169.261 218.286 171.02L217.405 171.447ZM58.9888 161.535L58.1676 161.001C59.2358 159.359 60.3719 157.729 61.5441 156.158L62.3294 156.743C61.1696 158.298 60.0455 159.91 58.9888 161.535ZM211.654 161.304C210.595 159.686 209.467 158.079 208.303 156.528L209.087 155.94C210.263 157.508 211.403 159.132 212.474 160.768L211.654 161.304ZM65.9684 152.175L65.2224 151.541C66.4909 150.049 67.8245 148.578 69.1861 147.169L69.8906 147.85C68.5434 149.243 67.2239 150.699 65.9684 152.175ZM204.653 151.974C203.394 150.501 202.07 149.05 200.72 147.66L201.422 146.978C202.787 148.382 204.125 149.849 205.397 151.337L204.653 151.974ZM74.0794 143.783L73.4199 143.059C74.8692 141.738 76.3786 140.449 77.9057 139.227L78.5178 139.992C77.0068 141.201 75.5134 142.477 74.0794 143.783ZM196.518 143.605C195.082 142.305 193.584 141.033 192.067 139.826L192.677 139.059C194.211 140.28 195.724 141.565 197.175 142.879L196.518 143.605ZM83.1878 136.492L82.6258 135.69C84.2285 134.567 85.889 133.481 87.5612 132.463L88.0708 133.299C86.4165 134.307 84.7734 135.381 83.1878 136.492ZM187.383 136.336C185.788 135.227 184.14 134.156 182.484 133.154L182.991 132.316C184.665 133.329 186.331 134.411 187.942 135.533L187.383 136.336ZM93.146 130.426L92.6912 129.558C94.4227 128.65 96.2075 127.786 97.9955 126.99L98.3939 127.885C96.6248 128.672 94.8593 129.527 93.146 130.426ZM177.39 130.291C175.67 129.396 173.897 128.545 172.121 127.762L172.517 126.865C174.312 127.657 176.104 128.518 177.842 129.422L177.39 130.291ZM103.792 125.687L103.452 124.769C105.289 124.089 107.172 123.461 109.049 122.901L109.329 123.84C107.472 124.393 105.609 125.015 103.792 125.687ZM166.699 125.576C164.879 124.91 163.013 124.295 161.155 123.749L161.432 122.809C163.31 123.361 165.196 123.983 167.036 124.657L166.699 125.576ZM114.974 122.354L114.755 121.399C116.661 120.963 118.609 120.582 120.546 120.268L120.703 121.235C118.786 121.546 116.859 121.922 114.974 122.354ZM155.505 122.282C153.617 121.857 151.688 121.487 149.773 121.183L149.926 120.216C151.862 120.523 153.812 120.897 155.721 121.327L155.505 122.282ZM126.491 120.485L126.397 119.51C128.341 119.322 130.322 119.193 132.283 119.127L132.316 120.106C130.375 120.171 128.415 120.298 126.491 120.485ZM143.981 120.455C142.054 120.275 140.094 120.154 138.155 120.096L138.184 119.117C140.144 119.176 142.125 119.297 144.072 119.479L143.981 120.455Z" fill="#7D8592"/>
</g>
<path d="M131.969 144.542C144.681 144.542 154.986 134.237 154.986 121.525C154.986 108.813 144.681 98.5073 131.969 98.5073C119.256 98.5073 108.951 108.813 108.951 121.525C108.951 134.237 119.256 144.542 131.969 144.542Z" fill="url(#paint0_linear_1610_9431)"/>
<path d="M221.1 207.228C233.813 207.228 244.118 196.923 244.118 184.211C244.118 171.498 233.813 161.193 221.1 161.193C208.388 161.193 198.083 171.498 198.083 184.211C198.083 196.923 208.388 207.228 221.1 207.228Z" fill="url(#paint1_linear_1610_9431)"/>
<path d="M193.185 303.216C205.898 303.216 216.203 292.911 216.203 280.198C216.203 267.486 205.898 257.181 193.185 257.181C180.473 257.181 170.168 267.486 170.168 280.198C170.168 292.911 180.473 303.216 193.185 303.216Z" fill="url(#paint2_linear_1610_9431)"/>
<path d="M82.5057 307.133C95.2179 307.133 105.523 296.828 105.523 284.116C105.523 271.404 95.2179 261.099 82.5057 261.099C69.7935 261.099 59.4883 271.404 59.4883 284.116C59.4883 296.828 69.7935 307.133 82.5057 307.133Z" fill="url(#paint3_linear_1610_9431)"/>
<path d="M49.204 207.228C61.9162 207.228 72.2214 196.923 72.2214 184.211C72.2214 171.498 61.9162 161.193 49.204 161.193C36.4918 161.193 26.1865 171.498 26.1865 184.211C26.1865 196.923 36.4918 207.228 49.204 207.228Z" fill="url(#paint4_linear_1610_9431)"/>
<path d="M141.833 119.69H133.804C133.074 119.69 132.374 119.4 131.858 118.884C131.342 118.367 131.052 117.667 131.052 116.937V108.909C131.052 108.878 131.046 108.849 131.034 108.821C131.023 108.793 131.006 108.768 130.984 108.746C130.963 108.725 130.938 108.708 130.91 108.697C130.882 108.685 130.852 108.679 130.822 108.679H125.546C124.573 108.679 123.639 109.066 122.951 109.754C122.263 110.442 121.876 111.376 121.876 112.349V130.7C121.876 131.674 122.263 132.607 122.951 133.296C123.639 133.984 124.573 134.371 125.546 134.371H138.392C139.365 134.371 140.299 133.984 140.987 133.296C141.675 132.607 142.062 131.674 142.062 130.7V119.919C142.062 119.889 142.056 119.859 142.045 119.831C142.033 119.804 142.016 119.778 141.995 119.757C141.974 119.736 141.948 119.719 141.921 119.707C141.893 119.696 141.863 119.69 141.833 119.69ZM136.557 128.865H127.381C127.138 128.865 126.905 128.769 126.732 128.597C126.56 128.425 126.464 128.191 126.464 127.948C126.464 127.704 126.56 127.471 126.732 127.299C126.905 127.127 127.138 127.03 127.381 127.03H136.557C136.8 127.03 137.034 127.127 137.206 127.299C137.378 127.471 137.474 127.704 137.474 127.948C137.474 128.191 137.378 128.425 137.206 128.597C137.034 128.769 136.8 128.865 136.557 128.865ZM136.557 124.278H127.381C127.138 124.278 126.905 124.181 126.732 124.009C126.56 123.837 126.464 123.603 126.464 123.36C126.464 123.117 126.56 122.883 126.732 122.711C126.905 122.539 127.138 122.442 127.381 122.442H136.557C136.8 122.442 137.034 122.539 137.206 122.711C137.378 122.883 137.474 123.117 137.474 123.36C137.474 123.603 137.378 123.837 137.206 124.009C137.034 124.181 136.8 124.278 136.557 124.278Z" fill="white"/>
<path d="M141.329 117.659L133.082 109.412C133.066 109.396 133.046 109.385 133.024 109.381C133.001 109.376 132.978 109.379 132.958 109.387C132.937 109.396 132.919 109.41 132.906 109.429C132.894 109.448 132.887 109.47 132.887 109.493V116.937C132.887 117.18 132.983 117.414 133.155 117.586C133.328 117.758 133.561 117.854 133.804 117.854H141.248C141.271 117.854 141.293 117.848 141.312 117.835C141.331 117.822 141.345 117.805 141.354 117.784C141.363 117.763 141.365 117.74 141.361 117.718C141.356 117.695 141.345 117.675 141.329 117.659Z" fill="white"/>
<path d="M196.515 275.664C196.233 275.664 195.959 275.762 195.741 275.941C195.523 276.12 195.374 276.37 195.319 276.646C195.264 276.923 195.307 277.21 195.44 277.459C195.573 277.708 195.789 277.903 196.049 278.011C196.31 278.119 196.6 278.133 196.87 278.051C197.14 277.969 197.373 277.796 197.53 277.561C197.686 277.326 197.757 277.044 197.729 276.764C197.701 276.483 197.577 276.22 197.378 276.021C197.264 275.908 197.13 275.818 196.982 275.757C196.834 275.696 196.675 275.664 196.515 275.664Z" fill="white"/>
<path d="M203.306 270.786V270.782C203.267 270.612 203.182 270.457 203.06 270.333C202.937 270.21 202.783 270.123 202.614 270.082C201.252 269.75 199.11 270.104 196.735 271.055C194.452 271.943 192.363 273.265 190.585 274.95C190.099 275.433 189.647 275.95 189.234 276.496C188.321 276.433 187.405 276.58 186.557 276.926C183.918 278.087 183.165 281.059 182.964 282.28C182.935 282.453 182.946 282.631 182.997 282.799C183.048 282.967 183.137 283.122 183.257 283.25C183.378 283.378 183.526 283.477 183.69 283.539C183.855 283.6 184.032 283.623 184.207 283.605H184.213L187.152 283.284C187.156 283.322 187.16 283.356 187.163 283.388C187.201 283.746 187.361 284.08 187.616 284.335L189.05 285.77C189.304 286.025 189.639 286.185 189.997 286.223L190.095 286.234L189.775 289.17V289.175C189.76 289.325 189.774 289.476 189.817 289.619C189.86 289.763 189.93 289.897 190.025 290.014C190.12 290.13 190.236 290.227 190.368 290.298C190.5 290.369 190.645 290.414 190.794 290.43C190.829 290.433 190.865 290.435 190.9 290.436C190.963 290.436 191.027 290.43 191.09 290.42C192.317 290.223 195.287 289.478 196.446 286.825C196.789 285.98 196.936 285.069 196.877 284.159C197.426 283.746 197.945 283.295 198.429 282.808C200.113 281.046 201.437 278.974 202.328 276.706C203.274 274.358 203.63 272.2 203.306 270.786ZM198.413 278.778C198.037 279.154 197.559 279.41 197.038 279.514C196.517 279.618 195.977 279.565 195.486 279.362C194.995 279.159 194.575 278.815 194.28 278.373C193.984 277.932 193.827 277.413 193.826 276.881C193.826 276.35 193.983 275.831 194.278 275.389C194.573 274.947 194.993 274.603 195.483 274.399C195.974 274.196 196.514 274.142 197.035 274.245C197.556 274.349 198.035 274.604 198.411 274.98L198.413 274.982C198.916 275.478 199.202 276.153 199.207 276.86C199.213 277.567 198.937 278.246 198.441 278.75L198.413 278.778Z" fill="white"/>
<path d="M188.886 286.16C188.709 286.138 188.53 286.181 188.383 286.282C188.091 286.481 187.798 286.679 187.502 286.871C187.373 286.954 187.22 286.991 187.068 286.977C186.916 286.962 186.773 286.897 186.662 286.792C186.552 286.686 186.48 286.547 186.458 286.395C186.436 286.244 186.465 286.09 186.542 285.957L187.097 284.997C187.176 284.881 187.221 284.745 187.224 284.604C187.228 284.463 187.191 284.325 187.118 284.205C187.045 284.084 186.939 283.988 186.812 283.927C186.685 283.865 186.544 283.842 186.404 283.859C185.788 283.937 185.215 284.218 184.776 284.657C184.609 284.825 184.1 285.334 183.826 287.274C183.748 287.831 183.699 288.392 183.679 288.954C183.676 289.05 183.693 289.146 183.727 289.236C183.762 289.325 183.814 289.407 183.88 289.477C183.946 289.546 184.025 289.602 184.113 289.641C184.201 289.68 184.295 289.702 184.391 289.704C184.398 289.704 184.404 289.704 184.41 289.704H184.428C184.991 289.685 185.553 289.636 186.11 289.558C188.051 289.284 188.561 288.775 188.728 288.608C189.169 288.168 189.449 287.593 189.523 286.974C189.546 286.782 189.492 286.588 189.373 286.435C189.253 286.282 189.078 286.183 188.886 286.16Z" fill="white"/>
<path d="M74.5845 296.624H72.9168C72.5851 296.624 72.2669 296.492 72.0324 296.258C71.7978 296.023 71.666 295.705 71.666 295.373V287.869C71.666 287.537 71.7978 287.219 72.0324 286.984C72.2669 286.75 72.5851 286.618 72.9168 286.618H74.5845C74.9162 286.618 75.2344 286.75 75.4689 286.984C75.7035 287.219 75.8353 287.537 75.8353 287.869V295.373C75.8353 295.705 75.7035 296.023 75.4689 296.258C75.2344 296.492 74.9162 296.624 74.5845 296.624Z" fill="white"/>
<path d="M86.2583 296.624H84.5906C84.2589 296.624 83.9408 296.492 83.7062 296.258C83.4716 296.023 83.3398 295.705 83.3398 295.373V282.865C83.3398 282.534 83.4716 282.216 83.7062 281.981C83.9408 281.746 84.2589 281.615 84.5906 281.615H86.2583C86.59 281.615 86.9082 281.746 87.1427 281.981C87.3773 282.216 87.5091 282.534 87.5091 282.865V295.373C87.5091 295.705 87.3773 296.023 87.1427 296.258C86.9082 296.492 86.59 296.624 86.2583 296.624Z" fill="white"/>
<path d="M92.0952 296.624H90.4275C90.0958 296.624 89.7777 296.492 89.5431 296.257C89.3085 296.023 89.1768 295.705 89.1768 295.373V277.028C89.1768 276.697 89.3085 276.378 89.5431 276.144C89.7777 275.909 90.0958 275.778 90.4275 275.778H92.0952C92.4269 275.778 92.7451 275.909 92.9797 276.144C93.2142 276.378 93.346 276.697 93.346 277.028V295.373C93.346 295.705 93.2142 296.023 92.9797 296.257C92.7451 296.492 92.4269 296.624 92.0952 296.624Z" fill="white"/>
<path d="M80.4214 296.624H78.7537C78.422 296.624 78.1038 296.492 77.8693 296.258C77.6347 296.023 77.5029 295.705 77.5029 295.373V272.859C77.5029 272.528 77.6347 272.209 77.8693 271.975C78.1038 271.74 78.422 271.609 78.7537 271.609H80.4214C80.7531 271.609 81.0713 271.74 81.3058 271.975C81.5404 272.209 81.6722 272.528 81.6722 272.859V295.373C81.6722 295.537 81.6398 295.7 81.577 295.852C81.5141 296.004 81.422 296.141 81.3058 296.258C81.1897 296.374 81.0518 296.466 80.9 296.529C80.7483 296.592 80.5856 296.624 80.4214 296.624Z" fill="white"/>
<path d="M222.203 183.608L221.011 182.416C220.738 182.143 220.369 181.989 219.983 181.988C219.597 181.987 219.226 182.139 218.952 182.41L210.668 190.055C210.364 190.324 210.178 190.702 210.15 191.107C210.141 191.309 210.174 191.51 210.246 191.698C210.318 191.885 210.429 192.057 210.57 192.2L212.35 193.999L212.353 194.002C212.628 194.277 213 194.431 213.388 194.432H213.442C213.643 194.421 213.84 194.37 214.022 194.283C214.203 194.195 214.366 194.073 214.5 193.923L222.198 185.677C222.473 185.404 222.628 185.033 222.63 184.646C222.632 184.259 222.479 183.887 222.207 183.612L222.203 183.608Z" fill="white"/>
<path d="M231.778 181.199L231.764 181.185L230.2 179.637C230.109 179.545 230 179.473 229.88 179.424C229.761 179.375 229.632 179.35 229.503 179.351C229.293 179.351 229.089 179.417 228.919 179.54C228.919 179.52 228.922 179.501 228.923 179.484C228.987 179.085 228.902 178.676 228.686 178.333C228.342 177.869 227.963 177.431 227.554 177.022L227.551 177.018C226.408 175.921 225.064 175.055 223.594 174.466C222.825 174.15 222.002 173.988 221.171 173.989C220.096 173.979 219.051 174.345 218.217 175.024C217.979 175.25 217.763 175.498 217.57 175.764C217.477 175.891 217.429 176.045 217.431 176.202C217.433 176.359 217.486 176.511 217.581 176.636C217.677 176.761 217.81 176.852 217.961 176.895C218.113 176.938 218.274 176.93 218.421 176.875C218.549 176.827 218.679 176.787 218.812 176.755C219.089 176.696 219.372 176.678 219.654 176.702C220.238 176.763 220.798 176.968 221.283 177.299C221.555 177.528 221.771 177.816 221.915 178.141C222.06 178.466 222.128 178.819 222.116 179.174C221.913 179.752 221.604 180.285 221.203 180.748C221.097 180.889 221.044 181.063 221.057 181.239C221.069 181.416 221.144 181.581 221.269 181.706L222.84 183.276C222.972 183.409 223.149 183.485 223.336 183.491C223.523 183.496 223.704 183.429 223.844 183.305C224.288 182.908 224.964 182.31 225.2 182.164C225.402 182.029 225.631 181.938 225.871 181.899C226.05 181.882 226.23 181.92 226.386 182.008C226.387 182.016 226.386 182.023 226.384 182.031C226.381 182.038 226.377 182.045 226.372 182.051L226.289 182.13L226.275 182.143C226.091 182.327 225.987 182.576 225.986 182.837C225.986 183.097 226.089 183.347 226.273 183.532L226.278 183.536L227.841 185.084C227.933 185.175 228.041 185.247 228.161 185.296C228.281 185.345 228.409 185.37 228.538 185.369C228.798 185.369 229.047 185.268 229.233 185.086L231.765 182.585C231.774 182.576 231.783 182.567 231.791 182.558C231.961 182.371 232.054 182.128 232.052 181.876C232.049 181.624 231.952 181.382 231.778 181.199Z" fill="white"/>
<path d="M52.858 182.84C52.6773 182.84 52.5006 182.786 52.3504 182.686C52.2001 182.586 52.083 182.443 52.0139 182.276C51.9447 182.109 51.9266 181.925 51.9619 181.748C51.9971 181.571 52.0842 181.408 52.2119 181.28L54.3068 179.185L52.2119 177.091C52.0406 176.919 51.9443 176.687 51.9443 176.444C51.9443 176.202 52.0406 175.97 52.2119 175.798C52.3833 175.627 52.6156 175.531 52.858 175.531C53.1003 175.531 53.3326 175.627 53.504 175.798L56.2449 178.539C56.3298 178.624 56.3971 178.725 56.443 178.836C56.4889 178.947 56.5125 179.065 56.5125 179.185C56.5125 179.305 56.4889 179.424 56.443 179.535C56.3971 179.646 56.3298 179.747 56.2449 179.831L53.504 182.572C53.4192 182.657 53.3185 182.725 53.2077 182.771C53.0968 182.817 52.978 182.84 52.858 182.84Z" fill="white"/>
<path d="M38.2408 185.581C38.1208 185.581 38.002 185.557 37.8912 185.511C37.7803 185.465 37.6796 185.398 37.5947 185.313C37.5099 185.228 37.4426 185.128 37.3967 185.017C37.3508 184.906 37.3271 184.787 37.3271 184.667V183.754C37.3343 182.302 37.9138 180.913 38.9397 179.886C39.9656 178.86 41.3551 178.28 42.8063 178.272H54.6863C54.9286 178.272 55.161 178.368 55.3324 178.539C55.5037 178.711 55.6 178.943 55.6 179.185C55.6 179.428 55.5037 179.66 55.3324 179.831C55.161 180.003 54.9286 180.099 54.6863 180.099H42.809C41.8411 180.105 40.9144 180.492 40.2302 181.177C39.546 181.861 39.1595 182.788 39.1544 183.756V184.667C39.1544 184.787 39.1308 184.906 39.0849 185.017C39.039 185.128 38.9717 185.228 38.8868 185.313C38.802 185.398 38.7013 185.465 38.5904 185.511C38.4796 185.557 38.3608 185.581 38.2408 185.581Z" fill="white"/>
<path d="M45.5491 192.89C45.4291 192.89 45.3103 192.867 45.1994 192.821C45.0885 192.775 44.9878 192.707 44.9031 192.622L42.1622 189.882C42.0773 189.797 42.01 189.696 41.9641 189.585C41.9182 189.474 41.8945 189.356 41.8945 189.236C41.8945 189.116 41.9182 188.997 41.9641 188.886C42.01 188.775 42.0773 188.674 42.1622 188.59L44.9031 185.849C45.0745 185.678 45.3068 185.581 45.5489 185.582C45.7911 185.582 46.0233 185.678 46.1945 185.849C46.3658 186.02 46.462 186.253 46.4621 186.495C46.4622 186.737 46.3662 186.969 46.1951 187.141L44.1003 189.236L46.1951 191.33C46.3229 191.458 46.4099 191.621 46.4452 191.798C46.4804 191.975 46.4623 192.159 46.3932 192.326C46.324 192.493 46.2069 192.636 46.0567 192.736C45.9064 192.837 45.7298 192.89 45.5491 192.89Z" fill="white"/>
<path d="M43.7222 190.149C43.4799 190.149 43.2475 190.053 43.0762 189.882C42.9049 189.71 42.8086 189.478 42.8086 189.236C42.8086 188.993 42.9049 188.761 43.0762 188.59C43.2475 188.418 43.4799 188.322 43.7222 188.322H55.5995C56.5675 188.316 57.4941 187.929 58.1783 187.244C58.8625 186.56 59.2491 185.633 59.2541 184.665V183.754C59.2541 183.512 59.3504 183.279 59.5217 183.108C59.693 182.936 59.9254 182.84 60.1677 182.84C60.4101 182.84 60.6425 182.936 60.8138 183.108C60.9851 183.279 61.0814 183.512 61.0814 183.754V184.668C61.0742 186.119 60.4947 187.508 59.4688 188.535C58.4429 189.561 57.0534 190.141 55.6023 190.149L43.7222 190.149Z" fill="white"/>
<defs>
<linearGradient id="paint0_linear_1610_9431" x1="154.986" y1="144.542" x2="108.951" y2="98.5073" gradientUnits="userSpaceOnUse">
<stop stop-color="#03B8DF"/>
<stop offset="1" stop-color="#1853A4"/>
</linearGradient>
<linearGradient id="paint1_linear_1610_9431" x1="244.118" y1="207.228" x2="198.083" y2="161.193" gradientUnits="userSpaceOnUse">
<stop stop-color="#03B8DF"/>
<stop offset="1" stop-color="#1853A4"/>
</linearGradient>
<linearGradient id="paint2_linear_1610_9431" x1="216.203" y1="303.216" x2="170.168" y2="257.181" gradientUnits="userSpaceOnUse">
<stop stop-color="#03B8DF"/>
<stop offset="1" stop-color="#1853A4"/>
</linearGradient>
<linearGradient id="paint3_linear_1610_9431" x1="105.523" y1="307.133" x2="59.4883" y2="261.099" gradientUnits="userSpaceOnUse">
<stop stop-color="#03B8DF"/>
<stop offset="1" stop-color="#1853A4"/>
</linearGradient>
<linearGradient id="paint4_linear_1610_9431" x1="72.2214" y1="207.228" x2="26.1865" y2="161.193" gradientUnits="userSpaceOnUse">
<stop stop-color="#03B8DF"/>
<stop offset="1" stop-color="#1853A4"/>
</linearGradient>
</defs>
</svg>
