<svg width="270" height="220" viewBox="0 0 270 220" fill="none" xmlns="http://www.w3.org/2000/svg">
<rect opacity="0.3" x="21" y="64" width="148" height="149" fill="#D5F7FF"/>
<rect opacity="0.3" x="129" y="13" width="94" height="94" fill="#BCF3FF"/>
<rect opacity="0.3" x="193" y="92" width="70" height="70" fill="#D5F7FF"/>
<rect opacity="0.3" x="22" y="30" width="18" height="18" stroke="url(#paint0_linear_1606_5276)" stroke-width="2"/>
<rect opacity="0.3" x="208" y="151" width="41" height="42" fill="#87BAFF"/>
<path d="M195.955 210.972L190.94 212.184L183.878 193.419L191.279 191.63L195.955 210.972Z" fill="#F4A28C"/>
<path d="M198.329 215.475L196.789 209.105L186.978 211.477C185.327 211.878 183.902 212.918 183.017 214.368C182.131 215.818 181.857 217.561 182.255 219.213L182.289 219.353L198.329 215.475Z" fill="#24285B"/>
<path d="M173.756 214.388L168.596 214.388L166.142 194.489L173.756 194.489L173.756 214.388Z" fill="#F4A28C"/>
<path d="M175.005 212.77L164.912 212.77C163.212 212.77 161.582 213.445 160.38 214.647C159.178 215.848 158.503 217.478 158.502 219.178V219.322L175.005 219.323L175.005 212.77Z" fill="#24285B"/>
<path d="M174.966 207.503L174.118 176.545L175.261 163.992L177.49 173.652L187.232 205.42L195.63 203.21L185.904 168.957L188.016 146.986L181.947 143.085L181.865 143.1L161.129 146.922L166.138 206.62L174.966 207.503Z" fill="#24285B"/>
<path d="M166.759 151.232C168.429 151.232 170.382 150.694 172.556 149.159C179.512 144.25 187.807 149.531 187.89 149.585L188.227 149.804L188.215 149.402C188.207 149.116 187.373 120.684 187.373 111.536C187.373 102.083 181.207 95.182 179.316 93.292C177.461 91.4366 175.9 91.4777 173.924 91.5291C173.584 91.5377 173.229 91.5472 172.856 91.5472C170.273 91.5472 167.763 94.028 167.657 94.1337L167.607 94.1842L167.597 94.2549L160.432 148.206L160.487 148.276C160.52 148.318 162.873 151.232 166.759 151.232Z" fill="#68E1FD"/>
<path d="M162.69 82.9841C159.952 77.9754 161.793 71.6956 166.801 68.9576C171.81 66.2197 178.09 68.0604 180.828 73.069C183.566 78.0776 181.725 84.3575 176.716 87.0955C171.708 89.8334 165.428 87.9927 162.69 82.9841Z" fill="#F4A28C"/>
<path d="M155.936 159.87C156.425 159.491 156.825 159.01 157.108 158.459C157.391 157.909 157.549 157.304 157.573 156.686C157.596 156.067 157.484 155.452 157.243 154.882C157.003 154.311 156.641 153.801 156.182 153.386L162.051 139.542L154.366 140.956L149.971 153.886C149.325 154.703 149.001 155.729 149.061 156.769C149.121 157.809 149.56 158.79 150.296 159.528C151.031 160.266 152.011 160.708 153.051 160.771C154.091 160.834 155.117 160.513 155.936 159.87Z" fill="#F4A28C"/>
<path d="M157.6 151.99L168.205 130.354L172.856 114.07L172.852 99.9243C172.842 99.8684 171.748 94.3659 167.696 94.7464C164.022 95.1023 162.043 96.8989 161.079 100.754C160.261 104.029 161.38 113.744 161.489 114.661C160.778 116.347 150.112 141.761 151.877 144.821C151.943 144.941 152.04 145.04 152.156 145.111L150.266 149.101L157.6 151.99Z" fill="#9EECFE"/>
<path d="M173.08 81.9204C171.841 82.0816 170.907 80.8139 170.473 79.6421C170.04 78.4703 169.71 77.1061 168.632 76.4731C167.161 75.6083 165.278 76.6484 163.595 76.3631C161.694 76.0409 160.458 74.0267 160.362 72.1014C160.265 70.1762 161.031 68.3245 161.783 66.5494L162.045 68.7554C162.01 68.0078 162.167 67.2636 162.502 66.5941C162.837 65.9246 163.338 65.3522 163.957 64.9316L163.619 68.1686C163.691 67.722 163.85 67.294 164.088 66.9092C164.326 66.5244 164.637 66.1904 165.004 65.9262C165.372 65.6621 165.787 65.4731 166.228 65.3701C166.668 65.267 167.125 65.252 167.571 65.3258L167.518 67.2545C169.713 66.9935 171.927 66.7321 174.129 66.931C176.33 67.1298 178.547 67.8264 180.216 69.2764C182.712 71.4453 183.624 75.0166 183.318 78.3092C183.012 81.6017 181.653 84.6948 180.236 87.6827C179.88 88.4345 179.387 89.2828 178.56 89.3786C177.818 89.4647 177.138 88.8439 176.907 88.1329C176.729 87.4034 176.736 86.641 176.927 85.9148C177.136 84.805 177.399 83.6707 177.203 82.5586C177.007 81.4465 176.207 80.3476 175.086 80.2113C173.965 80.075 172.818 81.3564 173.357 82.3488L173.08 81.9204Z" fill="#24285B"/>
<path d="M70.4328 158.103C70.7764 157.711 71.03 157.249 71.1757 156.748C71.3213 156.248 71.3555 155.722 71.2758 155.207C71.1961 154.692 71.0044 154.201 70.7143 153.768C70.4242 153.335 70.0427 152.971 69.5967 152.701L72.2319 140.311L66.103 142.712L64.5401 154.11C64.137 154.889 64.0338 155.79 64.2499 156.64C64.4661 157.49 64.9867 158.232 65.7131 158.724C66.4394 159.216 67.321 159.425 68.1909 159.31C69.0608 159.196 69.8584 158.766 70.4328 158.103Z" fill="#FFB8B8"/>
<path d="M71.1288 148.435L71.1617 148.314C74.475 136.059 77.8998 123.391 82.0812 109.597L82.1086 109.507L82.0164 109.453C79.6858 108.093 76.1828 108.184 73.8683 109.664C72.8205 110.338 72.0055 111.319 71.5335 112.472C71.0616 113.626 70.9555 114.896 71.2297 116.112L68.18 132.013C66.9401 137.211 65.6569 142.591 64.4305 147.896L64.3957 148.046L64.5856 148.059C66.8186 148.201 69.1256 148.347 70.9739 148.429L71.1288 148.435Z" fill="#FFD200"/>
<path d="M99.2867 214.392H103.633L105.701 197.629H99.2867V214.392Z" fill="#FFB8B8"/>
<path d="M98.1777 218.604H112.191V218.427C112.189 216.981 111.614 215.595 110.591 214.572C109.569 213.549 108.182 212.974 106.736 212.973H98.1777L98.1777 218.604Z" fill="#24285B"/>
<path d="M58.3347 210.807L62.4758 212.126L69.5356 196.782L63.424 194.835L58.3347 210.807Z" fill="#FFB8B8"/>
<path d="M69.3513 218.738L69.405 218.569C69.8425 217.191 69.7154 215.695 69.0515 214.411C68.3877 213.126 67.2414 212.157 65.8641 211.716L57.7095 209.118L55.9998 214.484L69.3513 218.738Z" fill="#24285B"/>
<path d="M80.3316 98.3672C75.5232 98.3672 71.6252 94.4692 71.6252 89.6608C71.6252 84.8524 75.5232 80.9543 80.3316 80.9543C85.1401 80.9543 89.0381 84.8524 89.0381 89.6608C89.0381 94.4692 85.1401 98.3672 80.3316 98.3672Z" fill="#FFB8B8"/>
<path d="M76.4225 88.047C76.373 84.5354 77.8427 81.0576 80.115 79.3091C81.186 78.4606 82.5181 78.01 83.8842 78.0341C85.2503 78.0583 86.5657 78.5557 87.606 79.4414C89.8431 81.2697 91.2439 84.7982 91.1253 88.3068C86.1127 88.3211 81.1001 88.3354 76.4225 88.047Z" fill="#24285B"/>
<path d="M96.805 208.996L96.9792 208.979C100.76 208.608 104.67 208.225 108.364 208.181L108.565 208.178L108.538 207.979C107.663 201.639 107.292 195.048 106.933 188.673C106.578 182.379 106.212 175.871 105.358 169.69C104.997 168.035 104.645 166.399 104.295 164.769C101.393 151.284 98.6524 138.546 92.995 125.937L92.9416 125.818L92.812 125.834C87.5039 126.476 82.4033 128.413 78.45 131.287L78.3734 131.342L78.3772 131.437C78.4534 133.396 78.5323 135.42 78.4155 137.264C76.6213 139.757 75.4324 142.634 74.943 145.666C74.4536 148.699 74.6772 151.803 75.596 154.734C74.0394 159.937 72.4302 165.314 70.7882 170.619C66.8008 181.55 62.6747 192.863 58.4452 204.33L58.3758 204.518L58.5709 204.564C61.614 205.278 64.7532 206.015 67.8501 206.301L67.967 206.312L68.0226 206.208C75.92 191.511 82.3425 176.068 87.196 160.106C88.2529 163.329 89.7754 166.238 91.2503 169.056C92.6609 171.619 93.9022 174.272 94.9661 176.997C95.6189 182.357 95.792 188.165 95.9593 193.781C96.1176 199.09 96.2671 204.106 96.7857 208.822L96.805 208.996Z" fill="#24285B"/>
<path d="M83.3034 79.4703C79.5296 78.6573 75.3552 79.4308 72.3915 81.977C69.4278 84.5232 67.9228 88.9281 69.1403 92.7058C70.3579 96.4835 74.4915 99.1415 78.2291 98.1659C77.1585 95.1485 78.3634 91.4437 80.9807 89.7056C84.0845 87.6444 84.939 82.7234 83.3034 79.4703Z" fill="#24285B"/>
<path d="M78.7219 131.665L78.8599 131.602C83.6742 129.406 88.3949 127.72 92.8179 126.183L92.9535 126.153L92.9539 125.76L92.8658 125.791C92.8473 125.75 92.8265 125.704 92.8055 125.657C92.7451 125.524 92.7039 125.433 92.6689 125.372L92.6698 125.372C92.3011 124.621 92.008 123.894 91.7245 123.192C91.432 122.468 91.1301 121.719 90.7399 120.928C91.6857 119.979 92.3331 118.775 92.6025 117.463C92.8719 116.151 92.7514 114.789 92.2558 113.544C91.2787 111.229 88.7875 109.425 86.1699 109.126C85.2107 106.485 83.0735 100.937 83.0735 100.937C83.0735 100.937 78.5793 100.814 76.772 100.584L76.7416 100.581L76.7118 100.587C72.7661 101.452 69.472 105.185 68.7012 109.667C68.0506 113.449 69.0385 117.775 71.4829 121.849C72.7371 123.841 74.1238 125.746 75.6337 127.552C76.7348 128.929 77.7747 130.229 78.6384 131.539L78.7219 131.665Z" fill="#FFD200"/>
<path d="M70.0075 84.6294C72.6493 84.2351 74.7235 81.5347 74.4232 78.8806C74.1229 76.2264 71.4978 74.0577 68.8347 74.2635C66.1716 74.4694 63.911 77.0159 64.0222 79.6846C64.1334 82.3533 66.6346 85.1329 70.0075 84.6294Z" fill="#24285B"/>
<path d="M70.4197 82.9085C73.0614 82.5142 75.1356 79.8137 74.8353 77.1596C74.7044 76.2569 74.347 75.402 73.7964 74.6746C73.2459 73.9473 72.5202 73.3712 71.6869 73C73.8173 73.4663 75.6508 75.3227 75.8988 77.5141C76.1991 80.1682 74.1249 82.8687 71.4832 83.263C70.4987 83.4175 69.4906 83.2765 68.5864 82.8578C69.1895 82.9845 69.8105 83.0016 70.4197 82.9085Z" fill="#24285B"/>
<path d="M121.663 129.692C121.408 129.238 121.056 128.845 120.633 128.54C120.21 128.236 119.725 128.029 119.213 127.932C118.701 127.836 118.174 127.853 117.669 127.982C117.164 128.112 116.694 128.35 116.291 128.681L105.487 122.068L105.709 128.647L115.935 133.918C116.535 134.558 117.349 134.955 118.223 135.034C119.097 135.114 119.97 134.87 120.676 134.349C121.382 133.828 121.872 133.067 122.054 132.208C122.236 131.35 122.097 130.455 121.663 129.692Z" fill="#FFB8B8"/>
<path d="M112.78 125.815L112.676 125.743C102.225 118.536 91.4221 111.086 79.8101 102.548L79.734 102.492L79.6525 102.561C77.5938 104.306 76.512 107.639 77.1362 110.314C77.4233 111.527 78.0762 112.622 79.0065 113.451C79.9368 114.28 81.0994 114.804 82.337 114.95L96.3134 123.124C100.801 126.025 105.446 129.027 110.04 131.951L110.17 132.034L110.244 131.859C111.122 129.801 112.029 127.674 112.722 125.959L112.78 125.815Z" fill="#FFD200"/>
<path d="M117.515 67.5579L111.74 53.3904C111.534 52.8747 111.031 52.5396 110.477 52.5396C109.922 52.5396 109.432 52.8747 109.213 53.3904L103.438 67.5579C103.154 68.2541 103.49 69.0405 104.186 69.3241C104.882 69.6077 105.668 69.2725 105.952 68.5764L107.563 64.6187H113.364L114.976 68.5764C115.195 69.1049 115.698 69.4272 116.239 69.4272C116.407 69.4272 116.587 69.3885 116.755 69.3241C117.451 69.0405 117.786 68.2541 117.502 67.5579H117.515ZM108.685 61.9115L110.477 57.5027L112.269 61.9115H108.685Z" fill="#1853A4"/>
<path d="M148.983 38.5009C149.731 38.5009 150.337 37.895 150.337 37.1473C150.337 36.3996 149.731 35.7937 148.983 35.7937H144.33V34.8656C144.33 34.1179 143.724 33.512 142.976 33.512C142.228 33.512 141.622 34.1179 141.622 34.8656V35.7937H136.969C136.221 35.7937 135.615 36.3996 135.615 37.1473C135.615 37.895 136.221 38.5009 136.969 38.5009H145.722C145.258 40.4217 144.239 42.2007 143.04 43.7606C142.331 42.8195 141.674 41.8011 141.145 40.7182C140.823 40.0479 140.011 39.7643 139.328 40.0865C138.657 40.4088 138.374 41.221 138.696 41.9042C139.392 43.348 140.282 44.6759 141.223 45.8619C138.954 48.1823 136.737 49.639 136.685 49.6648C136.053 50.0644 135.873 50.9153 136.272 51.5469C136.53 51.9466 136.969 52.1657 137.42 52.1657C137.665 52.1657 137.923 52.1013 138.155 51.9466C138.348 51.8176 140.63 50.3351 143.028 47.8987C145.412 50.3609 147.655 51.8434 147.81 51.9337C148.042 52.0884 148.3 52.1528 148.545 52.1528C148.983 52.1528 149.422 51.9337 149.679 51.534C150.092 50.9024 149.911 50.0644 149.28 49.6519C149.241 49.6261 147.075 48.1952 144.832 45.849C146.508 43.7735 147.965 41.2597 148.493 38.4751H148.996L148.983 38.5009Z" fill="#1853A4"/>
<path d="M159.876 29H126.049C123.536 29 121.486 31.0497 121.486 33.5635V45.5396H124.206V33.5635C124.206 32.5451 125.031 31.7072 126.062 31.7072H159.902C160.92 31.7072 161.758 32.5322 161.758 33.5635V52.9263C161.758 53.9447 160.933 54.7827 159.902 54.7827H156.795C155.635 54.7827 154.578 55.221 153.779 55.9944C153.714 56.046 153.663 56.0976 153.611 56.162C153.559 56.2136 153.508 56.2781 153.469 56.3425C152.76 57.2062 152.438 58.3149 152.541 59.4622L153.16 65.8305L145.103 57.5027C143.633 55.9816 140.81 54.7827 138.683 54.7827H126.075C125.057 54.7827 124.219 53.9576 124.219 52.9392V50.825H121.499V52.9392C121.499 55.453 123.548 57.5027 126.062 57.5027H138.67C140.062 57.5027 142.125 58.3664 143.105 59.3591L143.117 59.372C143.13 59.3849 156.151 72.8305 156.151 72.8305C156.396 73.0883 156.563 72.9981 156.524 72.65C156.524 72.65 155.222 59.1528 155.222 59.1399C155.21 58.9208 155.222 58.7016 155.3 58.5083V58.4954C155.364 58.302 155.467 58.1215 155.609 57.9797C155.648 57.941 155.687 57.9024 155.725 57.8637C155.777 57.825 155.815 57.7863 155.841 57.7606C155.919 57.709 156.009 57.6574 156.099 57.6188C156.099 57.6188 156.112 57.6188 156.125 57.6188C156.318 57.5414 156.537 57.4898 156.782 57.4898H159.889C162.416 57.4898 164.453 55.4401 164.453 52.9263V33.5635C164.453 31.0497 162.403 29 159.889 29H159.876Z" fill="#1853A4"/>
<path d="M129.26 58.779V70.7422C129.26 71.7606 128.435 72.5985 127.403 72.5985H114.796C112.668 72.5985 109.858 73.7974 108.376 75.3186L100.319 83.6464L100.383 83.0018L100.937 77.2652C101.053 76.105 100.731 75.0092 100.009 74.1455C99.9705 74.081 99.919 74.0295 99.8674 73.965C99.8158 73.9134 99.7643 73.849 99.6998 73.7974C98.9005 73.011 97.8435 72.5856 96.6832 72.5856H93.5635C92.5451 72.5856 91.7072 71.7606 91.7072 70.7293V51.3665C91.7072 50.3481 92.5322 49.5102 93.5635 49.5102H127.403C128.422 49.5102 129.26 50.3352 129.26 51.3665V53.4807H131.98V51.3665C131.98 48.8527 129.93 46.803 127.416 46.803H93.5635C91.0368 46.803 89 48.8527 89 51.3665V70.7293C89 73.2431 91.0497 75.2928 93.5635 75.2928H96.6703C96.9153 75.2928 97.1473 75.3444 97.3407 75.4346C97.3407 75.4346 97.3407 75.4346 97.3536 75.4346C97.4309 75.4733 97.5212 75.512 97.5856 75.5635C97.6243 75.5893 97.663 75.628 97.7145 75.6667C97.7532 75.7053 97.7919 75.744 97.8306 75.7827C97.9724 75.9374 98.0755 76.105 98.14 76.2983V76.3112C98.2044 76.5046 96.9024 90.453 96.9024 90.453C96.8637 90.8011 97.0313 90.8784 97.2633 90.6464C97.2633 90.6464 97.2633 90.6464 97.2762 90.6335C97.2762 90.6335 110.451 77.0331 110.529 76.9687C111.573 76.0405 113.468 75.2799 114.77 75.2799H127.377C129.891 75.2799 131.941 73.2302 131.941 70.7164V58.7532H129.221L129.26 58.779Z" fill="#1853A4"/>
<defs>
<linearGradient id="paint0_linear_1606_5276" x1="41" y1="49" x2="21" y2="29" gradientUnits="userSpaceOnUse">
<stop stop-color="#03B8DF"/>
<stop offset="1" stop-color="#1853A4"/>
</linearGradient>
</defs>
</svg>
