<svg width="270" height="220" viewBox="0 0 270 220" fill="none" xmlns="http://www.w3.org/2000/svg">
<rect opacity="0.3" x="65.0002" y="16" width="158" height="158" fill="#D5F7FF"/>
<rect opacity="0.3" x="20.0002" y="110" width="99" height="100" fill="#BCF3FF"/>
<rect opacity="0.3" x="196" y="51" width="69" height="69" fill="#D5F7FF"/>
<rect opacity="0.3" x="214" y="180" width="23" height="23" stroke="url(#paint0_linear_1606_5596)" stroke-width="2"/>
<rect opacity="0.3" x="8.00049" y="34" width="44" height="44" fill="#87BAFF"/>
<path d="M127.543 220C178.675 220 220.125 217.88 220.125 215.266C220.125 212.651 178.675 210.531 127.543 210.531C76.4108 210.531 34.9602 212.651 34.9602 215.266C34.9602 217.88 76.4108 220 127.543 220Z" fill="#F2F2F2"/>
<path d="M181.633 69.4883H180.581V40.6759C180.581 36.2532 178.824 32.0116 175.697 28.8843C172.57 25.7569 168.328 24 163.905 24H102.862C98.4395 24 94.1979 25.7569 91.0706 28.8842C87.9432 32.0115 86.1863 36.2531 86.1863 40.6758V198.743C86.1863 203.166 87.9432 207.408 91.0705 210.535C94.1979 213.662 98.4394 215.419 102.862 215.419H163.905C168.328 215.419 172.57 213.662 175.697 210.535C178.824 207.408 180.581 203.166 180.581 198.743V89.9976H181.633L181.633 69.4883Z" fill="#24285B"/>
<path d="M177.032 40.7923V198.627C177.032 201.93 175.72 205.098 173.385 207.433C171.049 209.769 167.881 211.081 164.578 211.081H103.243C99.9395 211.081 96.7719 209.769 94.4363 207.433C92.1008 205.098 90.7886 201.93 90.7886 198.627V40.7923C90.7886 37.4893 92.1008 34.3217 94.4363 31.9861C96.7719 29.6506 99.9395 28.3384 103.243 28.3384H110.683C110.318 29.2368 110.178 30.2114 110.278 31.1763C110.377 32.1412 110.712 33.0669 111.253 33.8719C111.794 34.677 112.525 35.3367 113.381 35.7931C114.237 36.2495 115.192 36.4886 116.162 36.4893H151.133C152.103 36.4886 153.058 36.2495 153.914 35.7931C154.77 35.3367 155.5 34.677 156.042 33.8719C156.583 33.0669 156.918 32.1412 157.017 31.1763C157.116 30.2114 156.977 29.2368 156.612 28.3384H164.578C167.881 28.3384 171.049 29.6506 173.385 31.9861C175.72 34.3217 177.032 37.4893 177.032 40.7923Z" fill="white"/>
<ellipse cx="146.5" cy="89" rx="23.5" ry="23" fill="#E7ECF2"/>
<path d="M157.273 108.85C156.865 109.063 156.45 109.265 156.029 109.455C155.645 109.628 155.254 109.792 154.858 109.944C154.713 109.999 154.566 110.055 154.419 110.11C153.254 110.532 152.058 110.862 150.842 111.096C150.24 111.214 149.629 111.307 149.011 111.375C148.501 111.433 147.986 111.474 147.465 111.499C147.094 111.517 146.723 111.525 146.349 111.525C144.87 111.525 143.395 111.387 141.941 111.112C141.562 111.043 141.192 110.962 140.821 110.873C139.027 110.443 137.29 109.802 135.647 108.963C135.5 108.889 135.353 108.81 135.205 108.734C134.987 108.618 134.774 108.497 134.561 108.371C134.664 108.229 134.774 108.09 134.887 107.953C136.118 106.428 137.656 105.179 139.402 104.288C141.148 103.397 143.061 102.884 145.019 102.782C146.976 102.681 148.932 102.993 150.761 103.698C152.59 104.403 154.249 105.485 155.631 106.875C156.111 107.356 156.556 107.871 156.962 108.416C157.07 108.558 157.173 108.703 157.273 108.85Z" fill="#68E1FD"/>
<path d="M146.874 97.2964C153.253 97.2964 158.423 92.1257 158.423 85.7473C158.423 79.3689 153.253 74.1982 146.874 74.1982C140.496 74.1982 135.325 79.3689 135.325 85.7473C135.325 92.1257 140.496 97.2964 146.874 97.2964Z" fill="#24285B"/>
<path d="M149.946 97.3127C154.111 95.0356 155.642 89.8129 153.365 85.6474C151.088 81.4819 145.865 79.951 141.7 82.2281C137.534 84.5051 136.003 89.7279 138.28 93.8934C140.558 98.0589 145.78 99.5898 149.946 97.3127Z" fill="#A0616A"/>
<path d="M154.855 84.3637C152.891 85.7175 150.56 86.438 148.174 86.4285C149.025 87.0185 149.994 87.4171 151.014 87.5967C147.842 88.277 144.564 88.2955 141.384 87.6508C140.678 87.5375 139.996 87.3033 139.369 86.9585C139.056 86.7839 138.784 86.5455 138.57 86.2589C138.355 85.9722 138.204 85.6436 138.124 85.2944C137.913 84.0876 138.854 82.9911 139.831 82.2521C141.327 81.138 143.053 80.3703 144.882 80.0048C146.711 79.6392 148.599 79.6849 150.409 80.1384C151.59 80.4438 152.774 80.9599 153.541 81.9088C154.309 82.8577 154.536 84.3206 153.805 85.2977L154.855 84.3637Z" fill="#24285B"/>
<path d="M158.207 73.93C158.041 72.5422 155.904 71.6879 154.232 72.107C152.561 72.5262 151.464 73.8649 151.132 75.2337C150.972 75.8102 150.957 76.4061 151.088 76.9871C151.218 77.5682 151.492 78.1231 151.892 78.62C152.737 79.5871 154.29 80.1907 155.738 79.9452C157.391 79.6649 158.536 78.381 158.864 77.0621C159.191 75.7432 158.866 74.3834 158.541 73.0641L158.207 73.93Z" fill="#24285B"/>
<path d="M105.433 97.3137C105.269 97.3135 105.107 97.2792 104.958 97.2128C104.808 97.1465 104.674 97.0497 104.563 96.9285L91.5119 82.6904C91.3638 82.5292 91.1839 82.4005 90.9835 82.3123C90.7832 82.2242 90.5667 82.1785 90.3478 82.1783H21.3791C20.3325 82.1771 19.329 81.7608 18.589 81.0207C17.8489 80.2806 17.4326 79.2772 17.4314 78.2305V53.3589C17.4326 52.3122 17.8489 51.3088 18.589 50.5687C19.329 49.8286 20.3325 49.4123 21.3791 49.4111H110.733C111.78 49.4123 112.783 49.8286 113.523 50.5687C114.263 51.3088 114.68 52.3122 114.681 53.3589V78.2305C114.68 79.2772 114.263 80.2806 113.523 81.0207C112.783 81.7608 111.78 82.1771 110.733 82.1783H108.2C107.781 82.1787 107.38 82.3453 107.084 82.6414C106.788 82.9375 106.621 83.3389 106.621 83.7577V96.1283C106.622 96.3671 106.55 96.6006 106.415 96.7977C106.28 96.9948 106.089 97.1462 105.866 97.2318C105.728 97.2858 105.581 97.3135 105.433 97.3137Z" fill="#F1F4F9"/>
<path d="M27.1151 60.3825C29.0229 60.3825 30.5695 58.8359 30.5695 56.928C30.5695 55.0202 29.0229 53.4736 27.1151 53.4736C25.2072 53.4736 23.6606 55.0202 23.6606 56.928C23.6606 58.8359 25.2072 60.3825 27.1151 60.3825Z" fill="#68E1FD"/>
<path d="M106.703 76.0426H25.4095C25.1674 76.0429 24.9276 75.9955 24.7038 75.903C24.48 75.8105 24.2766 75.6749 24.1053 75.5038C23.934 75.3327 23.7981 75.1295 23.7054 74.9058C23.6127 74.6821 23.5649 74.4424 23.5649 74.2003C23.5649 73.9581 23.6127 73.7184 23.7054 73.4947C23.7981 73.271 23.934 73.0679 24.1053 72.8967C24.2766 72.7256 24.48 72.59 24.7038 72.4975C24.9276 72.4051 25.1674 72.3576 25.4095 72.3579H106.703C107.192 72.3585 107.66 72.5529 108.005 72.8983C108.35 73.2437 108.543 73.712 108.543 74.2003C108.543 74.6885 108.35 75.1568 108.005 75.5022C107.66 75.8477 107.192 76.042 106.703 76.0426Z" fill="#DCE1E9"/>
<path d="M80.2195 68.2128H25.4095C25.1674 68.2131 24.9276 68.1656 24.7038 68.0732C24.48 67.9807 24.2766 67.8451 24.1053 67.674C23.934 67.5028 23.7981 67.2996 23.7054 67.076C23.6127 66.8523 23.5649 66.6126 23.5649 66.3704C23.5649 66.1283 23.6127 65.8886 23.7054 65.6649C23.7981 65.4412 23.934 65.238 24.1053 65.0669C24.2766 64.8958 24.48 64.7601 24.7038 64.6677C24.9276 64.5752 25.1674 64.5278 25.4095 64.5281H80.2195C80.7081 64.5281 81.1767 64.7222 81.5222 65.0677C81.8677 65.4132 82.0618 65.8818 82.0618 66.3704C82.0618 66.8591 81.8677 67.3277 81.5222 67.6732C81.1767 68.0187 80.7081 68.2128 80.2195 68.2128Z" fill="#DCE1E9"/>
<path d="M163.424 181.661C163.201 181.575 163.01 181.424 162.875 181.227C162.74 181.03 162.668 180.796 162.669 180.557V168.187C162.669 167.768 162.502 167.366 162.206 167.07C161.91 166.774 161.509 166.608 161.09 166.607H158.557C157.51 166.606 156.507 166.19 155.767 165.45C155.027 164.71 154.61 163.706 154.609 162.66V137.788C154.61 136.741 155.027 135.738 155.767 134.998C156.507 134.258 157.51 133.841 158.557 133.84H247.911C248.958 133.841 249.961 134.258 250.701 134.998C251.441 135.738 251.857 136.741 251.859 137.788V162.66C251.857 163.706 251.441 164.71 250.701 165.45C249.961 166.19 248.958 166.606 247.911 166.607H178.942C178.723 166.607 178.507 166.653 178.306 166.741C178.106 166.829 177.926 166.958 177.778 167.119L164.727 181.357C164.616 181.479 164.482 181.575 164.332 181.642C164.183 181.708 164.021 181.742 163.857 181.743C163.709 181.742 163.562 181.715 163.424 181.661Z" fill="#E7ECF2"/>
<ellipse cx="123.5" cy="170" rx="23.5" ry="23" fill="#E7ECF2"/>
<path d="M135.573 189.363C131.909 191.709 127.664 192.989 123.313 193.058C118.963 193.127 114.679 191.983 110.942 189.755C111.599 188.531 112.432 187.41 113.414 186.428C114.929 184.905 116.774 183.75 118.805 183.052C120.836 182.353 123.001 182.129 125.132 182.398C127.263 182.666 129.304 183.42 131.099 184.6C132.893 185.781 134.394 187.357 135.484 189.208C135.513 189.258 135.544 189.31 135.573 189.363Z" fill="#FFD200"/>
<path d="M122.23 176.785C128.65 176.785 133.855 171.58 133.855 165.159C133.855 158.738 128.65 153.533 122.23 153.533C115.809 153.533 110.604 158.738 110.604 165.159C110.604 171.58 115.809 176.785 122.23 176.785Z" fill="#24285B"/>
<path d="M130.88 173.359C133.172 169.166 131.631 163.909 127.438 161.616C123.245 159.324 117.987 160.865 115.695 165.058C113.403 169.252 114.944 174.509 119.137 176.801C123.33 179.093 128.588 177.552 130.88 173.359Z" fill="#FFB8B8"/>
<path d="M114.196 163.766C116.173 165.129 118.52 165.854 120.921 165.845C120.065 166.439 119.089 166.84 118.063 167.021C121.256 167.705 124.556 167.724 127.756 167.075C128.467 166.961 129.154 166.725 129.785 166.378C130.1 166.202 130.374 165.962 130.59 165.674C130.805 165.385 130.958 165.055 131.038 164.703C131.25 163.488 130.304 162.384 129.32 161.641C127.813 160.519 126.077 159.746 124.235 159.378C122.394 159.01 120.493 159.056 118.672 159.513C117.482 159.82 116.291 160.34 115.518 161.295C114.746 162.25 114.517 163.723 115.253 164.706L114.196 163.766Z" fill="#24285B"/>
<path d="M165.726 144.548C167.634 144.548 169.18 143.002 169.18 141.094C169.18 139.186 167.634 137.64 165.726 137.64C163.818 137.64 162.271 139.186 162.271 141.094C162.271 143.002 163.818 144.548 165.726 144.548Z" fill="#FFD200"/>
<path d="M245.314 160.209H164.02C163.778 160.209 163.538 160.161 163.315 160.069C163.091 159.977 162.887 159.841 162.716 159.67C162.545 159.499 162.409 159.295 162.316 159.072C162.224 158.848 162.176 158.608 162.176 158.366C162.176 158.124 162.224 157.884 162.316 157.661C162.409 157.437 162.545 157.234 162.716 157.063C162.887 156.892 163.091 156.756 163.315 156.664C163.538 156.571 163.778 156.524 164.02 156.524H245.314C245.803 156.524 246.271 156.718 246.617 157.064C246.962 157.409 247.156 157.878 247.156 158.366C247.156 158.855 246.962 159.324 246.617 159.669C246.271 160.015 245.803 160.209 245.314 160.209Z" fill="white"/>
<path d="M218.83 152.379H164.02C163.778 152.379 163.538 152.331 163.315 152.239C163.091 152.146 162.887 152.011 162.716 151.84C162.545 151.669 162.409 151.465 162.316 151.242C162.224 151.018 162.176 150.778 162.176 150.536C162.176 150.294 162.224 150.054 162.316 149.831C162.409 149.607 162.545 149.404 162.716 149.233C162.887 149.062 163.091 148.926 163.315 148.833C163.538 148.741 163.778 148.694 164.02 148.694H218.83C219.319 148.694 219.787 148.889 220.132 149.234C220.477 149.58 220.67 150.048 220.67 150.536C220.67 151.024 220.477 151.493 220.132 151.838C219.787 152.184 219.319 152.378 218.83 152.379Z" fill="white"/>
<path d="M163.313 184.016C166.872 184.016 169.758 183.695 169.758 183.3C169.758 182.905 166.872 182.585 163.313 182.585C159.753 182.585 156.868 182.905 156.868 183.3C156.868 183.695 159.753 184.016 163.313 184.016Z" fill="#F2F2F2"/>
<path d="M105.712 99.8496C109.271 99.8496 112.157 99.5293 112.157 99.1343C112.157 98.7392 109.271 98.4189 105.712 98.4189C102.152 98.4189 99.2668 98.7392 99.2668 99.1343C99.2668 99.5293 102.152 99.8496 105.712 99.8496Z" fill="#F2F2F2"/>
<defs>
<linearGradient id="paint0_linear_1606_5596" x1="238" y1="204" x2="213" y2="179" gradientUnits="userSpaceOnUse">
<stop stop-color="#03B8DF"/>
<stop offset="1" stop-color="#1853A4"/>
</linearGradient>
</defs>
</svg>
